<svg width="32" height="32" viewBox="0 0 32 32" fill="none" xmlns="http://www.w3.org/2000/svg">
<path d="M31.9999 16C31.9999 7.16342 24.8365 0 16 0C7.16342 0 0 7.16342 0 16C0 23.986 5.85095 30.6053 13.5 31.8056V20.625H9.43749V16H13.5V12.475C13.5 8.46498 15.8886 6.25 19.5434 6.25C21.2939 6.25 23.125 6.56249 23.125 6.56249V10.5H21.1074C19.1198 10.5 18.5 11.7333 18.5 12.9986V16H22.9375L22.2281 20.625H18.5V31.8056C26.149 30.6053 31.9999 23.986 31.9999 16Z" fill="#1877F2"/>
<path d="M22.2281 20.625L22.9375 16H18.5V12.9986C18.5 11.7333 19.1198 10.5 21.1074 10.5H23.125V6.56249C23.125 6.56249 21.2939 6.25 19.5434 6.25C15.8887 6.25 13.5 8.46498 13.5 12.475V16H9.4375V20.625H13.5V31.8056C14.327 31.9352 15.1629 32.0002 16 31.9999C16.8505 31.9999 17.6854 31.9334 18.5 31.8056V20.625H22.2281Z" fill="white"/>
</svg>
