<svg width="30" height="30" viewBox="0 0 30 30" fill="none" xmlns="http://www.w3.org/2000/svg">
<path fill-rule="evenodd" clip-rule="evenodd" d="M15 27.5C21.9036 27.5 27.5 21.9036 27.5 15C27.5 8.09644 21.9036 2.5 15 2.5C8.09644 2.5 2.5 8.09644 2.5 15C2.5 21.9036 8.09644 27.5 15 27.5Z" stroke="#1D242F" stroke-width="2" stroke-linecap="round" stroke-linejoin="round"/>
<g clip-path="url(#clip0)">
<path d="M15 7.6665V22.3332" stroke="#1D242F" stroke-width="2" stroke-linecap="round" stroke-linejoin="round"/>
<path d="M18.3333 10.3335H13.3333C12.7145 10.3335 12.121 10.5793 11.6834 11.0169C11.2458 11.4545 11 12.048 11 12.6668C11 13.2857 11.2458 13.8792 11.6834 14.3167C12.121 14.7543 12.7145 15.0002 13.3333 15.0002H16.6667C17.2855 15.0002 17.879 15.246 18.3166 15.6836C18.7542 16.1212 19 16.7147 19 17.3335C19 17.9523 18.7542 18.5458 18.3166 18.9834C17.879 19.421 17.2855 19.6668 16.6667 19.6668H11" stroke="#1D242F" stroke-width="2" stroke-linecap="round" stroke-linejoin="round"/>
</g>
<defs>
<clipPath id="clip0">
<rect width="16" height="16" fill="white" transform="translate(7 7)"/>
</clipPath>
</defs>
</svg>
