<svg width="88" height="78" viewBox="0 0 88 78" fill="none" xmlns="http://www.w3.org/2000/svg">
<path d="M18.2728 77.2234C17.6033 78.088 16.3563 78.2494 15.5227 77.5417C9.05196 72.0481 4.29679 64.789 1.85198 56.6311C-0.782623 47.8398 -0.602318 38.4448 2.36765 29.761C5.33763 21.0773 10.9486 13.5396 18.4152 8.20313C25.8817 2.86662 34.8301 -0.0015894 44.0076 6.60379e-07C53.1852 0.00159072 62.1326 2.8729 69.5972 8.212C77.0619 13.5511 82.6703 21.0907 85.6373 29.7755C88.6042 38.4602 88.7813 47.8553 86.1436 56.6457C83.696 64.8028 78.9383 72.0602 72.4657 77.5516C71.6318 78.259 70.3849 78.0971 69.7157 77.2323C69.0465 76.3674 69.2087 75.1275 70.0394 74.4163C75.8603 69.4331 80.1405 62.8734 82.3507 55.5076C84.751 47.5084 84.5899 38.9588 81.8899 31.0557C79.19 23.1526 74.0864 16.2915 67.2935 11.4329C60.5006 6.57434 52.3585 3.96145 44.0069 3.96C35.6554 3.95855 27.5123 6.56862 20.7178 11.4249C13.9232 16.2811 8.81725 23.1404 6.11456 31.0426C3.41189 38.9447 3.24781 47.4942 5.6453 55.4943C7.85297 62.8609 12.1308 69.4221 17.9501 74.4073C18.7805 75.1187 18.9423 76.3588 18.2728 77.2234Z" fill="#DBE1E8"/>
</svg>
