<svg width="157" height="159" viewBox="0 0 157 159" fill="none" xmlns="http://www.w3.org/2000/svg">
<path d="M153.854 98.5145C153.605 97.5571 153.356 96.5998 153.146 95.7764C152.236 92.1002 151.231 88.5101 150.178 85.0445C149.125 81.5789 148.091 77.8835 147.191 74.1881C146.741 72.3308 146.291 70.3586 145.841 68.3769C143.764 59.2916 141.408 48.9904 136.899 41.188C130.198 29.537 122.367 30.9826 112.506 32.8207L112.056 32.9069C102.913 34.6014 61.9096 44.6823 50.7181 48.3011C45.5388 49.9861 40.0723 51.1732 34.7877 52.3508C28.3005 53.6432 21.9046 55.3573 15.6406 57.4822C8.64228 60.0096 4.29588 62.9295 1.97908 66.6632C-1.65888 72.5223 0.389863 81.4831 2.77368 91.8513C4.45863 99.1846 6.76586 106.642 8.9965 113.87C9.77196 116.36 10.5378 118.839 11.275 121.3C12.6153 125.78 15.1044 133.649 18.7807 144.697C21.6528 153.314 29.3116 159 37.4108 159C38.5452 159 39.6769 158.892 40.7903 158.675C47.712 157.306 52.3935 156.262 54.6815 155.573C58.3099 154.482 62.0628 153.448 66.0262 152.347C72.1342 150.643 78.4719 148.891 84.2926 146.957C90.7356 144.822 97.3413 142.859 103.727 140.973C113.75 137.996 124.119 134.923 134.161 131.103C135.473 130.595 137.1 130.146 138.824 129.638C144.922 127.896 152.514 125.732 155.175 119.49C157.837 113.248 155.587 105.13 153.854 98.5145Z" fill="#EFFAFF"/>
<path d="M138.833 106.087C131.03 98.6388 109.231 90.0226 102.089 87.3132C103.765 84.7284 105.354 82.0191 106.876 79.3863C108.609 76.3994 110.409 73.3167 112.324 70.4733C116.431 64.3463 125.267 50.1008 125.353 49.9572C125.714 49.3757 125.737 48.6459 125.414 48.0427C125.091 47.4395 124.471 47.0545 123.787 47.0327C123.103 47.0109 122.459 47.3557 122.098 47.9372C122.012 48.0808 113.214 62.2975 109.145 68.3384C107.163 71.2871 105.316 74.4272 103.564 77.4525C101.649 80.7362 99.6769 84.154 97.5611 87.1792C94.1721 92.0713 89.0502 99.4717 84.0241 101.865C65.6237 110.625 31.8673 89.0078 20.7716 81.9042C19.2685 80.9468 18.1771 80.2384 17.4878 79.8554C14.1754 77.9407 8.36423 75.1644 8.11531 75.0686C7.15831 74.6086 6.0096 75.0116 5.5496 75.9686C5.0896 76.9256 5.49251 78.0743 6.44951 78.5343C6.50695 78.5343 12.3851 81.4063 15.5827 83.2062C16.1858 83.5508 17.2964 84.2593 18.6941 85.1209C24.2946 88.7014 35.4478 95.8433 47.7594 101.137C42.1015 110.165 35.1894 130.892 33.782 135.191C33.455 136.195 34.0034 137.275 35.0075 137.603C35.199 137.666 35.3994 137.699 35.601 137.699C36.4293 137.699 37.1632 137.165 37.42 136.378C41.2494 124.545 47.1467 108.959 51.3687 102.612C59.0275 105.589 66.8683 107.686 74.0389 107.686C78.0395 107.781 82.0107 106.98 85.6612 105.34C91.1756 102.708 96.1059 95.9773 99.8492 90.597C105.718 92.7893 128.666 101.664 136.181 108.873C136.538 109.217 137.015 109.41 137.512 109.409C138.295 109.41 139.001 108.933 139.292 108.205C139.583 107.478 139.401 106.646 138.833 106.106V106.087Z" fill="#ABE4FF"/>
<path d="M151.075 9.2985C144.469 1.84069 130.904 -3.01311 120.497 2.13747C115.442 4.63617 109.966 8.26455 108.052 16.268C106.874 21.0548 105.754 28.3786 109.737 36.0853C113.681 43.7442 121.55 48.215 130.885 48.215H131.478C140.927 48.0236 150.022 41.6284 154.1 32.3133C157.691 24.0801 156.561 15.483 151.075 9.2985Z" fill="#F66993"/>
<path d="M134.311 35.8354C133.378 35.8515 132.569 35.1922 132.397 34.2749C131.698 30.5412 130.903 23.5717 130.415 18.9572C128.733 21.0254 126.879 22.947 124.872 24.7013C124.331 25.122 123.608 25.2225 122.973 24.9648C122.339 24.7072 121.89 24.1305 121.796 23.4522C121.701 22.7738 121.976 22.0968 122.517 21.6761C124.68 19.9911 128.902 14.8693 130.348 13.0599C130.826 12.4497 131.626 12.1884 132.372 12.3981C133.119 12.6078 133.665 13.2471 133.756 14.0172C133.756 14.1608 135.116 27.9659 136.169 33.576C136.264 34.0764 136.156 34.594 135.868 35.0144C135.581 35.4348 135.138 35.7234 134.637 35.8162L134.311 35.8354Z" fill="white"/>
</svg>
