<svg width="374" height="277" viewBox="0 0 374 277" fill="none" xmlns="http://www.w3.org/2000/svg">
<path opacity="0.5" d="M201.1 276.96C283.636 276.96 350.544 273.937 350.544 270.207C350.544 266.477 283.636 263.453 201.1 263.453C118.565 263.453 51.6562 266.477 51.6562 270.207C51.6562 273.937 118.565 276.96 201.1 276.96Z" fill="#DBE1E8"/>
<g opacity="0.5">
<g opacity="0.5">
<path opacity="0.5" fill-rule="evenodd" clip-rule="evenodd" d="M185.029 4.13308C198.933 4.08558 212.682 5.38901 226.011 9.59757C230.058 10.8755 234.092 12.2907 237.954 14.0359C242.109 15.9135 245.884 18.5263 249.539 21.2663C254.343 24.8678 258.62 29.0219 262.285 33.7749C265.903 38.4669 268.513 43.6202 269.339 49.5865C269.863 53.3781 269.603 57.069 268.282 60.6528C265.817 67.3358 262.485 73.4821 257.126 78.3574C252.897 82.2037 248.704 86.0885 244.491 89.952C239.708 94.3383 235.146 98.9314 231.24 104.133C228.166 108.226 225.604 112.585 224.449 117.64C224.195 118.751 223.965 119.88 223.873 121.013C223.456 126.11 225.889 129.836 229.903 132.552C233.128 134.735 236.88 135.669 240.756 135.614C248.82 135.5 256.884 135.284 264.943 134.983C276.115 134.564 287.281 133.956 298.468 134.209C312.53 134.526 326.498 135.667 340.176 139.169C347.458 141.034 354.494 143.554 361 147.395C363.857 149.082 366.582 150.966 368.83 153.413C370.152 154.851 371.386 156.424 372.369 158.106C374.268 161.355 374.475 164.834 373.163 168.38C371.862 171.898 369.713 174.866 367.15 177.555C363.014 181.897 358.022 185.006 352.636 187.536C346.005 190.651 339.067 192.94 331.988 194.724C320.421 197.638 308.803 200.356 297.187 203.077C278.279 207.505 259.349 211.84 240.442 216.271C227.334 219.342 214.167 222.099 200.833 223.988C190.567 225.443 180.245 226.221 169.871 225.925C161.034 225.674 152.455 224.134 144.379 220.344C140.663 218.6 137.279 216.385 134.447 213.4C124.49 202.91 130.959 190.213 137.448 179.978C138.671 178.049 140.052 176.212 141.173 174.228C141.943 172.863 142.574 171.36 142.943 169.84C143.703 166.712 142.529 164.355 139.663 162.899C137.478 161.79 135.119 161.319 132.681 161.205C126.933 160.937 121.245 161.58 115.623 162.617C103.886 164.782 92.1749 167.085 80.4661 169.396C71.2948 171.205 62.0665 171.561 52.7769 170.712C51.8961 170.631 50.9946 170.501 50.1613 170.221C41.8572 167.428 34.3689 163.299 28.2686 156.876C22.8912 151.215 19.9117 144.377 18.3136 136.854C16.6714 129.125 16.7878 121.367 17.8182 113.564C19.229 102.879 22.3578 92.7691 27.4597 83.2665C30.4512 77.6948 33.9609 72.4958 38.5239 68.0871C45.9213 60.9392 53.1461 53.5883 60.87 46.8082C73.6249 35.6117 88.2778 27.3682 103.853 20.7375C119.403 14.118 135.567 9.62132 152.233 6.86707C161.457 5.34256 170.728 4.34124 180.078 4.13832C181.728 4.10235 183.379 4.13308 185.029 4.13308Z" fill="#DBE1E8"/>
</g>
</g>
<path fill-rule="evenodd" clip-rule="evenodd" d="M262.259 237.088C262.918 237.333 263.448 237.93 264.037 238.364C263.993 238.601 263.949 238.838 263.906 239.075C262.918 239.331 261.914 239.854 260.945 239.796C257.005 239.56 253.866 241.102 251.156 243.804C250.974 243.985 250.693 244.07 250.448 244.181C250.374 244.215 250.272 244.187 250.137 244.187C248.886 243.32 249.434 242.288 250.019 241.348C252.002 238.157 258.757 235.791 262.259 237.088ZM263.54 229.821C263.868 229.964 264.236 230.144 264.437 230.418C264.685 230.756 264.97 231.259 264.883 231.598C264.801 231.917 264.26 232.321 263.911 232.33C263.019 232.353 262.122 232.165 261.226 232.084C258.892 231.873 256.528 231.343 254.231 231.549C251.003 231.84 248.097 233.315 245.908 235.769C244.104 237.792 242.56 240.049 240.895 242.196C240.382 242.857 240.306 243.997 238.93 243.905C238.135 242.832 238.479 241.657 238.998 240.65C242.271 234.294 246.985 229.655 254.281 228.303C257.521 227.702 260.582 228.537 263.54 229.821ZM302.031 237.327C305.227 237.524 307.308 239.196 307.433 241.686C306.426 242.535 305.445 241.902 304.681 241.414C301.586 239.44 298.663 239.78 295.726 241.694C295.32 241.959 294.736 241.975 293.926 242.186C294.47 238.822 297.642 237.058 302.031 237.327ZM225.265 231.515C225.351 231.545 225.447 231.552 225.525 231.594C226.463 232.097 227.866 232.428 227.47 233.826C227.082 235.193 225.899 234.528 224.933 234.341C220.29 233.441 216.034 233.934 212.887 238.031C212.388 238.681 212.078 239.486 211.546 240.098C211.194 240.501 210.599 240.687 209.998 241.037C209.254 239.03 210.154 237.665 210.963 236.406C213.718 232.119 220.425 229.877 225.265 231.515ZM309.556 230.437C311.9 232.195 314.173 234.086 315.42 236.832C315.598 237.224 315.332 237.814 315.265 238.361C313.792 238.563 313.122 237.635 312.372 236.886C311.013 235.531 309.771 234.043 308.302 232.82C303.075 228.467 296.904 228.966 292.465 234.106C291.099 235.687 289.993 237.489 288.763 239.185C288.26 239.879 288.049 240.954 286.799 240.715C286.234 237.721 289.882 232.501 294.629 229.488C299.19 226.594 304.847 226.904 309.556 230.437ZM266.358 220.637C267.512 221.057 268.746 221.619 268.628 223.619C267.686 223.494 266.838 223.394 265.994 223.266C262.778 222.775 259.578 222.006 256.345 221.83C247.851 221.371 241.568 225.308 237.045 232.332C235.864 234.167 234.904 236.145 233.714 237.973C233.168 238.812 232.313 239.447 231.598 240.174C231.395 240.071 231.191 239.966 230.987 239.862C231.046 239.109 230.907 238.268 231.195 237.617C234.483 230.179 238.974 223.778 246.741 220.48C253.267 217.708 259.848 218.265 266.358 220.637ZM307.479 217.817C309.55 218.308 311.612 219.363 313.352 220.612C317.746 223.767 320.863 228.064 323.236 232.88C323.725 233.871 323.827 235.052 324.102 236.128C322.57 236.917 321.815 236.273 321.225 235.418C320.394 234.216 319.635 232.963 318.877 231.713C317.012 228.639 314.784 225.866 311.996 223.581C309.444 221.49 306.547 220.246 303.177 220.372C301.26 220.445 299.315 220.391 297.432 220.696C292.5 221.493 288.986 224.56 286.234 228.454C284.185 231.354 282.532 234.533 280.687 237.578C280.152 238.46 279.564 239.31 279 240.174C278.707 240.055 278.413 239.935 278.119 239.816C278.245 238.866 278.175 237.835 278.529 236.979C281.078 230.807 284.524 225.198 290.016 221.225C295.241 217.446 301.21 216.334 307.479 217.817ZM220.994 223.051C223.372 223.468 225.645 224.537 227.938 225.389C228.51 225.602 229.074 226.041 229.452 226.529C229.738 226.897 229.951 227.634 229.772 227.977C229.584 228.336 228.834 228.67 228.425 228.578C227.188 228.299 225.984 227.846 224.791 227.393C219.871 225.526 214.873 225.074 209.79 226.574C204.587 228.108 200.763 231.265 198.75 236.492C198.452 237.265 198.123 238.029 197.748 238.765C197.64 238.977 197.317 239.075 196.965 239.312C195.527 238.452 195.912 237.342 196.189 236.272C197.456 231.38 200.618 227.998 204.829 225.655C209.871 222.85 215.367 222.063 220.994 223.051ZM313.487 208.333C322.087 213.086 327.996 220.263 331.496 229.438C331.851 230.368 331.751 231.474 331.862 232.499L330.95 232.896C330.261 232.116 329.441 231.418 328.912 230.542C327.775 228.658 326.765 226.695 325.744 224.743C322.67 218.867 318.058 214.442 312.454 211.131C304.759 206.583 296.963 207.343 289.564 211.816C281.635 216.61 276.642 223.867 273.619 232.558C273.227 233.685 272.918 234.845 272.457 235.941C272.202 236.549 271.713 237.058 271.345 237.588C269.926 236.819 270.402 235.854 270.589 235.004C272.04 228.407 275.093 222.597 279.394 217.456C284.157 211.764 289.866 207.523 297.297 205.947C303.011 204.734 308.439 205.543 313.487 208.333ZM233.812 217.981C234.695 218.444 235.567 218.987 236.304 219.652C236.776 220.077 236.989 220.792 237.31 221.363C235.924 222.371 234.937 221.699 233.989 221.227C228.545 218.521 222.845 216.711 216.794 216.018C212.566 215.533 208.378 215.675 204.346 217.049C197.389 219.418 193.464 224.459 192.162 231.66C191.983 232.652 191.821 233.65 191.59 234.631C191.361 235.598 191.209 236.864 189.881 236.714C188.466 236.553 188.727 235.229 188.825 234.289C189.33 229.458 190.695 224.93 193.809 221.095C197.648 216.367 202.716 213.774 208.645 213.134C217.482 212.181 225.908 213.84 233.812 217.981ZM179.867 198.938C181.223 199.438 182.556 200.097 183.751 200.903C184.582 201.463 185.158 202.402 185.867 203.193C184.608 204.224 183.868 203.417 183.113 203.038C174.817 198.864 166.269 198.57 157.68 201.774C148.164 205.324 143.134 212.668 141.372 222.444C140.741 225.946 140.36 229.493 139.83 233.014C139.687 233.959 139.666 235.006 138.273 235.864C138.109 234.794 137.84 233.959 137.875 233.137C138.141 226.996 138.936 220.931 141.118 215.148C144.801 205.387 152.18 199.979 162.096 197.853C168.075 196.572 174.062 196.8 179.867 198.938ZM178.562 232.266C178.812 232.373 178.926 232.806 179.257 233.337C178.607 234.175 178.005 235.023 177.309 235.784C177.174 235.932 176.589 235.859 176.363 235.685C175.355 234.917 175.943 234.042 176.392 233.301C176.859 232.528 177.512 231.82 178.562 232.266ZM182.43 212.684C183.215 213.227 184.204 213.765 183.732 215.586C181.927 215 180.225 214.647 178.703 213.918C173.722 211.531 168.894 212.129 164.22 214.589C157.335 218.21 153.091 223.887 151.422 231.519C151.133 232.835 151.397 234.461 149.738 235.576C149.493 234.856 149.186 234.315 149.139 233.753C148.855 230.284 149.61 226.979 151.22 223.945C155.004 216.812 160.676 211.911 168.621 209.932C173.628 208.685 178.234 209.779 182.43 212.684ZM132.124 230.352C130.893 230.905 130.072 231.411 129.181 231.638C128.061 231.921 126.887 232.042 125.728 232.114C124.058 232.217 122.848 232.87 122.137 234.479C121.935 234.937 121.333 235.215 120.914 235.576C120.529 235.044 119.897 234.551 119.808 233.972C119.585 232.533 120.286 231.359 121.34 230.402C123.741 228.22 128.733 228.009 132.124 230.352ZM180.119 222.562C180.904 222.609 181.652 223.257 182.418 223.631L182.324 224.594C181.325 224.801 180.335 225.102 179.327 225.194C177.344 225.376 175.329 225.291 173.368 225.587C169.205 226.215 166.527 228.677 165.256 232.701C165.003 233.501 164.692 234.282 164.33 235.289C162.632 234.194 162.777 232.953 163.025 231.699C163.887 227.338 168.033 223.263 172.804 222.548C175.193 222.191 177.685 222.414 180.119 222.562ZM125.664 217.953C127.971 218.466 130.204 219.357 132.427 220.193C133.196 220.482 133.833 221.129 134.424 221.895C132.458 222.602 130.596 222.479 128.73 222.11C127.204 221.809 125.693 221.42 124.158 221.167C116.361 219.885 109.34 224.185 106.758 231.78C106.503 232.53 106.187 233.259 105.844 234.139C104.149 233.474 104.218 232.399 104.264 231.402C104.401 228.406 105.559 225.766 107.638 223.709C112.651 218.753 118.6 216.379 125.664 217.953ZM133.579 209.009C134.589 209.753 135.482 210.701 136.264 211.686C136.624 212.14 136.582 212.911 136.723 213.537C136.475 213.659 136.228 213.781 135.981 213.903C135.189 213.329 134.398 212.754 133.606 212.18C129.528 209.229 124.999 207.253 119.965 207.084C108.206 206.691 98.4504 214.494 96.8002 225.945C96.5411 227.742 96.2412 229.541 95.8189 231.307C95.6255 232.117 95.0892 232.845 94.7316 233.564C93.1652 233.153 92.9794 232.182 93.0522 231.142C93.7041 221.798 96.8876 213.774 105.057 208.362C113.66 202.663 125.27 202.898 133.579 209.009ZM340.771 190.072C351.908 191.514 361.188 200.573 362.91 211.736C363.919 218.274 362.08 224.271 358.917 229.916C358.546 230.576 357.883 231.069 357.17 231.84C356.15 230.331 356.554 229.073 356.876 227.918C357.391 226.068 358.113 224.278 358.695 222.445C362.909 209.153 355.367 195.948 341.814 192.966C337.777 192.078 333.859 192.745 330.046 194.255C329.013 194.663 327.916 194.905 326.758 195.251C326.383 193.263 327.609 192.751 328.589 192.215C332.4 190.133 336.528 189.523 340.771 190.072ZM334.652 201.672C348.146 202.421 354.642 214.649 349.185 225.179C348.291 226.904 347.597 228.871 345.479 229.828C344.212 228.817 344.677 227.806 344.993 226.901C345.47 225.533 346.079 224.208 346.65 222.873C350.541 213.783 344.538 204.881 334.058 204.231C332.784 204.152 331.502 204.181 330.225 204.132C330.082 204.126 329.946 203.938 329.563 203.654C329.93 203.221 330.214 202.555 330.658 202.425C331.956 202.045 333.333 201.598 334.652 201.672ZM331.74 212.043C334.744 212.366 337.117 213.743 338.432 216.568C339.683 219.258 338.862 221.754 337.425 224.074C337.085 224.623 336.221 224.849 335.587 225.23C334.659 223.728 335.15 222.611 335.483 221.481C336.742 217.222 335.376 215.076 331.014 214.427C330.566 214.36 330.114 214.278 329.687 214.133C329.455 214.054 329.274 213.827 328.988 213.603C329.378 212.097 330.557 211.916 331.74 212.043ZM217.848 175.061C223.121 176.23 227.827 178.583 231.869 182.152C233.013 183.161 233.936 184.46 234.79 185.738C235.254 186.431 235.794 187.356 234.437 188.604C233.634 187.832 232.852 187.131 232.128 186.376C226.564 180.574 219.843 177.284 211.736 177.2C203.125 177.111 196.201 181.857 193.105 189.94C190.565 196.574 190.134 203.437 191.175 210.43C191.449 212.27 192.067 214.143 191.028 216.321C190.415 215.868 189.785 215.628 189.555 215.182C189.186 214.469 188.973 213.632 188.888 212.827C188.099 205.313 188.231 197.818 190.574 190.585C193.266 182.279 198.667 176.585 207.507 174.786C210.944 174.087 214.426 174.302 217.848 175.061ZM258.583 204.661C262.625 205.115 266.445 206.053 269.832 208.36C270.947 209.118 271.999 210.062 272.832 211.121C273.375 211.809 273.471 212.858 273.809 213.87C271.945 214.558 271.049 213.538 270.18 212.682C267.773 210.306 264.895 208.896 261.685 207.982C255.354 206.179 249.862 207.356 245.291 212.315C244.209 213.488 243.006 214.546 241.767 215.746C240.931 214.355 241.46 213.461 242.048 212.667C246.179 207.098 251.359 203.85 258.583 204.661ZM279.379 206.394C279.874 207.106 279.894 208.146 280.131 209.025C278.326 209.768 277.54 208.806 276.76 207.923C275.31 206.281 273.925 204.582 272.461 202.954C264.527 194.137 248.798 195.532 242.264 203.501C240.13 206.105 238.206 208.88 236.184 211.576C235.566 212.4 235.363 213.665 233.286 213.734C233.533 212.633 233.562 211.73 233.927 210.99C238.51 201.704 245.636 195.807 256.187 194.414C266.752 193.019 273.788 198.332 279.379 206.394ZM228.438 190.046C228.942 190.459 229.199 191.169 229.55 191.711C228.548 192.916 227.598 192.561 226.69 192.106C225.387 191.454 224.12 190.736 222.832 190.054C214.264 185.515 204.51 189.125 201.02 198.141C199.558 201.921 198.998 205.845 199.241 209.885C199.304 210.935 199.615 212.04 198.301 213.16C197.894 212.327 197.437 211.688 197.259 210.98C195.35 203.394 199.444 192.613 205.856 188.27C212.933 183.478 221.956 184.727 228.438 190.046ZM286.516 203.289C286.714 203.976 286.765 204.734 286.732 205.452C286.713 205.857 286.382 206.248 286.211 206.603C284.697 206.732 284.191 205.653 283.713 204.707C282.972 203.238 282.303 201.721 281.733 200.176C277.801 189.517 265.125 182.18 251.641 186.977C241.991 190.41 235.282 197.053 230.987 206.28C230.253 207.855 229.673 209.502 228.963 211.089C228.757 211.55 228.345 211.918 227.607 212.872C227.43 211.658 227.16 210.984 227.282 210.392C227.556 209.05 227.906 207.699 228.433 206.44C232.793 196.031 240.105 188.506 250.647 184.553C266.129 178.749 281.808 186.974 286.516 203.289ZM223.196 196.212C223.931 196.399 224.581 196.929 225.239 197.284C224.908 198.713 223.982 198.798 223.079 198.81C221.537 198.83 219.993 198.753 218.451 198.762C212.464 198.798 208.093 202.676 207.263 208.622C207.134 209.548 206.845 210.452 206.547 211.723C204.554 210.405 204.776 208.931 204.929 207.642C205.543 202.464 208.416 198.935 213.082 196.84C216.366 195.365 219.772 195.34 223.196 196.212ZM223.515 204.765C221.394 207.11 218.16 207.099 216.155 209.136C215.12 207.205 215.236 206.671 216.63 205.477C218.561 203.822 221.243 203.433 223.515 204.765ZM312.261 174.86C319.724 178.889 323.126 185.986 324.417 194.07C324.942 197.362 324.518 200.814 324.462 204.192C324.45 204.908 324.293 205.692 323.959 206.311C323.657 206.869 323.021 207.243 322.533 207.699C322.141 207.139 321.457 206.602 321.411 206.015C321.268 204.195 321.265 202.347 321.395 200.524C321.728 195.838 320.769 191.439 318.895 187.171C315.671 179.829 309.817 175.961 302.321 174.303C296.227 172.954 290.187 173.402 284.432 175.802C281.958 176.833 279.762 178.549 277.447 179.966C276.776 180.377 276.128 180.827 275.418 181.294C274.485 180.035 275.152 179.12 275.834 178.505C277.447 177.05 279.037 175.413 280.938 174.466C291.404 169.251 301.988 169.313 312.261 174.86ZM310.233 187.584C313.598 191.335 315.01 195.815 314.9 200.808C314.875 201.933 314.431 203.048 314.098 204.538C312.142 203.393 312.252 201.995 312.072 200.78C311.882 199.505 311.967 198.184 311.734 196.92C310.368 189.535 303.73 183.747 296.17 183.294C291.338 183.005 286.755 183.861 282.52 186.357C281.864 186.745 281.128 186.994 279.844 187.568C280.154 186.375 280.139 185.684 280.472 185.311C281.07 184.64 281.818 184.052 282.603 183.615C291.147 178.858 303.155 179.693 310.233 187.584ZM143.045 197.067C141.838 197.067 140.684 197.077 139.529 197.065C136.803 197.037 135.899 198.06 136.294 200.75C136.398 201.464 136.525 202.175 136.605 202.891C136.623 203.049 136.489 203.223 136.424 203.388C134.39 203.008 133.4 201.42 133.583 198.828C133.772 196.138 135.9 194.039 138.568 193.912C140.922 193.8 142.652 194.903 143.045 197.067ZM137.021 169.575C141.408 171.149 145.071 173.775 147.781 177.636C148.448 178.584 149.193 179.577 148.543 180.936C147.035 180.799 146.134 179.731 145.083 178.89C142.953 177.186 140.91 175.322 138.601 173.904C132.158 169.946 126.022 171.561 122.074 178.07C118.879 183.338 118.149 188.997 119.499 194.975C119.882 196.668 120.294 198.358 120.589 200.068C120.681 200.599 120.429 201.191 120.334 201.754C120.135 201.82 119.937 201.886 119.738 201.951C119.124 201.133 118.3 200.402 117.928 199.484C114.258 190.444 115.129 181.888 121.167 174.16C124.749 169.575 130.233 167.139 137.021 169.575ZM292.625 189.617C296.518 189.828 299.666 191.57 301.311 195.238C302.202 197.226 303.046 199.48 300.967 201.951C300.336 201.137 299.788 200.595 299.447 199.943C299.116 199.308 298.999 198.559 298.783 197.862C297.453 193.551 293.904 191.473 289.5 192.424C288.883 192.558 288.269 192.721 287.645 192.803C287.401 192.834 287.133 192.679 286.454 192.495C287.972 189.809 290.286 189.49 292.625 189.617ZM296.225 200.766C294.299 201.036 291.137 199.747 290.349 198.371C289.912 197.607 290.408 196.89 291.442 196.792C293.504 196.596 295.859 198.553 296.225 200.766ZM135.501 181.579C138.096 181.786 140.448 182.788 142.541 184.297C143.25 184.808 143.653 185.753 144.195 186.499C144.061 186.695 143.928 186.891 143.795 187.087C142.873 186.89 141.927 186.771 141.036 186.479C139.484 185.972 137.992 185.264 136.428 184.808C132.323 183.61 128.579 185.913 128.053 190.229C127.769 192.556 128.182 194.972 128.315 197.346C128.379 198.483 128.525 199.616 128.637 200.785C127.091 200.941 126.753 199.998 126.402 199.19C124.888 195.701 124.506 192.055 125.461 188.382C126.59 184.043 130.876 181.21 135.501 181.579ZM183.286 166.263C188.022 168.017 191.727 171.215 194.744 175.222C195.471 176.188 196.327 177.226 195.718 178.926C193.824 178.58 192.735 177.502 191.607 176.458C189.804 174.79 188.082 173.003 186.12 171.546C179.046 166.294 169.557 166.509 163.186 171.997C160.471 174.336 158.284 177.12 156.706 180.372C154.853 184.193 153.8 188.218 153.476 192.453C153.389 193.593 153.128 194.719 152.937 195.916C151.08 195.691 150.755 194.546 150.811 193.336C150.914 191.065 150.981 188.762 151.414 186.542C152.715 179.875 155.916 174.203 161.077 169.812C167.716 164.166 175.254 163.29 183.286 166.263ZM179.123 177.307C182.284 178.206 184.677 180.361 186.811 182.776C187.256 183.279 187.449 184.006 187.878 184.87C186.111 185.472 185.146 184.675 184.175 184.073C182.783 183.209 181.479 182.2 180.082 181.345C176.348 179.058 172.609 179.309 169.183 182.037C167.218 183.601 165.743 185.558 164.789 187.878C164.339 188.97 164.04 190.124 163.671 191.249C163.379 192.136 163.491 193.601 162.083 193.286C160.866 193.013 161.171 191.667 161.221 190.702C161.576 183.84 167.243 177.546 174.032 176.722C175.688 176.521 177.495 176.843 179.123 177.307ZM182.418 188.379C178.344 189.436 174.74 190.37 171.084 191.318C170.349 190.6 170.623 189.837 171.143 189.1C173.034 186.417 179.201 185.763 182.418 188.379ZM363.971 164.754C364.539 168.01 364.445 171.306 363.695 174.558C362.515 179.672 360.635 184.501 357.797 188.927L357.723 189.044C357.026 190.139 356.307 191.329 354.544 190.963C354.039 189.589 354.802 188.5 355.299 187.365C356.91 183.688 358.678 180.071 360.102 176.324C361.829 171.776 362.105 167.049 360.792 162.319C358.078 152.536 347.642 145.972 337.664 147.889C335.191 148.363 332.826 149.403 330.412 150.187C329.759 150.399 329.111 150.625 328.134 150.954C328.017 148.945 329.14 148.274 330.16 147.863C332.342 146.982 334.574 146.069 336.873 145.665C349.267 143.487 361.802 152.338 363.971 164.754ZM347.255 161.406C352.5 164.802 354.718 170.551 353.269 176.627C352.577 179.532 351.046 182.009 349.339 184.387C348.911 184.985 348.189 185.373 347.602 185.857C347.397 185.741 347.193 185.625 346.988 185.509C347.185 184.604 347.278 183.66 347.602 182.802C348.052 181.612 348.635 180.466 349.23 179.337C352.942 172.306 350.575 163.65 340.323 161.118C337.935 160.528 335.479 160.216 332.982 160.758C332.168 160.935 331.272 160.73 329.85 160.68C331.168 158.794 332.57 158.554 333.884 158.411C338.665 157.89 343.186 158.771 347.255 161.406ZM338.106 171.814C340.296 173.809 340.801 176.484 339.452 179.477C339.011 180.455 338.469 181.436 337.76 182.232C337.363 182.677 336.528 182.746 335.891 182.983C335.725 182.343 335.337 181.662 335.446 181.069C335.622 180.114 336.132 179.219 336.49 178.294C337.722 175.11 336.326 172.909 332.878 172.704C331.347 172.613 329.807 172.688 328.328 172.688C327.738 171.387 328.544 170.89 329.377 170.458C331.924 169.138 335.849 169.76 338.106 171.814ZM238.871 161.371C245.021 162.422 249.405 168.395 249.368 175.389C249.36 176.809 249.616 178.356 248.143 180.11C247.638 179.168 247.195 178.609 247.031 177.976C246.755 176.909 246.66 175.794 246.48 174.7C246.344 173.882 246.253 173.049 246.041 172.25C244.106 164.978 239.129 162.611 232.289 164.134C228.99 164.868 226.364 166.87 224 169.246C223.315 169.934 222.604 170.596 221.916 171.259C220.883 170.445 221.188 169.746 221.599 169.153C225.923 162.901 232.69 160.316 238.871 161.371ZM236.782 172.73C239.255 173.583 241.086 176.036 241.045 179.247C239.834 178.308 238.902 177.784 238.23 177.023C236.664 175.248 234.87 174.379 232.513 174.957C232.282 175.015 232.004 174.871 231.765 174.824C231.266 173.926 231.768 173.396 232.4 173.01C233.798 172.155 235.269 172.208 236.782 172.73ZM259.229 172.373C259.532 173.703 259.676 175.086 259.724 176.451C259.754 177.28 259.461 178.122 259.313 178.96C257.661 178.836 257.376 177.81 257.126 176.859C256.753 175.448 256.487 174.007 256.194 172.575C254.102 162.342 244.642 154.343 234.789 154.933C225.111 155.512 217.871 160.009 214.024 169.316C213.686 170.132 213.645 171.748 212.284 171.272C210.871 170.779 211.602 169.366 211.902 168.39C213.238 164.037 215.882 160.525 219.511 157.939C236.631 145.745 255.432 155.677 259.229 172.373ZM303.337 133.503C312.875 134.769 320.455 139.329 324.375 148.486C328.205 157.433 326.355 165.835 320.931 173.623C320.622 174.066 320.198 174.437 319.785 174.792C319.599 174.952 319.31 174.99 318.705 175.224C318.305 173.214 319.194 171.781 319.91 170.348C321.47 167.222 322.752 164.028 323.149 160.515C324.276 150.546 319.389 141.927 310.221 137.985C302.011 134.453 294.234 135.218 287.002 140.614C286.418 141.05 285.813 141.458 285.199 141.851C285.071 141.932 284.862 141.884 284.454 141.913C284.488 141.412 284.345 140.803 284.585 140.502C285.488 139.374 286.389 138.18 287.519 137.31C292.204 133.703 297.706 132.755 303.337 133.503ZM265.528 162.015C271.552 162.387 274.577 168.41 274.034 173.021C273.995 173.348 273.726 173.649 273.505 174.074C271.848 173.899 271.524 172.804 271.136 171.809C270.708 170.712 270.428 169.553 269.939 168.486C268.504 165.355 265.948 164.186 262.545 164.986C261.781 165.165 260.996 165.256 260.222 165.387C259.636 163.911 260.381 163.106 261.3 162.793C262.646 162.333 264.133 161.93 265.528 162.015ZM273.651 153.331C279.958 156.799 283.634 164.626 280.987 169.476C279.454 167.919 279.052 166.143 278.537 164.432C277.741 161.786 276.619 159.357 274.511 157.469C271.137 154.446 267.308 153.396 263.004 154.897C260.976 155.605 259.071 156.675 257.116 157.591C256.304 157.971 255.483 158.591 254.841 157.362C257.715 151.981 267.42 149.905 273.651 153.331ZM313.554 154.394C314.721 158.696 313.664 162.693 311.841 166.569C311.654 166.967 311.321 167.31 311.005 167.628C310.827 167.807 310.544 167.882 310.239 168.039C309.022 167.467 309.27 166.457 309.514 165.499C309.895 163.999 310.38 162.525 310.74 161.021C311.298 158.685 311.437 156.354 310.601 154.022C308.406 147.9 302.563 145.118 296.049 147.125C294.724 147.533 293.392 147.918 291.953 148.346C291.699 146.629 292.741 146.245 293.557 145.796C299.991 142.255 310.816 144.31 313.554 154.394ZM293.91 163.262C293.971 165.451 293.914 165.637 292.682 167.464C291.225 166.832 290.99 165.675 290.79 164.484C290.427 162.315 290.188 160.114 289.653 157.988C287.2 148.251 279.082 141.565 269.13 141.184C265.061 141.028 261.206 142.149 257.59 144.05C254.083 145.893 251.043 148.35 248.241 151.144C247.491 151.892 246.692 153.584 245.459 152.344C244.421 151.301 245.701 150.114 246.456 149.3C251.498 143.865 257.493 140.167 264.888 138.818C279.45 136.162 293.475 147.742 293.91 163.262ZM206.967 163.001C207.654 163.194 208.23 163.789 208.858 164.199C208.823 164.437 208.788 164.675 208.754 164.912C207.666 165.163 206.589 165.514 205.487 165.636C204.503 165.743 203.493 165.561 202.494 165.573L202.111 165.577C200.151 165.601 198.212 165.673 196.524 167.021C196.159 167.312 195.408 167.102 194.836 167.124C194.854 166.524 194.635 165.708 194.936 165.368C195.701 164.502 196.593 163.576 197.623 163.162C200.677 161.935 203.85 162.121 206.967 163.001ZM303.472 154.556C305.24 156.6 305.723 161.823 304.307 164.147C304.106 164.48 303.628 164.64 303.283 164.878C302.064 164.071 302.284 162.912 302.219 161.864C302.141 160.596 302.211 159.309 302.026 158.059C301.715 155.966 300.963 155.29 298.906 154.885C298.173 154.741 297.446 154.558 296.225 154.281C298.918 152.119 301.643 152.443 303.472 154.556ZM217.446 141.509C219.984 143.25 221.913 145.544 223.438 148.192C224.243 149.591 224.23 149.743 223.792 151.519C222.531 151.784 221.784 150.958 221.072 150.14C220.292 149.244 219.586 148.284 218.826 147.371C213.656 141.169 206.765 139.245 199.15 140.128C187.348 141.495 180.155 148.955 175.38 159.284C174.751 160.645 174.615 162.311 172.5 163.728C172.467 162.32 172.221 161.408 172.469 160.661C173.215 158.413 173.9 156.087 175.058 154.048C180.037 145.288 187.083 139.088 197.298 137.443C204.445 136.293 211.304 137.294 217.446 141.509ZM206.102 151.866C207.529 152.456 208.976 153.017 210.344 153.726C211.164 154.15 211.849 154.833 212.594 155.399C212.522 155.612 212.449 155.824 212.377 156.036C211.722 156.078 211.032 156.273 210.418 156.133C208.56 155.709 206.672 155.308 204.901 154.626C198.527 152.17 191.074 153.742 186.49 160.129C186.251 160.462 185.843 160.674 185.268 161.142C184.208 159.346 184.868 158.144 185.652 157.034C187.439 154.507 189.913 152.809 192.779 151.749C197.211 150.111 201.68 150.039 206.102 151.866Z" fill="#ABE4FF"/>
<path fill-rule="evenodd" clip-rule="evenodd" d="M313.607 240.743C314.176 240.681 314.699 240.654 315.21 240.562C324.406 238.92 333.616 237.371 342.921 236.458C344.781 236.276 346.626 235.936 348.485 235.743C336.92 235.529 325.364 235.315 313.607 235.098V240.743ZM300.062 233.558C319.951 233.937 339.601 234.312 359.254 234.687C345.861 226.656 332.469 218.626 318.987 210.541C316.934 213.025 314.934 215.445 312.859 217.956C313.548 218.252 314.022 218.465 314.503 218.66C318.952 220.459 323.403 222.255 327.853 224.053C328.24 224.209 328.668 224.315 328.992 224.557C328.995 224.559 328.997 224.561 329 224.563C329.413 224.881 329.277 225.534 328.801 225.746C328.737 225.774 328.672 225.801 328.607 225.825C328.475 225.874 328.299 225.804 328.144 225.784C321.929 225.015 315.713 224.257 309.502 223.46C308.965 223.392 308.408 223.377 308.408 223.377C308.408 223.377 307.231 225.01 306.751 225.626C306.751 225.626 304.283 228.514 300.985 232.346C300.625 232.765 300.536 232.82 300.062 233.558ZM312.122 235.125C307.827 234.815 303.492 235.122 298.947 234.73C298.403 234.683 298.082 234.105 298.324 233.616C298.425 233.41 298.526 233.233 298.654 233.078C301.458 229.636 304.303 226.228 307.097 222.778C307.698 222.034 308.397 221.785 309.289 221.902C309.95 221.988 310.61 222.083 311.305 222.179C311.305 220.975 311.342 219.893 311.293 218.815C311.26 218.086 311.494 217.53 311.962 216.978C313.888 214.707 315.773 212.403 317.679 210.115C318.7 208.889 318.711 208.882 320.116 209.723C328.134 214.524 336.149 219.331 344.165 224.137C349.314 227.224 354.466 230.309 359.609 233.406C360.251 233.793 361.132 234.054 360.837 235.124C360.539 236.202 359.656 235.886 358.905 235.961C355.893 236.263 352.883 236.588 349.875 236.927C345.622 237.407 341.358 237.814 337.122 238.42C330.614 239.351 324.126 240.424 317.629 241.438C316.443 241.623 315.262 241.851 314.07 241.989C312.772 242.14 312.131 241.526 312.124 240.202C312.116 238.544 312.122 236.885 312.122 235.125Z" fill="#005E8B"/>
<path fill-rule="evenodd" clip-rule="evenodd" d="M313.608 235.096C325.365 235.314 336.921 235.527 348.485 235.741C346.627 235.934 344.782 236.274 342.921 236.457C333.617 237.369 324.407 238.918 315.211 240.56C314.7 240.652 314.177 240.679 313.608 240.742V235.096ZM318.988 210.539C332.47 218.624 345.862 226.654 359.255 234.685C339.602 234.311 319.952 233.936 300.062 233.556C300.537 232.818 300.626 232.763 300.986 232.344C304.284 228.513 306.752 225.625 306.752 225.625C307.212 225.034 308.312 223.509 308.403 223.383L308.409 223.375C308.409 223.375 308.966 223.39 309.503 223.459C315.714 224.256 321.93 225.013 328.145 225.783C328.3 225.802 328.476 225.872 328.607 225.824C328.673 225.8 328.738 225.773 328.802 225.744C329.278 225.533 329.414 224.879 329.001 224.561L328.993 224.556C328.668 224.313 328.24 224.207 327.854 224.051C323.404 222.253 318.953 220.457 314.503 218.658C314.022 218.464 313.549 218.25 312.86 217.954C314.935 215.444 316.935 213.024 318.988 210.539Z" fill="white"/>
<path fill-rule="evenodd" clip-rule="evenodd" d="M355.686 141.668C355.745 142.846 355.724 144.035 355.645 145.214C355.197 151.827 354.698 158.437 354.263 165.05C354.068 168.019 354.002 170.995 353.838 173.966C353.772 175.162 353.644 176.359 353.467 177.544C353.242 179.048 352.794 179.403 351.313 179.473C342.868 179.876 334.424 180.306 325.978 180.676C323.059 180.804 320.132 180.748 317.211 180.843C312.968 180.981 308.728 181.189 304.486 181.354C304.175 181.366 303.863 181.367 303.552 181.345C302.084 181.243 301.632 180.843 301.712 179.48C301.835 177.396 302.004 175.315 302.194 173.236C302.937 165.071 304.176 156.972 305.395 148.87C305.541 148.169 305.756 147.877 305.785 144.688C305.792 143.947 306.275 143.281 307.014 143.227C307.018 143.227 307.023 143.226 307.027 143.226C312.18 142.871 317.329 142.433 322.488 142.212C329.945 141.892 337.408 141.733 344.869 141.504C347.53 141.422 350.191 141.354 352.85 141.237C353.355 141.215 353.872 141.027 354.346 140.833C355.039 140.548 355.648 140.92 355.686 141.668Z" fill="white"/>
<path fill-rule="evenodd" clip-rule="evenodd" d="M308.116 144.564C315.03 151.417 322.524 157.47 329.917 163.649C337.406 156.611 344.787 149.674 352.397 142.521C337.461 143.046 322.803 143.028 308.116 144.564ZM354.492 142.746C354.033 143.06 353.851 143.153 353.707 143.288C346.836 149.707 339.967 156.128 333.105 162.557C332.536 163.09 332.06 163.724 331.474 164.235C330.136 165.403 330.047 165.392 328.717 164.307C327.058 162.952 325.381 161.618 323.761 160.217C318.545 155.708 313.351 151.174 308.148 146.648C307.849 146.388 307.551 146.127 307.143 145.77C305.469 157.213 303.572 168.462 302.992 180.052C303.694 180.052 304.204 180.068 304.711 180.049C308.415 179.909 312.119 179.757 315.823 179.617C324.224 179.299 332.626 178.997 341.026 178.665C344.313 178.536 347.598 178.346 350.884 178.18C352.054 178.121 352.101 178.094 352.261 176.95C352.399 175.968 352.526 174.982 352.591 173.993C353.061 166.803 353.523 159.612 353.968 152.421C354.161 149.304 354.307 146.184 354.492 142.746ZM305.785 144.688C305.792 143.947 306.275 143.281 307.014 143.227C307.018 143.227 307.023 143.226 307.027 143.226C312.18 142.871 317.329 142.433 322.488 142.212C329.945 141.892 337.408 141.733 344.869 141.504C347.53 141.422 350.191 141.354 352.85 141.237C353.355 141.215 353.872 141.027 354.346 140.833C355.039 140.548 355.648 140.92 355.686 141.668C355.745 142.846 355.724 144.035 355.645 145.214C355.197 151.827 354.698 158.437 354.263 165.05C354.068 168.019 354.002 170.995 353.838 173.966C353.772 175.162 353.644 176.359 353.467 177.544C353.242 179.048 352.794 179.403 351.313 179.473C342.868 179.876 334.424 180.306 325.978 180.676C323.059 180.804 320.132 180.748 317.211 180.843C312.968 180.981 308.728 181.189 304.486 181.354C304.175 181.366 303.863 181.367 303.552 181.345C302.084 181.243 301.632 180.843 301.712 179.48C301.835 177.396 302.004 175.315 302.194 173.236C302.937 165.071 304.176 156.972 305.395 148.87C305.541 148.169 305.756 147.877 305.785 144.688Z" fill="#1D242F"/>
<path fill-rule="evenodd" clip-rule="evenodd" d="M200.347 121.905C211.315 122.004 221.697 124.337 231.421 129.436C237.06 132.392 241.993 136.314 246.702 140.561C250.889 144.337 255.056 148.15 259.443 151.683C265.653 156.683 272.647 160.243 280.448 162.116C282.56 162.623 284.707 162.981 286.866 163.22C287.959 163.341 289.056 163.431 290.154 163.495C291.14 163.553 292.294 163.419 293.226 163.786C293.571 163.922 293.648 164.254 293.418 164.549C293.212 164.814 292.81 164.843 292.503 164.835C291.251 164.801 289.997 164.771 288.748 164.685C276.58 163.844 266.083 158.963 256.808 151.277C253.151 148.247 249.659 145.014 246.155 141.805C241.205 137.271 235.97 133.149 229.947 130.113C222.781 126.5 215.191 124.372 207.2 123.659C193.372 122.425 180.158 124.679 167.595 130.623C166.56 131.113 165.577 131.713 164.579 132.278C164.194 132.497 163.737 132.732 163.515 132.244C163.406 132.006 163.646 131.427 163.902 131.24C164.614 130.719 165.391 130.273 166.186 129.886C173.704 126.228 181.573 123.698 189.9 122.756C193.37 122.363 196.864 122.182 200.347 121.905Z" fill="#1D242F"/>
<path fill-rule="evenodd" clip-rule="evenodd" d="M115.387 55.0025C118.779 67.008 122.084 78.7051 125.431 90.5497C125.593 91.1236 125.307 91.7303 124.759 91.9657C124.494 92.08 124.223 92.1933 123.949 92.299C118.449 94.4211 112.922 96.4746 107.452 98.672C102.321 100.733 97.2564 102.958 92.1489 105.079C91.1404 105.498 90.0756 105.784 89.0284 106.104C88.2809 106.332 87.6977 106.115 87.3523 105.374C86.889 104.381 86.3387 103.421 85.9631 102.396C82.9437 94.1662 79.9545 85.9247 76.9657 77.6831C76.795 77.2124 76.4863 76.5439 76.3438 75.9976C76.6099 75.9976 76.9869 76.1255 77.1122 76.1712C82.7684 78.2398 88.6709 79.3727 94.5084 80.7496C96.4376 81.2046 98.3709 81.6457 100.312 82.0481C101.71 82.3383 101.98 82.1986 102.683 80.9186C103.211 79.9584 103.7 78.9755 104.179 77.9895C107.6 70.9458 111.014 63.8981 114.432 56.853C114.68 56.3443 114.95 55.8471 115.387 55.0025ZM114.141 54.4167C109.848 63.2997 105.627 72.0316 101.275 81.0359C93.0697 78.9531 84.883 77.6409 77.001 74.7552C83.5918 69.1367 108.115 55.6698 114.141 54.4167Z" fill="white"/>
<path fill-rule="evenodd" clip-rule="evenodd" d="M101.275 81.0371C105.628 72.0328 109.848 63.3009 114.142 54.4179C108.115 55.671 83.5924 69.1379 77.0017 74.7564C84.8837 77.6421 93.0704 78.9543 101.275 81.0371ZM115.387 55.0036C114.951 55.8483 114.68 56.3455 114.433 56.8542C111.014 63.8993 107.601 70.947 104.179 77.9907C103.7 78.9767 103.212 79.9596 102.684 80.9198C101.98 82.1998 101.711 82.3395 100.312 82.0492C98.3716 81.6469 96.4383 81.2058 94.509 80.7508C88.6715 79.3739 82.7691 78.241 77.1129 76.1724C76.9876 76.1267 76.6106 75.9988 76.3444 75.9988C76.487 76.5451 76.7956 77.2136 76.9663 77.6843C79.9552 85.9259 82.9444 94.1674 85.9637 102.397C86.3393 103.422 86.8897 104.382 87.353 105.375C87.6984 106.116 88.2815 106.334 89.029 106.105C90.0763 105.786 91.1411 105.499 92.1495 105.08C97.2571 102.96 102.322 100.735 107.453 98.6732C112.923 96.4758 118.45 94.4223 123.949 92.3002C124.224 92.1945 124.495 92.0812 124.76 91.9669C125.307 91.7315 125.594 91.1248 125.432 90.5509C122.085 78.7063 118.78 67.0092 115.387 55.0036ZM75.0296 75.943C74.7891 75.1975 75.052 74.3828 75.6785 73.912C75.7168 73.8833 75.7553 73.8554 75.7941 73.8278C86.2296 66.4651 97.3019 60.2146 108.918 54.9226C110.34 54.2748 111.811 53.7276 113.285 53.2069C115.54 52.4105 116.026 52.6574 116.682 54.9117C117.747 58.5673 118.789 62.2301 119.815 65.8967C121.586 72.2259 123.324 78.5643 125.105 84.8904C125.543 86.4455 126.104 87.9658 126.593 89.5071C126.766 90.0523 126.926 90.6061 127.035 91.1668C127.183 91.9286 126.901 92.4914 126.151 92.7865C125.472 93.0538 124.806 93.3581 124.119 93.6004C115.257 96.7206 106.61 100.367 98.0057 104.127C95.6667 105.149 93.2508 105.998 90.8563 106.888C90.1775 107.14 89.4555 107.297 88.7405 107.426C87.6978 107.614 86.8831 107.217 86.3983 106.27C85.8281 105.156 85.205 104.056 84.7756 102.886C81.7192 94.5629 78.7033 86.2242 75.6831 77.8872C75.4552 77.2584 75.2486 76.6213 75.0296 75.943Z" fill="#1D242F"/>
<path fill-rule="evenodd" clip-rule="evenodd" d="M44.0009 121.373C40.0929 121.231 36.3002 120.498 32.5052 119.782C29.0059 119.123 25.5199 118.448 21.9022 118.64C16.8625 118.906 12.1331 121.142 8.60368 124.749C5.09002 128.34 2.5969 132.546 1.4798 137.542C1.34358 138.151 1.30967 138.787 1.1266 139.379C1.11079 139.431 1.08119 139.477 1.04182 139.521C0.765921 139.83 0.231659 139.756 0.0485908 139.384C0.0227255 139.331 0.00634416 139.278 0.00433242 139.225C-0.017222 138.658 0.0422682 138.072 0.169008 137.518C1.73041 130.667 5.37971 125.139 11.0126 121C14.8978 118.145 19.4082 117.048 24.1835 117.373C27.0364 117.568 29.8782 118.044 32.7006 118.535C36.8152 119.25 40.9094 120.12 45.118 119.908C53.7303 119.475 61.2421 116.568 66.8394 109.759C69.054 107.065 70.9465 104.105 72.9778 101.261C73.3413 100.751 73.6543 100.206 74.0141 99.6929C74.3207 99.2561 74.5481 98.4752 75.2711 98.942C75.8956 99.3455 75.3916 99.9085 75.1197 100.298C72.734 103.723 70.4576 107.236 67.8855 110.516C63.503 116.105 57.5095 119.132 50.6629 120.536C48.477 120.984 46.2236 121.104 44.0009 121.373Z" fill="#1D242F"/>
<path fill-rule="evenodd" clip-rule="evenodd" d="M159.094 25.0563C155.472 21.5918 151.862 18.1137 148.21 14.6811C147.933 14.4208 147.36 14.3245 146.954 14.3759C143.072 14.8645 139.197 15.4008 135.321 15.9253C133.719 16.1419 132.122 16.396 130.515 16.5558C130.478 16.5595 130.441 16.5592 130.403 16.5558C129.777 16.4995 129.504 15.6649 129.979 15.2536C130.005 15.2306 130.033 15.2099 130.063 15.1921C131.042 14.5975 132.073 14.0877 133.095 13.5666C136.065 12.0532 139.04 10.5499 142.23 8.93243C139.435 6.40223 136.747 3.97003 134.063 1.54013C122.259 9.50779 111.184 18.1439 99.967 26.8847C119.855 26.2696 139.474 25.663 159.094 25.0563ZM98.4291 28.6002C97.5213 28.613 97.0979 27.4655 97.8153 26.9094C97.8207 26.9051 97.8262 26.901 97.8316 26.8967C99.239 25.8144 100.635 24.7174 102.036 23.6271C112.258 15.6726 122.558 7.8231 133.237 0.484543C133.447 0.340272 133.659 0.199163 133.954 0C134.508 0.416718 135.075 0.781994 135.571 1.22688C138.136 3.52889 140.659 5.87975 143.253 8.14814C144.01 8.80971 144.1 9.51009 143.916 10.3803C143.712 11.3416 143.572 12.4834 143.363 13.5485C145.261 13.427 145.805 13.2916 146.957 13.0108C147.652 12.8412 148.232 12.8671 148.812 13.4287C152.942 17.4226 157.104 21.3837 161.251 25.3603L161.254 25.3632C161.513 25.6072 161.394 26.0469 161.044 26.1173C160.479 26.2317 159.679 26.2837 159.115 26.3021C150.974 26.5682 142.831 26.8074 134.689 27.0522C127.957 27.2545 121.223 27.4307 114.492 27.6646C110.371 27.8078 106.253 28.0239 102.136 28.2386C101.043 28.2955 99.9578 28.4843 98.8663 28.5791C98.7205 28.5918 98.5746 28.5978 98.4291 28.6002Z" fill="#005E8B"/>
<path fill-rule="evenodd" clip-rule="evenodd" d="M159.092 25.0569C155.47 21.5924 151.86 18.1144 148.208 14.6818C147.931 14.4214 147.358 14.3251 146.951 14.3766C143.07 14.8651 139.195 15.4014 135.319 15.9259C133.717 16.1426 132.12 16.3966 130.513 16.5564C130.476 16.5602 130.439 16.5599 130.401 16.5564C129.775 16.5001 129.502 15.6655 129.977 15.2543C130.003 15.2313 130.031 15.2106 130.061 15.1928C131.039 14.5981 132.071 14.0883 133.093 13.5673C136.062 12.0539 139.038 10.5505 142.228 8.93307C139.433 6.40287 136.745 3.97067 134.061 1.54077C122.256 9.50843 111.182 18.1446 99.9648 26.8853C119.853 26.2703 139.471 25.6636 159.092 25.0569Z" fill="white"/>
<path fill-rule="evenodd" clip-rule="evenodd" d="M64.9609 205.422C65.0581 204.769 65.2109 204.123 65.303 203.47C65.8409 199.645 66.4368 195.827 66.8727 191.99C67.0396 190.521 67.6896 189.657 68.9426 188.963C72.3648 187.067 75.7714 185.136 79.1125 183.101C83.7443 180.281 88.3369 177.394 92.8925 174.451C94.648 173.317 96.1917 171.88 97.3958 170.141C100.24 166.032 99.868 160.951 93.7598 158.777C91.5134 157.977 89.1729 157.817 86.8099 157.927C81.7727 158.162 77.0748 159.725 72.4893 161.669C66.2659 164.307 60.5096 167.801 54.8962 171.525C50.68 174.322 46.5391 177.233 42.387 180.125C39.6309 182.045 38.0215 184.688 37.5376 188.028C36.9251 192.255 38.9206 195.717 42.9509 197.156C43.9663 197.518 45.0804 197.706 46.1601 197.764C48.1035 197.868 50.0116 197.528 51.8527 196.878C53.3293 196.357 54.8088 195.84 56.2667 195.27C56.9816 194.991 57.4492 195.077 57.8822 195.702C58.2739 196.268 58.8286 197.129 59.2331 197.686C61.118 200.282 63.0479 202.846 64.9609 205.422ZM56.8013 196.458C55.3099 196.999 53.9462 197.515 52.5685 197.99C49.9184 198.903 47.2082 199.355 44.4075 198.892C39.913 198.149 36.5932 194.94 36.2489 190.619C35.928 186.591 36.9482 182.849 40.3179 180.291C49.3436 173.441 58.634 166.977 68.8288 161.938C73.1486 159.803 77.6408 158.119 82.3857 157.187C85.8487 156.507 89.3242 156.342 92.7943 157.151C94.7049 157.596 96.4567 158.38 97.9161 159.726C99.7671 161.432 100.584 163.528 100.317 166.054C100.071 168.384 99.1297 170.431 97.4918 172.03C95.7839 173.698 93.9581 175.291 91.994 176.641C84.8925 181.519 77.3298 185.646 69.8475 189.897C68.7942 190.495 68.2511 191.151 68.1021 192.373C67.5847 196.62 66.9678 200.855 66.3638 205.091C66.2582 205.832 66.4017 206.832 65.4566 207.069C64.6084 207.282 64.2204 206.411 63.7975 205.854C61.745 203.156 59.7273 200.429 57.6999 197.711C57.4218 197.338 57.1572 196.956 56.8013 196.458Z" fill="#009DE9"/>
<path fill-rule="evenodd" clip-rule="evenodd" d="M64.9604 205.422C65.0576 204.769 65.2104 204.124 65.3025 203.47C65.8404 199.645 66.4364 195.827 66.8722 191.991C67.0391 190.522 67.6891 189.658 68.9421 188.963C72.3643 187.067 75.7709 185.136 79.1121 183.102C83.7439 180.281 88.3365 177.394 92.8921 174.451C94.6475 173.317 96.1913 171.88 97.3953 170.141C100.239 166.032 99.8675 160.952 93.7593 158.777C91.513 157.978 89.1724 157.817 86.8094 157.927C81.7722 158.162 77.0743 159.725 72.4888 161.669C66.2655 164.307 60.5091 167.801 54.8957 171.526C50.6795 174.322 46.5386 177.233 42.3865 180.125C39.6304 182.045 38.021 184.689 37.5371 188.028C36.9246 192.255 38.9201 195.717 42.9504 197.156C43.9658 197.519 45.0799 197.707 46.1596 197.764C48.103 197.868 50.0112 197.528 51.8522 196.878C53.3288 196.357 54.8083 195.841 56.2662 195.271C56.9812 194.991 57.4487 195.077 57.8818 195.702C58.2734 196.268 58.8281 197.129 59.2327 197.686C61.1175 200.283 63.0474 202.846 64.9604 205.422Z" fill="white"/>
<path fill-rule="evenodd" clip-rule="evenodd" d="M107.561 167.916C107.563 167.917 107.565 167.919 107.567 167.921C109.298 169.346 111.013 170.79 112.72 172.245C112.907 172.405 113.064 172.649 113.133 172.884C113.18 173.047 113.107 173.317 112.986 173.437C112.87 173.552 112.625 173.555 112.434 173.567C112.345 173.573 112.237 173.499 112.159 173.434C110.323 171.891 108.489 170.345 106.658 168.795C106.541 168.696 106.369 168.548 106.378 168.437C106.379 168.434 106.379 168.431 106.38 168.428C106.434 167.868 107.122 167.563 107.561 167.916ZM109.243 161.11C110.692 161.12 112.141 161.141 113.59 161.155C113.849 161.157 114.11 161.124 114.366 161.149C114.776 161.189 115.3 161.218 115.221 161.782C115.193 161.981 114.946 162.149 114.751 162.296C114.642 162.379 114.507 162.423 114.369 162.423C113.174 162.423 112.104 162.427 111.034 162.421C109.999 162.415 108.962 162.428 107.93 162.365C107.876 162.362 107.824 162.345 107.772 162.319C107.42 162.143 107.358 161.664 107.611 161.362C107.685 161.274 107.765 161.205 107.857 161.177C108.287 161.048 108.778 161.107 109.243 161.11ZM110.663 150.922C110.872 150.864 111.223 150.906 111.339 151.047C111.461 151.195 111.434 151.528 111.37 151.75C111.318 151.932 111.127 152.082 110.977 152.226C109.47 153.669 107.959 155.11 106.445 156.546C106.334 156.651 106.212 156.744 106.107 156.82C105.93 156.949 105.701 157.006 105.495 156.934C105.187 156.826 105.029 156.515 105.167 156.201C105.287 155.927 105.509 155.682 105.728 155.47C107.156 154.094 108.594 152.728 110.035 151.367C110.222 151.19 110.43 150.985 110.663 150.922Z" fill="#009DE9"/>
<path fill-rule="evenodd" clip-rule="evenodd" d="M348.208 74.8247C347.219 76.553 346.247 78.2783 345.247 79.9865C344.905 80.5696 344.547 81.1605 344.098 81.6591C343.435 82.3949 342.762 82.3474 342.112 81.5818C341.845 81.2666 341.62 80.9033 341.435 80.5323C340.504 78.6657 339.531 76.8163 338.704 74.9046C338.316 74.0082 337.818 73.5167 336.868 73.2414C329.374 71.0699 322.248 67.9991 315.401 64.2751C312.782 62.8508 310.267 61.2486 308.069 59.2216C306.924 58.1654 305.801 57.0368 304.901 55.7746C301.809 51.4396 302.797 46.5657 307.331 43.7881C311.493 41.2374 316.077 40.4557 320.878 41.061C330.043 42.216 338.574 45.3828 346.799 49.4514C348.855 50.4682 350.832 51.6422 352.854 52.7274C354.804 53.7738 356.429 55.2372 358.098 56.6632C362.078 60.0657 362.219 67.7741 357.537 71.522C355.124 73.4532 352.317 74.293 349.327 74.689C348.967 74.7367 348.607 74.7767 348.208 74.8247Z" fill="white"/>
<path fill-rule="evenodd" clip-rule="evenodd" d="M343.125 80.7849C343.465 80.3302 343.739 80.0308 343.937 79.6876C344.85 78.1052 345.79 76.5352 346.625 74.9115C347.127 73.9329 347.731 73.4581 348.906 73.39C351.712 73.2271 354.316 72.3701 356.596 70.6322C360.781 67.4427 360.729 60.4519 357.206 57.6257C355.542 56.2902 353.901 54.8808 352.076 53.7973C343.902 48.945 335.208 45.323 325.924 43.2021C322.248 42.3623 318.538 41.7726 314.751 42.431C311.992 42.9106 309.379 43.7717 307.124 45.4871C304.571 47.429 303.729 50.1868 304.958 53.1369C305.469 54.3615 306.283 55.5088 307.156 56.5227C309.044 58.7186 311.349 60.4781 313.873 61.8604C317.484 63.8391 321.123 65.8037 324.894 67.4465C328.855 69.1728 332.967 70.5629 337.051 71.9936C338.434 72.4778 339.378 73.1704 339.927 74.5772C340.552 76.1763 341.39 77.6931 342.163 79.2321C342.414 79.731 342.75 80.1862 343.125 80.7849ZM348.208 74.8247C347.219 76.553 346.247 78.2783 345.247 79.9865C344.905 80.5696 344.547 81.1605 344.098 81.6591C343.435 82.3949 342.762 82.3474 342.112 81.5818C341.845 81.2666 341.62 80.9033 341.435 80.5323C340.504 78.6657 339.531 76.8163 338.704 74.9046C338.316 74.0082 337.818 73.5167 336.868 73.2414C329.374 71.0699 322.248 67.9991 315.401 64.2751C312.782 62.8508 310.267 61.2486 308.069 59.2216C306.924 58.1654 305.801 57.0368 304.901 55.7746C301.809 51.4396 302.797 46.5657 307.331 43.7881C311.493 41.2374 316.077 40.4557 320.878 41.061C330.043 42.216 338.574 45.3828 346.799 49.4514C348.855 50.4682 350.832 51.6422 352.854 52.7274C354.804 53.7738 356.429 55.2372 358.098 56.6632C362.078 60.0657 362.219 67.7741 357.537 71.522C355.124 73.4532 352.317 74.293 349.327 74.689C348.967 74.7367 348.607 74.7767 348.208 74.8247Z" fill="#009DE9"/>
<path fill-rule="evenodd" clip-rule="evenodd" d="M291.138 34.0946C291.302 34.1906 291.457 34.2846 291.595 34.3984C294.284 36.615 296.97 38.836 299.646 41.069C300.002 41.3662 300.339 41.7079 300.599 42.0876C300.708 42.2462 300.68 42.698 300.562 42.7695C300.351 42.8986 300.023 42.8759 299.75 42.8483C299.622 42.8353 299.509 42.6638 299.389 42.564L295.37 39.2216C294.031 38.107 292.692 36.9914 291.356 35.8724C290.961 35.5416 290.595 35.168 290.267 34.7714C290.169 34.6521 290.176 34.3487 290.261 34.2018C290.285 34.1596 290.322 34.1248 290.367 34.094C290.595 33.9383 290.9 33.9549 291.138 34.0946ZM298.858 27.6387L298.903 27.7082C300.27 29.8027 301.627 31.9038 302.979 34.0081C303.598 34.9726 304.225 35.9342 304.788 36.9315C304.932 37.1881 304.988 37.7005 304.835 37.8776C304.483 38.2828 304.077 38.0316 303.796 37.6698C303.541 37.3413 303.312 36.9915 303.087 36.6406C301.349 33.9179 299.611 31.1943 297.882 28.4655C297.846 28.4083 297.811 28.3505 297.777 28.2916C297.372 27.5887 298.412 26.9604 298.858 27.6387ZM308.282 23.6063C308.44 23.7868 308.478 24.0817 308.544 24.3326C309.357 27.4542 310.177 30.5744 310.957 33.7047C311.028 33.9909 310.942 34.4968 310.745 34.6338C310.293 34.9471 309.976 34.5758 309.808 34.1611C309.594 33.6314 309.384 33.094 309.246 32.5413C308.575 29.8654 307.929 27.1829 307.274 24.5033C307.25 24.4079 307.225 24.3127 307.195 24.205C307.109 23.8923 307.168 23.5451 307.388 23.3063C307.441 23.2491 307.497 23.208 307.559 23.1971C307.776 23.1591 308.101 23.4011 308.282 23.6063Z" fill="#009DE9"/>
<path fill-rule="evenodd" clip-rule="evenodd" d="M231.014 106.034C230.987 105.705 231.268 106.561 231.313 107.109C231.756 112.352 232.41 121.583 232.925 126.819C233.445 132.109 234.654 142.897 235.308 148.172C236.113 154.658 236.305 151.889 237.193 158.364C238.097 164.948 239.068 171.522 240.015 178.1C240.86 183.964 241.689 189.832 242.567 195.692C243.791 203.862 245.057 212.025 246.294 220.193C246.513 221.639 246.816 224.014 246.984 225.467C247.173 227.1 249.406 227.297 247.773 227.453C247.502 227.479 247.231 227.507 246.984 227.531L248.155 243.303C249.079 243.303 249.781 243.318 250.482 243.3C254.483 243.705 257.184 243.853 260.677 244.614C263.093 245.139 265.751 245.792 267.769 247.238C270.387 249.114 271.764 251.633 271.81 254.863C271.85 257.714 271.335 260.488 270.636 263.231C270.325 264.447 270.049 264.62 268.741 264.596C261.621 264.463 254.485 264.52 247.411 263.581C241.625 262.813 236.783 261.107 231.014 260.209C230.809 260.177 230.622 260.032 230.395 259.925C230.395 258.242 230.3 256.584 230.411 254.94C230.987 246.32 231.276 237.109 231.892 228.491C231.943 227.77 228.542 226.242 227.57 226.074C227.184 225.773 227.107 224.982 227.032 224.395C226.535 220.495 226.107 216.585 225.597 212.687C224.549 204.669 223.532 196.647 222.377 188.645C220.755 177.409 219.484 170.305 217.978 159.055C216.946 151.354 217.788 141.53 216.219 133.941C215.917 132.477 215.658 131.004 215.361 129.539C215.277 129.12 215.128 128.714 215.008 128.302C214.892 128.305 212.941 126.816 212.825 126.819C212.191 129.653 211.016 133.986 210.331 136.807C208.397 144.769 206.362 152.707 204.481 160.681C200.974 175.556 199.358 187.555 195.188 202.26C191.018 216.965 190.104 220.342 188.103 227.453C187.445 229.791 186.913 232.161 186.427 234.54C186.08 236.245 186.871 235.595 185.3 235.243C183.519 234.844 180.939 234.38 179.119 233.947C177.832 238.407 176.577 242.752 175.283 247.238C175.68 247.373 176.01 247.836 176.474 247.973C180.124 249.049 183.589 250.523 186.724 252.699C187.453 253.204 188.163 253.748 188.828 254.335C192.152 257.269 193.066 260.832 191.566 265.007C191.318 265.7 190.973 266.359 190.684 267.039C190.549 267.356 190.374 267.657 190.175 267.939C187.965 271.061 188.482 269.834 186.427 269.777C184.599 269.727 181.721 269.553 179.926 269.205C176.941 268.625 175.91 267.918 173.042 266.896C170.48 265.983 169.463 266.452 168.159 265.384C164.874 262.696 162.062 259.555 159.321 256.346C158.926 255.884 158.621 255.347 158.272 254.847C157.357 253.531 157.187 252.226 157.765 250.635C159.901 244.753 161.897 238.82 163.94 232.905C164.12 232.383 164.261 231.847 164.453 231.207C162.889 230.695 163.396 229.568 163.633 228.491C167.948 208.907 171.531 190.697 177.406 171.52C183.282 152.343 185.413 140.052 189.387 125.987C191.147 119.757 192.084 113.404 193.611 107.109C193.741 106.573 193.733 107.049 193.969 106.556L231.014 106.034Z" fill="white"/>
<path fill-rule="evenodd" clip-rule="evenodd" d="M231.509 106.344C231.673 106.866 231.762 107.421 231.808 107.969C232.248 113.215 232.607 118.469 233.119 123.707C233.637 129 234.259 134.284 234.91 139.562C235.711 146.052 236.556 152.536 237.441 159.014C238.34 165.602 239.881 172.18 240.823 178.762C241.664 184.63 242.488 190.501 243.362 196.365C244.58 204.539 245.84 212.707 247.07 220.88C247.288 222.328 247.877 224.703 248.044 226.157C248.169 227.239 248.283 227.676 247.734 227.729L248.274 243.312C249.194 243.312 249.892 243.327 250.589 243.31C254.569 243.715 257.258 243.863 260.733 244.624C263.137 245.15 265.782 245.803 267.789 247.25C270.394 249.127 271.764 251.648 271.81 254.88C271.849 257.732 271.337 260.508 270.642 263.252C270.333 264.47 270.058 264.642 268.756 264.618C261.672 264.485 254.572 264.542 247.534 263.603C241.776 262.834 236.047 261.851 230.307 260.952C230.104 260.92 229.918 260.775 229.692 260.667C229.692 258.983 229.598 257.325 229.707 255.68C230.281 247.054 230.329 238.432 230.942 229.809C230.967 229.451 230.906 228.085 230.906 228.091C230.906 228.097 228.182 228.175 227.695 228.091C227.31 227.789 225.432 218.41 224.924 214.509C223.881 206.487 222.87 198.46 221.72 190.453C220.106 179.21 218.531 168.002 217.032 156.746C216.006 149.04 215.758 141.479 214.197 133.884C213.896 132.42 213.64 130.946 213.344 129.48C213.26 129.061 213.111 128.655 212.992 128.243C212.876 128.246 212.892 128.245 212.776 128.249C212.146 131.084 211.558 133.93 210.876 136.753C208.953 144.72 206.352 152.662 204.481 160.641C200.991 175.525 199.047 190.362 194.898 205.076C192.893 212.188 191.217 219.229 189.226 226.344C188.571 228.683 188.042 231.054 187.559 233.434C187.212 235.141 186.723 235.6 185.16 235.248C183.388 234.848 181.625 234.409 179.814 233.976C178.533 238.439 177.285 242.787 175.997 247.275C176.393 247.411 176.844 247.583 177.306 247.72C180.937 248.796 184.385 250.272 187.504 252.449C188.229 252.955 188.936 253.498 189.597 254.085C192.904 257.022 193.814 260.587 192.322 264.764C192.074 265.458 191.732 266.117 191.444 266.797C191.31 267.115 191.136 267.416 190.937 267.698C188.738 270.822 188.828 270.347 186.784 270.291C184.965 270.24 182.101 270.067 180.315 269.718C177.345 269.138 175.392 268.695 172.539 267.673C169.99 266.759 169.403 266.475 168.105 265.407C164.837 262.718 162.039 259.575 159.311 256.363C158.919 255.901 158.614 255.364 158.268 254.863C157.357 253.547 157.188 252.241 157.763 250.649C159.889 244.763 161.875 238.827 163.907 232.908C164.087 232.386 164.226 231.85 164.418 231.209C162.861 230.697 163.397 229.582 163.602 228.492C167.343 208.592 171.145 190.303 176.314 170.713C180.315 155.55 183.28 141.252 188.402 125.084C190.34 118.968 190.863 115.67 192.382 109.371C192.512 108.835 192.657 108.292 192.891 107.799C192.977 107.616 193.369 107.447 193.573 107.492C193.763 107.535 193.968 107.85 194.021 108.08C194.08 108.332 193.999 108.629 193.933 108.895C191.833 117.389 189.974 125.952 187.571 134.36C182.747 151.237 178.721 167.714 174.392 184.87C170.531 200.17 166.908 218.016 165.586 226.067C165.397 227.219 165.081 228.329 164.833 229.437C171.823 230.898 178.734 232.343 185.817 233.825C185.922 233.557 186.13 233.18 186.219 232.777C188.319 223.3 190.967 214.144 193.563 204.808C197.541 190.506 199.442 176.115 202.823 161.66C204.665 153.787 207.276 145.96 209.156 138.096C210.122 134.056 210.939 129.981 211.821 125.922C212.173 124.305 212.168 124.279 213.81 124.014C215.121 123.803 216.441 123.642 217.761 123.493C219.108 123.342 219.446 123.686 219.26 125.084C219.062 126.566 218.777 128.037 218.566 129.517C218.074 132.973 217.487 135.016 217.032 138.476C216.969 138.955 216.977 143.291 217.032 143.78C218.165 153.914 218.566 157.923 219.203 162.355C219.84 166.788 221.097 176.145 222.088 183.055C223.213 190.898 224.248 198.754 225.275 206.61C226.108 212.984 226.989 217.897 227.695 221.996C228.197 224.905 228.859 226.154 228.963 226.639C234.71 226.669 240.823 226.881 246.716 226.639C246.522 225.035 246.089 223.51 245.862 221.996C244.064 209.997 242.213 198.006 240.453 186.001C238.966 175.859 236.944 165.71 235.59 155.55C234.288 145.774 233.063 135.987 231.933 126.189C231.4 121.568 231.172 116.912 230.803 112.273C230.675 110.67 230.532 109.07 230.403 107.468C230.377 107.139 230.319 106.79 230.4 106.483C230.457 106.269 230.711 105.989 230.906 105.963C231.096 105.937 231.452 106.16 231.509 106.344ZM159.122 251.368C158.661 252.785 158.63 252.939 159.459 254.094C162.415 258.212 165.847 261.89 169.864 264.989C170.546 265.515 171.419 265.838 172.235 266.128C175.977 267.463 175.758 267.573 180.118 268.259C181.777 268.614 185.924 269.073 187.628 269.09C187.879 269.034 188.852 268.511 189.575 267.373C189.209 267.294 188.847 267.364 188.65 267.343C186.34 267.09 184.032 266.828 181.72 266.598C178.077 266.237 174.387 264.829 171.727 262.96C167.796 259.885 163.958 256.712 160.632 252.966C160.162 252.436 159.659 251.935 159.122 251.368ZM189.224 255.769C185.273 256.679 183.296 259.478 182.654 265.286C184.003 265.433 185.258 265.573 186.513 265.706C187.761 265.839 189.011 265.965 190.166 266.085C192.453 262.135 191.933 257.891 189.224 255.769ZM163.703 238.075C162.292 242.035 160.94 245.829 159.559 249.704C160.353 250.589 161.125 251.448 161.896 252.307C165.166 255.949 168.907 259.064 172.792 262.012C175.045 263.402 178.187 264.902 181.14 265.058C181.553 262.765 181.93 261.161 182.763 259.197C183.642 257.122 185.623 255.404 188.103 254.543C186.969 253.779 185.36 252.744 184.164 252.145C183.973 252.216 183.741 252.445 182.74 253.319C181.941 254.017 181.306 254.347 180.414 255.043C179.688 255.609 179.323 256.135 178.54 255.797C178.051 255.517 178.357 254.871 179.444 253.981C180.495 253.119 181.408 252.38 182.683 251.374C181.715 250.811 181.135 250.546 180.389 250.229C179.691 249.932 178.924 249.785 178.924 249.785C178.471 250.095 178.294 250.252 177.959 250.559C177.101 251.342 176.207 252.086 175.33 252.849L175.288 252.885C174.67 253.423 173.791 252.608 174.29 251.96C175.085 250.93 176.158 250.195 177.266 249.115C176.044 248.599 175.13 248.448 175.061 248.496C174.689 248.753 174.123 249.063 173.485 249.736C172.85 250.351 172.202 250.96 171.507 251.504C171.462 251.54 171.407 251.564 171.346 251.581C170.923 251.696 170.49 251.341 170.511 250.903C170.514 250.838 170.526 250.777 170.55 250.721C170.694 250.383 170.994 250.088 171.281 249.838C172.033 249.187 172.83 248.586 173.579 247.931C173.939 247.615 174.376 247.273 174.53 246.853C175.133 245.204 175.638 243.519 176.231 241.687C171.998 240.466 167.89 239.282 163.703 238.075ZM231.107 255.589C231.043 256.959 230.985 258.205 230.923 259.521C243.659 262.216 256.309 263.434 269.232 263.177C269.536 261.818 269.821 260.545 270.155 259.056C256.94 259.327 244.093 257.728 231.107 255.589ZM264.641 247.024C261.677 248.765 258.677 253.436 258.019 257.416C262.081 257.831 266.126 257.771 270.138 257.675C271.32 251.841 268.7 248.905 264.641 247.024ZM232.247 239.712C231.895 244.545 231.553 249.259 231.202 254.084C239.658 255.829 247.996 256.635 256.424 257.343C257.555 253.07 259.592 249.456 263.064 246.196C261.233 245.822 260.079 245.623 258.397 245.348C257.996 245.246 257.225 245.223 257.225 245.223C256.961 245.35 256.892 245.623 256.695 245.931C256.097 246.862 255.509 247.801 254.868 248.702C254.515 249.199 254.407 250.081 253.499 249.882C252.98 249.768 253.048 249.06 253.687 248.012C254.281 247.037 254.905 246.08 255.532 245.088C253.832 244.807 252.92 244.687 252.703 244.852C252.414 245.071 252.158 245.59 251.799 246.101C251.196 246.962 250.676 247.882 250.052 248.726C249.677 249.235 249.469 250.373 248.552 249.759C247.794 249.252 248.584 248.57 248.891 248.045C249.522 246.965 250.219 245.925 250.91 244.832C249.631 244.784 248.288 244.483 248.073 244.716C247.802 245.01 247.32 245.742 246.989 246.3C246.453 247.202 245.816 248.044 245.216 248.908C245.028 249.178 244.855 249.488 244.597 249.671C244.419 249.797 244.036 249.843 243.876 249.733C243.706 249.616 243.589 249.254 243.631 249.034C243.689 248.723 243.888 248.427 244.073 248.156C244.824 247.061 245.601 245.984 246.349 244.887C246.591 244.531 246.945 244.137 246.953 243.754C246.982 242.335 246.888 240.915 246.838 239.419C241.899 238.972 237.132 239.104 232.247 239.712ZM166.803 243.349C168.647 243.348 170.072 244.83 170.089 246.766C170.109 248.876 168.359 250.755 166.314 250.82C164.47 250.878 162.862 249.229 162.897 247.318C162.935 245.264 164.819 243.349 166.803 243.349ZM237.954 241.912C239.922 241.944 241.404 243.482 241.444 245.531C241.488 247.847 239.486 249.96 237.248 249.959C235.237 249.959 233.662 248.314 233.676 246.23C233.692 243.869 235.668 241.875 237.954 241.912ZM166.817 244.796C165.507 244.779 164.309 245.956 164.263 247.301C164.225 248.412 165.057 249.339 166.142 249.395C167.484 249.466 168.764 248.188 168.755 246.786C168.747 245.628 167.951 244.811 166.817 244.796ZM237.802 243.263C236.366 243.309 235.057 244.704 235.031 246.214C235.009 247.524 235.99 248.572 237.241 248.576C238.738 248.58 240.104 247.118 240.079 245.538C240.058 244.203 239.076 243.222 237.802 243.263ZM178.259 234.034C173.609 234.3 169.219 234.551 164.743 234.808C164.55 235.454 164.369 236.059 164.159 236.762C168.357 237.974 172.375 239.133 176.645 240.365C177.204 238.174 177.712 236.18 178.259 234.034ZM246.056 229.112C245.575 229.268 245.254 229.336 244.966 229.472C241.172 231.274 237.399 233.12 233.584 234.876C232.899 235.191 232.142 235.655 232.142 235.655C232.01 236.695 232.004 236.777 231.892 238.043C236.711 237.945 241.428 237.85 246.265 237.752C246.318 234.91 246.324 232.066 246.056 229.112Z" fill="#1D242F"/>
<path fill-rule="evenodd" clip-rule="evenodd" d="M216.938 12.5768L217.531 12.58C220.961 12.6161 223.11 13.0768 223.11 15.3406C223.11 17.7084 227.934 14.0675 227.934 16.0703C227.934 18.073 222.483 20.6941 221.266 20.6941C220.455 20.6941 219.453 20.4477 218.258 19.9548C218.166 20.0016 218.074 20.0476 217.981 20.0927C222.82 26.6734 224.546 33.1659 223.159 39.5701C222.864 40.9361 218.377 41.7863 209.698 42.1208L209.164 42.1405L209.878 48.8623C210.15 49.4804 210.304 50.1841 210.304 50.9307C210.304 53.3909 208.632 55.3853 206.568 55.3853C204.793 55.3853 203.306 53.9084 202.926 51.9287L202.698 51.9287L202.676 51.1237C202.436 42.5684 202.013 37.9058 201.407 37.136C194.456 37.136 194.456 33.6466 194.837 31.7465C194.923 31.3161 195.195 30.9435 195.572 30.6244C195.167 30.8017 194.715 31.0131 194.215 31.2585C190.158 27.6649 188.649 24.8381 189.69 22.7782C191.25 19.6885 193.677 19.0251 194.215 19.0251C194.752 19.0251 194.451 11.8826 202.108 11.0119C209.688 10.15 213.268 12.5292 216.938 12.5768Z" fill="white"/>
<path fill-rule="evenodd" clip-rule="evenodd" d="M221.893 9.91904C221.899 9.97651 221.895 10.0303 221.878 10.0791C221.362 11.4776 220.176 12.3512 218.648 12.7892C217.651 13.0752 216.598 13.1206 215.572 12.9631C213.298 12.6139 211.032 12.2098 208.762 11.8325C206.437 11.4459 204.118 11.2221 201.755 11.6172C198.873 12.0995 196.875 13.6011 195.855 16.3598C195.71 16.7512 195.306 17.6404 195.158 18.1439C194.693 19.7208 195.208 19.057 193.797 19.6878C193.328 19.8973 192.388 20.3999 191.981 20.7201C189.747 22.4781 189.343 24.9137 191.054 27.1801C191.99 28.4208 193.171 29.4769 194.25 30.6087C194.418 30.7847 194.667 30.8966 194.808 31.0842C194.906 30.9403 195.018 30.801 195.144 30.6669C196.303 29.436 197.734 28.7396 199.421 28.633C199.663 28.6177 199.85 28.6149 200.002 28.6385C200.009 28.6266 200.017 28.6154 200.024 28.6055C201.277 26.8357 201.172 24.7711 201.31 22.7568L201.31 22.7507C201.349 22.2722 201.979 22.1162 202.281 22.4903C202.361 22.5901 202.412 22.6806 202.418 22.7743C202.548 24.8642 202.506 26.9406 201.343 28.8035C201.208 29.0193 201.033 29.2383 200.823 29.3699C200.8 29.3847 200.771 29.3979 200.74 29.409C200.781 29.5985 200.653 29.7939 200.451 29.8231C200.196 29.8599 199.953 29.8926 199.711 29.8903C198.559 29.8794 197.571 30.3102 196.671 30.9752C195.765 31.6451 195.29 32.5108 195.48 33.681C195.681 34.9159 196.266 35.8709 197.506 36.2132C198.299 36.4319 199.144 36.4796 199.97 36.5526C200.531 36.6021 201.1 36.5618 201.813 36.5618C201.926 37.2045 202.083 37.7976 202.128 38.3994C202.37 41.6265 203.002 47.8196 203.203 51.0496C203.236 51.5709 203.589 52.3995 202.814 52.5147C201.915 52.6489 202.019 51.7485 201.975 51.1645C201.747 48.1981 201.14 42.2651 200.926 39.2978C200.896 38.8857 200.846 38.475 200.788 37.8905C199.878 37.833 199.1 37.8238 198.333 37.7281C195.695 37.4002 194.178 35.6603 194.211 33.0887C194.216 32.693 194.27 32.3199 194.378 31.9698C194.32 31.9846 194.264 31.9892 194.215 31.9804C193.928 31.9292 193.62 31.7519 193.411 31.539C192.281 30.3848 191.06 29.2927 190.089 28.0127C187.871 25.0867 188.465 21.6806 191.454 19.5363C191.918 19.2035 192.405 18.8564 192.944 18.6848C193.913 18.3764 193.814 18.277 194.026 17.4694C194.317 16.3658 194.897 15.3487 195.444 14.348C196.184 12.9953 197.309 11.913 198.698 11.2408C199.803 10.7056 201.041 10.5203 202.235 10.303C203.046 10.1556 203.87 10.1015 204.693 10.1136C205.169 10.1205 205.645 10.1501 206.118 10.1967C207.463 10.3289 208.789 10.5984 210.108 10.8861C211.355 11.1577 212.65 11.2896 213.916 11.4824C215.092 11.6618 216.299 11.7713 217.484 11.7256C218.793 11.675 219.885 11.062 220.6 9.89949C220.682 9.76614 220.75 9.58537 220.873 9.52416C220.937 9.49168 221.005 9.46409 221.073 9.43909C221.434 9.30775 221.853 9.53709 221.893 9.91904ZM223.865 14.3582C223.977 14.4199 224.009 14.7332 223.978 14.9166C223.946 15.1091 223.826 15.3097 223.692 15.4583C222.23 17.0671 220.71 18.6638 218.931 19.9242C219.25 20.2149 219.575 20.5241 219.703 20.7094C223.436 26.0998 225.363 31.9422 224.071 38.5651C224.011 38.8715 223.9 39.1681 223.84 39.4744C223.637 40.5142 223.036 41.0769 221.978 41.3002C218.503 42.0322 215.018 42.6461 211.455 42.6889C210.939 42.6949 210.423 42.6898 209.706 42.6898C209.983 43.8801 210.234 44.9139 210.46 45.9537C210.543 46.333 211.42 51.9033 211.084 51.9735C210.554 52.0844 209.963 52.1266 209.937 51.4421C209.909 50.6828 209.305 46.1431 209.132 45.393C209.051 45.0426 208.062 44.5472 207.406 43.887C206.933 43.4117 206.543 42.8349 206.21 42.25C206.06 41.9854 205.794 41.3244 205.912 41.047C205.976 40.8944 206.71 41.0421 206.978 41.0913C209.728 41.5945 212.485 41.552 215.235 41.1712C217.299 40.8855 219.346 40.4846 221.403 40.1478C222.167 40.0225 222.545 39.6 222.714 38.8355C223.39 35.7751 223.289 32.963 222.541 29.7137C221.794 26.4644 219.841 23.2586 217.835 20.7094L217.795 20.6584C215.557 21.956 212.94 22.5972 210.373 22.7609C210.328 22.7638 210.284 22.7664 210.239 22.7684C209.778 22.7899 209.329 22.7718 208.867 22.7296C208.289 22.6764 206.841 22.5549 206.874 21.7068C206.896 21.1535 207.421 21.2791 207.847 21.286C209.302 21.3099 210.772 21.4159 212.211 21.2587C214.152 21.0462 215.912 20.38 217.503 19.365C217.57 19.2799 217.663 19.2212 217.765 19.1928C218.353 18.7995 218.918 18.3575 219.46 17.873C220.469 16.9705 221.411 15.992 222.382 15.047C222.642 14.7936 222.867 14.4823 223.171 14.3027C223.341 14.2021 223.673 14.2527 223.865 14.3582ZM228.702 15.4864C229.39 16.0368 228.681 16.6346 228.287 17.0291L228.074 17.2424C226.259 19.0511 224.362 20.7511 221.687 21.2176C221.049 21.3288 220.469 21.3596 220.117 20.7695C219.988 20.5531 220.049 20.2591 220.262 20.1246C220.289 20.1074 220.313 20.0979 220.338 20.0973C223.362 20.0209 225.377 18.1345 227.365 16.1963C227.75 15.8212 228.104 15.0082 228.702 15.4864Z" fill="#1D242F"/>
<path fill-rule="evenodd" clip-rule="evenodd" d="M252.884 71.6437C252.895 71.6686 252.903 71.6951 252.909 71.7226L252.884 71.6437ZM248.281 72.887C246.608 70.7526 245.451 67.2273 246.958 67.7481C248.025 68.1169 251.741 72.3739 251.723 72.343C250.427 70.1495 249.454 68.0129 248.712 65.5268C248.493 64.7915 248.544 64.1178 248.973 63.738C249.31 63.4405 249.899 63.3821 249.899 63.3821C249.551 61.8061 249.59 60.6793 251.497 61.3959C251.195 60.483 251.149 59.6628 252.054 59.2738C252.94 58.8934 253.682 59.2317 254.332 59.8425C256.209 61.6063 257.642 63.7449 258.994 65.9189C259.548 66.8089 260.178 67.623 260.283 68.6968C260.373 69.6284 260.169 70.5615 259.951 71.4618C258.32 78.1903 256.722 84.9294 254.926 91.6144C254.159 94.4688 253.049 97.249 251.892 99.9774C249.902 104.669 244.502 106.67 239.855 104.596C237.242 103.43 235.11 101.593 232.975 99.7561C232.596 99.4301 232.207 99.1168 231.592 98.6063C231.592 99.4972 231.566 100.104 231.597 100.708C231.677 102.273 230.736 103.197 230.736 105.039C230.736 106.881 227.591 106.828 225.765 107.441C217.442 110.239 207.276 110.261 198.458 109.837C193.137 109.58 188.12 107.787 183.765 104.596C183.435 104.354 183.07 104.129 182.624 103.868C182.395 104.266 182.226 105.057 182.056 105.413C179.232 111.346 176.773 117.419 174.89 123.724C174.563 124.819 174.738 125.552 175.453 126.395C176.731 127.902 177.928 129.485 179.068 131.099C179.539 131.766 179.89 132.566 180.095 133.358C180.432 134.659 179.429 135.506 178.165 135.036C177.688 134.859 177.257 134.532 176.84 134.228C176.467 133.956 176.141 133.621 175.597 133.14C175.881 134.431 176.145 135.472 176.328 136.526C176.443 137.188 176.524 137.878 176.464 138.541C176.33 140.051 174.942 140.042 174.085 139.65C173.758 139.501 173.52 139.202 173.233 138.972C171.966 140.22 171.376 140.687 169.445 139.393C168.767 140.006 167.931 140.249 167.186 139.493C166.61 138.909 166.744 139.163 165.762 137.284C165.77 137.283 165.588 137.516 165.552 137.541C165.024 137.919 164.61 138.616 163.808 138.284C162.994 137.947 162.9 137.146 162.886 136.437C162.863 135.297 162.892 134.137 163.074 133.014C163.581 129.881 164.093 126.743 164.763 123.642C165.511 120.186 166.456 116.773 167.279 113.333C169.038 105.975 171.74 98.5917 174.89 91.6144C174.614 91.2475 174.318 90.9488 174.085 90.5618C173.289 89.2435 172.451 88.0344 173.336 86.59C174.124 85.3018 174.838 83.968 175.615 82.6727C179.047 76.9537 182.488 71.24 185.93 65.5268C187.63 62.705 189.595 60.0853 191.856 57.682C194.582 54.7866 196.636 53.3258 200.321 52.0692C201.721 51.5919 201.298 50.3577 202.214 51.6327C202.747 52.3746 210.695 52.3896 210.819 52.0692C211.107 51.3256 210.849 51.2717 211.591 51.1763C212.81 51.0197 213.908 51.6914 214.917 52.2713C218.42 54.285 221.63 56.6839 224.384 59.6459C229.085 64.7018 233.203 70.2052 236.753 76.123C237.527 77.4135 238.076 78.837 238.79 80.1665C239.409 81.3194 239.579 82.3983 238.53 83.4159C239.882 85.0874 241.703 87.3565 243.138 89.132C243.349 88.659 243.455 87.8001 243.585 87.4466C244.407 85.1976 244.769 82.8114 245.592 80.5626C245.631 80.4563 245.666 80.3448 245.705 80.2356L248.281 72.887Z" fill="white"/>
<path fill-rule="evenodd" clip-rule="evenodd" d="M265.869 27.8957C270.93 29.1539 273.875 32.6468 275.214 37.503C277.215 44.7611 274.159 53.1056 268.039 57.5177C264.942 59.7501 261.512 60.7279 257.697 60.2488C257.391 60.2103 257.085 60.1735 256.639 60.1186C256.46 60.5468 256.276 60.9684 256.099 61.3915C257.238 62.7548 258.216 64.2487 259.156 65.7595C259.71 66.6515 260.342 67.4673 260.446 68.5434C260.537 69.4771 260.332 70.4124 260.114 71.3144C258.48 78.0574 256.88 84.8111 255.081 91.5104C254.312 94.371 253.2 97.1575 252.042 99.8914C250.048 104.593 244.639 106.599 239.984 104.52C237.367 103.352 235.232 101.511 233.092 99.6693C232.714 99.343 232.324 99.029 231.708 98.5171C231.708 99.4102 231.682 100.018 231.713 100.624C231.792 102.192 232.702 105.934 231.331 106.502C229.549 107.241 226.88 107.945 224.487 108.54C215.914 110.67 207.35 110.198 198.518 109.772C193.188 109.515 188.226 108.13 183.864 104.932C183.533 104.69 183.155 104.512 182.707 104.25C182.479 104.65 182.258 104.982 182.088 105.339C179.26 111.285 176.796 117.371 174.91 123.689C174.583 124.787 174.758 125.521 175.474 126.366C176.755 127.877 177.953 129.463 179.096 131.08C179.567 131.748 179.919 132.551 180.124 133.344C180.461 134.648 179.457 135.497 178.19 135.026C177.712 134.848 177.282 134.52 176.863 134.215C176.49 133.943 176.163 133.608 175.619 133.126C175.903 134.42 176.168 135.462 176.351 136.519C176.466 137.181 176.547 137.873 176.487 138.538C176.352 140.051 174.963 140.042 174.103 139.649C173.776 139.5 173.538 139.201 173.251 138.97C171.981 140.22 171.391 140.689 169.456 139.391C168.777 140.007 167.94 140.25 167.193 139.493C166.616 138.906 166.75 139.162 165.767 137.279C165.775 137.277 165.592 137.511 165.556 137.536C165.027 137.914 164.613 138.613 163.809 138.28C162.994 137.943 162.9 137.14 162.886 136.43C162.863 135.287 162.892 134.125 163.074 132.999C163.583 129.859 164.095 126.715 164.767 123.607C165.515 120.143 166.462 116.723 167.286 113.275C169.048 105.902 171.269 98.6817 174.424 91.6891C174.147 91.3217 173.841 90.9778 173.607 90.5903C172.81 89.2694 172.467 87.923 173.353 86.4752C174.143 85.1842 174.858 83.8476 175.636 82.5494C179.074 76.8181 182.521 71.0921 185.969 65.3666C187.671 62.5387 189.64 59.9137 191.905 57.5049C194.635 54.6033 197.352 52.3219 201.043 51.0625C202.446 50.5842 202.531 50.7456 203.449 52.0234C203.983 52.7669 204.636 53.4962 205.392 53.9929C206.828 54.9363 208.645 54.9957 209.697 53.2457C209.875 52.9507 210.282 52.1975 210.406 51.8766C210.695 51.1317 210.899 51.0774 211.643 50.9818C212.864 50.8249 213.994 51.5014 215.004 52.0825C218.513 54.1005 221.729 56.5047 224.487 59.473C229.196 64.5401 233.321 70.0547 236.877 75.9854C237.653 77.2789 238.203 78.7055 238.918 80.0378C239.538 81.1932 239.708 82.2745 238.658 83.2943C240.012 84.9693 241.319 86.5875 242.758 88.3665C242.969 87.8931 243.144 87.5556 243.273 87.2017C243.907 85.4668 244.533 83.7287 245.164 81.9925C245.136 81.9661 245.109 81.9384 245.082 81.9098C244.401 81.1974 244.661 80.5039 244.957 79.749C245.922 77.2971 246.883 74.8442 247.844 72.3908C246.769 71.2544 245.884 69.9802 245.597 68.3971C245.408 67.3555 246.257 66.6968 247.273 67.0771C248.149 67.4052 248.746 68.0438 249.264 68.7583L249.538 68.0586C249.115 67.1907 248.743 66.2952 248.462 65.3516C248.242 64.6148 248.303 63.7245 248.733 63.3442C249.07 63.046 249.654 63.15 249.654 63.15C249.305 61.5706 249.478 60.4345 251.388 61.1524C251.086 60.2374 251.297 59.49 252.204 59.1004C252.513 58.9674 252.805 58.922 253.081 58.9452L253.172 58.7102C252.314 57.9593 251.558 57.3928 250.915 56.718C247.987 53.6436 246.69 49.9092 246.804 45.7249C246.984 39.1462 249.681 33.8131 255.135 30.0372C258.368 27.7997 261.996 26.9328 265.869 27.8957ZM176.111 91.0447C175.871 91.5664 175.721 91.895 175.569 92.2228C171.148 101.759 168.851 111.942 166.482 122.1C165.718 125.376 165.634 128.731 165.912 132.068C166.045 133.661 166.492 135.238 166.906 136.794C167.015 137.203 167.267 137.574 167.577 138.043C167.78 138.35 168.26 138.177 168.22 137.811C168.013 136.052 167.775 134.297 167.573 132.538C167.472 131.657 167.404 130.771 167.364 129.886C167.353 129.62 167.388 129.358 167.61 129.185C167.876 128.978 168.271 129.126 168.373 129.447C168.481 129.789 168.592 130.139 168.639 130.498C168.893 132.411 169.04 134.339 169.348 136.242C169.494 137.141 169.848 137.936 170.522 138.548C171.042 139.02 171.879 138.64 171.911 137.939C171.943 137.253 171.834 136.594 171.735 135.944C171.428 133.938 171.047 131.943 170.712 129.942C170.644 129.532 170.554 129.094 170.636 128.703C170.663 128.576 170.746 128.46 170.849 128.349C171.064 128.116 171.442 128.116 171.654 128.352C171.721 128.427 171.772 128.505 171.788 128.59C171.952 129.459 171.996 130.351 172.139 131.226L172.201 131.61C172.52 133.592 172.819 135.586 173.862 137.362C174.051 137.684 174.211 138.064 174.543 138.321C174.838 138.549 175.265 138.316 175.247 137.945C175.225 137.504 175.205 137.092 175.112 136.697C174.625 134.616 174.068 132.551 173.573 130.472C173.475 130.062 173.439 129.639 173.402 129.232C173.372 128.903 173.651 128.617 173.978 128.661C174.374 128.715 174.574 129.029 174.777 129.353C175.331 130.235 175.861 131.139 176.476 131.978C177.071 132.79 177.75 133.548 178.75 133.879C178.773 133.853 178.794 133.826 178.815 133.799C178.986 133.572 179.009 133.266 178.868 133.019C178.472 132.328 178.064 131.694 177.584 131.043C176.409 129.449 175.151 127.913 173.888 126.385C173.336 125.717 173.161 125.053 173.439 124.219C174.131 122.141 174.739 120.035 175.455 117.965C177.591 111.791 180.404 105.906 183.182 100.006C183.822 98.6481 184.4 97.2612 185.07 95.743C182.035 94.1509 179.105 92.6149 176.111 91.0447ZM164.537 129.985C164.479 129.979 164.316 132.465 164.308 132.523C163.978 134.918 163.806 136.854 164.105 136.854C165.668 136.586 164.785 134.417 164.813 133.18C164.748 133.172 164.602 129.993 164.537 129.985ZM212.278 52.3399C212.085 52.7085 211.938 53.1316 211.847 53.3171C209.795 57.4765 204.703 56.8543 202.373 53.1569C202.186 52.8604 201.957 52.5904 201.772 52.3399C198.698 52.9756 195.34 55.7822 193.115 58.0674C190.809 60.4362 188.832 63.0567 187.13 65.8857C183.255 72.3256 179.383 78.7673 175.518 85.2132C175.039 86.0138 174.61 86.8449 174.061 87.836C177.846 88.0284 180.431 89.7968 182.758 91.0447C185.132 92.3179 186.387 92.8818 188.559 95.0107C188.636 94.8177 188.717 94.6413 188.777 94.458C190.422 89.4553 192.063 84.4517 193.707 79.4486C193.777 79.2346 193.857 79.0241 193.941 78.8149C194.111 78.3895 194.286 77.9011 194.9 78.1422C195.45 78.3576 195.249 78.8078 195.115 79.2082C194.932 79.752 194.75 80.2961 194.576 80.8428C192.912 86.0578 191.245 91.2717 189.592 96.4902C189.243 97.5904 188.698 98.0247 187.389 98.0532C186.777 98.0664 186.162 97.9966 185.514 97.9627C184.771 99.59 184.06 101.148 183.278 102.861C184.192 103.533 184.961 104.152 185.782 104.694C189.292 107.01 193.192 108.085 197.298 108.434C197.102 108.257 196.891 107.927 196.942 107.733C197.257 106.538 197.387 105.282 198.206 104.248C198.616 103.732 198.968 103.109 199.137 102.479C199.377 101.575 198.835 101.031 197.919 101.223C197.213 101.37 196.56 101.754 195.858 101.934C195.582 102.005 195.071 101.899 194.965 101.709C194.829 101.464 194.904 101.006 195.052 100.726C195.18 100.485 195.516 100.283 195.799 100.209C196.755 99.9597 197.72 99.7127 198.697 99.5866C199.492 99.484 200.117 99.8356 200.368 100.677C200.561 101.32 200.776 101.957 201.002 102.659C200.793 103.134 200.608 103.61 200.379 104.064C199.985 104.843 199.583 105.62 199.148 106.378C198.79 107.003 198.406 107.617 197.979 108.196C197.902 108.3 197.712 108.406 197.556 108.455C197.825 108.476 198.095 108.494 198.366 108.509C203.078 108.768 209.343 109.041 214.043 108.509C220.506 107.776 228.723 106.457 230.104 104.395C230.556 103.719 230.623 101.595 230.471 100.225C230.194 97.7372 230.028 95.2348 229.678 92.758C229.174 89.1962 228.356 85.7021 227.426 82.2182C227.379 82.0425 227.332 81.867 227.285 81.6916L227.217 81.7139C226.046 82.0885 224.941 82.0001 223.983 81.1716C223.507 80.7605 223.148 80.3236 223.243 79.5638C223.351 78.6916 222.897 78.2532 222.045 78.4756C220.723 78.8206 219.217 78.5985 218.12 79.7539C217.794 80.0969 217.184 80.1863 216.689 80.3477C215.901 80.6048 215.108 80.8501 214.306 81.055C212.712 81.4617 211.273 81.0739 210.105 79.961C208.895 78.8088 208.358 77.3403 208.786 75.6857C209.3 73.7001 210.413 72.0974 212.148 70.942C212.616 70.6303 213.092 70.2601 213.41 69.8082C214.081 68.853 213.883 67.8907 212.929 67.2739C212.743 67.1541 212.357 67.2518 212.102 67.3489C211.336 67.6399 210.589 67.9806 209.835 68.3015C209.213 68.5652 208.601 68.8516 207.969 69.086C206.706 69.5548 205.463 70.167 204.155 70.3913C203.152 70.5637 202.043 70.3144 201.021 70.0791C200.681 70.0009 200.365 69.4212 200.211 69.0067C199.792 67.8778 199.92 66.7545 200.457 65.6724C201.267 64.0379 202.484 62.6949 203.969 61.7412C206.494 60.1181 209.091 58.5697 212.038 57.7691C212.232 57.7166 212.425 57.6132 212.583 57.4882C213.531 56.7413 214.657 56.5462 215.808 56.4259C216.223 56.3822 216.641 56.3664 217.056 56.3182C217.446 56.2728 217.833 56.2012 218.222 56.1412C217.839 56.4196 217.496 56.82 217.069 56.9573C213.129 58.2227 209.453 60.0564 205.853 62.0583C205.543 62.2307 205.296 62.5217 205.03 62.7693C204.764 63.0178 204.55 63.4372 204.246 63.5125C202.598 63.9195 202.337 65.417 201.719 66.6195C201.375 67.2894 201.224 68.0133 201.891 68.6315C202.674 69.3557 203.625 69.5525 204.463 69.1242C205.993 68.3434 207.479 67.4687 209.048 66.7804C210.04 66.3455 211.136 66.103 212.209 65.9077C213.796 65.619 215.019 66.2171 215.659 67.4474C216.139 68.373 216.003 69.1101 215.292 69.8605C214.871 70.304 214.52 70.8133 214.141 71.2957C213.949 71.5404 213.814 71.9256 213.568 72.0167C212.114 72.553 211.802 74.0063 211.069 75.0936C210.35 76.1599 210.314 77.4406 211.043 78.4968C211.728 79.4896 212.894 79.5873 214.03 79.3891C214.593 79.2909 215.155 79.1432 215.691 78.9441C217.399 78.309 219.077 77.5908 220.8 77.0036C221.677 76.7049 222.62 76.5368 223.544 76.467C224.036 76.43 224.441 76.5923 224.22 77.4472C223.842 78.914 225.183 80.3244 226.698 80.4034L226.912 80.3393C226.013 77.1452 224.978 74.0155 223.466 71.0424C223.277 70.6712 223.023 70.2995 222.969 69.9048C222.963 69.8614 222.963 69.8169 222.968 69.7718C223.022 69.2587 223.614 68.9407 224.05 69.2182C224.098 69.249 224.138 69.2854 224.164 69.3294C224.569 69.9927 224.862 70.7255 225.177 71.4411C226.396 74.215 227.324 77.0841 228.16 79.9839C228.518 79.8772 228.872 79.7596 229.213 79.6143C230.988 78.8591 232.73 78.0243 234.487 77.226C234.957 77.0123 235.535 76.6391 235.91 77.1668C236.366 77.8094 235.725 78.2765 235.286 78.5554C233.256 79.8456 231.115 80.8881 228.694 81.2526C228.639 81.2609 228.584 81.2711 228.529 81.2828C228.746 82.0608 228.959 82.84 229.171 83.6195C229.301 84.0935 229.498 84.5494 229.625 84.9047C232.304 82.3949 233.656 81.5896 237.702 80.3007C237.036 79.0229 236.445 77.551 235.57 76.2738C232.887 72.3586 230.18 68.4544 227.324 64.6648C223.997 60.2512 219.978 56.5351 215.259 53.6165C214.531 53.1666 213.499 52.6351 212.278 52.3399ZM202.243 83.7885C203.033 84.6221 204.19 85.2998 203.484 86.7652C203.428 86.8818 203.449 87.1064 203.528 87.2055C204.592 88.5313 204.066 89.9305 203.563 91.2097C203.181 92.1818 203.65 92.9411 203.791 93.7796C203.819 93.9451 204.48 94.2151 204.648 94.1114C205.651 93.4906 206.613 92.798 207.552 92.0807C208.033 91.7125 208.42 91.2232 208.881 90.8248C209.273 90.4861 209.72 90.2121 210.126 89.8877C212.003 88.3856 214.088 87.4132 216.533 87.3334C218.293 87.2756 219.529 88.3227 219.925 90.0831C220.644 93.2809 219.365 95.7526 217.188 97.9255C217.151 97.9622 217.113 98.0036 217.066 98.0234C214.68 99.0527 214.176 101.556 212.882 103.434C212.702 103.695 212.935 104.297 213.072 104.71C213.297 105.383 213.458 106.045 212.954 106.632C212.777 106.839 212.402 107.029 212.162 106.984C211.956 106.945 211.7 106.58 211.661 106.329C211.183 103.246 211.577 100.418 214.101 98.2231C214.966 97.4701 215.799 96.6778 216.606 95.8632C217.378 95.0835 218.098 94.2691 218.096 93.0471C218.095 92.6489 218.309 92.2459 218.446 91.8526C218.932 90.4528 218.163 89.1808 216.689 89.073C215.35 88.9754 214.1 89.3721 212.954 90.0475C211.696 90.7883 210.457 91.5634 209.225 92.3487C208.972 92.5102 208.724 92.7483 208.586 93.0103C207.85 94.4067 206.513 95.0384 205.193 95.6491C204.03 96.1872 203.787 95.9143 202.926 94.8965C202.007 93.8095 201.812 92.5895 202.099 91.3847C202.686 88.9186 202.564 86.4784 202.271 84.0186L202.243 83.7885ZM189.012 102.437C189.949 102.666 190.847 102.751 191.767 102.37C192.137 102.217 192.683 102.021 192.811 102.582C192.873 102.853 192.537 103.349 192.248 103.533C191.827 103.801 191.285 103.878 190.657 104.081C190.05 103.835 189.351 103.627 188.733 103.277C188.313 103.039 187.654 102.358 187.7 102.292C188.142 101.658 188.575 102.33 189.012 102.437ZM255.57 62.718L254.827 64.6088C255.227 65.2336 255.63 65.8573 256.029 66.4829C256.169 66.7029 256.325 66.9135 256.457 67.1387C256.712 67.5722 257.213 68.0947 256.563 68.4768C255.956 68.8347 255.649 68.1835 255.372 67.7684C254.996 67.2046 254.623 66.6385 254.252 66.0705L253.779 67.2759C254.033 67.607 254.287 67.9387 254.539 68.272C254.789 68.6043 255.063 68.9491 255.191 69.3331C255.217 69.4098 255.213 69.496 255.195 69.5874C255.124 69.9364 254.748 70.1418 254.409 70.0321C254.332 70.0071 254.261 69.9746 254.2 69.9289C253.96 69.7523 253.833 69.4299 253.643 69.1812L253.239 68.6508C252.967 69.3435 252.695 70.0363 252.423 70.729C252.579 71.0109 252.73 71.2955 252.86 71.5893C252.87 71.6146 252.879 71.6407 252.885 71.6683C252.971 72.0811 252.557 72.425 252.144 72.3394C252.018 72.3132 251.916 72.2724 251.873 72.1975L251.857 72.17C250.655 75.2303 249.452 78.2903 248.246 81.3491C247.857 82.3348 247.08 82.769 246.279 82.6129L246.795 81.1519C245.925 83.6111 245.062 86.073 244.164 88.522C243.704 89.7107 243.704 89.7107 244.226 90.904C244.447 91.2435 244.674 91.7152 244.165 91.9973C243.585 92.3196 243.294 91.8353 243.093 91.4188C241.588 88.3077 238.959 86.0673 236.893 83.3917C236.867 83.3583 236.893 83.3917 236.736 83.1957C234.867 84.3744 232.694 85.6786 230.744 86.9716C230.611 87.0601 230.23 87.3203 230.23 87.3203C230.205 87.4815 230.284 87.8383 230.304 88.0034C230.599 90.4596 230.935 92.9117 231.331 95.3532C231.392 95.73 231.53 96.202 231.53 96.202C231.616 96.3365 231.921 96.6671 232.03 96.7866C234.221 99.1939 236.668 101.319 239.535 102.885C244.295 105.485 249.127 103.736 251.192 98.6711C252.609 95.192 253.883 91.6638 254.747 87.9905C256.05 82.4558 257.451 76.9445 258.799 71.4207C258.959 70.7629 259.121 70.0901 259.145 69.4193C259.165 68.8666 259.126 68.2277 258.868 67.7626C257.89 65.9987 256.826 64.2895 255.57 62.718ZM188.413 74.6983C188.307 75.3056 188.373 75.9896 188.111 76.5121C187.757 77.2162 188.049 77.5974 188.499 77.9927C188.811 78.2673 189.175 78.4822 189.494 78.7496C190.482 79.5767 190.694 81.1216 190.279 82.3072C189.369 84.9058 187.341 86.1844 184.918 86.8635C183.813 87.1729 182.552 86.9747 181.367 86.9117C181.094 86.8971 180.802 86.5248 180.592 86.2594C180.443 86.0718 180.417 85.7865 180.337 85.5452C180.616 85.4679 180.891 85.3507 181.175 85.3246C181.482 85.2962 181.798 85.3525 182.111 85.3717C184.362 85.5013 186.309 84.7567 188.034 83.3427C189.621 82.042 189.475 80.1012 187.693 79.109C187.238 78.8556 186.733 78.6821 186.309 78.3883C185.552 77.8637 185.395 77.2007 185.987 76.5265C186.632 75.7905 187.432 75.1881 188.171 74.536C188.41 74.3257 188.464 74.4019 188.413 74.6983ZM177.268 83.9186C177.837 84.3136 178.352 84.7867 179.002 85.3236C178.628 85.6292 178.469 85.847 178.261 85.9131C177.694 86.0929 176.456 85.5704 176.279 84.9952C176.182 84.6807 176.373 84.2334 176.547 83.9065C176.602 83.8034 177.094 83.7982 177.268 83.9186ZM202.146 83.7189L202.242 83.7877L202.177 83.8004C201.802 83.8799 201.366 84.0867 201.089 83.9567C200.021 83.4572 198.98 83.5431 197.9 83.822C197.657 83.8846 197.384 83.8685 197.13 83.8398C196.993 83.824 196.867 83.7054 196.736 83.633C196.833 83.4727 196.892 83.2535 197.033 83.1613C198.441 82.2432 200.371 82.4646 202.146 83.7189ZM193.652 68.4573C193.842 68.7109 194.032 68.9646 194.194 69.1794C193.796 70.3159 193.629 71.4195 193.057 72.2443C192.531 73.0041 191.578 73.4732 190.799 74.0518C190.487 74.2842 190.097 74.4229 189.813 74.6812C189.273 75.1718 188.984 74.5674 188.583 74.4603C188.625 74.3074 188.618 74.0995 188.718 74.0107C189.373 73.425 190.039 72.849 190.726 72.3C191.801 71.4414 192.692 70.4661 193.091 69.1016C193.164 68.8534 193.459 68.6704 193.652 68.4573ZM246.514 68.3026C246.491 68.5804 246.764 69.1613 246.922 69.3911C247.019 69.533 247.083 69.6307 247.142 69.7188C247.484 70.2367 247.888 70.7084 248.333 71.1392L248.744 70.0901C248.615 69.958 248.494 69.8139 248.37 69.6798C247.989 69.2673 247.505 68.6198 247.132 68.1998C246.792 67.9611 246.531 68.1015 246.514 68.3026ZM189.961 66.9251C190.098 67.0483 190.228 67.1655 190.357 67.283C190.26 67.3899 190.176 67.5711 190.063 67.5924C189.06 67.782 188.053 67.9469 187.045 68.1054C186.976 68.1164 186.889 68.0198 186.81 67.9733C186.895 67.8547 186.959 67.6576 187.067 67.6292C188.003 67.383 188.947 67.1672 189.961 66.9251ZM249.535 64.701C249.306 65.124 249.756 65.9466 250.118 66.5752L250.634 65.2544C250.557 65.1542 250.479 65.0541 250.402 64.954C250.271 64.786 250.092 64.655 249.768 64.5924C249.677 64.5749 249.579 64.6191 249.535 64.701ZM250.414 62.1486C250.457 62.8749 250.876 63.437 251.185 63.8465L251.637 62.6891L251.762 62.3701C251.753 62.361 251.744 62.3518 251.735 62.3425C251.254 61.8493 250.377 61.5364 250.414 62.1486ZM259.89 31.5985C258.3 32.1906 256.884 33.0708 255.684 34.2606C252.11 37.8044 250.452 42.1274 250.658 47.1319C250.754 49.4625 251.438 51.6497 252.829 53.5707C255.013 56.5867 258.558 57.7857 262.117 56.7131C264.006 56.1437 265.643 55.144 267.032 53.7537C270.25 50.5337 271.842 46.6197 271.963 42.5948C271.988 39.4705 271.45 37.0055 269.959 34.8082C267.667 31.4308 263.71 30.1751 259.89 31.5985Z" fill="#1D242F"/>
<path fill-rule="evenodd" clip-rule="evenodd" d="M249.094 64.7903C250.195 68.7157 251.498 71.1864 253.003 72.2023C254.508 73.2181 256.573 73.4604 259.199 72.929L259.727 67.6835L253.704 59.7859C253.139 59.6651 252.774 59.6651 252.61 59.7859C252.257 60.0457 252.236 60.8754 251.984 61.0193C251.557 61.2635 251.048 61.4718 250.455 61.6443L249.094 64.7903Z" fill="white"/>
<path fill-rule="evenodd" clip-rule="evenodd" d="M252.041 72.0481C252.085 72.1225 252.186 72.1632 252.311 72.1895C252.722 72.2749 253.133 71.9318 253.048 71.5207C253.042 71.4932 253.034 71.4668 253.023 71.4416C252.73 70.7779 252.333 70.1615 251.996 69.5158C251.42 68.4097 250.869 67.6756 250.352 66.5423C249.985 65.9055 249.475 65.0202 249.715 64.5758C249.759 64.4942 249.856 64.4501 249.947 64.4679C250.27 64.5303 250.448 64.6606 250.577 64.8284C251.66 66.2271 252.731 67.6341 253.802 69.0417C253.991 69.2896 254.118 69.6109 254.356 69.787C254.418 69.8325 254.489 69.8648 254.565 69.8895C254.902 69.9988 255.276 69.7941 255.347 69.4465C255.365 69.3555 255.369 69.2693 255.343 69.1928C255.216 68.8103 254.943 68.4667 254.694 68.1354C253.63 66.723 252.526 65.3395 251.491 63.9055C251.19 63.4884 250.639 62.8696 250.589 62.0321C250.553 61.4217 251.425 61.7338 251.904 62.2254C252.436 62.7714 252.504 62.9655 252.89 63.5751C253.753 64.9372 254.629 66.2918 255.523 67.6335C255.799 68.047 256.104 68.6964 256.708 68.3396C257.354 67.9585 256.856 67.438 256.603 67.0056C256.471 66.7814 256.316 66.5715 256.176 66.3519C255.226 64.8604 254.258 63.3801 253.339 61.8692C253.107 61.4872 252.819 61.0769 252.877 60.5939C252.914 60.2844 253.264 60.122 253.52 60.3004C253.765 60.4716 253.997 60.6623 254.205 60.8768C256.152 62.8785 257.659 65.2012 259.002 67.6278C259.258 68.0913 259.297 68.7279 259.277 69.279C259.252 69.9476 259.092 70.6182 258.933 71.2736C258.533 72.9134 258.129 74.5523 257.724 76.1907C258.146 76.2499 258.566 76.3078 258.987 76.3642C259.405 74.6319 259.822 72.8996 260.241 71.1676C260.459 70.2686 260.662 69.3363 260.572 68.406C260.467 67.3334 259.84 66.52 259.288 65.6312C257.94 63.4595 256.512 61.3232 254.641 59.5617C253.993 58.9513 253.253 58.6137 252.37 58.9936C251.468 59.3822 251.258 60.1272 251.559 61.0391C249.659 60.3233 249.486 61.4557 249.833 63.0302C249.833 63.0302 249.252 62.9266 248.917 63.2235C248.489 63.6029 248.428 64.4902 248.647 65.2247C249.387 67.708 250.749 69.8571 252.041 72.0481Z" fill="#1D242F"/>
<path fill-rule="evenodd" clip-rule="evenodd" d="M269.502 40.5321C269.502 44.2459 269.088 49.3372 261.742 54.5215C267.863 48.3395 266.413 41.714 266.413 38.2047C266.413 34.6953 269.502 36.8183 269.502 40.5321Z" fill="white"/>
<path fill-rule="evenodd" clip-rule="evenodd" d="M215.033 38.0299C215.84 38.404 216.607 38.4089 217.447 38.1483C217.504 38.1305 217.569 38.1368 217.638 38.158C218.056 38.2868 218.186 38.8317 217.891 39.1544C217.836 39.2145 217.776 39.2654 217.708 39.301C217.608 39.3536 217.503 39.3961 217.392 39.4326C216.668 39.6714 215.878 39.6203 215.171 39.3372C214.982 39.2616 214.794 39.1774 214.614 39.0791C214.554 39.0461 214.509 38.986 214.472 38.911C214.306 38.5742 214.483 38.1486 214.841 38.0356C214.915 38.012 214.981 38.0057 215.033 38.0299ZM215.552 28.5208C217.467 30.6168 217.219 34.4581 215.05 36.2873C213.446 37.6407 211.272 37.5047 209.872 35.9373C208.964 34.9208 208.579 33.6994 208.582 32.3446C208.584 30.7582 209.088 29.3684 210.264 28.2817C211.874 26.7939 214.08 26.9097 215.552 28.5208ZM217.877 27.1791C218.025 27.5007 218.047 27.8827 218.107 28.2416C218.457 30.3493 218.81 32.4565 219.147 34.5662C219.415 36.2386 218.909 36.9111 217.241 37.0502C217.184 37.0548 217.125 37.0453 217.066 37.0257C216.662 36.8944 216.51 36.3768 216.771 36.042C216.796 36.0104 216.823 35.9817 216.854 35.9566C217.094 35.7618 217.415 35.6658 217.818 35.4974C217.916 35.4566 217.973 35.3514 217.956 35.2468C217.586 32.9011 217.227 30.6479 216.878 28.3934C216.823 28.0358 216.753 27.6605 216.81 27.313C216.842 27.117 217.104 26.8434 217.289 26.8205C217.475 26.7972 217.793 26.9963 217.877 27.1791ZM210.072 30.7786C209.658 31.8715 209.69 33.103 210.19 34.1598C211.162 36.2166 213.223 36.521 214.579 34.9863C215.204 34.2793 215.489 33.4447 215.603 32.24C215.638 31.875 215.588 31.5077 215.468 31.1614C215.302 30.6809 215.081 30.0521 214.712 29.527C213.477 27.7682 211.017 28.2806 210.072 30.7786ZM225.998 28.3373C226.201 28.7673 226.325 29.234 226.417 29.6412C226.551 30.2398 226.596 30.8572 226.524 31.4664C226.379 32.7157 226.029 33.6742 225.338 34.5105C223.698 36.4938 221.084 36.2705 219.984 33.9567C218.974 31.8323 219.117 29.678 220.57 27.7697C222.172 25.6646 224.872 25.9517 225.998 28.3373ZM221.709 28.3632C221.199 28.9144 220.91 29.5507 220.759 30.3364C220.596 31.1859 220.652 32.0694 220.923 32.8905C220.988 33.0856 221.067 33.2836 221.166 33.471C221.88 34.8246 223.192 34.9534 224.239 33.8581C225.434 32.608 225.675 30.0298 224.729 28.6069C223.947 27.4277 222.678 27.3156 221.709 28.3632ZM214.34 31.5345C214.516 31.7552 214.71 32.0078 214.789 32.2926C214.995 33.0369 214.549 33.71 213.975 33.6796C213.308 33.6442 213.161 33.1111 213.08 32.5947C213.002 32.1041 213.199 31.6336 213.615 31.3936C213.856 31.254 214.166 31.3163 214.34 31.5345ZM221.914 30.5347C222.222 30.6542 222.547 31.0646 222.616 31.3963C222.728 31.9386 222.487 32.5315 221.857 32.5217C221.664 32.5185 221.475 32.3174 221.323 32.1346C221.174 31.9564 221.097 31.451 221.12 31.2205C221.194 30.4825 221.521 30.3824 221.914 30.5347Z" fill="#1D242F"/>
</svg>
