<svg width="47" height="47" viewBox="0 0 47 47" fill="none" xmlns="http://www.w3.org/2000/svg">
<path d="M46.9684 1.31885H37.5508V3.64989H46.9684V1.31885Z" fill="#313134"/>
<path d="M2.33105 1.31885H0V46.6159H2.33105V1.31885Z" fill="#313134"/>
<path d="M46.9999 44.2849H0V46.616H46.9999V44.2849Z" fill="#313134"/>
<path d="M47 1.31885H44.6689V46.6159H47V1.31885Z" fill="#313134"/>
<path d="M9.32938 1.31885H0V3.64989H9.32938V1.31885Z" fill="#313134"/>
<path d="M17.7555 29.7382C18.1501 29.7382 18.5395 29.7538 18.9341 29.733C19.23 29.7174 19.3234 29.8472 19.3286 30.1276C19.339 30.9011 19.339 31.6747 19.3909 32.4482C19.4376 33.1906 19.6193 33.9019 20.0295 34.5457C20.4708 35.2465 21.1301 35.6411 21.9089 35.7553C22.5994 35.8591 23.3106 35.8695 24.0115 35.6463C24.8733 35.3659 25.4703 34.8104 25.7611 33.9901C26.5294 31.8564 26.2179 29.8472 24.8941 28.0094C24.2088 27.0593 23.3366 26.2909 22.4332 25.5485C21.1872 24.5206 19.8997 23.5394 18.7939 22.3453C17.5583 21.011 16.6601 19.4951 16.3798 17.6884C16.0631 15.6325 16.1721 13.6026 17.1326 11.7128C18.0515 9.91131 19.5519 8.9197 21.561 8.6705C22.7966 8.51994 24.0167 8.53033 25.2107 8.87817C26.9292 9.37657 28.1129 10.4928 28.8241 12.1333C29.4264 13.5247 29.5354 14.9939 29.5717 16.4735C29.5821 16.8266 29.4731 16.92 29.1097 16.92C28.3257 16.9252 27.5418 16.9252 26.7579 16.92C26.3789 16.92 26.2906 16.837 26.2802 16.458C26.2647 16.0323 26.3166 15.6013 26.2491 15.186C26.1504 14.5734 26.0414 13.9504 25.813 13.3793C25.4859 12.559 24.8421 12.0503 23.9596 11.853C22.916 11.6194 21.9192 11.6713 21.0055 12.2787C20.4656 12.6369 20.1126 13.1509 19.9308 13.7687C19.4844 15.321 19.4947 16.8577 20.1697 18.3529C20.6784 19.4743 21.478 20.3725 22.3917 21.172C23.6481 22.2726 24.9512 23.3213 26.192 24.4375C27.3393 25.4707 28.3102 26.6595 28.8864 28.1132C29.1356 28.7466 29.2862 29.4215 29.4264 30.0912C29.7015 31.4203 29.6236 32.7442 29.3121 34.0576C28.9747 35.4905 28.3309 36.7521 27.1472 37.6814C26.519 38.1746 25.8182 38.5224 25.0394 38.7301C24.1257 38.9689 23.2016 39.0364 22.2723 38.9949C20.2683 38.8962 18.5706 38.1746 17.3818 36.4873C16.8314 35.7086 16.5511 34.8052 16.3382 33.8863C16.0527 32.6351 16.1409 31.358 16.1254 30.086C16.1202 29.8368 16.25 29.7486 16.4784 29.7486C16.9093 29.7382 17.335 29.7382 17.7555 29.7382Z" fill="#313134"/>
<path d="M20.798 2.63761C20.8084 1.01262 21.8416 0.0054433 23.4821 0.0158266C24.9202 0.0262099 26.2077 1.30855 26.2025 2.73625C26.1974 4.28336 25.0344 5.40475 23.4717 5.40994C22.0544 5.41513 20.6994 4.06012 20.798 2.63761Z" fill="#313134"/>
<path d="M12.6574 2.61706C12.6263 1.02841 13.7061 -0.0254893 15.3415 0.000468948C16.7848 0.0212355 18.0723 1.31915 18.0359 2.74685C17.9944 4.43932 16.7432 5.40497 15.2792 5.39978C13.9657 5.38939 12.538 4.11225 12.6574 2.61706Z" fill="#313134"/>
<path d="M31.8142 5.39956C30.3553 5.39437 29.0937 4.14318 29.1145 2.68433C29.1405 1.04377 30.0957 0.0158278 31.7882 0.0106362C33.2471 0.00544451 34.5034 1.26182 34.5034 2.71029C34.5086 4.29374 33.3872 5.40994 31.8142 5.39956Z" fill="#313134"/>
</svg>
