<svg width="210" height="155" viewBox="0 0 210 155" fill="none" xmlns="http://www.w3.org/2000/svg">
<path opacity="0.5" d="M112.548 155C158.738 155 196.183 153.308 196.183 151.22C196.183 149.133 158.738 147.441 112.548 147.441C66.3571 147.441 28.9121 149.133 28.9121 151.22C28.9121 153.308 66.3571 155 112.548 155Z" fill="#DBE1E8"/>
<g opacity="0.5">
<g opacity="0.5">
<path opacity="0.5" fill-rule="evenodd" clip-rule="evenodd" d="M103.551 2.31288C111.332 2.28629 119.027 3.01575 126.486 5.37105C128.751 6.08625 131.009 6.87825 133.17 7.85497C135.495 8.90577 137.608 10.368 139.653 11.9014C142.342 13.917 144.736 16.2418 146.787 18.9018C148.812 21.5277 150.272 24.4117 150.734 27.7507C151.028 29.8727 150.882 31.9383 150.143 33.9439C148.764 37.684 146.899 41.1238 143.9 43.8522C141.533 46.0048 139.186 48.1789 136.828 50.3411C134.152 52.7959 131.599 55.3664 129.412 58.2772C127.692 60.5678 126.258 63.0078 125.612 65.8369C125.47 66.4586 125.341 67.0903 125.29 67.7242C125.056 70.5768 126.418 72.6622 128.664 74.1821C130.469 75.4035 132.569 75.9265 134.738 75.8959C139.251 75.8319 143.764 75.7111 148.274 75.5423C154.527 75.3083 160.776 74.968 167.037 75.1093C174.906 75.2868 182.723 75.9256 190.378 77.8855C194.454 78.9288 198.392 80.3395 202.033 82.4889C203.631 83.4328 205.156 84.4875 206.414 85.8565C207.154 86.6614 207.845 87.542 208.395 88.4833C209.458 90.3017 209.574 92.2487 208.839 94.2332C208.111 96.2021 206.908 97.8627 205.474 99.368C203.159 101.798 200.366 103.538 197.352 104.954C193.641 106.697 189.758 107.978 185.796 108.976C179.322 110.607 172.82 112.128 166.32 113.651C155.738 116.129 145.144 118.555 134.562 121.035C127.227 122.754 119.858 124.296 112.396 125.354C106.65 126.168 100.873 126.603 95.0676 126.438C90.1222 126.297 85.3211 125.435 80.8013 123.314C78.7218 122.339 76.828 121.099 75.2427 119.428C69.6706 113.558 73.2908 106.452 76.9223 100.724C77.607 99.6441 78.3797 98.6164 79.0068 97.5058C79.4382 96.7419 79.7911 95.9009 79.9977 95.05C80.4228 93.2993 79.7659 91.9803 78.1618 91.1656C76.9393 90.5449 75.6191 90.2814 74.2544 90.2175C71.0378 90.0676 67.8545 90.4272 64.7079 91.0075C58.1397 92.2194 51.5854 93.508 45.0327 94.8014C39.9 95.8143 34.7353 96.0135 29.5365 95.5379C29.0435 95.4928 28.539 95.4202 28.0727 95.2633C23.4253 93.7004 19.2345 91.3893 15.8205 87.7949C12.8111 84.6265 11.1436 80.7998 10.2492 76.5897C9.33018 72.2642 9.39532 67.9224 9.97201 63.5554C10.7615 57.5757 12.5125 51.9177 15.3678 46.5996C17.042 43.4814 19.0062 40.5718 21.5598 38.1045C25.6998 34.1042 29.7431 29.9903 34.0657 26.1958C41.204 19.9298 49.4044 15.3163 58.1209 11.6055C66.8233 7.9009 75.8695 5.38435 85.1967 3.84294C90.359 2.98976 95.5472 2.42937 100.78 2.31581C101.703 2.29567 102.627 2.31288 103.551 2.31288Z" fill="#DBE1E8"/>
</g>
</g>
<path fill-rule="evenodd" clip-rule="evenodd" d="M146.774 132.685C147.142 132.822 147.439 133.156 147.769 133.399C147.744 133.532 147.72 133.664 147.695 133.797C147.142 133.94 146.58 134.233 146.038 134.201C143.833 134.069 142.076 134.932 140.56 136.444C140.458 136.545 140.3 136.593 140.164 136.655C140.122 136.674 140.065 136.658 139.99 136.658C139.289 136.173 139.596 135.596 139.923 135.069C141.033 133.283 144.813 131.959 146.774 132.685ZM147.49 128.618C147.674 128.698 147.88 128.799 147.992 128.952C148.132 129.141 148.291 129.423 148.242 129.613C148.196 129.791 147.893 130.017 147.698 130.022C147.199 130.035 146.697 129.93 146.195 129.885C144.889 129.767 143.566 129.47 142.281 129.585C140.474 129.748 138.848 130.574 137.623 131.947C136.613 133.079 135.749 134.342 134.817 135.544C134.53 135.914 134.488 136.552 133.717 136.5C133.273 135.9 133.465 135.242 133.755 134.678C135.587 131.122 138.226 128.525 142.309 127.768C144.122 127.432 145.835 127.899 147.49 128.618ZM169.032 132.819C170.82 132.929 171.985 133.865 172.055 135.258C171.491 135.733 170.942 135.379 170.515 135.106C168.783 134.002 167.147 134.191 165.504 135.263C165.276 135.411 164.949 135.42 164.496 135.538C164.8 133.655 166.576 132.668 169.032 132.819ZM126.07 129.566C126.118 129.583 126.172 129.587 126.216 129.611C126.741 129.892 127.526 130.077 127.304 130.859C127.087 131.625 126.425 131.252 125.884 131.148C123.286 130.644 120.904 130.92 119.143 133.213C118.864 133.577 118.69 134.027 118.392 134.37C118.195 134.595 117.862 134.699 117.526 134.895C117.109 133.772 117.613 133.008 118.066 132.303C119.608 129.904 123.361 128.65 126.07 129.566ZM173.243 128.963C174.555 129.947 175.827 131.005 176.525 132.542C176.625 132.761 176.476 133.092 176.438 133.398C175.614 133.51 175.239 132.991 174.819 132.572C174.059 131.814 173.364 130.981 172.542 130.296C169.616 127.86 166.163 128.14 163.678 131.016C162.914 131.901 162.295 132.909 161.607 133.859C161.325 134.247 161.207 134.849 160.507 134.715C160.191 133.04 162.233 130.118 164.89 128.432C167.442 126.812 170.608 126.986 173.243 128.963ZM149.068 123.478C149.714 123.713 150.404 124.028 150.338 125.147C149.811 125.077 149.336 125.022 148.864 124.95C147.064 124.675 145.273 124.244 143.464 124.146C138.71 123.889 135.194 126.092 132.663 130.024C132.002 131.05 131.464 132.157 130.798 133.18C130.493 133.65 130.014 134.005 129.614 134.412C129.5 134.354 129.386 134.296 129.272 134.238C129.305 133.816 129.228 133.345 129.389 132.981C131.229 128.819 133.742 125.236 138.089 123.39C141.741 121.839 145.424 122.151 149.068 123.478ZM172.081 121.9C173.24 122.175 174.394 122.766 175.368 123.465C177.827 125.23 179.571 127.635 180.899 130.33C181.173 130.885 181.23 131.546 181.384 132.148C180.527 132.589 180.104 132.229 179.774 131.751C179.308 131.078 178.884 130.377 178.46 129.677C177.416 127.956 176.169 126.405 174.609 125.126C173.181 123.956 171.559 123.259 169.673 123.33C168.6 123.371 167.512 123.34 166.458 123.511C163.698 123.958 161.731 125.674 160.191 127.853C159.044 129.476 158.119 131.255 157.087 132.959C156.787 133.453 156.458 133.929 156.143 134.412C155.978 134.345 155.814 134.279 155.65 134.212C155.72 133.68 155.681 133.103 155.879 132.624C157.305 129.17 159.234 126.031 162.308 123.808C165.232 121.693 168.572 121.07 172.081 121.9ZM123.68 124.829C125.011 125.063 126.283 125.661 127.566 126.138C127.886 126.257 128.202 126.503 128.413 126.776C128.573 126.982 128.693 127.394 128.592 127.586C128.487 127.787 128.067 127.974 127.839 127.922C127.146 127.766 126.472 127.513 125.805 127.259C123.052 126.214 120.254 125.962 117.409 126.801C114.498 127.66 112.358 129.426 111.231 132.352C111.064 132.784 110.88 133.212 110.67 133.624C110.61 133.742 110.429 133.797 110.232 133.93C109.428 133.449 109.643 132.827 109.798 132.229C110.507 129.491 112.276 127.598 114.633 126.287C117.455 124.717 120.531 124.277 123.68 124.829ZM175.443 116.592C180.256 119.252 183.563 123.269 185.522 128.404C185.721 128.924 185.664 129.543 185.727 130.117L185.216 130.339C184.831 129.903 184.372 129.512 184.076 129.022C183.44 127.967 182.874 126.869 182.303 125.777C180.582 122.488 178.001 120.011 174.865 118.158C170.558 115.613 166.195 116.038 162.054 118.542C157.618 121.225 154.823 125.286 153.131 130.15C152.912 130.781 152.739 131.43 152.481 132.043C152.338 132.383 152.064 132.668 151.858 132.965C151.065 132.535 151.331 131.995 151.435 131.519C152.248 127.827 153.956 124.575 156.363 121.698C159.029 118.513 162.224 116.139 166.382 115.257C169.58 114.579 172.618 115.031 175.443 116.592ZM130.853 121.992C131.348 122.251 131.836 122.555 132.248 122.927C132.512 123.165 132.631 123.565 132.811 123.885C132.035 124.449 131.483 124.073 130.952 123.808C127.906 122.294 124.716 121.281 121.33 120.893C118.963 120.622 116.619 120.702 114.363 121.47C110.47 122.796 108.273 125.617 107.544 129.647C107.444 130.203 107.353 130.761 107.224 131.31C107.096 131.851 107.011 132.56 106.268 132.476C105.476 132.386 105.622 131.645 105.676 131.119C105.959 128.415 106.723 125.881 108.466 123.734C110.614 121.089 113.451 119.638 116.769 119.279C121.714 118.746 126.43 119.675 130.853 121.992ZM100.663 111.335C101.422 111.614 102.168 111.983 102.837 112.434C103.302 112.748 103.624 113.273 104.021 113.716C103.317 114.293 102.902 113.841 102.48 113.629C97.8371 111.293 93.0531 111.129 88.2466 112.922C82.9205 114.909 80.106 119.018 79.1199 124.489C78.7663 126.449 78.553 128.435 78.2565 130.405C78.1767 130.934 78.1649 131.52 77.3853 132C77.2934 131.401 77.1431 130.934 77.1628 130.474C77.3117 127.037 77.7566 123.643 78.9777 120.407C81.0385 114.944 85.1685 111.917 90.7178 110.728C94.0637 110.01 97.4147 110.138 100.663 111.335ZM99.9326 129.987C100.073 130.046 100.136 130.289 100.322 130.586C99.958 131.055 99.621 131.53 99.2317 131.956C99.1563 132.038 98.8289 131.997 98.702 131.9C98.1379 131.47 98.4669 130.981 98.7183 130.566C98.9801 130.133 99.3452 129.737 99.9326 129.987ZM102.098 119.027C102.537 119.331 103.091 119.633 102.827 120.652C101.816 120.324 100.863 120.126 100.012 119.718C97.2244 118.382 94.5225 118.717 91.9062 120.093C88.0536 122.12 85.678 125.297 84.7441 129.568C84.5826 130.305 84.73 131.215 83.8015 131.839C83.6647 131.436 83.4925 131.134 83.4666 130.819C83.3076 128.877 83.7299 127.028 84.6308 125.33C86.7489 121.338 89.9228 118.595 94.3697 117.487C97.1714 116.79 99.7493 117.402 102.098 119.027ZM73.9443 128.915C73.2553 129.225 72.7958 129.508 72.297 129.635C71.67 129.794 71.0131 129.861 70.3648 129.902C69.4299 129.959 68.7526 130.324 68.3549 131.225C68.2419 131.481 67.9051 131.637 67.6704 131.839C67.4552 131.541 67.1015 131.265 67.0514 130.941C66.9265 130.136 67.3192 129.479 67.9087 128.944C69.2528 127.722 72.0461 127.604 73.9443 128.915ZM100.804 124.555C101.244 124.582 101.662 124.945 102.091 125.154L102.038 125.693C101.479 125.809 100.925 125.977 100.361 126.029C99.2515 126.131 98.1237 126.083 97.0259 126.249C94.6965 126.6 93.1974 127.978 92.4863 130.23C92.3448 130.678 92.1709 131.115 91.9681 131.678C91.0177 131.066 91.0988 130.371 91.2375 129.669C91.7201 127.229 94.0405 124.948 96.7107 124.548C98.0474 124.348 99.4422 124.473 100.804 124.555ZM70.3286 121.976C71.6199 122.264 72.8695 122.762 74.1134 123.23C74.5438 123.392 74.9002 123.754 75.231 124.182C74.131 124.578 73.0887 124.509 72.0448 124.303C71.1907 124.134 70.3448 123.916 69.4861 123.775C65.1222 123.058 61.1928 125.464 59.7482 129.714C59.6054 130.134 59.4283 130.542 59.2364 131.035C58.2878 130.663 58.3266 130.061 58.3523 129.503C58.4287 127.827 59.0769 126.349 60.2405 125.198C63.0459 122.424 66.3752 121.095 70.3286 121.976ZM74.7582 116.971C75.3237 117.387 75.8235 117.918 76.2608 118.469C76.4623 118.723 76.439 119.154 76.5177 119.505C76.3791 119.573 76.2408 119.641 76.1025 119.71C75.6596 119.388 75.2169 119.066 74.7734 118.746C72.4912 117.094 69.9566 115.988 67.1393 115.894C60.5583 115.674 55.0988 120.041 54.1752 126.449C54.0302 127.455 53.8624 128.462 53.626 129.45C53.5178 129.903 53.2176 130.311 53.0175 130.713C52.1409 130.483 52.0369 129.939 52.0777 129.358C52.4425 124.128 54.2241 119.637 58.7961 116.609C63.6106 113.419 70.1084 113.551 74.7582 116.971ZM190.713 106.373C196.946 107.18 202.139 112.25 203.103 118.497C203.667 122.156 202.638 125.512 200.868 128.671C200.661 129.041 200.289 129.317 199.89 129.748C199.319 128.904 199.545 128.199 199.725 127.553C200.014 126.518 200.418 125.516 200.744 124.49C203.102 117.051 198.881 109.661 191.296 107.993C189.037 107.496 186.845 107.869 184.711 108.714C184.132 108.942 183.518 109.078 182.87 109.271C182.66 108.159 183.346 107.872 183.895 107.572C186.028 106.407 188.338 106.065 190.713 106.373ZM187.288 112.865C194.84 113.284 198.476 120.127 195.421 126.02C194.921 126.986 194.533 128.087 193.348 128.622C192.638 128.056 192.898 127.49 193.075 126.984C193.342 126.218 193.683 125.477 194.003 124.73C196.18 119.643 192.821 114.661 186.956 114.297C186.242 114.253 185.525 114.269 184.811 114.241C184.73 114.238 184.655 114.133 184.44 113.974C184.645 113.732 184.805 113.359 185.053 113.286C185.779 113.074 186.55 112.824 187.288 112.865ZM185.659 118.669C187.34 118.85 188.668 119.62 189.403 121.201C190.104 122.707 189.644 124.103 188.84 125.402C188.65 125.709 188.166 125.835 187.811 126.049C187.292 125.208 187.567 124.583 187.753 123.951C188.458 121.567 187.693 120.366 185.252 120.003C185.001 119.966 184.748 119.92 184.509 119.838C184.379 119.794 184.278 119.667 184.118 119.542C184.337 118.699 184.996 118.598 185.659 118.669ZM121.919 97.9719C124.87 98.6262 127.504 99.9432 129.766 101.94C130.406 102.505 130.922 103.232 131.401 103.947C131.66 104.335 131.962 104.853 131.203 105.551C130.754 105.119 130.316 104.727 129.911 104.304C126.797 101.057 123.036 99.2163 118.498 99.1693C113.679 99.1192 109.805 101.776 108.072 106.299C106.65 110.012 106.409 113.852 106.992 117.766C107.145 118.796 107.491 119.844 106.909 121.063C106.566 120.809 106.214 120.675 106.085 120.426C105.879 120.027 105.759 119.558 105.712 119.107C105.27 114.902 105.344 110.708 106.655 106.66C108.162 102.012 111.185 98.8249 116.132 97.8182C118.055 97.4271 120.004 97.5472 121.919 97.9719ZM144.716 114.538C146.979 114.792 149.116 115.317 151.012 116.608C151.636 117.032 152.224 117.56 152.691 118.153C152.994 118.538 153.049 119.125 153.237 119.691C152.194 120.076 151.693 119.506 151.207 119.026C149.86 117.697 148.249 116.908 146.453 116.396C142.909 115.387 139.836 116.046 137.277 118.821C136.672 119.477 135.999 120.07 135.305 120.741C134.838 119.963 135.133 119.463 135.462 119.018C137.775 115.902 140.673 114.084 144.716 114.538ZM156.355 115.507C156.632 115.906 156.643 116.488 156.776 116.98C155.765 117.396 155.325 116.857 154.889 116.363C154.077 115.444 153.303 114.493 152.483 113.582C148.043 108.648 139.24 109.429 135.584 113.888C134.389 115.345 133.313 116.899 132.181 118.408C131.835 118.868 131.721 119.577 130.559 119.615C130.697 118.999 130.714 118.493 130.918 118.08C133.483 112.883 137.471 109.583 143.376 108.803C149.288 108.022 153.226 110.996 156.355 115.507ZM127.846 106.358C128.128 106.589 128.272 106.987 128.468 107.29C127.907 107.964 127.376 107.766 126.867 107.511C126.139 107.146 125.429 106.745 124.708 106.363C119.913 103.822 114.454 105.843 112.502 110.889C111.683 113.004 111.37 115.2 111.506 117.461C111.541 118.049 111.715 118.667 110.98 119.294C110.752 118.828 110.496 118.47 110.396 118.074C109.328 113.828 111.619 107.795 115.208 105.365C119.168 102.683 124.218 103.382 127.846 106.358ZM160.349 113.77C160.46 114.154 160.488 114.578 160.47 114.98C160.459 115.207 160.274 115.425 160.179 115.624C159.331 115.696 159.048 115.093 158.78 114.563C158.365 113.741 157.991 112.892 157.672 112.028C155.472 106.062 148.378 101.956 140.831 104.641C135.431 106.562 131.676 110.28 129.272 115.444C128.862 116.325 128.537 117.247 128.14 118.135C128.024 118.393 127.794 118.599 127.381 119.133C127.282 118.454 127.13 118.076 127.199 117.745C127.352 116.994 127.548 116.238 127.843 115.533C130.283 109.708 134.375 105.496 140.275 103.284C148.939 100.036 157.714 104.639 160.349 113.77ZM124.912 109.809C125.324 109.914 125.687 110.21 126.056 110.409C125.87 111.209 125.352 111.256 124.847 111.263C123.984 111.274 123.12 111.231 122.256 111.236C118.906 111.256 116.46 113.427 115.995 116.754C115.923 117.272 115.762 117.778 115.594 118.49C114.479 117.752 114.604 116.927 114.689 116.206C115.033 113.308 116.641 111.333 119.252 110.161C121.09 109.335 122.996 109.321 124.912 109.809ZM125.091 114.596C123.904 115.908 122.094 115.902 120.972 117.042C120.393 115.961 120.457 115.663 121.237 114.994C122.318 114.068 123.819 113.85 125.091 114.596ZM174.757 97.8594C178.934 100.115 180.837 104.086 181.56 108.611C181.854 110.453 181.617 112.385 181.585 114.275C181.579 114.676 181.491 115.115 181.304 115.461C181.135 115.773 180.779 115.983 180.506 116.238C180.286 115.925 179.904 115.624 179.878 115.295C179.798 114.276 179.796 113.243 179.869 112.222C180.055 109.6 179.519 107.138 178.47 104.749C176.666 100.64 173.389 98.4758 169.194 97.5475C165.784 96.793 162.403 97.0435 159.183 98.3865C157.798 98.9639 156.569 99.9241 155.273 100.717C154.898 100.947 154.535 101.199 154.138 101.46C153.616 100.756 153.989 100.243 154.371 99.8993C155.274 99.0851 156.163 98.1687 157.227 97.6388C163.084 94.7206 169.008 94.7553 174.757 97.8594ZM173.622 104.98C175.506 107.08 176.296 109.587 176.234 112.381C176.22 113.011 175.972 113.635 175.785 114.469C174.691 113.828 174.752 113.046 174.651 112.366C174.545 111.652 174.593 110.913 174.462 110.205C173.697 106.072 169.983 102.833 165.752 102.58C163.048 102.418 160.482 102.897 158.113 104.294C157.746 104.511 157.334 104.65 156.615 104.972C156.788 104.304 156.78 103.917 156.966 103.708C157.301 103.333 157.72 103.004 158.159 102.759C162.94 100.097 169.661 100.564 173.622 104.98ZM80.0561 110.287C79.3807 110.287 78.7345 110.293 78.0885 110.286C76.5626 110.271 76.0569 110.843 76.2777 112.348C76.3362 112.748 76.4069 113.146 76.452 113.547C76.4619 113.635 76.3869 113.732 76.3507 113.825C75.2122 113.612 74.6583 112.723 74.7604 111.273C74.8662 109.768 76.0575 108.593 77.5506 108.522C78.8676 108.459 79.8359 109.076 80.0561 110.287ZM76.6846 94.9016C79.1396 95.7827 81.1896 97.2522 82.7066 99.4128C83.0795 99.9437 83.4965 100.5 83.1327 101.26C82.289 101.183 81.7849 100.586 81.1963 100.115C80.0045 99.1612 78.8608 98.1181 77.5688 97.3243C73.9629 95.1096 70.5291 96.0129 68.3198 99.6557C66.5313 102.604 66.1229 105.771 66.8786 109.117C67.0927 110.064 67.3237 111.01 67.4888 111.967C67.54 112.264 67.399 112.595 67.3458 112.911C67.2347 112.948 67.1235 112.984 67.0124 113.021C66.6684 112.563 66.2077 112.154 65.9992 111.64C63.9456 106.581 64.4326 101.793 67.8118 97.4677C69.8167 94.9019 72.8858 93.5387 76.6846 94.9016ZM163.768 106.118C165.947 106.236 167.708 107.211 168.629 109.264C169.128 110.377 169.6 111.638 168.436 113.021C168.083 112.566 167.776 112.262 167.586 111.897C167.4 111.542 167.335 111.123 167.214 110.733C166.47 108.32 164.484 107.157 162.019 107.689C161.674 107.764 161.33 107.855 160.981 107.901C160.844 107.919 160.694 107.832 160.314 107.729C161.164 106.226 162.459 106.047 163.768 106.118ZM165.783 112.358C164.705 112.509 162.935 111.788 162.494 111.017C162.249 110.59 162.527 110.188 163.106 110.134C164.26 110.024 165.578 111.119 165.783 112.358ZM75.8339 101.62C77.2864 101.735 78.6023 102.297 79.7741 103.141C80.1705 103.427 80.396 103.955 80.6994 104.373C80.6248 104.483 80.5501 104.593 80.4757 104.703C79.96 104.592 79.4305 104.525 78.9316 104.362C78.063 104.078 77.228 103.682 76.3527 103.427C74.0556 102.757 71.9601 104.045 71.6656 106.461C71.507 107.763 71.7378 109.115 71.8122 110.444C71.8481 111.08 71.9298 111.714 71.9924 112.368C71.1274 112.456 70.9382 111.928 70.7417 111.476C69.8944 109.523 69.6805 107.483 70.2153 105.427C70.847 102.998 73.2457 101.413 75.8339 101.62ZM102.577 93.0483C105.227 94.0297 107.3 95.8197 108.989 98.062C109.396 98.6029 109.875 99.1837 109.534 100.135C108.474 99.9414 107.865 99.3381 107.233 98.7539C106.224 97.8205 105.261 96.82 104.163 96.0047C100.204 93.0655 94.8935 93.1858 91.3277 96.2571C89.8083 97.5661 88.5845 99.1244 87.7014 100.944C86.664 103.083 86.0749 105.335 85.8933 107.706C85.8447 108.343 85.6989 108.974 85.5921 109.643C84.5529 109.518 84.3708 108.877 84.4019 108.2C84.4598 106.929 84.4973 105.64 84.7395 104.397C85.4676 100.666 87.2589 97.4916 90.1476 95.0345C93.8631 91.8746 98.0818 91.3843 102.577 93.0483ZM100.247 99.2289C102.016 99.7322 103.355 100.938 104.549 102.29C104.798 102.571 104.907 102.978 105.147 103.462C104.157 103.798 103.617 103.352 103.074 103.016C102.295 102.532 101.566 101.967 100.784 101.489C98.6936 100.209 96.6011 100.35 94.6839 101.876C93.5844 102.751 92.7591 103.847 92.2246 105.145C91.9733 105.756 91.8059 106.402 91.599 107.031C91.4358 107.528 91.4984 108.348 90.7104 108.171C90.0297 108.019 90.2001 107.265 90.2282 106.726C90.4268 102.885 93.5985 99.3629 97.3978 98.9015C98.3243 98.7889 99.3356 98.9693 100.247 99.2289ZM102.091 105.426C99.8107 106.017 97.7939 106.54 95.7479 107.07C95.3365 106.668 95.49 106.241 95.7809 105.829C96.8393 104.327 100.291 103.962 102.091 105.426ZM203.696 92.2037C204.014 94.0257 203.962 95.8708 203.542 97.6903C202.882 100.553 201.829 103.255 200.241 105.732L200.2 105.797C199.81 106.41 199.407 107.076 198.42 106.871C198.138 106.103 198.565 105.493 198.843 104.858C199.745 102.8 200.734 100.776 201.531 98.6786C202.498 96.1333 202.652 93.488 201.917 90.8407C200.398 85.3659 194.558 81.6926 188.974 82.7651C187.59 83.0307 186.266 83.6126 184.915 84.0512C184.55 84.1698 184.187 84.2962 183.64 84.4804C183.575 83.3563 184.204 82.9809 184.774 82.7505C185.995 82.2576 187.245 81.7467 188.531 81.5208C195.468 80.3018 202.482 85.2552 203.696 92.2037ZM194.341 90.33C197.276 92.2305 198.518 95.4482 197.707 98.8482C197.32 100.474 196.463 101.86 195.508 103.191C195.268 103.526 194.864 103.743 194.535 104.014C194.421 103.949 194.306 103.884 194.192 103.819C194.302 103.313 194.354 102.784 194.536 102.304C194.787 101.638 195.114 100.997 195.447 100.365C197.524 96.4302 196.199 91.586 190.462 90.1687C189.125 89.8386 187.751 89.6638 186.354 89.9676C185.898 90.0665 185.396 89.9518 184.601 89.9235C185.339 88.8681 186.123 88.7338 186.858 88.6538C189.534 88.3621 192.064 88.8555 194.341 90.33ZM189.221 96.1549C190.447 97.2714 190.729 98.7684 189.974 100.443C189.728 100.991 189.424 101.54 189.027 101.985C188.806 102.235 188.338 102.273 187.981 102.406C187.889 102.047 187.671 101.666 187.732 101.335C187.831 100.8 188.116 100.299 188.317 99.7811C189.006 97.9993 188.225 96.7674 186.295 96.6528C185.439 96.6017 184.576 96.6441 183.749 96.6441C183.419 95.9157 183.87 95.6379 184.336 95.3958C185.761 94.657 187.958 95.0054 189.221 96.1549ZM133.684 90.3105C137.126 90.8986 139.58 94.2411 139.559 98.1556C139.555 98.9504 139.698 99.8159 138.874 100.797C138.591 100.27 138.343 99.9578 138.251 99.6035C138.097 99.0062 138.044 98.3822 137.943 97.7701C137.867 97.312 137.816 96.8459 137.697 96.3989C136.614 92.3288 133.829 91.0043 130.001 91.8567C128.155 92.2675 126.685 93.3882 125.362 94.7175C124.979 95.1026 124.581 95.4732 124.196 95.8444C123.618 95.3889 123.788 94.9977 124.018 94.6653C126.438 91.1668 130.225 89.7198 133.684 90.3105ZM132.516 96.6675C133.9 97.1446 134.924 98.5178 134.901 100.315C134.224 99.7889 133.702 99.4959 133.326 99.07C132.449 98.0769 131.446 97.5902 130.126 97.914C129.997 97.946 129.841 97.8654 129.708 97.8391C129.428 97.3369 129.709 97.0399 130.063 96.8239C130.846 96.3454 131.669 96.3754 132.516 96.6675ZM145.078 96.4679C145.248 97.212 145.328 97.986 145.355 98.7496C145.372 99.2141 145.208 99.6853 145.125 100.154C144.201 100.085 144.041 99.5104 143.901 98.9782C143.692 98.1884 143.543 97.3822 143.38 96.5808C142.209 90.8537 136.914 86.3775 131.4 86.7076C125.984 87.0316 121.932 89.548 119.779 94.7568C119.59 95.2134 119.567 96.1177 118.805 95.8516C118.015 95.5757 118.424 94.785 118.592 94.2384C119.339 91.8027 120.819 89.837 122.85 88.39C132.431 81.5655 142.953 87.1236 145.078 96.4679ZM169.763 74.714C175.1 75.4228 179.343 77.9748 181.537 83.0995C183.68 88.1064 182.644 92.8085 179.609 97.1669C179.436 97.4149 179.199 97.6225 178.968 97.8214C178.864 97.9107 178.702 97.9324 178.363 98.0631C178.14 96.9385 178.637 96.1361 179.038 95.3343C179.911 93.585 180.628 91.7971 180.85 89.8312C181.481 84.2521 178.746 79.4285 173.616 77.2223C169.021 75.2459 164.668 75.6739 160.621 78.6938C160.294 78.9377 159.956 79.1662 159.612 79.386C159.54 79.4313 159.424 79.4048 159.195 79.4209C159.214 79.1406 159.134 78.7994 159.268 78.6312C159.773 77.9999 160.278 77.3319 160.91 76.8447C163.532 74.8259 166.611 74.2954 169.763 74.714ZM148.603 90.6711C151.974 90.8792 153.668 94.2496 153.363 96.8301C153.342 97.0134 153.191 97.1819 153.067 97.4198C152.14 97.3215 151.959 96.7087 151.742 96.1519C151.502 95.538 151.345 94.8896 151.072 94.2923C150.269 92.54 148.838 91.8856 146.933 92.3333C146.506 92.4335 146.067 92.4846 145.634 92.5582C145.305 91.732 145.723 91.2816 146.237 91.1061C146.99 90.8486 147.822 90.6231 148.603 90.6711ZM153.149 85.8108C156.679 87.7516 158.736 92.1319 157.255 94.8464C156.397 93.975 156.172 92.9808 155.884 92.0233C155.438 90.5429 154.81 89.1832 153.631 88.1267C151.742 86.4348 149.599 85.847 147.191 86.6875C146.055 87.0836 144.99 87.6823 143.895 88.1951C143.441 88.4078 142.982 88.7545 142.622 88.0669C144.23 85.0554 149.662 83.8937 153.149 85.8108ZM175.48 86.4057C176.134 88.8136 175.542 91.0503 174.522 93.2194C174.417 93.4422 174.231 93.6343 174.054 93.8121C173.954 93.9125 173.796 93.9541 173.626 94.0422C172.944 93.7218 173.083 93.1569 173.22 92.6205C173.433 91.7814 173.704 90.9563 173.906 90.1144C174.218 88.8072 174.296 87.5025 173.828 86.1978C172.6 82.7716 169.33 81.2143 165.684 82.3378C164.943 82.5662 164.197 82.7814 163.392 83.0211C163.249 82.0599 163.833 81.845 164.29 81.5938C167.89 79.6123 173.949 80.7625 175.48 86.4057ZM164.487 91.3686C164.521 92.5937 164.489 92.6981 163.8 93.7205C162.984 93.3665 162.853 92.719 162.741 92.0525C162.538 90.839 162.404 89.6067 162.104 88.4172C160.732 82.9676 156.188 79.2259 150.619 79.0127C148.342 78.9254 146.184 79.5531 144.161 80.6165C142.198 81.6483 140.497 83.0231 138.928 84.587C138.509 85.0057 138.062 85.9527 137.372 85.2585C136.791 84.6746 137.507 84.0107 137.929 83.5549C140.751 80.5133 144.106 78.4438 148.245 77.6889C156.394 76.2022 164.244 82.6832 164.487 91.3686ZM115.83 91.2224C116.214 91.3307 116.537 91.6637 116.888 91.8933C116.869 92.0264 116.849 92.1592 116.83 92.2923C116.221 92.4329 115.618 92.6291 115.001 92.697C114.451 92.7573 113.885 92.6554 113.326 92.6619L113.112 92.6644C112.015 92.6779 110.93 92.7182 109.985 93.4725C109.781 93.6353 109.361 93.5179 109.041 93.5299C109.051 93.1943 108.928 92.7376 109.096 92.5474C109.525 92.0627 110.024 91.5443 110.6 91.3127C112.309 90.6258 114.085 90.7303 115.83 91.2224ZM169.838 86.4963C170.828 87.6404 171.098 90.5635 170.306 91.8642C170.193 92.0501 169.926 92.1401 169.732 92.273C169.05 91.8216 169.173 91.1729 169.137 90.5865C169.093 89.8766 169.133 89.1564 169.029 88.4567C168.855 87.2854 168.434 86.907 167.283 86.6805C166.873 86.5997 166.466 86.4974 165.783 86.3424C167.29 85.1324 168.815 85.3138 169.838 86.4963ZM121.694 79.1946C123.115 80.1692 124.194 81.4531 125.047 82.9351C125.498 83.7175 125.491 83.803 125.246 84.7968C124.54 84.9453 124.122 84.4831 123.723 84.0251C123.287 83.5237 122.892 82.9864 122.466 82.4754C119.573 79.0047 115.717 77.9279 111.455 78.4217C104.85 79.187 100.824 83.362 98.1521 89.1426C97.8002 89.9041 97.7239 90.8364 96.5403 91.6296C96.5217 90.8418 96.3841 90.3311 96.5228 89.9129C96.9403 88.6553 97.3238 87.353 97.9721 86.2119C100.758 81.3095 104.702 77.8396 110.419 76.9194C114.418 76.2758 118.257 76.8359 121.694 79.1946ZM115.345 84.9908C116.144 85.3212 116.954 85.6353 117.72 86.0317C118.179 86.2692 118.562 86.6513 118.979 86.9683C118.938 87.0872 118.898 87.2062 118.857 87.3249C118.491 87.3482 118.104 87.4571 117.761 87.379C116.721 87.1418 115.664 86.9173 114.674 86.5357C111.107 85.1613 106.935 86.0407 104.37 89.6151C104.236 89.8016 104.008 89.9203 103.686 90.1821C103.093 89.177 103.462 88.5042 103.901 87.8835C104.901 86.4691 106.285 85.5185 107.89 84.9256C110.37 84.0089 112.871 83.9686 115.345 84.9908Z" fill="#A873FA"/>
<path fill-rule="evenodd" clip-rule="evenodd" d="M175.509 134.731C175.828 134.696 176.12 134.681 176.406 134.63C181.553 133.711 186.707 132.844 191.914 132.333C192.955 132.231 193.988 132.041 195.028 131.933C188.556 131.813 182.089 131.693 175.509 131.572V134.731ZM167.928 130.71C179.06 130.922 190.057 131.132 201.055 131.342C193.56 126.847 186.065 122.353 178.52 117.828C177.371 119.219 176.252 120.573 175.091 121.978C175.476 122.144 175.741 122.263 176.01 122.372C178.5 123.379 180.991 124.384 183.482 125.39C183.698 125.478 183.938 125.537 184.119 125.673C184.121 125.674 184.122 125.675 184.124 125.676C184.355 125.854 184.279 126.219 184.012 126.338C183.977 126.354 183.94 126.369 183.904 126.382C183.83 126.41 183.731 126.37 183.645 126.359C180.167 125.929 176.688 125.505 173.212 125.059C172.911 125.02 172.6 125.012 172.6 125.012C172.6 125.012 171.941 125.926 171.672 126.271C171.672 126.271 170.291 127.887 168.445 130.031C168.244 130.266 168.194 130.297 167.928 130.71ZM174.678 131.587C172.274 131.413 169.848 131.585 167.305 131.366C167 131.34 166.821 131.016 166.956 130.742C167.013 130.627 167.069 130.528 167.14 130.441C168.71 128.515 170.302 126.607 171.865 124.677C172.202 124.261 172.593 124.121 173.093 124.186C173.463 124.235 173.832 124.288 174.221 124.342C174.221 123.668 174.241 123.062 174.214 122.459C174.196 122.051 174.326 121.74 174.588 121.431C175.666 120.16 176.721 118.87 177.788 117.59C178.359 116.904 178.366 116.9 179.152 117.371C183.639 120.058 188.125 122.748 192.61 125.437C195.493 127.165 198.376 128.891 201.254 130.625C201.613 130.841 202.106 130.987 201.941 131.586C201.774 132.19 201.28 132.013 200.86 132.055C199.174 132.224 197.49 132.406 195.806 132.595C193.426 132.864 191.04 133.092 188.669 133.431C185.027 133.952 181.396 134.552 177.76 135.12C177.096 135.223 176.435 135.351 175.768 135.428C175.042 135.513 174.683 135.169 174.679 134.428C174.674 133.5 174.678 132.572 174.678 131.587Z" fill="#005E8B"/>
<path fill-rule="evenodd" clip-rule="evenodd" d="M175.51 131.571C182.09 131.693 188.557 131.812 195.029 131.932C193.989 132.04 192.957 132.23 191.915 132.332C186.708 132.843 181.554 133.71 176.408 134.629C176.121 134.68 175.829 134.695 175.51 134.73V131.571ZM178.521 117.828C186.066 122.352 193.561 126.846 201.056 131.341C190.058 131.131 179.061 130.921 167.93 130.709C168.195 130.296 168.245 130.265 168.447 130.031C170.292 127.886 171.673 126.27 171.673 126.27C171.931 125.939 172.547 125.086 172.598 125.016L172.601 125.011C172.601 125.011 172.912 125.02 173.213 125.058C176.689 125.504 180.168 125.928 183.646 126.359C183.733 126.369 183.831 126.409 183.905 126.381C183.941 126.368 183.978 126.353 184.013 126.337C184.28 126.219 184.356 125.853 184.125 125.675L184.121 125.672C183.939 125.536 183.699 125.477 183.483 125.389C180.992 124.383 178.502 123.378 176.011 122.371C175.742 122.262 175.477 122.143 175.092 121.977C176.253 120.572 177.372 119.218 178.521 117.828Z" fill="white"/>
<path fill-rule="evenodd" clip-rule="evenodd" d="M199.055 79.2839C199.088 79.9435 199.077 80.609 199.032 81.2683C198.781 84.9693 198.502 88.6686 198.259 92.37C198.15 94.0311 198.113 95.6969 198.021 97.3595C197.984 98.0289 197.912 98.6988 197.813 99.3621C197.687 100.204 197.436 100.402 196.608 100.441C191.881 100.667 187.156 100.908 182.429 101.115C180.795 101.186 179.157 101.155 177.523 101.208C175.148 101.285 172.775 101.402 170.401 101.494C170.227 101.501 170.052 101.502 169.878 101.489C169.057 101.432 168.804 101.208 168.849 100.445C168.918 99.2792 169.012 98.1143 169.118 96.951C169.535 92.3816 170.227 87.8491 170.91 83.3145C170.991 82.9222 171.112 82.7589 171.128 80.9745C171.132 80.5595 171.402 80.187 171.816 80.1566C171.818 80.1564 171.821 80.1563 171.823 80.1559C174.707 79.9575 177.589 79.7122 180.476 79.5885C184.649 79.4095 188.826 79.3204 193.001 79.1924C194.49 79.1465 195.98 79.1084 197.468 79.0429C197.751 79.0306 198.04 78.9255 198.305 78.8165C198.693 78.6571 199.034 78.8654 199.055 79.2839Z" fill="white"/>
<path fill-rule="evenodd" clip-rule="evenodd" d="M172.433 80.905C176.302 84.7403 180.496 88.1277 184.633 91.5857C188.825 87.6466 192.955 83.7645 197.215 79.7614C188.856 80.0554 180.652 80.0451 172.433 80.905ZM198.387 79.8873C198.13 80.0633 198.028 80.1154 197.948 80.1905C194.102 83.7832 190.258 87.3764 186.418 90.9744C186.099 91.2726 185.833 91.6277 185.505 91.9137C184.756 92.5675 184.706 92.5614 183.962 91.9537C183.034 91.1954 182.095 90.4488 181.188 89.6652C178.269 87.1418 175.362 84.6039 172.451 82.0714C172.283 81.9258 172.116 81.7793 171.888 81.5797C170.951 87.9836 169.89 94.2793 169.565 100.765C169.958 100.765 170.243 100.775 170.527 100.764C172.6 100.685 174.673 100.6 176.746 100.522C181.448 100.344 186.149 100.175 190.851 99.9895C192.69 99.917 194.529 99.8107 196.368 99.718C197.023 99.685 197.049 99.6699 197.138 99.0293C197.216 98.4799 197.287 97.9279 197.323 97.3744C197.586 93.3508 197.845 89.3266 198.094 85.3018C198.202 83.5575 198.283 81.8116 198.387 79.8873ZM171.128 80.9745C171.132 80.5595 171.402 80.187 171.816 80.1566C171.818 80.1564 171.821 80.1563 171.823 80.1559C174.707 79.9575 177.589 79.7122 180.476 79.5885C184.649 79.4095 188.826 79.3204 193.001 79.1924C194.49 79.1465 195.98 79.1084 197.468 79.0429C197.751 79.0306 198.04 78.9255 198.305 78.8165C198.693 78.6571 199.034 78.8654 199.055 79.2839C199.088 79.9435 199.077 80.609 199.032 81.2683C198.781 84.9693 198.502 88.6686 198.259 92.37C198.15 94.0311 198.113 95.6969 198.021 97.3595C197.984 98.0289 197.912 98.6988 197.813 99.3621C197.687 100.204 197.436 100.402 196.608 100.441C191.881 100.667 187.156 100.908 182.429 101.115C180.795 101.186 179.157 101.155 177.523 101.208C175.148 101.285 172.775 101.402 170.401 101.494C170.227 101.501 170.052 101.502 169.878 101.489C169.057 101.432 168.804 101.208 168.849 100.445C168.918 99.2792 169.012 98.1143 169.118 96.951C169.535 92.3816 170.227 87.8491 170.91 83.3145C170.991 82.9222 171.112 82.7589 171.128 80.9745Z" fill="#1D242F"/>
<path fill-rule="evenodd" clip-rule="evenodd" d="M112.122 68.2239C118.26 68.2795 124.07 69.5847 129.513 72.4383C132.669 74.093 135.429 76.2876 138.064 78.6648C140.407 80.7781 142.74 82.9119 145.195 84.8893C148.67 87.6875 152.584 89.6798 156.95 90.7278C158.132 91.0115 159.334 91.2121 160.542 91.3454C161.154 91.4132 161.768 91.4637 162.382 91.4994C162.934 91.5319 163.58 91.4571 164.101 91.6623C164.295 91.7384 164.337 91.9245 164.209 92.0896C164.093 92.2376 163.869 92.2542 163.697 92.2494C162.996 92.2305 162.294 92.2138 161.595 92.1656C154.785 91.6949 148.911 88.9633 143.72 84.6618C141.674 82.9661 139.719 81.1568 137.758 79.3608C134.988 76.8236 132.058 74.5165 128.688 72.8172C124.677 70.7952 120.43 69.6043 115.957 69.2053C108.219 68.515 100.823 69.7764 93.7926 73.1029C93.2134 73.3771 92.663 73.7128 92.1046 74.0293C91.889 74.1514 91.6335 74.2831 91.5091 74.0102C91.4483 73.8767 91.5826 73.5528 91.726 73.4479C92.124 73.1566 92.5591 72.9068 93.0038 72.6903C97.2113 70.6432 101.615 69.2275 106.276 68.7001C108.217 68.4804 110.173 68.3791 112.122 68.2239Z" fill="#1D242F"/>
<path fill-rule="evenodd" clip-rule="evenodd" d="M64.5769 30.7821C66.4754 37.501 68.325 44.0472 70.198 50.676C70.2887 50.9972 70.1285 51.3367 69.8221 51.4685C69.6737 51.5325 69.522 51.5958 69.3685 51.655C66.2906 52.8427 63.1974 53.9918 60.1363 55.2216C57.2649 56.3753 54.4302 57.6205 51.5718 58.8073C51.0075 59.0417 50.4116 59.202 49.8255 59.381C49.4071 59.5087 49.0808 59.3871 48.8875 58.9725C48.6282 58.4166 48.3202 57.8794 48.11 57.3059C46.4202 52.7 44.7473 48.0876 43.0746 43.4753C42.9791 43.2118 42.8063 42.8377 42.7266 42.532C42.8755 42.532 43.0865 42.6036 43.1566 42.6291C46.3221 43.7868 49.6254 44.4209 52.8923 45.1914C53.972 45.446 55.054 45.6929 56.1401 45.9181C56.9229 46.0805 57.0736 46.0024 57.4674 45.286C57.7628 44.7486 58.0362 44.1986 58.3044 43.6467C60.219 39.7048 62.1294 35.7605 64.0427 31.8178C64.181 31.5331 64.3326 31.2548 64.5769 30.7821ZM63.8798 30.4543C61.4769 35.4257 59.1148 40.3124 56.6791 45.3516C52.0872 44.186 47.5055 43.4517 43.0944 41.8367C46.7829 38.6923 60.507 31.1556 63.8798 30.4543Z" fill="white"/>
<path fill-rule="evenodd" clip-rule="evenodd" d="M56.6791 45.3522C59.1148 40.313 61.4769 35.4262 63.8798 30.4549C60.5071 31.1561 46.7829 38.6928 43.0944 41.8372C47.5056 43.4522 52.0872 44.1866 56.6791 45.3522ZM64.5769 30.7827C64.3326 31.2554 64.1811 31.5336 64.0428 31.8183C62.1294 35.7611 60.219 39.7053 58.3044 43.6473C58.0363 44.1991 57.7628 44.7492 57.4674 45.2865C57.0737 46.0029 56.923 46.0811 56.1402 45.9186C55.054 45.6935 53.9721 45.4466 52.8924 45.192C49.6254 44.4214 46.3221 43.7874 43.1567 42.6297C43.0866 42.6041 42.8755 42.5325 42.7266 42.5325C42.8064 42.8383 42.9791 43.2124 43.0747 43.4758C44.7474 48.0882 46.4202 52.7005 48.11 57.3064C48.3202 57.88 48.6282 58.4172 48.8875 58.973C49.0808 59.3877 49.4072 59.5093 49.8255 59.3816C50.4116 59.2026 51.0075 59.0422 51.5719 58.8079C54.4303 57.621 57.2649 56.3758 60.1363 55.2221C63.1974 53.9924 66.2906 52.8432 69.3686 51.6556C69.522 51.5964 69.6737 51.533 69.8221 51.469C70.1285 51.3373 70.2887 50.9977 70.198 50.6765C68.3251 44.0478 66.4754 37.5015 64.5769 30.7827ZM41.9908 42.5013C41.8561 42.0841 42.0033 41.6281 42.3539 41.3647C42.3753 41.3486 42.3969 41.333 42.4186 41.3176C48.2588 37.197 54.4554 33.699 60.9564 30.7373C61.7519 30.3748 62.5754 30.0686 63.4004 29.7771C64.6621 29.3314 64.9343 29.4696 65.3016 30.7312C65.8974 32.7771 66.4807 34.8269 67.0548 36.8789C68.0457 40.421 69.0184 43.9683 70.0155 47.5087C70.2604 48.379 70.5742 49.2298 70.8478 50.0924C70.9448 50.3975 71.0344 50.7074 71.0955 51.0212C71.1783 51.4476 71.0206 51.7625 70.6009 51.9277C70.2207 52.0773 69.8482 52.2476 69.4633 52.3832C64.504 54.1294 59.6644 56.17 54.8493 58.2744C53.5402 58.8463 52.1882 59.3214 50.8481 59.8194C50.4682 59.9604 50.0642 60.0484 49.664 60.1205C49.0805 60.2258 48.6245 60.0035 48.3532 59.4737C48.0341 58.8505 47.6854 58.2345 47.4451 57.58C45.7346 52.9218 44.0468 48.2551 42.3565 43.5894C42.229 43.2375 42.1133 42.8809 41.9908 42.5013Z" fill="#1D242F"/>
<path fill-rule="evenodd" clip-rule="evenodd" d="M24.6249 67.9261C22.4379 67.8464 20.3153 67.436 18.1914 67.0357C16.2331 66.6665 14.2821 66.2892 12.2575 66.3963C9.43701 66.5454 6.79026 67.7966 4.81501 69.8154C2.84861 71.8249 1.45334 74.1786 0.828166 76.9746C0.751929 77.3156 0.73295 77.6717 0.630496 78.0032C0.62165 78.0318 0.605084 78.0579 0.583049 78.0823C0.428645 78.2554 0.129647 78.2141 0.0271937 78.0059C0.0127182 77.9763 0.00355049 77.9466 0.00242462 77.9165C-0.00963822 77.5993 0.0236552 77.2717 0.0945847 76.9613C0.968417 73.1272 3.01074 70.0337 6.16316 67.7171C8.33752 66.1194 10.8617 65.5055 13.5342 65.6875C15.1308 65.7962 16.7212 66.0629 18.3008 66.3375C20.6035 66.7376 22.8948 67.2246 25.2501 67.1059C30.0699 66.8636 34.2739 65.237 37.4064 61.4263C38.6458 59.9184 39.7049 58.262 40.8417 56.6701C41.0452 56.385 41.2203 56.0797 41.4217 55.7928C41.5933 55.5483 41.7205 55.1113 42.1252 55.3725C42.4747 55.5983 42.1926 55.9134 42.0405 56.1317C40.7053 58.0484 39.4313 60.014 37.9918 61.8498C35.5392 64.9777 32.185 66.6717 28.3533 67.4575C27.13 67.7083 25.8689 67.7752 24.6249 67.9261Z" fill="#1D242F"/>
<path fill-rule="evenodd" clip-rule="evenodd" d="M89.0364 14.0226C87.0092 12.0837 84.9889 10.1373 82.9448 8.21624C82.7899 8.07052 82.4695 8.01664 82.2418 8.04543C80.0697 8.31886 77.9011 8.61898 75.7317 8.91251C74.8354 9.03378 73.9413 9.17596 73.042 9.26539C73.0214 9.26748 73.0005 9.26732 72.9796 9.26539C72.6291 9.23386 72.476 8.76679 72.7421 8.53663C72.7569 8.52376 72.7725 8.51218 72.789 8.50221C73.3367 8.16944 73.9138 7.88411 74.4857 7.59251C76.1478 6.74554 77.8128 5.9042 79.5984 4.999C78.0339 3.58298 76.5299 2.22181 75.0276 0.86193C68.4213 5.321 62.2234 10.1542 55.9459 15.0459C67.0762 14.7017 78.0557 14.3622 89.0364 14.0226ZM55.0853 16.006C54.5772 16.0132 54.3403 15.371 54.7417 15.0597C54.7448 15.0573 54.7478 15.0551 54.7509 15.0527C55.5385 14.4469 56.3197 13.833 57.104 13.2228C62.8246 8.77113 68.5887 4.37817 74.5652 0.271173C74.6829 0.190432 74.8017 0.111461 74.9668 0C75.2765 0.233215 75.5939 0.43764 75.8713 0.686617C77.3073 1.97493 78.7188 3.29058 80.1708 4.56007C80.5943 4.93032 80.6447 5.32229 80.5416 5.8093C80.4277 6.3473 80.3495 6.98631 80.2323 7.58238C81.2946 7.51434 81.5989 7.43859 82.2436 7.28145C82.6325 7.18656 82.9572 7.20103 83.2821 7.51531C85.5932 9.75047 87.9223 11.9673 90.2431 14.1928L90.2449 14.1944C90.39 14.331 90.3231 14.5771 90.1277 14.6165C89.811 14.6805 89.3634 14.7096 89.0478 14.7199C84.4916 14.8688 79.9349 15.0026 75.3782 15.1397C71.6104 15.2529 67.842 15.3515 64.0747 15.4824C61.7687 15.5625 59.4641 15.6835 57.1596 15.8036C56.5481 15.8355 55.9408 15.9411 55.3299 15.9942C55.2484 16.0013 55.1667 16.0047 55.0853 16.006Z" fill="#005E8B"/>
<path fill-rule="evenodd" clip-rule="evenodd" d="M89.0377 14.0229C87.0105 12.084 84.9902 10.1375 82.9462 8.21649C82.7913 8.07077 82.4709 8.01689 82.2431 8.04568C80.071 8.31911 77.9024 8.61923 75.7331 8.91276C74.8367 9.03403 73.9426 9.17621 73.0434 9.26564C73.0228 9.26773 73.0019 9.26757 72.981 9.26564C72.6305 9.23411 72.4774 8.76704 72.7434 8.53688C72.7582 8.52401 72.7738 8.51243 72.7904 8.50246C73.338 8.16969 73.9151 7.88436 74.487 7.59276C76.1491 6.74579 77.8141 5.90445 79.5998 4.99925C78.0353 3.58324 76.5313 2.22207 75.0289 0.862183C68.4227 5.32125 62.2248 10.1544 55.9473 15.0462C67.0776 14.702 78.057 14.3624 89.0377 14.0229Z" fill="white"/>
<path fill-rule="evenodd" clip-rule="evenodd" d="M36.3576 114.964C36.412 114.598 36.4975 114.237 36.549 113.871C36.8501 111.731 37.1836 109.594 37.4275 107.447C37.5209 106.625 37.8847 106.141 38.5859 105.753C40.5011 104.691 42.4076 103.611 44.2775 102.472C46.8696 100.894 49.4399 99.278 51.9894 97.631C52.9718 96.9965 53.8358 96.1922 54.5096 95.2189C56.1011 92.9193 55.8932 90.0761 52.4748 88.8592C51.2176 88.4117 49.9077 88.3219 48.5853 88.3836C45.7662 88.5149 43.1371 89.3897 40.5708 90.4776C37.0879 91.954 33.8664 93.9096 30.7249 95.9937C28.3653 97.5589 26.0479 99.1881 23.7241 100.807C22.1817 101.881 21.281 103.36 21.0102 105.229C20.6674 107.595 21.7842 109.532 24.0397 110.338C24.608 110.541 25.2315 110.646 25.8358 110.678C26.9234 110.736 27.9913 110.546 29.0216 110.182C29.848 109.891 30.676 109.602 31.4919 109.283C31.892 109.126 32.1537 109.174 32.396 109.524C32.6152 109.841 32.9256 110.323 33.152 110.634C34.2069 112.087 35.287 113.522 36.3576 114.964ZM31.7911 109.947C30.9564 110.25 30.1932 110.539 29.4222 110.804C27.9391 111.315 26.4223 111.569 24.8549 111.309C22.3396 110.894 20.4817 109.098 20.289 106.68C20.1094 104.425 20.6804 102.331 22.5662 100.899C27.6174 97.0656 32.8167 93.4486 38.5222 90.6282C40.9398 89.4331 43.4538 88.4907 46.1093 87.9694C48.0474 87.5891 49.9924 87.4966 51.9344 87.9492C53.0037 88.1982 53.984 88.6373 54.8008 89.3901C55.8367 90.3451 56.2942 91.5182 56.1446 92.9317C56.0068 94.2358 55.48 95.3811 54.5634 96.2761C53.6076 97.2095 52.5857 98.1015 51.4865 98.8566C47.5122 101.587 43.2798 103.896 39.0923 106.275C38.5028 106.61 38.1989 106.977 38.1155 107.661C37.826 110.038 37.4807 112.408 37.1427 114.779C37.0836 115.193 37.1639 115.753 36.635 115.886C36.1603 116.005 35.9431 115.517 35.7065 115.206C34.5578 113.696 33.4286 112.17 32.294 110.649C32.1383 110.44 31.9903 110.226 31.7911 109.947Z" fill="#BF335D"/>
<path fill-rule="evenodd" clip-rule="evenodd" d="M36.3595 114.964C36.4139 114.599 36.4994 114.238 36.5509 113.872C36.852 111.731 37.1855 109.594 37.4294 107.447C37.5228 106.625 37.8866 106.142 38.5878 105.753C40.503 104.692 42.4095 103.611 44.2794 102.473C46.8716 100.894 49.4418 99.2784 51.9913 97.6314C52.9737 96.9969 53.8377 96.1926 54.5115 95.2193C56.103 92.9197 55.8951 90.0765 52.4767 88.8596C51.2195 88.4121 49.9096 88.3223 48.5872 88.384C45.7681 88.5153 43.139 89.3901 40.5727 90.478C37.0898 91.9544 33.8683 93.91 30.7268 95.9941C28.3672 97.5593 26.0498 99.1885 23.7261 100.807C22.1836 101.881 21.2829 103.361 21.0121 105.23C20.6694 107.595 21.7861 109.533 24.0417 110.338C24.6099 110.541 25.2334 110.646 25.8377 110.678C26.9253 110.736 27.9932 110.546 29.0235 110.183C29.8499 109.891 30.6779 109.602 31.4938 109.283C31.8939 109.127 32.1556 109.175 32.3979 109.525C32.6171 109.841 32.9276 110.323 33.154 110.635C34.2088 112.088 35.2889 113.522 36.3595 114.964Z" fill="white"/>
<path fill-rule="evenodd" clip-rule="evenodd" d="M60.2006 93.9737C60.202 93.9745 60.2032 93.9755 60.2043 93.9766C61.173 94.7742 62.1327 95.5825 63.0878 96.3967C63.1928 96.4862 63.2807 96.6227 63.3191 96.7542C63.3457 96.8454 63.3046 96.9964 63.237 97.0636C63.1722 97.128 63.0348 97.1298 62.928 97.1365C62.8782 97.1398 62.8175 97.0983 62.7743 97.062C61.7464 96.1983 60.7199 95.3332 59.6955 94.4656C59.6302 94.4101 59.5335 94.3275 59.539 94.2653C59.5393 94.2637 59.5394 94.2622 59.5396 94.2605C59.5698 93.9468 59.955 93.7762 60.2006 93.9737ZM61.1422 90.1651C61.9532 90.1702 62.7641 90.1822 63.5752 90.1902C63.7199 90.1914 63.8661 90.1728 64.0095 90.1868C64.2385 90.2093 64.5319 90.2253 64.4878 90.5408C64.4721 90.6523 64.3339 90.7462 64.2247 90.8287C64.1635 90.8749 64.0879 90.8997 64.0112 90.8997C63.3424 90.8998 62.7435 90.9018 62.1444 90.8986C61.565 90.8954 60.9847 90.9025 60.4071 90.8673C60.3773 90.8656 60.3479 90.8561 60.3189 90.8414C60.1219 90.7428 60.0871 90.4749 60.2286 90.3058C60.27 90.2565 60.3148 90.218 60.3663 90.2025C60.6074 90.1303 60.882 90.1633 61.1422 90.1651ZM61.937 84.463C62.0539 84.431 62.2503 84.4545 62.3152 84.5331C62.3836 84.6162 62.3684 84.8022 62.3326 84.9268C62.3035 85.0285 62.1964 85.1126 62.1127 85.193C61.269 86.0006 60.4238 86.8072 59.576 87.6107C59.5141 87.6694 59.4458 87.7212 59.387 87.7641C59.2881 87.836 59.1599 87.8679 59.0445 87.8277C58.8722 87.7676 58.7839 87.5932 58.861 87.4176C58.9284 87.2644 59.0521 87.1271 59.1752 87.0084C59.9743 86.2385 60.7788 85.4741 61.5854 84.7123C61.6902 84.6132 61.8064 84.4987 61.937 84.463Z" fill="#BF335D"/>
<path fill-rule="evenodd" clip-rule="evenodd" d="M194.872 41.8757C194.319 42.8429 193.775 43.8084 193.215 44.7645C193.024 45.0908 192.823 45.4215 192.572 45.7005C192.201 46.1123 191.824 46.0858 191.461 45.6573C191.311 45.4808 191.185 45.2775 191.081 45.0699C190.56 44.0253 190.016 42.9903 189.553 41.9204C189.336 41.4187 189.057 41.1437 188.526 40.9896C184.332 39.7743 180.343 38.0558 176.512 35.9716C175.046 35.1745 173.638 34.2778 172.408 33.1435C171.768 32.5524 171.139 31.9208 170.635 31.2144C168.905 28.7883 169.458 26.0606 171.995 24.5061C174.325 23.0787 176.89 22.6412 179.577 22.98C184.706 23.6264 189.48 25.3986 194.083 27.6756C195.234 28.2447 196.34 28.9017 197.472 29.509C198.563 30.0946 199.473 30.9136 200.407 31.7117C202.634 33.6158 202.713 37.9298 200.093 40.0273C198.742 41.1081 197.172 41.5781 195.498 41.7997C195.297 41.8264 195.095 41.8488 194.872 41.8757Z" fill="white"/>
<path fill-rule="evenodd" clip-rule="evenodd" d="M192.027 45.2113C192.218 44.9568 192.371 44.7892 192.482 44.5972C192.993 43.7116 193.519 42.833 193.986 41.9242C194.267 41.3766 194.605 41.1109 195.262 41.0728C196.833 40.9816 198.29 40.5019 199.566 39.5294C201.909 37.7444 201.879 33.832 199.908 32.2503C198.976 31.5029 198.058 30.7142 197.036 30.1078C192.462 27.3922 187.596 25.3652 182.401 24.1782C180.344 23.7082 178.267 23.3782 176.148 23.7467C174.604 24.0151 173.142 24.497 171.879 25.457C170.45 26.5438 169.979 28.0872 170.667 29.7382C170.953 30.4235 171.409 31.0656 171.897 31.633C172.954 32.862 174.244 33.8466 175.656 34.6203C177.678 35.7276 179.714 36.8271 181.824 37.7465C184.041 38.7126 186.342 39.4906 188.628 40.2913C189.402 40.5623 189.93 40.9499 190.238 41.7372C190.587 42.6321 191.056 43.481 191.489 44.3423C191.629 44.6215 191.818 44.8763 192.027 45.2113ZM194.872 41.8757C194.319 42.8429 193.775 43.8084 193.215 44.7645C193.024 45.0908 192.823 45.4215 192.572 45.7005C192.201 46.1123 191.824 46.0858 191.461 45.6573C191.311 45.4808 191.185 45.2775 191.081 45.0699C190.56 44.0253 190.016 42.9903 189.553 41.9204C189.336 41.4187 189.057 41.1437 188.526 40.9896C184.332 39.7743 180.343 38.0558 176.512 35.9716C175.046 35.1745 173.638 34.2778 172.408 33.1435C171.768 32.5524 171.139 31.9208 170.635 31.2144C168.905 28.7883 169.458 26.0606 171.995 24.5061C174.325 23.0787 176.89 22.6412 179.577 22.98C184.706 23.6264 189.48 25.3986 194.083 27.6756C195.234 28.2447 196.34 28.9017 197.472 29.509C198.563 30.0946 199.473 30.9136 200.407 31.7117C202.634 33.6158 202.713 37.9298 200.093 40.0273C198.742 41.1081 197.172 41.5781 195.498 41.7997C195.297 41.8264 195.095 41.8488 194.872 41.8757Z" fill="#BF335D"/>
<path fill-rule="evenodd" clip-rule="evenodd" d="M162.934 19.0811C163.026 19.1348 163.112 19.1874 163.189 19.2511C164.695 20.4916 166.198 21.7346 167.695 22.9843C167.894 23.1506 168.083 23.3418 168.229 23.5543C168.29 23.6431 168.274 23.8959 168.208 23.936C168.09 24.0082 167.906 23.9955 167.754 23.98C167.682 23.9728 167.619 23.8768 167.552 23.821L165.302 21.9504C164.553 21.3266 163.804 20.7022 163.056 20.076C162.835 19.8909 162.63 19.6818 162.446 19.4599C162.391 19.3931 162.396 19.2233 162.443 19.1411C162.456 19.1174 162.477 19.098 162.502 19.0808C162.63 18.9936 162.8 19.0029 162.934 19.0811ZM167.254 15.468L167.279 15.507C168.044 16.6791 168.804 17.855 169.561 19.0327C169.907 19.5725 170.258 20.1106 170.573 20.6687C170.654 20.8124 170.685 21.0991 170.599 21.1982C170.402 21.425 170.175 21.2844 170.018 21.0819C169.875 20.8981 169.747 20.7023 169.621 20.506C168.648 18.9822 167.676 17.4579 166.708 15.9308C166.688 15.8988 166.668 15.8664 166.649 15.8335C166.423 15.4401 167.005 15.0885 167.254 15.468ZM172.528 13.2114C172.617 13.3124 172.638 13.4774 172.675 13.6178C173.13 15.3648 173.589 17.111 174.025 18.8629C174.065 19.0231 174.017 19.3061 173.907 19.3829C173.654 19.5582 173.476 19.3504 173.382 19.1183C173.263 18.8219 173.145 18.5211 173.068 18.2118C172.693 16.7142 172.331 15.213 171.964 13.7133C171.951 13.6599 171.937 13.6067 171.92 13.5464C171.872 13.3714 171.905 13.1771 172.028 13.0434C172.058 13.0114 172.089 12.9884 172.124 12.9823C172.245 12.9611 172.427 13.0965 172.528 13.2114Z" fill="#BF335D"/>
<path fill-rule="evenodd" clip-rule="evenodd" d="M129.283 59.3418C129.268 59.158 129.425 59.6372 129.45 59.9438C129.698 62.878 130.064 68.0442 130.352 70.9744C130.643 73.9347 131.32 79.9724 131.686 82.9246C132.136 86.554 132.244 85.0048 132.741 88.6283C133.247 92.3128 133.79 95.9921 134.32 99.6732C134.793 102.955 135.257 106.239 135.748 109.519C136.433 114.091 137.142 118.66 137.834 123.231C137.957 124.04 138.126 125.369 138.22 126.182C138.326 127.096 139.576 127.206 138.662 127.294C138.51 127.308 138.359 127.324 138.22 127.337L138.876 136.164C139.393 136.164 139.786 136.172 140.178 136.163C142.417 136.389 143.929 136.472 145.883 136.898C147.236 137.192 148.723 137.557 149.853 138.366C151.318 139.416 152.088 140.826 152.114 142.634C152.136 144.229 151.848 145.782 151.457 147.317C151.283 147.997 151.128 148.094 150.396 148.081C146.412 148.006 142.418 148.038 138.459 147.513C135.221 147.083 132.511 146.128 129.283 145.626C129.168 145.608 129.063 145.527 128.936 145.466C128.936 144.524 128.883 143.597 128.945 142.677C129.268 137.852 129.429 132.697 129.774 127.875C129.803 127.471 127.899 126.616 127.356 126.522C127.139 126.353 127.096 125.911 127.054 125.582C126.776 123.399 126.536 121.212 126.251 119.03C125.665 114.543 125.096 110.053 124.449 105.575C123.541 99.2868 122.83 95.3112 121.987 89.0152C121.41 84.7053 121.881 79.2075 121.003 74.9599C120.834 74.1407 120.689 73.3163 120.523 72.4964C120.475 72.2621 120.392 72.0349 120.325 71.8045C120.26 71.8062 119.168 70.9725 119.103 70.9744C118.749 72.5603 118.091 74.9852 117.707 76.5642C116.625 81.0201 115.486 85.4625 114.434 89.9251C112.471 98.2499 111.567 104.965 109.233 113.195C106.899 121.424 106.388 123.314 105.268 127.294C104.9 128.602 104.602 129.929 104.33 131.26C104.135 132.214 104.578 131.851 103.699 131.653C102.703 131.43 101.259 131.17 100.24 130.928C99.5195 133.424 98.8174 135.856 98.0929 138.366C98.3155 138.442 98.5001 138.701 98.7599 138.777C100.802 139.38 102.742 140.205 104.496 141.422C104.904 141.705 105.301 142.009 105.673 142.338C107.534 143.98 108.046 145.974 107.206 148.311C107.067 148.699 106.874 149.067 106.712 149.448C106.637 149.625 106.539 149.794 106.427 149.952C105.19 151.699 105.48 151.012 104.33 150.98C103.307 150.952 101.696 150.855 100.691 150.66C99.0207 150.335 98.4439 149.94 96.8392 149.368C95.4052 148.857 94.836 149.119 94.1062 148.522C92.268 147.018 90.6941 145.26 89.1598 143.463C88.9391 143.205 88.7681 142.905 88.5731 142.625C88.0607 141.888 87.9656 141.158 88.2893 140.267C89.4848 136.976 90.6016 133.655 91.745 130.345C91.846 130.053 91.9245 129.753 92.0322 129.394C91.1566 129.108 91.4407 128.477 91.5733 127.875C93.9883 116.914 95.9931 106.723 99.2815 95.9911C102.57 85.2588 103.762 78.3802 105.986 70.5086C106.971 67.0222 107.496 63.4668 108.35 59.9438C108.423 59.6439 108.419 59.9103 108.55 59.6341L129.283 59.3418Z" fill="white"/>
<path fill-rule="evenodd" clip-rule="evenodd" d="M129.56 59.5155C129.651 59.8077 129.701 60.1181 129.727 60.4248C129.973 63.3608 130.174 66.301 130.461 69.2329C130.751 72.1951 131.099 75.1522 131.463 78.1061C131.911 81.7378 132.385 85.3665 132.88 88.9922C133.382 92.6789 134.245 96.3604 134.772 100.044C135.243 103.328 135.704 106.614 136.193 109.895C136.875 114.47 137.58 119.041 138.269 123.615C138.391 124.425 138.72 125.755 138.814 126.569C138.883 127.174 138.947 127.419 138.64 127.448L138.942 136.169C139.457 136.169 139.848 136.178 140.238 136.168C142.465 136.395 143.97 136.478 145.915 136.903C147.26 137.198 148.74 137.563 149.864 138.373C151.322 139.423 152.089 140.834 152.114 142.643C152.136 144.239 151.85 145.793 151.46 147.329C151.287 148.01 151.133 148.107 150.405 148.093C146.44 148.019 142.467 148.05 138.528 147.525C135.306 147.095 132.1 146.544 128.887 146.041C128.773 146.023 128.669 145.942 128.543 145.882C128.543 144.94 128.49 144.011 128.551 143.091C128.872 138.264 128.899 133.438 129.242 128.612C129.257 128.412 129.222 127.647 129.222 127.651C129.222 127.654 127.698 127.698 127.425 127.651C127.21 127.482 126.159 122.233 125.875 120.05C125.291 115.56 124.725 111.068 124.082 106.587C123.178 100.295 122.297 94.0224 121.458 87.7226C120.883 83.4101 120.745 79.1786 119.871 74.9285C119.703 74.1087 119.559 73.2839 119.394 72.4635C119.347 72.229 119.264 72.0017 119.197 71.7711C119.132 71.7728 119.141 71.7725 119.076 71.7744C118.723 73.3612 118.394 74.9537 118.013 76.5338C116.936 80.9923 115.481 85.4373 114.434 89.9027C112.481 98.2324 111.393 106.536 109.07 114.771C107.948 118.75 107.011 122.691 105.896 126.673C105.53 127.982 105.234 129.309 104.963 130.641C104.769 131.596 104.495 131.853 103.621 131.656C102.629 131.432 101.643 131.187 100.629 130.944C99.912 133.442 99.2136 135.875 98.4926 138.387C98.7142 138.463 98.9669 138.559 99.2254 138.636C101.258 139.238 103.187 140.064 104.933 141.283C105.338 141.566 105.734 141.87 106.104 142.198C107.955 143.842 108.464 145.837 107.629 148.175C107.49 148.563 107.298 148.932 107.138 149.313C107.063 149.49 106.965 149.659 106.854 149.817C105.623 151.565 105.674 151.299 104.53 151.268C103.512 151.239 101.909 151.142 100.909 150.947C99.247 150.622 98.1543 150.375 96.5575 149.803C95.1308 149.291 94.8022 149.132 94.0761 148.535C92.247 147.029 90.6812 145.271 89.1545 143.473C88.9348 143.214 88.7646 142.914 88.5708 142.634C88.0608 141.897 87.9664 141.166 88.2883 140.275C89.478 136.981 90.5891 133.659 91.7266 130.347C91.8271 130.054 91.9052 129.754 92.0124 129.396C91.1413 129.109 91.4412 128.485 91.556 127.875C93.6495 116.738 95.7774 106.503 98.6703 95.5395C100.909 87.0535 102.568 79.0516 105.435 70.0035C106.52 66.5803 106.812 64.7348 107.663 61.2097C107.735 60.9097 107.816 60.6059 107.947 60.3296C107.995 60.2277 108.215 60.1328 108.329 60.1582C108.435 60.1819 108.55 60.3586 108.58 60.4869C108.613 60.6281 108.567 60.7943 108.53 60.9433C107.355 65.6969 106.315 70.4892 104.97 75.1944C102.27 84.6398 100.017 93.861 97.5945 103.462C95.4338 112.025 93.4062 122.012 92.6662 126.518C92.5604 127.163 92.3837 127.784 92.2446 128.404C96.157 129.222 100.024 130.031 103.989 130.86C104.047 130.71 104.164 130.499 104.214 130.273C105.389 124.97 106.87 119.845 108.323 114.621C110.55 106.617 111.613 98.5627 113.506 90.4729C114.537 86.0669 115.998 81.6864 117.05 77.2854C117.59 75.0247 118.048 72.7441 118.542 70.4723C118.739 69.5671 118.735 69.5529 119.655 69.4046C120.388 69.2862 121.127 69.1964 121.865 69.1131C122.62 69.0281 122.809 69.2212 122.705 70.0035C122.594 70.833 122.434 71.6557 122.316 72.4842C122.041 74.4182 121.712 75.5615 121.458 77.4982C121.422 77.7661 121.427 80.1926 121.458 80.4663C122.092 86.138 122.316 88.3814 122.673 90.862C123.029 93.3426 123.733 98.5796 124.287 102.446C124.917 106.836 125.496 111.232 126.071 115.629C126.537 119.196 127.03 121.946 127.425 124.24C127.706 125.868 128.077 126.567 128.135 126.838C131.351 126.855 134.772 126.974 138.07 126.838C137.962 125.941 137.719 125.087 137.592 124.24C136.586 117.525 135.55 110.814 134.565 104.095C133.733 98.4193 132.602 92.7397 131.844 87.0535C131.115 81.5825 130.429 76.105 129.797 70.6218C129.499 68.0357 129.371 65.43 129.165 62.8334C129.093 61.9367 129.013 61.0411 128.941 60.1445C128.926 59.9606 128.894 59.765 128.939 59.5935C128.971 59.4735 129.113 59.3166 129.222 59.3021C129.329 59.288 129.528 59.4124 129.56 59.5155ZM89.0485 140.677C88.7909 141.471 88.7732 141.557 89.2374 142.203C90.8917 144.508 92.812 146.566 95.0603 148.301C95.4419 148.595 95.9307 148.776 96.3875 148.938C98.4817 149.685 98.3589 149.747 100.799 150.13C101.727 150.329 104.048 150.586 105.002 150.596C105.142 150.564 105.687 150.271 106.092 149.635C105.887 149.591 105.684 149.63 105.574 149.618C104.281 149.476 102.989 149.33 101.695 149.201C99.6567 148.999 97.5919 148.211 96.1031 147.165C93.9032 145.444 91.7549 143.669 89.8936 141.572C89.6306 141.276 89.3494 140.995 89.0485 140.677ZM105.895 143.14C103.684 143.65 102.577 145.217 102.218 148.467C102.973 148.549 103.675 148.627 104.378 148.702C105.077 148.776 105.776 148.847 106.422 148.914C107.702 146.703 107.411 144.328 105.895 143.14ZM91.6122 133.238C90.8225 135.455 90.066 137.578 89.2933 139.746C89.7378 140.241 90.1695 140.722 90.6012 141.203C92.4313 143.241 94.5246 144.984 96.699 146.635C97.9601 147.412 99.7184 148.252 101.371 148.339C101.602 147.056 101.813 146.158 102.279 145.059C102.771 143.898 103.88 142.936 105.268 142.455C104.633 142.027 103.733 141.448 103.063 141.113C102.956 141.152 102.826 141.28 102.266 141.77C101.819 142.16 101.464 142.345 100.964 142.735C100.558 143.051 100.354 143.346 99.9157 143.156C99.6421 143 99.8136 142.638 100.422 142.14C101.01 141.658 101.521 141.244 102.234 140.681C101.693 140.366 101.368 140.218 100.951 140.04C100.56 139.874 100.131 139.792 100.131 139.792C99.8775 139.965 99.7783 140.053 99.5906 140.225C99.1108 140.663 98.6102 141.079 98.1195 141.506L98.0957 141.527C97.7502 141.828 97.2579 141.372 97.5376 141.009C97.9821 140.433 98.5829 140.021 99.2027 139.417C98.519 139.128 98.0077 139.043 97.9688 139.07C97.7606 139.214 97.4437 139.388 97.0868 139.764C96.7314 140.108 96.3691 140.449 95.98 140.754C95.9544 140.774 95.9239 140.788 95.8898 140.797C95.6531 140.861 95.4105 140.662 95.4226 140.417C95.4243 140.381 95.4308 140.347 95.4443 140.315C95.5249 140.126 95.6925 139.961 95.8535 139.822C96.2743 139.457 96.7203 139.121 97.1392 138.754C97.3411 138.577 97.5855 138.386 97.6716 138.151C98.0094 137.228 98.2917 136.285 98.6237 135.259C96.2547 134.576 93.9554 133.914 91.6122 133.238ZM129.335 143.04C129.299 143.807 129.266 144.504 129.232 145.24C136.359 146.749 143.439 147.43 150.671 147.287C150.842 146.526 151.001 145.813 151.188 144.98C143.792 145.132 136.602 144.237 129.335 143.04ZM148.102 138.246C146.443 139.221 144.764 141.835 144.396 144.062C146.669 144.294 148.933 144.261 151.178 144.207C151.84 140.942 150.373 139.299 148.102 138.246ZM129.973 134.154C129.776 136.859 129.584 139.497 129.388 142.198C134.12 143.174 138.787 143.625 143.503 144.021C144.136 141.63 145.276 139.608 147.219 137.783C146.195 137.574 145.549 137.462 144.608 137.308C144.383 137.252 143.952 137.239 143.952 137.239C143.804 137.31 143.766 137.462 143.655 137.635C143.32 138.156 142.991 138.682 142.633 139.186C142.435 139.464 142.374 139.958 141.866 139.846C141.576 139.783 141.614 139.386 141.971 138.799C142.304 138.254 142.653 137.718 143.004 137.163C142.053 137.006 141.542 136.939 141.421 137.031C141.259 137.154 141.116 137.444 140.915 137.73C140.577 138.212 140.286 138.727 139.938 139.199C139.727 139.484 139.611 140.121 139.098 139.777C138.673 139.493 139.116 139.112 139.288 138.818C139.641 138.214 140.03 137.631 140.417 137.02C139.702 136.993 138.95 136.825 138.83 136.955C138.678 137.119 138.409 137.529 138.223 137.841C137.923 138.346 137.566 138.818 137.231 139.301C137.126 139.452 137.029 139.625 136.885 139.728C136.785 139.799 136.571 139.824 136.481 139.763C136.386 139.697 136.32 139.495 136.344 139.371C136.376 139.198 136.487 139.032 136.591 138.88C137.011 138.267 137.446 137.665 137.865 137.05C138.001 136.851 138.198 136.631 138.203 136.416C138.219 135.623 138.167 134.828 138.139 133.991C135.374 133.74 132.707 133.814 129.973 134.154ZM93.3472 136.19C94.3792 136.19 95.1768 137.019 95.1865 138.102C95.1972 139.283 94.2181 140.335 93.0739 140.371C92.0419 140.404 91.1415 139.481 91.1613 138.411C91.1826 137.261 92.2369 136.19 93.3472 136.19ZM133.167 135.386C134.268 135.404 135.098 136.264 135.12 137.411C135.144 138.707 134.024 139.89 132.772 139.889C131.646 139.889 130.765 138.969 130.772 137.802C130.781 136.481 131.887 135.365 133.167 135.386ZM93.3549 137C92.6222 136.99 91.9514 137.649 91.9259 138.402C91.9048 139.023 92.3704 139.542 92.9775 139.574C93.7286 139.613 94.4448 138.898 94.4397 138.113C94.4355 137.465 93.99 137.008 93.3549 137ZM133.082 136.142C132.278 136.168 131.545 136.948 131.531 137.793C131.519 138.526 132.067 139.113 132.768 139.115C133.606 139.117 134.37 138.299 134.356 137.415C134.344 136.668 133.795 136.119 133.082 136.142ZM99.7585 130.977C97.1562 131.126 94.6994 131.266 92.1947 131.41C92.0864 131.772 91.9853 132.11 91.8675 132.504C94.2169 133.182 96.4656 133.83 98.8554 134.52C99.1679 133.294 99.4523 132.178 99.7585 130.977ZM137.701 128.222C137.432 128.31 137.252 128.347 137.091 128.424C134.968 129.432 132.856 130.465 130.721 131.448C130.338 131.624 129.914 131.884 129.914 131.884C129.84 132.466 129.837 132.512 129.774 133.22C132.471 133.166 135.111 133.112 137.818 133.058C137.847 131.467 137.851 129.875 137.701 128.222Z" fill="#1D242F"/>
<path fill-rule="evenodd" clip-rule="evenodd" d="M121.408 7.03848L121.74 7.04024C123.66 7.06046 124.862 7.31828 124.862 8.58519C124.862 9.91035 127.562 7.87275 127.562 8.99358C127.562 10.1144 124.511 11.5813 123.83 11.5813C123.377 11.5813 122.816 11.4434 122.147 11.1675C122.095 11.1937 122.044 11.2195 121.992 11.2447C124.7 14.9276 125.666 18.5611 124.89 22.1451C124.725 22.9096 122.213 23.3855 117.356 23.5726L117.058 23.5837L117.457 27.3455C117.609 27.6914 117.696 28.0853 117.696 28.5031C117.696 29.8799 116.76 30.9961 115.605 30.9961C114.611 30.9961 113.779 30.1695 113.567 29.0616L113.439 29.0616L113.427 28.6111C113.292 23.8231 113.055 21.2137 112.716 20.7829C108.826 20.7829 108.826 18.8301 109.039 17.7667C109.088 17.5259 109.24 17.3173 109.451 17.1387C109.224 17.238 108.971 17.3563 108.691 17.4936C106.421 15.4824 105.576 13.9004 106.159 12.7477C107.032 11.0185 108.39 10.6472 108.691 10.6472C108.992 10.6472 108.824 6.64992 113.109 6.16269C117.351 5.68033 119.354 7.0118 121.408 7.03848Z" fill="white"/>
<path fill-rule="evenodd" clip-rule="evenodd" d="M124.181 5.55116C124.185 5.58332 124.183 5.6134 124.173 5.64074C123.884 6.42338 123.22 6.91233 122.365 7.15744C121.807 7.31748 121.218 7.34289 120.643 7.25475C119.371 7.05933 118.103 6.8332 116.833 6.62202C115.531 6.40569 114.233 6.2804 112.911 6.50155C111.298 6.77143 110.18 7.61181 109.609 9.15569C109.528 9.37475 109.302 9.87239 109.219 10.1542C108.959 11.0367 109.247 10.6652 108.457 11.0182C108.195 11.1354 107.669 11.4168 107.441 11.5959C106.191 12.5798 105.965 13.9429 106.922 15.2112C107.446 15.9056 108.107 16.4967 108.711 17.13C108.805 17.2286 108.944 17.2911 109.023 17.3961C109.078 17.3157 109.141 17.2377 109.211 17.1626C109.86 16.4737 110.661 16.084 111.605 16.0243C111.74 16.0158 111.845 16.0142 111.93 16.0274C111.934 16.0208 111.938 16.0145 111.942 16.0089C112.643 15.0185 112.585 13.863 112.662 12.7357L112.662 12.7324C112.684 12.4646 113.037 12.3772 113.205 12.5866C113.25 12.6424 113.279 12.6931 113.282 12.7455C113.355 13.9152 113.331 15.0772 112.68 16.1198C112.605 16.2406 112.507 16.3631 112.39 16.4368C112.376 16.4451 112.361 16.4524 112.343 16.4587C112.366 16.5647 112.294 16.674 112.181 16.6904C112.038 16.711 111.903 16.7293 111.767 16.728C111.123 16.7219 110.57 16.963 110.066 17.3352C109.559 17.7101 109.293 18.1945 109.399 18.8495C109.512 19.5406 109.839 20.075 110.533 20.2666C110.977 20.389 111.45 20.4157 111.912 20.4566C112.226 20.4842 112.544 20.4617 112.943 20.4617C113.007 20.8213 113.094 21.1533 113.12 21.4901C113.255 23.2961 113.609 26.7621 113.721 28.5697C113.74 28.8615 113.937 29.3252 113.504 29.3897C113 29.4648 113.059 28.9609 113.034 28.634C112.906 26.9739 112.567 23.6535 112.447 21.9929C112.43 21.7622 112.402 21.5324 112.37 21.2053C111.861 21.1731 111.425 21.1679 110.996 21.1144C109.52 20.9309 108.671 19.9572 108.689 18.518C108.692 18.2965 108.722 18.0877 108.783 17.8918C108.75 17.9001 108.719 17.9027 108.691 17.8977C108.53 17.8691 108.358 17.7698 108.242 17.6507C107.609 17.0047 106.925 16.3936 106.382 15.6772C105.141 14.0397 105.473 12.1334 107.146 10.9334C107.406 10.7472 107.678 10.5529 107.98 10.4569C108.522 10.2843 108.467 10.2286 108.586 9.77669C108.749 9.15907 109.073 8.58987 109.379 8.02983C109.793 7.27276 110.423 6.66705 111.2 6.29085C111.819 5.99137 112.511 5.88763 113.18 5.76604C113.633 5.68353 114.094 5.65329 114.555 5.66004C114.822 5.6639 115.088 5.68047 115.353 5.70653C116.106 5.78051 116.848 5.93138 117.586 6.09238C118.283 6.24437 119.009 6.31819 119.717 6.42612C120.375 6.52648 121.05 6.58776 121.714 6.56218C122.446 6.53388 123.058 6.19081 123.458 5.54022C123.503 5.46559 123.541 5.36442 123.61 5.33017C123.646 5.31199 123.684 5.29655 123.722 5.28256C123.924 5.20905 124.159 5.3374 124.181 5.55116ZM125.285 8.03549C125.347 8.07007 125.365 8.24538 125.348 8.348C125.33 8.45576 125.263 8.56803 125.188 8.65118C124.37 9.55154 123.519 10.4451 122.524 11.1505C122.702 11.3132 122.884 11.4863 122.956 11.59C125.045 14.6066 126.123 17.8763 125.4 21.5828C125.367 21.7543 125.305 21.9203 125.271 22.0917C125.157 22.6736 124.821 22.9885 124.229 23.1135C122.284 23.5232 120.334 23.8667 118.339 23.8907C118.051 23.8941 117.762 23.8912 117.361 23.8912C117.516 24.5574 117.656 25.1359 117.783 25.7178C117.829 25.9301 118.32 29.0475 118.132 29.0868C117.835 29.1488 117.504 29.1725 117.49 28.7894C117.474 28.3644 117.137 25.8238 117.04 25.404C116.994 25.2079 116.441 24.9307 116.073 24.5612C115.809 24.2952 115.591 23.9724 115.404 23.6451C115.32 23.497 115.172 23.127 115.237 22.9718C115.273 22.8864 115.684 22.9691 115.834 22.9966C117.373 23.2782 118.916 23.2544 120.455 23.0413C121.61 22.8814 122.756 22.6571 123.907 22.4686C124.335 22.3984 124.546 22.162 124.641 21.7342C125.019 20.0214 124.962 18.4477 124.544 16.6292C124.126 14.8107 123.033 13.0166 121.91 11.59L121.887 11.5614C120.635 12.2876 119.171 12.6464 117.734 12.7381C117.709 12.7397 117.684 12.7411 117.659 12.7422C117.401 12.7543 117.15 12.7442 116.891 12.7205C116.568 12.6908 115.757 12.6227 115.776 12.1481C115.788 11.8385 116.082 11.9088 116.32 11.9126C117.135 11.926 117.958 11.9853 118.763 11.8974C119.849 11.7784 120.834 11.4056 121.724 10.8376C121.762 10.7899 121.814 10.7571 121.871 10.7412C122.2 10.5211 122.516 10.2737 122.819 10.0025C123.384 9.49751 123.911 8.94985 124.455 8.42102C124.601 8.27916 124.726 8.10497 124.896 8.00445C124.992 7.94816 125.177 7.97646 125.285 8.03549ZM127.992 8.66692C128.377 8.97493 127.98 9.30947 127.76 9.5303L127.64 9.64963C126.625 10.6619 125.563 11.6133 124.066 11.8744C123.709 11.9366 123.384 11.9538 123.187 11.6236C123.115 11.5025 123.149 11.338 123.269 11.2627C123.284 11.253 123.297 11.2477 123.311 11.2474C125.003 11.2046 126.131 10.1489 127.244 9.06419C127.459 8.8543 127.657 8.39929 127.992 8.66692Z" fill="#1D242F"/>
<path fill-rule="evenodd" clip-rule="evenodd" d="M141.523 40.0951C141.53 40.1091 141.534 40.1238 141.537 40.1393L141.523 40.0951ZM138.947 40.7909C138.011 39.5964 137.364 37.6235 138.207 37.9149C138.804 38.1214 140.884 40.5037 140.874 40.4865C140.148 39.2589 139.604 38.0631 139.189 36.6718C139.066 36.2603 139.094 35.8833 139.335 35.6707C139.523 35.5042 139.853 35.4715 139.853 35.4715C139.658 34.5895 139.68 33.9589 140.747 34.36C140.578 33.849 140.552 33.39 141.059 33.1723C141.554 32.9595 141.97 33.1488 142.334 33.4906C143.384 34.4777 144.186 35.6746 144.943 36.8912C145.253 37.3893 145.605 37.8449 145.664 38.4459C145.715 38.9673 145.6 39.4894 145.478 39.9933C144.565 43.7589 143.671 47.5304 142.666 51.2716C142.237 52.8691 141.616 54.425 140.968 55.9519C139.854 58.5777 136.832 59.6976 134.232 58.5368C132.769 57.8842 131.576 56.8564 130.381 55.8281C130.169 55.6457 129.952 55.4703 129.608 55.1846C129.608 55.6832 129.593 56.0228 129.61 56.361C129.655 57.2369 129.128 57.754 129.128 58.7847C129.128 59.8154 127.368 59.7857 126.346 60.1292C121.688 61.695 115.999 61.7074 111.064 61.4696C108.086 61.3262 105.278 60.3226 102.841 58.5368C102.656 58.4014 102.452 58.2753 102.202 58.1293C102.075 58.3523 101.98 58.7948 101.885 58.9939C100.304 62.3144 98.928 65.7133 97.8742 69.2418C97.6914 69.8547 97.7891 70.2646 98.1894 70.7366C98.9047 71.5801 99.5744 72.4658 100.213 73.3693C100.476 73.7421 100.672 74.1903 100.787 74.6332C100.976 75.3615 100.415 75.8356 99.7069 75.5723C99.44 75.473 99.1992 75.2903 98.9654 75.1199C98.7571 74.968 98.5745 74.7807 98.2702 74.5113C98.429 75.234 98.5769 75.8162 98.6792 76.4062C98.7435 76.7765 98.7886 77.1628 98.7554 77.534C98.68 78.3788 97.9036 78.3738 97.4236 78.1543C97.2406 78.0709 97.1077 77.9039 96.9472 77.7751C96.2379 78.4734 95.9079 78.7349 94.8272 78.0106C94.4476 78.3541 93.9798 78.4898 93.5627 78.0667C93.2402 77.7396 93.3154 77.8823 92.7657 76.8307C92.7702 76.83 92.6682 76.9601 92.6481 76.9744C92.3526 77.1857 92.1214 77.5757 91.672 77.3899C91.2169 77.2016 91.1639 76.7532 91.1561 76.3565C91.1434 75.7183 91.1596 75.0694 91.2614 74.4409C91.5453 72.6871 91.8318 70.9312 92.207 69.1956C92.6253 67.2615 93.1545 65.3515 93.6148 63.4261C94.599 59.3088 96.1115 55.1765 97.8742 51.2716C97.7199 51.0663 97.5543 50.8991 97.4236 50.6825C96.9786 49.9448 96.5095 49.2681 97.0044 48.4597C97.4459 47.7388 97.8451 46.9924 98.28 46.2674C100.201 43.0668 102.126 39.8692 104.053 36.6718C105.004 35.0926 106.104 33.6265 107.369 32.2815C108.895 30.6611 110.045 29.8436 112.107 29.1403C112.89 28.8732 112.654 28.1825 113.166 28.896C113.465 29.3112 117.912 29.3196 117.982 29.1403C118.143 28.7242 117.998 28.694 118.414 28.6406C119.096 28.553 119.71 28.9289 120.275 29.2534C122.235 30.3804 124.032 31.7229 125.573 33.3806C128.204 36.2101 130.509 39.29 132.496 42.6019C132.929 43.3242 133.236 44.1208 133.636 44.8649C133.982 45.5101 134.077 46.1139 133.49 46.6834C134.247 47.6188 135.266 48.8887 136.069 49.8824C136.187 49.6177 136.247 49.137 136.319 48.9392C136.779 47.6805 136.982 46.3451 137.443 45.0866C137.464 45.027 137.484 44.9646 137.506 44.9035L138.947 40.7909Z" fill="white"/>
<path fill-rule="evenodd" clip-rule="evenodd" d="M148.79 15.6115C151.623 16.3157 153.271 18.2705 154.02 20.9882C155.14 25.0502 153.43 29.7202 150.005 32.1894C148.272 33.4387 146.352 33.986 144.217 33.7178C144.046 33.6963 143.874 33.6757 143.625 33.645C143.524 33.8846 143.422 34.1206 143.323 34.3573C143.96 35.1203 144.508 35.9563 145.033 36.8019C145.344 37.3011 145.697 37.7577 145.756 38.3599C145.807 38.8824 145.692 39.4059 145.57 39.9107C144.655 43.6844 143.76 47.464 142.753 51.2133C142.323 52.8142 141.7 54.3736 141.052 55.9037C139.936 58.5351 136.909 59.6574 134.304 58.4941C132.839 57.8401 131.644 56.8101 130.447 55.7794C130.235 55.5968 130.017 55.421 129.672 55.1345C129.672 55.6344 129.658 55.9747 129.675 56.3136C129.719 57.1914 130.228 59.2853 129.461 59.6033C128.464 60.0167 126.97 60.411 125.631 60.7437C120.833 61.9358 116.041 61.6715 111.098 61.4333C108.115 61.2895 105.338 60.5143 102.896 58.7246C102.711 58.5891 102.5 58.4894 102.249 58.3431C102.121 58.5668 101.998 58.7526 101.903 58.9521C100.32 62.28 98.9411 65.6859 97.8856 69.2221C97.7023 69.8364 97.8002 70.247 98.2013 70.7202C98.9179 71.5655 99.5886 72.4531 100.228 73.3585C100.492 73.7323 100.689 74.1815 100.803 74.6252C100.992 75.3551 100.43 75.8302 99.7213 75.5663C99.4539 75.467 99.2129 75.2837 98.9787 75.113C98.7698 74.9607 98.587 74.7729 98.2823 74.5032C98.4413 75.2273 98.5894 75.8107 98.6919 76.402C98.7562 76.7729 98.8014 77.1602 98.7681 77.5322C98.6925 78.3788 97.9151 78.3738 97.4341 78.154C97.2509 78.0703 97.1177 77.9029 96.957 77.7738C96.2464 78.4735 95.9159 78.7357 94.8334 78.0097C94.4531 78.3542 93.9847 78.4901 93.5668 78.0663C93.2438 77.7383 93.319 77.8812 92.7684 76.8276C92.7731 76.8266 92.6708 76.9571 92.6507 76.9714C92.3547 77.183 92.123 77.574 91.6729 77.3878C91.217 77.1991 91.1639 76.7497 91.1561 76.3522C91.1434 75.7126 91.1596 75.0623 91.2616 74.4324C91.5462 72.6749 91.8328 70.9152 92.2089 69.1758C92.6278 67.2376 93.1579 65.3235 93.6189 63.394C94.6048 59.2676 95.8477 55.2267 97.6133 51.3133C97.4587 51.1076 97.2871 50.9152 97.1563 50.6983C96.7104 49.9591 96.5185 49.2056 97.0142 48.3953C97.4563 47.6728 97.8564 46.9248 98.292 46.1983C100.216 42.9908 102.145 39.7862 104.074 36.582C105.027 34.9994 106.129 33.5303 107.397 32.1822C108.924 30.5583 110.445 29.2816 112.511 28.5768C113.296 28.3091 113.344 28.3994 113.857 29.1145C114.156 29.5306 114.521 29.9388 114.945 30.2167C115.749 30.7447 116.765 30.778 117.354 29.7986C117.453 29.6335 117.681 29.2119 117.751 29.0324C117.913 28.6155 118.026 28.5851 118.443 28.5316C119.126 28.4438 119.759 28.8224 120.324 29.1476C122.288 30.277 124.087 31.6225 125.631 33.2837C128.266 36.1194 130.575 39.2057 132.565 42.5247C132.999 43.2487 133.307 44.0471 133.707 44.7927C134.054 45.4393 134.15 46.0444 133.562 46.6152C134.319 47.5526 135.051 48.4582 135.856 49.4538C135.974 49.1889 136.072 49 136.145 48.8019C136.5 47.831 136.85 46.8583 137.203 45.8866C137.187 45.8719 137.172 45.8563 137.157 45.8403C136.776 45.4416 136.921 45.0535 137.087 44.631C137.627 43.2589 138.165 41.8861 138.703 40.5131C138.101 39.8771 137.606 39.164 137.445 38.278C137.34 37.6951 137.814 37.3264 138.383 37.5393C138.873 37.7229 139.208 38.0803 139.498 38.4801L139.651 38.0886C139.414 37.6028 139.206 37.1017 139.048 36.5736C138.925 36.1612 138.96 35.663 139.2 35.4502C139.389 35.2833 139.716 35.3415 139.716 35.3415C139.52 34.4576 139.617 33.8218 140.686 34.2235C140.517 33.7115 140.635 33.2931 141.143 33.0751C141.316 33.0007 141.479 32.9753 141.634 32.9883L141.684 32.8567C141.205 32.4365 140.781 32.1195 140.421 31.7418C138.783 30.0213 138.057 27.9313 138.121 25.5896C138.221 21.9078 139.731 18.9232 142.783 16.8101C144.592 15.5578 146.623 15.0726 148.79 15.6115ZM98.5574 50.9527C98.4233 51.2446 98.3393 51.4285 98.2543 51.612C95.7801 56.9486 94.4946 62.6479 93.169 68.3324C92.7414 70.1661 92.6944 72.0436 92.8498 73.9109C92.924 74.8027 93.1744 75.6853 93.4062 76.5559C93.4672 76.7848 93.6083 76.9923 93.7818 77.2549C93.8954 77.4267 94.1639 77.3301 94.1412 77.1255C94.0254 76.1411 93.8924 75.1588 93.7793 74.1742C93.7226 73.6813 93.685 73.1855 93.6626 72.69C93.656 72.541 93.676 72.3944 93.8003 72.2976C93.9491 72.1817 94.17 72.265 94.227 72.4445C94.2874 72.6355 94.3495 72.8317 94.3761 73.0325C94.518 74.1029 94.6005 75.1821 94.7729 76.2472C94.8543 76.7502 95.0523 77.1949 95.4299 77.5378C95.7207 77.8018 96.1892 77.5893 96.2072 77.1968C96.2249 76.8129 96.1642 76.444 96.1086 76.0806C95.9369 74.958 95.7238 73.8415 95.5362 72.7212C95.4978 72.4921 95.4478 72.2468 95.4936 72.028C95.5086 71.9568 95.5552 71.8922 95.6126 71.8299C95.7333 71.6994 95.9448 71.6996 96.0635 71.8317C96.101 71.8737 96.1293 71.9172 96.1382 71.9645C96.23 72.4513 96.2545 72.9505 96.3346 73.44L96.3694 73.6547C96.5478 74.7642 96.7154 75.8801 97.2988 76.8737C97.405 77.0544 97.4941 77.2669 97.6804 77.4108C97.8453 77.538 98.0843 77.4079 98.074 77.2001C98.0618 76.9533 98.0504 76.7227 97.9986 76.5017C97.7259 75.3371 97.4145 74.1816 97.137 73.0178C97.0825 72.7888 97.0622 72.5516 97.0416 72.3238C97.025 72.1399 97.1811 71.9801 97.3641 72.0047C97.5858 72.0348 97.6973 72.2106 97.8108 72.3915C98.1213 72.8855 98.4176 73.3913 98.7619 73.8611C99.0947 74.3152 99.4747 74.7395 100.035 74.9249C100.047 74.9102 100.059 74.8953 100.071 74.88C100.167 74.7527 100.18 74.5816 100.1 74.4432C99.8791 74.0567 99.6505 73.7021 99.382 73.3378C98.7242 72.4454 98.0201 71.5859 97.3135 70.7306C97.0048 70.3571 96.9069 69.9854 97.0625 69.5183C97.4495 68.3554 97.7896 67.1767 98.1903 66.0187C99.3862 62.5635 100.96 59.2696 102.515 55.9676C102.873 55.2079 103.197 54.4317 103.572 53.582C101.873 52.691 100.233 51.8314 98.5574 50.9527ZM92.0804 72.7457C92.0477 72.7418 91.9568 74.1334 91.9523 74.1659C91.7677 75.5064 91.6712 76.5895 91.8384 76.5895C92.7132 76.4396 92.2191 75.226 92.2345 74.5334C92.1983 74.5292 92.1166 72.75 92.0804 72.7457ZM118.798 29.2916C118.69 29.4979 118.608 29.7347 118.557 29.8386C117.409 32.1663 114.559 31.8181 113.255 29.7489C113.151 29.583 113.022 29.4318 112.918 29.2916C111.198 29.6474 109.319 31.2181 108.074 32.497C106.783 33.8227 105.677 35.2892 104.724 36.8725C102.556 40.4766 100.389 44.0816 98.226 47.6891C97.9576 48.1371 97.7175 48.6022 97.4105 49.1569C99.5289 49.2646 100.975 50.2543 102.278 50.9527C103.606 51.6652 104.308 51.9808 105.524 53.1722C105.567 53.0642 105.613 52.9655 105.646 52.8629C106.567 50.0631 107.485 47.2629 108.405 44.463C108.445 44.3432 108.489 44.2253 108.536 44.1083C108.631 43.8702 108.729 43.5969 109.073 43.7318C109.381 43.8524 109.268 44.1043 109.193 44.3284C109.091 44.6327 108.989 44.9372 108.891 45.2432C107.96 48.1617 107.027 51.0797 106.102 54.0002C105.907 54.6159 105.602 54.859 104.869 54.8749C104.527 54.8823 104.183 54.8432 103.82 54.8243C103.404 55.735 103.006 56.6072 102.569 57.5653C103.08 57.9415 103.511 58.2882 103.97 58.5912C105.934 59.8875 108.117 60.489 110.415 60.6846C110.305 60.5853 110.187 60.4008 110.215 60.2921C110.392 59.6236 110.464 58.9203 110.923 58.342C111.152 58.0531 111.35 57.7044 111.444 57.3517C111.578 56.8461 111.275 56.5416 110.762 56.6488C110.367 56.7314 110.002 56.9461 109.609 57.0469C109.454 57.0864 109.169 57.0274 109.109 56.9208C109.033 56.7835 109.075 56.5273 109.158 56.3708C109.23 56.2361 109.418 56.1226 109.576 56.0815C110.111 55.9419 110.651 55.8036 111.198 55.7331C111.643 55.6757 111.992 55.8725 112.133 56.3432C112.241 56.7031 112.362 57.0594 112.488 57.4523C112.371 57.7182 112.267 57.9848 112.139 58.2388C111.919 58.675 111.693 59.1097 111.45 59.5336C111.25 59.8834 111.035 60.2273 110.796 60.5511C110.753 60.6096 110.647 60.6686 110.559 60.6962C110.71 60.708 110.861 60.718 111.012 60.7264C113.649 60.8717 117.156 61.0244 119.786 60.7264C123.403 60.3165 128.002 59.5779 128.774 58.424C129.028 58.0458 129.065 56.8573 128.98 56.0903C128.825 54.6981 128.732 53.2976 128.536 51.9115C128.254 49.9181 127.796 47.9627 127.276 46.0129C127.25 45.9146 127.223 45.8164 127.197 45.7182L127.159 45.7307C126.503 45.9404 125.885 45.8908 125.349 45.4272C125.083 45.1971 124.882 44.9526 124.935 44.5274C124.995 44.0393 124.741 43.794 124.265 43.9184C123.525 44.1115 122.682 43.9872 122.068 44.6338C121.886 44.8258 121.544 44.8758 121.267 44.9661C120.826 45.11 120.382 45.2473 119.933 45.3619C119.041 45.5896 118.236 45.3725 117.582 44.7497C116.905 44.1049 116.605 43.283 116.844 42.357C117.132 41.2458 117.755 40.3489 118.726 39.7023C118.988 39.5278 119.254 39.3206 119.432 39.0677C119.807 38.5332 119.697 37.9946 119.162 37.6494C119.059 37.5824 118.843 37.637 118.7 37.6914C118.271 37.8542 117.853 38.0449 117.431 38.2245C117.083 38.3721 116.74 38.5324 116.387 38.6635C115.68 38.9259 114.984 39.2685 114.252 39.3941C113.691 39.4905 113.07 39.351 112.498 39.2193C112.308 39.1756 112.131 38.8512 112.045 38.6192C111.81 37.9874 111.882 37.3588 112.183 36.7531C112.636 35.8384 113.317 35.0868 114.148 34.553C115.561 33.6447 117.015 32.7782 118.664 32.3301C118.772 32.3007 118.881 32.2428 118.969 32.1729C119.499 31.7549 120.13 31.6457 120.774 31.5784C121.006 31.5539 121.24 31.5451 121.472 31.5181C121.691 31.4927 121.907 31.4526 122.125 31.419C121.911 31.5748 121.719 31.7989 121.479 31.8758C119.275 32.584 117.217 33.6101 115.203 34.7305C115.029 34.827 114.891 34.9898 114.742 35.1284C114.593 35.2675 114.473 35.5022 114.304 35.5443C113.381 35.7721 113.235 36.6102 112.889 37.2832C112.697 37.6581 112.612 38.0632 112.986 38.4092C113.423 38.8145 113.956 38.9246 114.425 38.6849C115.281 38.248 116.113 37.7584 116.991 37.3732C117.546 37.1298 118.159 36.9941 118.76 36.8848C119.648 36.7232 120.333 37.058 120.69 37.7465C120.959 38.2645 120.883 38.677 120.485 39.097C120.25 39.3452 120.053 39.6302 119.841 39.9002C119.734 40.0371 119.658 40.2527 119.52 40.3037C118.707 40.6038 118.532 41.4172 118.122 42.0257C117.719 42.6224 117.699 43.3391 118.107 43.9303C118.491 44.4859 119.143 44.5406 119.779 44.4296C120.094 44.3746 120.409 44.292 120.708 44.1806C121.664 43.8251 122.603 43.4232 123.568 43.0946C124.058 42.9274 124.586 42.8334 125.103 42.7943C125.379 42.7736 125.605 42.8644 125.482 43.3428C125.27 44.1637 126.021 44.9531 126.869 44.9973L126.988 44.9614C126.485 43.1739 125.906 41.4223 125.06 39.7584C124.954 39.5507 124.812 39.3427 124.781 39.1218C124.778 39.0975 124.778 39.0726 124.781 39.0473C124.811 38.7602 125.143 38.5822 125.386 38.7375C125.413 38.7547 125.436 38.7752 125.45 38.7998C125.677 39.171 125.841 39.5811 126.017 39.9816C126.699 41.534 127.219 43.1396 127.687 44.7625C127.887 44.7028 128.085 44.637 128.276 44.5557C129.27 44.133 130.244 43.6658 131.228 43.219C131.491 43.0994 131.814 42.8906 132.024 43.1859C132.279 43.5456 131.92 43.807 131.675 43.9631C130.539 44.6851 129.34 45.2685 127.986 45.4725C127.955 45.4772 127.924 45.4829 127.893 45.4894C128.015 45.9249 128.134 46.3609 128.253 46.7971C128.325 47.0624 128.435 47.3175 128.506 47.5164C130.006 46.1118 130.762 45.6612 133.027 44.9398C132.654 44.2247 132.324 43.4009 131.834 42.6862C130.332 40.4951 128.817 38.3101 127.219 36.1892C125.357 33.7192 123.107 31.6395 120.466 30.0061C120.059 29.7543 119.482 29.4569 118.798 29.2916ZM113.182 46.8917C113.624 47.3583 114.272 47.7375 113.877 48.5576C113.846 48.6229 113.857 48.7486 113.901 48.8041C114.497 49.546 114.202 50.3291 113.921 51.045C113.707 51.589 113.97 52.014 114.049 52.4832C114.064 52.5758 114.434 52.727 114.528 52.6689C115.09 52.3215 115.628 51.9339 116.153 51.5325C116.423 51.3263 116.639 51.0526 116.897 50.8296C117.117 50.64 117.367 50.4867 117.594 50.3052C118.645 49.4645 119.812 48.9203 121.18 48.8756C122.165 48.8433 122.857 49.4293 123.078 50.4145C123.48 52.2041 122.765 53.5874 121.546 54.8034C121.526 54.824 121.504 54.8472 121.478 54.8583C120.143 55.4343 119.86 56.8354 119.137 57.8861C119.036 58.0326 119.166 58.3694 119.243 58.6003C119.369 58.977 119.458 59.3477 119.177 59.676C119.077 59.7919 118.867 59.898 118.733 59.8729C118.618 59.8514 118.475 59.647 118.453 59.5065C118.185 57.7812 118.406 56.1986 119.818 54.97C120.303 54.5486 120.769 54.1052 121.221 53.6493C121.653 53.213 122.055 52.7572 122.054 52.0733C122.054 51.8505 122.174 51.6249 122.25 51.4048C122.522 50.6214 122.092 49.9095 121.267 49.8492C120.517 49.7946 119.818 50.0166 119.177 50.3945C118.472 50.8092 117.779 51.2429 117.09 51.6824C116.948 51.7728 116.81 51.9061 116.732 52.0527C116.32 52.8342 115.572 53.1877 114.833 53.5295C114.182 53.8306 114.047 53.6779 113.565 53.1083C113.05 52.5 112.941 51.8172 113.102 51.1429C113.43 49.7628 113.362 48.3971 113.198 47.0205L113.182 46.8917ZM105.778 57.3282C106.302 57.4564 106.805 57.504 107.319 57.2906C107.527 57.2049 107.832 57.0958 107.904 57.4093C107.938 57.5609 107.751 57.8388 107.589 57.9417C107.353 58.0914 107.05 58.1346 106.698 58.2483C106.358 58.1109 105.968 57.9943 105.622 57.7985C105.386 57.665 105.018 57.2843 105.044 57.247C105.29 56.8924 105.533 57.2684 105.778 57.3282ZM143.026 35.0997L142.61 36.1579C142.835 36.5076 143.06 36.8566 143.283 37.2067C143.362 37.3299 143.449 37.4477 143.523 37.5737C143.666 37.8163 143.946 38.1088 143.583 38.3226C143.243 38.5229 143.071 38.1585 142.916 37.9261C142.705 37.6106 142.496 37.2938 142.289 36.976L142.024 37.6505C142.167 37.8358 142.309 38.0214 142.449 38.208C142.59 38.394 142.743 38.5869 142.815 38.8018C142.829 38.8448 142.827 38.893 142.817 38.9441C142.777 39.1395 142.567 39.2544 142.377 39.193C142.334 39.179 142.294 39.1608 142.26 39.1353C142.126 39.0364 142.054 38.856 141.948 38.7168L141.722 38.42C141.57 38.8077 141.417 39.1954 141.265 39.583C141.353 39.7408 141.437 39.9001 141.51 40.0645C141.516 40.0787 141.521 40.0933 141.524 40.1087C141.572 40.3398 141.341 40.5322 141.109 40.4843C141.039 40.4697 140.982 40.4468 140.957 40.4049L140.948 40.3895C140.276 42.1022 139.602 43.8147 138.928 45.5265C138.71 46.0782 138.275 46.3212 137.827 46.2338L138.115 45.4161C137.629 46.7925 137.146 48.1703 136.643 49.5408C136.386 50.2061 136.386 50.2061 136.678 50.8739C136.802 51.0639 136.929 51.3279 136.644 51.4858C136.319 51.6661 136.157 51.3951 136.044 51.162C135.202 49.4209 133.73 48.167 132.574 46.6697C132.56 46.651 132.574 46.6697 132.486 46.56C131.44 47.2196 130.224 47.9495 129.133 48.6731C129.058 48.7227 128.845 48.8683 128.845 48.8683C128.831 48.9585 128.876 49.1582 128.887 49.2506C129.051 50.6252 129.24 51.9975 129.461 53.3639C129.495 53.5748 129.573 53.8389 129.573 53.8389C129.621 53.9142 129.792 54.0992 129.853 54.1661C131.079 55.5133 132.448 56.7027 134.053 57.5792C136.716 59.034 139.421 58.0555 140.576 55.2207C141.37 53.2737 142.083 51.2991 142.566 49.2434C143.295 46.1459 144.079 43.0615 144.834 39.9701C144.923 39.602 145.014 39.2255 145.027 38.8501C145.039 38.5408 145.017 38.1832 144.873 37.9229C144.325 36.9357 143.73 35.9792 143.026 35.0997ZM105.442 41.8045C105.383 42.1443 105.42 42.5271 105.273 42.8195C105.075 43.2136 105.239 43.4269 105.49 43.6481C105.665 43.8018 105.869 43.9221 106.048 44.0718C106.6 44.5346 106.719 45.3992 106.487 46.0627C105.978 47.517 104.843 48.2326 103.486 48.6126C102.868 48.7858 102.162 48.6749 101.499 48.6396C101.346 48.6315 101.183 48.4231 101.065 48.2745C100.982 48.1696 100.968 48.0099 100.923 47.8749C101.079 47.8316 101.233 47.766 101.391 47.7514C101.564 47.7355 101.741 47.767 101.915 47.7778C103.175 47.8503 104.265 47.4336 105.23 46.6423C106.118 45.9143 106.037 44.8282 105.04 44.2729C104.785 44.1311 104.502 44.034 104.265 43.8695C103.841 43.576 103.753 43.2049 104.084 42.8276C104.446 42.4157 104.893 42.0786 105.307 41.7136C105.441 41.5959 105.471 41.6385 105.442 41.8045ZM99.2051 46.9645C99.5238 47.1856 99.812 47.4504 100.175 47.7508C99.9663 47.9219 99.877 48.0438 99.7607 48.0807C99.4436 48.1814 98.7505 47.8889 98.6516 47.5671C98.5975 47.391 98.7042 47.1407 98.8016 46.9578C98.8324 46.9001 99.1079 46.8972 99.2051 46.9645ZM113.128 46.8528L113.182 46.8913L113.146 46.8984C112.935 46.9429 112.692 47.0586 112.536 46.9859C111.939 46.7063 111.356 46.7544 110.752 46.9105C110.616 46.9455 110.463 46.9365 110.321 46.9205C110.244 46.9116 110.174 46.8452 110.1 46.8047C110.155 46.715 110.187 46.5923 110.267 46.5407C111.054 46.0269 112.135 46.1508 113.128 46.8528ZM108.374 38.3117C108.481 38.4536 108.587 38.5956 108.678 38.7158C108.455 39.3518 108.361 39.9695 108.042 40.4311C107.747 40.8563 107.214 41.1188 106.778 41.4426C106.603 41.5727 106.385 41.6503 106.226 41.7949C105.924 42.0694 105.762 41.7312 105.538 41.6712C105.561 41.5857 105.557 41.4693 105.613 41.4196C105.98 41.0918 106.352 40.7695 106.737 40.4623C107.338 39.9817 107.837 39.4359 108.06 38.6723C108.101 38.5334 108.267 38.431 108.374 38.3117ZM137.958 38.2251C137.946 38.3806 138.098 38.7057 138.187 38.8343C138.241 38.9137 138.277 38.9684 138.31 39.0177C138.501 39.3075 138.727 39.5715 138.976 39.8126L139.206 39.2255C139.134 39.1515 139.067 39.0709 138.997 38.9958C138.784 38.765 138.513 38.4026 138.304 38.1676C138.114 38.034 137.968 38.1126 137.958 38.2251ZM106.309 37.4542C106.385 37.5232 106.458 37.5887 106.531 37.6545C106.476 37.7143 106.429 37.8158 106.366 37.8276C105.805 37.9338 105.241 38.026 104.677 38.1148C104.638 38.1209 104.59 38.0669 104.545 38.0408C104.593 37.9744 104.628 37.8641 104.689 37.8482C105.213 37.7104 105.741 37.5897 106.309 37.4542ZM139.649 36.2095C139.521 36.4462 139.773 36.9066 139.975 37.2584L140.264 36.5192C140.221 36.4631 140.178 36.4071 140.134 36.3511C140.061 36.2571 139.961 36.1838 139.78 36.1487C139.729 36.1389 139.674 36.1637 139.649 36.2095ZM140.141 34.7811C140.165 35.1875 140.4 35.5021 140.572 35.7313L140.825 35.0835L140.895 34.905C140.89 34.8999 140.885 34.8948 140.88 34.8896C140.611 34.6135 140.12 34.4385 140.141 34.7811ZM145.444 17.6838C144.555 18.0152 143.762 18.5078 143.09 19.1737C141.09 21.1569 140.162 23.5763 140.278 26.377C140.332 27.6813 140.714 28.9054 141.493 29.9805C142.715 31.6684 144.699 32.3394 146.691 31.7391C147.748 31.4204 148.664 30.861 149.441 30.0829C151.242 28.2808 152.133 26.0904 152.201 23.8378C152.215 22.0893 151.914 20.7098 151.079 19.4801C149.797 17.5899 147.582 16.8872 145.444 17.6838Z" fill="#1D242F"/>
<path fill-rule="evenodd" clip-rule="evenodd" d="M139.404 36.2595C140.02 38.4563 140.75 39.839 141.592 40.4075C142.434 40.9761 143.59 41.1117 145.06 40.8142L145.355 37.8787L141.985 33.4588C141.668 33.3912 141.464 33.3912 141.372 33.4588C141.175 33.6042 141.163 34.0685 141.022 34.149C140.783 34.2857 140.498 34.4023 140.166 34.4988L139.404 36.2595Z" fill="white"/>
<path fill-rule="evenodd" clip-rule="evenodd" d="M141.051 40.3213C141.075 40.363 141.132 40.3857 141.202 40.4004C141.432 40.4482 141.662 40.2562 141.614 40.0261C141.611 40.0107 141.606 39.996 141.6 39.9819C141.436 39.6105 141.214 39.2655 141.026 38.9041C140.703 38.2851 140.395 37.8742 140.105 37.24C139.9 36.8836 139.615 36.3882 139.749 36.1395C139.773 36.0938 139.828 36.0691 139.879 36.0791C140.059 36.114 140.159 36.1869 140.232 36.2808C140.837 37.0636 141.437 37.851 142.036 38.6388C142.142 38.7775 142.213 38.9573 142.346 39.0559C142.381 39.0813 142.42 39.0995 142.463 39.1132C142.652 39.1744 142.861 39.0599 142.901 38.8653C142.911 38.8144 142.913 38.7661 142.899 38.7234C142.827 38.5093 142.675 38.317 142.535 38.1316C141.94 37.3411 141.322 36.5668 140.743 35.7644C140.574 35.5309 140.266 35.1846 140.238 34.7159C140.218 34.3743 140.706 34.5489 140.974 34.8241C141.272 35.1296 141.31 35.2383 141.526 35.5794C142.009 36.3417 142.499 37.0998 142.999 37.8507C143.154 38.0821 143.325 38.4455 143.663 38.2458C144.024 38.0326 143.746 37.7412 143.604 37.4993C143.53 37.3738 143.443 37.2564 143.365 37.1335C142.833 36.2988 142.291 35.4703 141.777 34.6247C141.647 34.411 141.486 34.1813 141.518 33.911C141.539 33.7378 141.735 33.6469 141.878 33.7468C142.016 33.8426 142.145 33.9493 142.262 34.0693C143.351 35.1896 144.195 36.4894 144.946 37.8475C145.09 38.1069 145.112 38.4631 145.1 38.7716C145.086 39.1458 144.997 39.521 144.908 39.8878C144.684 40.8055 144.458 41.7228 144.231 42.6397C144.467 42.6728 144.703 42.7052 144.938 42.7368C145.172 41.7673 145.405 40.7978 145.64 39.8285C145.762 39.3254 145.876 38.8036 145.825 38.283C145.766 37.6828 145.415 37.2275 145.106 36.7301C144.352 35.5147 143.553 34.3191 142.506 33.3333C142.143 32.9917 141.729 32.8028 141.235 33.0154C140.73 33.2329 140.612 33.6498 140.781 34.1602C139.717 33.7596 139.621 34.3933 139.815 35.2745C139.815 35.2745 139.49 35.2165 139.302 35.3827C139.063 35.595 139.029 36.0916 139.151 36.5026C139.565 37.8924 140.328 39.0951 141.051 40.3213Z" fill="#1D242F"/>
<path fill-rule="evenodd" clip-rule="evenodd" d="M150.823 22.6836C150.823 24.762 150.592 27.6113 146.48 30.5127C149.906 27.053 149.094 23.345 149.094 21.381C149.094 19.417 150.823 20.6051 150.823 22.6836Z" fill="white"/>
<path fill-rule="evenodd" clip-rule="evenodd" d="M120.341 21.2832C120.792 21.4926 121.222 21.4954 121.692 21.3495C121.724 21.3395 121.76 21.3431 121.799 21.355C122.033 21.427 122.105 21.732 121.94 21.9126C121.909 21.9462 121.876 21.9747 121.838 21.9946C121.782 22.0241 121.723 22.0479 121.661 22.0683C121.256 22.2019 120.814 22.1733 120.418 22.0149C120.312 21.9726 120.207 21.9255 120.106 21.8705C120.073 21.852 120.047 21.8183 120.027 21.7764C119.934 21.5879 120.033 21.3497 120.233 21.2865C120.275 21.2733 120.312 21.2697 120.341 21.2832ZM120.631 15.9615C121.703 17.1345 121.564 19.2843 120.35 20.308C119.452 21.0654 118.236 20.9893 117.452 20.1121C116.944 19.5432 116.729 18.8597 116.73 18.1015C116.732 17.2137 117.014 16.4359 117.672 15.8277C118.573 14.9951 119.807 15.0599 120.631 15.9615ZM121.932 15.2107C122.015 15.3906 122.028 15.6044 122.061 15.8053C122.257 16.9849 122.455 18.1641 122.643 19.3448C122.793 20.2808 122.51 20.6571 121.577 20.735C121.544 20.7375 121.512 20.7322 121.478 20.7213C121.253 20.6478 121.167 20.3581 121.313 20.1707C121.327 20.153 121.343 20.137 121.36 20.123C121.494 20.0139 121.674 19.9602 121.9 19.866C121.954 19.8431 121.986 19.7842 121.977 19.7257C121.769 18.4129 121.569 17.152 121.373 15.8902C121.342 15.6901 121.303 15.4801 121.335 15.2856C121.353 15.1759 121.5 15.0228 121.603 15.0099C121.707 14.9969 121.885 15.1084 121.932 15.2107ZM117.564 17.2251C117.333 17.8368 117.351 18.5259 117.63 19.1173C118.174 20.2685 119.328 20.4388 120.087 19.5799C120.436 19.1843 120.596 18.7172 120.66 18.043C120.679 17.8387 120.651 17.6331 120.584 17.4393C120.491 17.1704 120.368 16.8185 120.161 16.5246C119.47 15.5403 118.093 15.8271 117.564 17.2251ZM126.477 15.8588C126.591 16.0995 126.66 16.3607 126.712 16.5886C126.787 16.9236 126.812 17.2691 126.772 17.61C126.69 18.3092 126.495 18.8456 126.108 19.3136C125.19 20.4236 123.727 20.2986 123.112 19.0037C122.546 17.8148 122.626 16.6091 123.439 15.5412C124.336 14.363 125.847 14.5237 126.477 15.8588ZM124.077 15.8733C123.791 16.1818 123.63 16.5379 123.545 16.9776C123.454 17.4531 123.485 17.9475 123.637 18.407C123.674 18.5162 123.718 18.627 123.773 18.7319C124.173 19.4894 124.907 19.5615 125.493 18.9485C126.161 18.2489 126.296 16.806 125.767 16.0097C125.329 15.3498 124.619 15.2871 124.077 15.8733ZM119.953 17.6481C120.051 17.7716 120.16 17.913 120.204 18.0724C120.319 18.489 120.07 18.8657 119.749 18.8486C119.375 18.8288 119.293 18.5305 119.248 18.2414C119.204 17.9669 119.315 17.7036 119.547 17.5693C119.682 17.4911 119.855 17.526 119.953 17.6481ZM124.192 17.0886C124.364 17.1555 124.546 17.3852 124.584 17.5708C124.647 17.8743 124.512 18.2061 124.16 18.2006C124.052 18.1989 123.946 18.0863 123.861 17.984C123.778 17.8843 123.734 17.6014 123.747 17.4724C123.788 17.0594 123.972 17.0033 124.192 17.0886Z" fill="#1D242F"/>
</svg>
