<?xml version="1.0" standalone="no"?>
<!DOCTYPE svg PUBLIC "-//W3C//DTD SVG 1.1//EN" "http://www.w3.org/Graphics/SVG/1.1/DTD/svg11.dtd" >
<svg xmlns="http://www.w3.org/2000/svg">
<metadata>Generated by IcoMoon</metadata>
<defs>
<font id="icomoon" horiz-adv-x="1024">
<font-face units-per-em="1024" ascent="960" descent="-64" />
<missing-glyph horiz-adv-x="1024" />
<glyph unicode="&#x20;" horiz-adv-x="512" d="" />
<glyph unicode="&#xe900;" glyph-name="pdf" horiz-adv-x="768" d="M364 448c-2.667 9.335-4.666 21.666-6 37.001s-2 28.668-2 40c0 11.333 1.333 16.999 4 16.999 8 0 12-13.334 12-40.001s-2.667-44.663-8-53.999zM360 354.001c18.667-34.667 42-61.999 69.999-82.001-15.999-2.667-57.999-17.331-125.999-43.998 17.333 32 36 73.997 56 125.999zM172 104c5.333 14.669 28.666 41.331 70 80-8-13.333-16-24.998-24-34.999s-14.667-18.001-20-24c-5.333-5.999-10-10.667-14-13.999-4-3.337-7-5.333-9-6.003-2-0.666-3-0.998-3-0.998zM496 640h272v-656c0-13.333-4.668-24.666-13.999-34.001-9.335-9.331-20.668-13.999-34.001-13.999h-672c-13.333 0-24.667 4.668-34 13.999-9.333 9.335-14 20.668-14 34.001v928c0 13.333 4.667 24.667 14 34s20.667 14 34 14h400v-272c0-13.333 4.668-24.666 13.999-34 9.335-9.333 20.668-14 34.001-14zM480 296c-38.669 24-67.333 59.998-86 108.002 16 62.665 20.666 105.331 14 128-4 18.665-13 31.665-27 38.998s-28.333 8.334-43 3c-14.667-5.333-23.334-14.666-26-28-8-29.332-2.667-80.665 16-154-30.667-72-58-129.331-82-172.002-38.667-18.667-70.666-40.666-96-65.997-25.333-25.335-30-48.666-14-69.999 10.667-13.338 25.333-20.002 44-20.002 33.333 0 74 41.331 122 123.998 82.667 26.671 135.334 42.001 157.998 46.003 48.004-25.335 90.667-37.999 128-37.999 26.671 0 43.337 11.332 50.001 33.997 6.669 22.669 3.337 40-9.997 52.002-21.338 19.998-70.669 24.666-148.002 13.999zM754.001 750c9.331-9.333 13.999-20.666 13.999-34v-12h-256v256h11.998c13.338 0 24.67-4.667 34.001-14l196.002-196zM605.999 240c-8-9.335-36.663-3.332-85.999 18.001 57.335 1.331 85.999-4.668 85.999-18.001z" />
<glyph unicode="&#xe901;" glyph-name="add" d="M512 704c23.565 0 42.667-19.103 42.667-42.667v-426.667c0-23.565-19.102-42.667-42.667-42.667s-42.667 19.102-42.667 42.667v426.667c0 23.564 19.102 42.667 42.667 42.667zM256 448c0 23.565 19.103 42.667 42.667 42.667h426.667c23.565 0 42.667-19.102 42.667-42.667s-19.102-42.667-42.667-42.667h-426.667c-23.564 0-42.667 19.102-42.667 42.667z" />
<glyph unicode="&#xe902;" glyph-name="arrow_down" d="M712.836 563.503c16.661-16.663 16.661-43.678 0-60.34l-170.667-170.667c-16.661-16.661-43.678-16.661-60.339 0l-170.667 170.667c-16.662 16.661-16.662 43.677 0 60.34s43.677 16.662 60.34 0l140.497-140.497 140.497 140.497c16.661 16.662 43.678 16.662 60.339 0z" />
<glyph unicode="&#xe903;" glyph-name="arrow_right" d="M396.497 648.837c16.663 16.662 43.678 16.662 60.34 0l170.667-170.667c16.661-16.661 16.661-43.678 0-60.339l-170.667-170.667c-16.661-16.661-43.677-16.661-60.34 0s-16.662 43.678 0 60.339l140.497 140.497-140.497 140.497c-16.662 16.663-16.662 43.677 0 60.34z" />
<glyph unicode="&#xe904;" glyph-name="close" d="M712.836 648.837c16.661-16.663 16.661-43.677 0-60.34l-341.333-341.333c-16.663-16.661-43.677-16.661-60.34 0s-16.662 43.678 0 60.339l341.334 341.334c16.661 16.662 43.678 16.662 60.339 0zM311.163 648.837c16.663 16.662 43.677 16.662 60.34 0l341.333-341.334c16.661-16.661 16.661-43.678 0-60.339s-43.678-16.661-60.339 0l-341.334 341.333c-16.662 16.663-16.662 43.677 0 60.34z" />
<glyph unicode="&#xe905;" glyph-name="resize" d="M286.17 247.164c-16.663 16.661-16.663 43.678 0 60.339l366.327 366.327c16.661 16.663 43.678 16.663 60.339 0s16.661-43.677 0-60.34l-366.327-366.327c-16.662-16.661-43.677-16.661-60.34 0zM542.17 247.164c-16.661 16.661-16.661 43.678 0 60.339l110.327 110.327c16.661 16.661 43.678 16.661 60.339 0s16.661-43.678 0-60.339l-110.327-110.327c-16.661-16.661-43.678-16.661-60.339 0z" />
<glyph unicode="&#xe906;" glyph-name="camera_solid" d="M896 768h-170.667l-85.333 128h-256l-85.333-128h-170.667c-33.948 0-66.505-13.486-90.51-37.49s-37.49-56.562-37.49-90.51v-512c0-33.946 13.486-66.505 37.49-90.509s56.562-37.491 90.51-37.491h768c33.946 0 66.505 13.487 90.509 37.491s37.491 56.563 37.491 90.509v512c0 33.948-13.487 66.505-37.491 90.51s-56.563 37.49-90.509 37.49zM512 170.667c-42.193 0-83.439 12.51-118.522 35.955-35.083 23.441-62.426 56.759-78.573 95.74s-20.371 81.873-12.14 123.26c8.232 41.382 28.55 79.393 58.385 109.228s67.846 50.153 109.228 58.385c41.387 8.231 84.279 4.007 123.26-12.14s72.299-43.49 95.74-78.573c23.445-35.083 35.955-76.329 35.955-118.522 0-56.58-22.477-110.844-62.485-150.848-40.004-40.009-94.268-62.485-150.848-62.485z" />
<glyph unicode="&#xe907;" glyph-name="delete_solid" d="M128 618.667v-554.667c0-33.946 13.486-66.505 37.49-90.509s56.562-37.491 90.51-37.491h512c33.946 0 66.505 13.487 90.509 37.491s37.491 56.563 37.491 90.509v554.667h-768zM384 149.333h-85.333v298.667h85.333v-298.667zM554.667 149.333h-85.333v298.667h85.333v-298.667zM725.333 149.333h-85.333v298.667h85.333v-298.667zM981.333 789.333h-256v128c0 11.316-4.497 22.168-12.497 30.17s-18.854 12.497-30.17 12.497h-341.333c-11.316 0-22.168-4.495-30.17-12.497s-12.497-18.854-12.497-30.17v-128h-256c-11.316 0-22.168-4.495-30.17-12.497s-12.497-18.854-12.497-30.17c0-11.316 4.495-22.168 12.497-30.17s18.854-12.497 30.17-12.497h938.667c11.315 0 22.17 4.495 30.17 12.497s12.497 18.854 12.497 30.17c0 11.316-4.497 22.168-12.497 30.17s-18.854 12.497-30.17 12.497zM384 874.667h256v-85.333h-256v85.333z" />
<glyph unicode="&#xe908;" glyph-name="edit_solid" d="M968.832 734.174l-170.667 170.667c-8 7.999-18.85 12.492-30.165 12.492s-22.165-4.494-30.165-12.492l-119.168-119.168 230.997-230.997 119.168 119.168c8 8.001 12.493 18.852 12.493 30.165s-4.493 22.164-12.493 30.165zM558.345 725.333l-417.834-417.835c-4.675-4.689-8.196-10.398-10.283-16.683l-85.333-256c-2.135-6.413-2.717-13.235-1.699-19.917s3.61-13.022 7.559-18.505c3.95-5.483 9.145-9.95 15.158-13.030s12.672-4.693 19.43-4.698c4.585 0 9.139 0.751 13.483 2.219l256 85.333c6.283 2.086 11.995 5.606 16.683 10.283l417.834 417.835-230.997 230.997z" />
<glyph unicode="&#xe909;" glyph-name="home_solid" d="M1008.337 523.697l-469.333 384c-7.625 6.232-17.165 9.636-27.008 9.636-9.847 0-19.388-3.404-27.008-9.636l-469.335-384c-8.562-7.224-13.94-17.526-14.971-28.681s2.365-22.269 9.458-30.939c7.092-8.674 17.31-14.208 28.448-15.411 11.138-1.199 22.302 2.027 31.081 8.986l58.325 47.699v-484.009c0-11.319 4.495-22.17 12.497-30.174 8.001-8 18.854-12.493 30.17-12.493h256v256h170.668v-256h256c11.315 0 22.165 4.493 30.17 12.493 8 8.004 12.497 18.854 12.497 30.174v484.009l58.325-47.699c4.322-3.652 9.331-6.404 14.729-8.098s11.081-2.3 16.713-1.779c5.636 0.521 11.11 2.159 16.102 4.813 4.996 2.658 9.417 6.281 12.996 10.662 3.584 4.378 6.259 9.429 7.872 14.852 1.609 5.423 2.129 11.11 1.519 16.737-0.606 5.626-2.325 11.074-5.060 16.029-2.731 4.954-6.421 9.315-10.854 12.83z" />
<glyph unicode="&#xe90a;" glyph-name="image_solid" d="M981.333 874.667h-938.667c-11.316 0-22.168-4.495-30.17-12.497s-12.497-18.854-12.497-30.17v-768c0-11.315 4.495-22.17 12.497-30.17s18.854-12.497 30.17-12.497h938.667c11.315 0 22.17 4.497 30.17 12.497s12.497 18.854 12.497 30.17v768c0 11.316-4.497 22.168-12.497 30.17s-18.854 12.497-30.17 12.497zM938.667 789.333v-439.467l-180.949 211.2c-3.977 4.651-8.909 8.391-14.46 10.968s-11.593 3.929-17.711 3.965c-6.17 0.419-12.348-0.694-17.98-3.24-5.636-2.546-10.556-6.446-14.319-11.352l-268.8-306.987-138.283 138.411c-4.167 4.224-9.179 7.522-14.708 9.677s-11.45 3.115-17.377 2.825c-5.921-0.265-11.721-1.758-17.033-4.39-5.311-2.628-10.016-6.336-13.815-10.884l-137.899-165.547v564.821h853.333z" />
<glyph unicode="&#xe90b;" glyph-name="link_solid" horiz-adv-x="853" d="M810.667 960h-768c-11.316 0-22.168-4.495-30.17-12.497s-12.497-18.854-12.497-30.17v-938.667c0-11.315 4.495-22.17 12.497-30.17s18.854-12.497 30.17-12.497h768c11.315 0 22.17 4.497 30.17 12.497s12.497 18.854 12.497 30.17v938.667c0 11.316-4.497 22.168-12.497 30.17s-18.854 12.497-30.17 12.497v0zM597.333 277.333c0-45.265-17.98-88.674-49.988-120.678-32.004-32.009-75.413-49.988-120.678-49.988s-88.673 17.98-120.68 49.988c-32.006 32.004-49.987 75.413-49.987 120.678v128h85.333v-128c0-22.63 8.99-44.335 24.994-60.339s37.708-24.994 60.34-24.994c22.63 0 44.335 8.99 60.339 24.994s24.994 37.709 24.994 60.339v128h85.333v-128zM384 362.667v170.667c0 11.316 4.495 22.168 12.497 30.17s18.854 12.497 30.17 12.497c11.315 0 22.17-4.495 30.17-12.497s12.497-18.854 12.497-30.17v-170.667c0-11.315-4.497-22.17-12.497-30.17s-18.854-12.497-30.17-12.497c-11.316 0-22.168 4.497-30.17 12.497s-12.497 18.854-12.497 30.17zM597.333 490.667h-85.333v128c0 22.632-8.99 44.337-24.994 60.34s-37.709 24.994-60.339 24.994c-22.632 0-44.337-8.99-60.34-24.994s-24.994-37.708-24.994-60.34v-128h-85.333v128c0 45.264 17.981 88.673 49.987 120.68s75.416 49.987 120.68 49.987c45.265 0 88.674-17.981 120.678-49.987 32.009-32.006 49.988-75.416 49.988-120.68v-128z" />
<glyph unicode="&#xe90c;" glyph-name="linkedin_solid" d="M981.333 960h-938.667c-25.6 0-42.667-17.067-42.667-42.667v-938.667c0-25.6 17.067-42.667 42.667-42.667h938.667c25.6 0 42.667 17.067 42.667 42.667v938.667c0 25.6-17.067 42.667-42.667 42.667zM302.933 85.333h-149.333v490.667h153.6v-490.667h-4.267zM226.133 644.267c-46.933 0-89.6 38.4-89.6 89.6 0 46.933 38.4 89.6 89.6 89.6 46.933 0 89.6-38.4 89.6-89.6s-38.4-89.6-89.6-89.6zM874.667 85.333h-153.6v238.933c0 55.467 0 128-76.8 128-81.067 0-89.6-59.733-89.6-123.733v-243.2h-153.6v490.667h145.067v-68.267c21.333 38.4 68.267 76.8 145.067 76.8 153.6 0 183.467-102.4 183.467-234.667v-264.533z" />
<glyph unicode="&#xe90d;" glyph-name="notify_solid" horiz-adv-x="853" d="M767.983 448.243c1.25-97.681 28.574-193.25 79.147-276.821 3.917-6.473 6.046-13.867 6.165-21.431 0.119-7.561-1.775-15.019-5.487-21.611s-9.109-12.075-15.637-15.893c-6.528-3.819-13.956-5.833-21.521-5.833h-767.999c-7.564 0-14.991 2.014-21.521 5.833s-11.927 9.301-15.639 15.893c-3.712 6.592-5.605 14.050-5.486 21.611 0.119 7.565 2.247 14.959 6.165 21.431 50.614 83.648 77.94 179.311 79.147 277.077v169.897c0 90.528 35.962 177.347 99.974 241.359s150.832 99.974 241.359 99.974c90.529 0 177.347-35.962 241.36-99.974s99.972-150.832 99.972-241.359v-170.153zM517.171-26.483c-13.423-13.423-29.666-23.693-47.548-30.063-15.834-5.645-32.623-8.115-49.412-7.266-16.788 0.845-33.245 4.992-48.432 12.198s-28.804 17.335-40.076 29.803c-11.273 12.471-19.978 27.038-25.62 42.876h241.151c-6.37-17.886-16.64-34.125-30.063-47.548z" />
<glyph unicode="&#xe90e;" glyph-name="play_solid" d="M512 960c-282.325 0-512-229.675-512-512s229.675-512 512-512c282.325 0 512 229.675 512 512s-229.675 512-512 512zM384 234.667v426.667l341.333-213.333-341.333-213.333z" />
<glyph unicode="&#xe90f;" glyph-name="profile_access_solid" d="M512 789.333c47.13 0 85.333 38.205 85.333 85.333s-38.204 85.333-85.333 85.333c-47.13 0-85.333-38.205-85.333-85.333s38.204-85.333 85.333-85.333zM938.667 533.333c47.13 0 85.333 38.205 85.333 85.333s-38.204 85.333-85.333 85.333c-47.13 0-85.333-38.205-85.333-85.333s38.204-85.333 85.333-85.333zM170.667 618.667c0-47.128-38.205-85.333-85.333-85.333s-85.333 38.205-85.333 85.333c0 47.128 38.205 85.333 85.333 85.333s85.333-38.205 85.333-85.333zM213.333-64v99.115c0 51.669 30.763 98.389 78.507 118.144 48.171 19.968 120.064 38.741 220.16 38.741s171.989-18.773 220.16-38.741c47.744-19.755 78.507-66.475 78.507-118.144v-99.115h-597.333zM512 618.667c-94.251 0-170.667-76.416-170.667-170.667s76.416-213.333 170.667-213.333c94.251 0 170.667 119.083 170.667 213.333s-76.416 170.667-170.667 170.667z" />
<glyph unicode="&#xe910;" glyph-name="profile_search_solid" d="M469.333 490.667c70.694 0 128 57.308 128 128s-57.306 128-128 128c-70.692 0-128-57.308-128-128s57.308-128 128-128zM256 323.584v-46.251h426.667v46.251c0 27.861-13.44 53.931-36.309 69.931-34.944 24.405-94.72 54.485-177.024 54.485s-142.080-30.080-177.024-54.485c-22.869-15.957-36.309-42.027-36.309-69.931zM1011.499 8.832l-181.717 181.717c67.883 81.451 108.885 186.069 108.885 300.117 0 258.773-210.56 469.333-469.333 469.333s-469.333-210.56-469.333-469.333c0-258.773 210.56-469.333 469.333-469.333 114.048 0 218.667 41.003 300.117 108.885l181.717-181.717c8.32-8.32 19.243-12.501 30.165-12.501s21.845 4.181 30.165 12.501c16.683 16.683 16.683 43.648 0 60.331zM85.333 490.667c0 211.712 172.245 384 384 384s384-172.288 384-384c0-211.712-172.245-384-384-384s-384 172.288-384 384z" />
<glyph unicode="&#xe911;" glyph-name="question_solid" d="M512 960c-282.325 0-512-229.675-512-512s229.675-512 512-512c282.325 0 512 229.675 512 512s-229.675 512-512 512zM490.667 149.333c-35.328 0-64 28.672-64 64s28.672 64 64 64c35.328 0 64-28.672 64-64s-28.672-64-64-64zM674.603 527.915c-13.184-21.12-38.229-44.843-75.179-71.211-59.776-44.203-58.155-54.016-58.155-94.037h-104.832c0 31.275-0.683 55.296 16.213 84.523 10.795 18.731 30.592 38.656 59.349 59.733 34.517 24.661 68.053 48.427 68.053 89.813 0 38.784-33.195 52.608-71.979 52.608-39.552 0-84.651-12.928-135.296-38.784l-43.136 86.613c92.032 51.584 237.269 74.923 316.672 10.283 58.283-47.488 58.624-130.987 28.288-179.541z" />
<glyph unicode="&#xe912;" glyph-name="search_solid" d="M983.927 66.611l-244.608 244.608c56.004 78.707 80.388 175.586 68.326 271.428-12.066 95.843-59.703 183.654-133.47 246.025-73.762 62.372-168.269 94.752-264.785 90.72-96.515-4.031-187.992-44.179-256.299-112.485s-108.454-159.784-112.485-256.299c-4.031-96.517 28.348-191.023 90.72-264.785 62.372-73.766 150.182-121.404 246.025-133.47 95.842-12.062 192.721 12.322 271.428 68.326l244.608-244.608 90.539 90.539zM127.993 533.341c0 59.071 17.516 116.815 50.334 165.931s79.463 87.396 134.037 110.001c54.574 22.605 114.627 28.52 172.564 16.996 57.933-11.524 111.151-39.969 152.922-81.739 41.766-41.769 70.212-94.987 81.737-152.922s5.611-117.987-16.994-172.561c-22.605-54.575-60.885-101.218-110.003-134.037-49.114-32.819-106.859-50.334-165.929-50.334-79.184 0.090-155.098 31.586-211.089 87.578s-87.487 131.904-87.577 211.088z" />
<glyph unicode="&#xe913;" glyph-name="text_solid" horiz-adv-x="853" d="M170.667-64v85.333l106.030 26.509c37.988 9.493 64.637 43.627 64.637 82.786v701.372h-151.828c-36.73 0-69.339-23.503-80.954-58.348l-23.217-69.652h-85.333v256h853.333v-256h-85.333l-23.215 69.652c-11.618 34.845-44.228 58.348-80.956 58.348h-151.829v-701.372c0-39.159 26.65-73.293 64.636-82.786l106.031-26.509v-85.333h-512z" />
<glyph unicode="&#xe914;" glyph-name="upload_solid" d="M847.872 508.757c-29.141 171.989-179.456 301.909-357.205 301.909-183.637 0-336.043-136.363-359.211-315.563-78.763-32.64-131.456-109.525-131.456-196.437 0-117.632 95.701-213.333 213.333-213.333h597.333c117.632 0 213.333 95.701 213.333 213.333 0 104.96-76.16 192.469-176.128 210.091zM554.667 384v-170.667h-85.333v170.667h-170.667l213.333 213.333 213.333-213.333h-170.667z" />
<glyph unicode="&#xe915;" glyph-name="video_solid" d="M1024 704l-256-128v128c0 33.948-13.487 66.505-37.491 90.51s-56.563 37.49-90.509 37.49h-512c-33.948 0-66.505-13.486-90.51-37.49s-37.49-56.562-37.49-90.51v-512c0-33.946 13.486-66.505 37.49-90.509s56.562-37.491 90.51-37.491h512c33.946 0 66.505 13.487 90.509 37.491s37.491 56.563 37.491 90.509v128l256-128v512z" />
<glyph unicode="&#xe916;" glyph-name="view_solid" d="M1017.463 470.699c-8.192 13.013-203.776 318.635-505.472 318.635-301.697 0-497.281-305.621-505.473-318.635-4.272-6.8-6.539-14.668-6.539-22.699s2.267-15.898 6.539-22.699c8.192-13.013 203.776-318.635 505.473-318.635s497.28 305.621 505.472 318.635c4.271 6.8 6.537 14.668 6.537 22.699s-2.266 15.898-6.537 22.699zM511.991 277.333c-33.758 0-66.752 10.010-94.819 28.762s-49.941 45.41-62.858 76.594c-12.917 31.185-16.297 65.501-9.712 98.607s22.839 63.516 46.708 87.384c23.868 23.868 54.279 40.122 87.384 46.708s67.422 3.206 98.607-9.712c31.185-12.917 57.839-34.792 76.591-62.858 18.756-28.066 28.766-61.062 28.766-94.817 0-45.264-17.984-88.674-49.988-120.678-32.009-32.009-75.418-49.988-120.678-49.988z" />
<glyph unicode="&#xe917;" glyph-name="briefcase_outline" d="M298.667 917.333c0 23.564 19.103 42.667 42.667 42.667h341.333c23.565 0 42.667-19.103 42.667-42.667v-170.667c0-23.564-19.102-42.667-42.667-42.667s-42.667 19.103-42.667 42.667v128h-256v-128c0-23.564-19.103-42.667-42.667-42.667s-42.667 19.103-42.667 42.667v170.667zM0 746.667c0 23.564 19.103 42.667 42.667 42.667h938.667c23.565 0 42.667-19.103 42.667-42.667v-426.667c0-23.565-19.102-42.667-42.667-42.667h-341.333c-23.565 0-42.667 19.102-42.667 42.667s19.102 42.667 42.667 42.667h298.667v341.333h-853.333v-341.333h298.667c23.564 0 42.667-19.102 42.667-42.667s-19.102-42.667-42.667-42.667h-341.333c-23.564 0-42.667 19.102-42.667 42.667v426.667zM85.333 234.667c23.564 0 42.667-19.102 42.667-42.667v-170.667h768v170.667c0 23.565 19.102 42.667 42.667 42.667s42.667-19.102 42.667-42.667v-213.333c0-23.565-19.102-42.667-42.667-42.667h-853.333c-23.564 0-42.667 19.102-42.667 42.667v213.333c0 23.565 19.103 42.667 42.667 42.667zM341.333 405.333c0 23.565 19.103 42.667 42.667 42.667h256c23.565 0 42.667-19.102 42.667-42.667v-170.667c0-23.565-19.102-42.667-42.667-42.667h-256c-23.564 0-42.667 19.102-42.667 42.667v170.667zM426.667 362.667v-85.333h170.667v85.333h-170.667z" />
<glyph unicode="&#xe918;" glyph-name="camera_outline" d="M512 576c-94.257 0-170.667-76.412-170.667-170.667s76.41-170.667 170.667-170.667c94.255 0 170.667 76.412 170.667 170.667s-76.412 170.667-170.667 170.667zM256 405.333c0 141.385 114.615 256 256 256s256-114.615 256-256c0-141.385-114.615-256-256-256s-256 114.615-256 256zM348.499 898.334c7.913 11.87 21.235 18.999 35.501 18.999h256c14.268 0 27.588-7.13 35.503-18.999l72.666-109.001h147.831c33.95 0 66.505-13.486 90.509-37.49s37.491-56.562 37.491-90.51v-554.667c0-33.95-13.487-66.505-37.491-90.509s-56.559-37.491-90.509-37.491h-768c-33.948 0-66.505 13.487-90.51 37.491s-37.49 56.559-37.49 90.509v554.667c0 33.948 13.486 66.505 37.49 90.51s56.562 37.49 90.51 37.49h147.832l72.667 109.001zM406.834 832l-72.667-109.001c-7.913-11.87-21.235-18.999-35.501-18.999h-170.667c-11.316 0-22.168-4.495-30.17-12.497s-12.497-18.854-12.497-30.17v-554.667c0-11.315 4.495-22.17 12.497-30.17s18.854-12.497 30.17-12.497h768c11.315 0 22.17 4.497 30.17 12.497s12.497 18.854 12.497 30.17v554.667c0 11.316-4.497 22.168-12.497 30.17s-18.854 12.497-30.17 12.497h-170.667c-14.268 0-27.588 7.13-35.503 18.999l-72.666 109.001h-210.33zM213.333 618.667c0-23.564-19.103-42.667-42.667-42.667s-42.667 19.103-42.667 42.667c0 23.564 19.103 42.667 42.667 42.667s42.667-19.103 42.667-42.667z" />
<glyph unicode="&#xe919;" glyph-name="delete_outline" d="M170.667 618.667c23.564 0 42.667-19.103 42.667-42.667v-512c0-11.315 4.495-22.17 12.497-30.17s18.854-12.497 30.17-12.497h512c11.315 0 22.17 4.497 30.17 12.497s12.497 18.854 12.497 30.17v512c0 23.564 19.102 42.667 42.667 42.667s42.667-19.103 42.667-42.667v-512c0-33.95-13.487-66.505-37.491-90.509s-56.559-37.491-90.509-37.491h-512c-33.948 0-66.505 13.487-90.51 37.491s-37.49 56.563-37.49 90.509v512c0 23.564 19.103 42.667 42.667 42.667zM0 746.667c0 23.564 19.103 42.667 42.667 42.667h938.667c23.565 0 42.667-19.103 42.667-42.667s-19.102-42.667-42.667-42.667h-938.667c-23.564 0-42.667 19.103-42.667 42.667zM512 490.667c23.565 0 42.667-19.102 42.667-42.667v-256c0-23.565-19.102-42.667-42.667-42.667s-42.667 19.102-42.667 42.667v256c0 23.565 19.102 42.667 42.667 42.667zM341.333 490.667c23.564 0 42.667-19.102 42.667-42.667v-256c0-23.565-19.103-42.667-42.667-42.667s-42.667 19.102-42.667 42.667v256c0 23.565 19.103 42.667 42.667 42.667zM682.667 490.667c23.565 0 42.667-19.102 42.667-42.667v-256c0-23.565-19.102-42.667-42.667-42.667s-42.667 19.102-42.667 42.667v256c0 23.565 19.102 42.667 42.667 42.667zM298.667 917.333c0 23.564 19.103 42.667 42.667 42.667h341.333c23.565 0 42.667-19.103 42.667-42.667v-170.667c0-23.564-19.102-42.667-42.667-42.667s-42.667 19.103-42.667 42.667v128h-256v-128c0-23.564-19.103-42.667-42.667-42.667s-42.667 19.103-42.667 42.667v170.667z" />
<glyph unicode="&#xe91a;" glyph-name="edit_outline" d="M581.163 790.836c16.661 16.663 43.678 16.663 60.339 0l213.333-213.333c16.666-16.662 16.666-43.677 0-60.34-16.661-16.661-43.678-16.661-60.339 0l-213.333 213.334c-16.661 16.662-16.661 43.677 0 60.34zM730.496 819.487c0-0.002 0 0.001 0 0l-562.657-562.659-30.599-183.59 183.593 30.596 562.658 562.66c0 0.001 0-0.002 0 0 7.996 8.001 12.493 18.854 12.493 30.165s-4.493 22.16-12.489 30.161zM790.822 819.491c0 0.002 0-0.001 0 0l92.672-92.672zM790.822 819.491c-8 7.996-18.85 12.488-30.161 12.488s-22.165-4.496-30.165-12.492zM670.165 879.836c24.004 23.997 56.555 37.477 90.496 37.477s66.492-13.48 90.496-37.477l92.676-92.676c23.996-24.004 37.483-56.56 37.483-90.501s-13.483-66.493-37.478-90.496l-572.334-572.337c-6.288-6.285-14.384-10.453-23.156-11.917l-256-42.667c-13.592-2.261-27.441 2.176-37.184 11.917-9.744 9.745-14.182 23.595-11.916 37.184l42.667 256c1.462 8.772 5.628 16.87 11.916 23.155l572.335 572.337z" />
<glyph unicode="&#xe91b;" glyph-name="home_outline" d="M485.346 907.984c15.582 12.466 37.726 12.466 53.308 0l426.667-341.333c10.121-8.097 16.013-20.356 16.013-33.317v-554.667c0-23.565-19.102-42.667-42.667-42.667h-298.667c-23.565 0-42.667 19.102-42.667 42.667v256h-170.667v-256c0-23.565-19.103-42.667-42.667-42.667h-298.667c-23.564 0-42.667 19.102-42.667 42.667v554.667c0 12.961 5.892 25.22 16.013 33.317l426.667 341.333zM128 512.828v-491.494h213.333v256c0 23.565 19.103 42.667 42.667 42.667h256c23.565 0 42.667-19.102 42.667-42.667v-256h213.333v491.494l-384 307.199-384-307.199z" />
<glyph unicode="&#xe91c;" glyph-name="image_outline" d="M725.551 576c12.382-0.063 24.124-5.5 32.179-14.899l256-298.666c15.334-17.89 13.261-44.826-4.629-60.164-17.89-15.334-44.826-13.261-60.16 4.629l-223.94 261.261-266.223-304.256c-7.778-8.887-18.889-14.153-30.69-14.545-11.802-0.397-23.24 4.122-31.59 12.471l-137.63 137.63-183.423-220.109c-15.086-18.103-41.99-20.548-60.092-5.461-18.102 15.083-20.548 41.988-5.463 60.092l213.333 256c7.674 9.207 18.869 14.763 30.844 15.309 11.975 0.542 23.627-3.977 32.103-12.454l138.418-138.419 268.633 307.012c8.154 9.317 19.951 14.633 32.329 14.57zM0 832c0 23.564 19.103 42.667 42.667 42.667h938.667c23.565 0 42.667-19.103 42.667-42.667v-768c0-23.565-19.102-42.667-42.667-42.667h-938.667c-23.564 0-42.667 19.102-42.667 42.667v768zM85.333 789.333v-682.667h853.333v682.667h-853.333zM384 661.333c-23.564 0-42.667-19.103-42.667-42.667s19.103-42.667 42.667-42.667c23.564 0 42.667 19.103 42.667 42.667s-19.103 42.667-42.667 42.667zM256 618.667c0 70.692 57.308 128 128 128 70.694 0 128-57.308 128-128s-57.306-128-128-128c-70.692 0-128 57.308-128 128z" />
<glyph unicode="&#xe91d;" glyph-name="link_outline" d="M85.333 917.333c0 23.564 19.103 42.667 42.667 42.667h768c23.565 0 42.667-19.103 42.667-42.667v-938.667c0-23.565-19.102-42.667-42.667-42.667h-768c-23.564 0-42.667 19.102-42.667 42.667v938.667zM170.667 874.667v-853.333h682.667v853.333h-682.667zM512 704c-22.63 0-44.335-8.99-60.339-24.994s-24.994-37.708-24.994-60.34v-85.333c0-23.565-19.103-42.667-42.667-42.667s-42.667 19.102-42.667 42.667v85.333c0 45.264 17.981 88.673 49.987 120.68s75.415 49.987 120.68 49.987c45.265 0 88.674-17.981 120.678-49.987 32.009-32.006 49.988-75.416 49.988-120.68v-85.333c0-23.565-19.102-42.667-42.667-42.667s-42.667 19.102-42.667 42.667v85.333c0 22.632-8.99 44.337-24.994 60.34s-37.709 24.994-60.339 24.994zM384 405.333c23.564 0 42.667-19.102 42.667-42.667v-85.333c0-22.63 8.99-44.335 24.994-60.339s37.709-24.994 60.339-24.994c22.63 0 44.335 8.99 60.339 24.994s24.994 37.709 24.994 60.339v85.333c0 23.565 19.102 42.667 42.667 42.667s42.667-19.102 42.667-42.667v-85.333c0-45.265-17.98-88.674-49.988-120.678-32.004-32.009-75.413-49.988-120.678-49.988s-88.673 17.98-120.68 49.988c-32.006 32.004-49.987 75.413-49.987 120.678v85.333c0 23.565 19.103 42.667 42.667 42.667zM512 576c23.565 0 42.667-19.103 42.667-42.667v-170.667c0-23.565-19.102-42.667-42.667-42.667s-42.667 19.102-42.667 42.667v170.667c0 23.564 19.102 42.667 42.667 42.667z" />
<glyph unicode="&#xe91e;" glyph-name="notify_outline" d="M270.641 860.026c64.012 64.013 150.832 99.974 241.359 99.974 90.526 0 177.348-35.962 241.361-99.974 64.009-64.012 99.972-150.832 99.972-241.359v-213.073c1.22-97.681 28.553-193.263 79.164-276.826 7.979-13.175 8.235-29.628 0.674-43.046s-21.769-21.722-37.171-21.722h-768c-15.403 0-29.611 8.303-37.172 21.722s-7.302 29.871 0.677 43.046c50.609 83.563 77.941 179.145 79.162 276.826v213.073c0 90.527 35.962 177.347 99.974 241.359zM512 874.667c-67.895 0-133.010-26.971-181.019-74.981s-74.981-113.124-74.981-181.019v-213.845c-1.065-88.491-20.672-175.488-57.236-255.488h626.474c-36.565 80-56.171 166.997-57.233 255.488l-0.009 0.512 0.004 213.333c0 67.895-26.97 133.010-74.982 181.019-48.009 48.009-113.122 74.981-181.018 74.981zM391.417 21.333c8.866-24.883 25.214-46.417 46.8-61.641 21.589-15.228 47.36-23.403 73.775-23.403 26.419 0 52.19 8.175 73.775 23.403 21.589 15.223 37.935 36.757 46.801 61.641h-241.151z" />
<glyph unicode="&#xe91f;" glyph-name="play_outline" d="M512 874.667c-235.642 0-426.667-191.025-426.667-426.667 0-235.639 191.025-426.667 426.667-426.667 235.639 0 426.667 191.027 426.667 426.667 0 235.642-191.027 426.667-426.667 426.667zM0 448c0 282.77 229.23 512 512 512s512-229.23 512-512c0-282.769-229.231-512-512-512s-512 229.231-512 512zM406.534 656.285c13.873 7.425 30.705 6.611 43.8-2.117l256-170.669c11.87-7.91 18.999-21.231 18.999-35.499s-7.13-27.588-18.999-35.503l-256-170.667c-13.094-8.725-29.926-9.54-43.8-2.116s-22.534 21.884-22.534 37.619v341.333c0 15.735 8.66 30.193 22.534 37.618zM469.333 538.943v-181.887l136.414 90.944-136.414 90.943z" />
<glyph unicode="&#xe920;" glyph-name="profile_access_outline" d="M442.611 205.171c9.306-21.649-0.7-46.741-22.348-56.047l-138.365-59.477c-0.001 0 0.001 0 0 0-15.724-6.763-25.898-22.217-25.898-39.266v-29.056h512v29.056c0 17.054-10.167 32.474-25.83 39.194-0.009 0.004 0.009 0 0 0l-138.679 59.209c-21.67 9.254-31.735 34.321-22.485 55.996 9.254 21.67 34.321 31.735 55.996 22.485l138.761-59.243c47.044-20.164 77.572-66.432 77.572-117.641v-71.723c0-23.565-19.102-42.667-42.667-42.667h-597.333c-23.564 0-42.667 19.102-42.667 42.667v71.723c0 51.217 30.532 97.459 77.526 117.662l138.371 59.477c21.649 9.306 46.742-0.7 56.047-22.349zM512 874.667c-23.565 0-42.667-19.103-42.667-42.667s19.102-42.667 42.667-42.667c23.565 0 42.667 19.103 42.667 42.667s-19.102 42.667-42.667 42.667zM384 832c0 70.692 57.306 128 128 128s128-57.308 128-128c0-70.692-57.306-128-128-128s-128 57.308-128 128zM896 661.333c-23.565 0-42.667-19.103-42.667-42.667s19.102-42.667 42.667-42.667c23.565 0 42.667 19.103 42.667 42.667s-19.102 42.667-42.667 42.667zM768 618.667c0 70.692 57.306 128 128 128s128-57.308 128-128c0-70.692-57.306-128-128-128s-128 57.308-128 128zM128 661.333c-23.564 0-42.667-19.103-42.667-42.667s19.103-42.667 42.667-42.667c23.564 0 42.667 19.103 42.667 42.667s-19.103 42.667-42.667 42.667zM0 618.667c0 70.692 57.308 128 128 128s128-57.308 128-128c0-70.692-57.308-128-128-128s-128 57.308-128 128zM512 490.667c-70.686 0-128-57.314-128-128v-42.667c0-70.686 57.314-128 128-128s128 57.314 128 128v42.667c0 70.686-57.314 128-128 128zM298.667 362.667c0 117.815 95.519 213.333 213.333 213.333s213.333-95.518 213.333-213.333v-42.667c0-117.815-95.518-213.333-213.333-213.333s-213.333 95.518-213.333 213.333v42.667z" />
<glyph unicode="&#xe921;" glyph-name="profile_search_outline" d="M740.851 219.149c16.661 16.661 43.678 16.661 60.339 0l210.304-210.304c16.661-16.661 16.661-43.678 0-60.339s-43.678-16.661-60.339 0l-210.304 210.304c-16.661 16.661-16.661 43.678 0 60.339zM469.333 496.508c1.404-11.021 7.083-21.483 16.657-28.698l94.276-71.006c10.761-8.068 17.067-20.681 17.067-34.133h-256c0 13.453 6.307 26.065 17.067 34.133l94.276 71.006c9.574 7.215 15.253 17.677 16.657 28.698zM469.333 507.337c-0.909 7.113-3.622 14.089-8.243 20.224-14.178 18.825-40.928 22.591-59.751 8.414l-94.139-70.904c-0.013-0.009-0.026-0.017-0.038-0.026-32.224-24.188-51.162-62.080-51.162-102.374v-42.667c0-23.565 19.103-42.667 42.667-42.667h341.333c23.565 0 42.667 19.102 42.667 42.667v42.667c0 40.294-18.935 78.187-51.162 102.37-0.013 0.013-0.026 0.021-0.038 0.030l-94.14 70.904c-18.82 14.176-45.572 10.41-59.75-8.414-4.621-6.135-7.334-13.111-8.243-20.224zM469.333 661.333c-23.582 0-42.667-19.084-42.667-42.667v-42.667c0-23.583 19.085-42.667 42.667-42.667s42.667 19.084 42.667 42.667v42.667c0 23.583-19.085 42.667-42.667 42.667zM341.333 618.667c0 70.711 57.289 128 128 128s128-57.289 128-128v-42.667c0-70.711-57.289-128-128-128s-128 57.289-128 128v42.667zM469.333 874.667c-212.077 0-384-171.923-384-384 0-212.079 171.923-384 384-384 212.079 0 384 171.921 384 384 0 212.077-171.921 384-384 384zM0 490.667c0 259.206 210.128 469.333 469.333 469.333s469.333-210.128 469.333-469.333c0-259.204-210.129-469.333-469.333-469.333-259.206 0-469.333 210.129-469.333 469.333z" />
<glyph unicode="&#xe922;" glyph-name="question_outline" d="M512 874.667c-235.642 0-426.667-191.025-426.667-426.667 0-235.639 191.025-426.667 426.667-426.667 235.639 0 426.667 191.027 426.667 426.667 0 235.642-191.027 426.667-426.667 426.667zM0 448c0 282.77 229.23 512 512 512s512-229.23 512-512c0-282.769-229.231-512-512-512s-512 229.231-512 512zM512 149.333c23.565 0 42.667 19.102 42.667 42.667s-19.102 42.667-42.667 42.667c-23.565 0-42.667-19.102-42.667-42.667s19.102-42.667 42.667-42.667zM549.641 660.532c-34.816 3.268-75.977-3.519-112.009-19.442-21.553-9.525-46.747 0.226-56.272 21.78s0.226 46.747 21.78 56.272c48.449 21.411 104.184 31.071 154.476 26.35 49.25-4.623 101.611-24.215 130.193-70.467 53.495-86.57 10.3-179.354-61.15-239.898-64.772-54.882-72-72.755-72-93.786 0-23.565-19.102-42.667-42.667-42.667s-42.667 19.102-42.667 42.667c0 64.307 38.938 105.314 102.165 158.891 56.55 47.915 64.896 95.674 43.725 129.935-8.751 14.164-29.713 26.999-65.574 30.365z" />
<glyph unicode="&#xe923;" glyph-name="text_outline" d="M85.333 874.667c0 23.564 19.103 42.667 42.667 42.667h768c23.565 0 42.667-19.103 42.667-42.667v-128c0-23.564-19.102-42.667-42.667-42.667s-42.667 19.103-42.667 42.667v85.333h-682.667v-85.333c0-23.564-19.103-42.667-42.667-42.667s-42.667 19.103-42.667 42.667v128zM512 917.333c23.565 0 42.667-19.103 42.667-42.667v-853.333c0-23.565-19.102-42.667-42.667-42.667s-42.667 19.102-42.667 42.667v853.333c0 23.564 19.102 42.667 42.667 42.667zM256 21.333c0 23.565 19.103 42.667 42.667 42.667h426.667c23.565 0 42.667-19.102 42.667-42.667s-19.102-42.667-42.667-42.667h-426.667c-23.564 0-42.667 19.102-42.667 42.667z" />
<glyph unicode="&#xe924;" glyph-name="video_outline" d="M1004.813 696.953c11.972-7.895 19.179-21.278 19.179-35.62v-426.667c0-14.34-7.206-27.725-19.179-35.618-11.977-7.898-27.115-9.25-40.299-3.597l-298.667 128c-21.658 9.28-31.689 34.364-22.409 56.021 9.284 21.658 34.368 31.693 56.026 22.409l239.194-102.511v297.257l-239.194-102.509c-21.658-9.284-46.741 0.747-56.026 22.409-9.28 21.658 0.751 46.741 22.409 56.023l298.667 128c13.184 5.649 28.322 4.298 40.299-3.597zM128 746.667c-23.564 0-42.667-19.103-42.667-42.667v-512c0-23.565 19.103-42.667 42.667-42.667h469.333c23.565 0 42.667 19.102 42.667 42.667v512c0 23.564-19.102 42.667-42.667 42.667h-469.333zM0 704c0 70.692 57.308 128 128 128h469.333c70.694 0 128-57.308 128-128v-512c0-70.694-57.306-128-128-128h-469.333c-70.692 0-128 57.306-128 128v512z" />
<glyph unicode="&#xe925;" glyph-name="view_outline" d="M135.679 448c4.11 6.221 9.137 13.602 15.040 21.867 19.020 26.628 46.857 62.037 82.118 97.297 71.604 71.604 167.942 136.837 279.163 136.837 111.223 0 207.561-65.233 279.164-136.837 35.26-35.259 63.095-70.668 82.116-97.297 5.905-8.265 10.931-15.646 15.040-21.867-4.109-6.221-9.135-13.602-15.040-21.867-19.021-26.628-46.857-62.037-82.116-97.297-71.603-71.603-167.94-136.836-279.164-136.836-111.222 0-207.559 65.233-279.163 136.836-35.261 35.26-63.098 70.669-82.118 97.297-5.903 8.265-10.93 15.646-15.040 21.867zM938.667 448c37.043 21.167 37.039 21.18 37.030 21.197l-0.073 0.119-0.145 0.256-0.486 0.836c-0.405 0.695-0.981 1.668-1.719 2.897-1.476 2.462-3.61 5.956-6.383 10.338-5.542 8.764-13.653 21.099-24.171 35.823-20.979 29.372-51.81 68.63-91.217 108.037-77.73 77.729-194.726 161.83-339.503 161.83s-261.774-84.101-339.503-161.83c-39.406-39.407-70.235-78.665-91.216-108.037-10.517-14.724-18.628-27.059-24.171-35.823-2.773-4.382-4.908-7.876-6.384-10.338-0.738-1.229-1.312-2.202-1.719-2.897l-0.634-1.092-0.050-0.085c-0.008-0.017-0.035-0.064 37.010-21.231l-37.045 21.167c-7.496-13.116-7.496-29.218 0-42.334l37.045 21.167c-37.045-21.167-37.053-21.154-37.045-21.167l0.085-0.149 0.634-1.092c0.407-0.695 0.981-1.668 1.719-2.897 1.476-2.462 3.611-5.956 6.384-10.338 5.543-8.764 13.654-21.099 24.171-35.823 20.98-29.372 51.81-68.629 91.216-108.036 77.729-77.73 194.725-161.83 339.503-161.83s261.773 84.1 339.503 161.83c39.407 39.407 70.238 78.665 91.217 108.036 10.517 14.724 18.628 27.059 24.171 35.823 2.773 4.382 4.907 7.876 6.383 10.338 0.738 1.229 1.314 2.202 1.719 2.897l0.486 0.836 0.145 0.256 0.051 0.085c0.009 0.017 0.034 0.064-37.009 21.231zM938.667 448l37.043-21.167c7.497 13.116 7.484 29.244-0.013 42.364l-37.030-21.197zM512 533.333c-47.13 0-85.333-38.204-85.333-85.333s38.204-85.333 85.333-85.333c47.13 0 85.333 38.204 85.333 85.333s-38.204 85.333-85.333 85.333zM341.333 448c0 94.257 76.41 170.667 170.667 170.667 94.255 0 170.667-76.41 170.667-170.667 0-94.255-76.412-170.667-170.667-170.667-94.257 0-170.667 76.412-170.667 170.667z" />
<glyph unicode="&#xe926;" glyph-name="error" d="M512 960c-102.4 0-198.4-32-281.6-83.2-89.6-57.6-153.6-140.8-192-230.4-38.4-96-51.2-198.4-25.6-300.8 19.2-102.4 70.4-192 140.8-262.4s160-121.6 262.4-140.8 204.8-12.8 294.4 32c96 38.4 172.8 102.4 230.4 185.6 51.2 89.6 83.2 185.6 83.2 288 0 134.4-57.6 268.8-147.2 364.8-96 89.6-230.4 147.2-364.8 147.2v0zM723.2 294.4l-57.6-57.6-153.6 153.6-153.6-153.6-57.6 57.6 153.6 153.6-153.6 153.6 57.6 57.6 153.6-153.6 153.6 153.6 57.6-57.6-153.6-153.6 153.6-153.6z" />
<glyph unicode="&#xe927;" glyph-name="information" d="M512 960c-281.6 0-512-230.4-512-512s230.4-512 512-512 512 230.4 512 512-230.4 512-512 512zM556.8 236.8c0-25.6-19.2-44.8-44.8-44.8s-44.8 19.2-44.8 44.8v256c0 19.2 19.2 38.4 44.8 38.4s44.8-19.2 44.8-38.4v-256zM512 620.8c-25.6 0-44.8 19.2-44.8 38.4 0 25.6 19.2 44.8 44.8 44.8s44.8-19.2 44.8-44.8c0-19.2-19.2-38.4-44.8-38.4z" />
<glyph unicode="&#xe928;" glyph-name="success" d="M512 960c-102.4 0-198.4-32-281.6-83.2-89.6-57.6-153.6-140.8-192-230.4-38.4-96-51.2-198.4-25.6-300.8 19.2-102.4 70.4-192 140.8-262.4s160-121.6 262.4-140.8 204.8-12.8 294.4 32c96 38.4 172.8 102.4 230.4 185.6 51.2 89.6 83.2 185.6 83.2 288 0 134.4-57.6 268.8-147.2 364.8-96 89.6-230.4 147.2-364.8 147.2v0zM428.8 217.6l-230.4 230.4 57.6 57.6 172.8-172.8 339.2 345.6 57.6-57.6-396.8-403.2z" />
<glyph unicode="&#xe929;" glyph-name="warning" horiz-adv-x="1170" d="M1162.971 9.143l-533.943 928.914c-7.314 7.314-14.629 14.629-21.943 14.629-7.314 7.314-14.629 7.314-21.943 7.314s-14.629 0-21.943-7.314c-7.314 0-14.629-7.314-21.943-14.629l-533.943-928.914c-7.314-7.314-7.314-14.629-7.314-21.943s0-14.629 7.314-21.943c7.314-7.314 7.314-14.629 14.629-14.629 7.314-7.314 14.629-14.629 29.257-14.629h1075.2c7.314 0 14.629 0 21.943 7.314s14.629 7.314 14.629 14.629 7.314 14.629 7.314 21.943 0 21.943-7.314 29.257zM643.657 623.543l-21.943-321.829h-73.143l-21.943 321.829h117.029zM585.143 82.286c-14.629 0-29.257 7.314-36.571 14.629-14.629 7.314-21.943 21.943-29.257 29.257-7.314 14.629-7.314 29.257-7.314 43.886s7.314 29.257 21.943 36.571c7.314 7.314 21.943 14.629 36.571 21.943 14.629 0 29.257 0 43.886-7.314s21.943-14.629 29.257-29.257c7.314-7.314 14.629-21.943 14.629-36.571 0-21.943-7.314-36.571-21.943-51.2s-29.257-21.943-51.2-21.943z" />
<glyph unicode="&#xe92a;" glyph-name="add-circle_outline" d="M512 704c23.565 0 42.667-19.103 42.667-42.667v-426.667c0-23.565-19.102-42.667-42.667-42.667s-42.667 19.102-42.667 42.667v426.667c0 23.564 19.102 42.667 42.667 42.667zM256 448c0 23.565 19.103 42.667 42.667 42.667h426.667c23.565 0 42.667-19.102 42.667-42.667s-19.102-42.667-42.667-42.667h-426.667c-23.564 0-42.667 19.102-42.667 42.667zM512 874.667c-235.642 0-426.667-191.025-426.667-426.667 0-235.639 191.025-426.667 426.667-426.667 235.639 0 426.667 191.027 426.667 426.667 0 235.642-191.027 426.667-426.667 426.667zM0 448c0 282.77 229.23 512 512 512s512-229.23 512-512c0-282.769-229.231-512-512-512s-512 229.231-512 512z" />
<glyph unicode="&#xe92b;" glyph-name="add-circle_solid" d="M512 960c-101.264 0-200.254-30.028-284.452-86.287s-149.822-136.223-188.574-229.779c-38.752-93.556-48.891-196.501-29.136-295.821s68.519-190.549 140.123-262.153c71.604-71.603 162.834-120.367 262.153-140.122s202.265-9.617 295.82 29.133c93.555 38.754 173.521 104.38 229.777 188.578 56.26 84.194 86.289 183.185 86.289 284.45-0.393 135.67-54.464 265.67-150.396 361.603-95.936 95.933-225.933 150.003-361.604 150.397v0zM768 405.333h-213.333v-213.333h-85.333v213.333h-213.333v85.333h213.333v213.333h85.333v-213.333h213.333v-85.333z" />
<glyph unicode="&#xe92c;" glyph-name="check-circle_outline" d="M798.17 648.837c16.661-16.663 16.661-43.677 0-60.34l-341.333-341.333c-16.661-16.661-43.677-16.661-60.34 0l-170.667 170.667c-16.662 16.661-16.662 43.678 0 60.339s43.677 16.661 60.34 0l140.497-140.497 311.164 311.164c16.661 16.662 43.678 16.662 60.339 0zM512 874.667c-235.642 0-426.667-191.025-426.667-426.667 0-235.639 191.025-426.667 426.667-426.667 235.639 0 426.667 191.027 426.667 426.667 0 235.642-191.027 426.667-426.667 426.667zM0 448c0 282.77 229.23 512 512 512s512-229.23 512-512c0-282.769-229.231-512-512-512s-512 229.231-512 512z" />
<glyph unicode="&#xe92d;" glyph-name="check" d="M798.17 648.837c16.661-16.663 16.661-43.677 0-60.34l-341.333-341.333c-16.661-16.661-43.677-16.661-60.34 0l-170.667 170.667c-16.662 16.661-16.662 43.678 0 60.339s43.677 16.661 60.34 0l140.497-140.497 311.164 311.164c16.661 16.662 43.678 16.662 60.339 0z" />
<glyph unicode="&#xe92e;" glyph-name="information-circle_outline" d="M512 874.667c-235.642 0-426.667-191.025-426.667-426.667 0-235.639 191.025-426.667 426.667-426.667 235.639 0 426.667 191.027 426.667 426.667 0 235.642-191.027 426.667-426.667 426.667zM0 448c0 282.77 229.23 512 512 512s512-229.23 512-512c0-282.769-229.231-512-512-512s-512 229.231-512 512zM512 533.333c23.565 0 42.667-19.102 42.667-42.667v-256c0-23.565-19.102-42.667-42.667-42.667s-42.667 19.102-42.667 42.667v256c0 23.565 19.102 42.667 42.667 42.667zM512 618.667c23.565 0 42.667 19.103 42.667 42.667s-19.102 42.667-42.667 42.667c-23.565 0-42.667-19.103-42.667-42.667s19.102-42.667 42.667-42.667z" />
<glyph unicode="&#xe92f;" glyph-name="mail_outline" d="M42.667 448c23.564 0 42.667-19.102 42.667-42.667v-256c0-11.315 4.495-22.17 12.497-30.17s18.854-12.497 30.17-12.497h768c11.315 0 22.17 4.497 30.17 12.497s12.497 18.854 12.497 30.17v256c0 23.565 19.102 42.667 42.667 42.667s42.667-19.102 42.667-42.667v-256c0-33.95-13.487-66.505-37.491-90.509s-56.559-37.491-90.509-37.491h-768c-33.948 0-66.505 13.487-90.51 37.491s-37.49 56.563-37.49 90.509v256c0 23.565 19.103 42.667 42.667 42.667zM37.49 837.176c24.005 24.005 56.562 37.49 90.51 37.49h768c33.95 0 66.505-13.486 90.509-37.49s37.491-56.562 37.491-90.51v-128c0-15.613-8.529-29.98-22.234-37.457l-469.333-256c-12.736-6.946-28.13-6.946-40.866 0l-469.331 256c-13.707 7.477-22.236 21.844-22.236 37.457v128c0 33.948 13.486 66.505 37.49 90.51zM128 789.333c-11.316 0-22.168-4.495-30.17-12.497s-12.497-18.854-12.497-30.17v-102.672l426.667-232.727 426.667 232.727v102.672c0 11.316-4.497 22.168-12.497 30.17s-18.854 12.497-30.17 12.497h-768z" />
<glyph unicode="&#xe930;" glyph-name="mail_solid" d="M571.733 337.071c-17.536-12.006-38.498-17.997-59.733-17.067-21.235-0.93-42.197 5.060-59.733 17.067l-452.267 243.2v-430.933c0-33.95 13.486-66.505 37.49-90.509s56.562-37.491 90.51-37.491h768c33.946 0 66.505 13.487 90.509 37.491s37.491 56.559 37.491 90.509v430.933l-452.267-243.2zM896 874.667h-768c-33.947 0-66.505-13.486-90.509-37.49s-37.49-56.562-37.49-90.51v-42.667c-0.041-7.694 1.901-15.268 5.637-21.994s9.142-12.376 15.696-16.406l469.333-256c6.554-3.447 13.961-4.932 21.333-4.267 7.373-0.666 14.784 0.819 21.333 4.267l469.333 256c6.554 4.030 11.959 9.68 15.697 16.406s5.679 14.301 5.636 21.994v42.667c0 33.948-13.487 66.505-37.491 90.51s-56.559 37.49-90.509 37.49z" />
<glyph unicode="&#xe931;" glyph-name="phone_outline" d="M140.497 904.837c16.663 16.662 43.677 16.662 60.34 0l213.333-213.333c16.661-16.663 16.661-43.677 0-60.34l-97.83-97.83 280.994-280.994 97.83 97.83c16.661 16.661 43.678 16.661 60.339 0l213.333-213.333c16.661-16.661 16.661-43.678 0-60.339l-128-128c-8-8-18.854-12.497-30.17-12.497-447.713 0-810.667 362.953-810.667 810.667 0 11.316 4.495 22.168 12.497 30.17l128 128zM85.539 729.2c9.14-386.71 320.95-698.522 707.66-707.662l85.129 85.129-152.994 152.994-97.83-97.83c-16.661-16.661-43.678-16.661-60.339 0l-341.334 341.333c-16.662 16.661-16.662 43.677 0 60.34l97.83 97.83-152.994 152.994-85.127-85.127z" />
<glyph unicode="&#xe932;" glyph-name="phone_solid" d="M978.24 172.484l-164.992 166.016c-24.96 25.152-65.6 25.152-90.624 0.128l-146.624-146.624-320 320 146.816 146.814c24.96 24.96 25.024 65.472 0.064 90.496l-165.12 165.376c-25.024 25.024-65.536 25.024-90.56 0l-146.944-146.88-0.256 0.192c0-459.518 372.48-831.998 832-831.998l146.112 146.112c24.96 24.96 25.024 65.344 0.128 90.368z" />
<glyph unicode="&#xe933;" glyph-name="reload_outline" d="M512 832c-211.103 0-384-172.897-384-384 0-23.565-19.103-42.667-42.667-42.667s-42.667 19.102-42.667 42.667c0 258.231 211.103 469.333 469.333 469.333 182.724 0 342.716-103.188 418.125-258.719 10.283-21.203 1.425-46.726-19.776-57.006-21.205-10.281-46.729-1.426-57.007 19.778-61.124 126.068-191.266 210.614-341.342 210.614zM938.658 490.667c23.565 0 42.667-19.102 42.667-42.667 0-258.231-211.102-469.333-469.333-469.333-182.724 0-342.715 103.189-418.124 258.718-10.28 21.205-1.425 46.729 19.778 57.007 21.204 10.283 46.726 1.425 57.007-19.776 61.124-126.071 191.267-210.615 341.34-210.615 211.106 0 384 172.898 384 384 0 23.565 19.106 42.667 42.667 42.667zM935.872 929.754c23.351-3.166 39.714-24.662 36.544-48.013l-34.133-251.733c-3.157-23.314-24.597-39.669-47.915-36.559l-256 34.133c-23.36 3.114-39.77 24.574-36.655 47.931s24.572 39.767 47.932 36.653l213.798-28.507 28.416 209.548c3.166 23.35 24.661 39.713 48.013 36.547zM85.734 265.997c3.161 23.317 24.598 39.671 47.919 36.561l256-34.133c23.357-3.115 39.766-24.572 36.653-47.932-3.114-23.356-24.574-39.765-47.931-36.651l-213.801 28.506-28.413-209.549c-3.166-23.351-24.662-39.714-48.013-36.544-23.351 3.166-39.713 24.661-36.547 48.009l34.133 251.733z" />
<glyph unicode="&#xe934;" glyph-name="remove-circle_outline" d="M712.836 648.837c16.661-16.663 16.661-43.677 0-60.34l-341.333-341.333c-16.663-16.661-43.677-16.661-60.34 0s-16.662 43.678 0 60.339l341.334 341.334c16.661 16.662 43.678 16.662 60.339 0zM311.163 648.837c16.663 16.662 43.677 16.662 60.34 0l341.333-341.334c16.661-16.661 16.661-43.678 0-60.339s-43.678-16.661-60.339 0l-341.334 341.333c-16.662 16.663-16.662 43.677 0 60.34zM512 874.667c-235.642 0-426.667-191.025-426.667-426.667 0-235.639 191.025-426.667 426.667-426.667 235.639 0 426.667 191.027 426.667 426.667 0 235.642-191.027 426.667-426.667 426.667zM0 448c0 282.77 229.23 512 512 512s512-229.23 512-512c0-282.769-229.231-512-512-512s-512 229.231-512 512z" />
<glyph unicode="&#xe935;" glyph-name="upload_outline" d="M512 576.083c23.565 0 42.667-19.102 42.667-42.667v-341.331c0-23.565-19.102-42.667-42.667-42.667s-42.667 19.102-42.667 42.667v341.331c0 23.564 19.102 42.667 42.667 42.667zM481.83 563.587c16.661 16.662 43.678 16.662 60.339 0l128-127.998c16.661-16.666 16.661-43.678 0-60.343-16.661-16.661-43.678-16.661-60.339 0l-97.83 97.83-97.83-97.83c-16.663-16.661-43.677-16.661-60.34 0-16.662 16.666-16.662 43.678 0 60.343l128 127.998zM131.439 516.484c23.121 177.956 174.842 315.599 359.228 315.599 179.639 0 328.337-130.668 357.222-301.975 100.907-17.591 176.111-105.839 176.111-210.022 0-117.79-95.492-213.419-213.333-213.419h-85.333c-23.565 0-42.667 19.102-42.667 42.667 0 23.561 19.102 42.667 42.667 42.667h85.333c70.66 0 128 57.37 128 128.085 0 70.383-57.071 128.384-128.764 127.872-22.592-0.162-41.395 17.318-42.876 39.863-9.506 144.587-129.51 258.929-276.361 258.929-148.507 0-269.512-116.92-276.615-263.861-0.905-18.739-13.944-34.688-32.128-39.3-55.636-14.11-96.59-64.004-96.59-123.503 0-70.716 57.341-128.085 128-128.085h85.333c23.564 0 42.667-19.106 42.667-42.667 0-23.565-19.103-42.667-42.667-42.667h-85.333c-117.843 0-213.333 95.629-213.333 213.419 0 88.977 54.54 164.412 131.439 196.399z" />
<glyph unicode="&#xe936;" glyph-name="warning_outline" d="M512 874.667c15.842 0 30.379-8.777 37.756-22.795l426.667-810.669c6.963-13.222 6.494-29.129-1.229-41.92-7.727-12.796-21.581-20.617-36.527-20.617h-853.333c-14.946 0-28.802 7.821-36.526 20.617-7.725 12.791-8.191 28.698-1.231 41.92l426.668 810.669c7.377 14.018 21.914 22.795 37.756 22.795zM156.005 64h711.989l-355.994 676.391-355.995-676.391zM512 533.333c23.565 0 42.667-19.102 42.667-42.667v-170.667c0-23.565-19.102-42.667-42.667-42.667s-42.667 19.102-42.667 42.667v170.667c0 23.565 19.102 42.667 42.667 42.667zM512 149.333c23.565 0 42.667 19.102 42.667 42.667s-19.102 42.667-42.667 42.667c-23.565 0-42.667-19.102-42.667-42.667s19.102-42.667 42.667-42.667z" />
<glyph unicode="&#xe937;" glyph-name="pin" d="M512 960c-249.6 0-448-198.4-448-448 0-121.6 44.8-236.8 134.4-320 6.4-6.4 262.4-236.8 268.8-243.2 25.6-19.2 64-19.2 83.2 0 6.4 6.4 268.8 236.8 268.8 243.2 89.6 83.2 134.4 198.4 134.4 320 6.4 249.6-192 448-441.6 448zM512 384c-70.4 0-128 57.6-128 128s57.6 128 128 128c70.4 0 128-57.6 128-128s-57.6-128-128-128z" />
<glyph unicode="&#xe938;" glyph-name="clock" d="M512 960c-281.6 0-512-230.4-512-512s230.4-512 512-512c281.6 0 512 230.4 512 512s-230.4 512-512 512zM512 64c-211.2 0-384 172.8-384 384s172.8 384 384 384c211.2 0 384-172.8 384-384s-172.8-384-384-384zM576 704h-128v-320h320v128h-192v192z" />
<glyph unicode="&#xe939;" glyph-name="file-word-o" horiz-adv-x="878" d="M838.857 733.714c21.143-21.143 38.857-63.429 38.857-93.714v-658.286c0-30.286-24.571-54.857-54.857-54.857h-768c-30.286 0-54.857 24.571-54.857 54.857v914.286c0 30.286 24.571 54.857 54.857 54.857h512c30.286 0 72.571-17.714 93.714-38.857zM585.143 873.143v-214.857h214.857c-3.429 9.714-8.571 19.429-12.571 23.429l-178.857 178.857c-4 4-13.714 9.143-23.429 12.571zM804.571 0v585.143h-237.714c-30.286 0-54.857 24.571-54.857 54.857v237.714h-438.857v-877.714h731.429zM133.143 512v-61.143h40l93.714-377.714h90.857l73.143 277.143c2.857 8.571 4.571 17.143 5.714 26.286 0.571 4.571 1.143 9.143 1.143 13.714h2.286l1.714-13.714c1.714-8 2.286-17.143 5.143-26.286l73.143-277.143h90.857l93.714 377.714h40v61.143h-171.429v-61.143h51.429l-56.571-250.286c-2.286-9.143-3.429-18.857-4-26.286l-1.143-12h-2.286c0 3.429-1.143 8-1.714 12-1.714 7.429-2.857 17.143-5.143 26.286l-82.286 311.429h-65.143l-82.286-311.429c-2.286-9.143-2.857-18.857-4.571-26.286l-2.286-12h-2.286l-1.143 12c-0.571 7.429-1.714 17.143-4 26.286l-56.571 250.286h51.429v61.143h-171.429z" />
<glyph unicode="&#xe93a;" glyph-name="options" d="M512 353.524c47.13 0 85.333 38.204 85.333 85.333s-38.204 85.333-85.333 85.333c-47.13 0-85.333-38.204-85.333-85.333s38.204-85.333 85.333-85.333zM213.333 353.524c47.128 0 85.333 38.204 85.333 85.333s-38.205 85.333-85.333 85.333c-47.128 0-85.333-38.204-85.333-85.333s38.205-85.333 85.333-85.333zM810.667 353.524c47.13 0 85.333 38.204 85.333 85.333s-38.204 85.333-85.333 85.333c-47.13 0-85.333-38.204-85.333-85.333s38.204-85.333 85.333-85.333z" />
<glyph unicode="&#xe93b;" glyph-name="video" horiz-adv-x="1311" d="M857.1 513.117l-289.567 158.439c-16.65 9.11-36.327 8.77-52.65-0.9-16.327-9.68-26.067-26.78-26.067-45.76v-314.159c0-18.887 9.679-35.959 25.899-45.65 8.471-5.059 17.859-7.598 27.267-7.598 8.622 0 17.261 2.13 25.211 6.41l289.579 155.709c17.191 9.249 27.918 27.12 28 46.649 0.070 19.53-10.531 37.478-27.673 46.858zM565.625 350.261v234.797l216.416-118.417-216.416-116.38zM1301.070 716.549l-0.061 0.6c-1.11 10.55-12.157 104.389-57.778 152.119-52.728 56.14-112.509 62.96-141.259 66.23-2.38 0.27-4.559 0.52-6.509 0.78l-2.29 0.24c-173.281 12.6-434.967 14.32-437.588 14.33l-0.229 0.010-0.229-0.010c-2.621-0.010-264.31-1.73-439.148-14.33l-2.31-0.24c-1.86-0.25-3.91-0.48-6.14-0.74-28.42-3.28-87.559-10.11-140.439-68.279-43.45-47.22-56.010-139.049-57.3-149.369l-0.15-1.34c-0.39-4.39-9.64-108.899-9.64-213.819v-98.079c0-104.919 9.25-209.428 9.64-213.828l0.070-0.659c1.11-10.383 12.15-102.502 57.559-150.249 49.58-54.26 112.269-61.44 145.989-65.298 5.33-0.61 9.92-1.13 13.050-1.683l3.030-0.418c100.049-9.519 413.738-14.209 427.037-14.402l0.397-0.008 0.401 0.008c2.621 0.012 264.298 1.733 437.576 14.332l2.29 0.238c2.191 0.291 4.653 0.553 7.352 0.831 28.258 2.998 87.077 9.228 139.227 66.609 43.45 47.231 56.021 139.059 57.299 149.369l0.152 1.339c0.389 4.399 9.65 108.9 9.65 213.819v98.079c-0.008 104.919-9.261 209.419-9.65 213.819zM1233.9 404.651c0-97.108-8.479-197.12-9.277-206.299-3.26-25.289-16.511-83.39-37.679-106.398-32.641-35.91-66.171-39.469-90.653-42.062-2.957-0.307-5.698-0.61-8.18-0.918-167.596-12.12-419.406-13.98-431.006-14.049-13.009 0.188-322.107 4.919-419.107 13.926-4.97 0.811-10.34 1.434-16 2.073-28.71 3.289-68.010 7.791-98.229 41.030l-0.71 0.758c-20.8 21.672-33.67 76.001-36.94 105.341-0.61 6.939-9.31 108.13-9.31 206.598v98.079c0 97 8.46 196.899 9.28 206.269 3.89 29.79 17.39 84.369 37.68 106.429 33.64 37 69.109 41.1 92.569 43.81 2.24 0.26 4.33 0.5 6.26 0.75 170.038 12.18 423.656 13.99 432.758 14.060 9.097-0.060 262.627-1.88 431.157-14.060 2.068-0.26 4.329-0.52 6.758-0.8 24.13-2.75 60.6-6.91 94.069-42.61l0.311-0.33c20.799-21.67 33.669-76.95 36.938-106.879 0.582-6.55 9.31-107.959 9.31-206.639v-98.079z" />
<glyph unicode="&#xe93c;" glyph-name="blog" horiz-adv-x="1214" d="M960.899 94.505c-8.298 5.26-19.278 2.807-24.538-5.492-44.396-69.97-120.305-111.749-203.055-111.749h-457.472c-132.491 0-240.278 107.797-240.278 240.287v426.055c0 9.815-7.963 17.778-17.778 17.778s-17.778-7.963-17.778-17.778v-426.055c0-152.102 123.741-275.843 275.833-275.843h457.472c94.989 0 182.132 47.954 233.074 128.258 5.26 8.287 2.807 19.278-5.48 24.538zM804.602 566.933l-135.547-135.559c-6.944-6.944-6.944-18.201 0-25.137 3.463-3.474 8.018-5.215 12.565-5.215s9.102 1.741 12.576 5.215l135.543 135.547c6.944 6.944 6.944 18.201 0 25.149-6.933 6.934-18.193 6.934-25.137 0zM1187.908 863.126l-61.963 61.963c-34.296 34.306-90.112 34.306-124.408 0l-64.322-64.324c-52.262 57.482-125.501 90.093-203.909 90.093h-457.472c-63.454 0-125.407-22.083-174.454-62.176-48.352-39.519-82.176-94.732-95.222-155.454-2.065-9.602 4.046-19.056 13.648-21.121 1.259-0.259 2.519-0.398 3.75-0.398 8.204 0 15.574 5.704 17.361 14.046 11.37 52.87 40.824 100.954 82.963 135.398 42.713 34.917 96.676 54.148 151.954 54.148h457.472c68.851 0 133.139-28.87 178.734-79.713l-189.057-189.055h-495.75c-9.824 0-17.787-7.954-17.787-17.778 0-9.815 7.963-17.778 17.787-17.778h460.195l-85.242-85.232h-374.952c-9.824 0-17.787-7.961-17.787-17.787 0-9.815 7.963-17.776 17.787-17.776h339.397l-110.277-110.277c-31.953-31.956-58.103-68.809-77.703-109.53l-50.602-105.119c-14-29.101-8.296-62.657 14.537-85.493 14.518-14.518 33.38-22.111 52.677-22.111 11.036 0 22.221 2.492 32.806 7.585l50.999 24.546c0.008 0.008 0.027 0.008 0.038 0.019l54.090 26.029c40.713 19.6 77.566 45.75 109.53 77.703l330.87 330.87v-306.851c0-19.471-2.332-38.832-6.937-57.556-2.34-9.535 3.493-19.156 13.028-21.5 1.426-0.353 2.852-0.516 4.251-0.516 7.999 0 15.258 5.423 17.249 13.536 5.287 21.489 7.964 43.713 7.964 66.037v342.407l49.417 49.417c0.008 0.009 0.008 0.009 0.008 0.019 0.011 0 0.011 0 0.011 0.009l129.324 129.315c34.296 34.306 34.296 90.111 0 124.408zM412.649 97.273c-18.557-8.935-35.372-1.915-44.927 7.631-9.546 9.554-16.565 26.37-7.63 44.927l15 31.175c12.518-10.009 24.666-20.863 36.267-32.465s22.456-23.749 32.465-36.269l-31.175-15zM517.769 147.867l-41.138-19.797c-12.197 15.815-25.63 31.122-40.129 45.614-14.499 14.499-29.806 27.944-45.614 40.129l19.797 41.138c13.669 28.38 30.815 54.685 51.158 78.518l134.444-134.444c-23.833-20.336-50.138-37.494-78.518-51.158zM622.251 223.347l-136.086 136.086 398.613 398.619 136.082-136.083-398.609-398.622zM1046.008 647.107l-136.082 136.083 43.888 43.889 136.093-136.084-43.899-43.889zM1162.767 763.866l-47.722-47.722-136.082 136.083 47.715 47.722c10.221 10.223 23.635 15.324 37.065 15.324 13.414 0 26.84-5.102 37.054-15.324l61.963-61.963c20.434-20.435 20.434-53.685 0.008-74.121zM227.232 731.774h554.683c9.815 0 17.78 7.954 17.78 17.778s-7.964 17.778-17.78 17.778h-554.683c-9.824 0-17.787-7.954-17.787-17.778s7.963-17.778 17.787-17.778z" />
<glyph unicode="&#xe93d;" glyph-name="external-link" horiz-adv-x="1113" d="M985.507-69.434h-857.97c-70.354 0-127.536 57.184-127.536 127.537v765.218c0 70.354 57.182 127.536 127.536 127.536h857.97c70.353 0 127.537-57.182 127.537-127.536v-765.218c0-70.353-57.184-127.537-127.537-127.537zM127.536 881.292c-31.954 0-57.971-26.017-57.971-57.971v-765.218c0-31.953 26.017-57.972 57.971-57.972h857.97c31.953 0 57.972 26.019 57.972 57.972v765.218c0 31.954-26.019 57.971-57.972 57.971h-857.97zM1078.263 718.987h-1043.48c-19.2 0-34.783 15.583-34.783 34.783s15.583 34.783 34.783 34.783h1043.48c19.198 0 34.78-15.583 34.78-34.783s-15.583-34.783-34.78-34.783zM544.559 236.697c-37.287 0-74.431 14.421-102.816 42.897l-144.093 144.976c-27.409 27.127-42.574 63.675-42.574 102.676 0 39.003 15.165 75.548 42.759 102.91 53.102 54.261 150.169 54.957 205.078-0.139l24.767-24.812c13.539-13.588 13.539-35.617-0.049-49.205-13.588-13.542-35.662-13.542-49.205 0.093l-24.763 24.812c-28.431 28.568-78.842 28.429-106.483 0.232-14.655-14.562-22.539-33.577-22.539-53.89s7.884-39.326 22.215-53.52l144.183-145.11c27.644-27.644 71.19-29.963 101.287-5.102 14.844 12.15 36.824 10.017 48.974-4.826 12.199-14.839 10.017-36.73-4.822-48.974-26.945-22.118-59.499-33.017-91.92-33.017zM712.708 69.705c-38.912 0-75.411 15.209-102.725 42.941l-23.743 23.841c-13.544 13.588-13.544 35.662 0.089 49.205 13.637 13.539 35.622 13.539 49.21-0.093l23.881-23.979c28.521-28.89 78.287-28.752 106.576-0.138 14.514 14.47 22.399 33.485 22.399 53.8 0 20.311-7.885 39.326-22.216 53.515l-144.184 145.114c-14.194 14.194-33.253 22.074-53.564 22.074-12.475 0-30.889-2.921-47.585-16.785-14.839-12.292-36.73-10.204-48.974 4.59s-10.249 36.681 4.546 48.974c54.958 45.542 143.676 41.507 194.876-9.692l144.090-145.021c27.412-27.176 42.576-63.724 42.576-102.725s-15.164-75.549-42.759-102.912c-27.038-27.501-63.537-42.71-102.493-42.71z" />
<glyph unicode="&#xe93e;" glyph-name="copy" d="M384 640h576c35.346 0 64-28.654 64-64v-576c0-35.346-28.654-64-64-64h-576c-35.346 0-64 28.654-64 64v576c0 35.346 28.654 64 64 64zM384 0h576v576h-576v-576zM64 960h576c35.346 0 64-28.654 64-64v-160h-64v160h-576v-576h160v-64h-160c-35.346 0-64 28.654-64 64v576c0 35.346 28.654 64 64 64z" />
<glyph unicode="&#xe93f;" glyph-name="presentation" horiz-adv-x="883" d="M647.529 729.994c0 5.020-5.020 10.039-10.039 10.039h-451.765c-5.020 0-10.039-5.020-10.039-10.039v-55.216c0-5.020 5.020-10.039 10.039-10.039h451.765c5.020 0 10.039 5.020 10.039 10.039v55.216zM642.51 569.367h-451.765c-5.020 0-10.039-5.020-10.039-10.039v-55.216c0-5.020 5.020-10.039 10.039-10.039h451.765c5.020 0 10.039 5.020 10.039 10.039v55.216c-5.020 5.020-5.020 10.039-10.039 10.039zM406.588 398.7h-215.843c-5.020 0-10.039-5.020-10.039-10.039v-55.216c0-5.020 5.020-10.039 10.039-10.039h215.843c5.020 0 10.039 5.020 10.039 10.039v55.216c-5.020 5.020-5.020 10.039-10.039 10.039zM346.353 37.288h-261.020v828.235h657.569v-406.588c0-5.020 5.020-10.039 10.039-10.039h65.255c5.020 0 10.039 5.020 10.039 10.039v451.765c0 20.078-15.059 40.157-40.157 40.157h-752.941c-20.078 0-35.137-15.059-35.137-40.157v-923.608c0-20.078 15.059-40.157 40.157-40.157h311.216c5.020 0 10.039 5.020 10.039 10.039v65.255c-5.020 10.039-10.039 15.059-15.059 15.059zM768 127.641c35.137 30.118 55.216 75.294 55.216 125.49 0 95.373-75.294 170.667-170.667 170.667s-170.667-75.294-170.667-170.667c0-50.196 20.078-95.373 55.216-125.49-65.255-40.157-115.451-110.431-115.451-190.745 0-5.020 5.020-10.039 10.039-10.039h55.216c5.020 0 10.039 5.020 10.039 10.039 5.020 80.314 70.275 145.569 155.608 145.569 80.314 0 150.588-65.255 155.608-145.569 0-5.020 5.020-10.039 10.039-10.039h55.216c5.020 0 10.039 5.020 10.039 10.039 0 80.314-50.196 150.588-115.451 190.745zM652.549 343.484c50.196 0 95.373-40.157 95.373-95.373 0-50.196-40.157-95.373-95.373-95.373-50.196 0-95.373 40.157-95.373 95.373 5.020 55.216 45.176 95.373 95.373 95.373z" />
<glyph unicode="&#xe940;" glyph-name="document" d="M874.665-63.949h-511.999c-58.795 0-106.667 47.829-106.667 106.665v640.002c0 58.837 47.872 106.667 106.667 106.667h511.999c58.797 0 106.669-47.829 106.669-106.667v-640.002c0-58.837-47.872-106.665-106.669-106.665zM362.667 746.718c-35.285 0-64-28.715-64-64v-640.002c0-35.285 28.715-64 64-64h511.999c35.285 0 64 28.715 64 64v640.002c0 35.285-28.715 64-64 64h-511.999zM192.006 64h-42.667c-58.795 0-106.667 47.829-106.667 106.665v682.668c0 58.837 47.872 106.667 106.667 106.667h511.999c58.797 0 106.669-47.829 106.669-106.667 0-11.776-9.559-21.333-21.335-21.333s-21.335 9.557-21.335 21.333c0 35.285-28.715 64-64 64h-511.999c-35.285 0-64-28.715-64-64v-682.668c0-35.285 28.715-64 64-64h42.667c11.776 0 21.333-9.555 21.333-21.331s-9.557-21.335-21.333-21.335zM789.339 234.717h-341.331c-11.776 0-21.335 9.559-21.335 21.335s9.559 21.335 21.335 21.335h341.331c11.776 0 21.335-9.559 21.335-21.335s-9.559-21.335-21.335-21.335zM789.339 63.949h-341.331c-11.776 0-21.335 9.559-21.335 21.335s9.559 21.331 21.335 21.331h341.331c11.776 0 21.335-9.555 21.335-21.331s-9.559-21.335-21.335-21.335zM789.339 405.335h-341.331c-11.776 0-21.335 9.555-21.335 21.331s9.559 21.335 21.335 21.335h341.331c11.776 0 21.335-9.559 21.335-21.335s-9.559-21.331-21.335-21.331zM789.339 575.949h-341.331c-11.776 0-21.335 9.557-21.335 21.333s9.559 21.333 21.335 21.333h341.331c11.776 0 21.335-9.557 21.335-21.333s-9.559-21.333-21.335-21.333z" />
<glyph unicode="&#xe941;" glyph-name="draggable" horiz-adv-x="614" d="M204.8 857.6c0-56.554-45.846-102.4-102.4-102.4s-102.4 45.846-102.4 102.4c0 56.554 45.846 102.4 102.4 102.4s102.4-45.846 102.4-102.4zM614.4 857.6c0-56.554-45.846-102.4-102.4-102.4s-102.4 45.846-102.4 102.4c0 56.554 45.846 102.4 102.4 102.4s102.4-45.846 102.4-102.4zM204.8 448c0-56.554-45.846-102.4-102.4-102.4s-102.4 45.846-102.4 102.4c0 56.554 45.846 102.4 102.4 102.4s102.4-45.846 102.4-102.4zM614.4 448c0-56.554-45.846-102.4-102.4-102.4s-102.4 45.846-102.4 102.4c0 56.554 45.846 102.4 102.4 102.4s102.4-45.846 102.4-102.4zM204.8 38.4c0-56.554-45.846-102.4-102.4-102.4s-102.4 45.846-102.4 102.4c0 56.554 45.846 102.4 102.4 102.4s102.4-45.846 102.4-102.4zM614.4 38.4c0-56.554-45.846-102.4-102.4-102.4s-102.4 45.846-102.4 102.4c0 56.554 45.846 102.4 102.4 102.4s102.4-45.846 102.4-102.4z" />
<glyph unicode="&#xe942;" glyph-name="question-circle_outline" horiz-adv-x="1109" d="M554.667 896c-247.4 0-448-200.6-448-448s200.6-448 448-448c247.4 0 448 200.6 448 448s-200.6 448-448 448zM554.667 75.998c-205.4 0-372 166.602-372 372.002s166.601 372 372 372c205.4 0 372.002-166.601 372.002-372s-166.602-372.002-372.002-372.002zM666.266 643.3c-30 26.3-69.6 40.7-111.6 40.7s-81.6-14.5-111.6-40.7c-31.2-27.3-48.4-64-48.4-103.3v-7.6c0-4.4 3.6-8 8-8h48c4.4 0 8 3.6 8 8v7.6c0 44.1 43.1 80 96 80s96-35.9 96-80c0-31.1-22-59.599-56.1-72.7-21.2-8.1-39.2-22.3-52.1-40.899-13.1-19-19.9-41.801-19.9-64.9v-21.5c0-4.401 3.6-8.001 8-8.001h48c4.4 0 8 3.6 8 8.001v22.7c0.051 9.708 3.028 19.175 8.539 27.167s13.304 14.136 22.361 17.633c58.999 22.7 97.1 74.7 97.1 132.5 0.1 39.3-17.1 76-48.3 103.3zM514.667 228c0-10.609 4.215-20.783 11.715-28.285s17.676-11.716 28.285-11.716c10.609 0 20.783 4.215 28.285 11.716s11.715 17.675 11.715 28.285c0 10.609-4.215 20.782-11.715 28.284s-17.676 11.715-28.285 11.715c-10.609 0-20.783-4.214-28.285-11.715s-11.715-17.675-11.715-28.284z" />
<glyph unicode="&#xe943;" glyph-name="house_clicked" horiz-adv-x="872" d="M227.556 792.945l164.018 156.563c14.419 13.765 37.035 14.016 51.758 0.574l397.65-363.069c7.87-7.186 12.352-17.35 12.352-28.008v-552.16c0-20.946-16.979-37.926-37.926-37.926h-208.593c-20.946 0-37.926 16.979-37.926 37.926v303.407c0 20.946-16.979 37.926-37.926 37.926h-208.593c-20.946 0-37.926-16.979-37.926-37.926v-303.407c0-20.946-16.98-37.926-37.926-37.926h-208.593c-20.946 0-37.926 16.979-37.926 37.926v552.66c0 10.365 4.242 20.275 11.739 27.433l64.113 61.199v249.966c0 20.946 16.98 37.926 37.926 37.926h75.852c20.946 0 37.926-16.98 37.926-37.926v-105.158z" />
<glyph unicode="&#xe944;" glyph-name="house_unclicked" horiz-adv-x="878" d="M454.824 890.279c-8.872 8.101-22.502 7.95-31.195-0.346l-366.268-349.62c-4.518-4.315-7.075-10.288-7.075-16.534v-532.923c0-12.624 10.233-22.857 22.857-22.857h201.143c12.624 0 22.857 10.233 22.857 22.857v292.571c0 27.772 22.514 50.286 50.286 50.286h201.143c27.772 0 50.286-22.513 50.286-50.286v-292.571c0-12.624 10.233-22.857 22.857-22.857h201.143c12.624 0 22.857 10.233 22.857 22.857v532.44c0 6.422-2.703 12.548-7.446 16.881l-383.444 350.101zM404.692 909.774c19.12 18.251 49.104 18.584 68.626 0.761l383.444-350.103c10.434-9.527 16.38-23.003 16.38-37.135v-532.44c0-27.772-22.513-50.286-50.286-50.286h-201.143c-27.772 0-50.286 22.513-50.286 50.286v292.571c0 12.624-10.233 22.857-22.857 22.857h-201.143c-12.624 0-22.857-10.233-22.857-22.857v-292.571c0-27.772-22.514-50.286-50.286-50.286h-201.143c-27.772 0-50.286 22.513-50.286 50.286v532.923c0 13.744 5.624 26.884 15.565 36.374l366.27 349.62z" />
<glyph unicode="&#xe945;" glyph-name="library_unclicked" horiz-adv-x="777" d="M70.621 907.034c-9.751 0-17.655-7.905-17.655-17.655v-870.99c0-9.749 7.905-17.655 17.655-17.655h635.586c9.749 0 17.655 7.906 17.655 17.655v623.817h-191.492c-29.251 0-52.966 23.713-52.966 52.966v211.862h-408.784zM514.715 879.534l186.477-202.016h-168.822c-9.749 0-17.655 7.905-17.655 17.655v184.361zM17.655 889.379c0 29.252 23.713 52.966 52.966 52.966h434.169l254.383-275.58v-648.375c0-29.251-23.714-52.966-52.966-52.966h-635.586c-29.252 0-52.966 23.714-52.966 52.966v870.99z" />
<glyph unicode="&#xe946;" glyph-name="presentation_uncliked" horiz-adv-x="1100" d="M1061.926 931.556c5.238 0 9.481-4.245 9.481-9.481v-37.926c0-5.236-4.244-9.481-9.481-9.481h-1024c-5.236 0-9.481 4.245-9.481 9.481v37.926c0 5.236 4.245 9.481 9.481 9.481h1024zM37.926 960c-20.946 0-37.926-16.98-37.926-37.926v-37.926c0-20.946 16.98-37.926 37.926-37.926h1024c20.946 0 37.926 16.98 37.926 37.926v37.926c0 20.946-16.979 37.926-37.926 37.926h-1024zM995.556 817.778v-578.37c0-5.238-4.244-9.481-9.481-9.481h-872.296c-5.236 0-9.481 4.244-9.481 9.481v578.37h891.259zM75.852 846.222v-606.815c0-20.946 16.98-37.926 37.926-37.926h872.296c20.946 0 37.926 16.979 37.926 37.926v606.815h-948.148zM530.963 201.481v-189.63h56.889v189.63h-56.889zM464.593 11.852c-15.709 0-28.444-12.736-28.444-28.444s12.736-28.444 28.444-28.444h170.667c15.709 0 28.444 12.736 28.444 28.444s-12.736 28.444-28.444 28.444h-170.667z" />
<glyph unicode="&#xe947;" glyph-name="analytics_uncliked" horiz-adv-x="958" d="M171.195 446.21c1.58 0 2.861-1.282 2.861-2.861v-455.977c0-1.579-1.281-2.861-2.861-2.861h-96.722c-1.58 0-2.861 1.282-2.861 2.861v455.977c0 1.579 1.281 2.861 2.861 2.861h96.722zM74.473 470.984c-15.262 0-27.635-12.374-27.635-27.635v-455.977c0-15.261 12.373-27.635 27.635-27.635h96.722c15.263 0 27.635 12.374 27.635 27.635v455.977c0 15.261-12.373 27.635-27.635 27.635h-96.722zM406.099 529.111c1.579 0 2.861-1.282 2.861-2.861v-538.882c0-1.579-1.282-2.861-2.861-2.861h-96.723c-1.58 0-2.861 1.282-2.861 2.861v538.882c0 1.579 1.281 2.861 2.861 2.861h96.723zM309.376 553.885c-15.262 0-27.635-12.374-27.635-27.635v-538.882c0-15.261 12.373-27.635 27.635-27.635h96.723c15.261 0 27.635 12.374 27.635 27.635v538.882c0 15.261-12.374 27.635-27.635 27.635h-96.723zM641.001 377.129c1.579 0 2.861-1.282 2.861-2.861v-386.89c0-1.579-1.282-2.861-2.861-2.861h-96.722c-1.579 0-2.861 1.282-2.861 2.861v386.89c0 1.579 1.282 2.861 2.861 2.861h96.722zM544.279 401.903c-15.261 0-27.635-12.374-27.635-27.635v-386.89c0-15.261 12.374-27.635 27.635-27.635h96.722c15.264 0 27.635 12.374 27.635 27.635v386.89c0 15.261-12.371 27.635-27.635 27.635h-96.722zM875.903 598.211c1.582 0 2.864-1.282 2.864-2.861v-607.972c0-1.579-1.282-2.861-2.864-2.861h-96.722c-1.579 0-2.861 1.282-2.861 2.861v607.972c0 1.579 1.282 2.861 2.861 2.861h96.722zM779.181 622.985c-15.261 0-27.635-12.374-27.635-27.635v-607.972c0-15.261 12.374-27.635 27.635-27.635h96.722c15.264 0 27.638 12.374 27.638 27.635v607.972c0 15.261-12.374 27.635-27.638 27.635h-96.722zM259.677 837.154c0 54.164 43.908 98.072 98.072 98.072s98.073-43.908 98.073-98.072c0-5.78-0.502-11.45-1.463-16.966l79.978-69.982c16.298 12.070 36.481 19.214 58.315 19.214 34.287 0 64.453-17.596 81.979-44.224l63.561 71.506c-5.596 12.341-8.707 26.042-8.707 40.452 0 54.164 43.906 98.072 98.073 98.072 54.163 0 98.069-43.908 98.069-98.072s-43.906-98.071-98.069-98.071c-23.483 0-45.049 8.262-61.932 22.026l-75.043-84.423c0.092-1.768 0.142-3.547 0.142-5.336 0-54.164-43.91-98.070-98.073-98.070s-98.069 43.906-98.069 98.070c0 16.327 3.994 31.74 11.066 45.295l-69.85 61.118c-17.907-23.495-46.202-38.679-78.049-38.679-35.896 0-67.273 19.285-84.361 48.032l-58.917-39.278c4.166-10.889 6.446-22.704 6.446-35.037 0-54.163-43.908-98.073-98.071-98.073s-98.072 43.909-98.072 98.073c0 54.164 43.908 98.072 98.072 98.072 25.886 0 49.439-10.038 66.959-26.416l70.053 46.702c-0.12 1.984-0.181 3.984-0.181 5.997zM270.302 819.77l0.692-1.039-83.524-55.683-4.783 5.163c-14.907 16.091-36.194 26.144-59.841 26.144-45.042 0-81.556-36.514-81.556-81.556s36.514-81.555 81.556-81.555c45.042 0 81.555 36.514 81.555 81.555 0 12.388-2.756 24.109-7.681 34.603l-3.020 6.436 86.099 57.399 4.075-8.684c13.027-27.76 41.218-46.955 73.876-46.955 29.359 0 55.104 15.508 69.477 38.82l5.123 8.308 94.499-82.687-3.667-5.948c-7.663-12.423-12.083-27.054-12.083-42.742 0-45.040 36.514-81.554 81.553-81.554 45.043 0 81.557 36.514 81.557 81.554 0 2.521-0.116 5.014-0.337 7.473l-0.324 3.561 90.958 102.327 6.194-6.022c14.696-14.297 34.743-23.089 56.858-23.089 45.039 0 81.553 36.514 81.553 81.555s-36.514 81.556-81.553 81.556c-45.043 0-81.557-36.514-81.557-81.556 0-13.719 3.379-26.624 9.348-37.951l2.666-5.060-86.789-97.638-5.437 10.977c-13.332 26.933-41.082 45.422-73.137 45.422-20.321 0-38.889-7.423-53.172-19.715l-5.431-4.675-97.875 85.639 1.093 4.804c1.331 5.844 2.038 11.933 2.038 18.197 0 45.042-36.514 81.556-81.557 81.556s-81.556-36.514-81.556-81.556c0-4.954 0.441-9.797 1.283-14.496l-7.175-2.888z" />
<glyph unicode="&#xe948;" glyph-name="notifications_uncliked" horiz-adv-x="777" d="M311.667 848.37v34.82c0 42.502 34.308 76.81 76.81 76.81 42.5 0 76.811-34.308 76.811-76.81v-34.82c146.45-34.821 230.428-166.421 230.428-323.626v-256.032l66.055-66.055c32.26-32.26 9.22-87.563-36.356-87.563h-674.389c-45.574 0-68.105 55.303-35.845 87.563l66.056 66.055v256.032c0 157.717 83.467 288.806 230.429 323.626zM669.233 257.744v266.999c0 147.946-78.251 266.52-210.072 297.862l-20.356 4.84v55.745c0 27.875-22.454 50.327-50.328 50.327-27.878 0-50.327-22.452-50.327-50.327v-55.761l-20.377-4.828c-132.296-31.345-210.052-149.375-210.052-297.857v-266.999l-73.813-73.816c-15.89-15.89-4.419-42.351 17.119-42.351h674.389c22.104 0 33.121 26.864 17.63 42.351l-73.813 73.816zM490.891 63.887c0-9.149-1.218-18.029-3.496-26.483-11.748-43.601-51.74-75.931-98.918-75.931-47.608 0-87.312 32.33-98.953 75.931-2.258 8.453-3.46 17.334-3.46 26.483h204.828zM317.293 37.404c10.719-28.817 38.438-49.449 71.185-49.449 32.404 0 60.296 20.667 71.122 49.449h-142.307z" />
<glyph unicode="&#xe949;" glyph-name="share" d="M820.659 640c-88.192 0-160 71.766-160 160s71.808 160 160 160c88.192 0 160-71.766 160-160s-71.808-160-160-160zM820.659 896c-52.909 0-96-43.047-96-96s43.091-96 96-96c52.902 0 96 43.047 96 96s-43.098 96-96 96zM820.659-64c-88.192 0-160 71.763-160 160s71.808 160 160 160c88.192 0 160-71.763 160-160s-71.808-160-160-160zM820.659 192c-52.909 0-96-43.046-96-96s43.091-96 96-96c52.902 0 96 43.046 96 96s-43.098 96-96 96zM202 288c-88.195 0-160 71.766-160 160s71.805 160 160 160c88.195 0 160-71.766 160-160s-71.805-160-160-160zM202 544c-52.906 0-96-43.047-96-96s43.094-96 96-96c52.906 0 96 43.047 96 96s-43.094 96-96 96zM313.402 479.156c-11.14 0-21.976 5.805-27.82 16.125-8.75 15.359-3.414 34.906 11.946 43.648l395.906 225.711c15.315 8.828 34.899 3.453 43.603-11.953 8.749-15.359 3.411-34.899-11.949-43.649l-395.904-225.703c-4.993-2.812-10.406-4.18-15.782-4.18zM709.28 127.149c-5.376 0-10.797 1.37-15.789 4.218l-395.905 225.713c-15.359 8.742-20.687 28.289-11.945 43.648 8.703 15.398 28.25 20.735 43.609 11.946l395.901-225.704c15.354-8.749 20.691-28.288 11.949-43.648-5.888-10.368-16.723-16.173-27.821-16.173z" />
<glyph unicode="&#xe94a;" horiz-adv-x="760" d="M138.807 926.968h349.618c9.157 0 17.9-3.8 24.15-10.494l212.543-227.73c5.708-6.117 8.882-14.171 8.882-22.538v-581.561c0-18.244-14.67-33.032-32.913-33.032h-594.694c-12.741 0-6.029 542.657-0.597 843.036 0.325 17.998 15.012 32.319 33.012 32.319z" />
<glyph unicode="&#xe94b;" horiz-adv-x="760" d="M89.282 894.948c0.49 27.068 22.587 48.536 49.525 48.536h349.618c13.735 0 26.852-5.701 36.223-15.741v0l212.543-227.73c8.562-9.175 13.325-21.258 13.325-33.808v-581.561c0-27.288-21.986-49.548-49.429-49.548h-594.694c-8.175 0-12.67 5.44-13.961 7.224-1.57 2.17-2.385 4.307-2.774 5.424-0.85 2.441-1.372 5.137-1.738 7.419-0.775 4.829-1.392 11.426-1.913 19.258-1.052 15.826-1.819 38.512-2.359 66.355-1.081 55.768-1.266 133.146-0.884 219.783 0.765 173.317 3.802 384.161 6.519 534.387zM138.807 910.452c-9.062 0-16.337-7.174-16.498-16.101-2.715-150.154-5.75-360.83-6.514-533.935-0.382-86.574-0.196-163.635 0.878-218.997 0.538-27.727 1.294-49.783 2.292-64.806 0.215-3.227 0.436-6.052 0.659-8.483h581.462c9.044 0 16.397 7.317 16.397 16.516v581.561c0 4.184-1.589 8.211-4.443 11.269l-212.543 227.729c-3.122 3.347-7.495 5.247-12.073 5.247h-349.618z" />
<glyph unicode="&#xe94c;" horiz-adv-x="760" d="M33.032 13.074v814.797c0 18.243 14.789 33.032 33.032 33.032h398.927l228.686-247.742v-600.087c0-18.244-14.789-33.032-33.032-33.032h-594.581c-18.243 0-33.032 14.789-33.032 33.032z" />
<glyph unicode="&#xe94d;" horiz-adv-x="760" d="M66.065 844.387c-9.122 0-16.516-7.395-16.516-16.516v-814.797c0-9.12 7.395-16.516 16.516-16.516h594.581c9.12 0 16.516 7.396 16.516 16.516v583.571h-179.137c-27.364 0-49.548 22.184-49.548 49.548v198.194h-382.411zM481.508 818.661l174.447-188.983h-157.931c-9.12 0-16.516 7.395-16.516 16.516v172.467zM16.516 827.871c0 27.365 22.183 49.548 49.548 49.548h406.158l237.971-257.8v-606.545c0-27.364-22.184-49.548-49.548-49.548h-594.581c-27.365 0-49.548 22.184-49.548 49.548v814.797z" />
<glyph unicode="&#xe94e;" horiz-adv-x="760" d="M462.452 613.492v246.573c0 0.3 0.367 0.445 0.571 0.225l230.136-246.573c0.198-0.211 0.046-0.555-0.241-0.555h-230.136c-0.182 0-0.33 0.145-0.33 0.33z" />
<glyph unicode="&#xe94f;" horiz-adv-x="760" d="M478.968 819.002v-189.324h176.703l-176.703 189.324zM445.935 860.066c0 15.292 18.729 22.671 29.161 11.495l230.136-246.573c10.052-10.769 2.415-28.342-12.314-28.342h-230.136c-9.305 0-16.846 7.545-16.846 16.846v246.574z" />
<glyph unicode="&#xe950;" horiz-adv-x="1100" d="M0 922.074c0 20.946 16.98 37.926 37.926 37.926h1024c20.946 0 37.926-16.98 37.926-37.926v-37.926c0-20.946-16.979-37.926-37.926-37.926h-1024c-20.946 0-37.926 16.98-37.926 37.926v37.926z" />
<glyph unicode="&#xe951;" horiz-adv-x="1100" d="M75.852 846.222h948.148v-606.815c0-20.946-16.979-37.926-37.926-37.926h-872.296c-20.946 0-37.926 16.979-37.926 37.926v606.815z" />
<glyph unicode="&#xe952;" horiz-adv-x="1100" d="M530.963 201.481h56.889v-189.63h-56.889v189.63z" />
<glyph unicode="&#xe953;" horiz-adv-x="1100" d="M436.148-16.593c0 15.709 12.736 28.444 28.444 28.444h170.667c15.709 0 28.444-12.736 28.444-28.444s-12.736-28.444-28.444-28.444h-170.667c-15.709 0-28.444 12.736-28.444 28.444z" />
<glyph unicode="&#xe954;" horiz-adv-x="1100" d="M189.63 400.593c0 15.709 12.735 28.444 28.444 28.444h436.148c15.709 0 28.444-12.736 28.444-28.444s-12.736-28.444-28.444-28.444h-436.148c-15.709 0-28.444 12.736-28.444 28.444z" />
<glyph unicode="&#xe955;" horiz-adv-x="1100" d="M189.63 552.296c0 15.709 12.735 28.444 28.444 28.444h663.704c15.709 0 28.444-12.736 28.444-28.444s-12.736-28.444-28.444-28.444h-663.704c-15.709 0-28.444 12.736-28.444 28.444z" />
<glyph unicode="&#xe956;" horiz-adv-x="1100" d="M189.63 704c0 15.709 12.735 28.444 28.444 28.444h663.704c15.709 0 28.444-12.735 28.444-28.444s-12.736-28.444-28.444-28.444h-663.704c-15.709 0-28.444 12.735-28.444 28.444z" />
<glyph unicode="&#xe957;" glyph-name="polygon_2" horiz-adv-x="2048" d="M1024-64l-886.81 1024h1773.628l-886.818-1024z" />
<glyph unicode="&#xe958;" glyph-name="analytics_clicked" horiz-adv-x="925" d="M46.838 443.349c0 15.261 12.373 27.635 27.635 27.635h96.722c15.263 0 27.635-12.374 27.635-27.635v-455.977c0-15.264-12.373-27.635-27.635-27.635h-96.722c-15.262 0-27.635 12.371-27.635 27.635v455.977zM171.195 460.618c9.539 0 17.272-7.733 17.272-17.269v-455.977c0-9.54-7.733-17.273-17.272-17.273h-96.722c-9.539 0-17.272 7.733-17.272 17.273v455.977c0 9.536 7.733 17.269 17.272 17.269h96.722zM74.473 470.984c-15.262 0-27.635-12.374-27.635-27.635v-455.977c0-15.264 12.373-27.635 27.635-27.635h96.722c15.263 0 27.635 12.371 27.635 27.635v455.977c0 15.261-12.373 27.635-27.635 27.635h-96.722zM281.741 526.25c0 15.261 12.373 27.635 27.635 27.635h96.723c15.261 0 27.635-12.374 27.635-27.635v-538.882c0-15.261-12.374-27.635-27.635-27.635h-96.723c-15.262 0-27.635 12.374-27.635 27.635v538.882zM406.099 543.523c9.54 0 17.273-7.733 17.273-17.273v-538.882c0-9.54-7.733-17.273-17.273-17.273h-96.723c-9.539 0-17.272 7.733-17.272 17.273v538.882c0 9.54 7.733 17.273 17.272 17.273h96.723zM309.376 553.885c-15.262 0-27.635-12.374-27.635-27.635v-538.882c0-15.261 12.373-27.635 27.635-27.635h96.723c15.261 0 27.635 12.374 27.635 27.635v538.882c0 15.261-12.374 27.635-27.635 27.635h-96.723zM516.644 374.269c0 15.261 12.374 27.635 27.635 27.635h96.722c15.264 0 27.635-12.374 27.635-27.635v-386.89c0-15.261-12.371-27.635-27.635-27.635h-96.722c-15.261 0-27.635 12.374-27.635 27.635v386.89zM641.001 391.541c9.54 0 17.273-7.733 17.273-17.273v-386.89c0-9.54-7.733-17.273-17.273-17.273h-96.722c-9.54 0-17.273 7.733-17.273 17.273v386.89c0 9.54 7.733 17.273 17.273 17.273h96.722zM544.279 401.903c-15.261 0-27.635-12.374-27.635-27.635v-386.89c0-15.261 12.374-27.635 27.635-27.635h96.722c15.264 0 27.635 12.374 27.635 27.635v386.89c0 15.261-12.371 27.635-27.635 27.635h-96.722zM751.547 595.35c0 15.261 12.374 27.635 27.635 27.635h96.722c15.264 0 27.638-12.374 27.638-27.635v-607.972c0-15.261-12.374-27.635-27.638-27.635h-96.722c-15.261 0-27.635 12.374-27.635 27.635v607.972zM875.903 612.62c9.54 0 17.273-7.733 17.273-17.269v-607.972c0-9.536-7.733-17.269-17.273-17.269h-96.722c-9.54 0-17.273 7.733-17.273 17.269v607.972c0 9.536 7.733 17.269 17.273 17.269h96.722zM779.181 622.985c-15.261 0-27.635-12.374-27.635-27.635v-607.972c0-15.261 12.374-27.635 27.635-27.635h96.722c15.264 0 27.638 12.374 27.638 27.635v607.972c0 15.261-12.374 27.635-27.638 27.635h-96.722zM447.564 837.154c0-6.886-0.776-13.59-2.243-20.031l88.771-77.675c15.723 13.534 36.187 21.715 58.56 21.715 35.311 0 65.866-20.378 80.539-50.016l74.851 84.208c-6.577 12.485-10.299 26.708-10.299 41.8 0 49.603 40.21 89.814 89.815 89.814 49.601 0 89.811-40.211 89.811-89.814s-40.21-89.813-89.811-89.813c-24.351 0-46.44 9.691-62.619 25.427l-82.842-93.2c0.244-2.707 0.37-5.449 0.37-8.219 0-49.602-40.21-89.812-89.815-89.812-49.601 0-89.811 40.21-89.811 89.812 0 17.263 4.869 33.388 13.312 47.077l-81.897 71.659c-15.813-25.648-44.164-42.744-76.506-42.744-35.978 0-67.016 21.155-81.352 51.705l-72.202-48.135c5.429-11.569 8.463-24.486 8.463-38.111 0-49.603-40.211-89.815-89.813-89.815s-89.814 40.212-89.814 89.815c0 49.603 40.211 89.814 89.814 89.814 26.041 0 49.495-11.083 65.899-28.79l77.669 51.779 2.935-4.402c-0.928 5.178-1.413 10.509-1.413 15.954 0 49.603 40.211 89.814 89.814 89.814 49.601 0 89.815-40.211 89.815-89.814zM262.754 837.154c0 52.464 42.531 94.995 94.995 94.995s94.994-42.531 94.994-94.995c0-6.196-0.591-12.257-1.728-18.129l83.185-72.788c16.116 12.596 36.415 20.106 58.451 20.106 34.654 0 64.965-18.556 81.557-46.255l67.627 76.081c-5.946 12.414-9.275 26.317-9.275 40.985 0 52.464 42.532 94.995 94.997 94.995 52.462 0 94.994-42.531 94.994-94.995s-42.532-94.995-94.994-94.995c-23.806 0-45.575 8.763-62.243 23.23l-77.88-87.615c0.142-2.124 0.215-4.267 0.215-6.426 0-52.466-42.532-94.995-94.997-94.995-52.462 0-94.994 42.529-94.994 94.995 0 16.678 4.304 32.365 11.859 45.996l-74.214 64.937c-17.2-24.269-45.525-40.124-77.553-40.124-35.926 0-67.184 19.943-83.326 49.343l-63.731-42.487c4.608-11.167 7.149-23.4 7.149-36.215 0-52.464-42.531-94.994-94.995-94.994s-94.995 42.53-94.995 94.994c0 52.464 42.531 94.995 94.995 94.995 25.948 0 49.473-10.41 66.612-27.269l73.593 49.062c-0.197 2.497-0.297 5.020-0.297 7.566zM264.977 818.417l-77.032-51.354-3.001 3.239c-15.465 16.693-37.559 27.13-62.098 27.13-46.741 0-84.632-37.891-84.632-84.632s37.891-84.632 84.632-84.632c46.741 0 84.632 37.891 84.632 84.632 0 12.849-2.86 25.015-7.972 35.91l-1.895 4.038 80.922 53.948 2.557-5.449c13.514-28.799 42.766-48.725 76.661-48.725 30.472 0 57.185 16.1 72.096 40.282l3.214 5.213 89.805-78.579-2.302-3.732c-7.951-12.894-12.542-28.082-12.542-44.357 0-46.742 37.891-84.633 84.632-84.633s84.632 37.891 84.632 84.633c0 2.614-0.116 5.2-0.35 7.751l-0.201 2.234 87.935 98.927 3.885-3.779c15.251-14.833 36.055-23.96 59.006-23.96 46.741 0 84.632 37.891 84.632 84.632s-37.891 84.632-84.632 84.632c-46.741 0-84.632-37.891-84.632-84.632 0-14.231 3.508-27.627 9.702-39.385l1.671-3.175-82.343-92.635-3.409 6.888c-13.834 27.941-42.628 47.134-75.895 47.134-21.084 0-40.359-7.705-55.18-20.461l-3.406-2.933-94.482 82.672 0.684 3.015c1.384 6.066 2.114 12.385 2.114 18.881 0 46.741-37.891 84.632-84.632 84.632s-84.632-37.891-84.632-84.632c0-5.137 0.457-10.162 1.331-15.039l-9.412-3.788-0.060 0.091z" />
<glyph unicode="&#xe959;" horiz-adv-x="904" d="M341.624 32.458c46.408-12.433 94.551 15.363 106.984 61.768l-168.75 45.219c-12.435-46.408 14.939-94.437 61.766-106.987zM662.579 217.763l56.519 210.938c34.705 129.518-5.43 256.479-118.402 317.497l7.686 28.688c9.382 35.016-11.309 70.856-46.324 80.238-35.018 9.383-70.858-11.309-80.239-46.325l-7.686-28.688c-128.768 3.755-226.472-85.82-261.289-215.76l-56.521-210.938-69.005-39.84c-33.7-19.459-27.346-69.993 10.201-80.056l555.615-148.878c37.548-10.059 68.741 30.416 49.285 64.117l-39.84 69.006z" />
<glyph unicode="&#xe95a;" horiz-adv-x="904" d="M312.38 787.121c-24.847-16.068-42.98-36.681-51.852-50.334l-18.941 12.308c10.468 16.109 30.809 39.070 58.527 56.994 27.821 17.99 63.739 31.311 104.868 26.66l-2.536-22.445c-34.581 3.91-65.319-7.181-90.067-23.183z" />
<glyph unicode="&#xe95b;" horiz-adv-x="904" d="M761.106 80.947c15.779 25.034 23.555 51.363 25.856 67.482l22.362-3.195c-2.717-19.016-11.508-48.405-29.109-76.33-17.667-28.027-44.643-55.227-83.914-68.316l-7.141 21.429c33.012 11.005 56.23 34.003 71.945 58.931z" />
<glyph unicode="&#xe95c;" horiz-adv-x="904" d="M297.734 827.118c-24.848-16.068-42.98-36.681-51.852-50.334l-18.941 12.308c10.468 16.109 30.809 39.070 58.527 56.994 27.819 17.99 63.737 31.311 104.869 26.66l-2.539-22.445c-34.578 3.91-65.319-7.181-90.064-23.183z" />
<glyph unicode="&#xe95d;" horiz-adv-x="904" d="M791.224 50.83c15.779 25.034 23.555 51.363 25.856 67.482l22.362-3.195c-2.717-19.016-11.508-48.405-29.109-76.33-17.667-28.027-44.643-55.227-83.914-68.316l-7.141 21.429c33.012 11.005 56.23 34.003 71.945 58.931z" />
<glyph unicode="&#xe95e;" glyph-name="share2" horiz-adv-x="1109" d="M775.552 797.467c-451.583-83.896-538.231-462.568-525.215-648.18 0.146-2.086 2.934-2.475 3.984-0.666 212.947 366.711 435.036 414.502 521.487 392.189 0.934-0.24 1.527-1.072 1.527-2.034v-134.045c0-1.839 2.163-2.816 3.541-1.604l287.138 252.672c0.964 0.849 0.964 2.353 0 3.203l-287.138 252.672c-1.378 1.213-3.541 0.234-3.541-1.602v-110.499c0-1.030-0.772-1.919-1.783-2.106zM788.002 891.197v-91.624c0-6.396-4.663-11.509-10.505-12.594-222.711-41.376-354.67-155.143-429.615-280.919-67.642-113.519-89.079-237.269-88.055-327.241 209.565 346.057 427.536 395.833 518.647 372.318 6.029-1.556 9.527-6.948 9.527-12.362v-115.169l265.685 233.794-265.685 233.796zM766.669 910.073c0 11.014 12.983 16.886 21.252 9.609l287.138-252.672c5.794-5.097 5.794-14.122 0-19.219l-287.138-252.673c-8.269-7.275-21.252-1.404-21.252 9.613v127.219c-84.493 16.649-296.725-33.254-503.124-388.685-2.918-5.026-8.381-7.057-13.189-6.315-5.082 0.789-10.192 4.919-10.659 11.588-6.633 94.596 12.083 237.914 89.86 368.439 77.229 129.611 212.4 246.070 437.113 289.658v103.436zM32 706.266c0 41.095 33.244 74.667 74.623 74.667h271.199v-106.667h-239.156v-630.404h618.705v250.854h106.667v-282.854c0-41.237-33.429-74.667-74.667-74.667h-682.705c-41.237 0-74.667 33.429-74.667 74.667v694.404z" />
<glyph unicode="&#xe95f;" glyph-name="dolar" horiz-adv-x="559" d="M555.194 287.562c0-53.932-20.48-99.672-61.44-137.216-40.279-37.548-98.988-59.392-176.129-65.536v-115.712h-65.536v115.712c-49.835 2.728-97.28 11.944-142.336 27.648-44.373 16.384-79.872 36.864-106.496 61.44l37.888 79.872c24.576-22.528 55.637-41.304 93.184-56.32 37.547-14.336 76.8-22.872 117.76-25.6v237.568c-47.787 11.604-87.723 24.232-119.808 37.888-31.403 13.652-58.027 33.792-79.872 60.415-21.163 26.624-31.744 61.44-31.744 104.448 0 53.931 19.456 99.67 58.368 137.216 39.595 37.547 97.28 59.392 173.056 65.536v116.736h65.536v-115.712c38.912-1.365 76.459-7.509 112.64-18.432 36.865-10.922 68.609-25.6 95.233-44.032l-33.792-81.92c-55.297 34.816-113.324 53.93-174.081 57.344v-238.591c49.835-12.288 90.795-25.26 122.88-38.912 32.085-12.972 59.049-32.768 80.897-59.392 22.528-25.944 33.792-60.76 33.792-104.448zM121.017 616.265c0-29.354 11.264-52.224 33.792-68.608s54.955-30.037 97.28-40.96v221.184c-43.691-5.462-76.459-18.432-98.304-38.912-21.845-19.797-32.768-44.032-32.768-72.704zM317.625 172.874c45.739 4.096 79.872 15.7 102.4 34.816 23.211 19.796 34.816 44.372 34.816 73.728 0 30.036-11.947 52.904-35.84 68.608-23.211 16.384-57.003 30.72-101.376 43.008v-220.16z" />
<glyph unicode="&#xe960;" horiz-adv-x="801" d="M44.522 931.109h712.348c24.589 0 44.522-19.933 44.522-44.522v-890.435c0-24.589-19.933-44.522-44.522-44.522h-712.348c-24.589 0-44.522 19.933-44.522 44.522v890.435c0 24.589 19.933 44.522 44.522 44.522z" />
<glyph unicode="&#xe961;" horiz-adv-x="801" d="M151.374 753.022h498.643c9.835 0 17.809-7.973 17.809-17.809v-53.426c0-9.835-7.973-17.809-17.809-17.809h-498.643c-9.835 0-17.809 7.973-17.809 17.809v53.426c0 9.835 7.973 17.809 17.809 17.809z" />
<glyph unicode="&#xe962;" horiz-adv-x="801" d="M151.374 574.935h498.643c9.835 0 17.809-7.973 17.809-17.809v-53.426c0-9.835-7.973-17.809-17.809-17.809h-498.643c-9.835 0-17.809 7.973-17.809 17.809v53.426c0 9.835 7.973 17.809 17.809 17.809z" />
<glyph unicode="&#xe963;" horiz-adv-x="801" d="M151.374 396.849h498.643c9.835 0 17.809-7.973 17.809-17.809v-53.426c0-9.835-7.973-17.809-17.809-17.809h-498.643c-9.835 0-17.809 7.973-17.809 17.809v53.426c0 9.835 7.973 17.809 17.809 17.809z" />
<glyph unicode="&#xe964;" horiz-adv-x="801" d="M151.374 218.762h498.643c9.835 0 17.809-7.973 17.809-17.809v-53.426c0-9.835-7.973-17.809-17.809-17.809h-498.643c-9.835 0-17.809 7.973-17.809 17.809v53.426c0 9.835 7.973 17.809 17.809 17.809z" />
<glyph unicode="&#xe965;" horiz-adv-x="838" d="M0 557.429c0 33.051 26.793 59.844 59.844 59.844h718.131c33.052 0 59.843-26.793 59.843-59.844v-538.597c0-33.052-26.792-59.843-59.843-59.843h-718.131c-33.051 0-59.844 26.792-59.844 59.843v538.597z" />
<glyph unicode="&#xe966;" horiz-adv-x="838" d="M508.63 361.277c0-49.576-40.192-89.768-89.767-89.768-49.576 0-89.766 40.192-89.766 89.768v359.065c0 49.576 40.19 89.766 89.766 89.766 49.575 0 89.767-40.19 89.767-89.767v-359.064zM418.863 929.795c-115.678 0-209.455-93.776-209.455-209.454v-359.065c0-115.679 93.776-209.455 209.455-209.455s209.454 93.775 209.454 209.455v359.064c0 115.679-93.775 209.455-209.454 209.455z" />
<glyph unicode="&#xe967;" horiz-adv-x="838" d="M748.051 294.116c0-41.314-33.494-74.803-74.808-74.803s-74.803 33.489-74.803 74.803c0 41.314 33.489 74.808 74.803 74.808s74.808-33.494 74.808-74.808z" />
<glyph unicode="&#xe968;" horiz-adv-x="838" d="M493.712 294.116c0-41.314-33.492-74.803-74.806-74.803s-74.805 33.489-74.805 74.803c0 41.314 33.491 74.808 74.805 74.808s74.806-33.494 74.806-74.808z" />
<glyph unicode="&#xe969;" horiz-adv-x="838" d="M239.373 294.116c0-41.314-33.491-74.803-74.805-74.803s-74.805 33.489-74.805 74.803c0 41.314 33.491 74.808 74.805 74.808s74.805-33.494 74.805-74.808z" />
<glyph unicode="&#xe96a;" glyph-name="profile_tour" horiz-adv-x="1158" d="M1157.565 352.327c0-142.251-51.316-272.513-136.45-373.288l-4.546 49.624c-16.807 183.345-170.576 323.664-354.687 323.664h-166.2c-184.11 0-337.879-140.319-354.685-323.664l-4.549-49.624c-85.131 100.775-136.448 231.037-136.448 373.288 0 319.652 259.13 578.781 578.783 578.781s578.783-259.13 578.783-578.781zM578.783 396.849c122.942 0 222.609 99.666 222.609 222.607 0 122.944-99.666 222.609-222.609 222.609s-222.609-99.665-222.609-222.609c0-122.941 99.666-222.607 222.609-222.607z" />
<glyph unicode="&#xe96b;" horiz-adv-x="986" d="M986.074 442.353c0-272.297-220.74-493.037-493.037-493.037s-493.037 220.74-493.037 493.037c0 272.296 220.74 493.036 493.037 493.036s493.037-220.74 493.037-493.036z" />
<glyph unicode="&#xe96c;" horiz-adv-x="986" d="M303.407 717.315c-5.236 0-9.481-4.245-9.481-9.481v-530.962c0-5.238 4.245-9.481 9.481-9.481h379.259c5.238 0 9.481 4.244 9.481 9.481v369.778h-91.166c-36.655 0-66.37 29.715-66.37 66.369v104.296h-231.204zM591.5 673.008l64.125-69.472h-54.644c-5.238 0-9.481 4.245-9.481 9.481v59.99zM237.037 707.833c0 36.655 29.715 66.37 66.37 66.37h272.1l173.53-187.99v-409.342c0-36.655-29.715-66.37-66.37-66.37h-379.259c-36.655 0-66.37 29.715-66.37 66.37v530.962z" />
<glyph unicode="&#xe96d;" horiz-adv-x="986" d="M986.074 442.353c0-272.297-220.74-493.037-493.037-493.037s-493.037 220.74-493.037 493.037c0 272.297 220.74 493.037 493.037 493.037s493.037-220.74 493.037-493.037z" />
<glyph unicode="&#xe96e;" horiz-adv-x="986" d="M701.63 459.624c25.285-14.598 25.285-51.094 0-65.691l-284.444-164.223c-25.285-14.598-56.889 3.648-56.889 32.844v328.448c0 29.195 31.604 47.442 56.889 32.845l284.444-164.222z" />
<glyph unicode="&#xe96f;" horiz-adv-x="986" d="M986.074 442.353c0-272.297-220.74-493.037-493.037-493.037s-493.037 220.74-493.037 493.037c0 272.297 220.74 493.037 493.037 493.037s493.037-220.74 493.037-493.037z" />
<glyph unicode="&#xe970;" horiz-adv-x="986" d="M622.437 806.037l52.983-275.522 222.538-63.579-222.538-63.583-52.983-275.52-74.418 275.52-201.104 63.583 201.104 63.579 74.418 275.522z" />
<glyph unicode="&#xe971;" horiz-adv-x="986" d="M378.695 276.184l20.036-69.613 54.143-25.759-54.143-25.759-20.036-69.613-20.035 69.613-54.143 25.759 54.143 25.759 20.035 69.613z" />
<glyph unicode="&#xe972;" horiz-adv-x="986" d="M219.747 678.878l28.621-92.818 77.348-34.344-77.348-34.346-28.621-92.82-28.622 92.82-77.348 34.346 77.348 34.344 28.622 92.818z" />
<glyph unicode="&#xe973;" glyph-name="question_mark" horiz-adv-x="768" d="M365.462 269.638c0 37.542 6.101 70.398 18.304 98.558 13.141 29.099 28.629 53.504 46.464 73.216 18.773 19.712 43.178 43.179 73.216 70.4 37.546 32.854 65.237 61.014 83.072 84.48 17.834 24.406 26.752 53.505 26.752 87.297 0 45.994-17.835 82.602-53.504 109.824-35.67 28.159-84.95 42.239-147.84 42.239-109.824 0-193.835-37.077-252.032-111.232l-102.784 73.216c39.424 50.688 89.642 89.643 150.656 116.864 61.952 27.221 133.29 40.832 214.016 40.832 102.314 0 183.509-22.528 243.581-67.584 60.077-44.117 90.112-105.13 90.112-183.040 0-38.485-6.566-72.746-19.712-102.784-12.198-29.098-27.219-53.504-45.056-73.216-17.83-19.712-41.766-43.178-71.805-70.4-38.486-34.73-67.115-65.237-85.888-91.52-17.835-26.282-26.752-58.667-26.752-97.15h-140.8zM437.27-49.978c-26.283 0-48.342 8.448-66.176 25.344-16.896 17.83-25.344 39.424-25.344 64.768s8.448 46.464 25.344 63.36c17.834 17.83 39.893 26.752 66.176 26.752s47.872-8.922 64.768-26.752c16.896-16.896 25.344-38.016 25.344-63.36s-8.918-46.938-26.752-64.768c-16.896-16.896-38.016-25.344-63.36-25.344z" />
<glyph unicode="&#xe974;" glyph-name="settings_gear" horiz-adv-x="993" d="M487.455 157.612c-162.807 0-294.788 131.981-294.788 294.788 0 162.81 131.982 294.789 294.788 294.789s294.788-131.98 294.788-294.789c0-162.807-131.981-294.788-294.788-294.788zM487.455 219.673c128.531 0 232.727 104.197 232.727 232.727 0 128.534-104.197 232.729-232.727 232.729-128.534 0-232.728-104.195-232.728-232.729 0-128.531 104.194-232.727 232.728-232.727zM469.11 800.763c1.691 5.068 6.433 8.487 11.776 8.487h44.169c5.343 0 10.085-3.419 11.776-8.487l22.755-68.267c2.678-8.037-3.305-16.337-11.776-16.337h-89.678c-8.474 0-14.457 8.3-11.776 16.337l22.755 68.267zM536.83 104.042c-1.691-5.070-6.433-8.49-11.776-8.49h-44.169c-5.343 0-10.085 3.42-11.776 8.49l-22.755 68.267c-2.681 8.037 3.302 16.334 11.776 16.334h89.678c8.471 0 14.454-8.298 11.776-16.334l-22.755-68.267zM835.817 470.745c5.067-1.688 8.487-6.433 8.487-11.776v-44.165c0-5.343-3.42-10.088-8.487-11.776l-68.267-22.758c-8.037-2.678-16.337 3.305-16.337 11.776v89.681c0 8.471 8.301 14.454 16.337 11.773l68.267-22.755zM139.093 403.028c-5.068 1.688-8.487 6.433-8.487 11.773v44.169c0 5.343 3.419 10.088 8.487 11.776l68.267 22.755c8.037 2.681 16.337-3.302 16.337-11.773v-89.681c0-8.471-8.3-14.454-16.337-11.776l-68.267 22.758zM634.871 197.111c-140.995-81.405-321.285-33.097-402.689 107.899s-33.095 321.285 107.901 402.688c140.992 81.403 321.285 33.095 402.686-107.9 81.405-140.995 33.094-321.285-107.899-402.686zM603.822 250.852c111.312 64.264 149.448 206.6 85.181 317.912-64.264 111.311-206.597 149.449-317.909 85.183s-149.451-206.599-85.185-317.91c64.265-111.312 206.601-149.451 317.913-85.184zM297.397 744.917c-1.071 5.234 1.327 10.566 5.954 13.238l38.25 22.084c4.627 2.671 10.445 2.082 14.442-1.462l53.841-47.743c6.339-5.621 5.309-15.8-2.029-20.036l-77.663-44.84c-7.339-4.236-16.669-0.039-18.367 8.261l-14.427 70.498zM704.403 175.396c1.074-5.232-1.325-10.566-5.952-13.238l-38.251-22.084c-4.627-2.669-10.445-2.082-14.442 1.465l-53.841 47.743c-6.339 5.62-5.309 15.798 2.029 20.036l77.663 44.839c7.339 4.236 16.669 0.037 18.367-8.26l14.426-70.501zM779.981 642.467c5.235 1.071 10.566-1.328 13.238-5.955l22.084-38.251c2.672-4.627 2.082-10.442-1.462-14.442l-47.743-53.838c-5.62-6.339-15.801-5.309-20.036 2.026l-44.839 77.666c-4.236 7.339-0.040 16.669 8.26 18.367l70.498 14.426zM210.461 235.458c-5.234-1.071-10.566 1.328-13.238 5.955l-22.084 38.251c-2.671 4.627-2.082 10.445 1.462 14.442l47.743 53.841c5.621 6.339 15.8 5.306 20.036-2.029l44.84-77.666c4.236-7.336 0.039-16.666-8.261-18.364l-70.498-14.429zM749.255 298.505c-81.405-140.995-261.694-189.303-402.69-107.899-140.993 81.402-189.302 261.691-107.898 402.686s261.694 189.304 402.686 107.9c140.995-81.404 189.303-261.693 107.902-402.688zM695.488 329.539c64.267 111.312 26.128 253.648-85.184 317.912-111.312 64.267-253.645 26.129-317.91-85.184-64.266-111.309-26.128-253.645 85.183-317.909 111.312-64.267 253.648-26.128 317.912 85.181zM183.087 604.197c-3.545 3.997-4.134 9.815-1.462 14.442l22.084 38.251c2.671 4.627 8.004 7.025 13.238 5.954l70.499-14.425c8.3-1.7 12.497-11.031 8.261-18.367l-44.839-77.666c-4.236-7.336-14.415-8.369-20.036-2.029l-47.743 53.841zM820.326 314.483c3.544-3.997 4.133-9.815 1.462-14.442l-22.084-38.251c-2.672-4.627-8.003-7.025-13.238-5.955l-70.498 14.426c-8.301 1.7-12.496 11.031-8.26 18.367l44.839 77.666c4.236 7.336 14.417 8.369 20.036 2.029l47.743-53.841zM652.241 756.765c4 3.545 9.815 4.134 14.442 1.462l38.251-22.084c4.627-2.671 7.025-8.004 5.955-13.238l-14.426-70.498c-1.697-8.299-11.028-12.497-18.367-8.262l-77.666 44.841c-7.336 4.236-8.366 14.415-2.026 20.036l53.838 47.743zM362.527 119.526c-3.997-3.544-9.815-4.133-14.442-1.462l-38.25 22.084c-4.627 2.672-7.025 8.003-5.954 13.238l14.427 70.498c1.697 8.301 11.028 12.496 18.367 8.26l77.663-44.839c7.339-4.236 8.369-14.414 2.029-20.036l-53.841-47.743z" />
<glyph unicode="&#xe975;" glyph-name="log_out" horiz-adv-x="1117" d="M231.619 848.341c-3.978 0-7.203-3.225-7.203-7.203v-168.45h-69.818v168.45c0 42.538 34.484 77.022 77.022 77.022h800.14c42.538 0 77.019-34.484 77.019-77.022v-800.14c0-42.538-34.481-77.019-77.019-77.019h-800.14c-42.538 0-77.022 34.481-77.022 77.019v126.338h69.818v-126.338c0-3.975 3.225-7.201 7.203-7.201h800.14c3.98 0 7.201 3.226 7.201 7.201v800.14c0 3.979-3.221 7.203-7.201 7.203h-800.14zM339.996 588.185l124.572-168.172-124.572-168.173-56.103 41.556 67.93 91.709h-351.824v69.818h351.824l-67.93 91.706 56.103 41.558z" />
<glyph unicode="&#xe976;" glyph-name="user-plus" d="M384 224c0 151.234 95.874 280.486 230.032 330.2 16.28 36.538 25.968 77.164 25.968 117.8 0 159.058 0 288-192 288s-192-128.942-192-288c0-99.060 57.502-198.104 128-237.832v-52.78c-217.102-17.748-384-124.42-384-253.388h397.306c-8.664 30.53-13.306 62.732-13.306 96zM736 512c-159.058 0-288-128.942-288-288s128.942-288 288-288c159.056 0 288 128.942 288 288s-128.942 288-288 288zM896 192h-128v-128h-64v128h-128v64h128v128h64v-128h128v-64z" />
<glyph unicode="" glyph-name="user-plus" d="M384 224c0 151.234 95.874 280.486 230.032 330.2 16.28 36.538 25.968 77.164 25.968 117.8 0 159.058 0 288-192 288s-192-128.942-192-288c0-99.060 57.502-198.104 128-237.832v-52.78c-217.102-17.748-384-124.42-384-253.388h397.306c-8.664 30.53-13.306 62.732-13.306 96zM736 512c-159.058 0-288-128.942-288-288s128.942-288 288-288c159.056 0 288 128.942 288 288s-128.942 288-288 288zM896 192h-128v-128h-64v128h-128v64h128v128h64v-128h128v-64z" />
<glyph unicode="user2" glyph-name="user-plus" d="M384 224c0 151.234 95.874 280.486 230.032 330.2 16.28 36.538 25.968 77.164 25.968 117.8 0 159.058 0 288-192 288s-192-128.942-192-288c0-99.060 57.502-198.104 128-237.832v-52.78c-217.102-17.748-384-124.42-384-253.388h397.306c-8.664 30.53-13.306 62.732-13.306 96zM736 512c-159.058 0-288-128.942-288-288s128.942-288 288-288c159.056 0 288 128.942 288 288s-128.942 288-288 288zM896 192h-128v-128h-64v128h-128v64h128v128h64v-128h128v-64z" />
<glyph unicode="user-plus" glyph-name="user-plus" d="M384 224c0 151.234 95.874 280.486 230.032 330.2 16.28 36.538 25.968 77.164 25.968 117.8 0 159.058 0 288-192 288s-192-128.942-192-288c0-99.060 57.502-198.104 128-237.832v-52.78c-217.102-17.748-384-124.42-384-253.388h397.306c-8.664 30.53-13.306 62.732-13.306 96zM736 512c-159.058 0-288-128.942-288-288s128.942-288 288-288c159.056 0 288 128.942 288 288s-128.942 288-288 288zM896 192h-128v-128h-64v128h-128v64h128v128h64v-128h128v-64z" />
</font>
</defs>
</svg>
