<svg width="32" height="32" viewBox="0 0 32 32" fill="none" xmlns="http://www.w3.org/2000/svg">
<path d="M31.36 16.357C31.36 15.0415 31.2533 14.0815 31.0222 13.0859H16V19.0237H24.8177C24.64 20.4993 23.68 22.7215 21.5466 24.2147L21.5167 24.4135L26.2665 28.0931L26.5956 28.1259C29.6177 25.3348 31.36 21.2281 31.36 16.357Z" fill="#4285F4"/>
<path d="M16.0004 31.9996C20.3204 31.9996 23.947 30.5773 26.596 28.1241L21.547 24.2129C20.196 25.1551 18.3826 25.8129 16.0004 25.8129C11.7693 25.8129 8.17824 23.0218 6.89812 19.1641L6.71048 19.18L1.77162 23.0022L1.70703 23.1818C4.33812 28.4084 9.74258 31.9996 16.0004 31.9996Z" fill="#34A853"/>
<path d="M6.89772 19.1629C6.55994 18.1673 6.36446 17.1006 6.36446 15.9984C6.36446 14.8961 6.55994 13.8295 6.87994 12.8339L6.871 12.6219L1.87024 8.73828L1.70663 8.81611C0.62223 10.985 0 13.4206 0 15.9984C0 18.5762 0.62223 21.0117 1.70663 23.1806L6.89772 19.1629Z" fill="#FBBC05"/>
<path d="M16.0004 6.18663C19.0048 6.18663 21.0314 7.4844 22.187 8.56892L26.7026 4.16C23.9293 1.58223 20.3204 0 16.0004 0C9.74258 0 4.33812 3.59109 1.70703 8.81772L6.88035 12.8356C8.17824 8.97778 11.7693 6.18663 16.0004 6.18663Z" fill="#EB4335"/>
</svg>
