<svg width="30" height="27" viewBox="0 0 30 27" fill="none" xmlns="http://www.w3.org/2000/svg">
<path fill-rule="evenodd" clip-rule="evenodd" d="M19.306 9.94398C18.8619 9.49964 18.2594 9.25 17.6311 9.25C17.0029 9.25 16.4004 9.49964 15.9563 9.94398L15.4999 10.4004L15.0435 9.94398C14.1185 9.01898 12.6188 9.01898 11.6938 9.94398C10.7687 10.869 10.7687 12.3687 11.6938 13.2937L12.1501 13.7501L15.4999 17.0999L18.8496 13.7501L19.306 13.2937C19.7504 12.8496 20 12.2471 20 11.6189C20 10.9906 19.7504 10.3881 19.306 9.94398Z" stroke="#1D242F" stroke-width="2" stroke-linecap="round" stroke-linejoin="round"/>
<path fill-rule="evenodd" clip-rule="evenodd" d="M11.6709 0.683772C11.5348 0.27543 11.1527 0 10.7222 0C10.2918 0 9.90965 0.27543 9.77354 0.683772L5.8348 12.5H1C0.447715 12.5 0 12.9477 0 13.5C0 14.0523 0.447715 14.5 1 14.5H6.55556C6.98599 14.5 7.36812 14.2246 7.50424 13.8162L10.7222 4.16228L11.7978 7.38889H13.9059L11.6709 0.683772ZM17.7948 19.0556H15.6866L18.1069 26.3162C18.243 26.7246 18.6251 27 19.0556 27C19.486 27 19.8681 26.7246 20.0042 26.3162L23.943 14.5H28.7778C29.3301 14.5 29.7778 14.0523 29.7778 13.5C29.7778 12.9477 29.3301 12.5 28.7778 12.5H23.2222C22.7918 12.5 22.4097 12.7754 22.2735 13.1838L19.0556 22.8377L17.7948 19.0556Z" fill="#1D242F"/>
</svg>
