<svg width="160" height="54" viewBox="0 0 160 54" fill="none" xmlns="http://www.w3.org/2000/svg">
<path fill-rule="evenodd" clip-rule="evenodd" d="M48.3987 1.04025C48.8696 1.56709 49.1312 2.14661 49.1312 2.88417C49.1312 3.62175 48.8696 4.20126 48.3987 4.7281C47.8755 5.25493 47.3 5.51835 46.5675 5.51835C45.835 5.51835 45.2071 5.25493 44.7362 4.7281C44.2653 4.20126 44.0037 3.62175 44.0037 2.88417C44.0037 2.14661 44.2653 1.56709 44.7362 1.04025C45.2594 0.513417 45.835 0.25 46.5675 0.25C47.3 0.25 47.9278 0.513417 48.3987 1.04025ZM44.1084 2.88421C44.1084 3.5691 44.37 4.14861 44.8408 4.67542C44.3699 4.20126 44.1084 3.5691 44.1084 2.88421Z" fill="#313134"/>
<path d="M2.45911 2.9898H37.6539V0.513672H0V2.9898H2.45911Z" fill="#1D242F"/>
<path d="M2.45911 2.98987V50.7739H157.54V2.98991H159.999V53.25H1.46503H0V2.98987H2.45911Z" fill="#1D242F"/>
<path fill-rule="evenodd" clip-rule="evenodd" d="M121.389 19.4273H124.58V17.5307C124.58 15.0019 124.005 13.1054 122.906 11.7883C121.755 10.4185 120.028 9.78625 117.726 9.78625C115.424 9.78625 113.697 10.4712 112.546 11.7883C111.447 13.1054 110.872 15.0019 110.872 17.5307V36.128C110.872 38.6568 111.447 40.5534 112.546 41.8705C113.697 43.2403 115.424 43.8724 117.726 43.8724H117.744L117.778 43.8725C120.08 43.8725 121.755 43.1877 122.906 41.8705C123.311 41.4048 123.637 40.8534 123.888 40.2161C124.345 39.1026 124.58 37.7444 124.58 36.128V25.6967H118.877V28.4889H121.493V36.5495C121.493 39.4998 120.237 41.133 117.883 41.133C115.611 41.133 114.308 39.5429 114.273 36.6665C114.273 36.6277 114.273 36.5887 114.273 36.5495V17.1619C114.273 15.5814 114.639 14.3698 115.319 13.5795C115.336 13.5581 115.353 13.537 115.37 13.5162C115.986 12.856 116.791 12.5258 117.831 12.5258C118.929 12.5258 119.767 12.8946 120.394 13.6322C121.075 14.4224 121.389 15.6341 121.389 17.1619V19.4273ZM117.726 9.83893C115.424 9.83893 113.75 10.5238 112.598 11.8409C111.552 13.158 110.976 15.0546 110.976 17.5307V36.128C110.976 38.6568 111.5 40.5534 112.598 41.8179C112.685 41.9164 112.774 42.0114 112.866 42.1028C112.792 42.0277 112.72 41.9503 112.651 41.8706C111.604 40.5535 111.029 38.6569 111.029 36.1807V17.5834C111.029 15.0546 111.552 13.1581 112.651 11.8937C113.802 10.5766 115.476 9.89165 117.778 9.89165C119.908 9.89165 121.5 10.4778 122.638 11.6083C121.497 10.4433 119.889 9.83893 117.726 9.83893ZM118.929 25.8021H124.475V25.8548H118.982V28.3836H118.929V25.8021ZM117.935 41.2384L117.906 41.2383C120.246 41.2274 121.545 39.5427 121.545 36.5495V28.4363H121.598V36.5495C121.598 39.5525 120.29 41.2384 117.935 41.2384ZM123.033 12.0601C123.424 12.5901 123.744 13.2074 123.986 13.9122C123.753 13.1985 123.437 12.5812 123.033 12.0601ZM121.598 17.1925V17.2146V19.3219V17.1925Z" fill="#1D242F"/>
<path fill-rule="evenodd" clip-rule="evenodd" d="M16.009 35.4948V36.2324C16.009 38.7612 16.5323 40.7105 17.631 41.975C18.7298 43.2921 20.4564 43.9769 22.7586 43.9769C25.0607 43.9769 26.7873 43.292 27.9384 41.9223C29.0895 40.6052 29.665 38.6559 29.665 36.0744C29.665 34.0197 29.3511 32.3866 28.5663 30.9114C27.7814 29.2782 26.4734 27.6977 24.3282 25.6431C22.4969 23.9045 21.3459 22.5874 20.6657 21.3757C19.8809 20.0586 19.5146 18.6888 19.5146 17.1084C19.5146 14.1581 20.7703 12.5776 22.9678 12.5776C24.0666 12.5776 24.9037 12.9463 25.4793 13.6839C26.1071 14.4742 26.4211 15.6332 26.4211 17.2137V17.8986H29.5081V17.5825C29.5081 15.0537 28.9848 13.1044 27.9384 11.84C26.8397 10.5229 25.1654 9.83801 22.9155 9.83801L22.8888 9.83804L22.8632 9.83801C21.0219 9.83801 19.665 10.2909 18.6739 11.0233C16.6309 12.5136 16.1137 15.1637 16.1137 17.5298C16.1137 19.4264 16.4276 20.9015 17.2124 22.4293C18.0496 24.0099 19.3576 25.6957 21.5028 27.6977C25.113 31.1222 26.2641 33.2821 26.2641 36.6539C26.2641 37.5498 26.1632 38.3272 25.952 38.9766C25.7865 39.4166 25.5613 39.785 25.27 40.0783C24.6421 40.8159 23.805 41.1847 22.6539 41.1847C21.4192 41.1847 20.4722 40.721 19.8508 39.8469C19.3883 39.087 19.1484 38.049 19.1484 36.7593V35.4948H18.9914V35.2841H16.0614V35.4948H16.009ZM16.0614 35.4948V36.1159V36.0744V35.4948ZM19.8508 39.8469C20.0823 40.2274 20.3697 40.5382 20.7106 40.7759C19.5916 40.0651 18.9914 38.6353 18.9914 36.6012V36.5285C18.9959 37.9413 19.2915 39.0603 19.8508 39.8469ZM25.952 38.9766C26.1988 38.3202 26.313 37.5042 26.3164 36.5398L26.3165 36.6012C26.3165 38.2344 25.9502 39.4461 25.2701 40.289C25.1024 40.4732 24.9081 40.635 24.6885 40.7719C24.8997 40.6226 25.0932 40.4441 25.27 40.2364C25.5646 39.8941 25.7905 39.4727 25.952 38.9766ZM18.6739 11.0233C19.6739 10.2939 21.0394 9.84235 22.8888 9.83804C25.0737 9.84335 26.7393 10.528 27.8338 11.84C28.8802 13.1044 29.4034 15.001 29.4034 17.5298V17.5916C29.3974 15.0846 28.8742 13.2025 27.8338 11.9453C26.7351 10.6282 25.0608 9.94335 22.8633 9.94335C17.3416 9.94335 16.1763 14.0165 16.1661 17.4837L16.166 17.4245C16.166 15.1017 16.6797 12.4969 18.6739 11.0233ZM26.4735 17.2664V17.7406L26.4734 17.2313L26.4735 17.2664ZM19.3577 17.161L19.3578 17.1128C19.3665 18.6704 19.7334 20.0745 20.5087 21.3757C21.2412 22.6401 22.3923 23.9572 24.2236 25.6957C26.3688 27.6977 27.6768 29.3309 28.4616 30.9114C29.1941 32.3866 29.5081 33.967 29.5081 36.0217L29.508 36.0628C29.5015 34.0394 29.1865 32.4764 28.4617 31.0168C27.6769 29.4363 26.3688 27.8031 24.2236 25.8011C22.3924 24.0625 21.2413 22.7454 20.5088 21.481C19.7239 20.1112 19.3577 18.7414 19.3577 17.161Z" fill="#1D242F"/>
<path fill-rule="evenodd" clip-rule="evenodd" d="M63.4633 44.0296H77.0669V41.132H66.8119L77.1193 13.5259V9.83801H63.9865V12.7356H73.7707L63.5156 40.2891L63.4633 44.0296Z" fill="#1D242F"/>
<path d="M157.541 2.98983L150.39 2.98979V0.513672H160V2.98983H157.541Z" fill="#1D242F"/>
<path fill-rule="evenodd" clip-rule="evenodd" d="M48.2902 44.0305H44.837V9.78625H48.2902V44.0305Z" fill="#1D242F"/>
<path d="M143.257 44.0305H139.804V9.78625H143.257V44.0305Z" fill="#1D242F"/>
<path d="M95.751 43.9772H92.2979V9.73291H95.751V43.9772Z" fill="#1D242F"/>
<path fill-rule="evenodd" clip-rule="evenodd" d="M93.8655 0.25C94.5979 0.25 95.2258 0.513417 95.6967 1.04025C96.2199 1.56709 96.4815 2.14661 96.4292 2.88417C96.4292 3.62175 96.1676 4.20126 95.6967 4.7281C95.1735 5.25493 94.5979 5.51835 93.8655 5.51835C93.133 5.51835 92.5051 5.25493 92.0342 4.7281C91.5634 4.20126 91.3018 3.62175 91.3018 2.88417C91.3018 2.14661 91.5634 1.56709 92.0342 1.04025C92.5575 0.513417 93.133 0.25 93.8655 0.25ZM92.1917 1.09235C92.6625 0.618593 93.2379 0.355405 93.9177 0.355405C93.2378 0.355405 92.6625 0.565947 92.1917 1.09235ZM92.1899 4.6741C91.765 4.24562 91.5108 3.6883 91.4659 3.07977C91.5111 3.67998 91.7652 4.19852 92.1899 4.6741Z" fill="#1D242F"/>
<path fill-rule="evenodd" clip-rule="evenodd" d="M141.424 0.25C142.156 0.25 142.784 0.513417 143.255 1.04025C143.726 1.56709 143.988 2.14661 143.988 2.88417C143.988 3.62175 143.726 4.20126 143.255 4.7281C142.732 5.25493 142.156 5.51835 141.424 5.51835C140.691 5.51835 140.063 5.25493 139.592 4.7281C139.122 4.20126 138.86 3.62175 138.86 2.88417C138.86 2.14661 139.122 1.56709 139.592 1.04025C140.116 0.513417 140.691 0.25 141.424 0.25ZM141.448 5.41287C140.78 5.40571 140.214 5.14306 139.749 4.67545C139.279 4.14861 139.017 3.5691 139.017 2.88421C139.017 2.19933 139.279 1.56713 139.749 1.09297C140.215 0.624472 140.782 0.361712 141.452 0.355517C141.442 0.355417 141.433 0.355367 141.424 0.355367C140.744 0.355367 140.168 0.618785 139.697 1.09294C139.226 1.61977 138.965 2.19929 138.965 2.88417C138.965 3.56906 139.226 4.20126 139.697 4.67542C140.168 5.14956 140.744 5.41298 141.424 5.41298C141.432 5.41298 141.44 5.41294 141.448 5.41287Z" fill="#1D242F"/>
</svg>
