<svg width="384" height="341" viewBox="0 0 384 341" fill="none" xmlns="http://www.w3.org/2000/svg">
<path fill-rule="evenodd" clip-rule="evenodd" d="M312.458 299.134H191.686L152.93 340.361V299.134H50.7038C25.0967 299.134 4.36328 278.417 4.36328 252.853V124.817C4.36328 99.2685 25.0967 78.543 50.7038 78.543H298.403C323.987 78.543 344.727 99.2685 344.727 124.817V252.853C344.727 278.417 338.051 299.134 312.458 299.134Z" fill="#ABE4FF"/>
<mask id="mask0" style="mask-type:alpha" maskUnits="userSpaceOnUse" x="0" y="71" width="344" height="270">
<path fill-rule="evenodd" clip-rule="evenodd" d="M0 71.0195H343.615V340.364H0V71.0195Z" fill="white"/>
</mask>
<g mask="url(#mask0)">
<path fill-rule="evenodd" clip-rule="evenodd" d="M49.3164 78.0611C25.9569 78.0611 6.95761 97.2777 6.95761 120.905V249.181C6.95761 272.809 25.9569 292.024 49.3164 292.024H150.427C152.351 292.024 153.91 293.604 153.91 295.541V327.954L186.235 293.137C186.881 292.43 187.809 292.024 188.76 292.024H308.217C327.893 292.024 336.664 278.814 336.664 249.181V120.905C336.664 97.2777 317.665 78.0611 294.31 78.0611H49.3164ZM150.427 340.364C150.003 340.364 149.565 340.286 149.142 340.116C147.82 339.583 146.958 338.287 146.958 336.847V299.067H49.3164C22.1248 299.067 -0.00195312 276.687 -0.00195312 249.181V120.905C-0.00195312 93.3998 22.1248 71.0195 49.3164 71.0195H294.31C321.496 71.0195 343.615 93.3998 343.615 120.905V249.181C343.615 261.514 343.615 299.067 308.217 299.067H190.275L152.959 339.252C152.291 339.98 151.37 340.364 150.427 340.364Z" fill="#4FBBEF"/>
</g>
<path fill-rule="evenodd" clip-rule="evenodd" d="M39.2734 162.751C48.746 161.234 57.5506 159.838 67.2034 158.29C78.8399 167.06 91.1672 176.351 102.841 185.136C119.06 182.539 133.889 180.185 149.483 177.694L122.981 143.928C129.531 141.158 134.993 141.4 140.011 140.094C145.885 138.547 150.347 141.204 155.253 143.868C171.487 152.592 187.953 160.856 204.337 169.286C222.524 166.396 240.598 163.415 258.708 160.66C273.815 158.373 290.41 167.128 296.728 180.396C278.017 183.37 259.341 186.343 241.304 189.219C237.45 192.796 234.115 195.754 230.952 198.894C228.751 201.113 223.591 207.92 222.388 209.173C207.529 224.396 192.596 239.55 177.676 254.689C173.199 259.203 168.655 263.625 164.77 267.452C157.679 268.584 151.414 269.58 145.397 270.546C143.804 268.38 144.277 266.735 145.172 264.833C151.639 251.029 155.283 236.086 161.856 222.275C162.464 220.992 168.136 207.935 169.383 200.743C163.371 201.702 157.393 202.655 151.44 203.605C126.464 207.589 75.4175 216.072 75.4175 216.072C75.4175 216.072 43.5027 169.46 39.2734 162.751Z" fill="#4FBBEF"/>
<path fill-rule="evenodd" clip-rule="evenodd" d="M77.4506 215.406C79.4831 214.741 139.049 205.938 170.183 200.727C168.94 208.253 168.124 214.357 162.621 218.297C146.492 220.943 130.333 223.359 114.264 226.305C108.371 227.395 102.92 227.095 97.4688 224.694C91.1192 221.891 80.8018 221.188 75.418 216.07C75.418 216.07 75.418 216.07 77.4506 215.406Z" fill="#005E8B"/>
<path fill-rule="evenodd" clip-rule="evenodd" d="M241.471 187.619C259.073 184.779 277.305 181.843 295.584 178.906C299.402 182.536 300.886 187.089 301.091 193.134C276.236 197.136 249.614 201.116 225 205.088C225 205.088 237.702 191.151 241.471 187.619Z" fill="#005E8B"/>
<path fill-rule="evenodd" clip-rule="evenodd" d="M383.147 80.6179C377.177 118.716 341.465 144.754 303.379 138.785C265.293 132.8 239.247 97.0885 245.217 58.9983C251.194 20.908 286.924 -5.12283 325.01 0.854046C363.1 6.83878 389.125 42.5351 383.147 80.6179Z" fill="#93D8F9"/>
<path fill-rule="evenodd" clip-rule="evenodd" d="M352.67 42.0312L363.082 53.9771L306.865 102.462L269.635 63.9424L280.609 53.9771L306.865 80.8982L352.67 42.0312Z" fill="white"/>
</svg>
