<svg width="110" height="36" viewBox="0 0 110 36" fill="none" xmlns="http://www.w3.org/2000/svg">
<g clip-path="url(#clip0)">
<path d="M54.871 35.9956C37.2986 35.9956 19.7263 35.9971 2.15398 36C1.51812 36.0002 0.882276 35.9958 0.246429 35.9948C0.00764406 35.9944 0.0072957 35.9901 0.00148172 35.7636C-9.27412e-05 35.7022 0.00117084 35.6408 0.00117084 35.5794C0.00116701 23.9139 0.00142292 12.2484 0.00193802 0.582862C0.0019791 0.114413 -0.0525539 0.181873 0.414086 0.181803C9.44659 0.180444 18.4791 0.180363 27.5116 0.181557C27.9626 0.181608 27.9051 0.126532 27.9084 0.568896C27.9112 0.927027 27.9018 1.2854 27.9121 1.64325C27.9168 1.80635 27.857 1.86602 27.6996 1.85225C27.6182 1.84511 27.5355 1.85114 27.4534 1.85114C18.9957 1.85115 10.538 1.85139 2.08028 1.85185C1.60935 1.8519 1.67115 1.79863 1.6711 2.25881C1.67003 12.8089 1.67012 23.3591 1.67138 33.9092C1.67145 34.3911 1.59981 34.3305 2.09462 34.3305C37.2906 34.3315 72.4866 34.3314 107.683 34.3304C108.178 34.3303 108.112 34.3972 108.112 33.9152C108.113 23.365 108.113 12.8149 108.112 2.26474C108.112 1.79437 108.163 1.8523 107.707 1.85191C105.665 1.85016 103.622 1.84991 101.58 1.85115C101.528 1.85115 101.477 1.85178 101.426 1.85103C101.159 1.84713 101.157 1.84701 101.156 1.57879C101.154 1.20019 101.154 0.821571 101.156 0.442948C101.157 0.183838 101.16 0.181767 101.434 0.181214C102.081 0.17991 102.727 0.179771 103.374 0.180794C105.396 0.180794 107.418 0.180983 109.44 0.181363C109.775 0.181553 109.773 0.131823 109.789 0.500718C109.815 1.10466 109.785 1.70737 109.785 2.31059C109.784 13.3928 109.783 24.4751 109.783 35.5573C109.783 36.0605 109.847 35.9947 109.342 35.9947C91.1847 35.9958 73.0278 35.9962 54.871 35.9956Z" fill="#313134"/>
<path d="M78.4546 18.0839C78.4546 20.2427 78.4546 22.4014 78.4545 24.5602C78.4544 25.0936 78.4873 25.6211 78.6498 26.1361C79.0019 27.2517 79.8879 27.9053 81.2348 27.7662C82.3981 27.646 83.0442 26.8625 83.2732 25.7452C83.3579 25.3319 83.3735 24.9123 83.3747 24.4933C83.3796 22.8359 83.3767 21.1784 83.3767 19.521C83.3767 19.4903 83.3775 19.4596 83.3766 19.4289C83.3699 19.1908 83.3698 19.1866 83.1368 19.1848C82.716 19.1815 82.2953 19.1852 81.8745 19.1833C81.6008 19.1821 81.5982 19.18 81.5971 18.9188C81.5952 18.4481 81.6018 17.9774 81.5939 17.5069C81.5912 17.3459 81.6488 17.2981 81.8071 17.2988C82.9668 17.3041 84.1264 17.3006 85.2861 17.3025C85.5021 17.3029 85.5041 17.3084 85.5041 17.5889C85.5043 19.8909 85.5044 22.1929 85.5044 24.4949C85.5058 24.8837 85.4806 25.2721 85.4289 25.6575C85.3451 26.2678 85.1993 26.8618 84.9285 27.4198C84.4203 28.4666 83.6002 29.1492 82.4794 29.4541C81.4349 29.7413 80.3334 29.7532 79.2829 29.4888C77.8261 29.1277 76.8969 28.1952 76.4448 26.7796C76.2507 26.1536 76.1448 25.5037 76.13 24.8486C76.1237 24.6544 76.123 24.4599 76.123 24.2655C76.1226 20.1424 76.1223 16.0193 76.1221 11.8961C76.1218 11.127 76.1756 10.3665 76.3695 9.61669C76.814 7.89833 78.0139 6.78614 79.7998 6.54834C80.7554 6.4211 81.7031 6.4364 82.6312 6.72874C83.8645 7.11723 84.6685 7.95014 85.1096 9.14475C85.3596 9.8219 85.4713 10.5285 85.4925 11.2475C85.5078 11.7689 85.4962 12.291 85.5073 12.8126C85.5107 12.973 85.4575 13.0237 85.2975 13.0214C84.7435 13.0136 84.1892 13.0198 83.6351 13.0179C83.382 13.017 83.3791 13.014 83.3774 12.7685C83.3731 12.1548 83.3903 11.5408 83.3432 10.9279C83.318 10.5603 83.2393 10.1983 83.1094 9.85328C82.6759 8.72587 81.7778 8.26318 80.6314 8.36528C79.6027 8.45689 78.9753 9.05127 78.6585 10.0026C78.5317 10.3816 78.4663 10.7784 78.4646 11.178C78.4596 12.3955 78.4564 13.6129 78.4549 14.8304C78.4534 15.9149 78.4533 16.9994 78.4546 18.0839Z" fill="#313134"/>
<path d="M19.1838 11.9699C18.9067 11.9699 18.6296 11.9724 18.3525 11.9691C18.1323 11.9665 18.1293 11.9635 18.1259 11.7505C18.1198 11.3723 18.1271 10.9944 18.0666 10.6181C18.0275 10.3552 17.964 10.0966 17.8767 9.84546C17.474 8.72535 16.5956 8.26828 15.4694 8.36482C14.5335 8.44504 13.9251 8.96398 13.6074 9.83314C13.319 10.6223 13.3155 11.4395 13.4108 12.2571C13.5532 13.4786 14.1374 14.501 14.912 15.4291C15.4188 16.0338 15.9624 16.6069 16.5397 17.1451C17.4388 17.987 18.2922 18.8696 19.0026 19.8811C19.7587 20.9476 20.2042 22.2018 20.2899 23.505C20.3613 24.492 20.3286 25.4679 20.0889 26.4294C19.8529 27.3756 19.4147 28.2049 18.6247 28.8161C18.0606 29.2525 17.4151 29.4943 16.7171 29.6162C15.8763 29.7685 15.0135 29.7509 14.1797 29.5642C12.7255 29.2335 11.7839 28.333 11.3204 26.9264C11.0052 25.9699 10.9548 24.9822 10.9695 23.9863C10.9713 23.8693 11.0155 23.8232 11.1333 23.8238C11.7286 23.8267 12.3239 23.8288 12.9191 23.8224C13.077 23.8206 13.1085 23.8962 13.1061 24.029C13.1018 24.2643 13.104 24.4997 13.106 24.735C13.1098 25.1656 13.1397 25.5932 13.2524 26.0116C13.3142 26.2493 13.4045 26.4788 13.5216 26.6948C13.8917 27.3649 14.4653 27.7299 15.2238 27.8035C15.4997 27.8346 15.7786 27.8284 16.0529 27.7852C16.8489 27.6472 17.3791 27.1794 17.6887 26.4483C17.8827 25.9905 17.9592 25.5073 17.9908 25.0151C18.1106 23.1471 17.4969 21.5408 16.2577 20.1524C15.8275 19.6705 15.3855 19.2009 14.9182 18.7549C14.0799 17.9549 13.2614 17.1376 12.56 16.2104C11.8178 15.2294 11.2986 14.1526 11.1285 12.9282C10.9429 11.5932 10.99 10.2727 11.4948 9.00279C12.0395 7.63279 13.0714 6.83756 14.5107 6.57658C15.3955 6.41614 16.2872 6.41798 17.168 6.63292C18.4999 6.95795 19.3798 7.78352 19.8478 9.05829C20.1696 9.935 20.2499 10.8489 20.2669 11.7731C20.2695 11.9153 20.2283 11.9766 20.0766 11.9723C19.7792 11.9637 19.4814 11.9698 19.1838 11.9699Z" fill="#313134"/>
<path d="M45.8838 27.7495H46.2709C48.3744 27.7495 50.4779 27.7496 52.5814 27.7498C52.9417 27.7499 52.9139 27.717 52.9145 28.0785C52.9152 28.5593 52.9168 29.0401 52.9136 29.5209C52.9122 29.7358 52.9075 29.7368 52.6871 29.7441C52.5948 29.7472 52.5024 29.7448 52.41 29.7448C49.5883 29.7448 46.7666 29.7448 43.9448 29.7449C43.4911 29.7449 43.5656 29.7539 43.5634 29.3684C43.5599 28.7547 43.5664 28.1408 43.5602 27.5271C43.5588 27.3335 43.5941 27.1414 43.6644 26.9609C45.6059 21.8053 47.5454 16.649 49.4831 11.492C49.8177 10.6023 50.155 9.71365 50.4876 8.82322C50.5224 8.73005 50.5823 8.6412 50.5677 8.51215C50.4713 8.45979 50.3577 8.48379 50.251 8.4837C48.2604 8.48201 46.2697 8.48139 44.2791 8.48184C43.8576 8.48155 43.9026 8.52643 43.9006 8.10548C43.8984 7.65539 43.8985 7.20529 43.9009 6.75518C43.9023 6.50949 43.9058 6.50599 44.1614 6.50571C45.4029 6.50439 46.6445 6.50418 47.886 6.5051C49.4354 6.50509 50.9848 6.5051 52.5342 6.50511C52.606 6.50511 52.6781 6.50876 52.7497 6.50474C52.8652 6.49824 52.9159 6.54521 52.9154 6.66436C52.9126 7.43155 52.9173 8.19881 52.9086 8.96591C52.9074 9.07302 52.851 9.18133 52.8117 9.28592C51.0323 14.0219 49.2523 18.7577 47.4718 23.4933C46.979 24.804 46.4864 26.1147 45.9937 27.4255C45.9585 27.5193 45.9291 27.6154 45.8838 27.7495Z" fill="#313134"/>
<path d="M63.3304 18.1066C63.3304 14.3522 63.3307 10.5978 63.3314 6.84341C63.3315 6.45494 63.2588 6.46515 63.7109 6.46515C64.2753 6.46515 64.8396 6.46425 65.404 6.46553C65.7002 6.4662 65.7002 6.46792 65.7022 6.77406C65.7024 6.80475 65.7022 6.83544 65.7022 6.86613C65.7022 14.3545 65.7021 21.8428 65.7017 29.3311C65.7017 29.7766 65.7464 29.7166 65.3043 29.7188C64.7297 29.7217 64.1551 29.7217 63.5804 29.7188C63.3344 29.7179 63.3317 29.7145 63.331 29.4618C63.3292 28.8685 63.3304 28.2752 63.3304 27.6818C63.3304 24.4901 63.3304 21.2983 63.3304 18.1066Z" fill="#313134"/>
<path d="M95.9585 18.0725C95.9585 14.3279 95.9588 10.5832 95.9594 6.83856C95.9596 6.44719 95.893 6.4658 96.3438 6.46527C96.9185 6.46459 97.4932 6.46472 98.0679 6.46567C98.3435 6.46656 98.3436 6.46925 98.3479 6.73086C98.3487 6.782 98.348 6.83317 98.348 6.88433C98.348 14.3634 98.3478 21.8425 98.3473 29.3215C98.3473 29.7662 98.4015 29.7172 97.9595 29.7189C97.4054 29.7211 96.8512 29.7211 96.297 29.719C95.9131 29.7178 95.9601 29.7536 95.9592 29.3678C95.9571 28.5289 95.9585 27.6899 95.9585 26.8509V18.0725Z" fill="#313134"/>
<path d="M33.147 18.1373V29.2764C33.147 29.3377 33.1473 29.3991 33.1469 29.4605C33.1451 29.7594 33.1451 29.7606 32.8469 29.761C32.2416 29.7619 31.6363 29.7628 31.0309 29.7605C30.7976 29.7596 30.7972 29.7557 30.7916 29.5225C30.7901 29.4612 30.7913 29.3998 30.7913 29.3384C30.7913 21.851 30.7916 14.3635 30.7921 6.87611C30.7922 6.41626 30.7311 6.46755 31.1982 6.46566C31.7728 6.46334 32.3473 6.46363 32.9219 6.46652C33.1399 6.46793 33.1404 6.47428 33.1466 6.69135C33.1486 6.76289 33.147 6.83454 33.147 6.90614C33.147 10.6499 33.147 14.3936 33.147 18.1373Z" fill="#313134"/>
<path d="M62.6976 1.77871C62.6477 0.884583 63.4311 -0.00899477 64.4579 0.000812417C64.9259 0.0104868 65.3713 0.202843 65.6984 0.536514C66.0256 0.870186 66.2083 1.31852 66.2073 1.78511C66.2064 2.2517 66.0218 2.69927 65.6932 3.03157C65.3647 3.36388 64.9184 3.55438 64.4505 3.5621C63.4595 3.5849 62.641 2.67561 62.6976 1.77871Z" fill="#313134"/>
<path d="M33.7042 1.77667C33.7626 2.66796 32.9445 3.58299 31.9516 3.56199C31.7183 3.5597 31.4877 3.51157 31.273 3.42036C31.0584 3.32915 30.8638 3.19664 30.7006 3.03041C30.5374 2.86418 30.4086 2.6675 30.3216 2.45161C30.2347 2.23573 30.1913 2.00487 30.194 1.77226C30.1949 0.802582 30.9799 0.00939214 31.9404 0.000803227C32.9836 -0.00852566 33.7577 0.905617 33.7042 1.77667Z" fill="#313134"/>
<path d="M95.3233 1.80148C95.3116 1.33696 95.4849 0.886722 95.8053 0.549237C96.1257 0.211753 96.5671 0.0144954 97.033 0.000611349C98.0204 -0.0258901 98.8196 0.813171 98.8342 1.74736C98.8501 2.75903 97.9866 3.54109 97.1336 3.56645C96.1849 3.59467 95.2986 2.78019 95.3233 1.80148Z" fill="#313134"/>
</g>
<defs>
<clipPath id="clip0">
<rect width="109.8" height="36" fill="white"/>
</clipPath>
</defs>
</svg>
