<svg width="17" height="19" viewBox="0 0 17 19" fill="none" xmlns="http://www.w3.org/2000/svg">
<path d="M15.2585 7.97153C14.3314 7.96989 13.4043 7.96953 12.4771 7.97044L10.857 7.97099V5.88662C10.857 4.50597 10.857 3.12531 10.857 1.74465C10.8564 1.25113 10.6106 1.00109 10.1253 1.00109C8.73494 1.00055 7.34436 1.00018 5.95359 1C4.54551 1 3.13779 1.00036 1.73042 1.00109C1.2457 1.00109 1.0004 1.25167 1.0004 1.74574C0.999866 6.91625 0.999866 12.0866 1.0004 17.2567C1.0004 17.7491 1.24677 17.9992 1.73256 17.9992C6.24495 18.0003 10.7572 18.0003 15.2692 17.9992C15.7539 17.9992 15.9992 17.7481 15.9998 17.2534C16.0003 14.413 16.0003 11.5725 15.9998 8.73201C15.9998 8.22812 15.7502 7.97208 15.2585 7.97153ZM9.55547 16.6829H6.59041L6.5797 16.4766C6.57863 16.4564 6.57702 16.4362 6.57595 16.4154C6.5722 16.3641 6.56899 16.3112 6.56845 16.2549C6.56792 16.0819 6.56845 15.9094 6.56899 15.7363C6.56953 15.3984 6.5706 15.0484 6.56363 14.7056C6.56156 14.555 6.50669 14.4101 6.40895 14.2972C6.31121 14.1842 6.17704 14.1107 6.03072 14.0898C5.69329 14.0466 5.40675 14.2301 5.3173 14.5445C5.29722 14.6309 5.28822 14.7195 5.29052 14.8082C5.28785 15.1571 5.28838 15.5119 5.28892 15.8559V16.6862H2.30297V2.31242H9.55547V16.6829ZM14.702 16.6819H10.872V9.29651H14.702V16.6819Z" fill="#485768" stroke="#485768" stroke-width="0.5"/>
<path d="M7.43014 8.64895C7.42285 8.82083 7.35003 8.98301 7.22719 9.10099C7.10435 9.21896 6.94118 9.2834 6.77243 9.28059C6.57801 9.28387 6.3793 9.28278 6.18756 9.28223C6.1024 9.28169 6.01777 9.28114 5.93261 9.28114C5.84156 9.28169 5.75051 9.28169 5.65946 9.28223C5.46718 9.28332 5.26794 9.28387 5.07352 9.28005C4.90761 9.28008 4.74805 9.215 4.62798 9.09829C4.5079 8.98159 4.43652 8.82224 4.42866 8.65332C4.41958 8.48194 4.47756 8.31388 4.58988 8.186C4.63957 8.12813 4.70006 8.0809 4.76783 8.04706C4.83559 8.01323 4.90928 7.99347 4.98461 7.98892C5.2974 7.97254 5.6134 7.96436 5.93261 7.96436C6.2438 7.96436 6.55569 7.97218 6.8683 7.98783C6.94412 7.99208 7.01837 8.01158 7.08676 8.04522C7.15516 8.07886 7.21634 8.12596 7.26678 8.18382C7.37928 8.31084 7.43799 8.47802 7.43014 8.64895V8.64895Z" fill="#485768" stroke="#485768" stroke-width="0.5"/>
<path d="M7.43136 5.13381C7.43618 5.50122 7.14374 5.78565 6.75062 5.79547C6.56583 5.79984 6.3757 5.7982 6.19252 5.79766C6.1079 5.79711 6.02328 5.79656 5.93865 5.79656H5.93276C5.85135 5.79656 5.76994 5.79657 5.68853 5.79711C5.50589 5.79766 5.31736 5.7982 5.13258 5.79602C4.72339 5.79001 4.42667 5.51323 4.42774 5.13763C4.42934 4.75548 4.71964 4.48742 5.13419 4.48579C5.75173 4.48415 6.26108 4.48415 6.7383 4.48633C7.13464 4.48797 7.426 4.76039 7.43136 5.13381Z" fill="#485768" stroke="#485768" stroke-width="0.5"/>
</svg>
