<svg width="152" height="152" viewBox="0 0 152 152" fill="none" xmlns="http://www.w3.org/2000/svg">
<g clip-path="url(#clip0)">
<path d="M131.305 70.9435L138.184 47.8622L111.931 20.8582L78.5121 32.9143L72.523 55.4433L97.0041 82.9722L131.305 70.9435Z" stroke="#1E1E1F"/>
<path d="M78.0977 32.5336L102.979 60.5146" stroke="#1E1E1F" stroke-miterlimit="10"/>
<path d="M138.744 47.7256L102.979 60.5147" stroke="#1E1E1F" stroke-miterlimit="10"/>
<path d="M96.8516 83.5625L102.977 60.5176" stroke="#1E1E1F" stroke-miterlimit="10"/>
<path d="M34.6752 46.8637L16.6857 55.6936L15.0514 87.1875L41.3627 100.958L58.5113 91.8926L61.4709 61.194L34.6752 46.8637Z" stroke="#1E1E1F"/>
<path d="M41.3627 101.522L44.3802 70.2234" stroke="#1E1E1F" stroke-miterlimit="10"/>
<path d="M16.2002 55.3733L44.3801 70.2221" stroke="#1E1E1F" stroke-miterlimit="10"/>
<path d="M62.002 60.9102L44.3833 70.2235" stroke="#1E1E1F" stroke-miterlimit="10"/>
<path d="M76.7494 128.097L90.1949 128.466L100.973 110.165L89.5395 93.6813L76.5215 93.7152L65.1999 111.125L76.7494 128.097Z" stroke="#1E1E1F"/>
<path d="M89.7992 93.18L78.1486 111.096" stroke="#1E1E1F" stroke-miterlimit="10"/>
<path d="M90.4748 128.975L78.1484 111.096" stroke="#1E1E1F" stroke-miterlimit="10"/>
<path d="M64.5977 111.13L78.147 111.095" stroke="#1E1E1F" stroke-miterlimit="10"/>
<g clip-path="url(#clip1)">
<path d="M112.562 30.5557L108.212 32.2323L103.692 30.4696L97.1676 32.9845L97.3381 36.4238L92.9885 38.1004C92.1233 38.4339 91.5406 39.0278 91.3687 39.7514C91.1968 40.475 91.4496 41.269 92.0717 41.9588L101.453 52.3629C102.075 53.0527 103.016 53.5818 104.067 53.8338C105.119 54.0857 106.196 54.0399 107.061 53.7064L126.634 46.1617C127.499 45.8282 128.082 45.2343 128.254 44.5107C128.426 43.7871 128.173 42.9931 127.551 42.3032L118.17 31.8992C117.547 31.2094 116.607 30.6803 115.556 30.4283C114.504 30.1764 113.427 30.2222 112.562 30.5557ZM113.72 46.466C112.645 46.8806 111.365 47.0315 110.041 46.8998C108.717 46.7681 107.41 46.3597 106.284 45.7262C105.158 45.0927 104.265 44.2626 103.716 43.3408C103.168 42.419 102.989 41.447 103.203 40.5477C103.416 39.6483 104.013 38.862 104.917 38.2882C105.821 37.7144 106.991 37.3788 108.281 37.324C109.57 37.2692 110.92 37.4975 112.16 37.9801C113.401 38.4627 114.475 39.1779 115.248 40.0353C116.285 41.185 116.707 42.5084 116.42 43.7144C116.133 44.9204 115.162 45.9102 113.72 46.466Z" fill="#F8B225"/>
</g>
<g clip-path="url(#clip2)">
<path d="M37.8373 70.6467L22.7299 62.8834C22.5073 62.7691 22.2868 62.7588 22.1168 62.855C21.9468 62.9512 21.8413 63.146 21.8234 63.3964L20.3453 84.1706C20.3274 84.421 20.3988 84.7066 20.5436 84.9646C20.6884 85.2226 20.8948 85.4318 21.1174 85.5462L36.2247 93.3094C36.4473 93.4238 36.6679 93.434 36.8379 93.3378C37.0079 93.2416 37.1134 93.0469 37.1312 92.7964L38.6094 72.0223C38.6272 71.7719 38.5559 71.4862 38.4111 71.2283C38.2663 70.9703 38.0599 70.7611 37.8373 70.6467V70.6467ZM32.5658 83.5987C32.4945 84.6005 32.0724 85.3794 31.3924 85.7643C30.7124 86.1491 29.8302 86.1082 28.9398 85.6507C28.0494 85.1931 27.2238 84.3564 26.6446 83.3245C26.0654 82.2926 25.7801 81.1501 25.8514 80.1484L26.0529 77.3155L27.7315 78.1781L27.53 81.011C27.4943 81.5118 27.637 82.0831 27.9266 82.599C28.2162 83.115 28.629 83.5333 29.0742 83.7621C29.5194 83.9909 29.9605 84.0113 30.3005 83.8189C30.6405 83.6265 30.8515 83.237 30.8872 82.7361L31.0887 79.9033L32.7673 80.7659L32.5658 83.5987ZM28.5037 79.5537L28.7724 75.7766C28.7902 75.5261 28.8957 75.3314 29.0657 75.2352C29.2357 75.139 29.4563 75.1492 29.6789 75.2636C29.9015 75.378 30.1079 75.5872 30.2527 75.8451C30.3975 76.1031 30.4688 76.3887 30.451 76.6392L30.1822 80.4163C30.1644 80.6667 30.0589 80.8615 29.8889 80.9577C29.7189 81.0539 29.4984 81.0437 29.2758 80.9293C29.0532 80.8149 28.8468 80.6057 28.702 80.3477C28.5572 80.0898 28.4858 79.8041 28.5037 79.5537ZM32.9017 78.8773L31.2231 78.0147L31.4247 75.1819C31.4603 74.681 31.3177 74.1098 31.0281 73.5938C30.7385 73.0779 30.3257 72.6595 29.8805 72.4308C29.4353 72.202 28.9942 72.1816 28.6542 72.374C28.3142 72.5664 28.1031 72.9559 28.0675 73.4567L27.8659 76.2896L26.1873 75.427L26.3889 72.5941C26.4602 71.5924 26.8822 70.8134 27.5622 70.4286C28.2422 70.0438 29.1245 70.0847 30.0148 70.5422C30.9052 70.9997 31.7308 71.8365 32.31 72.8684C32.8892 73.9003 33.1746 75.0427 33.1033 76.0445L32.9017 78.8773Z" fill="#E8672C"/>
</g>
<g clip-path="url(#clip3)">
<path d="M91.6138 101.155L90.5538 105.659L89.4958 104.157C89.2153 103.759 88.8346 103.535 88.4376 103.535C88.0406 103.535 87.6598 103.758 87.3789 104.157L83.143 110.162C82.8621 110.56 82.7042 111.1 82.704 111.663C82.7038 112.227 82.8613 112.767 83.1419 113.165L87.3736 119.173C87.6542 119.572 88.0349 119.796 88.4319 119.796C88.8289 119.796 89.2097 119.572 89.4905 119.174L93.7265 113.169C94.0074 112.771 94.1653 112.231 94.1655 111.667C94.1656 111.104 94.0081 110.564 93.7276 110.166L92.6696 108.663L95.8455 107.163L91.6138 101.155Z" fill="#512DC8"/>
</g>
</g>
<defs>
<clipPath id="clip0">
<path d="M0 0H152V152H0V0Z" fill="white"/>
</clipPath>
<clipPath id="clip1">
<path d="M86.5977 35.8896L112.696 25.83L131.459 46.6381L105.361 56.6977L86.5977 35.8896Z" fill="white"/>
</clipPath>
<clipPath id="clip2">
<path d="M20.2109 61.5898L40.3541 71.9409L38.7415 94.6036L18.5984 84.2526L20.2109 61.5898Z" fill="white"/>
</clipPath>
<clipPath id="clip3">
<path d="M81.0254 110.161L89.4973 98.1507L97.9607 110.167L89.4888 122.178L81.0254 110.161Z" fill="white"/>
</clipPath>
</defs>
</svg>
