<svg width="20" height="20" viewBox="0 0 20 20" fill="none" xmlns="http://www.w3.org/2000/svg">
<path d="M2.5 5H4.16667H17.5" stroke="white" stroke-width="1.5" stroke-linecap="round" stroke-linejoin="round"/>
<path d="M16.5833 5.0013C16.5833 4.58709 16.2475 4.2513 15.8333 4.2513C15.4191 4.2513 15.0833 4.58709 15.0833 5.0013H16.5833ZM4.91663 5.0013C4.91663 4.58709 4.58084 4.2513 4.16663 4.2513C3.75241 4.2513 3.41663 4.58709 3.41663 5.0013H4.91663ZM5.91663 5.0013C5.91663 5.41552 6.25241 5.7513 6.66663 5.7513C7.08084 5.7513 7.41663 5.41552 7.41663 5.0013H5.91663ZM12.5833 5.0013C12.5833 5.41552 12.9191 5.7513 13.3333 5.7513C13.7475 5.7513 14.0833 5.41552 14.0833 5.0013H12.5833ZM15.0833 5.0013V16.668H16.5833V5.0013H15.0833ZM15.0833 16.668C15.0833 17.1742 14.6729 17.5846 14.1666 17.5846V19.0846C15.5013 19.0846 16.5833 18.0027 16.5833 16.668H15.0833ZM14.1666 17.5846H5.83329V19.0846H14.1666V17.5846ZM5.83329 17.5846C5.32703 17.5846 4.91663 17.1742 4.91663 16.668H3.41663C3.41663 18.0027 4.4986 19.0846 5.83329 19.0846V17.5846ZM4.91663 16.668V5.0013H3.41663V16.668H4.91663ZM7.41663 5.0013V3.33464H5.91663V5.0013H7.41663ZM7.41663 3.33464C7.41663 2.82837 7.82703 2.41797 8.33329 2.41797V0.917969C6.99861 0.917969 5.91663 1.99995 5.91663 3.33464H7.41663ZM8.33329 2.41797H11.6666V0.917969H8.33329V2.41797ZM11.6666 2.41797C12.1729 2.41797 12.5833 2.82837 12.5833 3.33464H14.0833C14.0833 1.99995 13.0013 0.917969 11.6666 0.917969V2.41797ZM12.5833 3.33464V5.0013H14.0833V3.33464H12.5833Z" fill="white"/>
<path d="M8.33337 9.16797V14.168" stroke="white" stroke-width="1.5" stroke-linecap="round" stroke-linejoin="round"/>
<path d="M11.6666 9.16797V14.168" stroke="white" stroke-width="1.5" stroke-linecap="round" stroke-linejoin="round"/>
</svg>
