<svg width="27" height="27" viewBox="0 0 27 27" fill="none" xmlns="http://www.w3.org/2000/svg">
<path fill-rule="evenodd" clip-rule="evenodd" d="M13.5 16.875C15.364 16.875 16.875 15.364 16.875 13.5C16.875 11.636 15.364 10.125 13.5 10.125C11.636 10.125 10.125 11.636 10.125 13.5C10.125 15.364 11.636 16.875 13.5 16.875Z" stroke="#485768" stroke-width="2" stroke-linecap="round" stroke-linejoin="round"/>
<path fill-rule="evenodd" clip-rule="evenodd" d="M21.825 16.875C21.5186 17.5692 21.6656 18.38 22.1962 18.9225L22.2638 18.99C22.6862 19.412 22.9236 19.9847 22.9236 20.5819C22.9236 21.179 22.6862 21.7517 22.2638 22.1737C21.8417 22.5962 21.269 22.8336 20.6719 22.8336C20.0747 22.8336 19.502 22.5962 19.08 22.1737L19.0125 22.1062C18.47 21.5756 17.6592 21.4286 16.965 21.735C16.285 22.0265 15.843 22.6939 15.84 23.4337V23.625C15.84 24.8676 14.8326 25.875 13.59 25.875C12.3474 25.875 11.34 24.8676 11.34 23.625V23.5237C11.3222 22.7618 10.8404 22.0881 10.125 21.825C9.43077 21.5186 8.61996 21.6656 8.0775 22.1962L8.01 22.2638C7.58797 22.6862 7.0153 22.9236 6.41812 22.9236C5.82095 22.9236 5.24828 22.6862 4.82625 22.2638C4.40375 21.8417 4.16635 21.269 4.16635 20.6719C4.16635 20.0747 4.40375 19.502 4.82625 19.08L4.89375 19.0125C5.42437 18.47 5.57139 17.6592 5.265 16.965C4.97355 16.285 4.3061 15.843 3.56625 15.84H3.375C2.13236 15.84 1.125 14.8326 1.125 13.59C1.125 12.3474 2.13236 11.34 3.375 11.34H3.47625C4.23825 11.3222 4.9119 10.8404 5.175 10.125C5.48139 9.43077 5.33437 8.61996 4.80375 8.0775L4.73625 8.01C4.31375 7.58797 4.07636 7.0153 4.07636 6.41812C4.07636 5.82095 4.31375 5.24828 4.73625 4.82625C5.15828 4.40375 5.73095 4.16635 6.32812 4.16635C6.9253 4.16635 7.49797 4.40375 7.92 4.82625L7.9875 4.89375C8.52996 5.42437 9.34077 5.57139 10.035 5.265H10.125C10.805 4.97355 11.247 4.3061 11.25 3.56625V3.375C11.25 2.13236 12.2574 1.125 13.5 1.125C14.7426 1.125 15.75 2.13236 15.75 3.375V3.47625C15.753 4.2161 16.195 4.88355 16.875 5.175C17.5692 5.48139 18.38 5.33437 18.9225 4.80375L18.99 4.73625C19.412 4.31375 19.9847 4.07636 20.5819 4.07636C21.179 4.07636 21.7517 4.31375 22.1737 4.73625C22.5962 5.15828 22.8336 5.73095 22.8336 6.32812C22.8336 6.9253 22.5962 7.49797 22.1737 7.92L22.1062 7.9875C21.5756 8.52996 21.4286 9.34077 21.735 10.035V10.125C22.0265 10.805 22.6939 11.247 23.4337 11.25H23.625C24.8676 11.25 25.875 12.2574 25.875 13.5C25.875 14.7426 24.8676 15.75 23.625 15.75H23.5237C22.7839 15.753 22.1165 16.195 21.825 16.875Z" stroke="#485768" stroke-width="2" stroke-linecap="round" stroke-linejoin="round"/>
</svg>
