<svg width="592" height="468" viewBox="0 0 592 468" fill="none" xmlns="http://www.w3.org/2000/svg">
<path opacity="0.5" d="M277.321 456.708C408.745 456.708 515.285 451.893 515.285 445.953C515.285 440.014 408.745 435.199 277.321 435.199C145.897 435.199 39.3564 440.014 39.3564 445.953C39.3564 451.893 145.897 456.708 277.321 456.708Z" fill="#DBE1E8"/>
<g opacity="0.5">
<g opacity="0.5">
<path opacity="0.5" fill-rule="evenodd" clip-rule="evenodd" d="M382.34 0C392.987 0.422045 403.384 0.765634 413.773 1.26289C427.971 1.94357 441.386 5.80529 454.54 10.5804C459.294 12.3064 464.033 14.1136 468.627 16.1833C493.074 27.1976 512.519 43.3998 525.773 65.9056C532.089 76.6326 535.409 88.273 536.864 100.386C539.08 118.838 536.87 136.988 530.96 154.576C525.235 171.615 515.796 186.854 503.356 200.42C496.569 207.822 489.07 214.435 480.748 220.246C467.94 229.189 455.177 238.187 442.34 247.091C438.82 249.533 435.052 251.654 431.495 254.051C427.345 256.847 423.122 259.583 419.246 262.695C402.207 276.376 393.939 293.765 395.005 314.973C395.38 322.435 395.9 329.892 396.175 337.358C396.444 344.665 394.079 351.287 389.928 357.418C387.993 360.277 385.602 362.68 382.853 364.827C373.935 371.796 363.853 376.837 353.146 380.813C337.111 386.767 320.518 390.773 303.526 393.383C291.3 395.261 279.032 396.746 266.666 397.505C251.267 398.45 235.868 398.271 220.487 397.346C201.059 396.175 181.763 393.88 162.574 390.779C145.352 387.995 128.145 385.113 111.222 380.963C91.8874 376.222 72.7243 370.943 54.3973 363.303C43.5016 358.76 33.2037 353.255 23.9612 346.086C13.4663 337.945 6.06595 327.838 1.92571 315.585C-0.147271 309.45 -0.37003 303.179 0.425948 296.908C2.42105 281.192 7.32806 266.384 16.4572 252.959C20.9301 246.382 26.3577 240.566 32.1471 235.027C37.5598 229.849 43.1116 224.794 48.3777 219.486C51.6423 216.196 54.6367 212.639 57.4925 209.02C64.4163 200.242 66.3307 190.406 64.3877 179.673C63.3902 174.162 62.6285 168.563 62.4419 162.984C62.0101 150.103 65.9562 138.151 71.9547 126.716C76.9974 117.104 83.7546 108.666 91.5684 100.947C115.363 77.4389 142.743 58.6546 174.184 45.3028C199.517 34.5444 225.118 24.3904 251.45 15.9831C265.586 11.4699 280.139 8.53289 294.912 6.74732C311.001 4.80266 327.119 2.95215 343.279 1.67303C356.332 0.640102 369.467 0.517276 382.34 0Z" fill="#E5DFFF"/>
</g>
</g>
<path fill-rule="evenodd" clip-rule="evenodd" d="M118.864 267.696C112.706 265.813 106.612 263.674 100.37 262.133C95.7418 260.99 90.9278 260.645 86.1454 261.7C79.0515 263.265 73.8527 268.841 73.0991 275.993C72.4074 282.561 75.3216 286.376 80.9947 288.08C83.9137 288.957 86.9381 288.819 89.9108 287.974C93.8468 286.857 97.0428 284.556 100.128 281.982C106.085 277.011 111.605 271.442 118.864 267.696ZM93.1641 241.831C93.2094 235.856 93.3502 230.142 93.2596 224.432C93.2071 221.099 93.0919 217.714 92.4616 214.454C91.2351 208.108 88.2039 202.685 82.8049 198.84C77.7287 195.224 71.5766 195.105 66.6401 198.389C61.3094 201.936 58.6984 208.249 60.0247 214.174C60.4798 216.206 61.2615 218.071 62.6566 219.589C64.5057 221.602 66.3243 223.704 68.4609 225.383C76.2426 231.497 84.792 236.481 93.1641 241.831ZM127.486 263.48C130.969 261.347 134.064 259.45 137.159 257.556C143.316 253.788 147.899 248.604 150.758 242.017C154.4 233.624 153.224 225.735 147.531 218.593C144.333 214.582 139.64 213.464 134.823 215.229C132.437 216.104 130.46 217.561 128.777 219.439C125.325 223.288 123.703 227.908 123.243 232.953C123.026 235.321 122.985 237.73 123.14 240.104C123.652 247.983 125.903 255.543 127.486 263.48ZM183.828 356.862C183.849 356.661 183.87 356.459 183.892 356.257C179.208 354.249 174.553 352.169 169.833 350.251C162.696 347.35 155.298 345.379 147.594 344.835C141.111 344.376 134.727 344.978 128.766 347.891C125.029 349.716 121.932 352.328 120.099 356.162C115.511 365.755 122.024 377.113 132.77 378.509C139.059 379.325 144.898 377.813 150.404 375.044C155.365 372.548 160.105 369.605 164.929 366.835C168.988 364.504 172.983 362.056 177.094 359.822C179.241 358.655 181.577 357.838 183.828 356.862ZM165.207 312.632C158.963 310.634 154.157 306.557 148.82 303.389C144.215 300.655 139.595 297.899 134.771 295.593C129.451 293.051 123.755 291.918 117.812 293.059C108.887 294.774 101.996 304.086 104.948 314.041C107.419 322.372 115.802 329.618 124.5 330.411C133.76 331.256 142.352 329.286 149.968 323.769C154.947 320.163 159.896 316.516 165.207 312.632ZM175.987 307.118C182.045 305.04 187.89 303.075 193.704 301.026C197.232 299.782 200.458 297.933 203.392 295.635C212.232 288.71 217.974 279.842 219.426 268.639C220.53 260.118 216.553 252.433 207.229 250.773C204.461 250.28 201.756 250.617 199.106 251.408C192.024 253.52 186.967 258.06 183.467 264.433C179.83 271.054 178.279 278.243 177.783 285.699C177.438 290.88 177.237 296.071 176.871 301.25C176.736 303.152 176.31 305.033 175.987 307.118ZM197.179 401.889C196.127 401.693 195.206 401.53 194.288 401.35C189.973 400.498 185.647 399.703 181.351 398.769C176.279 397.667 171.26 396.307 166.168 395.311C160.445 394.191 154.659 393.836 148.86 394.991C144.818 395.796 141.057 397.26 137.884 399.961C133.775 403.458 131.731 407.938 132.292 413.353C133.318 423.273 141.285 430.176 149.029 432.123C154.239 433.433 159.317 432.64 164.182 430.259C168.593 428.099 172.473 425.171 176.078 421.909C183.023 415.624 189.825 409.178 196.677 402.79C196.852 402.627 196.925 402.353 197.179 401.889ZM205.949 400.696C206.583 400.961 206.891 401.134 207.22 401.222C215.939 403.536 224.637 405.936 233.389 408.115C239.017 409.515 244.799 409.754 250.453 408.475C257.531 406.873 263.813 403.55 269.419 398.896C272.528 396.314 274.255 393.074 274.803 389.207C275.524 384.11 274.464 379.422 270.13 376.203C264.944 372.351 259.103 370.495 252.501 371.15C243.825 372.01 236.077 375.175 228.977 380.039C222.192 384.688 215.955 390.012 210.133 395.807C208.657 397.276 207.411 398.974 205.949 400.696ZM195.666 354.619C202.695 354.688 209.365 354.819 216.035 354.801C221.951 354.785 227.807 354.182 233.471 352.29C243.873 348.814 252.326 342.834 257.892 333.118C260.041 329.366 261.497 325.444 261.319 321.036C261.102 315.63 258.159 311.623 253.055 309.959C247.073 308.008 241.206 308.8 235.51 311.103C227.316 314.417 220.774 320.028 214.89 326.509C207.238 334.939 202.468 345.336 195.666 354.619ZM203.174 399.16C203.723 398.61 204.048 398.331 204.319 398.007C211.341 389.591 219.726 382.708 228.789 376.66C236.571 371.467 245.144 368.307 254.616 368.138C260.068 368.04 265.369 368.761 270.051 371.937C276.256 376.147 278.887 381.95 278.248 389.414C277.531 397.794 272.576 403.093 265.668 406.862C262.434 408.626 258.941 410 255.439 411.169C247.835 413.706 240.068 413.201 232.432 411.408C223.914 409.408 215.496 406.984 207.032 404.751C206.196 404.531 205.347 404.356 204.281 404.109C204.317 404.879 204.288 405.467 204.379 406.037C205.625 413.884 206.893 421.726 208.141 429.572C208.438 431.435 208.119 432.249 207.106 432.429C205.99 432.627 205.272 431.902 204.963 429.97C204.016 424.043 203.154 418.101 202.205 412.174C201.792 409.592 201.246 407.032 200.683 404.052C199.627 404.909 198.857 405.463 198.168 406.103C192.608 411.277 187.149 416.563 181.481 421.617C177.928 424.785 174.206 427.804 170.314 430.541C165.083 434.222 159.275 436.398 152.694 436.063C141.601 435.499 131.446 426.921 129.146 416.066C127.233 407.037 131.915 398.422 140.906 394.405C147.039 391.666 153.478 391.05 160.091 391.608C166.189 392.123 172.1 393.618 178.048 394.955C184.421 396.389 190.829 397.669 197.229 398.984C197.898 399.122 198.611 399.044 199.631 399.077C196.566 385.551 193.164 372.336 189.246 359.016C185.001 360.232 181.04 361.676 177.346 363.712C173.015 366.1 168.859 368.801 164.542 371.216C159.612 373.973 154.686 376.77 149.581 379.173C144.222 381.695 138.494 382.604 132.53 381.835C121.216 380.378 113.462 369.634 115.962 358.662C117.191 353.268 120.603 349.419 125.169 346.537C130.408 343.232 136.289 342.16 142.36 341.849C148.24 341.548 153.994 342.452 159.658 343.888C167.047 345.762 174.146 348.452 180.997 351.806C183.047 352.811 185.193 353.616 187.905 354.773C183.522 340.127 178.189 326.516 170.982 313.201C167.61 315.357 164.373 317.293 161.281 319.438C157.726 321.904 154.369 324.658 150.8 327.104C142.396 332.866 132.964 334.683 123.008 333.455C112.798 332.195 103.293 322.853 101.347 312.714C99.2318 301.689 107.065 291.131 118.565 289.535C124.909 288.654 130.839 290.209 136.609 292.67C143.638 295.667 149.859 300.035 156.218 304.175C159.096 306.05 161.89 308.113 165.278 309.041C166.256 309.308 167.261 309.472 168.252 309.683C168.369 309.521 168.485 309.359 168.602 309.197C168.086 308.325 167.593 307.438 167.052 306.583C159.852 295.214 150.372 286.059 139.429 278.359C135.606 275.669 131.61 273.225 127.755 270.579C126.693 269.85 125.724 269.783 124.527 270.009C119.699 270.925 115.581 273.222 111.86 276.327C108.061 279.496 104.283 282.69 100.478 285.849C97.1619 288.603 93.4604 290.596 89.1804 291.396C85.5424 292.077 81.9391 291.955 78.5079 290.503C72.2917 287.874 69.2202 282.341 70.0793 275.567C71.1944 266.776 77.4309 260.146 86.1822 258.467C91.7644 257.396 97.2921 258.027 102.721 259.349C106.748 260.331 110.672 261.732 114.852 262.628C114.284 262.189 113.746 261.704 113.145 261.317C104.908 255.993 97.0732 250.128 89.3246 244.116C85.2338 240.942 80.618 238.438 76.2037 235.689C71.7028 232.885 67.2409 230.042 63.4644 226.262C60.6092 223.403 58.3267 220.194 57.2123 216.258C55.1343 208.92 57.5447 202.789 62.7044 197.699C67.6636 192.807 73.7246 191.619 80.3457 193.803C83.5053 194.845 86.1471 196.786 88.4006 199.218C93.0009 204.184 95.7492 210.062 96.2852 216.783C96.6487 221.341 96.4253 225.945 96.5119 230.527C96.5758 233.877 96.578 237.236 96.8603 240.57C97.0233 242.499 97.4192 245.256 97.4192 245.256C97.4192 245.256 100.805 249.146 102.747 250.412C109.327 254.697 115.833 259.094 122.382 263.428C122.797 263.703 123.564 264.597 124.339 264.923C123.639 261.618 122.773 257.837 122.103 254.835C120.506 247.664 119.152 240.471 119.896 233.066C120.533 226.721 122.637 220.999 127.37 216.543C132.008 212.177 137.38 210.364 143.678 212.496C146.55 213.469 148.752 215.372 150.485 217.769C156.501 226.09 157.367 234.989 153.085 244.295C149.901 251.214 144.999 256.666 138.45 260.617C136.03 262.077 133.621 263.559 131.258 265.107C130.417 265.658 129.724 266.436 128.694 267.351C129.874 268.125 130.728 268.7 131.596 269.253C141.444 275.538 150.89 282.324 158.904 290.922C163.013 295.331 166.71 300.053 169.93 305.147C170.44 305.953 170.967 306.748 171.621 307.757C173.07 305.607 173.232 303.37 173.422 301.245C173.824 296.765 173.935 292.259 174.216 287.767C174.688 280.238 175.758 272.846 178.946 265.887C183.149 256.713 189.594 250.153 199.698 247.785C207.982 245.844 215.955 248.997 219.902 255.795C222.298 259.922 223.001 264.445 222.328 269.108C220.705 280.355 215.209 289.482 206.672 296.84C201.42 301.366 195.194 304.03 188.662 306.148C184.297 307.565 180.026 309.267 175.71 310.834C175.132 311.044 174.539 311.211 173.698 311.48C181.199 325.193 186.502 339.297 191.175 354.183C192.256 353.058 193.268 352.26 193.956 351.244C196.424 347.591 198.848 343.905 201.167 340.155C204.842 334.214 208.731 328.439 213.517 323.317C218.994 317.456 225.119 312.422 232.478 309.099C239.351 305.996 246.471 304.794 253.87 307.154C260.567 309.289 264.473 314.598 264.583 321.623C264.672 327.241 262.587 332.154 259.601 336.738C251.935 348.507 240.705 354.711 227.173 357.174C220.796 358.336 214.339 358.095 207.891 357.927C204.628 357.842 201.357 357.862 198.095 357.974C196.355 358.033 194.626 358.388 192.737 358.629C196.228 372.185 199.651 385.477 203.174 399.16Z" fill="#005E8B"/>
<path fill-rule="evenodd" clip-rule="evenodd" d="M418.931 406.732C414.997 393.356 410.46 380.32 404.786 367.705C399.138 355.15 391.945 343.448 384.83 331.709C372.055 310.627 359.346 289.509 347.974 267.62C343.656 259.308 339.56 250.899 337.276 241.741C337.115 241.097 336.839 240.481 336.469 239.433C335.785 240.398 335.296 240.915 335.004 241.526C332.917 245.881 332.348 250.556 332.985 255.236C333.725 260.679 334.662 266.139 336.097 271.433C339.876 285.382 346.43 298.152 353.409 310.718C364.205 330.156 377.393 347.954 390.915 365.516C400.882 378.462 410.848 391.396 418.35 406.01C418.488 406.279 418.735 406.493 418.931 406.732ZM421.981 402.213C422.099 402.186 422.218 402.16 422.337 402.133C422.337 401.65 422.417 401.15 422.325 400.686C420.603 392.026 419.208 383.282 417.045 374.732C413.115 359.203 407.491 344.202 401.891 329.213C393.994 308.079 385.627 287.146 375.104 267.143C370.287 257.987 364.659 249.412 357.609 241.812C354.662 238.635 351.38 235.972 346.986 235.125C344.398 234.626 341.899 234.742 339.85 236.462C341.768 245.378 345.072 253.545 349.071 261.449C357.428 277.97 366.645 294.011 376.126 309.902C380.972 318.027 385.692 326.234 390.779 334.206C403.78 354.578 413.531 376.432 420.985 399.367C421.296 400.322 421.648 401.264 421.981 402.213ZM473.762 149.074C473.388 149.744 473.165 150.083 473 150.448C463.399 171.736 457.405 194.09 453.689 217.068C451.497 230.618 449.626 244.227 447.911 257.846C446.299 270.644 444.925 283.477 443.737 296.321C442.644 308.131 442.016 319.983 441.042 331.805C439.734 347.672 438.288 363.527 436.91 379.387C436.661 382.26 435.845 388.132 435.618 391.007C436.248 390.033 437.198 386.056 437.353 385.044C439.689 369.727 442.192 354.432 444.259 339.077C445.979 326.297 447.087 313.434 448.63 300.628C450.822 282.445 455.49 264.892 462.881 248.134C467.369 237.958 472.247 227.952 477.022 217.904C482.44 206.504 485.755 194.551 486.615 181.95C487.107 174.749 487.017 167.586 484.36 160.707C482.369 155.553 479.096 151.577 473.762 149.074ZM431.558 389.361C431.746 389.364 431.935 389.367 432.122 389.371C432.238 388.512 432.389 387.657 432.463 386.795C433.362 376.43 434.255 366.064 435.139 355.699C436.112 344.294 437.058 332.888 438.044 321.485C439.53 304.279 440.789 287.049 442.608 269.879C444.625 250.849 447.098 231.867 450.514 213.022C454.252 192.398 459.382 172.184 467.869 152.935C468.531 151.436 469.064 149.88 469.649 148.369C469.231 148.169 469.056 148.026 468.868 148.007C468.352 147.956 467.83 147.926 467.313 147.941C461.03 148.12 455.666 150.699 450.741 154.37C442.993 160.145 437.921 167.908 434.352 176.741C427.931 192.628 425.129 209.316 423.738 226.276C422.408 242.483 422.483 258.723 423.119 274.96C423.943 295.971 425.771 316.91 427.606 337.851C428.968 353.397 430.021 368.969 431.21 384.53C431.333 386.14 431.443 387.75 431.558 389.361ZM428.014 413.458C428.014 407.121 428.358 400.763 427.949 394.452C426.731 375.661 425.248 356.887 423.809 338.111C422.602 322.343 421.087 306.596 420.112 290.814C418.943 271.903 418.351 252.958 419.408 234.016C420.486 214.735 423.058 195.706 429.969 177.507C433.605 167.932 438.685 159.329 446.73 152.732C451.124 149.128 455.928 146.316 461.485 144.943C472.705 142.171 481.015 146.92 486.091 155.551C488.948 160.408 490.139 165.793 490.435 171.345C491.356 188.563 487.494 204.78 480.111 220.271C475.058 230.875 469.908 241.445 465.282 252.236C458.525 267.998 454.351 284.517 452.338 301.552C450.995 312.914 449.938 324.31 448.572 335.669C445.28 363.048 441.42 390.331 433.412 416.826C431.762 422.284 429.83 427.656 428.07 433.081C427.695 434.239 427.032 435.03 425.833 434.645C424.636 434.261 422.889 434.214 422.832 432.414C422.425 419.447 415.677 408.916 409.558 398.215C403.501 387.628 395.846 378.123 388.421 368.477C373.948 349.672 359.86 330.605 348.499 309.677C341.588 296.946 335.315 283.95 331.66 269.85C329.719 262.366 328.293 254.819 329.436 247.022C329.894 243.898 330.781 240.943 332.501 238.266C336.606 231.882 343.239 229.614 350.383 232.157C354.627 233.667 357.901 236.511 360.871 239.774C367.42 246.968 372.851 254.939 377.45 263.502C385.977 279.375 393.06 295.899 399.613 312.66C407.184 332.027 414.506 351.489 420.165 371.52C423.963 384.964 426.301 398.69 427.484 412.612C427.51 412.912 427.604 413.206 427.666 413.504C427.782 413.489 427.898 413.473 428.014 413.458Z" fill="#BF335D"/>
<path fill-rule="evenodd" clip-rule="evenodd" d="M237.247 191.71L224.888 230.854L213.908 265.93L200.778 309.462L193.785 334.135L191.745 342.43L192.625 344.802L212.669 353.113L212.331 379.691V399.548V411.836L194.533 441.331L193.29 445.109L196.906 455.795L203.95 455.439L220.134 444.639L229.759 431.056V423.358L230.453 407.504L235.122 355.643L240.665 354.613L249.321 304.363L260.093 243.758L263.214 227.247L264.785 228.163V241.717L263.214 355.178L274.539 356.961L275.787 385.951L277.771 412.635L277.331 424.835L278.332 443.551L283.87 444.412L310.633 445.513L339.743 442.049L342.761 430.286L340.445 426.389L329.911 421.517L311.027 417.016L295.284 413.12L295.982 389.132L296.366 351.194L307.85 342.816L305.092 309.462L300.734 257.352L295.284 191.71C281.169 191.429 270.478 191.289 263.214 191.289C255.95 191.289 247.294 191.429 237.247 191.71Z" fill="white"/>
<path fill-rule="evenodd" clip-rule="evenodd" d="M305.476 417.049C304.428 418.631 303.463 420.087 302.305 421.835C304.522 422.112 306.272 422.33 308.175 422.567C308.988 421.152 309.762 419.804 310.646 418.267C308.678 417.803 307.114 417.435 305.476 417.049ZM319.591 420.531C317.072 419.898 315.018 419.381 312.862 418.839C312.054 420.285 311.369 421.511 310.573 422.937C313.079 423.353 315.185 423.702 317.311 424.056C318.06 422.898 318.707 421.897 319.591 420.531ZM330.946 423.318C327.641 422.524 324.708 421.819 321.712 421.099C321.007 422.249 320.393 423.251 319.623 424.508C322.83 425.074 325.698 425.581 328.575 426.089C329.332 425.204 329.997 424.427 330.946 423.318ZM303.284 416.558C300.977 415.928 299.083 415.331 297.15 414.91C295.368 414.521 294.006 415.5 293.716 417.181C293.346 419.318 294.345 420.933 296.221 421.174C297.413 421.327 298.612 421.421 299.897 421.551C300.989 419.942 302.043 418.388 303.284 416.558ZM204.839 427.793C208.553 427.366 210.765 428.825 211.964 431.907C214.444 429.835 215.225 427.332 214.411 424.394C213.703 421.842 211.773 421.029 209.378 422.156C207.116 423.22 205.971 425.184 204.839 427.793ZM206.363 439.315C207.291 438.205 208.266 437.21 209.036 436.077C210.306 434.208 209.967 431.543 208.445 430.418C207.072 429.402 203.713 429.581 202.643 430.987C201.002 433.143 199.724 435.574 198.21 437.827C201.61 435.791 203.932 437.455 206.363 439.315ZM294.312 438.155C291.915 432.6 284.532 428.859 278.309 429.763C278.377 430.915 278.404 432.099 278.524 433.274C278.771 435.706 279.152 436.307 281.616 436.675C285.705 437.285 289.832 437.647 294.312 438.155ZM196.977 452.433C197.837 455.154 197.942 454.774 200.315 454.575C204.69 454.208 208.565 452.569 212.018 449.951C218.815 444.8 224.336 438.557 228.356 430.99C229.262 429.286 229.078 427.782 228.724 425.593C228.094 426.543 227.71 427.063 227.387 427.619C225.991 430.015 224.691 432.469 223.214 434.813C219.312 441.003 214.19 446.005 207.959 449.835C204.632 451.88 200.842 452.763 196.977 452.433ZM216.918 425.458C218.091 423.807 218.848 422.563 219.782 421.468C221.279 419.712 221.739 417.607 221.853 415.45C221.957 413.492 221.474 411.578 219.472 410.628C217.611 409.744 216.009 410.758 214.747 411.9C212.434 413.992 210.697 416.564 209.179 419.692C213.593 418.962 215.839 421.009 216.918 425.458ZM196.315 450.344C200.842 450.344 203.796 449.942 205.772 449.115C206.194 448.939 207.036 447.522 207.063 447.02C207.229 443.92 205.953 441.491 203.381 439.741C201.026 438.138 199.066 439.503 197.144 440.647C194.944 441.956 194.16 444.076 194.849 446.377C195.555 448.735 195.78 449.056 196.315 450.344ZM333.917 423.594C331.223 424.056 327.159 432.231 327.97 437.049C331.316 436.761 334.553 436.007 337.76 434.981C341.413 433.811 342.28 429.088 339.294 426.687C337.832 425.51 336.322 424.301 333.917 423.594ZM209.466 446.331C209.756 446.288 209.901 445.981 210.023 445.894C218.126 440.079 223.748 431.283 227.78 422.415C227.78 422.415 227.444 421.08 226.738 420.237C225.496 419.033 224.844 418.733 224.389 419.033C223.189 419.824 221.611 422.166 220.854 423.661C220.662 424.042 220.334 424.354 220.076 424.702C215.998 430.202 211.921 435.702 207.897 441.132C208.392 442.728 208.938 444.631 209.466 446.331ZM339.649 436.905C319.459 441.69 299.394 441.096 279.148 438.575C279.148 439.118 279.08 439.8 279.16 440.464C279.478 443.119 279.59 443.329 282.349 443.53C287.542 443.91 292.741 444.31 297.944 444.409C308.024 444.601 318.084 444.114 328.093 442.852C331.606 442.409 335.099 441.818 338.691 441.282C339.041 439.682 339.346 438.29 339.649 436.905ZM264.359 346.504C264.359 348.346 264.434 350.059 264.343 351.764C264.177 354.87 264.136 354.868 267.227 355.314C267.399 355.339 267.571 355.365 267.744 355.378C275 355.877 282.136 355.367 289.084 353.017C294.727 351.109 299.994 348.531 304.556 344.658C305.196 344.116 306.066 343.426 306.145 342.727C306.363 340.81 306.293 338.845 305.916 336.482C299.753 341.01 293.226 343.659 286.186 345.159C279.098 346.669 271.946 347.021 264.359 346.504ZM192.702 343.464C194.633 344.637 196.258 345.812 198.035 346.674C209.935 352.444 222.613 354.318 235.711 353.994C237.077 353.96 238.442 353.857 239.871 353.783C240.194 352.14 240.503 350.706 240.755 349.261C241.014 347.774 241.216 346.276 241.477 344.565C224.76 346.001 209.577 341.945 194.92 334.155C194.21 337.134 193.497 340.126 192.702 343.464ZM278.185 427.196C288.958 428.382 291.543 429.887 297.172 438.202C306.493 438.494 315.921 438.546 325.155 437.378C325.284 434.138 326.076 431.163 327.567 427.948C325.792 427.634 323.698 427.322 321.99 427.062C313.664 425.796 305.336 424.546 297.006 423.306C296.408 423.218 295.773 423.152 295.187 423.258C290.861 424.038 286.545 423.719 282.226 423.23C280.891 423.079 279.557 422.922 278.185 422.764V427.196ZM230.019 398.029C231.245 385.224 232.48 372.326 233.739 359.173C226.831 360.788 220.218 359.795 213.55 359.253V400.21C214.137 400.274 214.137 400.274 214.366 400.242C219.512 399.526 224.654 398.791 230.019 398.029ZM275.314 361.125C276.077 376.45 276.977 391.491 278.412 406.589C283.903 406.02 289.034 405.488 294.339 404.939C294.643 389.575 294.943 374.413 295.242 359.231C291.74 359.91 288.626 360.76 285.461 361.057C282.214 361.362 278.916 361.125 275.314 361.125ZM201.71 335.277C211.154 339.455 220.993 342.208 231.352 342.772C234.118 342.923 236.91 342.701 239.685 342.559C240.715 342.506 241.692 342.583 241.864 342.27C241.864 342.27 242.133 341.238 242.326 340.13C243.459 333.64 244.548 327.144 245.651 320.65C248.903 301.507 252.071 282.351 255.43 263.228C257.784 249.827 260.394 236.47 262.899 223.095C263.217 221.391 263.656 219.709 263.924 217.998C264.008 217.464 264.318 216.203 264.318 216.203C264.318 216.203 265.152 215.925 265.779 215.778C267.211 215.442 268.642 215.018 270.096 214.881C271.914 214.709 272.508 215.488 272.078 217.211C271.911 217.879 271.621 218.519 271.36 219.161C270.903 220.285 270.421 221.4 269.958 222.522C268.64 225.712 266.861 228.803 266.144 232.123C265.442 235.373 265.785 238.855 265.734 242.236C265.537 255.244 265.426 268.254 265.168 281.261C264.901 294.698 264.408 308.131 264.194 321.569C264.081 328.59 264.352 335.617 264.459 342.641C264.465 343.066 264.55 343.49 264.594 343.874C273.352 347.412 295.791 341.981 305.924 333.806C305.594 328.95 305.307 323.937 304.901 318.933C304.152 309.686 303.33 300.445 302.545 291.202C301.944 284.117 301.306 277.035 300.773 269.946C300.272 263.29 300.022 256.612 299.42 249.966C298.397 238.656 297.169 227.365 296.055 216.064C295.408 209.508 294.475 199.71 293.862 193.151C293.829 192.806 293.731 192.41 293.857 192.123C294.009 191.779 294.35 191.314 294.643 191.287C294.967 191.26 295.471 191.596 295.638 191.911C295.869 192.344 295.894 192.902 295.947 193.413C297.487 208.246 299.482 226.303 300.846 241.151C301.71 250.56 302.033 260.016 302.785 269.436C303.979 284.388 305.404 299.323 306.582 314.276C307.304 323.436 307.714 332.621 308.352 341.788C308.467 343.45 308.012 344.639 306.681 345.573C304.199 347.317 301.788 349.169 299.234 350.799C298.686 351.15 297.536 352 297.536 352C297.536 352 297.473 352.939 297.469 353.662C297.452 357.564 297.334 361.466 297.253 365.366C296.946 380.366 296.637 395.366 296.33 410.366C296.318 410.962 296.329 411.558 296.329 412.353C297.704 412.797 298.986 413.296 300.31 413.626C310 416.037 319.695 418.431 329.402 420.774C330.578 421.057 331.77 421.271 332.955 421.447C334.127 421.622 334.75 421.74 336.163 422.25C337.72 422.814 339.05 423.883 340.369 424.885C343.09 426.954 343.871 429.89 342.669 433.392C341.879 435.694 341.37 438.075 341.041 440.486C340.785 442.365 339.907 443.169 338.196 443.455C323.055 445.981 307.831 447.059 292.489 446.188C288.845 445.982 285.196 445.842 281.562 445.533C278.295 445.255 277.604 444.742 277.276 441.445C276.711 435.776 276.304 430.085 276.044 424.393C275.877 420.715 275.881 417.026 276.198 413.358C276.71 407.447 275.759 401.633 275.398 395.78C274.654 383.752 273.886 371.724 273.123 359.697C273.085 359.103 272.997 358.512 272.904 357.652C271.479 357.592 270.107 357.619 268.76 357.453C267.047 357.242 265.341 356.927 263.654 356.556C262.47 356.295 262.088 355.483 262.094 354.235C262.152 341.662 262.029 329.086 262.195 316.514C262.355 304.375 262.795 292.241 263.113 280.105C263.138 279.152 263.184 278.198 263.201 277.245C263.441 263.024 263.678 248.804 263.912 234.583C263.931 233.46 263.915 232.336 263.5 231.12C263.29 232.013 263.039 232.899 262.878 233.802C258.926 255.9 254.913 277.987 251.064 300.104C247.974 317.866 245.084 335.662 242.106 353.443C241.708 355.817 241.711 355.813 239.364 355.913C238.338 355.956 237.313 356.023 236.172 356.086C235.866 359.006 235.555 361.754 235.295 364.507C234.279 375.297 233.23 386.085 232.29 396.883C231.628 404.481 231.056 412.089 230.591 419.701C230.46 421.844 230.781 424.026 231.016 426.177C231.269 428.496 230.903 430.628 229.773 432.695C225.407 440.686 219.454 447.255 212.016 452.479C208.539 454.921 204.637 456.299 200.377 456.649C197.033 456.924 196.022 456.319 194.917 453.181C194.255 451.303 193.546 449.436 193.003 447.523C192.21 444.725 192.676 442.27 194.382 439.706C198.609 433.355 202.521 426.793 206.478 420.266C208.002 417.753 209.34 415.123 210.687 412.508C211.038 411.826 211.226 411.071 211.231 410.305C211.358 394.693 211.473 379.081 211.525 363.469C211.536 360.269 211.288 357.067 211.152 353.653C210.296 353.404 209.414 353.122 208.518 352.889C202.928 351.436 197.678 349.254 192.851 346.03C190.945 344.757 190.479 343.3 191.066 341.172C195.376 325.551 199.255 309.8 203.999 294.312C212.932 265.142 222.356 236.122 231.572 207.038C233.037 202.413 234.478 197.78 235.929 193.151C236.033 192.82 236.046 192.423 236.245 192.168C236.268 192.138 236.292 192.109 236.317 192.081C236.822 191.499 237.813 191.608 238.09 192.327C238.125 192.416 238.142 192.503 238.135 192.589C238.054 193.611 237.741 194.628 237.426 195.616C233.513 207.922 229.535 220.208 225.664 232.528C217.791 257.58 209.913 282.63 202.167 307.721C199.767 315.497 197.785 323.402 195.473 331.748C197.663 333.002 199.596 334.343 201.71 335.277Z" fill="#1D242F"/>
<path fill-rule="evenodd" clip-rule="evenodd" d="M263.848 41.957C274.332 41.957 281.535 46.1752 285.457 54.6117L285.02 59.808V61.5193L289.217 72.9513L288.097 84.5644L286.185 87.0674C286.102 87.3041 286.015 87.5411 285.925 87.7784C285.105 89.9562 283.891 91.7795 282.283 93.2484L284.109 96.5936L285.02 99.7086L286.529 102.655L288.097 106.412C289.194 107.344 288.976 109.074 287.444 111.602C286.515 112.05 284.955 111.178 282.763 108.986L279.372 105.904L280.908 103.839L276.949 100.247L275.941 96.6968C272.514 97.7213 268.305 98.0415 263.314 97.6573L262.896 97.6236L263.625 104.646C264.741 105.925 265.428 107.674 265.428 109.604C265.428 113.521 262.594 116.697 259.099 116.697C255.651 116.697 252.848 113.609 252.77 109.767L251.998 109.714L251.816 107.585C251.308 101.761 250.811 97.0997 250.324 93.6009L249.284 93.5022L238.298 90.6748H237.082L235.632 95.5017V98.2708L233.808 101.863L234.444 103.839L232.33 106.412L228.234 105.904L227.538 103.114L228.234 97.2858L228.629 92.2257L229.496 90.6748L228.234 85.4653L229.496 82.1072C224.157 72.4871 223.737 65.054 228.234 59.808C234.98 51.9391 239.795 53.8832 239.795 53.8832L240.202 53.2625C243.53 48.2404 248.751 41.957 263.848 41.957Z" fill="white"/>
<path fill-rule="evenodd" clip-rule="evenodd" d="M287.368 110.028C288.626 112.038 290.505 112.679 292.584 112.962C293.513 113.089 293.609 114.462 292.711 114.742C292.564 114.787 292.407 114.818 292.244 114.84C290.296 115.113 286.66 113.058 286.061 111.274C285.93 110.883 286.088 110.29 286.309 109.915C286.395 109.768 287.237 109.819 287.368 110.028ZM277.427 45.0074C279.885 46.3378 281.956 48.0754 283.605 50.2207C285.889 53.1895 286.473 56.4639 285.675 59.9638C285.643 60.1034 285.449 60.6202 285.305 60.9943C288.201 64.8834 289.897 69.1998 290.082 74.0065C290.214 77.4284 290.134 80.8195 289.198 84.1767C288.036 88.3509 285.666 91.3175 282.507 93.4618C282.61 93.502 282.794 93.5945 283.163 93.832C284.769 94.8431 285.556 97.534 285.211 98.9491C286.519 100.268 288.348 102.74 287.844 104.783C289.506 105.019 292.119 105.475 294.226 105.773C295.159 105.905 295.279 107.122 294.374 107.37C293.958 107.485 293.47 107.444 292.993 107.42C291.95 107.366 290.251 107.293 288.728 107.213C289.968 108.832 292.056 109.487 293.448 110.166C293.919 110.396 294.472 110.522 294.878 110.819C295.418 111.215 295.151 112.091 294.466 112.115C293.78 112.139 292.973 112.074 292.412 111.76C290.89 110.906 289.449 109.923 288.017 108.941C287.317 108.46 286.708 107.868 285.903 107.198C286.052 105.145 285.643 102.456 284.163 100.336C283.608 101.062 282.834 101.671 282.834 101.671C281.936 102.322 281.861 101.692 281.647 101.23C281.555 101.032 282.187 99.6859 283.289 98.7675C283.289 98.7675 284.132 97.4182 280.808 94.6983C280.785 94.6469 280.756 94.5949 280.726 94.5427C279.469 95.2251 278.116 95.8061 276.688 96.3049C277.24 97.6805 277.701 99.0771 278.493 100.29C279.44 101.741 281.036 103.322 282.942 104.026C283.156 104.853 282.28 105.19 281.039 105.476C281.971 107.491 283.262 108.338 284.596 109.06C285.331 109.458 285.244 110.492 284.432 110.731C284.095 110.831 283.152 110.411 282.862 110.225C280.626 108.792 279.019 108.462 278.792 105.666C278.764 105.325 278.731 104.375 279.3 103.713C279.3 103.713 276.941 102.35 276.578 101.959C275.26 100.486 275.281 99.7984 275.068 97.8058C275.032 97.4727 275.007 97.1369 275.064 96.8286C274.459 97.0086 273.843 97.1759 273.217 97.332C270.666 97.9678 267.86 97.7485 264.957 97.9343C265.007 98.47 265.043 99.1929 265.144 99.9076C265.559 102.867 265.996 105.824 266.424 108.782C266.443 108.914 266.455 109.046 266.461 109.179C266.494 109.92 266.5 110.762 265.436 110.746C265.03 110.74 264.387 109.912 264.285 109.389C263.87 107.26 263.467 104.296 263.241 102.142C262.827 100.371 263.049 100.223 262.36 99.5608C262.12 99.331 261.469 98.6297 261.286 98.36C259.977 96.4243 259.59 96.2128 258.584 94.2014C258.56 94.1019 258.553 93.9987 258.557 93.8932C258.587 93.1368 259.343 92.5974 260.157 92.7414C260.407 92.7855 260.628 92.8579 260.785 92.9923C265.037 96.6229 269.931 96.4266 274.863 94.7932C281.965 92.4414 286.768 88.1834 287.626 80.9113C288.294 75.2565 288.08 69.7251 284.993 64.6304C283.954 62.9135 282.81 61.4663 281.092 59.8756C280.858 59.5982 280.595 58.9653 280.239 58.6138C280.177 58.5525 279.71 58.1768 279.69 58.1237C279.625 57.9534 279.563 57.9202 279.552 57.8962C277.905 59.6667 275.749 60.7698 273.08 61.1319C272.431 61.2199 271.759 60.9609 271.224 61.1814C271.224 61.1814 270.293 62.1015 269.834 62.554C268.656 63.7162 266.975 64.3604 265.245 64.3947C264.697 64.4057 264.115 64.0569 263.678 64.2178C263.678 64.2178 262.949 65.049 262.59 65.4923C260.61 67.9364 257.97 69.1957 254.552 68.7153C253.005 70.0357 252.099 72.207 249.805 72.6735C249.628 72.8504 249.407 73.0011 249.207 73.0596C248.01 73.4077 244.439 74.1167 243.3 74.5653C242.328 74.9478 241.421 75.6184 240.693 76.3372C238.391 78.6109 238.928 81.2535 242.096 82.3144C244.109 82.9887 246.346 83.1621 248.503 83.4066C251.003 83.6896 251.435 83.8846 251.676 86.0156C252.453 92.8965 253.176 99.7824 253.892 106.669C253.986 107.577 253.988 108.506 253.88 109.41C253.844 109.709 253.342 110.156 253.022 110.179C252.679 110.203 252.105 109.877 251.98 109.581C251.758 109.058 251.793 108.443 251.732 107.865C251.255 103.329 250.78 98.7929 250.302 94.257C246.428 93.7765 241.232 93.4262 237.859 91.4175C237.859 91.4175 237.179 94.685 236.319 96.0909C236.715 96.8664 236.797 98.3405 236.189 98.9993C235.294 100.349 234.67 100.962 234.67 100.962C234.811 101.734 235.808 104.817 233.548 107.008C232.589 107.363 232.585 108.94 232.564 110.332C232.55 111.282 232.127 112.28 231.647 113.146C231.561 113.301 231.335 113.392 231.062 113.461C230.503 113.603 229.946 113.24 229.902 112.712C229.892 112.593 229.891 112.474 229.907 112.358C230.051 111.301 230.337 110.261 230.471 109.204C230.503 108.944 230.669 107.98 230.427 107.568C229.451 108.716 228.105 110.43 227.192 111.428C226.79 111.869 226.312 112.324 225.759 112.553C225.667 112.592 225.565 112.61 225.456 112.616C224.76 112.65 224.194 112.023 224.385 111.411C224.412 111.322 224.452 111.243 224.51 111.176C225.389 110.161 227.427 108.327 228.093 106.974C226.871 107.741 224.525 108.506 223.234 108.687C222.215 108.83 221.808 108.734 221.548 108.083C221.346 107.575 221.673 107.015 222.253 106.906C224.203 106.543 226.248 106.331 227.742 104.728C226.988 103.445 226.574 102.357 226.538 101.276C226.508 100.391 226.839 99.5332 227.364 98.7888C227.459 98.6539 227.526 98.5354 227.524 98.4704C227.524 98.4704 227.123 97.4099 227.051 97.1217C226.572 95.2189 227.104 93.5307 228.113 91.8645C228.263 91.6169 228.736 91.1068 228.812 90.8035C228.812 90.8035 228.586 90.1936 228.506 89.8299C228.024 87.6197 227.435 85.8647 228.394 82.9019C228.394 82.9019 227.615 81.5037 227.171 80.7209C223.389 74.0431 223.302 67.3123 226.985 60.6199C228.561 57.7559 230.817 55.3105 234.166 54.0253C235.651 53.4562 237.289 53.2201 239.112 52.7704C242.5 46.508 248.694 43.3251 256.111 41.8465C263.634 40.3468 270.783 41.4096 277.427 45.0074ZM244.58 49.2009C243.158 50.4119 242.072 52.0484 241.191 53.6529C240.615 54.7015 240.15 55.2547 238.81 55.1202C235.817 54.8187 233.529 56.1509 231.592 58.023C227.604 61.8776 226.144 66.5579 226.405 71.7652C226.668 77.0343 229.613 81.1967 233.038 85.1633C233.483 85.679 233.934 86.1923 234.344 86.7312C234.42 86.8305 234.313 87.046 234.273 87.342C232.18 88.2657 231.26 85.6488 229.971 85.0965C229.395 86.7761 230.179 89.0206 231.532 91.5492C231.644 91.7597 231.802 91.9633 231.933 92.1751C232.341 92.8335 231.525 93.5623 230.803 93.1922L229.675 92.1138C228.196 95.0826 229.145 97.296 230.004 99.2043C229.762 99.5721 229.013 99.3886 228.682 99.2239C228.682 99.2239 228.301 100.865 228.842 102.072C229.324 103.146 229.585 104.176 229.504 104.498C229.888 105 231.647 105.363 232.14 105.78C232.715 105.484 233.252 104.455 232.974 103.826C232.896 103.651 229.705 101.557 230.548 101.2C231.679 100.9 233.221 101.857 233.221 101.857C233.574 99.4957 233.81 98.8044 234.707 97.0389C232.306 97.2708 231.637 97.2425 231.966 96.3609C232.376 95.7743 233.174 95.7775 233.6 95.503C234.037 95.2217 234.983 94.0591 235.244 93.6387C236.424 91.7391 236.456 89.4566 235.805 87.1736C235.581 86.3872 236.554 85.6844 237.289 86.1442C237.6 86.3391 237.791 86.6763 237.831 87.0908C238.166 90.5038 241.063 90.9041 243.771 91.5538C245.178 91.8915 248.529 91.8471 249.939 92.1751C249.993 92.1876 250.042 92.2004 250.086 92.2138L249.503 86.7129C249.469 86.3959 249.327 86.089 249.207 85.6826C247.045 85.401 245.127 85.2588 243.265 84.8845C240.25 84.279 237.629 82.9841 237.124 79.9228C236.653 77.0656 238.411 75.3576 240.898 73.4704C243.255 71.6814 246.106 71.6479 247.578 71.2069C247.595 71.1214 247.671 71.0558 247.84 71.0142C249.443 70.6181 251.181 69.8938 251.652 68.9619C252.451 67.3798 253.486 65.8985 254.305 64.3232C254.934 63.1129 255.462 61.8581 256.023 60.5822C256.217 60.1402 256.886 60.055 257.177 60.4492C257.72 61.1828 257.316 62.2666 255.635 66.7746C256.404 66.7297 257.096 66.8246 257.673 66.6307C259.747 65.9343 261.234 64.5708 261.964 62.6888C262.628 60.9755 263.012 59.171 263.519 57.4064C263.639 56.9878 263.758 56.5684 263.889 56.1081C264.031 55.6088 264.716 55.4158 265.119 55.7761C266.034 56.5931 265.529 57.6558 265.429 58.5287C265.291 59.7404 264.874 60.926 264.576 62.135C267.226 62.4032 268.994 61.4863 269.809 59.1582C270.442 57.3473 270.72 55.4305 271.132 53.5567C271.305 52.7654 271.18 51.5895 272.417 51.7233C273.684 51.8609 273.27 53.0245 273.163 53.7878C272.92 55.5061 272.56 57.2102 272.198 59.1976C274.281 59.0257 276.02 58.5902 277.33 57.201C278.1 56.3841 278.74 55.4635 279.521 54.6552C279.725 54.4434 279.988 54.2793 280.26 54.1261C280.666 53.8974 281.224 54.0468 281.369 54.4626C281.599 55.1228 281.198 55.6533 280.854 56.1979C280.805 56.2761 280.755 56.3534 280.704 56.4298C281.48 56.979 282.714 58.0915 283.608 58.9918C284.901 54.3294 282.352 50.9176 278.548 48.1052C268.711 40.8322 253.428 41.6603 244.58 49.2009Z" fill="#1D242F"/>
<path fill-rule="evenodd" clip-rule="evenodd" d="M332.773 140.295C332.791 140.335 332.804 140.377 332.813 140.421L332.773 140.295ZM325.443 142.275C322.779 138.876 320.938 133.263 323.337 134.092C325.035 134.679 330.953 141.458 330.924 141.409C328.861 137.916 327.312 134.514 326.13 130.555C325.781 129.384 325.862 128.312 326.546 127.707C327.081 127.233 328.021 127.14 328.021 127.14C327.465 124.631 327.528 122.836 330.564 123.977C330.084 122.524 330.01 121.218 331.451 120.598C332.861 119.993 334.043 120.531 335.079 121.504C338.068 124.312 340.349 127.718 342.503 131.179C343.385 132.597 344.387 133.893 344.554 135.603C344.699 137.086 344.373 138.572 344.026 140.006C341.428 150.72 338.885 161.451 336.025 172.095C334.803 176.64 333.036 181.067 331.193 185.412C328.024 192.883 319.426 196.069 312.026 192.766C307.866 190.91 304.471 187.985 301.071 185.059C300.468 184.54 299.849 184.042 298.87 183.229C298.87 184.647 298.828 185.614 298.878 186.576C299.004 189.068 297.506 190.539 297.506 193.472C297.506 196.404 292.498 196.32 289.591 197.297C276.338 201.752 260.149 201.788 246.108 201.111C237.636 200.703 229.647 197.848 222.712 192.766C222.187 192.381 221.607 192.022 220.895 191.607C220.531 192.242 220.261 193.5 219.992 194.067C215.495 203.515 211.579 213.185 208.58 223.225C208.06 224.969 208.338 226.135 209.477 227.478C211.512 229.878 213.418 232.398 215.234 234.968C215.984 236.029 216.542 237.304 216.869 238.565C217.405 240.637 215.809 241.986 213.795 241.237C213.035 240.954 212.351 240.434 211.685 239.95C211.093 239.517 210.573 238.984 209.707 238.218C210.159 240.274 210.58 241.931 210.871 243.609C211.054 244.663 211.182 245.762 211.088 246.818C210.873 249.222 208.664 249.208 207.298 248.583C206.778 248.346 206.399 247.871 205.943 247.504C203.925 249.491 202.986 250.235 199.911 248.174C198.831 249.151 197.5 249.538 196.313 248.334C195.396 247.403 195.61 247.809 194.045 244.817C194.058 244.815 193.768 245.185 193.711 245.226C192.87 245.827 192.212 246.937 190.934 246.408C189.639 245.872 189.488 244.597 189.466 243.468C189.43 241.652 189.476 239.806 189.765 238.017C190.573 233.028 191.388 228.031 192.456 223.093C193.646 217.59 195.152 212.156 196.461 206.678C199.262 194.963 203.565 183.205 208.58 172.095C208.141 171.511 207.67 171.035 207.298 170.419C206.032 168.32 204.697 166.395 206.106 164.095C207.362 162.043 208.498 159.92 209.735 157.857C215.2 148.751 220.679 139.652 226.159 130.555C228.867 126.062 231.996 121.89 235.597 118.064C239.936 113.453 243.208 111.127 249.076 109.126C251.304 108.366 250.631 106.401 252.09 108.431C252.939 109.612 265.594 109.636 265.792 109.126C266.251 107.942 265.839 107.856 267.022 107.704C268.962 107.455 270.71 108.524 272.317 109.448C277.894 112.654 283.006 116.474 287.392 121.191C294.877 129.241 301.434 138.005 307.087 147.428C308.32 149.483 309.194 151.749 310.331 153.866C311.316 155.702 311.588 157.42 309.917 159.041C312.07 161.702 314.969 165.315 317.254 168.142C317.59 167.389 317.76 166.022 317.965 165.459C319.275 161.878 319.851 158.078 321.162 154.497C321.224 154.328 321.28 154.15 321.341 153.976L325.443 142.275Z" fill="white"/>
<path fill-rule="evenodd" clip-rule="evenodd" d="M353.45 70.6348C361.509 72.6383 366.198 78.2001 368.33 85.9329C371.516 97.4901 366.651 110.777 356.906 117.803C351.975 121.358 346.512 122.915 340.437 122.152C339.95 122.09 339.463 122.032 338.754 121.944C338.468 122.626 338.175 123.298 337.893 123.971C339.708 126.142 341.265 128.521 342.761 130.927C343.644 132.347 344.649 133.646 344.816 135.36C344.961 136.846 344.634 138.336 344.287 139.772C341.685 150.509 339.137 161.263 336.272 171.931C335.048 176.486 333.278 180.923 331.433 185.276C328.258 192.763 319.646 195.956 312.234 192.646C308.066 190.786 304.665 187.855 301.259 184.922C300.656 184.403 300.035 183.903 299.055 183.088C299.055 184.51 299.014 185.478 299.062 186.442C299.189 188.94 300.637 194.898 298.454 195.802C295.616 196.978 291.367 198.1 287.557 199.047C273.906 202.439 260.269 201.687 246.205 201.009C237.718 200.6 229.817 198.394 222.871 193.302C222.344 192.917 221.742 192.633 221.029 192.217C220.665 192.853 220.314 193.382 220.044 193.95C215.54 203.418 211.617 213.109 208.614 223.17C208.092 224.918 208.371 226.086 209.512 227.432C211.551 229.838 213.459 232.363 215.279 234.939C216.029 236.003 216.589 237.281 216.916 238.543C217.453 240.62 215.854 241.972 213.837 241.221C213.076 240.938 212.39 240.417 211.724 239.931C211.129 239.498 210.61 238.964 209.743 238.196C210.195 240.256 210.616 241.916 210.908 243.599C211.091 244.654 211.22 245.756 211.125 246.814C210.91 249.223 208.698 249.209 207.329 248.584C206.808 248.345 206.429 247.869 205.972 247.502C203.95 249.493 203.009 250.239 199.93 248.173C198.848 249.153 197.515 249.54 196.326 248.334C195.407 247.401 195.621 247.808 194.054 244.81C194.067 244.807 193.776 245.178 193.719 245.219C192.877 245.821 192.218 246.933 190.937 246.404C189.64 245.867 189.489 244.588 189.467 243.457C189.43 241.637 189.477 239.787 189.767 237.995C190.577 232.994 191.392 227.987 192.462 223.038C193.654 217.524 195.162 212.078 196.474 206.588C199.279 194.847 202.815 183.35 207.839 172.215C207.399 171.63 206.911 171.082 206.539 170.465C205.27 168.362 204.724 166.218 206.135 163.913C207.392 161.857 208.531 159.729 209.77 157.662C215.244 148.536 220.732 139.418 226.223 130.301C228.934 125.798 232.068 121.618 235.676 117.783C240.022 113.162 244.349 109.529 250.227 107.524C252.459 106.762 252.596 107.02 254.057 109.054C254.908 110.238 255.947 111.399 257.151 112.19C259.438 113.692 262.33 113.787 264.006 111C264.289 110.531 264.937 109.331 265.136 108.82C265.596 107.634 265.92 107.548 267.105 107.395C269.048 107.146 270.848 108.223 272.457 109.148C278.044 112.362 283.165 116.19 287.557 120.916C295.055 128.985 301.624 137.766 307.286 147.21C308.521 149.269 309.396 151.541 310.535 153.662C311.523 155.502 311.794 157.224 310.121 158.848C312.277 161.515 314.36 164.092 316.65 166.925C316.986 166.171 317.265 165.633 317.47 165.07C318.48 162.307 319.476 159.54 320.481 156.775C320.437 156.733 320.394 156.689 320.35 156.643C319.266 155.509 319.68 154.405 320.152 153.202C321.688 149.298 323.219 145.392 324.748 141.486C323.037 139.676 321.628 137.647 321.171 135.127C320.87 133.468 322.221 132.419 323.839 133.025C325.234 133.547 326.185 134.564 327.01 135.702L327.446 134.588C326.772 133.206 326.181 131.78 325.732 130.277C325.382 129.104 325.479 127.686 326.164 127.081C326.701 126.606 327.63 126.771 327.63 126.771C327.074 124.256 327.351 122.447 330.392 123.59C329.911 122.134 330.248 120.943 331.691 120.323C332.183 120.111 332.648 120.039 333.088 120.076L333.232 119.702C331.867 118.506 330.662 117.604 329.639 116.529C324.976 111.634 322.911 105.688 323.093 99.0248C323.379 88.5493 327.673 80.0573 336.359 74.0449C341.506 70.482 347.283 69.1015 353.45 70.6348ZM210.525 171.189C210.144 172.02 209.905 172.543 209.663 173.065C202.623 188.249 198.966 204.465 195.194 220.639C193.977 225.856 193.844 231.198 194.286 236.511C194.497 239.048 195.209 241.56 195.869 244.037C196.042 244.688 196.444 245.278 196.938 246.025C197.261 246.514 198.025 246.239 197.96 245.657C197.631 242.856 197.252 240.062 196.93 237.26C196.769 235.858 196.662 234.447 196.598 233.037C196.58 232.613 196.636 232.196 196.99 231.921C197.414 231.591 198.042 231.828 198.204 232.339C198.376 232.882 198.553 233.44 198.628 234.012C199.032 237.057 199.267 240.128 199.758 243.158C199.989 244.59 200.553 245.855 201.627 246.83C202.454 247.582 203.787 246.977 203.838 245.86C203.889 244.768 203.716 243.718 203.558 242.684C203.069 239.49 202.463 236.313 201.929 233.126C201.82 232.474 201.678 231.776 201.808 231.154C201.851 230.951 201.983 230.767 202.147 230.59C202.49 230.219 203.092 230.219 203.43 230.595C203.536 230.715 203.617 230.838 203.642 230.973C203.903 232.358 203.973 233.778 204.201 235.171L204.3 235.782C204.808 238.939 205.284 242.114 206.944 244.941C207.246 245.455 207.5 246.06 208.03 246.469C208.499 246.831 209.179 246.461 209.15 245.869C209.115 245.167 209.083 244.511 208.935 243.882C208.159 240.569 207.273 237.281 206.484 233.97C206.329 233.318 206.271 232.643 206.212 231.995C206.165 231.472 206.609 231.017 207.13 231.087C207.761 231.173 208.078 231.673 208.401 232.188C209.284 233.594 210.128 235.033 211.107 236.369C212.054 237.661 213.135 238.869 214.729 239.396C214.764 239.354 214.798 239.312 214.831 239.268C215.105 238.906 215.141 238.419 214.916 238.026C214.286 236.926 213.635 235.917 212.871 234.88C211 232.341 208.997 229.896 206.986 227.462C206.108 226.4 205.829 225.342 206.272 224.013C207.373 220.704 208.341 217.35 209.481 214.056C212.883 204.225 217.362 194.853 221.786 185.458C222.804 183.296 223.725 181.088 224.792 178.67C219.958 176.135 215.294 173.689 210.525 171.189ZM192.097 233.196C192.004 233.185 191.745 237.144 191.732 237.236C191.207 241.05 190.932 244.132 191.408 244.132C193.897 243.706 192.491 240.253 192.535 238.282C192.432 238.27 192.2 233.208 192.097 233.196ZM268.116 109.558C267.808 110.145 267.575 110.819 267.429 111.114C264.161 117.737 256.053 116.747 252.344 110.859C252.046 110.387 251.682 109.957 251.386 109.558C246.492 110.57 241.144 115.039 237.602 118.678C233.93 122.45 230.782 126.623 228.072 131.127C221.902 141.382 215.736 151.639 209.582 161.903C208.819 163.178 208.136 164.502 207.262 166.08C213.289 166.386 217.405 169.202 221.11 171.189C224.891 173.216 226.888 174.114 230.347 177.504C230.469 177.197 230.599 176.916 230.695 176.624C233.314 168.658 235.928 160.691 238.545 152.724C238.657 152.383 238.784 152.048 238.917 151.715C239.188 151.038 239.466 150.26 240.445 150.644C241.32 150.987 241 151.704 240.786 152.341C240.495 153.207 240.206 154.074 239.928 154.944C237.279 163.248 234.624 171.55 231.992 179.86C231.437 181.612 230.569 182.304 228.484 182.349C227.509 182.37 226.531 182.259 225.498 182.205C224.316 184.796 223.183 187.278 221.939 190.004C223.393 191.074 224.618 192.06 225.925 192.923C231.514 196.611 237.725 198.322 244.263 198.879C243.95 198.596 243.614 198.071 243.695 197.762C244.197 195.86 244.404 193.859 245.709 192.214C246.361 191.392 246.922 190.399 247.19 189.396C247.573 187.957 246.711 187.091 245.251 187.396C244.128 187.631 243.087 188.242 241.969 188.529C241.53 188.641 240.717 188.473 240.548 188.17C240.331 187.779 240.451 187.05 240.687 186.605C240.89 186.222 241.426 185.899 241.875 185.782C243.398 185.385 244.935 184.991 246.491 184.791C247.756 184.627 248.751 185.187 249.152 186.526C249.459 187.551 249.801 188.564 250.16 189.682C249.827 190.439 249.533 191.197 249.168 191.92C248.541 193.161 247.901 194.398 247.209 195.604C246.639 196.599 246.027 197.578 245.347 198.499C245.224 198.665 244.922 198.833 244.673 198.912C245.102 198.945 245.532 198.974 245.963 198.998C253.466 199.411 263.443 199.846 270.926 198.998C281.217 197.831 294.301 195.73 296.5 192.447C297.221 191.371 297.328 187.989 297.085 185.807C296.643 181.846 296.38 177.861 295.822 173.917C295.02 168.246 293.717 162.682 292.236 157.134C292.162 156.855 292.087 156.575 292.011 156.296L291.903 156.331C290.038 156.928 288.28 156.787 286.754 155.468C285.996 154.813 285.424 154.117 285.575 152.908C285.748 151.519 285.024 150.821 283.669 151.175C281.563 151.724 279.166 151.371 277.418 153.21C276.9 153.757 275.927 153.899 275.139 154.156C273.885 154.565 272.622 154.956 271.345 155.282C268.806 155.93 266.516 155.312 264.655 153.54C262.728 151.705 261.874 149.367 262.556 146.732C263.374 143.571 265.146 141.019 267.91 139.179C268.655 138.683 269.412 138.093 269.918 137.373C270.987 135.853 270.672 134.32 269.152 133.338C268.856 133.147 268.242 133.303 267.835 133.457C266.616 133.921 265.427 134.463 264.225 134.974C263.236 135.394 262.26 135.85 261.254 136.223C259.244 136.97 257.264 137.945 255.181 138.302C253.584 138.576 251.818 138.179 250.191 137.805C249.649 137.68 249.147 136.757 248.901 136.097C248.234 134.3 248.438 132.511 249.293 130.788C250.583 128.185 252.521 126.047 254.885 124.528C258.906 121.944 263.041 119.478 267.733 118.203C268.042 118.12 268.35 117.955 268.602 117.756C270.111 116.567 271.903 116.256 273.736 116.064C274.397 115.995 275.063 115.97 275.723 115.893C276.345 115.821 276.961 115.707 277.581 115.611C276.971 116.054 276.425 116.692 275.744 116.911C269.472 118.926 263.618 121.845 257.885 125.033C257.391 125.308 256.998 125.771 256.575 126.165C256.151 126.561 255.81 127.229 255.327 127.349C252.702 127.997 252.286 130.381 251.303 132.296C250.755 133.363 250.514 134.515 251.577 135.5C252.823 136.653 254.337 136.966 255.673 136.284C258.107 135.041 260.475 133.648 262.973 132.552C264.552 131.86 266.297 131.474 268.006 131.163C270.533 130.703 272.481 131.655 273.499 133.614C274.264 135.088 274.048 136.262 272.915 137.457C272.245 138.163 271.686 138.974 271.082 139.742C270.777 140.132 270.561 140.745 270.17 140.89C267.855 141.744 267.358 144.058 266.191 145.79C265.046 147.488 264.989 149.527 266.15 151.209C267.241 152.79 269.096 152.945 270.906 152.629C271.802 152.473 272.697 152.238 273.55 151.921C276.269 150.91 278.942 149.766 281.686 148.831C283.082 148.355 284.583 148.088 286.055 147.977C286.839 147.918 287.483 148.176 287.132 149.537C286.53 151.873 288.666 154.119 291.078 154.245L291.418 154.142C289.987 149.056 288.338 144.073 285.931 139.339C285.63 138.748 285.226 138.156 285.139 137.527C285.13 137.458 285.13 137.387 285.137 137.315C285.224 136.499 286.167 135.992 286.86 136.434C286.937 136.483 287 136.541 287.043 136.611C287.687 137.667 288.154 138.834 288.655 139.974C290.596 144.391 292.075 148.959 293.406 153.577C293.976 153.407 294.538 153.219 295.082 152.988C297.909 151.785 300.682 150.456 303.48 149.185C304.229 148.845 305.149 148.251 305.746 149.091C306.472 150.114 305.451 150.858 304.752 151.302C301.52 153.356 298.11 155.016 294.256 155.597C294.167 155.61 294.08 155.626 293.992 155.645C294.339 156.884 294.678 158.124 295.015 159.366C295.221 160.12 295.536 160.846 295.738 161.412C300.004 157.416 302.156 156.133 308.599 154.081C307.539 152.046 306.598 149.703 305.205 147.669C300.933 141.435 296.621 135.218 292.073 129.183C286.776 122.156 280.376 116.238 272.862 111.591C271.704 110.875 270.06 110.028 268.116 109.558ZM252.137 159.635C253.395 160.962 255.237 162.041 254.113 164.375C254.024 164.56 254.057 164.918 254.183 165.076C255.876 167.187 255.039 169.415 254.239 171.452C253.63 173 254.377 174.209 254.602 175.544C254.646 175.807 255.699 176.237 255.966 176.072C257.563 175.084 259.095 173.981 260.59 172.839C261.357 172.252 261.973 171.473 262.707 170.839C263.331 170.3 264.043 169.863 264.689 169.347C267.678 166.955 270.999 165.406 274.891 165.279C277.694 165.187 279.662 166.855 280.293 169.658C281.437 174.75 279.401 178.686 275.935 182.145C275.876 182.204 275.814 182.27 275.74 182.301C271.941 183.94 271.137 187.927 269.078 190.917C268.791 191.333 269.161 192.292 269.381 192.948C269.739 194.02 269.994 195.075 269.192 196.009C268.91 196.339 268.312 196.641 267.931 196.569C267.603 196.508 267.195 195.927 267.133 195.527C266.372 190.618 266.999 186.115 271.018 182.619C272.396 181.42 273.723 180.159 275.008 178.862C276.237 177.62 277.383 176.323 277.379 174.377C277.379 173.743 277.72 173.102 277.937 172.476C278.712 170.246 277.486 168.221 275.14 168.049C273.007 167.894 271.017 168.526 269.193 169.601C267.188 170.781 265.216 172.015 263.255 173.265C262.852 173.523 262.457 173.902 262.237 174.319C261.065 176.542 258.936 177.548 256.834 178.521C254.982 179.378 254.596 178.943 253.224 177.322C251.76 175.591 251.45 173.649 251.907 171.73C252.842 167.804 252.649 163.918 252.181 160.001L252.137 159.635ZM231.069 189.329C232.56 189.694 233.991 189.829 235.455 189.222C236.045 188.978 236.915 188.668 237.118 189.56C237.217 189.991 236.682 190.782 236.221 191.075C235.551 191.501 234.688 191.624 233.688 191.947C232.721 191.556 231.609 191.224 230.625 190.667C229.955 190.287 228.906 189.204 228.98 189.098C229.683 188.089 230.372 189.159 231.069 189.329ZM337.051 126.083L335.867 129.094C336.505 130.089 337.146 131.082 337.782 132.078C338.005 132.429 338.254 132.764 338.464 133.123C338.87 133.813 339.667 134.645 338.633 135.253C337.666 135.823 337.177 134.786 336.736 134.125C336.137 133.228 335.543 132.326 334.953 131.422L334.199 133.341C334.604 133.868 335.008 134.397 335.409 134.927C335.808 135.457 336.244 136.005 336.448 136.617C336.489 136.739 336.483 136.876 336.454 137.022C336.34 137.578 335.743 137.905 335.203 137.73C335.08 137.69 334.967 137.638 334.869 137.566C334.488 137.284 334.284 136.771 333.982 136.375L333.339 135.53C332.906 136.634 332.472 137.737 332.039 138.84C332.289 139.288 332.528 139.742 332.735 140.21C332.753 140.25 332.766 140.291 332.775 140.335C332.912 140.993 332.254 141.54 331.596 141.404C331.395 141.362 331.233 141.297 331.163 141.178L331.138 141.134C329.224 146.007 327.309 150.88 325.388 155.75C324.769 157.32 323.533 158.011 322.256 157.763L323.078 155.436C321.693 159.352 320.319 163.272 318.888 167.172C318.157 169.065 318.157 169.065 318.988 170.965C319.34 171.506 319.701 172.257 318.891 172.706C317.967 173.219 317.504 172.448 317.184 171.785C314.787 166.831 310.601 163.263 307.311 159.003C307.27 158.95 307.311 159.003 307.062 158.691C304.085 160.568 300.625 162.644 297.52 164.703C297.308 164.844 296.702 165.259 296.702 165.259C296.661 165.515 296.788 166.083 296.82 166.346C297.288 170.257 297.825 174.162 298.454 178.05C298.551 178.65 298.771 179.401 298.771 179.401C298.909 179.615 299.395 180.142 299.568 180.332C303.057 184.165 306.953 187.549 311.519 190.043C319.097 194.182 326.792 191.398 330.08 183.333C332.337 177.793 334.365 172.175 335.741 166.326C337.815 157.513 340.046 148.737 342.193 139.941C342.448 138.894 342.705 137.822 342.744 136.754C342.776 135.874 342.713 134.857 342.303 134.116C340.746 131.307 339.051 128.586 337.051 126.083ZM230.114 145.16C229.946 146.127 230.052 147.216 229.634 148.048C229.07 149.169 229.535 149.776 230.251 150.406C230.748 150.843 231.328 151.185 231.837 151.611C233.409 152.928 233.746 155.388 233.086 157.276C231.637 161.414 228.408 163.45 224.549 164.531C222.79 165.024 220.782 164.708 218.896 164.608C218.46 164.585 217.996 163.992 217.661 163.569C217.424 163.27 217.383 162.816 217.255 162.432C217.699 162.309 218.137 162.122 218.589 162.081C219.079 162.035 219.582 162.125 220.08 162.156C223.665 162.362 226.764 161.176 229.511 158.925C232.038 156.854 231.806 153.763 228.969 152.183C228.244 151.78 227.439 151.504 226.764 151.036C225.559 150.201 225.309 149.145 226.251 148.071C227.28 146.899 228.552 145.94 229.73 144.902C230.11 144.567 230.197 144.688 230.114 145.16ZM212.368 159.842C213.275 160.471 214.095 161.224 215.129 162.079C214.534 162.566 214.28 162.913 213.949 163.018C213.047 163.304 211.075 162.472 210.793 161.556C210.639 161.055 210.943 160.343 211.22 159.823C211.308 159.658 212.092 159.65 212.368 159.842ZM251.983 159.524L252.135 159.634L252.032 159.654C251.434 159.78 250.741 160.11 250.299 159.903C248.599 159.107 246.94 159.244 245.221 159.688C244.834 159.788 244.4 159.762 243.995 159.716C243.777 159.691 243.577 159.502 243.368 159.387C243.523 159.132 243.616 158.783 243.841 158.636C246.083 157.174 249.157 157.527 251.983 159.524ZM238.457 135.222C238.76 135.626 239.063 136.03 239.32 136.372C238.687 138.182 238.42 139.939 237.51 141.253C236.672 142.462 235.155 143.209 233.914 144.131C233.417 144.501 232.797 144.722 232.344 145.133C231.484 145.914 231.024 144.952 230.386 144.781C230.453 144.538 230.442 144.207 230.6 144.065C231.644 143.133 232.704 142.215 233.798 141.341C235.509 139.974 236.928 138.421 237.564 136.248C237.68 135.853 238.15 135.562 238.457 135.222ZM322.631 134.976C322.595 135.418 323.029 136.343 323.281 136.709C323.436 136.935 323.537 137.091 323.631 137.231C324.175 138.056 324.818 138.807 325.527 139.493L326.181 137.822C325.977 137.612 325.784 137.383 325.587 137.169C324.98 136.512 324.209 135.481 323.614 134.812C323.073 134.432 322.658 134.656 322.631 134.976ZM232.58 132.783C232.797 132.979 233.004 133.165 233.211 133.352C233.056 133.523 232.923 133.811 232.742 133.845C231.146 134.147 229.542 134.41 227.937 134.662C227.826 134.679 227.688 134.526 227.563 134.452C227.697 134.263 227.799 133.949 227.971 133.904C229.462 133.512 230.965 133.168 232.58 132.783ZM327.441 129.241C327.077 129.915 327.793 131.224 328.37 132.225L329.192 130.122C329.068 129.963 328.945 129.803 328.821 129.644C328.614 129.376 328.328 129.168 327.813 129.068C327.668 129.04 327.511 129.111 327.441 129.241ZM328.841 125.177C328.909 126.333 329.577 127.228 330.068 127.88L330.788 126.037L330.987 125.529C330.973 125.515 330.959 125.5 330.944 125.486C330.178 124.7 328.782 124.202 328.841 125.177ZM343.929 76.531C341.399 77.4737 339.143 78.8753 337.232 80.7699C331.542 86.4127 328.902 93.2965 329.23 101.265C329.383 104.976 330.472 108.459 332.687 111.518C336.165 116.32 341.81 118.23 347.476 116.522C350.484 115.615 353.091 114.023 355.303 111.809C360.426 106.682 362.962 100.45 363.154 94.0407C363.194 89.0658 362.338 85.1406 359.963 81.6418C356.314 76.2638 350.013 74.2644 343.929 76.531Z" fill="#1D242F"/>
<path fill-rule="evenodd" clip-rule="evenodd" d="M326.743 129.386C328.496 135.637 330.571 139.571 332.968 141.189C335.364 142.806 338.653 143.192 342.834 142.346L343.675 133.993L334.085 121.418C333.185 121.225 332.604 121.225 332.343 121.418C331.78 121.831 331.746 123.153 331.346 123.382C330.666 123.77 329.855 124.102 328.911 124.377L326.743 129.386Z" fill="white"/>
<path fill-rule="evenodd" clip-rule="evenodd" d="M331.428 140.941C331.498 141.059 331.659 141.124 331.859 141.166C332.513 141.302 333.168 140.756 333.032 140.101C333.023 140.057 333.01 140.015 332.992 139.975C332.526 138.918 331.893 137.937 331.357 136.909C330.439 135.147 329.562 133.978 328.738 132.174C328.154 131.16 327.343 129.75 327.724 129.043C327.794 128.913 327.95 128.842 328.095 128.871C328.608 128.97 328.891 129.177 329.098 129.445C330.821 131.672 332.527 133.912 334.233 136.154C334.534 136.548 334.736 137.06 335.115 137.34C335.213 137.413 335.326 137.464 335.447 137.504C335.985 137.678 336.58 137.352 336.692 136.798C336.721 136.653 336.727 136.516 336.686 136.394C336.484 135.785 336.05 135.238 335.653 134.711C333.958 132.462 332.201 130.258 330.553 127.975C330.073 127.311 329.196 126.326 329.116 124.992C329.059 124.02 330.448 124.517 331.21 125.3C332.057 126.169 332.165 126.478 332.78 127.449C334.154 129.618 335.549 131.775 336.973 133.911C337.412 134.57 337.898 135.604 338.86 135.036C339.889 134.429 339.096 133.6 338.692 132.912C338.483 132.555 338.236 132.22 338.013 131.871C336.501 129.496 334.958 127.139 333.496 124.733C333.126 124.124 332.667 123.471 332.759 122.702C332.818 122.209 333.376 121.951 333.784 122.235C334.174 122.507 334.543 122.811 334.875 123.152C337.975 126.34 340.374 130.038 342.512 133.902C342.92 134.64 342.983 135.654 342.951 136.532C342.911 137.596 342.656 138.664 342.402 139.708C341.766 142.319 341.122 144.928 340.478 147.537C341.149 147.632 341.819 147.724 342.489 147.813C343.155 145.055 343.819 142.297 344.486 139.539C344.832 138.107 345.157 136.623 345.012 135.141C344.846 133.434 343.847 132.138 342.968 130.723C340.821 127.265 338.548 123.863 335.569 121.058C334.536 120.086 333.358 119.549 331.953 120.154C330.516 120.772 330.182 121.959 330.66 123.411C327.635 122.271 327.359 124.074 327.912 126.581C327.912 126.581 326.988 126.416 326.454 126.889C325.772 127.493 325.675 128.906 326.024 130.076C327.202 134.03 329.371 137.452 331.428 140.941Z" fill="#1D242F"/>
<path fill-rule="evenodd" clip-rule="evenodd" d="M359.233 90.7577C359.233 96.6713 358.574 104.778 346.877 113.033C356.623 103.19 354.314 92.6396 354.314 87.0516C354.314 81.4636 359.233 84.844 359.233 90.7577Z" fill="white"/>
<path fill-rule="evenodd" clip-rule="evenodd" d="M272.492 86.779C273.776 87.3748 274.998 87.3826 276.335 86.9675C276.426 86.9391 276.529 86.9492 276.639 86.9831C277.304 87.1881 277.511 88.0557 277.042 88.5696C276.954 88.6653 276.859 88.7463 276.751 88.803C276.592 88.8868 276.424 88.9545 276.248 89.0126C275.095 89.3929 273.837 89.3114 272.71 88.8607C272.41 88.7403 272.11 88.6063 271.824 88.4497C271.728 88.3971 271.656 88.3015 271.597 88.182C271.333 87.6457 271.614 86.968 272.184 86.7881C272.303 86.7506 272.408 86.7405 272.492 86.779ZM273.318 71.6374C276.367 74.9749 275.972 81.0915 272.518 84.0043C269.963 86.1592 266.502 85.9427 264.273 83.4469C262.827 81.8283 262.214 79.8834 262.219 77.7261C262.222 75.2 263.025 72.987 264.897 71.2567C267.461 68.8876 270.974 69.072 273.318 71.6374ZM277.019 69.501C277.255 70.0131 277.29 70.6212 277.386 71.1928C277.943 74.549 278.505 77.9043 279.042 81.2637C279.468 83.9266 278.663 84.9975 276.007 85.219C275.916 85.2263 275.823 85.2112 275.728 85.1801C275.085 84.9709 274.842 84.1468 275.259 83.6136C275.298 83.5633 275.342 83.5175 275.39 83.4777C275.773 83.1674 276.283 83.0146 276.926 82.7464C277.082 82.6814 277.172 82.514 277.146 82.3474C276.556 78.6123 275.984 75.0245 275.429 71.4344C275.341 70.8651 275.23 70.2675 275.32 69.7142C275.371 69.4021 275.788 68.9665 276.084 68.9299C276.379 68.8928 276.886 69.2099 277.019 69.501ZM264.591 75.2325C263.932 76.9729 263.983 78.9338 264.779 80.6165C266.327 83.8917 269.609 84.3763 271.768 81.9326C272.762 80.8068 273.216 79.4779 273.398 77.5595C273.453 76.9784 273.374 76.3935 273.183 75.8421C272.919 75.0769 272.567 74.0757 271.98 73.2396C270.013 70.4389 266.095 71.2549 264.591 75.2325ZM289.95 71.3452C290.273 72.0298 290.472 72.773 290.618 73.4214C290.832 74.3747 290.903 75.3576 290.789 76.3278C290.557 78.3171 290 79.8433 288.899 81.1749C286.289 84.333 282.126 83.9774 280.374 80.2931C278.766 76.9104 278.994 73.48 281.307 70.4414C283.858 67.0893 288.157 67.5465 289.95 71.3452ZM283.121 71.3864C282.309 72.2641 281.849 73.2773 281.609 74.5284C281.349 75.8812 281.438 77.2879 281.87 78.5953C281.973 78.9061 282.099 79.2214 282.256 79.5197C283.394 81.6751 285.483 81.8801 287.149 80.1361C289.052 78.1455 289.436 74.0401 287.931 71.7744C286.684 69.8968 284.665 69.7183 283.121 71.3864ZM271.387 76.4361C271.668 76.7876 271.977 77.1898 272.103 77.6433C272.43 78.8286 271.72 79.9003 270.806 79.8518C269.744 79.7955 269.511 78.9466 269.381 78.1243C269.257 77.3431 269.571 76.594 270.232 76.2119C270.617 75.9895 271.11 76.0888 271.387 76.4361ZM283.448 74.8441C283.939 75.0345 284.456 75.688 284.565 76.2161C284.744 77.0796 284.36 78.0237 283.357 78.0081C283.05 78.0031 282.748 77.6828 282.506 77.3917C282.27 77.108 282.147 76.3032 282.183 75.9362C282.3 74.761 282.822 74.6016 283.448 74.8441Z" fill="#1D242F"/>
<path fill-rule="evenodd" clip-rule="evenodd" d="M578.854 267.913L580.807 269.059L581.989 342.346L580.807 343.681L470.985 335.741L473.737 274.153L578.854 267.913ZM586.883 53.7422L589.917 199.935L538.932 194.784L537.237 247.186L536.261 248.869L387.802 239.398L398.27 109.086L435.491 106.432L440.234 71.9566L586.883 53.7422Z" fill="white"/>
<path fill-rule="evenodd" clip-rule="evenodd" d="M396.331 238.553C400.008 195.586 400.969 152.801 404.496 109.871C402.599 109.956 401.16 110.021 399.3 110.105C395.817 152.779 392.348 195.283 388.864 237.976C391.519 238.181 393.793 238.357 396.331 238.553ZM588.687 198.593C587.771 150.556 586.863 102.982 585.951 55.1171C537.314 61.1015 489.149 67.028 440.739 72.9843C440.194 78.39 439.548 83.6368 439.166 88.903C438.788 94.1066 437.742 99.2827 437.97 104.653C453.263 103.467 468.165 102.286 483.071 101.162C502.105 99.7277 521.143 98.3379 540.179 96.9317C542.774 96.7402 543.081 97.0298 543.149 99.6863C543.161 100.11 543.151 100.535 543.138 100.96C542.66 116.658 542.176 132.357 541.702 148.055C541.342 160.041 540.977 172.028 540.653 184.016C540.572 187.066 540.641 190.12 540.641 193.375C556.53 195.1 572.323 196.816 588.687 198.593ZM535.827 247.185C536.726 243.017 540.611 102.193 539.95 99.7055C539.118 99.7055 538.272 99.6501 537.436 99.7143C527.286 100.494 517.139 101.304 506.989 102.08C490.071 103.372 473.153 104.66 456.233 105.92C440.582 107.086 424.926 108.208 409.275 109.369C408.572 109.421 408.04 109.415 406.924 109.574C404.378 152.503 401.794 195.667 399.241 238.711C444.899 241.543 490.39 244.366 535.827 247.185ZM386.727 240.286C386.018 236.79 396.333 110.843 397.43 107.665C409.885 106.735 422.334 105.804 434.988 104.858C435.51 99.6325 436.031 94.5901 436.514 89.5435C437.008 84.3691 437.444 79.1889 437.944 74.0144C438.248 70.8728 438.445 70.6882 441.515 70.3098C460.561 67.9629 479.61 65.6359 498.655 63.279C518.437 60.8311 538.214 58.3528 557.994 55.8961C566.727 54.8117 575.46 53.7314 584.199 52.696C584.726 52.6341 585.258 52.6213 585.814 52.6258C587.192 52.6423 588.342 53.6981 588.496 55.068C588.553 55.5697 588.594 56.0608 588.603 56.5525C588.905 72.7876 589.164 89.0238 589.461 105.259C589.943 131.679 590.441 158.1 590.941 184.521C591.029 189.19 591.212 193.857 591.25 198.526C591.269 200.975 590.906 201.328 588.43 201.088C580.938 200.362 573.455 199.54 565.97 198.741C557.558 197.844 549.147 196.93 540.478 195.995C540.309 199.682 540.099 203.157 539.999 206.634C539.628 219.574 539.294 232.517 538.946 245.458C538.941 245.67 538.939 245.883 538.928 246.095C538.755 249.786 538.359 250.042 534.761 249.792C525.664 249.161 516.56 248.631 507.46 248.052C492.011 247.068 476.563 246.061 461.113 245.096C452.329 244.548 443.538 244.095 434.754 243.543C419.409 242.581 404.067 241.577 388.724 240.581C388.1 240.54 387.482 240.4 386.727 240.286ZM582.081 269.844C582.194 272.615 582.303 275.223 582.346 277.833C582.621 294.349 582.847 310.867 583.115 327.383C583.193 332.146 583.359 336.907 583.465 341.669C583.533 344.7 582.999 345.213 579.982 345.007C561.594 343.746 543.208 342.476 524.821 341.21C509.498 340.154 494.176 339.101 478.854 338.039C476.635 337.885 474.417 337.715 472.203 337.51C469.816 337.288 469.463 336.996 469.529 334.564C469.661 329.803 469.924 325.045 470.145 320.287C470.831 305.483 471.511 290.678 472.217 275.875C472.387 272.306 472.57 272.171 476.07 271.983C492.042 271.123 508.013 270.264 523.985 269.394C539.428 268.553 554.869 267.702 570.311 266.846C572.955 266.699 575.595 266.487 578.239 266.343L578.27 266.341C580.29 266.236 581.999 267.825 582.081 269.844ZM575.214 269.091C569.929 269.386 564.647 269.748 559.362 270.033C549.317 270.572 539.268 271.05 529.225 271.602C515.904 272.334 502.587 273.111 489.267 273.87C484.542 274.139 479.816 274.41 474.858 274.693C473.931 294.812 473.017 314.644 472.084 334.877C508.604 337.386 544.56 339.855 580.808 342.344C580.346 317.596 579.991 293.344 579.469 269.081C577.743 269.081 576.475 269.022 575.214 269.091ZM536.5 284.693C539.154 287.16 541.79 289.646 544.434 292.123C548.245 295.693 552.067 299.252 555.86 302.84C556.122 303.088 556.373 303.346 556.625 303.616C557.649 304.714 557.644 306.42 556.581 307.483C556.406 307.657 556.229 307.825 556.047 307.986C549.239 313.964 542.414 319.922 535.589 325.879C535.109 326.299 534.648 326.849 534.078 327.034C533.488 327.224 532.518 327.307 532.173 326.97C531.485 326.301 531.69 325.407 532.526 324.802C532.87 324.554 533.287 324.396 533.603 324.12C540.586 318.026 547.557 311.92 554.789 305.591C552.997 303.805 551.371 302.623 549.462 300.87C544.832 296.618 541.74 293.092 536.043 287.986C535.526 287.523 535.095 286.995 534.583 286.539C533.831 285.867 533.076 285.112 534.051 284.155C535.023 283.201 535.801 284.043 536.5 284.693ZM512.048 283.104C512.322 283.379 512.431 284.144 512.241 284.488C511.843 285.21 511.225 285.819 510.654 286.435C504.628 292.937 498.593 299.429 492.566 305.93C491.857 306.695 491.189 307.498 490.118 308.721C491.401 309.603 492.286 310.3 493.251 310.859C500.367 314.98 507.497 319.072 514.625 323.172C515.081 323.434 515.545 323.684 516.01 323.933C516.835 324.378 517.502 325.06 516.855 325.917C516.562 326.307 515.561 326.333 514.923 326.24C514.335 326.154 513.796 325.7 513.248 325.385C505.841 321.137 498.437 316.885 491.034 312.631C490.486 312.316 489.9 312.034 489.429 311.625C487.468 309.92 487.282 307.801 489.011 305.926C495.808 298.556 502.636 291.215 509.46 283.871C509.815 283.49 510.192 283.022 510.648 282.874C511.066 282.739 511.767 282.822 512.048 283.104ZM451.883 228.822H451.901C453.261 228.837 453.485 230.986 452.174 231.374C451.743 231.502 451.282 231.522 450.833 231.526C443.871 231.574 436.909 231.554 429.946 231.542C429.532 231.542 429.034 231.547 428.726 231.316C428.339 231.027 427.88 230.497 427.878 230.07C427.877 229.692 428.402 229.161 428.805 228.974C429.26 228.762 429.839 228.827 430.364 228.826C437.537 228.814 444.71 228.801 451.883 228.822ZM449.085 211.175C449.851 211.311 450.109 212.221 449.524 212.711C448.839 213.286 447.991 213.358 447.146 213.405C439.422 213.839 431.699 214.276 423.973 214.67C420.376 214.854 416.773 214.949 413.173 215.072C412.538 215.093 411.9 215.082 411.266 215.037C410.349 214.972 409.512 214.675 409.577 213.641C409.648 212.523 410.627 212.594 411.484 212.56C420.166 212.212 428.85 211.874 437.53 211.497C440.706 211.36 443.875 211.075 447.052 210.967C447.714 210.944 448.381 211.051 449.085 211.175ZM519.877 209.633C519.883 209.635 519.889 209.636 519.894 209.638C520.835 209.974 521.088 211.326 520.335 212.007C520.273 212.065 520.206 212.117 520.135 212.162C519.642 212.475 518.911 212.411 518.282 212.447C508.161 213.018 498.038 213.579 487.916 214.143L487.907 213.998C481.044 214.198 474.182 214.404 467.32 214.59C466.053 214.624 464.773 214.674 463.524 214.509C463.416 214.495 463.311 214.452 463.208 214.39C462.543 213.99 462.481 212.999 463.023 212.432C463.192 212.255 463.371 212.099 463.571 211.981C463.981 211.742 464.603 211.899 465.13 211.881C479.591 211.401 494.053 210.945 508.513 210.426C511.887 210.304 515.256 209.972 518.627 209.733C519.048 209.704 519.511 209.506 519.877 209.633ZM480.219 188.381C480.276 188.387 480.318 188.426 480.346 188.478C480.348 188.48 480.349 188.483 480.351 188.486C480.629 188.973 480.531 189.6 480.057 189.877C479.668 190.105 479.259 190.301 478.943 190.41C477.951 190.753 476.875 190.91 475.824 190.975C454.155 192.311 432.476 193.328 410.761 193.057C409.603 193.043 407.749 193.574 407.743 191.705C407.737 189.736 409.638 190.45 410.746 190.426C423.554 190.156 436.368 190.1 449.171 189.682C458.37 189.382 467.554 188.604 476.747 188.093C477.896 188.029 479.061 188.27 480.219 188.381ZM511.249 187.167C512.928 187.145 512.988 189.591 511.31 189.67C511.196 189.675 511.084 189.679 510.974 189.684C504.382 189.961 497.786 190.135 491.191 190.343C490.982 190.35 490.727 190.412 490.571 190.323C489.927 189.953 488.886 189.621 488.776 189.117C488.536 188.022 489.634 187.96 490.475 187.927C493.509 187.803 496.544 187.712 499.578 187.598C503.45 187.453 507.32 187.263 511.192 187.168C511.211 187.168 511.23 187.167 511.249 187.167ZM470.118 175.727C471.733 175.711 471.779 178.151 470.167 178.247C469.828 178.267 469.476 178.259 469.14 178.267C463.531 178.417 457.92 178.511 452.31 178.668C445.009 178.871 437.71 179.136 430.409 179.319C429.236 179.348 427.419 179.792 427.421 177.985C427.422 176.546 429.072 176.7 430.227 176.674C443.032 176.381 455.838 176.08 468.644 175.819C469.119 175.809 469.624 175.731 470.118 175.727ZM443.894 164.297C443.932 165.432 443.264 165.876 442.323 166.005C439.318 166.414 436.308 166.807 433.288 167.03C432.894 167.059 432.477 166.756 432.06 166.437C431.66 166.13 431.465 165.596 431.566 165.078L431.568 165.069C435.224 163.488 439.137 163.891 442.892 163.378C443.414 163.308 443.875 163.73 443.894 164.297ZM444.999 153.796C445.174 153.866 445.345 153.946 445.513 154.032C446.279 154.423 446.434 155.499 445.74 156.004C445.645 156.073 445.545 156.123 445.44 156.145C443.268 156.599 441.057 156.884 438.849 157.152C436.535 157.433 434.21 157.622 431.626 157.876C431.467 157.861 430.976 157.938 430.646 157.748C430.242 157.515 429.738 157.074 429.71 156.693C429.684 156.327 430.142 155.678 430.507 155.58C431.623 155.281 432.794 155.153 433.95 155.018C437.32 154.624 440.692 154.259 444.063 153.883C444.379 153.848 444.744 153.692 444.999 153.796ZM473.476 142.33C474.244 142.357 474.777 143.139 474.466 143.831C474.18 144.467 473.486 144.716 472.705 144.85C470.315 145.261 467.923 145.681 465.515 145.951C453.461 147.305 441.409 148.718 429.248 148.726H427.389C426.628 148.726 425.959 148.095 426.058 147.352C426.123 146.859 426.47 146.567 427.078 146.44C427.894 146.269 428.751 146.242 429.592 146.223C443.855 145.91 458.01 144.462 472.107 142.376C472.555 142.309 473.014 142.314 473.476 142.33ZM468.511 129.534C468.894 129.569 469.473 130.102 469.518 130.462C469.567 130.851 469.198 131.514 468.832 131.68C468.185 131.974 467.406 132.023 466.675 132.102C457.837 133.061 449.006 134.082 440.159 134.936C431.31 135.79 422.444 136.473 413.585 137.233C413.52 137.239 413.455 137.247 413.375 137.258C412.649 137.361 411.888 137.18 411.348 136.696C411.196 136.559 411.074 136.406 411.018 136.232C410.657 135.114 411.741 134.915 412.581 134.816C415.312 134.495 418.047 134.184 420.787 133.946C428.696 133.259 436.615 132.672 444.518 131.925C451.578 131.258 458.619 130.424 465.67 129.676C466.615 129.576 467.576 129.45 468.511 129.534ZM497.767 113.493C498.608 113.513 499.896 113.395 499.707 114.655C499.623 115.213 498.619 115.957 497.959 116.043C494.062 116.552 490.138 116.851 486.232 117.297C467.651 119.418 449.072 121.559 430.494 123.703C424.583 124.385 418.677 125.126 412.761 125.774C412.122 125.844 411.478 125.852 410.807 125.842C409.24 125.817 409.129 123.486 410.686 123.308C410.721 123.305 410.754 123.301 410.788 123.297C414.694 122.847 418.605 122.436 422.507 121.957C433.793 120.57 445.069 119.098 456.362 117.773C465.545 116.697 474.746 115.777 483.941 114.804C488.241 114.349 492.546 113.942 496.85 113.519C497.154 113.488 497.461 113.486 497.767 113.493Z" fill="#A873FA"/>
</svg>
