<svg xmlns="http://www.w3.org/2000/svg" width="116" height="102.814" viewBox="0 0 116 102.814">
  <g id="Group_4" data-name="Group 4" transform="translate(-328.46)">
    <path id="Path_3" data-name="Path 3" d="M442.01,74.67a57.994,57.994,0,0,1-18.03,27.56,2.517,2.517,0,0,1-3.62-.42,2.636,2.636,0,0,1-.55-1.61,2.814,2.814,0,0,1,.97-2.11,52.775,52.775,0,1,0-85.8-28.44c0,.01,0,.01.01.02.26,1.17.56,2.33.91,3.48a52.779,52.779,0,0,0,16.22,24.93,2.72,2.72,0,0,1,.43,3.71,2.521,2.521,0,0,1-3.63.42A57.975,57.975,0,0,1,330.9,74.65c-.36-1.21-.68-2.42-.96-3.65a58,58,0,1,1,112.07,3.67Z" fill="#dbe1e8"/>
    <g id="Group_3" data-name="Group 3">
      <path id="Path_4" data-name="Path 4" d="M352.55,101.79a2.521,2.521,0,0,1-3.63.42A57.975,57.975,0,0,1,330.9,74.65c-.36-1.21-.68-2.42-.96-3.65a2.748,2.748,0,0,1,5.04-1.35c0,.01,0,.01.01.02.26,1.17.56,2.33.91,3.48a52.779,52.779,0,0,0,16.22,24.93A2.72,2.72,0,0,1,352.55,101.79Z" fill="#005e8b"/>
    </g>
  </g>
</svg>
