<svg xmlns="http://www.w3.org/2000/svg" width="115.999" height="102.814" viewBox="0 0 115.999 102.814">
  <g id="Group_8" data-name="Group 8" transform="translate(-936.384)">
    <path id="Path_8" data-name="Path 8" d="M1049.94,74.67a58.068,58.068,0,0,1-18.03,27.56,2.529,2.529,0,0,1-3.63-.42,2.636,2.636,0,0,1-.55-1.61,2.79,2.79,0,0,1,.98-2.11,52.777,52.777,0,1,0-68.66-.01,2.718,2.718,0,0,1,.42,3.71,2.51,2.51,0,0,1-3.62.42,58,58,0,1,1,93.09-27.54Z" fill="#dbe1e8"/>
    <g id="Group_7" data-name="Group 7">
      <path id="Path_9" data-name="Path 9" d="M1034.86,20.14a2.757,2.757,0,0,1-3.11.6,52.772,52.772,0,1,0-71.7,77.34,2.718,2.718,0,0,1,.42,3.71,2.51,2.51,0,0,1-3.62.42,58,58,0,1,1,78.41-85.37A2.746,2.746,0,0,1,1034.86,20.14Z" fill="#005e8b"/>
    </g>
  </g>
</svg>
