<svg xmlns="http://www.w3.org/2000/svg" width="116.001" height="102.814" viewBox="0 0 116.001 102.814">
  <g id="Group_2" data-name="Group 2" transform="translate(-624.082)">
    <path id="Path_1" data-name="Path 1" d="M737.64,74.67a58.067,58.067,0,0,1-18.03,27.56,2.529,2.529,0,0,1-3.63-.42,2.636,2.636,0,0,1-.55-1.61,2.79,2.79,0,0,1,.98-2.11A52.776,52.776,0,0,0,683.03,5.23c-.31-.01-.63-.01-.94-.01a52.778,52.778,0,0,0-34.34,92.86,2.718,2.718,0,0,1,.42,3.71,2.51,2.51,0,0,1-3.62.42A57.995,57.995,0,0,1,682.09,0c.25,0,.5,0,.75.01a58,58,0,0,1,54.8,74.66Z" fill="#dbe1e8"/>
    <g id="Group_1" data-name="Group 1">
      <path id="Path_2" data-name="Path 2" d="M684.83,2.65a2.748,2.748,0,0,1-1.8,2.58c-.31-.01-.63-.01-.94-.01a52.778,52.778,0,0,0-34.34,92.86,2.718,2.718,0,0,1,.42,3.71,2.51,2.51,0,0,1-3.62.42A57.995,57.995,0,0,1,682.09,0c.25,0,.5,0,.75.01A2.742,2.742,0,0,1,684.83,2.65Z" fill="#005e8b"/>
    </g>
  </g>
</svg>
