<svg width="566" height="441" viewBox="0 0 566 441" fill="none" xmlns="http://www.w3.org/2000/svg">
<g clip-path="url(#clip0)">
<path d="M444.156 163.963C420.352 70.3607 338.101 2.79258 241.557 0.0824833C190.517 -1.35028 136.809 15.5774 97.7053 74.8136C27.8034 180.705 102.001 253.878 153.729 288.649C178.721 305.482 201.239 325.721 220.633 348.781C255.573 390.245 322.792 441.768 402.846 361.039C460.869 302.526 460.011 226.312 444.156 163.963Z" fill="#F2F2F2"/>
<path d="M566.001 184.805C566.001 209.099 546.308 247.871 522.014 247.871C497.721 247.871 478.027 209.099 478.027 184.805C478.027 173.139 482.662 161.951 490.911 153.702C499.16 145.453 510.348 140.819 522.014 140.819C533.68 140.819 544.868 145.453 553.118 153.702C561.367 161.951 566.001 173.139 566.001 184.805Z" fill="#FD8369"/>
<path d="M523.64 249.435C518.112 251.338 516.789 258.876 518.69 264.405C520.592 269.933 524.619 274.519 526.645 280.003C527.57 282.768 528.233 285.615 528.627 288.504C529.785 295.383 530.946 302.384 530.054 309.303C529.208 315.866 526.548 322.054 523.582 327.969C517.836 339.423 510.848 350.209 502.742 360.133" stroke="#2F2E41" stroke-width="1.05993"/>
<path d="M526.253 252.111C523.426 250.297 520.6 250.297 517.773 252.111V243.631H526.253V252.111Z" fill="#BE624F"/>
<path d="M517.797 247.692C519.114 248.359 520.572 248.703 522.048 248.697C523.525 248.691 524.979 248.335 526.291 247.657" stroke="#2F2E41" stroke-width="1.05993"/>
<path opacity="0.4" d="M540.294 177.386C545.416 177.386 549.568 172.403 549.568 166.257C549.568 160.11 545.416 155.128 540.294 155.128C535.172 155.128 531.02 160.11 531.02 166.257C531.02 172.403 535.172 177.386 540.294 177.386Z" fill="white"/>
<path d="M0 177.916C0 202.209 19.6936 240.982 43.9869 240.982C68.2802 240.982 87.9738 202.209 87.9738 177.916C87.9738 166.25 83.3395 155.062 75.0903 146.813C66.8412 138.564 55.6529 133.929 43.9869 133.929C32.3208 133.929 21.1326 138.564 12.8835 146.813C4.63432 155.062 0 166.25 0 177.916Z" fill="#FD8369"/>
<path d="M42.3546 242.546C47.8824 244.449 49.2057 251.987 47.3044 257.515C45.403 263.044 41.3761 267.629 39.3499 273.113C38.4253 275.879 37.7617 278.725 37.3675 281.615C36.21 288.494 35.0493 295.494 35.9412 302.413C36.7873 308.977 39.4464 315.165 42.413 321.08C48.1584 332.533 55.1471 343.32 63.2526 353.244" stroke="#2F2E41" stroke-width="1.05993"/>
<path d="M39.75 245.221C42.5765 243.407 45.4029 243.407 48.2294 245.221V236.742H39.75V245.221Z" fill="#BE624F"/>
<path d="M48.2055 240.802C46.8879 241.469 45.4308 241.814 43.954 241.808C42.4772 241.802 41.023 241.445 39.7109 240.767" stroke="#2F2E41" stroke-width="1.05993"/>
<path opacity="0.4" d="M25.704 170.496C30.8261 170.496 34.9784 165.514 34.9784 159.367C34.9784 153.221 30.8261 148.238 25.704 148.238C20.582 148.238 16.4297 153.221 16.4297 159.367C16.4297 165.514 20.582 170.496 25.704 170.496Z" fill="white"/>
<path d="M534.202 371.352C534.202 396.377 416.515 440.777 271.34 440.777C126.166 440.777 22.2578 350.801 22.2578 325.776C22.2578 300.751 126.166 350.154 271.34 350.154C416.515 350.154 534.202 346.327 534.202 371.352Z" fill="#3F3D56"/>
<path opacity="0.1" d="M534.202 371.352C534.202 396.377 416.515 440.777 271.34 440.777C126.166 440.777 22.2578 350.801 22.2578 325.776C22.2578 300.751 126.166 350.154 271.34 350.154C416.515 350.154 534.202 346.327 534.202 371.352Z" fill="black"/>
<path d="M534.202 371.087C534.202 396.112 416.515 416.399 271.34 416.399C126.166 416.399 22.2578 350.801 22.2578 325.776C22.2578 300.751 126.166 325.776 271.34 325.776C416.515 325.776 534.202 346.062 534.202 371.087Z" fill="#3F3D56"/>
<path d="M231.162 300.566L225.839 334.553C225.839 334.553 199.632 348.476 218.058 348.885C236.485 349.295 323.296 348.885 323.296 348.885C323.296 348.885 340.085 348.885 313.468 334.144L308.145 298.519L231.162 300.566Z" fill="#2F2E41"/>
<path opacity="0.1" d="M214.354 348.516C218.539 344.792 225.841 340.913 225.841 340.913L231.164 306.925L308.147 306.998L313.471 340.503C319.677 343.941 323.522 346.576 325.772 348.597C329.19 347.817 332.926 344.919 313.471 334.143L308.147 298.518L231.164 300.566L225.841 334.553C225.841 334.553 203.819 346.253 214.354 348.516Z" fill="black"/>
<path d="M430.471 63.679H108.026C101.292 63.679 95.832 69.1386 95.832 75.8734V293.08C95.832 299.815 101.292 305.275 108.026 305.275H430.471C437.206 305.275 442.665 299.815 442.665 293.08V75.8734C442.665 69.1386 437.206 63.679 430.471 63.679Z" fill="#2F2E41"/>
<path d="M430.993 76.5779H107.5V257.57H430.993V76.5779Z" fill="#F7F7F7"/>
<path d="M269.247 72.8925C270.377 72.8925 271.294 71.9758 271.294 70.845C271.294 69.7143 270.377 68.7976 269.247 68.7976C268.116 68.7976 267.199 69.7143 267.199 70.845C267.199 71.9758 268.116 72.8925 269.247 72.8925Z" fill="#F2F2F2"/>
<path d="M442.665 271.902V293.08C442.666 294.682 442.35 296.268 441.738 297.747C441.125 299.227 440.227 300.571 439.094 301.704C437.962 302.836 436.617 303.734 435.138 304.347C433.658 304.96 432.072 305.275 430.471 305.275H108.026C106.425 305.275 104.839 304.96 103.36 304.347C101.88 303.734 100.536 302.836 99.4033 301.704C98.2709 300.571 97.3726 299.227 96.7599 297.747C96.1471 296.268 95.8318 294.682 95.832 293.08V271.902H442.665Z" fill="#2F2E41"/>
<path d="M359.744 370.997V375.092H139.441V371.816L139.745 370.997L145.174 356.256H355.24L359.744 370.997Z" fill="#2F2E41"/>
<path d="M444.524 366.988C444.123 368.704 442.608 370.514 439.185 372.226C426.9 378.368 401.922 370.588 401.922 370.588C401.922 370.588 382.676 367.312 382.676 358.713C383.216 358.343 383.78 358.007 384.363 357.709C389.528 354.977 406.652 348.234 437.016 357.995C439.253 358.697 441.251 360.006 442.788 361.777C444.018 363.218 444.983 365.045 444.524 366.988Z" fill="#2F2E41"/>
<path opacity="0.1" d="M444.525 366.988C429.488 372.75 416.086 373.18 402.331 363.626C395.395 358.811 389.093 357.619 384.363 357.709C389.528 354.977 406.653 348.234 437.017 357.995C439.253 358.697 441.252 360.006 442.788 361.777C444.019 363.218 444.983 365.045 444.525 366.988Z" fill="black"/>
<path d="M425.671 363.626C428.611 363.626 430.994 362.893 430.994 361.989C430.994 361.084 428.611 360.351 425.671 360.351C422.731 360.351 420.348 361.084 420.348 361.989C420.348 362.893 422.731 363.626 425.671 363.626Z" fill="#F2F2F2"/>
<path d="M269.249 296.471C273.546 296.471 277.029 292.988 277.029 288.691C277.029 284.394 273.546 280.911 269.249 280.911C264.952 280.911 261.469 284.394 261.469 288.691C261.469 292.988 264.952 296.471 269.249 296.471Z" fill="#F2F2F2"/>
<path opacity="0.1" d="M359.744 370.997V375.092H139.441V371.816L139.745 370.997H359.744Z" fill="black"/>
<path d="M461.636 161.461C456.109 163.365 454.785 170.903 456.687 176.431C458.588 181.96 462.615 186.545 464.641 192.029C465.566 194.795 466.229 197.641 466.623 200.53C467.781 207.41 468.942 214.41 468.05 221.329C467.204 227.892 464.545 234.08 461.578 239.996C455.833 251.449 448.844 262.236 440.738 272.16" stroke="#2F2E41" stroke-width="1.05993"/>
<path d="M503.993 96.8316C503.993 121.125 484.3 159.897 460.006 159.897C435.713 159.897 416.02 121.125 416.02 96.8316C416.02 85.1656 420.654 73.9773 428.903 65.7282C437.152 57.479 448.34 52.8447 460.006 52.8447C471.672 52.8447 482.861 57.479 491.11 65.7282C499.359 73.9773 503.993 85.1656 503.993 96.8316Z" fill="#D8DBFF"/>
<path d="M464.249 164.137C461.422 162.323 458.596 162.323 455.77 164.137V155.657H464.249V164.137Z" fill="#AEACEF"/>
<path d="M455.793 159.718C457.111 160.385 458.568 160.729 460.044 160.723C461.521 160.717 462.975 160.361 464.288 159.683" stroke="#2F2E41" stroke-width="1.05993"/>
<path opacity="0.4" d="M478.29 89.4122C483.412 89.4122 487.564 84.4295 487.564 78.283C487.564 72.1365 483.412 67.1538 478.29 67.1538C473.168 67.1538 469.016 72.1365 469.016 78.283C469.016 84.4295 473.168 89.4122 478.29 89.4122Z" fill="white"/>
<path d="M319.889 152.922V198.788L307.764 223.251V223.253L307.379 224.025L275.28 221.906L262.94 221.089L234.301 219.197V164.334L262.94 165.141L275.747 165.503L308.148 166.418L319.889 152.922Z" fill="#AEACEF"/>
<path opacity="0.1" d="M319.887 155.628V198.788L316.924 204.764V204.766L313.886 210.891V210.893L307.762 223.25L308.446 177.384L308.585 168.132L314.409 161.689V161.687L316.948 158.878L319.887 155.628Z" fill="black"/>
<path d="M321.535 140.742V156.762L319.889 159.385L316.948 164.07L314.343 168.22L308.587 177.391L308.449 177.384L231.777 173.441V157.64L231.971 157.432L241.124 147.523L244.438 143.937L250.431 137.45L321.535 140.742Z" fill="#AEACEF"/>
<path opacity="0.1" d="M308.587 161.59V177.391L231.777 173.441V157.64L231.971 157.432L308.587 161.59Z" fill="black"/>
<path opacity="0.15" d="M321.534 140.742V156.762L308.586 177.391V161.59L321.534 140.742Z" fill="black"/>
<path d="M316.958 148.113L316.951 158.878L316.949 164.07L316.927 204.764V204.766L313.889 210.891L314.344 168.22L314.412 161.689V161.687L314.515 152.046L241.125 147.523L244.438 143.937L316.958 148.113Z" fill="#5131BD"/>
<path d="M280.937 148.642L275.795 159.81L275.748 165.503L275.281 221.905L262.941 221.089V159.067L269.525 148.642H280.937Z" fill="#5131BD"/>
<path d="M264.006 149.394C261.035 150.382 257.842 150.494 254.809 149.717C254.218 149.602 253.664 149.346 253.195 148.969C252.691 148.411 252.346 147.728 252.197 146.992C251.661 145.469 251.364 143.873 251.316 142.259C251.353 140.648 251.97 138.967 253.284 138.035C253.551 137.873 253.802 137.685 254.031 137.473C254.306 137.127 254.503 136.727 254.61 136.298C255.509 133.617 257.252 130.785 260.048 130.355C262.627 129.959 264.975 131.761 266.962 133.452L271.324 137.164C271.808 135.863 272.674 134.739 273.809 133.939C274.943 133.139 276.293 132.701 277.681 132.682C279.069 132.663 280.43 133.064 281.586 133.833C282.742 134.602 283.638 135.702 284.158 136.989C286.801 134.012 290.132 131.726 293.861 130.331C294.688 130.023 295.658 129.772 296.412 130.231C296.877 130.574 297.23 131.048 297.427 131.592C298.614 134.191 299.258 137.006 299.318 139.862C299.623 139.758 299.954 139.758 300.258 139.864C300.563 139.969 300.824 140.172 301 140.443C301.338 140.993 301.53 141.62 301.559 142.266C301.676 143.263 301.734 144.266 301.733 145.269C301.733 146.328 301.635 147.471 300.945 148.274C300.053 149.311 298.514 149.421 297.147 149.454C297.805 150.038 297.484 151.215 296.756 151.709C296.027 152.204 295.085 152.213 294.205 152.205C290.811 152.172 287.201 152.075 284.378 150.191C283.264 149.447 282.33 148.457 281.212 147.717C278.473 145.904 275.034 145.818 271.864 145.968C269.002 146.103 266.73 148.481 264.006 149.394Z" fill="#5131BD"/>
<path d="M263.381 148.642C263.381 148.642 235.071 152.593 231.121 169.71L237.046 168.832L241.216 176.294C241.216 176.294 245.605 159.615 258.553 155.665C271.501 151.715 276.11 151.056 276.11 151.056C276.11 151.056 285.107 153.251 293.227 179.366L297.836 173.002L305.955 174.758C305.955 174.758 300.03 154.348 284.01 148.642L263.381 148.642Z" fill="#5131BD"/>
</g>
<defs>
<clipPath id="clip0">
<rect width="566" height="440.777" fill="white"/>
</clipPath>
</defs>
</svg>
