<svg width="130" height="43" viewBox="0 0 130 43" fill="none" xmlns="http://www.w3.org/2000/svg">
<g clip-path="url(#clip0)">
<path fill-rule="evenodd" clip-rule="evenodd" d="M39.3236 0.641153C39.7062 1.06859 39.9188 1.53877 39.9188 2.13717C39.9188 2.73559 39.7062 3.20576 39.3236 3.6332C38.8985 4.06064 38.4309 4.27435 37.8358 4.27435C37.2406 4.27435 36.7304 4.06064 36.3478 3.6332C35.9652 3.20576 35.7527 2.73559 35.7527 2.13717C35.7527 1.53877 35.9652 1.06859 36.3478 0.641153C36.7729 0.213717 37.2406 0 37.8358 0C38.4309 0 38.941 0.213717 39.3236 0.641153ZM35.8378 2.13721C35.8378 2.69287 36.0503 3.16305 36.4328 3.59046C36.0502 3.20576 35.8378 2.69287 35.8378 2.13721Z" fill="black"/>
<path d="M1.99804 2.22269H30.5939V0.213745H0V2.22269H1.99804Z" fill="black"/>
<path d="M1.99804 2.22253V40.991H128.002V2.22257H130V42.9999H1.19034H0V2.22253H1.99804Z" fill="black"/>
<path fill-rule="evenodd" clip-rule="evenodd" d="M98.6273 15.5585H101.22V14.0197C101.22 11.9681 100.753 10.4293 99.8599 9.36074C98.9247 8.24939 97.5215 7.73645 95.6512 7.73645C93.7808 7.73645 92.3776 8.29215 91.4424 9.36074C90.5495 10.4293 90.0823 11.9681 90.0823 14.0197V29.1082C90.0823 31.1599 90.5495 32.6986 91.4424 33.7672C92.3776 34.8786 93.7808 35.3915 95.6512 35.3915H95.6658L95.6934 35.3916C97.5638 35.3916 98.9247 34.8359 99.8599 33.7672C100.189 33.3894 100.454 32.942 100.658 32.425C101.029 31.5216 101.22 30.4196 101.22 29.1082V20.645H96.5863V22.9104H98.7118V29.4502C98.7118 31.8438 97.6913 33.1689 95.7787 33.1689C93.9327 33.1689 92.874 31.8788 92.8456 29.5451C92.8456 29.5136 92.8456 29.482 92.8456 29.4502V13.7205C92.8456 12.4382 93.143 11.4552 93.6955 10.814C93.7093 10.7966 93.7231 10.7795 93.7369 10.7626C94.2374 10.227 94.8915 9.95909 95.7365 9.95909C96.6286 9.95909 97.3095 10.2583 97.8189 10.8567C98.3722 11.4978 98.6273 12.481 98.6273 13.7205V15.5585ZM95.6512 7.77919C93.7808 7.77919 92.4207 8.33482 91.4846 9.40341C90.6348 10.472 90.1668 12.0108 90.1668 14.0197V29.1082C90.1668 31.1599 90.5925 32.6986 91.4846 33.7245C91.5553 33.8045 91.6276 33.8815 91.7024 33.9557C91.6423 33.8948 91.5838 33.832 91.5277 33.7673C90.677 32.6987 90.2098 31.16 90.2098 29.151V14.0625C90.2098 12.0108 90.6348 10.4721 91.5277 9.44625C92.4629 8.37766 93.823 7.82196 95.6934 7.82196C97.424 7.82196 98.7175 8.2975 99.6422 9.2147C98.7151 8.26951 97.4086 7.77919 95.6512 7.77919ZM96.6286 20.7305H101.135V20.7733H96.6717V22.8249H96.6286V20.7305ZM95.821 33.2544L95.7974 33.2543C97.6987 33.2455 98.7541 31.8786 98.7541 29.4502V22.8677H98.7972V29.4502C98.7972 31.8866 97.7344 33.2544 95.821 33.2544ZM99.9631 9.58126C100.281 10.0113 100.541 10.5121 100.737 11.0839C100.548 10.5049 100.291 10.004 99.9631 9.58126ZM98.7972 13.7454V13.7633V15.473V13.7454Z" fill="black"/>
<path fill-rule="evenodd" clip-rule="evenodd" d="M13.0081 28.5951V29.1935C13.0081 31.2452 13.4332 32.8267 14.3259 33.8526C15.2187 34.9212 16.6216 35.4768 18.4921 35.4768C20.3626 35.4768 21.7654 34.9211 22.7007 33.8099C23.636 32.7413 24.1035 31.1598 24.1035 29.0653C24.1035 27.3983 23.8485 26.0733 23.2109 24.8764C22.5731 23.5514 21.5104 22.2691 19.7674 20.6021C18.2795 19.1916 17.3443 18.123 16.7916 17.1399C16.154 16.0713 15.8564 14.96 15.8564 13.6777C15.8564 11.284 16.8766 10.0017 18.6621 10.0017C19.5549 10.0017 20.235 10.3009 20.7027 10.8993C21.2128 11.5405 21.4679 12.4808 21.4679 13.7631V14.3188H23.9761V14.0623C23.9761 12.0107 23.5509 10.4292 22.7007 9.40332C21.808 8.33473 20.4476 7.77905 18.6196 7.77905L18.5979 7.77908L18.5771 7.77905C17.081 7.77905 15.9786 8.1465 15.1733 8.74071C13.5133 9.94982 13.0931 12.0999 13.0931 14.0196C13.0931 15.5584 13.3482 16.7552 13.9858 17.9947C14.666 19.2771 15.7288 20.6448 17.4718 22.2691C20.405 25.0474 21.3403 26.7999 21.3403 29.5355C21.3403 30.2624 21.2583 30.8931 21.0867 31.42C20.9523 31.7769 20.7693 32.0758 20.5326 32.3138C20.0224 32.9122 19.3423 33.2114 18.407 33.2114C17.4038 33.2114 16.6344 32.8352 16.1295 32.1261C15.7537 31.5095 15.5588 30.6674 15.5588 29.621V28.5951H15.4313V28.4242H13.0506V28.5951H13.0081ZM13.0506 28.5951V29.099V29.0653V28.5951ZM16.1295 32.1261C16.3176 32.4348 16.5511 32.6869 16.8281 32.8798C15.9189 32.3031 15.4313 31.1431 15.4313 29.4928V29.4338C15.4349 30.58 15.6751 31.4879 16.1295 32.1261ZM21.0867 31.42C21.2873 30.8874 21.38 30.2254 21.3828 29.4429L21.3829 29.4928C21.3829 30.8178 21.0853 31.8009 20.5327 32.4847C20.3964 32.6342 20.2386 32.7655 20.0601 32.8765C20.2317 32.7554 20.389 32.6106 20.5326 32.4421C20.772 32.1644 20.9555 31.8225 21.0867 31.42ZM15.1733 8.74071C15.9858 8.14893 17.0953 7.78257 18.5979 7.77908C20.3731 7.78338 21.7264 8.33886 22.6157 9.40332C23.4659 10.4292 23.891 11.9679 23.891 14.0196V14.0697C23.8861 12.0357 23.461 10.5087 22.6157 9.48875C21.723 8.42016 20.3626 7.86452 18.5772 7.86452C14.0908 7.86452 13.144 11.1692 13.1357 13.9822L13.1356 13.9341C13.1356 12.0496 13.553 9.93627 15.1733 8.74071ZM21.5105 13.8059V14.1906L21.5104 13.7774L21.5105 13.8059ZM15.7289 13.7204L15.729 13.6812C15.736 14.945 16.0341 16.0842 16.6641 17.1399C17.2592 18.1657 18.1945 19.2343 19.6824 20.6448C21.4254 22.2691 22.4881 23.5941 23.1258 24.8764C23.7209 26.0733 23.9761 27.3556 23.9761 29.0226L23.976 29.0559C23.9707 27.4143 23.7148 26.1462 23.1259 24.9619C22.4882 23.6796 21.4254 22.3546 19.6824 20.7303C18.1946 19.3198 17.2593 18.2512 16.6641 17.2253C16.0264 16.114 15.7289 15.0026 15.7289 13.7204Z" fill="black"/>
<path fill-rule="evenodd" clip-rule="evenodd" d="M51.5657 35.5196H62.6186V33.1687H54.2864L62.6612 10.7711V7.77905H51.9908V10.1299H59.9404L51.6082 32.4848L51.5657 35.5196Z" fill="black"/>
<path d="M128.002 2.22272L122.192 2.22269V0.213745H130V2.22272H128.002Z" fill="black"/>
<path fill-rule="evenodd" clip-rule="evenodd" d="M39.2374 35.5197H36.4316V7.73645H39.2374V35.5197Z" fill="black"/>
<path d="M116.396 35.5197H113.591V7.73645H116.396V35.5197Z" fill="black"/>
<path d="M77.7967 35.4769H74.991V7.6936H77.7967V35.4769Z" fill="black"/>
<path fill-rule="evenodd" clip-rule="evenodd" d="M76.2656 0C76.8608 0 77.371 0.213717 77.7536 0.641153C78.1787 1.06859 78.3912 1.53877 78.3487 2.13717C78.3487 2.73559 78.1362 3.20576 77.7536 3.6332C77.3285 4.06064 76.8608 4.27435 76.2656 4.27435C75.6705 4.27435 75.1603 4.06064 74.7777 3.6332C74.3952 3.20576 74.1826 2.73559 74.1826 2.13717C74.1826 1.53877 74.3952 1.06859 74.7777 0.641153C75.2029 0.213717 75.6705 0 76.2656 0ZM74.9057 0.683424C75.2882 0.29905 75.7557 0.0855181 76.308 0.0855181C75.7556 0.0855181 75.2882 0.256336 74.9057 0.683424ZM74.9042 3.58939C74.559 3.24175 74.3524 2.78959 74.3159 2.29587C74.3527 2.78284 74.5591 3.20354 74.9042 3.58939Z" fill="black"/>
<path fill-rule="evenodd" clip-rule="evenodd" d="M114.908 0C115.503 0 116.013 0.213717 116.396 0.641153C116.779 1.06859 116.991 1.53877 116.991 2.13717C116.991 2.73559 116.779 3.20576 116.396 3.6332C115.971 4.06064 115.503 4.27435 114.908 4.27435C114.313 4.27435 113.802 4.06064 113.42 3.6332C113.038 3.20576 112.825 2.73559 112.825 2.13717C112.825 1.53877 113.038 1.06859 113.42 0.641153C113.845 0.213717 114.313 0 114.908 0ZM114.928 4.18878C114.385 4.18297 113.925 3.96987 113.547 3.59048C113.165 3.16305 112.953 2.69287 112.953 2.13721C112.953 1.58154 113.165 1.06862 113.547 0.683928C113.926 0.303819 114.387 0.0906351 114.931 0.0856089C114.923 0.0855278 114.916 0.0854872 114.908 0.0854872C114.356 0.0854872 113.888 0.299205 113.505 0.683897C113.122 1.11133 112.91 1.58151 112.91 2.13717C112.91 2.69284 113.122 3.20576 113.505 3.59046C113.888 3.97515 114.356 4.18887 114.908 4.18887C114.915 4.18887 114.921 4.18883 114.928 4.18878Z" fill="black"/>
</g>
<defs>
<clipPath id="clip0">
<rect width="130" height="43" fill="white"/>
</clipPath>
</defs>
</svg>
