<svg width="47" height="47" viewBox="0 0 47 47" fill="none" xmlns="http://www.w3.org/2000/svg">
<path d="M2.33105 1.31879H0V46.6159H2.33105V1.31879Z" fill="#313134"/>
<path d="M46.9999 44.2849H0V46.6159H46.9999V44.2849Z" fill="#313134"/>
<path d="M47 1.31879H44.6689V46.6159H47V1.31879Z" fill="#313134"/>
<path d="M9.32938 1.31879H0V3.64983H9.32938V1.31879Z" fill="#313134"/>
<path d="M17.7558 29.7381C18.1504 29.7381 18.5397 29.7537 18.9343 29.7329C19.2302 29.7174 19.3237 29.8472 19.3289 30.1275C19.3392 30.9011 19.3392 31.6746 19.3912 32.4482C19.4379 33.1906 19.6196 33.9018 20.0297 34.5456C20.471 35.2465 21.1304 35.641 21.9091 35.7552C22.5996 35.8591 23.3109 35.8695 24.0117 35.6462C24.8735 35.3659 25.4706 34.8104 25.7613 33.9901C26.5297 31.8563 26.2182 29.8472 24.8943 28.0093C24.209 27.0592 23.3368 26.2909 22.4335 25.5485C21.1875 24.5205 19.8999 23.5393 18.7941 22.3452C17.5585 21.011 16.6604 19.495 16.38 17.6883C16.0633 15.6324 16.1723 13.6025 17.1328 11.7127C18.0517 9.91124 19.5521 8.91964 21.5613 8.67044C22.7969 8.51988 24.0169 8.53027 25.211 8.87811C26.9294 9.3765 28.1131 10.4927 28.8244 12.1333C29.4266 13.5246 29.5356 14.9939 29.572 16.4735C29.5824 16.8265 29.4733 16.92 29.1099 16.92C28.326 16.9252 27.542 16.9252 26.7581 16.92C26.3791 16.92 26.2909 16.8369 26.2805 16.4579C26.2649 16.0322 26.3168 15.6013 26.2493 15.186C26.1507 14.5733 26.0417 13.9503 25.8132 13.3793C25.4861 12.559 24.8424 12.0502 23.9598 11.8529C22.9163 11.6193 21.9195 11.6712 21.0058 12.2786C20.4658 12.6369 20.1128 13.1508 19.9311 13.7686C19.4846 15.3209 19.495 16.8577 20.1699 18.3529C20.6787 19.4742 21.4782 20.3724 22.3919 21.1719C23.6483 22.2725 24.9514 23.3213 26.1922 24.4375C27.3396 25.4706 28.3104 26.6595 28.8867 28.1131C29.1359 28.7465 29.2864 29.4214 29.4266 30.0912C29.7018 31.4202 29.6239 32.7441 29.3124 34.0576C28.9749 35.4905 28.3312 36.752 27.1475 37.6813C26.5193 38.1745 25.8184 38.5224 25.0397 38.7301C24.1259 38.9689 23.2018 39.0364 22.2725 38.9948C20.2685 38.8962 18.5709 38.1745 17.382 36.4873C16.8317 35.7085 16.5513 34.8052 16.3385 33.8863C16.0529 32.6351 16.1412 31.3579 16.1256 30.086C16.1204 29.8368 16.2502 29.7485 16.4786 29.7485C16.9096 29.7381 17.3353 29.7381 17.7558 29.7381Z" fill="#313134"/>
<path d="M20.7976 2.63761C20.8079 1.01262 21.8411 0.0054433 23.4816 0.0158266C24.9197 0.0262099 26.2072 1.30855 26.2021 2.73625C26.1969 4.28336 25.0339 5.40475 23.4713 5.40994C22.0539 5.41513 20.6989 4.06012 20.7976 2.63761Z" fill="#313134"/>
<path d="M12.6572 2.61706C12.626 1.02841 13.7059 -0.0254893 15.3412 0.000468948C16.7845 0.0212355 18.072 1.31915 18.0357 2.74685C17.9942 4.43932 16.743 5.40497 15.2789 5.39978C13.9655 5.38939 12.5377 4.11225 12.6572 2.61706Z" fill="#313134"/>
<path d="M31.8142 5.39956C30.3553 5.39437 29.0937 4.14318 29.1145 2.68433C29.1405 1.04377 30.0957 0.0158278 31.7882 0.0106362C33.2471 0.00544451 34.5034 1.26182 34.5034 2.71029C34.5086 4.29374 33.3872 5.40994 31.8142 5.39956Z" fill="#313134"/>
</svg>
