<svg width="45" height="45" viewBox="0 0 45 45" fill="none" xmlns="http://www.w3.org/2000/svg">
<path d="M2.25916 1.28223H0V44.5726H2.25916V1.28223Z" fill="#5131BD"/>
<path d="M44.9389 42.3134H0V44.5726H44.9389V42.3134Z" fill="#5131BD"/>
<path d="M44.9999 1.28223H42.7407V44.5726H44.9999V1.28223Z" fill="#5131BD"/>
<path d="M8.91452 1.28223H0V3.54139H8.91452V1.28223Z" fill="#5131BD"/>
<path d="M44.9391 1.28223H35.9635V3.54139H44.9391V1.28223Z" fill="#5131BD"/>
<path d="M16.8524 28.4532C17.2187 28.4532 17.5851 28.4532 17.9514 28.4532C18.2567 28.4532 18.3178 28.5753 18.3178 28.8195C18.3178 29.5522 18.3178 30.2849 18.3788 31.0176C18.4399 31.7503 18.6231 32.422 18.9894 33.0325C19.4168 33.7042 20.0274 34.0705 20.7601 34.1926C21.4317 34.3148 22.1034 34.3148 22.775 34.0705C23.5688 33.8263 24.1794 33.2768 24.4236 32.483C25.1563 30.4681 24.851 28.5142 23.5688 26.7435C22.8971 25.8277 22.1034 25.095 21.2486 24.3623C20.0274 23.3853 18.8062 22.4694 17.7682 21.3093C16.6081 20.0271 15.7533 18.5617 15.448 16.8521C15.1427 14.8982 15.2648 12.9443 16.1807 11.1126C17.0355 9.40296 18.5009 8.42603 20.3937 8.18179C21.5539 8.05968 22.714 8.05968 23.8741 8.36497C25.5226 8.85343 26.6217 9.89143 27.3544 11.4789C27.9039 12.8222 28.026 14.2266 28.0871 15.6309C28.0871 15.9973 27.965 16.0583 27.6597 16.0583C26.927 16.0583 26.1332 16.0583 25.4005 16.0583C25.0342 16.0583 24.9731 15.9973 24.9121 15.6309C24.9121 15.2035 24.9731 14.8372 24.9121 14.4097C24.7899 13.7992 24.7289 13.2496 24.4847 12.7001C24.1794 11.9064 23.5688 11.4179 22.714 11.2347C21.737 10.9905 20.7601 11.0515 19.9053 11.6621C19.4168 12.0285 19.0505 12.5169 18.8673 13.0665C18.4399 14.5319 18.4399 15.9973 19.1115 17.4627C19.6 18.5617 20.3937 19.4165 21.2486 20.1492C22.4697 21.1872 23.6909 22.2252 24.9121 23.2632C26.0111 24.2401 26.927 25.4002 27.4765 26.8046C27.7207 27.4152 27.8429 28.0258 27.965 28.6974C28.2092 29.9796 28.1482 31.2618 27.8429 32.483C27.5376 33.8263 26.927 35.0475 25.7669 35.9633C25.1563 36.4518 24.4847 36.7571 23.752 36.9403C22.8971 37.1845 21.9813 37.2456 21.1264 37.1845C19.2336 37.0624 17.5851 36.3907 16.425 34.8032C15.8754 34.0705 15.6312 33.2157 15.448 32.2998C15.1427 31.0787 15.2648 29.8575 15.2648 28.6974C15.2648 28.4532 15.387 28.3921 15.6312 28.3921C16.0586 28.4532 16.486 28.4532 16.8524 28.4532Z" fill="#5131BD"/>
<path d="M19.783 2.50339C19.783 0.976934 20.7599 0 22.3474 0C23.7518 0 24.9729 1.22117 24.9729 2.62551C24.9729 4.09091 23.8739 5.18996 22.3474 5.18996C20.9431 5.18996 19.6609 3.90773 19.783 2.50339Z" fill="#5131BD"/>
<path d="M11.9675 2.50339C11.9065 0.976934 12.9445 0 14.532 0C15.9363 0 17.1575 1.28223 17.0964 2.62551C17.0354 4.21303 15.8753 5.18996 14.4709 5.18996C13.2497 5.1289 11.9065 3.90773 11.9675 2.50339Z" fill="#5131BD"/>
<path d="M30.285 5.18996C28.8807 5.18996 27.6595 3.96879 27.7206 2.56445C27.7206 0.976934 28.6365 0 30.285 0C31.6894 0 32.9105 1.22117 32.9105 2.56445C32.9105 4.09091 31.8115 5.18996 30.285 5.18996Z" fill="#5131BD"/>
</svg>
