<svg width="160" height="53" viewBox="0 0 160 53" fill="none" xmlns="http://www.w3.org/2000/svg">
<path fill-rule="evenodd" clip-rule="evenodd" d="M48.3976 0.790258C48.8685 1.3171 49.1301 1.89662 49.1301 2.63419C49.1301 3.37177 48.8685 3.95129 48.3976 4.47813C47.8744 5.00497 47.2989 5.26839 46.5664 5.26839C45.8339 5.26839 45.206 5.00497 44.7351 4.47813C44.2642 3.95129 44.0026 3.37177 44.0026 2.63419C44.0026 1.89662 44.2642 1.3171 44.7351 0.790258C45.2583 0.263419 45.8339 0 46.5664 0C47.2989 0 47.9267 0.263419 48.3976 0.790258ZM44.1073 2.63423C44.1073 3.31912 44.3689 3.89864 44.8397 4.42545C44.3688 3.95129 44.1073 3.31912 44.1073 2.63423Z" fill="#512DC8"/>
<path d="M2.45912 2.73956H37.654V0.263419H0V2.73956H2.45912Z" fill="#512DC8"/>
<path d="M2.45912 2.73956V50.5239H157.541V2.7396H160V53L1.46504 53L0 53V2.73956H2.45912Z" fill="#512DC8"/>
<path fill-rule="evenodd" clip-rule="evenodd" d="M121.387 19.1769H124.578V17.2803C124.578 14.7515 124.003 12.8549 122.904 11.5378C121.753 10.168 120.026 9.53577 117.724 9.53577C115.422 9.53577 113.695 10.2207 112.544 11.5378C111.445 12.8549 110.87 14.7515 110.87 17.2803V35.8777C110.87 38.4065 111.445 40.3031 112.544 41.6202C113.695 42.99 115.422 43.6222 117.724 43.6222L117.742 43.6222L117.776 43.6223C120.078 43.6223 121.753 42.9374 122.904 41.6202C123.309 41.1545 123.635 40.6031 123.886 39.9658C124.343 38.8523 124.578 37.4941 124.578 35.8777V25.4463H118.875V28.2385H121.491V36.2992C121.491 39.2495 120.235 40.8827 117.881 40.8827C115.609 40.8827 114.306 39.2926 114.271 36.4162C114.271 36.3774 114.271 36.3384 114.271 36.2992V16.9115C114.271 15.331 114.637 14.1193 115.317 13.329C115.334 13.3076 115.351 13.2865 115.368 13.2657C115.984 12.6055 116.789 12.2753 117.829 12.2753C118.927 12.2753 119.765 12.6441 120.392 13.3817C121.073 14.1719 121.387 15.3837 121.387 16.9115V19.1769ZM117.724 9.58845C115.422 9.58845 113.748 10.2733 112.596 11.5904C111.55 12.9075 110.974 14.8042 110.974 17.2803V35.8777C110.974 38.4065 111.498 40.3031 112.596 41.5676C112.683 41.6661 112.772 41.7611 112.864 41.8525C112.79 41.7774 112.718 41.7 112.649 41.6203C111.602 40.3032 111.027 38.4066 111.027 35.9304V17.333C111.027 14.8042 111.55 12.9076 112.649 11.6432C113.8 10.3261 115.474 9.64117 117.776 9.64117C119.906 9.64117 121.498 10.2273 122.636 11.3578C121.495 10.1928 119.887 9.58845 117.724 9.58845ZM118.927 25.5517H124.473V25.6044H118.98V28.1332H118.927V25.5517ZM117.933 40.9881L117.904 40.988C120.244 40.9771 121.543 39.2924 121.543 36.2992V28.1859H121.596V36.2992C121.596 39.3022 120.288 40.9881 117.933 40.9881ZM123.031 11.8096C123.422 12.3396 123.742 12.9569 123.984 13.6617C123.751 12.948 123.435 12.3307 123.031 11.8096ZM121.596 16.9421L121.596 16.9642L121.596 19.0715V16.9421Z" fill="#512DC8"/>
<path fill-rule="evenodd" clip-rule="evenodd" d="M16.0104 35.2455V35.9831C16.0104 38.5119 16.5337 40.4612 17.6324 41.7257C18.7312 43.0428 20.4578 43.7276 22.76 43.7276C25.0621 43.7276 26.7887 43.0427 27.9398 41.673C29.0909 40.3559 29.6664 38.4066 29.6664 35.8251C29.6664 33.7704 29.3525 32.1372 28.5677 30.662C27.7828 29.0288 26.4748 27.4483 24.3296 25.3937C22.4983 23.6551 21.3473 22.338 20.6671 21.1263C19.8823 19.8092 19.516 18.4394 19.516 16.8589C19.516 13.9086 20.7717 12.3281 22.9692 12.3281C24.068 12.3281 24.9051 12.6968 25.4807 13.4344C26.1085 14.2247 26.4225 15.3837 26.4225 16.9642V17.6491H29.5095V17.333C29.5095 14.8042 28.9862 12.8549 27.9398 11.5905C26.8411 10.2734 25.1668 9.5885 22.9169 9.5885L22.8902 9.58853L22.8646 9.5885C21.0233 9.5885 19.6664 10.0414 18.6753 10.7738C16.6323 12.2641 16.1151 14.9142 16.1151 17.2803C16.1151 19.177 16.429 20.6521 17.2138 22.1799C18.051 23.7605 19.359 25.4463 21.5042 27.4483C25.1144 30.8728 26.2655 33.0328 26.2655 36.4046C26.2655 37.3005 26.1646 38.0779 25.9534 38.7273C25.7879 39.1673 25.5627 39.5357 25.2714 39.829C24.6435 40.5666 23.8064 40.9354 22.6553 40.9354C21.4206 40.9354 20.4736 40.4717 19.8522 39.5976C19.3897 38.8377 19.1498 37.7997 19.1498 36.51V35.2455H18.9928L18.9928 35.0348H16.0628V35.2455H16.0104ZM16.0628 35.2455L16.0628 35.8666L16.0628 35.8251V35.2455ZM19.8522 39.5976C20.0837 39.9781 20.3711 40.2889 20.712 40.5266C19.593 39.8158 18.9928 38.386 18.9928 36.3519V36.2792C18.9973 37.692 19.2929 38.811 19.8522 39.5976ZM25.9534 38.7273C26.2002 38.0709 26.3144 37.2549 26.3178 36.2905L26.3179 36.3519C26.3179 37.9851 25.9516 39.1968 25.2715 40.0397C25.1038 40.2239 24.9095 40.3857 24.6899 40.5226C24.9011 40.3733 25.0946 40.1948 25.2714 39.9871C25.566 39.6448 25.7919 39.2234 25.9534 38.7273ZM18.6753 10.7738C19.6753 10.0444 21.0408 9.59284 22.8902 9.58853C25.0751 9.59384 26.7407 10.2785 27.8352 11.5905C28.8816 12.8549 29.4048 14.7515 29.4048 17.2803V17.3421C29.3988 14.8351 28.8756 12.953 27.8352 11.6958C26.7365 10.3787 25.0622 9.69384 22.8647 9.69384C17.343 9.69384 16.1777 13.767 16.1675 17.2342L16.1674 17.175C16.1674 14.8522 16.6811 12.2474 18.6753 10.7738ZM26.4749 17.0169V17.4911L26.4748 16.9818L26.4749 17.0169ZM19.3591 16.9115L19.3592 16.8633C19.3679 18.421 19.7348 19.8251 20.5101 21.1263C21.2426 22.3907 22.3937 23.7078 24.225 25.4463C26.3702 27.4483 27.6782 29.0815 28.463 30.662C29.1955 32.1372 29.5095 33.7177 29.5095 35.7724L29.5094 35.8135C29.5029 33.7901 29.1879 32.2271 28.4631 30.7674C27.6783 29.1869 26.3702 27.5537 24.225 25.5517C22.3938 23.8131 21.2427 22.496 20.5102 21.2316C19.7253 19.8618 19.3591 18.492 19.3591 16.9115Z" fill="#512DC8"/>
<path fill-rule="evenodd" clip-rule="evenodd" d="M63.4663 43.7803H77.0699V40.8827H66.8149L77.1223 13.2764V9.5885H63.9895V12.4861H73.7737L63.5186 40.0398L63.4663 43.7803Z" fill="#512DC8"/>
<path d="M157.541 2.7396L150.39 2.73956V0.263419H160L160 2.7396H157.541Z" fill="#512DC8"/>
<path fill-rule="evenodd" clip-rule="evenodd" d="M48.293 43.7803H44.8398V9.53577H48.293V43.7803Z" fill="#512DC8"/>
<path d="M143.257 43.7803H139.804V9.53577H143.257V43.7803Z" fill="#512DC8"/>
<path d="M95.7488 43.7276H92.2956V9.4831H95.7488V43.7276Z" fill="#512DC8"/>
<path fill-rule="evenodd" clip-rule="evenodd" d="M93.8653 0C94.5978 0 95.2257 0.263419 95.6966 0.790258C96.2198 1.3171 96.4814 1.89662 96.4291 2.63419C96.4291 3.37177 96.1675 3.95129 95.6966 4.47813C95.1734 5.00497 94.5978 5.26839 93.8653 5.26839C93.1328 5.26839 92.5049 5.00497 92.034 4.47813C91.5632 3.95129 91.3016 3.37177 91.3016 2.63419C91.3016 1.89662 91.5632 1.3171 92.034 0.790258C92.5573 0.263419 93.1328 0 93.8653 0ZM92.1915 0.84236C92.6623 0.368596 93.2377 0.105406 93.9175 0.105406C93.2376 0.105406 92.6623 0.315949 92.1915 0.84236ZM92.1897 4.42413C91.7648 3.99565 91.5106 3.43833 91.4657 2.82979C91.5109 3.43001 91.765 3.94855 92.1897 4.42413Z" fill="#512DC8"/>
<path fill-rule="evenodd" clip-rule="evenodd" d="M141.426 0C142.158 0 142.786 0.263419 143.257 0.790258C143.728 1.3171 143.99 1.89662 143.99 2.63419C143.99 3.37177 143.728 3.95129 143.257 4.47813C142.734 5.00497 142.158 5.26839 141.426 5.26839C140.693 5.26839 140.065 5.00497 139.594 4.47813C139.124 3.95129 138.862 3.37177 138.862 2.63419C138.862 1.89662 139.124 1.3171 139.594 0.790258C140.118 0.263419 140.693 0 141.426 0ZM141.45 5.16291C140.782 5.15575 140.216 4.8931 139.751 4.42548C139.281 3.89864 139.019 3.31912 139.019 2.63423C139.019 1.94934 139.281 1.31714 139.751 0.842981C140.217 0.374475 140.784 0.111713 141.454 0.105518C141.444 0.105418 141.435 0.105368 141.426 0.105368C140.746 0.105368 140.17 0.368788 139.699 0.842943C139.228 1.36978 138.967 1.9493 138.967 2.63419C138.967 3.31908 139.228 3.95129 139.699 4.42545C140.17 4.8996 140.746 5.16302 141.426 5.16302C141.434 5.16302 141.442 5.16298 141.45 5.16291Z" fill="#512DC8"/>
</svg>
