<svg width="354" height="263" viewBox="0 0 354 263" fill="none" xmlns="http://www.w3.org/2000/svg">
<path opacity="0.5" d="M190.351 262.495C268.476 262.495 331.809 259.633 331.809 256.102C331.809 252.572 268.476 249.709 190.351 249.709C112.226 249.709 48.8931 252.572 48.8931 256.102C48.8931 259.633 112.226 262.495 190.351 262.495Z" fill="#C9C9C9"/>
<g opacity="0.5">
<g opacity="0.5">
<path opacity="0.5" fill-rule="evenodd" clip-rule="evenodd" d="M175.128 4.24498C188.289 4.20002 201.303 5.43379 213.92 9.41745C217.751 10.6271 221.569 11.9667 225.225 13.6186C229.158 15.3959 232.731 17.8691 236.19 20.4626C240.738 23.8717 244.787 27.8038 248.256 32.3028C251.68 36.744 254.15 41.6219 254.932 47.2695C255.429 50.8584 255.183 54.3521 253.932 57.7443C251.599 64.0702 248.445 69.888 243.372 74.5028C239.37 78.1436 235.4 81.8208 231.412 85.4779C226.885 89.6298 222.567 93.9774 218.869 98.9006C215.96 102.775 213.535 106.902 212.441 111.687C212.201 112.738 211.984 113.807 211.896 114.879C211.501 119.704 213.805 123.231 217.604 125.801C220.657 127.867 224.208 128.752 227.877 128.7C235.51 128.592 243.143 128.388 250.771 128.102C261.346 127.706 271.916 127.131 282.505 127.37C295.816 127.67 309.037 128.75 321.984 132.065C328.877 133.83 335.537 136.216 341.696 139.851C344.4 141.448 346.979 143.232 349.107 145.547C350.358 146.908 351.526 148.398 352.457 149.99C354.254 153.065 354.45 156.359 353.209 159.715C351.976 163.045 349.943 165.854 347.517 168.4C343.602 172.51 338.877 175.452 333.779 177.847C327.502 180.796 320.934 182.962 314.234 184.651C303.285 187.41 292.288 189.982 281.293 192.557C263.395 196.749 245.477 200.852 227.58 205.046C215.173 207.954 202.709 210.563 190.088 212.351C180.37 213.728 170.6 214.465 160.78 214.185C152.415 213.947 144.295 212.489 136.65 208.902C133.133 207.251 129.93 205.155 127.249 202.329C117.824 192.4 123.947 180.381 130.09 170.693C131.248 168.867 132.555 167.129 133.615 165.25C134.345 163.958 134.942 162.536 135.291 161.097C136.01 158.135 134.899 155.905 132.186 154.527C130.118 153.477 127.885 153.031 125.577 152.923C120.137 152.669 114.753 153.278 109.431 154.259C98.3216 156.309 87.2359 158.489 76.1529 160.676C67.4717 162.389 58.7365 162.726 49.9434 161.922C49.1096 161.845 48.2563 161.723 47.4675 161.457C39.6071 158.814 32.519 154.905 26.7447 148.826C21.6547 143.467 18.8344 136.994 17.3217 129.874C15.7673 122.558 15.8775 115.214 16.8528 107.828C18.1882 97.7141 21.1498 88.1444 25.9791 79.1496C28.8107 73.8757 32.1329 68.9544 36.452 64.7813C43.4541 58.0154 50.2928 51.0574 57.6039 44.6396C69.6772 34.0414 83.5471 26.2384 98.2898 19.9621C113.009 13.6963 128.309 9.43993 144.085 6.83286C152.816 5.38982 161.591 4.44201 170.442 4.24993C172.003 4.21588 173.566 4.24498 175.128 4.24498Z" fill="#F1ECE8"/>
</g>
</g>
<path fill-rule="evenodd" clip-rule="evenodd" d="M248.246 224.754C248.869 224.985 249.371 225.551 249.929 225.962C249.888 226.186 249.846 226.41 249.804 226.634C248.869 226.877 247.919 227.372 247.002 227.317C243.272 227.093 240.301 228.554 237.736 231.111C237.564 231.283 237.298 231.363 237.066 231.468C236.996 231.5 236.899 231.473 236.772 231.473C235.588 230.653 236.106 229.676 236.66 228.786C238.537 225.766 244.931 223.526 248.246 224.754ZM249.458 217.875C249.769 218.01 250.118 218.181 250.307 218.44C250.543 218.76 250.812 219.236 250.73 219.557C250.652 219.859 250.14 220.241 249.81 220.25C248.965 220.271 248.117 220.094 247.268 220.017C245.059 219.817 242.821 219.316 240.647 219.511C237.591 219.786 234.84 221.182 232.768 223.505C231.061 225.42 229.6 227.556 228.024 229.589C227.538 230.215 227.466 231.294 226.163 231.207C225.411 230.191 225.737 229.078 226.228 228.125C229.326 222.109 233.788 217.717 240.694 216.438C243.761 215.869 246.659 216.659 249.458 217.875ZM285.892 224.98C288.918 225.166 290.887 226.749 291.006 229.106C290.053 229.909 289.124 229.31 288.401 228.849C285.472 226.98 282.705 227.301 279.925 229.113C279.54 229.364 278.987 229.38 278.221 229.579C278.735 226.395 281.738 224.725 285.892 224.98ZM213.229 219.479C213.31 219.507 213.401 219.514 213.475 219.554C214.363 220.029 215.691 220.342 215.316 221.666C214.948 222.96 213.829 222.331 212.914 222.153C208.52 221.301 204.491 221.768 201.512 225.647C201.04 226.262 200.747 227.024 200.243 227.603C199.91 227.985 199.346 228.16 198.777 228.491C198.073 226.592 198.925 225.3 199.691 224.108C202.299 220.051 208.648 217.928 213.229 219.479ZM293.016 218.458C295.234 220.122 297.385 221.912 298.566 224.511C298.735 224.883 298.483 225.441 298.419 225.959C297.025 226.15 296.391 225.272 295.681 224.563C294.395 223.28 293.219 221.871 291.829 220.714C286.88 216.593 281.04 217.065 276.838 221.931C275.545 223.428 274.498 225.133 273.334 226.738C272.857 227.396 272.658 228.413 271.475 228.187C270.939 225.353 274.393 220.411 278.886 217.56C283.203 214.821 288.558 215.114 293.016 218.458ZM252.126 209.181C253.218 209.579 254.386 210.111 254.274 212.005C253.383 211.886 252.58 211.792 251.782 211.67C248.738 211.205 245.708 210.477 242.648 210.312C234.608 209.876 228.66 213.603 224.379 220.252C223.261 221.988 222.352 223.861 221.226 225.591C220.71 226.385 219.9 226.987 219.224 227.675C219.031 227.577 218.838 227.478 218.645 227.38C218.701 226.667 218.57 225.87 218.842 225.254C221.954 218.214 226.205 212.155 233.557 209.033C239.735 206.409 245.964 206.937 252.126 209.181ZM291.05 206.513C293.01 206.977 294.961 207.976 296.609 209.159C300.768 212.144 303.718 216.212 305.965 220.77C306.427 221.709 306.524 222.827 306.784 223.845C305.334 224.592 304.62 223.983 304.061 223.173C303.274 222.035 302.556 220.849 301.838 219.665C300.073 216.756 297.964 214.131 295.325 211.969C292.91 209.989 290.168 208.811 286.978 208.931C285.162 209 283.322 208.948 281.54 209.237C276.871 209.992 273.545 212.895 270.94 216.581C269 219.326 267.435 222.335 265.689 225.218C265.182 226.052 264.626 226.857 264.092 227.675C263.815 227.562 263.537 227.449 263.259 227.336C263.378 226.436 263.311 225.461 263.646 224.65C266.059 218.808 269.321 213.499 274.52 209.738C279.465 206.161 285.116 205.109 291.05 206.513ZM209.186 211.467C211.437 211.862 213.589 212.873 215.759 213.68C216.301 213.881 216.834 214.297 217.192 214.759C217.462 215.108 217.665 215.805 217.495 216.13C217.317 216.469 216.607 216.786 216.22 216.698C215.049 216.434 213.909 216.005 212.78 215.577C208.123 213.809 203.392 213.382 198.58 214.801C193.656 216.254 190.036 219.242 188.131 224.19C187.849 224.921 187.538 225.644 187.182 226.341C187.08 226.541 186.775 226.635 186.441 226.859C185.08 226.045 185.445 224.994 185.707 223.982C186.906 219.351 189.899 216.15 193.885 213.931C198.658 211.276 203.86 210.532 209.186 211.467ZM296.736 197.535C304.877 202.034 310.47 208.828 313.783 217.512C314.119 218.393 314.024 219.44 314.129 220.41L313.266 220.785C312.614 220.048 311.838 219.387 311.337 218.557C310.261 216.774 309.305 214.916 308.339 213.069C305.428 207.507 301.063 203.318 295.759 200.183C288.475 195.879 281.095 196.598 274.091 200.833C266.587 205.37 261.861 212.239 258.999 220.466C258.628 221.532 258.335 222.63 257.899 223.668C257.657 224.243 257.194 224.725 256.846 225.227C255.503 224.499 255.954 223.586 256.131 222.781C257.505 216.536 260.394 211.037 264.465 206.171C268.974 200.783 274.378 196.768 281.411 195.277C286.82 194.129 291.958 194.894 296.736 197.535ZM221.319 206.667C222.155 207.106 222.981 207.62 223.678 208.249C224.124 208.652 224.326 209.329 224.63 209.869C223.318 210.823 222.384 210.187 221.486 209.74C216.334 207.178 210.939 205.466 205.211 204.81C201.209 204.351 197.244 204.485 193.428 205.785C186.843 208.028 183.127 212.799 181.895 219.615C181.726 220.555 181.572 221.5 181.353 222.428C181.137 223.343 180.993 224.542 179.736 224.399C178.396 224.248 178.643 222.994 178.736 222.105C179.215 217.532 180.507 213.245 183.454 209.615C187.087 205.14 191.885 202.686 197.497 202.08C205.862 201.177 213.837 202.748 221.319 206.667ZM170.257 188.643C171.54 189.115 172.803 189.739 173.933 190.502C174.72 191.033 175.265 191.921 175.936 192.67C174.745 193.645 174.044 192.882 173.33 192.523C165.477 188.572 157.385 188.294 149.256 191.327C140.248 194.687 135.487 201.638 133.819 210.892C133.221 214.207 132.861 217.564 132.359 220.898C132.224 221.792 132.204 222.783 130.886 223.595C130.73 222.582 130.476 221.792 130.509 221.014C130.761 215.201 131.514 209.46 133.579 203.986C137.064 194.747 144.05 189.628 153.435 187.616C159.095 186.403 164.762 186.618 170.257 188.643ZM169.021 220.19C169.258 220.29 169.366 220.701 169.679 221.204C169.064 221.996 168.494 222.799 167.836 223.52C167.708 223.659 167.154 223.59 166.94 223.426C165.986 222.699 166.542 221.871 166.967 221.169C167.41 220.437 168.028 219.767 169.021 220.19ZM172.683 201.654C173.426 202.167 174.362 202.677 173.916 204.401C172.206 203.846 170.595 203.512 169.155 202.822C164.441 200.563 159.871 201.129 155.446 203.457C148.929 206.884 144.911 212.258 143.332 219.482C143.059 220.728 143.308 222.267 141.738 223.323C141.506 222.641 141.215 222.129 141.171 221.597C140.902 218.313 141.616 215.185 143.14 212.313C146.723 205.562 152.091 200.922 159.612 199.049C164.351 197.869 168.711 198.904 172.683 201.654ZM125.065 218.378C123.9 218.901 123.123 219.38 122.279 219.595C121.219 219.863 120.108 219.978 119.011 220.046C117.43 220.143 116.285 220.761 115.612 222.284C115.421 222.717 114.851 222.981 114.454 223.323C114.09 222.819 113.492 222.352 113.407 221.804C113.196 220.442 113.86 219.331 114.857 218.425C117.131 216.36 121.855 216.16 125.065 218.378ZM170.495 211.003C171.238 211.049 171.947 211.662 172.671 212.016L172.582 212.927C171.637 213.123 170.7 213.408 169.746 213.496C167.869 213.668 165.962 213.587 164.105 213.867C160.165 214.462 157.629 216.792 156.427 220.601C156.187 221.359 155.893 222.098 155.55 223.051C153.943 222.015 154.08 220.84 154.314 219.653C155.131 215.525 159.055 211.667 163.572 210.991C165.832 210.653 168.192 210.863 170.495 211.003ZM118.95 206.641C121.134 207.127 123.248 207.97 125.352 208.761C126.079 209.035 126.682 209.647 127.242 210.372C125.381 211.042 123.619 210.926 121.853 210.576C120.408 210.291 118.977 209.923 117.525 209.684C110.144 208.47 103.498 212.54 101.055 219.729C100.813 220.439 100.514 221.129 100.189 221.963C98.5849 221.333 98.6505 220.315 98.694 219.372C98.8232 216.536 99.9195 214.036 101.888 212.09C106.632 207.398 112.264 205.151 118.95 206.641ZM126.442 198.176C127.399 198.879 128.244 199.777 128.984 200.709C129.324 201.139 129.285 201.868 129.418 202.462C129.184 202.577 128.95 202.692 128.716 202.808C127.967 202.264 127.218 201.72 126.468 201.177C122.608 198.383 118.321 196.513 113.556 196.353C102.425 195.981 93.1911 203.367 91.629 214.206C91.3837 215.907 91.0999 217.61 90.7001 219.281C90.5171 220.048 90.0094 220.738 89.6709 221.418C88.1883 221.029 88.0124 220.109 88.0813 219.126C88.6983 210.281 91.7117 202.685 99.4445 197.563C107.588 192.168 118.578 192.391 126.442 198.176ZM322.563 180.25C333.105 181.615 341.889 190.19 343.519 200.756C344.474 206.945 342.733 212.622 339.738 217.965C339.388 218.589 338.759 219.056 338.085 219.786C337.119 218.358 337.502 217.167 337.806 216.074C338.294 214.323 338.978 212.628 339.528 210.893C343.518 198.311 336.378 185.812 323.55 182.99C319.729 182.149 316.02 182.78 312.411 184.21C311.433 184.596 310.394 184.825 309.298 185.152C308.943 183.271 310.103 182.786 311.032 182.279C314.639 180.308 318.546 179.73 322.563 180.25ZM316.77 191.23C329.544 191.94 335.692 203.514 330.526 213.481C329.681 215.114 329.024 216.976 327.019 217.882C325.82 216.925 326.26 215.967 326.559 215.111C327.011 213.816 327.587 212.562 328.127 211.298C331.81 202.694 326.128 194.268 316.208 193.653C315.002 193.578 313.789 193.605 312.58 193.559C312.444 193.553 312.316 193.375 311.953 193.106C312.3 192.696 312.57 192.066 312.99 191.943C314.218 191.584 315.522 191.161 316.77 191.23ZM314.014 201.047C316.858 201.353 319.104 202.656 320.348 205.33C321.532 207.877 320.755 210.239 319.395 212.435C319.073 212.955 318.256 213.168 317.655 213.529C316.777 212.108 317.241 211.05 317.557 209.981C318.749 205.949 317.456 203.918 313.327 203.303C312.903 203.241 312.475 203.162 312.07 203.025C311.851 202.95 311.68 202.736 311.409 202.524C311.778 201.098 312.894 200.927 314.014 201.047ZM206.208 166.041C211.199 167.148 215.654 169.375 219.48 172.753C220.562 173.708 221.436 174.938 222.245 176.148C222.684 176.804 223.195 177.679 221.911 178.86C221.15 178.13 220.411 177.467 219.725 176.752C214.458 171.259 208.096 168.146 200.422 168.066C192.272 167.982 185.718 172.475 182.788 180.125C180.383 186.405 179.975 192.901 180.961 199.52C181.22 201.262 181.805 203.034 180.821 205.096C180.241 204.668 179.645 204.44 179.427 204.018C179.078 203.344 178.876 202.551 178.796 201.789C178.049 194.677 178.174 187.582 180.392 180.736C182.94 172.874 188.053 167.484 196.42 165.781C199.673 165.12 202.969 165.323 206.208 166.041ZM244.767 194.06C248.593 194.489 252.208 195.377 255.415 197.561C256.47 198.279 257.465 199.172 258.254 200.174C258.768 200.826 258.859 201.819 259.178 202.777C257.414 203.427 256.566 202.462 255.744 201.651C253.466 199.403 250.741 198.068 247.703 197.203C241.71 195.496 236.511 196.61 232.184 201.304C231.161 202.414 230.022 203.417 228.849 204.552C228.058 203.235 228.558 202.39 229.115 201.638C233.025 196.367 237.928 193.292 244.767 194.06ZM264.451 195.7C264.919 196.374 264.938 197.358 265.163 198.191C263.454 198.894 262.71 197.983 261.972 197.147C260.599 195.593 259.289 193.985 257.903 192.444C250.393 184.098 235.504 185.419 229.32 192.961C227.299 195.426 225.479 198.053 223.564 200.605C222.98 201.385 222.787 202.582 220.822 202.648C221.055 201.606 221.083 200.75 221.428 200.051C225.766 191.261 232.511 185.679 242.499 184.36C252.499 183.04 259.159 188.069 264.451 195.7ZM216.233 180.226C216.709 180.616 216.952 181.288 217.285 181.801C216.336 182.942 215.437 182.607 214.577 182.176C213.345 181.558 212.145 180.879 210.926 180.233C202.816 175.936 193.583 179.354 190.28 187.888C188.895 191.466 188.366 195.181 188.595 199.004C188.655 199.998 188.95 201.044 187.706 202.104C187.321 201.316 186.888 200.711 186.719 200.04C184.913 192.86 188.787 182.655 194.857 178.545C201.556 174.009 210.097 175.191 216.233 180.226ZM271.206 192.761C271.394 193.412 271.443 194.128 271.411 194.808C271.393 195.192 271.08 195.561 270.918 195.898C269.485 196.02 269.006 194.998 268.554 194.103C267.852 192.712 267.219 191.277 266.68 189.815C262.957 179.725 250.959 172.78 238.195 177.321C229.061 180.57 222.711 186.858 218.645 195.592C217.951 197.083 217.401 198.642 216.729 200.144C216.534 200.581 216.144 200.929 215.445 201.832C215.278 200.683 215.022 200.045 215.138 199.484C215.398 198.214 215.729 196.935 216.228 195.743C220.354 185.891 227.276 178.767 237.255 175.027C251.909 169.533 266.75 177.317 271.206 192.761ZM211.27 186.062C211.967 186.239 212.582 186.74 213.205 187.077C212.891 188.43 212.014 188.51 211.16 188.521C209.7 188.54 208.239 188.467 206.779 188.476C201.112 188.51 196.974 192.181 196.189 197.808C196.067 198.685 195.793 199.541 195.511 200.744C193.625 199.497 193.835 198.101 193.98 196.881C194.561 191.98 197.281 188.64 201.697 186.657C204.805 185.261 208.029 185.236 211.27 186.062ZM211.572 194.158C209.565 196.378 206.504 196.367 204.606 198.296C203.626 196.467 203.735 195.962 205.055 194.832C206.883 193.266 209.422 192.897 211.572 194.158ZM295.576 165.851C302.64 169.665 305.86 176.382 307.082 184.035C307.58 187.151 307.178 190.418 307.125 193.616C307.114 194.293 306.965 195.036 306.649 195.621C306.363 196.149 305.761 196.504 305.299 196.935C304.928 196.405 304.281 195.897 304.237 195.341C304.102 193.618 304.099 191.869 304.222 190.143C304.537 185.708 303.629 181.545 301.855 177.504C298.804 170.554 293.263 166.893 286.167 165.323C280.399 164.047 274.682 164.471 269.234 166.742C266.892 167.719 264.814 169.343 262.622 170.684C261.987 171.073 261.374 171.499 260.702 171.941C259.818 170.749 260.45 169.883 261.095 169.301C262.623 167.924 264.127 166.374 265.927 165.478C275.833 160.542 285.852 160.601 295.576 165.851ZM293.657 177.895C296.842 181.445 298.178 185.686 298.074 190.413C298.05 191.477 297.63 192.533 297.315 193.943C295.464 192.86 295.567 191.536 295.397 190.386C295.217 189.179 295.298 187.928 295.077 186.732C293.784 179.742 287.501 174.263 280.345 173.835C275.771 173.561 271.432 174.371 267.425 176.734C266.803 177.101 266.107 177.337 264.891 177.88C265.184 176.751 265.171 176.097 265.485 175.744C266.052 175.108 266.76 174.552 267.503 174.138C275.59 169.636 286.957 170.426 293.657 177.895ZM135.403 186.871C134.261 186.871 133.167 186.881 132.075 186.869C129.494 186.843 128.639 187.812 129.012 190.357C129.111 191.033 129.231 191.706 129.307 192.385C129.324 192.533 129.197 192.698 129.136 192.855C127.21 192.495 126.273 190.991 126.446 188.538C126.625 185.992 128.64 184.005 131.165 183.885C133.393 183.779 135.03 184.823 135.403 186.871ZM129.7 160.848C133.853 162.339 137.32 164.824 139.886 168.478C140.516 169.376 141.222 170.316 140.606 171.603C139.18 171.473 138.327 170.462 137.331 169.665C135.316 168.053 133.381 166.288 131.196 164.946C125.097 161.2 119.289 162.728 115.553 168.889C112.527 173.876 111.837 179.233 113.115 184.891C113.477 186.494 113.868 188.093 114.147 189.712C114.234 190.215 113.995 190.775 113.905 191.308C113.717 191.37 113.529 191.433 113.341 191.495C112.759 190.72 111.98 190.028 111.628 189.159C108.154 180.602 108.978 172.504 114.693 165.188C118.084 160.849 123.275 158.543 129.7 160.848ZM276.989 179.819C280.675 180.019 283.654 181.668 285.211 185.14C286.055 187.022 286.853 189.155 284.885 191.495C284.288 190.724 283.769 190.211 283.447 189.594C283.133 188.992 283.022 188.284 282.818 187.624C281.559 183.543 278.2 181.576 274.031 182.477C273.447 182.603 272.866 182.758 272.275 182.835C272.044 182.865 271.791 182.718 271.148 182.543C272.585 180.002 274.776 179.699 276.989 179.819ZM280.397 190.372C278.573 190.628 275.581 189.409 274.835 188.105C274.421 187.383 274.891 186.704 275.869 186.611C277.821 186.426 280.051 188.278 280.397 190.372ZM128.261 172.211C130.718 172.407 132.944 173.356 134.926 174.784C135.596 175.267 135.978 176.162 136.491 176.868C136.365 177.054 136.238 177.239 136.112 177.425C135.24 177.238 134.345 177.125 133.501 176.849C132.032 176.369 130.62 175.699 129.139 175.267C125.254 174.134 121.71 176.314 121.212 180.399C120.943 182.601 121.334 184.889 121.459 187.136C121.52 188.212 121.658 189.284 121.764 190.39C120.301 190.538 119.981 189.646 119.649 188.881C118.216 185.579 117.854 182.128 118.759 178.651C119.827 174.543 123.884 171.862 128.261 172.211ZM173.493 157.714C177.977 159.374 181.483 162.401 184.339 166.194C185.027 167.108 185.837 168.091 185.261 169.699C183.468 169.372 182.437 168.352 181.369 167.364C179.663 165.785 178.033 164.093 176.175 162.714C169.48 157.743 160.498 157.946 154.467 163.141C151.897 165.355 149.827 167.99 148.334 171.069C146.579 174.685 145.583 178.496 145.276 182.504C145.193 183.583 144.947 184.649 144.766 185.782C143.009 185.569 142.701 184.485 142.753 183.34C142.851 181.19 142.914 179.01 143.324 176.909C144.556 170.598 147.585 165.229 152.471 161.073C158.755 155.728 165.891 154.899 173.493 157.714ZM169.553 168.167C172.545 169.019 174.81 171.058 176.83 173.344C177.251 173.82 177.434 174.508 177.84 175.326C176.167 175.896 175.253 175.141 174.334 174.572C173.017 173.754 171.783 172.799 170.461 171.989C166.925 169.825 163.386 170.063 160.144 172.644C158.284 174.125 156.888 175.978 155.984 178.174C155.559 179.207 155.276 180.299 154.926 181.364C154.65 182.204 154.756 183.591 153.423 183.292C152.272 183.034 152.56 181.76 152.607 180.847C152.943 174.351 158.308 168.394 164.734 167.613C166.301 167.423 168.011 167.728 169.553 168.167ZM172.671 178.648C168.815 179.648 165.404 180.532 161.943 181.429C161.247 180.75 161.507 180.027 161.999 179.33C163.789 176.791 169.627 176.172 172.671 178.648ZM344.522 156.285C345.061 159.367 344.971 162.487 344.262 165.565C343.145 170.406 341.365 174.977 338.679 179.166L338.608 179.277C337.949 180.313 337.268 181.44 335.599 181.093C335.121 179.793 335.843 178.762 336.314 177.688C337.839 174.207 339.513 170.784 340.86 167.236C342.495 162.931 342.756 158.457 341.514 153.98C338.944 144.72 329.067 138.507 319.621 140.321C317.28 140.77 315.042 141.755 312.757 142.496C312.139 142.697 311.525 142.911 310.601 143.222C310.49 141.321 311.553 140.686 312.519 140.296C314.584 139.463 316.697 138.599 318.873 138.217C330.605 136.155 342.47 144.533 344.522 156.285ZM328.7 153.116C333.664 156.33 335.764 161.773 334.393 167.523C333.737 170.273 332.288 172.618 330.673 174.869C330.267 175.435 329.584 175.802 329.028 176.261C328.834 176.151 328.641 176.041 328.447 175.931C328.633 175.074 328.721 174.181 329.029 173.369C329.454 172.242 330.006 171.157 330.57 170.089C334.083 163.434 331.842 155.24 322.138 152.843C319.878 152.285 317.553 151.989 315.19 152.503C314.419 152.67 313.571 152.476 312.225 152.428C313.473 150.643 314.8 150.416 316.043 150.281C320.569 149.788 324.848 150.622 328.7 153.116ZM320.04 162.968C322.113 164.856 322.59 167.388 321.313 170.222C320.896 171.147 320.384 172.076 319.712 172.83C319.337 173.251 318.546 173.315 317.943 173.54C317.786 172.934 317.419 172.289 317.522 171.729C317.688 170.824 318.171 169.977 318.51 169.101C319.676 166.087 318.355 164.004 315.091 163.81C313.642 163.724 312.184 163.795 310.784 163.795C310.226 162.563 310.989 162.094 311.777 161.684C314.188 160.435 317.903 161.024 320.04 162.968ZM226.108 153.083C231.929 154.078 236.078 159.731 236.043 166.352C236.037 167.696 236.278 169.16 234.884 170.82C234.406 169.929 233.987 169.4 233.831 168.801C233.57 167.791 233.481 166.735 233.31 165.7C233.182 164.925 233.096 164.137 232.895 163.381C231.063 156.497 226.352 154.257 219.878 155.698C216.755 156.393 214.27 158.288 212.031 160.537C211.383 161.188 210.71 161.815 210.059 162.443C209.081 161.672 209.369 161.011 209.758 160.449C213.852 154.531 220.257 152.084 226.108 153.083ZM224.13 163.835C226.471 164.642 228.204 166.964 228.166 170.004C227.02 169.114 226.137 168.619 225.501 167.899C224.019 166.219 222.321 165.396 220.09 165.943C219.871 165.997 219.607 165.861 219.381 165.817C218.909 164.967 219.384 164.465 219.982 164.099C221.306 163.29 222.698 163.341 224.13 163.835ZM245.378 163.497C245.665 164.756 245.801 166.065 245.847 167.357C245.875 168.142 245.597 168.939 245.458 169.732C243.894 169.615 243.624 168.643 243.387 167.743C243.034 166.407 242.782 165.044 242.505 163.688C240.525 154.002 231.57 146.431 222.244 146.989C213.083 147.537 206.23 151.793 202.588 160.603C202.269 161.375 202.23 162.905 200.941 162.455C199.604 161.988 200.296 160.651 200.58 159.727C201.844 155.607 204.347 152.282 207.783 149.835C223.988 138.292 241.784 147.693 245.378 163.497ZM287.129 126.704C296.157 127.903 303.332 132.219 307.043 140.887C310.668 149.355 308.916 157.308 303.783 164.68C303.49 165.099 303.089 165.45 302.698 165.787C302.522 165.938 302.248 165.974 301.675 166.195C301.297 164.293 302.139 162.936 302.816 161.58C304.293 158.621 305.506 155.597 305.882 152.272C306.948 142.836 302.323 134.678 293.645 130.946C285.873 127.603 278.512 128.327 271.666 133.435C271.114 133.848 270.541 134.234 269.96 134.606C269.839 134.682 269.641 134.638 269.254 134.665C269.287 134.191 269.151 133.614 269.379 133.329C270.233 132.261 271.086 131.132 272.156 130.308C276.591 126.893 281.798 125.996 287.129 126.704ZM251.34 153.693C257.042 154.045 259.906 159.745 259.391 164.11C259.355 164.42 259.1 164.705 258.891 165.107C257.323 164.941 257.016 163.905 256.649 162.963C256.244 161.925 255.978 160.828 255.515 159.818C254.158 156.854 251.738 155.747 248.516 156.504C247.793 156.674 247.051 156.76 246.318 156.885C245.763 155.487 246.469 154.726 247.338 154.429C248.613 153.993 250.02 153.612 251.34 153.693ZM259.029 145.473C264.999 148.755 268.479 156.164 265.973 160.755C264.522 159.281 264.142 157.599 263.654 155.98C262.901 153.476 261.838 151.176 259.843 149.389C256.65 146.528 253.025 145.534 248.951 146.955C247.031 147.625 245.229 148.638 243.377 149.505C242.609 149.865 241.832 150.451 241.224 149.288C243.944 144.195 253.131 142.23 259.029 145.473ZM296.799 146.479C297.904 150.551 296.904 154.334 295.179 158.003C295.001 158.38 294.686 158.705 294.387 159.005C294.218 159.175 293.951 159.246 293.662 159.395C292.51 158.853 292.745 157.897 292.976 156.99C293.337 155.571 293.796 154.175 294.136 152.751C294.665 150.54 294.796 148.334 294.005 146.127C291.927 140.332 286.396 137.698 280.231 139.598C278.976 139.985 277.715 140.349 276.353 140.754C276.112 139.128 277.099 138.765 277.872 138.34C283.962 134.989 294.209 136.934 296.799 146.479ZM278.206 154.873C278.264 156.945 278.209 157.121 277.043 158.851C275.664 158.252 275.442 157.157 275.253 156.029C274.909 153.977 274.683 151.893 274.176 149.881C271.854 140.664 264.17 134.335 254.75 133.974C250.898 133.827 247.249 134.888 243.827 136.687C240.507 138.432 237.629 140.757 234.977 143.402C234.267 144.111 233.511 145.712 232.344 144.538C231.362 143.551 232.572 142.428 233.287 141.657C238.06 136.513 243.734 133.012 250.734 131.735C264.518 129.221 277.794 140.183 278.206 154.873ZM195.909 154.625C196.559 154.809 197.105 155.372 197.699 155.76C197.666 155.985 197.633 156.21 197.6 156.435C196.57 156.673 195.551 157.005 194.508 157.12C193.577 157.221 192.62 157.049 191.675 157.06L191.312 157.064C189.457 157.087 187.621 157.155 186.024 158.431C185.678 158.706 184.968 158.508 184.426 158.528C184.443 157.961 184.236 157.188 184.52 156.866C185.245 156.047 186.089 155.17 187.064 154.778C189.954 153.616 192.959 153.793 195.909 154.625ZM287.257 146.632C288.93 148.567 289.388 153.511 288.047 155.711C287.856 156.025 287.404 156.178 287.077 156.402C285.924 155.639 286.132 154.542 286.07 153.55C285.997 152.349 286.063 151.131 285.888 149.948C285.594 147.967 284.882 147.326 282.935 146.943C282.24 146.807 281.553 146.634 280.397 146.372C282.946 144.325 285.525 144.632 287.257 146.632ZM205.828 134.282C208.23 135.931 210.056 138.102 211.499 140.609C212.262 141.932 212.249 142.077 211.834 143.757C210.641 144.008 209.934 143.227 209.26 142.452C208.522 141.604 207.854 140.695 207.134 139.831C202.241 133.961 195.717 132.14 188.509 132.975C177.338 134.269 170.53 141.331 166.01 151.108C165.414 152.396 165.285 153.973 163.283 155.314C163.252 153.982 163.019 153.118 163.254 152.411C163.96 150.283 164.609 148.081 165.705 146.151C170.418 137.859 177.087 131.99 186.757 130.434C193.521 129.345 200.014 130.293 205.828 134.282ZM195.089 144.085C196.44 144.644 197.81 145.176 199.105 145.846C199.882 146.248 200.529 146.894 201.235 147.43C201.167 147.631 201.098 147.833 201.029 148.033C200.409 148.073 199.756 148.257 199.175 148.125C197.417 147.724 195.629 147.344 193.953 146.698C187.92 144.374 180.865 145.861 176.526 151.907C176.3 152.222 175.913 152.423 175.369 152.866C174.366 151.166 174.99 150.028 175.733 148.978C177.424 146.586 179.766 144.978 182.479 143.975C186.674 142.425 190.904 142.357 195.089 144.085Z" fill="#009DE9"/>
<path fill-rule="evenodd" clip-rule="evenodd" d="M296.847 228.213C297.385 228.154 297.88 228.128 298.364 228.042C307.069 226.487 315.786 225.021 324.594 224.157C326.355 223.984 328.101 223.663 329.86 223.48C318.914 223.277 307.975 223.075 296.847 222.869V228.213ZM284.025 221.412C302.852 221.771 321.452 222.126 340.054 222.481C327.377 214.879 314.701 207.277 301.939 199.625C299.996 201.976 298.103 204.267 296.139 206.644C296.791 206.923 297.239 207.126 297.694 207.31C301.906 209.013 306.119 210.713 310.331 212.415C310.697 212.562 311.102 212.663 311.41 212.892C311.412 212.894 311.414 212.895 311.417 212.897C311.808 213.198 311.68 213.817 311.228 214.017C311.168 214.044 311.107 214.07 311.045 214.092C310.92 214.138 310.754 214.072 310.607 214.054C304.724 213.325 298.84 212.608 292.961 211.854C292.453 211.789 291.926 211.775 291.926 211.775C291.926 211.775 290.811 213.32 290.357 213.904C290.357 213.904 288.021 216.638 284.899 220.264C284.558 220.661 284.474 220.713 284.025 221.412ZM295.441 222.895C291.375 222.602 287.272 222.892 282.97 222.521C282.455 222.477 282.151 221.93 282.38 221.467C282.476 221.272 282.572 221.105 282.692 220.957C285.347 217.7 288.039 214.473 290.684 211.207C291.254 210.504 291.915 210.268 292.76 210.378C293.385 210.46 294.01 210.55 294.668 210.641C294.668 209.502 294.702 208.477 294.656 207.457C294.625 206.767 294.846 206.24 295.289 205.718C297.112 203.568 298.897 201.387 300.701 199.221C301.667 198.061 301.678 198.054 303.007 198.85C310.597 203.395 318.184 207.945 325.771 212.494C330.646 215.416 335.522 218.336 340.391 221.268C340.998 221.634 341.832 221.881 341.552 222.894C341.271 223.914 340.434 223.616 339.724 223.687C336.873 223.972 334.024 224.28 331.176 224.601C327.15 225.055 323.114 225.441 319.105 226.014C312.945 226.895 306.803 227.911 300.653 228.87C299.531 229.046 298.413 229.261 297.285 229.393C296.056 229.536 295.45 228.954 295.443 227.701C295.435 226.131 295.441 224.561 295.441 222.895Z" fill="#F66993"/>
<path fill-rule="evenodd" clip-rule="evenodd" d="M296.848 222.869C307.977 223.075 318.915 223.277 329.862 223.48C328.102 223.663 326.356 223.984 324.595 224.157C315.787 225.021 307.07 226.487 298.366 228.041C297.881 228.128 297.387 228.154 296.848 228.213V222.869ZM301.94 199.625C314.702 207.277 327.378 214.878 340.055 222.48C321.453 222.126 302.853 221.771 284.026 221.411C284.475 220.713 284.559 220.661 284.901 220.264C288.022 216.637 290.358 213.904 290.358 213.904C290.794 213.344 291.835 211.902 291.921 211.782L291.927 211.774C291.927 211.774 292.454 211.789 292.962 211.854C298.841 212.608 304.725 213.325 310.608 214.053C310.755 214.072 310.922 214.138 311.046 214.092C311.108 214.069 311.169 214.044 311.23 214.017C311.681 213.817 311.809 213.198 311.418 212.897L311.411 212.892C311.104 212.663 310.699 212.562 310.332 212.414C306.12 210.712 301.907 209.013 297.696 207.309C297.24 207.125 296.792 206.923 296.14 206.643C298.104 204.267 299.997 201.976 301.94 199.625Z" fill="white"/>
<path fill-rule="evenodd" clip-rule="evenodd" d="M336.668 134.432C336.724 135.548 336.705 136.674 336.629 137.789C336.206 144.049 335.733 150.305 335.322 156.566C335.137 159.375 335.074 162.193 334.919 165.005C334.857 166.137 334.735 167.27 334.568 168.392C334.355 169.815 333.931 170.151 332.529 170.217C324.535 170.598 316.543 171.006 308.548 171.356C305.785 171.477 303.014 171.425 300.249 171.514C296.233 171.644 292.22 171.842 288.204 171.998C287.91 172.009 287.615 172.01 287.32 171.99C285.931 171.893 285.503 171.514 285.579 170.224C285.695 168.252 285.855 166.281 286.035 164.314C286.739 156.585 287.911 148.919 289.065 141.25C289.203 140.586 289.406 140.31 289.434 137.292C289.44 136.59 289.898 135.96 290.597 135.908C290.602 135.908 290.606 135.908 290.61 135.907C295.487 135.572 300.361 135.157 305.244 134.948C312.303 134.645 319.367 134.494 326.429 134.278C328.948 134.2 331.467 134.136 333.984 134.025C334.462 134.004 334.951 133.826 335.4 133.642C336.056 133.372 336.633 133.725 336.668 134.432Z" fill="white"/>
<path fill-rule="evenodd" clip-rule="evenodd" d="M291.64 137.174C298.185 143.661 305.279 149.39 312.276 155.239C319.365 148.577 326.352 142.011 333.555 135.24C319.418 135.737 305.543 135.72 291.64 137.174ZM335.538 135.453C335.104 135.751 334.931 135.839 334.795 135.966C328.292 142.042 321.789 148.12 315.294 154.205C314.756 154.71 314.305 155.31 313.75 155.794C312.484 156.9 312.399 156.889 311.141 155.862C309.57 154.579 307.983 153.316 306.449 151.991C301.512 147.723 296.596 143.43 291.671 139.147C291.388 138.901 291.106 138.653 290.72 138.315C289.135 149.147 287.339 159.795 286.79 170.765C287.455 170.765 287.937 170.781 288.418 170.763C291.924 170.63 295.43 170.486 298.936 170.354C306.888 170.053 314.84 169.767 322.792 169.453C325.903 169.33 329.013 169.15 332.123 168.994C333.231 168.938 333.275 168.912 333.427 167.829C333.557 166.9 333.677 165.966 333.739 165.03C334.184 158.224 334.621 151.418 335.042 144.611C335.225 141.661 335.363 138.708 335.538 135.453ZM289.434 137.292C289.44 136.59 289.898 135.96 290.597 135.908C290.602 135.908 290.606 135.908 290.61 135.907C295.487 135.572 300.361 135.157 305.244 134.948C312.303 134.645 319.367 134.494 326.429 134.278C328.948 134.2 331.467 134.136 333.984 134.025C334.462 134.004 334.951 133.826 335.4 133.642C336.056 133.372 336.633 133.725 336.668 134.432C336.724 135.548 336.705 136.674 336.629 137.789C336.206 144.049 335.733 150.305 335.322 156.566C335.137 159.375 335.074 162.193 334.919 165.005C334.857 166.137 334.735 167.27 334.568 168.392C334.355 169.815 333.931 170.151 332.529 170.217C324.535 170.598 316.543 171.006 308.548 171.356C305.785 171.477 303.014 171.425 300.249 171.514C296.233 171.644 292.22 171.842 288.204 171.998C287.91 172.009 287.615 172.01 287.32 171.99C285.931 171.893 285.503 171.514 285.579 170.224C285.695 168.252 285.855 166.281 286.035 164.314C286.739 156.585 287.911 148.919 289.065 141.25C289.203 140.586 289.406 140.31 289.434 137.292Z" fill="#1D242F"/>
<path fill-rule="evenodd" clip-rule="evenodd" d="M189.635 115.726C200.017 115.82 209.844 118.028 219.049 122.854C224.387 125.653 229.056 129.365 233.513 133.385C237.476 136.96 241.42 140.569 245.573 143.913C251.451 148.646 258.072 152.016 265.455 153.788C267.455 154.268 269.487 154.607 271.53 154.833C272.566 154.947 273.604 155.033 274.643 155.093C275.576 155.148 276.669 155.022 277.551 155.369C277.878 155.497 277.95 155.812 277.732 156.092C277.537 156.342 277.157 156.37 276.867 156.362C275.681 156.33 274.495 156.302 273.312 156.22C261.794 155.424 251.859 150.804 243.079 143.529C239.617 140.66 236.312 137.6 232.995 134.563C228.31 130.271 223.355 126.369 217.654 123.495C210.87 120.075 203.686 118.061 196.122 117.386C183.033 116.218 170.525 118.352 158.634 123.978C157.654 124.442 156.723 125.01 155.779 125.545C155.414 125.752 154.982 125.974 154.771 125.513C154.669 125.287 154.896 124.739 155.138 124.562C155.811 124.069 156.547 123.647 157.299 123.28C164.416 119.818 171.864 117.424 179.747 116.532C183.031 116.16 186.338 115.989 189.635 115.726Z" fill="#1D242F"/>
<path fill-rule="evenodd" clip-rule="evenodd" d="M109.221 52.4001C112.432 63.7641 115.56 74.8361 118.728 86.0477C118.882 86.591 118.611 87.1652 118.092 87.388C117.841 87.4963 117.585 87.6035 117.325 87.7036C112.119 89.7123 106.888 91.656 101.71 93.736C96.8536 95.6873 92.0593 97.7934 87.2247 99.8007C86.2701 100.197 85.2622 100.468 84.2709 100.771C83.5634 100.987 83.0114 100.781 82.6844 100.08C82.2459 99.1399 81.725 98.2313 81.3694 97.2613C78.5114 89.471 75.682 81.6699 72.8528 73.8688C72.6913 73.4232 72.3991 72.7904 72.2642 72.2733C72.5161 72.2733 72.873 72.3943 72.9916 72.4376C78.3455 74.3957 83.9325 75.4681 89.4581 76.7714C91.2842 77.202 93.1142 77.6196 94.9513 78.0004C96.2753 78.2752 96.5301 78.143 97.1961 76.9313C97.6958 76.0225 98.1583 75.0921 98.6118 74.1588C101.85 67.4915 105.081 60.8204 108.317 54.1517C108.551 53.6702 108.808 53.1996 109.221 52.4001ZM108.042 51.8457C103.978 60.254 99.9825 68.5192 95.8629 77.0423C88.0963 75.0709 80.3471 73.8288 72.8863 71.0973C79.1249 65.779 102.337 53.0318 108.042 51.8457Z" fill="white"/>
<path fill-rule="evenodd" clip-rule="evenodd" d="M95.8628 77.0424C99.9825 68.5193 103.978 60.2541 108.042 51.8458C102.337 53.0319 79.1248 65.7791 72.8862 71.0974C80.347 73.8289 88.0962 75.071 95.8628 77.0424ZM109.221 52.4002C108.808 53.1997 108.551 53.6703 108.317 54.1518C105.081 60.8205 101.85 67.4916 98.6117 74.1589C98.1582 75.0922 97.6957 76.0226 97.196 76.9314C96.5301 78.1431 96.2752 78.2753 94.9512 78.0005C93.1141 77.6197 91.2842 77.2021 89.458 76.7715C83.9324 75.4682 78.3454 74.3958 72.9915 72.4377C72.8729 72.3945 72.516 72.2734 72.2641 72.2734C72.399 72.7905 72.6912 73.4233 72.8528 73.8689C75.6819 81.67 78.5113 89.4711 81.3693 97.2614C81.7249 98.2314 82.2458 99.14 82.6843 100.08C83.0113 100.781 83.5633 100.987 84.2708 100.771C85.2621 100.468 86.27 100.197 87.2246 99.8008C92.0592 97.7935 96.8535 95.6874 101.71 93.7361C106.887 91.6561 112.119 89.7124 117.325 87.7037C117.585 87.6036 117.841 87.4964 118.092 87.3882C118.611 87.1654 118.881 86.5911 118.728 86.0478C115.56 74.8362 112.432 63.7642 109.221 52.4002ZM71.0195 72.2206C70.7918 71.515 71.0407 70.7437 71.6338 70.2982C71.67 70.271 71.7064 70.2446 71.7431 70.2184C81.621 63.2492 92.1016 57.3327 103.097 52.3235C104.443 51.7103 105.836 51.1924 107.231 50.6995C109.365 49.9457 109.825 50.1793 110.447 52.3132C111.454 55.7734 112.441 59.2405 113.412 62.7111C115.088 68.7021 116.733 74.7018 118.419 80.6899C118.834 82.1618 119.364 83.6009 119.827 85.0598C119.991 85.5759 120.143 86.1001 120.246 86.6308C120.386 87.352 120.119 87.8846 119.41 88.164C118.766 88.417 118.136 88.7051 117.485 88.9344C109.098 91.8879 100.912 95.3392 92.7678 98.8985C90.5538 99.8658 88.267 100.669 86.0004 101.512C85.3579 101.75 84.6745 101.899 83.9977 102.021C83.0108 102.199 82.2396 101.823 81.7807 100.927C81.2409 99.8729 80.6512 98.831 80.2447 97.7241C77.3517 89.8454 74.4969 81.9524 71.6381 74.0609C71.4224 73.4657 71.2268 72.8626 71.0195 72.2206Z" fill="#1D242F"/>
<path fill-rule="evenodd" clip-rule="evenodd" d="M41.6495 115.223C37.9504 115.089 34.3604 114.394 30.7682 113.717C27.4559 113.093 24.1561 112.455 20.7317 112.636C15.9614 112.888 11.4848 115.004 8.14391 118.419C4.81802 121.818 2.45812 125.799 1.40072 130.528C1.27178 131.104 1.23968 131.707 1.06639 132.267C1.05143 132.316 1.02341 132.36 0.986144 132.401C0.724992 132.694 0.21928 132.624 0.0459942 132.272C0.0215111 132.222 0.00600514 132.171 0.0041009 132.121C-0.0163017 131.584 0.0400094 131.03 0.159976 130.505C1.63794 124.02 5.09223 118.788 10.4241 114.87C14.1017 112.167 18.371 111.129 22.8912 111.437C25.5916 111.621 28.2815 112.072 30.9532 112.536C34.8479 113.213 38.7233 114.037 42.7069 113.836C50.859 113.426 57.9694 110.675 63.2676 104.23C65.3638 101.679 67.1552 98.8778 69.0779 96.1854C69.4221 95.7031 69.7183 95.1868 70.0589 94.7015C70.3491 94.288 70.5643 93.5489 71.2488 93.9907C71.8399 94.3726 71.3627 94.9055 71.1054 95.2747C68.8472 98.5165 66.6925 101.841 64.2578 104.946C60.1095 110.237 54.4362 113.102 47.9556 114.431C45.8865 114.855 43.7535 114.968 41.6495 115.223Z" fill="#1D242F"/>
<path fill-rule="evenodd" clip-rule="evenodd" d="M150.586 24.0523C147.157 20.7729 143.74 17.4807 140.283 14.2316C140.021 13.9851 139.479 13.894 139.093 13.9427C135.42 14.4051 131.752 14.9127 128.083 15.4092C126.567 15.6143 125.054 15.8548 123.533 16.006C123.499 16.0096 123.463 16.0093 123.428 16.006C122.835 15.9527 122.576 15.1627 123.026 14.7734C123.051 14.7517 123.077 14.7321 123.105 14.7152C124.032 14.1524 125.008 13.6698 125.975 13.1766C128.786 11.7441 131.602 10.3211 134.623 8.79005C131.977 6.39506 129.433 4.09284 126.892 1.79279C115.718 9.33467 105.235 17.5093 94.6178 25.7829C113.443 25.2008 132.013 24.6265 150.586 24.0523ZM93.1621 27.4068C92.3028 27.4189 91.9021 26.3327 92.5811 25.8063C92.5862 25.8023 92.5914 25.7984 92.5966 25.7944C93.9287 24.7699 95.25 23.7315 96.5764 22.6994C106.252 15.1701 116.001 7.74 126.11 0.79361C126.309 0.657049 126.51 0.523481 126.789 0.334961C127.313 0.72941 127.849 1.07517 128.319 1.49627C130.747 3.67527 133.135 5.90051 135.591 8.04767C136.307 8.67389 136.392 9.33684 136.218 10.1606C136.025 11.0705 135.893 12.1513 135.695 13.1595C137.491 13.0444 138.006 12.9163 139.096 12.6505C139.754 12.49 140.303 12.5145 140.853 13.046C144.762 16.8265 148.701 20.5759 152.627 24.3401L152.63 24.3428C152.875 24.5737 152.762 24.99 152.431 25.0566C151.896 25.1649 151.139 25.2141 150.605 25.2315C142.899 25.4834 135.192 25.7098 127.485 25.9415C121.112 26.133 114.738 26.2998 108.366 26.5212C104.466 26.6567 100.568 26.8613 96.6706 27.0645C95.6363 27.1184 94.6091 27.2971 93.5759 27.3868C93.438 27.3988 93.2998 27.4045 93.1621 27.4068Z" fill="#F66993"/>
<path fill-rule="evenodd" clip-rule="evenodd" d="M150.585 24.0524C147.156 20.7731 143.739 17.4809 140.282 14.2317C140.02 13.9853 139.478 13.8941 139.093 13.9428C135.419 14.4053 131.751 14.9129 128.082 15.4094C126.566 15.6145 125.054 15.855 123.533 16.0062C123.498 16.0097 123.463 16.0095 123.427 16.0062C122.834 15.9529 122.575 15.1629 123.025 14.7736C123.05 14.7519 123.077 14.7323 123.105 14.7154C124.031 14.1526 125.007 13.67 125.975 13.1768C128.786 11.7442 131.602 10.3212 134.622 8.79023C131.976 6.39524 129.432 4.09302 126.891 1.79297C115.718 9.33484 105.235 17.5095 94.6172 25.7831C113.442 25.201 132.013 24.6267 150.585 24.0524Z" fill="white"/>
<path fill-rule="evenodd" clip-rule="evenodd" d="M61.4891 194.78C61.5812 194.162 61.7258 193.551 61.8129 192.932C62.3221 189.312 62.8862 185.698 63.2988 182.066C63.4567 180.676 64.072 179.858 65.2581 179.201C68.4973 177.406 71.7219 175.578 74.8845 173.652C79.2688 170.983 83.616 168.25 87.9281 165.464C89.5898 164.391 91.051 163.031 92.1907 161.384C94.8825 157.495 94.5308 152.686 88.7491 150.628C86.6227 149.871 84.4073 149.719 82.1705 149.823C77.4025 150.045 72.9557 151.525 68.6152 153.365C62.7244 155.862 57.2757 159.17 51.9623 162.695C47.9714 165.342 44.0518 168.098 40.1215 170.835C37.5127 172.652 35.9893 175.154 35.5313 178.316C34.9516 182.317 36.8404 185.594 40.6553 186.956C41.6165 187.299 42.671 187.477 43.693 187.531C45.5326 187.629 47.3387 187.308 49.0814 186.693C50.4791 186.2 51.8796 185.711 53.2596 185.171C53.9363 184.906 54.3789 184.988 54.7887 185.58C55.1595 186.115 55.6845 186.93 56.0675 187.457C57.8516 189.915 59.6784 192.341 61.4891 194.78ZM53.7656 186.295C52.3538 186.808 51.063 187.295 49.759 187.745C47.2505 188.609 44.6851 189.038 42.0341 188.599C37.7798 187.896 34.6374 184.859 34.3115 180.768C34.0077 176.956 34.9734 173.413 38.1631 170.992C46.7064 164.508 55.5004 158.39 65.1503 153.62C69.2393 151.599 73.4914 150.005 77.9827 149.123C81.2607 148.48 84.5505 148.323 87.8351 149.089C89.6436 149.51 91.3018 150.252 92.6832 151.526C94.4354 153.141 95.209 155.125 94.9561 157.516C94.723 159.722 93.832 161.659 92.2816 163.173C90.665 164.751 88.9368 166.26 87.0776 167.537C80.3556 172.155 73.1971 176.061 66.1146 180.084C65.1175 180.651 64.6035 181.272 64.4625 182.428C63.9727 186.448 63.3888 190.457 62.8171 194.467C62.7171 195.168 62.8529 196.115 61.9584 196.339C61.1555 196.541 60.7882 195.717 60.3879 195.189C58.4451 192.635 56.5352 190.054 54.6161 187.481C54.3529 187.128 54.1025 186.766 53.7656 186.295Z" fill="#A873FA"/>
<path fill-rule="evenodd" clip-rule="evenodd" d="M61.4906 194.78C61.5827 194.162 61.7273 193.551 61.8144 192.933C62.3236 189.312 62.8877 185.698 63.3003 182.066C63.4582 180.676 64.0735 179.858 65.2596 179.201C68.4988 177.406 71.7234 175.578 74.886 173.652C79.2703 170.983 83.6175 168.25 87.9297 165.464C89.5913 164.391 91.0525 163.031 92.1922 161.384C94.884 157.495 94.5323 152.686 88.7506 150.628C86.6242 149.871 84.4088 149.719 82.172 149.823C77.404 150.046 72.9572 151.525 68.6167 153.365C62.7259 155.862 57.2772 159.17 51.9638 162.695C47.9729 165.342 44.0533 168.098 40.123 170.835C37.5142 172.652 35.9908 175.155 35.5328 178.316C34.9531 182.317 36.8419 185.594 40.6568 186.956C41.618 187.299 42.6725 187.477 43.6945 187.531C45.5341 187.63 47.3402 187.308 49.0829 186.693C50.4806 186.2 51.8811 185.711 53.2611 185.171C53.9378 184.907 54.3804 184.988 54.7902 185.58C55.161 186.115 55.686 186.93 56.069 187.457C57.8531 189.915 59.6799 192.342 61.4906 194.78Z" fill="white"/>
<path fill-rule="evenodd" clip-rule="evenodd" d="M101.816 159.278C101.819 159.279 101.821 159.281 101.823 159.282C103.461 160.632 105.084 161.999 106.699 163.376C106.877 163.527 107.026 163.758 107.091 163.98C107.136 164.135 107.066 164.39 106.952 164.504C106.842 164.613 106.61 164.616 106.429 164.627C106.345 164.633 106.242 164.562 106.169 164.501C104.431 163.04 102.695 161.577 100.962 160.11C100.851 160.016 100.688 159.876 100.697 159.771C100.698 159.768 100.698 159.766 100.698 159.763C100.749 159.232 101.401 158.943 101.816 159.278ZM103.409 152.836C104.78 152.845 106.152 152.865 107.524 152.878C107.769 152.88 108.016 152.849 108.258 152.873C108.646 152.911 109.142 152.938 109.067 153.471C109.041 153.66 108.807 153.819 108.622 153.958C108.519 154.036 108.391 154.078 108.261 154.078C107.13 154.079 106.117 154.082 105.104 154.077C104.124 154.071 103.142 154.083 102.165 154.024C102.115 154.021 102.065 154.005 102.016 153.98C101.683 153.813 101.624 153.36 101.864 153.074C101.934 152.991 102.009 152.925 102.096 152.899C102.504 152.777 102.969 152.833 103.409 152.836ZM104.753 143.192C104.951 143.138 105.283 143.177 105.393 143.31C105.509 143.451 105.483 143.765 105.422 143.976C105.373 144.148 105.192 144.29 105.05 144.426C103.623 145.792 102.194 147.156 100.76 148.515C100.655 148.615 100.54 148.702 100.44 148.775C100.273 148.896 100.056 148.951 99.8608 148.883C99.5694 148.781 99.4201 148.486 99.5505 148.189C99.6645 147.93 99.8738 147.698 100.082 147.497C101.434 146.195 102.794 144.902 104.158 143.613C104.336 143.446 104.532 143.252 104.753 143.192Z" fill="#A873FA"/>
<path fill-rule="evenodd" clip-rule="evenodd" d="M329.598 71.1619C328.662 72.7979 327.742 74.4309 326.795 76.0479C326.471 76.5998 326.132 77.1591 325.707 77.6311C325.08 78.3275 324.443 78.2826 323.828 77.5579C323.574 77.2595 323.361 76.9156 323.186 76.5644C322.305 74.7976 321.384 73.0471 320.601 71.2375C320.234 70.389 319.763 69.9238 318.864 69.6632C311.77 67.6077 305.025 64.701 298.544 61.176C296.065 59.8278 293.684 58.3112 291.604 56.3926C290.52 55.3929 289.456 54.3246 288.604 53.1298C285.678 49.0264 286.613 44.413 290.905 41.7838C294.845 39.3695 299.184 38.6296 303.728 39.2025C312.403 40.2958 320.478 43.2933 328.264 47.1445C330.21 48.107 332.081 49.2182 333.996 50.2454C335.841 51.2359 337.379 52.6211 338.959 53.9709C342.726 57.1915 342.86 64.488 338.428 68.0356C336.144 69.8637 333.487 70.6586 330.656 71.0335C330.316 71.0786 329.975 71.1164 329.598 71.1619Z" fill="white"/>
<path fill-rule="evenodd" clip-rule="evenodd" d="M324.786 76.8036C325.108 76.3732 325.367 76.0898 325.555 75.7649C326.419 74.2671 327.309 72.781 328.099 71.244C328.574 70.3177 329.146 69.8683 330.258 69.8039C332.914 69.6496 335.379 68.8384 337.537 67.1934C341.499 64.1744 341.45 57.5572 338.115 54.882C336.539 53.6178 334.986 52.2838 333.259 51.2582C325.522 46.6652 317.292 43.2367 308.504 41.2291C305.025 40.4342 301.513 39.876 297.928 40.4993C295.317 40.9533 292.844 41.7683 290.709 43.3921C288.292 45.2302 287.495 47.8406 288.659 50.6331C289.142 51.7922 289.913 52.8782 290.739 53.8379C292.527 55.9165 294.708 57.5819 297.097 58.8904C300.516 60.7633 303.96 62.623 307.529 64.1779C311.279 65.812 315.171 67.1279 319.037 68.482C320.345 68.9404 321.24 69.596 321.759 70.9276C322.35 72.4412 323.144 73.877 323.876 75.3338C324.113 75.806 324.432 76.2369 324.786 76.8036ZM329.598 71.1619C328.662 72.7979 327.742 74.4309 326.795 76.0479C326.471 76.5998 326.132 77.1591 325.707 77.6311C325.08 78.3275 324.443 78.2826 323.828 77.5579C323.574 77.2595 323.361 76.9156 323.186 76.5644C322.305 74.7976 321.384 73.0471 320.601 71.2375C320.234 70.389 319.763 69.9238 318.864 69.6632C311.77 67.6077 305.025 64.701 298.544 61.176C296.065 59.8278 293.684 58.3112 291.604 56.3926C290.52 55.3929 289.456 54.3246 288.604 53.1298C285.678 49.0264 286.613 44.413 290.905 41.7838C294.845 39.3695 299.184 38.6296 303.728 39.2025C312.403 40.2958 320.478 43.2933 328.264 47.1445C330.21 48.107 332.081 49.2182 333.996 50.2454C335.841 51.2359 337.379 52.6211 338.959 53.9709C342.726 57.1915 342.86 64.488 338.428 68.0356C336.144 69.8637 333.487 70.6586 330.656 71.0335C330.316 71.0786 329.975 71.1164 329.598 71.1619Z" fill="#A873FA"/>
<path fill-rule="evenodd" clip-rule="evenodd" d="M275.576 32.6085C275.732 32.6993 275.878 32.7883 276.008 32.896C278.554 34.9942 281.096 37.0965 283.629 39.2102C283.966 39.4915 284.285 39.8149 284.532 40.1743C284.635 40.3245 284.608 40.7521 284.497 40.8198C284.296 40.942 283.986 40.9205 283.728 40.8944C283.606 40.8821 283.5 40.7197 283.386 40.6253L279.582 37.4615C278.314 36.4065 277.047 35.3504 275.782 34.2913C275.409 33.9782 275.062 33.6245 274.751 33.2491C274.658 33.1362 274.666 32.849 274.745 32.7099C274.768 32.67 274.803 32.637 274.846 32.6079C275.062 32.4605 275.35 32.4763 275.576 32.6085ZM282.883 26.4975L282.926 26.5634C284.22 28.5459 285.504 30.5348 286.784 32.5266C287.37 33.4396 287.964 34.3498 288.496 35.2938C288.633 35.5367 288.686 36.0217 288.541 36.1893C288.208 36.5729 287.823 36.3351 287.557 35.9926C287.316 35.6817 287.099 35.3506 286.887 35.0185C285.241 32.4412 283.596 29.8631 281.96 27.2802C281.925 27.226 281.892 27.1714 281.86 27.1156C281.477 26.4502 282.461 25.8555 282.883 26.4975ZM291.803 22.6807C291.953 22.8515 291.99 23.1306 292.051 23.3681C292.821 26.3229 293.597 29.2764 294.336 32.2394C294.403 32.5104 294.322 32.9891 294.135 33.1189C293.707 33.4154 293.407 33.0639 293.248 32.6714C293.046 32.17 292.847 31.6613 292.716 31.1382C292.081 28.6053 291.47 26.0661 290.849 23.5297C290.827 23.4394 290.803 23.3493 290.775 23.2473C290.693 22.9514 290.749 22.6227 290.958 22.3967C291.007 22.3425 291.061 22.3036 291.12 22.2933C291.325 22.2574 291.632 22.4864 291.803 22.6807Z" fill="#A873FA"/>
<path fill-rule="evenodd" clip-rule="evenodd" d="M147.378 241.823L151.855 249.718C154.482 252.793 157.835 254.33 161.915 254.33C168.035 254.33 174.114 254.524 175.507 252.393C176.901 250.262 172.388 247.403 171.059 247.403C169.729 247.403 163.923 244.235 163.419 243.438C163.083 242.906 162.491 240.825 161.643 237.196L166.901 228.757C176.701 229.6 182.395 228.709 183.984 226.082C185.573 223.455 187.648 211.441 190.208 190.04L191.76 186.139L200.835 223.547L205.007 225.539L204.06 232.913L203.244 250.627C204.513 253.106 208.32 254.164 214.664 253.801C224.181 253.257 236.596 253.801 240.282 247.742C242.69 244.341 234.331 241.188 215.208 238.284L215.824 227.668C225.745 227.678 232.187 225.323 235.148 220.604C235.148 220.343 233.152 212.644 229.161 197.504L217.071 156.565L211.706 141.99L213.896 134.454C215.796 124.227 216.541 117.954 216.13 115.636C215.514 112.159 215.433 103.251 214.664 101.703C214.152 100.671 204.009 100.387 184.234 100.851C180.565 107.932 178.606 112.861 178.358 115.636C177.986 119.798 177.986 130.528 178.358 133.466C177.646 135.837 174.252 149.442 168.176 174.281C157.998 203.85 152.395 219.197 151.369 220.32C150.342 221.444 151.717 222.52 155.493 223.547L150.253 233.657L147.701 238.284L147.378 241.823Z" fill="white"/>
<path fill-rule="evenodd" clip-rule="evenodd" d="M239.063 248.18C237.978 249.659 236.455 250.544 234.745 250.943C232.511 251.465 230.228 251.77 228.017 252.159C227.383 250.811 227.55 249.996 228.328 249.242C228.701 248.88 229.267 248.801 229.739 248.601C233.04 247.196 236.255 246.624 239.822 245.902C240.03 246.933 239.516 247.562 239.063 248.18ZM226.54 252.565C226.356 252.644 225.823 252.733 225.435 252.785C222.107 253.231 218.764 253.335 215.344 253.179C214.979 252.136 214.668 251.247 214.298 250.192C218.446 249.845 222.496 249.505 226.54 249.166C226.54 249.166 225.441 249.699 226.54 252.565ZM212.906 248.459C210.981 245.753 208.184 244.627 205.064 244.045C204.857 244.007 204.896 244.004 204.505 243.896C204.647 242.481 204.538 241.113 204.686 239.645C205.144 239.919 205.505 240.105 205.834 240.336C208.043 241.89 210.461 242.654 213.192 242.387C213.742 242.333 214.422 242.339 214.859 242.609C217.73 244.382 220.928 244.769 224.189 244.944C224.507 244.962 224.828 244.953 225.147 244.948C228.414 244.895 228.662 244.771 230.845 242.047C233.44 242.675 236.135 243.164 238.781 244.725C236.79 245.22 235.069 245.651 233.346 246.076C231.028 246.649 228.737 247.413 226.384 247.741C222.756 248.248 219.086 248.456 215.434 248.788C214.958 248.832 214.473 248.93 214.006 248.881C213.621 248.84 213.097 248.729 212.906 248.459ZM207.05 252.794C204.737 252.271 203.79 250.878 203.986 248.498C204.072 247.446 204.191 246.397 204.294 245.358C209.036 245.328 212.977 248.842 214.026 253.194C211.603 253.291 209.304 253.303 207.05 252.794ZM214.026 237.881C213.973 238.747 213.919 239.637 213.852 240.733C212.357 240.048 211.676 239.183 211.887 238.437C212.081 237.755 212.658 237.584 214.026 237.881ZM204.51 234.973C204.578 232.601 204.82 230.221 204.957 227.676C208.022 229.226 210.903 230.846 214.57 230.822C214.365 232.698 214.177 234.418 213.991 236.117C210.509 236.246 208.51 238.03 212.113 241.005C210.948 240.642 209.271 240.566 208.36 240.199C207.728 239.944 207.171 239.506 206.574 239.162C204.949 238.227 204.444 237.297 204.51 234.973ZM215.486 238.829C216.752 239.212 218.033 239.6 219.467 240.033C218.983 240.989 218.56 241.824 218.148 242.638C215.11 241.677 214.645 240.703 215.486 238.829ZM224.363 240.757C223.822 241.711 223.368 242.51 222.833 243.454C221.769 243.281 220.708 243.109 219.467 242.908C220.005 241.889 220.43 241.084 220.903 240.189C222.039 240.376 223.104 240.55 224.363 240.757ZM225.566 241.005C226.891 241.242 228.033 241.446 229.26 241.665C228.202 244.1 226.194 243.762 224.091 243.635C224.647 242.644 225.073 241.885 225.566 241.005ZM200.235 236.11C201.627 236.199 202.784 237.027 203.145 238.275C201.353 238.359 200.222 237.911 199.669 236.882C199.469 236.509 199.788 236.082 200.235 236.11ZM188.136 200.76C186.857 208.942 185.314 217.073 183.544 225.164C183.372 225.949 182.974 226.347 182.364 226.713C179.622 228.361 176.597 228.73 173.479 228.763C169.026 228.809 164.891 227.527 160.882 225.765C158.358 224.654 155.885 223.424 153.404 222.218C152.845 221.946 152.346 221.552 151.73 221.157C151.957 220.525 152.141 219.982 152.346 219.448C155.684 210.782 159.088 202.141 162.348 193.446C166.883 181.348 170.154 168.884 172.96 156.284C174.344 150.071 175.947 143.907 177.457 137.722C177.569 137.261 177.772 136.431 177.988 135.728C178.186 136.293 178.306 136.798 178.37 137.056C180.159 144.264 181.883 151.49 183.749 158.678C184.453 161.388 184.462 164.141 184.727 166.879C185.359 173.43 185.88 179.993 186.547 186.541C186.998 190.974 187.624 195.39 188.161 199.814C188.199 200.125 188.185 200.451 188.136 200.76ZM162.803 233.709C162.572 232.95 161.842 232.547 161.303 232.491C160.668 232.424 159.934 232.627 159.351 232.921C158.808 233.194 158.406 233.741 157.901 234.204C155.774 233.248 153.965 230.575 153.09 229.176C153.09 229.176 153.696 227.972 154 227.132C158.472 228.995 158.472 228.995 165.332 229.682C164.497 230.975 163.589 232.492 162.803 233.709ZM162.34 242.732C161.574 243.13 160.859 243.502 159.906 243.998C159.692 243.471 159.332 242.923 159.075 241.696C160.051 241.539 160.846 241.411 161.68 241.277C161.912 241.79 162.099 242.203 162.34 242.732ZM166.42 246.504C164.245 247.046 162.616 246.559 160.979 245.053C161.798 244.631 162.466 244.287 163.029 243.998C164.158 244.832 165.165 245.577 166.42 246.504ZM159.075 234.994C159.563 234.128 160.072 233.608 161.047 233.665C162.383 234.396 161.628 235.147 161.094 236.109C160.411 235.732 159.792 235.39 159.075 234.994ZM161.523 239.953C160.704 240.105 158.788 240.461 158.788 240.461C158.044 238.052 158.23 237.054 158.474 236.644C158.584 236.46 158.801 236.359 159.014 236.385C160.989 236.618 161.121 238.29 161.523 239.953ZM172.677 249.109C172.29 249.109 171.902 249.085 171.517 249.112C169.146 249.283 166.772 249.431 164.405 249.653C160.799 249.992 155.924 248.889 153.56 244.579C153.045 243.64 152.663 242.521 152.606 241.464C152.471 238.935 151.818 236.591 150.642 234.255C151.212 233.228 151.815 232.144 152.483 230.94C153.298 231.938 153.926 232.845 154.695 233.609C155.475 234.384 156.606 235.255 157.567 236.033C157.221 236.424 157.227 237.713 157.384 238.686C157.666 240.443 157.903 242.258 158.545 243.898C159.835 247.193 163.189 248.892 166.558 247.859C167.128 247.683 167.762 247.452 167.762 247.452C168.288 247.631 171.193 248.349 172.677 249.109ZM174.799 250.355C175.046 252.302 174.446 253.045 172.942 253.324C169.3 254.001 165.636 253.795 161.795 253.611C162.305 251.941 163.172 251.101 164.669 250.865C168.156 250.316 171.035 250.114 174.799 250.355ZM155.042 252.168C153.699 251.322 152.4 249.738 151.186 247.83C151.476 247.031 151.779 246.19 152.179 245.086C154.342 248.753 157.513 250.453 161.523 251.029C161.034 251.897 160.63 252.856 160.256 253.519C158.902 253.407 156.959 253.375 155.042 252.168ZM150.407 246.174C147.482 242.153 146.961 239.254 149.801 235.565C151.374 239.121 151.651 242.574 150.407 246.174ZM149.606 227.822C149.54 227.703 149.546 227.549 149.574 227.383C149.629 227.06 149.938 226.83 150.283 226.863C150.444 226.878 150.59 226.91 150.689 226.993C151.29 227.494 151.953 228.033 151.657 229.036C150.754 228.877 150.013 228.549 149.606 227.822ZM234.932 241.75C231.854 240.975 228.719 240.427 225.612 239.768C222.609 239.132 219.611 238.473 216.61 237.827C216.199 237.739 215.667 237.643 215.464 237.394C215.464 237.394 215.367 236.668 215.412 236.225C215.677 233.597 215.994 230.974 216.304 228.229C217.136 228.229 217.815 228.247 218.493 228.226C221.788 228.124 225.055 227.824 228.195 226.72C230.52 225.902 232.638 224.78 234.352 222.919C235.602 221.561 235.898 220.074 235.469 218.358C234.916 216.145 234.409 213.919 233.793 211.723C230.982 201.707 228.194 191.683 225.29 181.693C223.024 173.897 220.695 166.116 218.208 158.388C216.795 153.996 215.054 149.707 213.364 145.41C212.765 143.885 212.655 142.528 213.018 140.864C214.138 135.734 214.978 130.542 215.874 125.364C216.536 121.533 216.849 117.67 216.508 113.781C216.267 111.03 215.983 108.282 215.718 105.532C215.567 103.956 215.416 102.38 215.249 100.636H215.232C214.735 100.636 214.31 100.961 214.143 101.43C214.12 101.494 214.095 101.559 214.067 101.625C214.055 101.653 214.041 101.68 214.028 101.708C214.033 101.707 214.036 101.706 214.04 101.705C214.243 103.549 214.445 105.166 214.593 106.787C214.884 109.96 215.288 113.132 215.37 116.312C215.431 118.686 215.177 121.088 214.855 123.448C214.309 127.445 213.601 131.421 212.954 135.404C212.912 135.659 212.831 136.546 212.699 136.979C212.401 136.608 211.757 135.543 211.585 135.269C209.872 132.524 208.537 129.971 206.866 127.202C206.516 126.622 206.352 125.927 206.121 125.278C205.557 123.686 205.005 122.09 204.406 120.377C205.36 120.182 206.224 120.014 207.084 119.829C207.601 119.718 208.138 119.638 208.617 119.431C208.667 119.409 208.711 119.374 208.751 119.33C209.006 119.051 208.907 118.593 208.578 118.406C208.5 118.361 208.422 118.319 208.342 118.28C208.261 118.24 208.133 118.284 208.03 118.302C206.674 118.535 205.321 118.782 203.963 119.002C203.229 119.121 202.998 119.618 203.033 120.254C203.052 120.613 203.219 120.969 203.346 121.317C207.782 133.539 212.408 145.696 216.601 158.001C219.817 167.44 222.558 177.044 225.379 186.614C227.87 195.064 230.205 203.561 232.554 212.052C233.205 214.403 233.635 216.814 234.22 219.184C234.474 220.213 234.242 221.036 233.582 221.837C232.107 223.625 230.151 224.645 228.04 225.423C225.479 226.367 222.805 226.8 220.097 226.875C215.851 226.995 211.604 226.853 207.476 225.724C205.748 225.252 204.091 224.517 202.411 223.875C201.555 223.548 201.12 222.916 200.934 221.98C198.557 210.053 195.527 198.282 192.457 186.521C188.556 171.577 184.623 156.642 180.75 141.692C180.085 139.126 179.498 136.522 179.138 133.899C178.38 128.384 177.768 122.849 178.628 117.273C179.124 114.055 179.927 110.931 181.279 107.962C181.736 106.956 183.9 102.371 184.341 101.43C184.342 101.43 184.344 101.43 184.345 101.43C184.285 101.265 184.21 101.104 184.125 100.945C183.964 100.643 183.532 100.637 183.353 100.929L183.349 100.936C180.905 104.893 177.975 112.842 177.337 117.406C176.782 121.378 176.854 125.354 177.276 129.329C177.462 131.084 177.432 132.784 176.985 134.529C175.152 141.675 173.259 148.813 171.682 156.018C168.531 170.413 164.471 184.526 159.188 198.28C156.409 205.515 153.575 212.728 150.771 219.954C150.158 221.534 150.157 221.556 151.583 222.526C152.31 223.022 153.089 223.441 153.877 223.914C153.389 225 152.804 226.366 152.334 227.413C152.01 226.381 151.576 226.13 151.114 225.806C150.454 225.344 149.731 225.299 149.019 225.731C148.354 226.135 147.906 227.016 148.2 227.798C148.448 228.454 148.925 229.063 149.423 229.572C149.81 229.968 150.386 230.178 150.981 230.532C150.62 231.282 150.315 232.008 149.933 232.691C149.234 233.942 148.499 235.173 147.762 236.402C146.17 239.056 146.201 241.726 147.622 244.435C149.139 247.326 151.099 249.892 153.309 252.275C154.28 253.322 155.467 253.95 156.889 254.176C161.838 254.965 166.808 255.042 171.791 254.646C172.575 254.583 173.368 254.405 174.117 254.158C175.528 253.692 176.158 252.535 176.447 251.172C176.718 249.893 175.785 249.225 174.953 248.592C174.328 248.117 173.611 247.733 172.884 247.432C171.908 247.028 170.871 246.773 169.88 246.4C164.42 244.348 163.897 243.91 162.291 238.421C162.261 238.319 162.189 238.217 162.196 238.119C162.227 237.712 162.183 237.263 162.341 236.907C163.572 234.13 165.499 231.794 166.907 229.479C169.624 229.642 172.05 229.889 174.476 229.906C177.314 229.927 180.048 229.353 182.586 227.969C183.855 227.276 184.563 226.449 184.895 224.889C186.92 215.38 188.559 205.805 190.115 196.213C190.521 193.706 191.03 190.304 191.459 187.8C191.774 188.524 191.943 189.545 192.055 189.989C193.429 195.445 194.85 200.891 196.148 206.366C197.459 211.892 198.661 217.445 199.871 222.994C200.032 223.733 200.301 224.241 201.013 224.56C201.97 224.991 202.885 225.515 203.911 226.047C203.721 229.3 203.533 232.549 203.335 235.962C202.598 235.554 202.119 235.213 201.588 235.015C201.052 234.816 200.466 234.667 199.9 234.657C198.378 234.631 197.683 235.658 198.247 237.074C198.764 238.371 199.826 239.054 201.099 239.437C201.742 239.631 202.409 239.749 203.075 239.904C203.075 240.673 203.101 241.359 203.07 242.043C202.961 244.483 202.832 246.923 202.712 249.362C202.615 251.361 203.57 252.779 205.34 253.496C206.544 253.983 207.884 254.333 209.174 254.37C213.307 254.49 217.448 254.608 221.581 254.445C225.774 254.279 227.442 254.012 230.571 253.499C232.562 253.172 234.96 252.361 236.817 251.522C238.535 250.745 239.96 249.628 240.851 247.932C241.709 246.296 241.06 244.309 239.396 243.512C237.953 242.82 236.471 242.137 234.932 241.75Z" fill="#1D242F"/>
<path fill-rule="evenodd" clip-rule="evenodd" d="M197.497 20.2474C201.211 19.3759 205.102 19.3759 209.171 20.2474C212.711 25.0649 213.334 30.6247 211.042 36.9268C209.412 41.4073 205.078 43.3641 198.041 42.7973L197.827 42.7794L198.338 47.8846C198.923 48.6331 199.28 49.6268 199.28 50.7172C199.28 53.0459 197.654 54.9337 195.647 54.9337C193.641 54.9337 192.015 53.0459 192.015 50.7172C192.015 50.4734 192.033 50.2345 192.067 50.002L191.573 49.9667L191.51 49.195C190.831 40.9937 190.185 36.5287 189.572 35.8C184.691 35.8265 182.675 33.1621 183.06 31.3636C183.445 29.565 185.14 30.01 187.031 28.5542L187.428 28.0533C191.599 22.7797 192.093 21.5156 197.497 20.2474Z" fill="white"/>
<path fill-rule="evenodd" clip-rule="evenodd" d="M184.662 0.541284C188.037 0.740384 190.832 2.91959 191.413 6.04555C191.8 8.12943 191.375 10.0809 190.254 11.9072C189.993 12.3307 189.71 12.7414 189.352 13.2872C189.819 13.2872 190.159 13.3273 190.486 13.2812C194.861 12.6643 199.049 13.293 203.06 14.9718C205.011 15.7879 206.672 16.9373 208.034 18.4167C208.671 18.887 209.788 19.9662 210.186 20.4629C212.168 22.9368 213.335 25.7093 213.453 28.8298C213.53 30.8616 213.483 32.8752 212.939 34.8687C211.701 39.4121 208.101 41.546 203.647 42.6802C202.164 43.0577 200.533 42.9275 198.845 43.0378C198.873 43.3559 198.895 43.7852 198.953 44.2095C199.195 45.9668 199.449 47.7228 199.698 49.4793C199.708 49.5574 199.716 49.6359 199.719 49.7146C199.739 50.1547 199.742 50.6545 199.123 50.6454C198.887 50.6417 198.513 50.1501 198.454 49.8396C198.213 48.575 197.978 46.8155 197.847 45.5365C197.613 44.5149 197.728 44.4027 197.367 44.0366L197.334 44.0036C197.195 43.8672 196.816 43.4507 196.71 43.2906C195.949 42.1412 195.724 42.0156 195.139 40.8213C195.125 40.7622 195.121 40.7009 195.123 40.6382C195.141 40.1891 195.581 39.8688 196.054 39.9543C196.199 39.9805 196.327 40.0235 196.419 40.1033C198.891 42.2591 201.737 42.1425 204.605 41.1726C208.734 39.7762 211.526 37.2478 212.025 32.9297C212.414 29.572 212.289 26.2875 210.494 23.2623C210.178 22.7288 209.845 22.2391 209.456 21.7581C209.252 21.9177 208.974 22.1028 208.614 22.3429C204.808 24.8843 200.603 26.6117 196.046 27.5301C193.773 27.9882 191.442 28.2034 189.133 28.4987C188.898 28.5288 188.653 28.5421 188.41 28.5338C188.344 28.5801 188.275 28.6165 188.21 28.6359C187.514 28.8426 186.915 28.8952 186.253 29.1616C185.688 29.3887 185.16 29.7869 184.737 30.2137C183.399 31.5638 183.711 33.1329 185.553 33.7629C186.723 34.1633 188.024 34.2663 189.278 34.4114C190.731 34.5795 190.982 34.6952 191.122 35.9606C191.575 40.0464 191.995 44.1352 192.411 48.2242C192.466 48.7632 192.467 49.3153 192.404 49.8522C192.383 50.0295 192.091 50.2948 191.905 50.3084C191.706 50.3228 191.372 50.1294 191.299 49.9535C191.171 49.643 191.191 49.2775 191.155 48.9346L190.829 45.7564C190.73 45.955 190.624 46.149 190.507 46.3364C189.682 47.6607 188.888 49.0239 187.875 50.219C183.443 55.4468 179.73 56.5541 173.382 59.652C171.145 60.7436 167.088 61.9025 164.518 61.7143C163.627 61.6492 162.702 61.5569 161.874 61.2734C158.016 59.9532 154.593 56.3329 153.095 52.8205C151.718 49.5924 153.016 45.7817 156.06 43.4865C158.214 41.8629 160.747 41.0076 163.402 40.4223C165.259 40.013 167.143 39.6984 168.975 39.2127C174.131 37.8466 176.867 34.7786 177.465 29.781C177.677 28.0114 177.793 26.2315 178.032 24.4654C178.378 21.9152 179.322 19.5848 181.105 17.5941L181.2 17.4898L181.219 17.4648C177.461 17.3191 173.615 13.4248 174.598 8.2351C175.505 3.44553 180.329 0.285804 184.662 0.541284ZM187.637 27.3965L187.612 27.4007C186.207 27.6496 184.906 28.0996 184.175 28.97C184.387 28.8068 184.615 28.6539 184.856 28.5114C185.601 28.0707 186.471 27.7973 187.311 27.5205C187.37 27.5013 187.431 27.4863 187.495 27.4751C187.541 27.4452 187.59 27.4183 187.637 27.3965ZM191.377 27.0562L191.362 27.0555C190.47 27.103 189.403 27.1512 188.349 27.2884L187.821 27.34C189.002 27.2113 190.195 27.178 191.377 27.0562ZM197.121 26.0375L197.049 26.0545C196.401 26.208 195.79 26.3449 195.238 26.4638C195.871 26.3364 196.499 26.1945 197.121 26.0375Z" fill="#1D242F"/>
<path fill-rule="evenodd" clip-rule="evenodd" d="M193.502 26.2309H185.274L183.014 29.2603L183.685 29.8674L187.031 28.5544L191.87 28.0492L198.049 26.2309V25.4287L193.502 26.2309Z" fill="#1D242F"/>
<path fill-rule="evenodd" clip-rule="evenodd" d="M239.379 68.1486C239.389 68.1723 239.397 68.1973 239.402 68.2234L239.379 68.1486ZM235.021 69.3255C233.438 67.3052 232.343 63.9682 233.769 64.4612C234.779 64.8104 238.297 68.8398 238.279 68.8106C237.053 66.7343 236.132 64.7118 235.429 62.3586C235.222 61.6626 235.27 61.0249 235.677 60.6654C235.995 60.3838 236.553 60.3286 236.553 60.3286C236.223 58.8368 236.261 57.7702 238.065 58.4485C237.78 57.5843 237.736 56.808 238.593 56.4398C239.431 56.0797 240.133 56.3999 240.749 56.9781C242.526 58.6476 243.882 60.672 245.162 62.7298C245.686 63.5722 246.282 64.3428 246.382 65.3592C246.468 66.2411 246.274 67.1242 246.068 67.9765C244.524 74.3454 243.012 80.7244 241.311 87.0521C240.585 89.754 239.535 92.3857 238.439 94.9682C236.556 99.4093 231.444 101.303 227.046 99.3401C224.573 98.2364 222.554 96.498 220.533 94.7587C220.175 94.4502 219.807 94.1537 219.225 93.6704C219.225 94.5137 219.2 95.0881 219.229 95.6601C219.305 97.1416 218.414 98.0161 218.414 99.7594C218.414 101.503 215.437 101.452 213.709 102.033C205.831 104.682 196.207 104.703 187.861 104.301C182.824 104.058 178.075 102.361 173.953 99.3401C173.641 99.1111 173.296 98.8979 172.873 98.651C172.656 99.0281 172.496 99.7765 172.336 100.113C169.663 105.729 167.335 111.478 165.552 117.446C165.243 118.483 165.408 119.176 166.085 119.974C167.295 121.401 168.428 122.899 169.507 124.427C169.953 125.058 170.285 125.816 170.479 126.565C170.798 127.797 169.849 128.599 168.652 128.153C168.2 127.985 167.793 127.676 167.398 127.388C167.046 127.131 166.737 126.814 166.222 126.359C166.491 127.581 166.741 128.566 166.914 129.564C167.022 130.19 167.099 130.843 167.043 131.471C166.915 132.9 165.602 132.892 164.79 132.52C164.481 132.379 164.256 132.097 163.984 131.879C162.785 133.06 162.226 133.502 160.399 132.277C159.757 132.858 158.965 133.088 158.26 132.372C157.714 131.819 157.842 132.06 156.912 130.282C156.919 130.281 156.747 130.501 156.713 130.525C156.213 130.882 155.822 131.542 155.062 131.227C154.292 130.909 154.203 130.151 154.189 129.48C154.168 128.4 154.195 127.303 154.368 126.24C154.848 123.273 155.332 120.303 155.967 117.368C156.674 114.097 157.569 110.866 158.348 107.61C160.013 100.646 162.571 93.6566 165.552 87.0521C165.291 86.7048 165.011 86.4221 164.79 86.0558C164.037 84.8079 163.244 83.6635 164.081 82.2962C164.828 81.0769 165.503 79.8144 166.239 78.5882C169.487 73.1749 172.744 67.7665 176.002 62.3586C177.611 59.6876 179.471 57.2079 181.612 54.9331C184.192 52.1924 186.137 50.8097 189.625 49.6202C190.949 49.1684 190.549 48.0002 191.417 49.207C191.921 49.9092 199.444 49.9235 199.561 49.6202C199.834 48.9163 199.589 48.8653 200.293 48.775C201.446 48.6268 202.485 49.2625 203.44 49.8114C206.756 51.7175 209.795 53.9883 212.401 56.792C216.851 61.5777 220.749 66.787 224.109 72.3886C224.842 73.6101 225.362 74.9576 226.038 76.216C226.624 77.3073 226.785 78.3286 225.792 79.2918C227.071 80.8739 228.795 83.0218 230.153 84.7024C230.353 84.2547 230.454 83.4417 230.576 83.1071C231.355 80.9782 231.697 78.7196 232.476 76.591C232.513 76.4903 232.546 76.3848 232.583 76.2814L235.021 69.3255Z" fill="white"/>
<path fill-rule="evenodd" clip-rule="evenodd" d="M251.669 26.7382C256.46 27.9292 259.247 31.2354 260.515 35.8321C262.409 42.7023 259.516 50.6009 253.724 54.7773C250.792 56.8903 247.545 57.8159 243.934 57.3624C243.644 57.3259 243.355 57.2911 242.933 57.2392C242.763 57.6445 242.589 58.0436 242.422 58.444C243.5 59.7345 244.426 61.1485 245.315 62.5786C245.84 63.4229 246.438 64.1952 246.537 65.2138C246.623 66.0975 246.429 66.9829 246.222 67.8367C244.676 74.2193 243.161 80.6121 241.458 86.9534C240.73 89.6611 239.678 92.2987 238.581 94.8865C236.694 99.3372 231.574 101.235 227.168 99.2679C224.691 98.1618 222.669 96.4196 220.645 94.6763C220.286 94.3674 219.917 94.0702 219.334 93.5857C219.334 94.4311 219.31 95.0067 219.339 95.5799C219.414 97.0646 220.275 100.606 218.977 101.144C217.29 101.843 214.764 102.51 212.499 103.073C204.384 105.089 196.278 104.642 187.918 104.239C182.873 103.996 178.176 102.685 174.046 99.6578C173.733 99.4286 173.376 99.26 172.952 99.0126C172.735 99.3908 172.527 99.7051 172.366 100.043C169.689 105.671 167.357 111.432 165.572 117.413C165.261 118.452 165.427 119.146 166.105 119.947C167.317 121.376 168.452 122.877 169.533 124.409C169.979 125.041 170.312 125.801 170.506 126.551C170.826 127.786 169.876 128.589 168.676 128.143C168.224 127.975 167.816 127.665 167.42 127.376C167.067 127.119 166.758 126.801 166.242 126.345C166.511 127.57 166.762 128.556 166.935 129.557C167.044 130.184 167.12 130.839 167.064 131.468C166.936 132.9 165.621 132.892 164.808 132.52C164.498 132.378 164.273 132.095 164.001 131.877C162.799 133.06 162.24 133.504 160.409 132.276C159.766 132.858 158.974 133.088 158.267 132.371C157.72 131.817 157.848 132.058 156.916 130.276C156.924 130.275 156.751 130.495 156.717 130.52C156.217 130.878 155.825 131.539 155.064 131.224C154.293 130.905 154.203 130.145 154.189 129.472C154.168 128.391 154.195 127.291 154.368 126.225C154.849 123.253 155.334 120.276 155.97 117.334C156.679 114.056 157.575 110.819 158.355 107.555C160.022 100.576 162.125 93.7415 165.111 87.1225C164.849 86.7748 164.559 86.4493 164.338 86.0825C163.584 84.8322 163.259 83.5577 164.098 82.1873C164.845 80.9653 165.522 79.7001 166.259 78.4713C169.513 73.0463 172.775 67.6262 176.039 62.2067C177.651 59.5299 179.514 57.0452 181.658 54.7652C184.242 52.0185 186.814 49.8591 190.308 48.667C191.635 48.2143 191.716 48.3671 192.585 49.5766C193.091 50.2803 193.709 50.9707 194.424 51.4408C195.784 52.3338 197.503 52.39 198.5 50.7335C198.668 50.4543 199.053 49.7413 199.171 49.4376C199.444 48.7325 199.637 48.6811 200.341 48.5906C201.497 48.4421 202.567 49.0824 203.523 49.6325C206.844 51.5427 209.888 53.8184 212.499 56.6281C216.956 61.4244 220.861 66.6443 224.227 72.258C224.961 73.4825 225.482 74.8328 226.158 76.0939C226.746 77.1876 226.907 78.2111 225.912 79.1764C227.194 80.7619 228.432 82.2936 229.793 83.9776C229.993 83.5294 230.159 83.2099 230.281 82.8749C230.881 81.2328 231.474 79.5876 232.071 77.9441C232.045 77.9192 232.019 77.8929 231.993 77.8659C231.349 77.1915 231.595 76.5351 231.875 75.8205C232.788 73.4997 233.698 71.1779 234.607 68.8556C233.59 67.7798 232.753 66.5738 232.481 65.0753C232.302 64.0893 233.105 63.4658 234.067 63.8258C234.896 64.1363 235.462 64.7408 235.952 65.4171L236.211 64.7549C235.81 63.9333 235.459 63.0857 235.193 62.1925C234.984 61.4951 235.042 60.6524 235.449 60.2924C235.769 60.0101 236.321 60.1086 236.321 60.1086C235.99 58.6136 236.155 57.5382 237.962 58.2177C237.677 57.3516 237.877 56.6441 238.734 56.2754C239.027 56.1495 239.303 56.1065 239.565 56.1284L239.651 55.906C238.839 55.1952 238.123 54.659 237.515 54.0203C234.743 51.1102 233.515 47.5753 233.624 43.6146C233.794 37.3875 236.346 32.3394 241.509 28.7653C244.569 26.6474 248.003 25.8267 251.669 26.7382ZM166.708 86.5126C166.481 87.0064 166.339 87.3175 166.195 87.6278C162.01 96.654 159.836 106.293 157.594 115.908C156.871 119.009 156.791 122.185 157.054 125.343C157.18 126.852 157.603 128.344 157.995 129.817C158.098 130.204 158.337 130.555 158.631 130.999C158.823 131.29 159.277 131.126 159.238 130.78C159.042 129.115 158.817 127.454 158.626 125.789C158.53 124.955 158.467 124.116 158.429 123.278C158.418 123.026 158.452 122.778 158.662 122.615C158.913 122.418 159.287 122.559 159.383 122.863C159.486 123.186 159.591 123.518 159.636 123.857C159.876 125.668 160.015 127.493 160.307 129.295C160.444 130.146 160.779 130.898 161.418 131.478C161.91 131.924 162.702 131.565 162.733 130.901C162.763 130.252 162.66 129.628 162.566 129.013C162.276 127.114 161.915 125.226 161.598 123.331C161.533 122.944 161.448 122.529 161.526 122.159C161.551 122.038 161.63 121.929 161.727 121.824C161.931 121.603 162.289 121.603 162.49 121.827C162.553 121.898 162.601 121.971 162.616 122.051C162.771 122.874 162.813 123.719 162.948 124.547L163.007 124.91C163.309 126.786 163.592 128.674 164.579 130.354C164.759 130.66 164.909 131.019 165.224 131.263C165.503 131.478 165.908 131.258 165.89 130.906C165.869 130.489 165.85 130.099 165.763 129.725C165.301 127.755 164.775 125.801 164.305 123.833C164.213 123.445 164.179 123.044 164.144 122.659C164.116 122.348 164.38 122.078 164.689 122.119C165.064 122.17 165.253 122.467 165.445 122.773C165.97 123.609 166.471 124.464 167.054 125.259C167.616 126.027 168.259 126.745 169.206 127.058C169.227 127.033 169.248 127.008 169.267 126.982C169.43 126.767 169.451 126.478 169.317 126.244C168.943 125.59 168.556 124.99 168.102 124.374C166.99 122.864 165.799 121.411 164.604 119.964C164.082 119.333 163.916 118.704 164.179 117.914C164.834 115.947 165.409 113.953 166.087 111.995C168.109 106.151 170.772 100.58 173.402 94.9948C174.007 93.7097 174.554 92.3969 175.189 90.9598C172.315 89.4529 169.543 87.9989 166.708 86.5126ZM155.753 123.372C155.698 123.366 155.544 125.72 155.536 125.774C155.224 128.042 155.061 129.874 155.344 129.874C156.823 129.62 155.987 127.567 156.013 126.396C155.952 126.389 155.814 123.38 155.753 123.372ZM200.942 49.8761C200.759 50.225 200.621 50.6255 200.534 50.8012C198.592 54.7382 193.772 54.1493 191.567 50.6495C191.39 50.3688 191.173 50.1132 190.997 49.8761C188.088 50.4779 184.909 53.1345 182.803 55.2976C180.62 57.5398 178.749 60.0202 177.138 62.698C173.47 68.7938 169.805 74.8912 166.147 80.9928C165.693 81.7506 165.287 82.5372 164.768 83.4753C168.351 83.6575 170.797 85.3314 173 86.5126C175.247 87.7178 176.435 88.2515 178.491 90.2667C178.564 90.084 178.641 89.917 178.698 89.7435C180.254 85.0081 181.808 80.2719 183.364 75.5362C183.43 75.3336 183.506 75.1343 183.585 74.9364C183.746 74.5337 183.911 74.0714 184.493 74.2996C185.014 74.5035 184.824 74.9296 184.696 75.3086C184.523 75.8234 184.351 76.3384 184.186 76.8558C182.611 81.7922 181.033 86.7274 179.469 91.6671C179.139 92.7085 178.623 93.1196 177.384 93.1465C176.804 93.159 176.222 93.093 175.608 93.0609C174.905 94.6013 174.232 96.0764 173.493 97.6971C174.357 98.3333 175.085 98.9196 175.862 99.4321C179.185 101.625 182.877 102.642 186.763 102.973C186.577 102.805 186.377 102.493 186.426 102.309C186.724 101.178 186.847 99.9887 187.623 99.0106C188.01 98.522 188.344 97.9322 188.503 97.3356C188.731 96.4805 188.218 95.9655 187.35 96.1468C186.683 96.2866 186.064 96.6496 185.4 96.8201C185.138 96.887 184.655 96.7872 184.555 96.6069C184.426 96.3747 184.497 95.9413 184.637 95.6767C184.758 95.4488 185.076 95.2569 185.344 95.1872C186.249 94.9512 187.162 94.7174 188.087 94.598C188.839 94.5009 189.431 94.8337 189.669 95.6299C189.852 96.2387 190.055 96.8413 190.269 97.5059C190.071 97.9556 189.896 98.4064 189.679 98.8361C189.306 99.5738 188.925 100.309 188.514 101.026C188.175 101.618 187.812 102.199 187.407 102.747C187.334 102.846 187.155 102.946 187.007 102.992C187.262 103.012 187.517 103.029 187.774 103.043C192.234 103.289 198.164 103.548 202.613 103.043C208.731 102.35 216.508 101.101 217.815 99.1494C218.244 98.5097 218.307 96.4995 218.163 95.2022C217.901 92.8474 217.744 90.4788 217.412 88.1343C216.936 84.7629 216.161 81.4556 215.281 78.1578C215.236 77.9915 215.192 77.8253 215.147 77.6593L215.083 77.6805C213.974 78.035 212.929 77.9513 212.022 77.1671C211.571 76.778 211.231 76.3644 211.321 75.6452C211.424 74.8196 210.994 74.4047 210.188 74.6152C208.936 74.9417 207.511 74.7315 206.472 75.8252C206.164 76.1499 205.586 76.2344 205.117 76.3872C204.372 76.6306 203.621 76.8628 202.862 77.0567C201.353 77.4417 199.992 77.0746 198.885 76.0212C197.74 74.9306 197.232 73.5406 197.637 71.9743C198.123 70.0948 199.177 68.5778 200.82 67.4842C201.263 67.1892 201.713 66.8387 202.014 66.4109C202.649 65.5068 202.462 64.5959 201.558 64.0121C201.382 63.8987 201.017 63.9912 200.775 64.0831C200.051 64.3585 199.344 64.681 198.63 64.9847C198.042 65.2344 197.461 65.5055 196.863 65.7273C195.668 66.1711 194.491 66.7506 193.254 66.9629C192.304 67.1261 191.254 66.8901 190.287 66.6674C189.965 66.5934 189.666 66.0447 189.52 65.6523C189.123 64.5837 189.245 63.5205 189.753 62.4962C190.52 60.949 191.672 59.6778 193.077 58.775C195.467 57.2387 197.925 55.7731 200.715 55.0152C200.898 54.9655 201.081 54.8676 201.231 54.7493C202.128 54.0423 203.194 53.8577 204.283 53.7438C204.676 53.7024 205.072 53.6875 205.465 53.6418C205.834 53.5988 206.201 53.5311 206.569 53.4743C206.207 53.7378 205.882 54.1168 205.477 54.2468C201.748 55.4446 198.268 57.1802 194.861 59.0752C194.567 59.2384 194.333 59.5138 194.082 59.7482C193.83 59.9834 193.627 60.3804 193.34 60.4516C191.78 60.8369 191.533 62.2544 190.948 63.3927C190.622 64.0268 190.479 64.712 191.111 65.2972C191.852 65.9827 192.752 66.1689 193.545 65.7635C194.993 65.0244 196.4 64.1965 197.885 63.545C198.824 63.1333 199.861 62.9038 200.877 62.7189C202.379 62.4456 203.537 63.0117 204.142 64.1763C204.597 65.0525 204.469 65.7502 203.795 66.4604C203.397 66.8803 203.065 67.3624 202.706 67.8189C202.524 68.0506 202.396 68.4152 202.163 68.5014C200.787 69.0091 200.492 70.3847 199.798 71.4139C199.118 72.4233 199.083 73.6355 199.774 74.6353C200.422 75.575 201.525 75.6675 202.601 75.4799C203.133 75.3869 203.666 75.2471 204.173 75.0587C205.789 74.4575 207.378 73.7777 209.009 73.2219C209.839 72.9391 210.732 72.78 211.607 72.7139C212.072 72.6789 212.455 72.8325 212.246 73.6417C211.888 75.0301 213.158 76.3652 214.592 76.44L214.795 76.3792C213.944 73.3559 212.963 70.3934 211.532 67.5792C211.354 67.2279 211.113 66.876 211.062 66.5024C211.056 66.4613 211.056 66.4192 211.061 66.3765C211.113 65.8908 211.673 65.5898 212.085 65.8525C212.131 65.8816 212.168 65.9161 212.193 65.9577C212.576 66.5856 212.854 67.2792 213.152 67.9566C214.305 70.5822 215.185 73.298 215.976 76.0429C216.315 75.9419 216.649 75.8306 216.972 75.693C218.653 74.9782 220.301 74.188 221.965 73.4323C222.41 73.23 222.957 72.8768 223.311 73.3763C223.743 73.9846 223.136 74.4267 222.721 74.6908C220.8 75.9119 218.772 76.8987 216.481 77.2438C216.429 77.2517 216.377 77.2613 216.325 77.2724C216.531 78.0088 216.732 78.7464 216.933 79.4842C217.055 79.9328 217.242 80.3644 217.362 80.7007C219.898 78.325 221.178 77.5628 225.008 76.3427C224.377 75.1332 223.818 73.74 222.99 72.531C220.45 68.8251 217.887 65.1295 215.184 61.5424C212.035 57.3647 208.231 53.8472 203.764 51.0845C203.075 50.6587 202.098 50.1556 200.942 49.8761ZM191.443 79.6442C192.191 80.4333 193.286 81.0747 192.619 82.4617C192.566 82.5721 192.585 82.7848 192.66 82.8786C193.667 84.1335 193.169 85.458 192.693 86.6688C192.332 87.589 192.775 88.3076 192.909 89.1014C192.935 89.258 193.561 89.5136 193.72 89.4154C194.67 88.8278 195.58 88.1722 196.469 87.4933C196.925 87.1447 197.291 86.6816 197.727 86.3045C198.098 85.9839 198.521 85.7245 198.905 85.4175C200.682 83.9956 202.656 83.0752 204.97 82.9996C206.636 82.9449 207.806 83.9361 208.181 85.6024C208.861 88.6293 207.651 90.9689 205.59 93.0257C205.555 93.0605 205.519 93.0996 205.475 93.1184C203.216 94.0927 202.739 96.4624 201.514 98.2396C201.344 98.4873 201.564 99.057 201.694 99.4475C201.907 100.085 202.059 100.712 201.582 101.267C201.414 101.463 201.059 101.642 200.833 101.6C200.638 101.564 200.395 101.218 200.358 100.98C199.906 98.0621 200.279 95.3853 202.668 93.3074C203.486 92.5947 204.276 91.8447 205.039 91.0736C205.77 90.3356 206.451 89.5647 206.449 88.408C206.449 88.0311 206.651 87.6496 206.781 87.2774C207.241 85.9523 206.513 84.7483 205.118 84.6463C203.85 84.5539 202.667 84.9294 201.582 85.5686C200.391 86.2699 199.218 87.0035 198.053 87.747C197.813 87.8998 197.579 88.1252 197.448 88.3732C196.751 89.695 195.485 90.2929 194.236 90.871C193.135 91.3803 192.905 91.122 192.09 90.1586C191.22 89.1297 191.035 87.9748 191.307 86.8344C191.863 84.5001 191.748 82.1903 191.47 79.862L191.443 79.6442ZM178.92 97.296C179.806 97.5127 180.657 97.5932 181.527 97.2324C181.878 97.0874 182.395 96.9028 182.516 97.433C182.574 97.6895 182.257 98.1596 181.983 98.3336C181.584 98.5868 181.071 98.6599 180.477 98.8522C179.902 98.6197 179.241 98.4225 178.656 98.0914C178.258 97.8657 177.634 97.2218 177.678 97.1587C178.096 96.5588 178.506 97.1949 178.92 97.296ZM241.921 59.6996L241.217 61.4894C241.596 62.0808 241.977 62.6712 242.355 63.2633C242.488 63.4716 242.636 63.6709 242.761 63.8841C243.002 64.2944 243.476 64.789 242.861 65.1507C242.286 65.4895 241.996 64.8731 241.734 64.4802C241.377 63.9465 241.024 63.4106 240.674 62.873L240.226 64.014C240.467 64.3274 240.707 64.6413 240.945 64.9568C241.182 65.2714 241.441 65.5977 241.562 65.9613C241.587 66.0339 241.583 66.1155 241.566 66.2019C241.498 66.5323 241.143 66.7267 240.822 66.6228C240.749 66.5992 240.682 66.5685 240.624 66.5252C240.397 66.358 240.276 66.0529 240.097 65.8174L239.714 65.3154C239.457 65.9711 239.199 66.6268 238.942 67.2825C239.09 67.5493 239.232 67.8188 239.355 68.0969C239.366 68.1208 239.374 68.1456 239.379 68.1717C239.461 68.5624 239.069 68.8879 238.678 68.8069C238.559 68.7821 238.463 68.7435 238.421 68.6725L238.406 68.6466C237.268 71.5433 236.13 74.4398 234.988 77.3351C234.62 78.2681 233.885 78.6792 233.126 78.5314L233.614 77.1484C232.791 79.4763 231.974 81.8066 231.124 84.1247C230.689 85.2499 230.689 85.2499 231.183 86.3794C231.392 86.7008 231.607 87.1473 231.126 87.4143C230.576 87.7194 230.301 87.2609 230.111 86.8667C228.686 83.9218 226.198 81.8012 224.242 79.2685C224.217 79.237 224.242 79.2685 224.094 79.0831C222.324 80.1988 220.267 81.4333 218.422 82.6571C218.295 82.7409 217.935 82.9872 217.935 82.9872C217.911 83.1398 217.987 83.4775 218.005 83.6339C218.284 85.9587 218.603 88.2798 218.977 90.5908C219.035 90.9476 219.165 91.3943 219.165 91.3943C219.247 91.5216 219.536 91.8346 219.639 91.9477C221.713 94.2263 224.029 96.238 226.743 97.7204C231.248 100.181 235.823 98.5261 237.777 93.7314C239.118 90.4383 240.324 87.0986 241.142 83.6216C242.375 78.3826 243.702 73.1659 244.977 67.9373C245.129 67.3146 245.282 66.6778 245.305 66.0428C245.324 65.5197 245.287 64.9149 245.043 64.4747C244.117 62.805 243.11 61.1872 241.921 59.6996ZM178.352 71.0398C178.252 71.6146 178.315 72.262 178.067 72.7566C177.731 73.4231 178.008 73.7839 178.434 74.1581C178.729 74.418 179.074 74.6214 179.376 74.8746C180.311 75.6574 180.512 77.1198 180.119 78.242C179.258 80.7017 177.338 81.912 175.044 82.5548C173.998 82.8477 172.805 82.6601 171.683 82.6005C171.424 82.5866 171.148 82.2342 170.95 81.983C170.809 81.8054 170.784 81.5354 170.708 81.307C170.972 81.2339 171.233 81.1229 171.501 81.0982C171.792 81.0713 172.091 81.1245 172.387 81.1428C174.518 81.2654 176.361 80.5606 177.994 79.2222C179.496 77.991 179.358 76.1539 177.671 75.2147C177.241 74.9749 176.762 74.8107 176.361 74.5325C175.645 74.036 175.496 73.4084 176.056 72.7702C176.667 72.0736 177.424 71.5034 178.124 70.8861C178.35 70.6871 178.401 70.7591 178.352 71.0398ZM167.803 79.7673C168.342 80.1412 168.83 80.589 169.444 81.0972C169.091 81.3865 168.94 81.5927 168.743 81.6552C168.207 81.8254 167.034 81.3308 166.867 80.7864C166.776 80.4887 166.956 80.0653 167.121 79.7559C167.173 79.6582 167.639 79.6533 167.803 79.7673ZM191.352 79.5783L191.443 79.6434L191.381 79.6554C191.026 79.7307 190.614 79.9264 190.351 79.8034C189.34 79.3305 188.355 79.4118 187.333 79.6759C187.102 79.7351 186.844 79.7199 186.604 79.6927C186.474 79.6778 186.355 79.5655 186.231 79.4969C186.323 79.3452 186.378 79.1377 186.512 79.0505C187.845 78.1814 189.672 78.391 191.352 79.5783ZM183.312 65.1322C183.492 65.3723 183.672 65.6124 183.825 65.8158C183.448 66.8915 183.29 67.9362 182.749 68.7169C182.251 69.4361 181.349 69.8801 180.611 70.4278C180.316 70.6477 179.947 70.7791 179.678 71.0235C179.167 71.4879 178.893 70.9158 178.514 70.8144C178.554 70.6698 178.547 70.4729 178.641 70.3889C179.262 69.8344 179.892 69.2892 180.542 68.7696C181.559 67.9569 182.403 67.0337 182.781 65.7421C182.85 65.5072 183.129 65.334 183.312 65.1322ZM233.349 64.9858C233.327 65.2488 233.586 65.7986 233.735 66.0161C233.827 66.1504 233.888 66.2429 233.943 66.3264C234.267 66.8165 234.649 67.263 235.071 67.6708L235.459 66.6778C235.338 66.5527 235.223 66.4164 235.106 66.2894C234.745 65.8989 234.287 65.286 233.933 64.8885C233.612 64.6625 233.365 64.7955 233.349 64.9858ZM179.818 63.6819C179.947 63.7985 180.07 63.9095 180.193 64.0207C180.101 64.1218 180.022 64.2934 179.914 64.3135C178.965 64.493 178.012 64.6491 177.058 64.7992C176.992 64.8095 176.91 64.7182 176.836 64.6741C176.916 64.5618 176.976 64.3753 177.078 64.3484C177.964 64.1153 178.858 63.9111 179.818 63.6819ZM236.208 61.5766C235.992 61.9771 236.418 62.7557 236.76 63.3507L237.249 62.1005C237.176 62.0057 237.102 61.9109 237.029 61.8162C236.906 61.6571 236.736 61.5331 236.429 61.4739C236.343 61.4573 236.25 61.4991 236.208 61.5766ZM237.04 59.1607C237.081 59.8482 237.478 60.3802 237.77 60.7679L238.198 59.6723L238.316 59.3703C238.308 59.3617 238.299 59.353 238.291 59.3442C237.835 58.8773 237.006 58.5812 237.04 59.1607ZM246.01 30.2432C244.505 30.8036 243.165 31.6367 242.029 32.763C238.646 36.1173 237.077 40.2094 237.272 44.9464C237.363 47.1525 238.01 49.2228 239.327 51.0411C241.394 53.896 244.75 55.031 248.118 54.0156C249.906 53.4767 251.456 52.5304 252.771 51.2144C255.816 48.1665 257.323 44.4616 257.438 40.6518C257.461 37.6945 256.953 35.3612 255.541 33.2813C253.372 30.0844 249.626 28.8958 246.01 30.2432Z" fill="#1D242F"/>
<path fill-rule="evenodd" clip-rule="evenodd" d="M235.792 61.6606C236.835 65.3763 238.068 67.7149 239.493 68.6765C240.917 69.6381 242.872 69.8674 245.358 69.3644L245.858 64.3992L240.157 56.9236C239.622 56.8093 239.276 56.8093 239.121 56.9236C238.787 57.1695 238.767 57.9549 238.529 58.0911C238.124 58.3222 237.642 58.5194 237.081 58.6827L235.792 61.6606Z" fill="white"/>
<path fill-rule="evenodd" clip-rule="evenodd" d="M238.579 68.5306C238.62 68.6011 238.716 68.6396 238.835 68.6645C239.224 68.7453 239.613 68.4206 239.532 68.0314C239.527 68.0054 239.519 67.9804 239.509 67.9566C239.231 67.3284 238.855 66.7448 238.537 66.1337C237.991 65.0867 237.47 64.3918 236.98 63.3191C236.633 62.7163 236.151 61.8783 236.377 61.4577C236.419 61.3804 236.511 61.3387 236.597 61.3555C236.902 61.4146 237.071 61.5379 237.194 61.6967C238.218 63.0207 239.232 64.3525 240.246 65.6849C240.425 65.9196 240.546 66.2237 240.771 66.3903C240.829 66.4334 240.896 66.4641 240.968 66.4874C241.288 66.5909 241.641 66.3971 241.708 66.0681C241.725 65.9819 241.729 65.9003 241.705 65.828C241.584 65.4659 241.326 65.1406 241.09 64.8271C240.083 63.4901 239.038 62.1805 238.059 60.8232C237.774 60.4283 237.252 59.8426 237.205 59.0499C237.171 58.4721 237.996 58.7675 238.449 59.2328C238.953 59.7497 239.017 59.9334 239.383 60.5104C240.2 61.7997 241.029 63.0819 241.875 64.352C242.136 64.7433 242.425 65.358 242.997 65.0203C243.608 64.6596 243.137 64.1668 242.897 63.7576C242.773 63.5454 242.626 63.3467 242.493 63.1389C241.594 61.7271 240.677 60.3259 239.808 58.8957C239.589 58.5341 239.315 58.1458 239.37 57.6885C239.405 57.3956 239.737 57.2419 239.979 57.4107C240.211 57.5728 240.431 57.7533 240.628 57.9563C242.471 59.851 243.897 62.0496 245.168 64.3465C245.411 64.7853 245.448 65.3878 245.429 65.9095C245.405 66.5424 245.254 67.1771 245.103 67.7975C244.724 69.3497 244.342 70.901 243.959 72.4518C244.358 72.5079 244.756 72.5627 245.154 72.6161C245.55 70.9764 245.944 69.3367 246.341 67.6972C246.547 66.8462 246.74 65.9637 246.654 65.0832C246.555 64.0679 245.961 63.2979 245.439 62.4567C244.163 60.401 242.811 58.3788 241.04 56.7115C240.426 56.1337 239.726 55.8141 238.891 56.1738C238.037 56.5416 237.838 57.2468 238.123 58.11C236.324 57.4324 236.16 58.5043 236.489 59.9947C236.489 59.9947 235.94 59.8966 235.622 60.1776C235.217 60.5367 235.159 61.3766 235.367 62.0718C236.067 64.4224 237.356 66.4567 238.579 68.5306Z" fill="#1D242F"/>
<path fill-rule="evenodd" clip-rule="evenodd" d="M255.107 38.6996C255.107 42.2149 254.716 47.0341 247.762 51.9414C253.556 46.0898 252.183 39.8183 252.183 36.4965C252.183 33.1747 255.107 35.1842 255.107 38.6996Z" fill="white"/>
<path fill-rule="evenodd" clip-rule="evenodd" d="M205.809 36.2662C205.953 36.8606 205.778 37.3432 205.327 37.7208C204.766 38.1895 204.031 38.1822 203.282 37.7004C202.649 37.2932 202.418 36.9376 202.519 36.3424C202.56 36.1019 202.851 35.9776 203.071 36.1101C203.393 36.3043 203.714 36.4471 204.055 36.6732C204.216 36.7798 204.438 36.763 204.57 36.6269C204.808 36.3827 205.007 36.2355 205.196 36.0785C205.41 35.9009 205.746 36.0064 205.809 36.2662ZM213.13 26.558C213.685 28.2768 213.609 29.9766 212.744 31.5928C212.204 32.6023 211.366 33.3388 210.148 33.2395C209.752 33.207 209.183 33.2431 209.183 33.2431C209.183 33.2431 208.524 33.8682 208.244 34.2529C207.988 34.6046 207.738 35.0744 207.054 34.9913C206.847 34.9662 206.738 34.735 206.845 34.5607C207.506 33.4812 208.127 32.4666 208.866 31.2587C208.967 31.0939 208.83 30.8883 208.634 30.9104C207.507 31.0371 206.404 31.1345 205.634 31.3029C205.634 31.3029 205.537 31.7235 205.374 32.015C205.102 32.503 204.96 33.0651 204.655 33.5293C203.743 34.9197 202.238 35.244 200.876 34.2994C199.021 33.0134 198.45 31.0718 198.245 28.9928C198.188 28.4114 198.551 28.0423 199.123 27.8901C200.629 27.4889 202.124 27.0252 203.65 26.718C204.765 26.4939 205.31 26.9226 205.544 28.0158C205.68 28.6537 205.681 29.3255 205.758 30.032C206.04 29.9405 206.742 29.9145 206.742 29.9145C206.643 29.0533 206.556 28.3034 206.461 27.4743C206.419 27.1151 206.591 26.7443 206.925 26.5882C206.956 26.5739 206.987 26.5622 207.019 26.5532C208.422 26.1674 209.822 25.7574 211.247 25.4701C212.385 25.2406 212.792 25.5101 213.13 26.558ZM204.385 27.7178C202.526 27.802 200.973 28.3387 199.269 28.9442C199.434 30.6431 199.871 32.0808 201.074 33.1821C202.073 34.0951 203.19 33.9966 203.84 32.9043C204.8 31.2912 204.843 29.5715 204.385 27.7178ZM211.844 26.3417C210.374 26.7018 208.993 27.0401 207.497 27.4069C207.634 28.2642 207.766 29.1498 207.874 29.8213C209.003 29.867 209.515 29.9109 209.903 30.3225C210.247 30.6879 210.084 31.6057 209.789 32.1692C210.757 32.259 211.653 31.5914 211.971 30.8368C212.582 29.3902 212.652 27.9335 211.844 26.3417ZM203.67 29.4609C203.688 29.7817 203.688 30.0967 203.604 30.3851C203.57 30.5013 203.428 30.5839 203.214 30.6726C202.768 30.858 202.283 30.4982 202.322 30.0021C202.352 29.6146 202.393 29.3015 202.518 29.0307C202.566 28.9261 202.713 28.87 202.895 28.8316C203.284 28.749 203.647 29.0502 203.67 29.4609ZM209.699 28.0429C210.424 28.5326 210.309 28.9355 209.77 29.5966C209.479 29.6559 209.4 29.636 209.35 29.5969C208.777 29.1597 208.678 28.645 209.142 28.1045C209.228 28.0045 209.584 27.9651 209.699 28.0429Z" fill="#1D242F"/>
</svg>
