<svg height="20" viewBox="0 0 20 20" width="20" xmlns="http://www.w3.org/2000/svg" xmlns:xlink="http://www.w3.org/1999/xlink"><linearGradient id="a" x1="18.848%" x2="-13.344%" y1="-60.439%" y2="100%"><stop offset="0" stop-color="#2d18ff"/><stop offset=".50059" stop-color="#ff177a"/><stop offset="1" stop-color="#ffcf37"/></linearGradient><g fill="none" fill-rule="evenodd" transform="translate(-8 -8)"><circle cx="18" cy="18" r="18"/><path d="m18 8c-2.716 0-3.056.012-4.123.06-1.064.049-1.791.218-2.427.465-.6674984.25087358-1.2722266.64435643-1.772 1.153-.50864357.4997734-.90212642 1.1045016-1.153 1.772-.247.636-.416 1.363-.465 2.427-.048 1.067-.06 1.407-.06 4.123s.012 3.056.06 4.123c.049 1.064.218 1.791.465 2.427.25087358.6674984.64435643 1.2722266 1.153 1.772.4997734.5086436 1.1045016.9021264 1.772 1.153.636.247 1.363.416 2.427.465 1.067.048 1.407.06 4.123.06s3.056-.012 4.123-.06c1.064-.049 1.791-.218 2.427-.465.6674984-.2508736 1.2722266-.6443564 1.772-1.153.5086436-.4997734.9021264-1.1045016 1.153-1.772.247-.636.416-1.363.465-2.427.048-1.067.06-1.407.06-4.123s-.012-3.056-.06-4.123c-.049-1.064-.218-1.791-.465-2.427-.2508736-.6674984-.6443564-1.2722266-1.153-1.772-.4997734-.50864357-1.1045016-.90212642-1.772-1.153-.636-.247-1.363-.416-2.427-.465-1.067-.048-1.407-.06-4.123-.06zm0 1.802c2.67 0 2.986.01 4.04.058.976.045 1.505.207 1.858.344.466.182.8.399 1.15.748.35.35.566.684.748 1.15.137.353.3.882.344 1.857.048 1.055.058 1.37.058 4.041 0 2.67-.01 2.986-.058 4.04-.045.976-.207 1.505-.344 1.858-.182.466-.399.8-.748 1.15-.35.35-.684.566-1.15.748-.353.137-.882.3-1.857.344-1.054.048-1.37.058-4.041.058-2.67 0-2.987-.01-4.04-.058-.976-.045-1.505-.207-1.858-.344-.4344153-.1602597-.8273823-.415859-1.15-.748-.332141-.3226177-.5877403-.7155847-.748-1.15-.137-.353-.3-.882-.344-1.857-.048-1.055-.058-1.37-.058-4.041 0-2.67.01-2.986.058-4.04.045-.976.207-1.505.344-1.858.182-.466.399-.8.748-1.15.35-.35.684-.566 1.15-.748.353-.137.882-.3 1.857-.344 1.055-.048 1.37-.058 4.041-.058zm0 3.063c-1.8345588 0-3.5297611.9787254-4.4470405 2.5675-.9172795 1.5887745-.9172795 3.5462255 0 5.135.9172794 1.5887746 2.6124817 2.5675 4.4470405 2.5675 2.8359822 0 5.135-2.2990178 5.135-5.135s-2.2990178-5.135-5.135-5.135zm0 8.468c-1.8407651 0-3.333-1.4922349-3.333-3.333s1.4922349-3.333 3.333-3.333 3.333 1.4922349 3.333 3.333-1.4922349 3.333-3.333 3.333zm6.538-8.671c0 .6627417-.5372583 1.2-1.2 1.2s-1.2-.5372583-1.2-1.2.5372583-1.2 1.2-1.2 1.2.5372583 1.2 1.2z" fill="url(#a)" fill-rule="nonzero"/></g></svg>