<svg height="18" viewBox="0 0 18 18" width="18" xmlns="http://www.w3.org/2000/svg"><g fill="none" fill-rule="evenodd" transform="translate(-9 -9)"><circle cx="18" cy="18" r="18"/><path d="m21.5 20h-.79l-.28-.27c1.0138721-1.1759782 1.5711023-2.6773056 1.57-4.23 0-3.5898509-2.9101491-6.5-6.5-6.5s-6.5 2.9101491-6.5 6.5 2.9101491 6.5 6.5 6.5c1.61 0 3.09-.59 4.23-1.57l.27.28v.79l5 4.99 1.49-1.49zm-6 0c-2.49 0-4.5-2.01-4.5-4.5s2.01-4.5 4.5-4.5 4.5 2.01 4.5 4.5-2.01 4.5-4.5 4.5z" fill="#000" fill-opacity=".7" fill-rule="nonzero"/></g></svg>