<svg width="493" height="426" viewBox="0 0 493 426" fill="none" xmlns="http://www.w3.org/2000/svg">
<path fill-rule="evenodd" clip-rule="evenodd" d="M349.019 40.0293C300.142 6.33653 235.731 37.0563 205.153 108.644L205.13 108.697C203.691 112.068 201.247 114.665 198.022 116.209C182.435 123.671 167.369 133.651 153.52 146.121C89.2616 203.979 75.5192 293.473 122.824 346.01C170.129 398.548 260.569 394.235 324.827 336.377C357.794 306.692 377.465 268.681 382.417 231.605C382.616 230.113 382.979 228.7 383.509 227.394C412.272 156.495 397.156 73.2116 349.019 40.0293Z" fill="black" fill-opacity="0.04"/>
<path fill-rule="evenodd" clip-rule="evenodd" d="M240.467 80.017C239.628 79.771 238.719 79.6873 237.777 79.8021C234.946 80.1457 232.589 82.3593 232.097 85.1694C231.698 87.4495 232.468 89.5661 233.907 91.019C234.503 91.6206 234.66 92.5277 234.273 93.2808C232.27 97.1882 229.213 102.202 226.034 109.426C216.748 130.522 210.469 153.145 184.833 159.031C162.611 164.133 147.897 142.904 158.291 123.247C167.145 106.502 186.079 102.62 197.999 89.3233C208.858 77.2088 210.416 58.5295 225.986 50.0637C230.48 47.6206 235.737 46.7636 240.669 48.1214C252.247 51.308 253.908 63.6388 248.478 72.6358C246.469 75.9657 244.262 78.2294 242.56 79.5777C241.971 80.0442 241.19 80.2287 240.467 80.017Z" fill="black"/>
<path d="M248.733 61.759C249.152 61.4424 249.748 61.5253 250.065 61.9442L250.962 63.1194L252.763 65.4505C255.102 68.4966 256.291 70.1902 257.52 72.3194C259.522 75.7853 261.065 79.6303 262.15 83.7532C262.346 84.4996 262.527 85.2589 262.696 86.0338C263.845 91.3374 263.725 94.8426 261.18 97.2708C259.063 99.292 255.095 100.821 249.76 101.997C247.018 102.601 244.087 103.07 241.157 103.423L240.297 103.522C239.736 103.585 239.202 103.641 238.698 103.689L237.671 103.781L237.241 103.815C236.717 103.852 236.263 103.457 236.226 102.933C236.189 102.409 236.584 101.955 237.108 101.918L237.662 101.874C237.813 101.861 237.976 101.846 238.152 101.83L238.893 101.759C239.529 101.696 240.211 101.621 240.93 101.534C243.803 101.189 246.676 100.729 249.351 100.139L250.026 99.9868C254.698 98.9044 258.159 97.5262 259.867 95.8952C261.747 94.1011 261.85 91.1099 260.837 86.4368C260.675 85.6888 260.499 84.956 260.31 84.2368C259.268 80.2727 257.788 76.5848 255.873 73.2704L255.671 72.9241C254.525 70.9797 253.338 69.3148 251.045 66.3354L249.342 64.1315C249.121 63.8443 248.927 63.5906 248.737 63.3407L248.548 63.0909C248.231 62.672 248.314 62.0757 248.733 61.759Z" fill="black"/>
<path d="M246.219 101.381C246.314 100.864 246.81 100.523 247.327 100.619C247.813 100.708 248.143 101.153 248.101 101.636L248.089 101.726L244.89 119.022C244.795 119.538 244.299 119.88 243.782 119.784C243.296 119.694 242.965 119.249 243.008 118.767L243.02 118.676L246.219 101.381Z" fill="black"/>
<path d="M310.77 52.3893C311.086 51.9915 311.653 51.9159 312.06 52.2017L312.135 52.2596L321.774 60.5479C322.12 60.8447 322.203 61.3405 321.986 61.7307L321.935 61.8125L292.39 104.205C292.35 104.262 292.304 104.315 292.252 104.363L292.171 104.429L250.345 134.995C249.921 135.305 249.326 135.213 249.016 134.789C248.724 134.39 248.789 133.839 249.151 133.517L249.223 133.46L290.92 102.988L319.883 61.4292L311.644 54.3453L284.096 89.0395C284.013 89.1446 283.908 89.2305 283.79 89.292L283.698 89.3335L255.305 100.46C254.816 100.652 254.265 100.411 254.073 99.9221C253.893 99.4619 254.096 98.9461 254.528 98.7273L254.611 98.6898L282.766 87.6557L310.77 52.3893Z" fill="black"/>
<path d="M320.264 31.8577C320.495 31.2383 321.264 31.0455 321.76 31.4566L321.825 31.5164L323.472 33.1558C324.84 34.518 325.394 36.4928 324.943 38.3598L324.895 38.5461L323.686 42.8837L324.47 43.5889C327.378 46.2028 327.886 50.5585 325.688 53.7667L325.57 53.9345L320.649 60.7293C320.341 61.1546 319.746 61.2497 319.321 60.9417C318.92 60.6518 318.813 60.1081 319.058 59.6905L319.108 59.6138L324.029 52.819C325.756 50.434 325.448 47.1497 323.333 45.1276L323.199 45.0028L321.976 43.903C321.73 43.6816 321.619 43.3501 321.677 43.0285L321.696 42.9411L323.063 38.0358C323.399 36.8295 323.085 35.5383 322.243 34.621L322.131 34.5035L321.529 33.905L313.825 54.5341C313.652 54.9971 313.156 55.2457 312.689 55.1202L312.601 55.0922C312.138 54.9193 311.89 54.4239 312.015 53.9561L312.043 53.8688L320.264 31.8577Z" fill="black"/>
<path d="M226.804 115.586C230.183 114.657 232.702 114.365 235.96 114.964L236.288 115.03C236.681 115.114 237.114 115.223 237.637 115.378C238.653 115.68 239.702 116.077 240.753 116.584C243.56 117.94 245.96 119.868 247.685 122.478L247.867 122.76C247.951 122.893 248.088 123.129 248.261 123.455C248.546 123.991 248.829 124.593 249.094 125.247C249.54 126.352 249.887 127.498 250.096 128.659L250.153 128.993C250.978 134.234 250.068 145.428 247.94 160.622C247.266 165.43 246.506 170.37 245.706 175.251L245.36 177.339C245.192 178.344 245.028 179.316 244.868 180.249L244.308 183.474L244.12 184.527L298.586 189.843C299.007 189.884 299.35 190.199 299.428 190.615C300.062 193.996 299.999 197.658 298.641 201.629C297.19 205.851 294.808 208.904 292.037 211.223C291.894 211.343 291.718 211.418 291.533 211.438L285.647 212.102C277.02 213.082 268.357 214.1 258.907 215.256L237.033 217.979C232.633 218.517 229.791 218.834 227.526 219.031L226.519 219.113C221.584 219.49 219.239 219.234 216.876 218.12L216.676 218.024C210.647 215.052 207.609 208.406 206.708 197.971L206.638 197.113C206.092 189.927 206.373 183.401 207.66 167.683L208.442 158.223C208.554 156.83 208.648 155.599 208.739 154.363L208.797 153.566C209.115 149.131 209.329 145.262 209.443 141.619C209.46 141.094 209.898 140.682 210.423 140.698C210.948 140.715 211.36 141.154 211.344 141.678L211.302 142.911C211.188 146.015 211.003 149.3 210.746 152.964L210.596 155.033C210.458 156.896 210.307 158.798 210.099 161.31L209.522 168.248C208.273 183.555 208.004 189.979 208.535 196.969L208.571 197.435C209.382 207.493 212.156 213.675 217.515 216.317L217.686 216.4C219.7 217.349 221.753 217.572 226.398 217.215L227.363 217.136C228.997 216.994 230.942 216.788 233.576 216.479L256.076 213.687L261.236 213.056C270.131 211.975 278.371 211.012 286.609 210.079L291.032 209.58L291.053 209.564C293.4 207.542 295.426 204.916 296.716 201.37L296.842 201.013C297.956 197.755 298.114 194.721 297.713 191.898L297.678 191.665L242.909 186.32C242.356 186.266 241.966 185.75 242.066 185.203L242.409 183.29L242.805 181.027C243.022 179.767 243.25 178.429 243.484 177.026C244.409 171.486 245.289 165.835 246.056 160.358L246.32 158.449C248.27 144.136 249.058 133.599 248.225 128.997C248.041 127.972 247.731 126.95 247.33 125.96C247.132 125.468 246.921 125.009 246.709 124.592L246.581 124.347C246.431 124.064 246.317 123.868 246.257 123.773C244.73 121.35 242.534 119.556 239.926 118.297C238.972 117.836 238.018 117.475 237.095 117.201C236.489 117.021 236.026 116.913 235.609 116.833C232.697 116.297 230.435 116.559 227.305 117.42C225.717 117.851 224.168 118.443 222.673 119.178C222.201 119.41 221.632 119.216 221.4 118.744C221.168 118.273 221.363 117.703 221.834 117.471C223.436 116.684 225.098 116.048 226.804 115.586Z" fill="black"/>
<path d="M316.463 183.45C316.951 182.989 317.74 183.168 317.993 183.771L318.022 183.852L318.993 186.89C319.884 189.685 319.154 192.737 317.11 194.824L316.962 194.971L314.311 197.54C313.454 198.371 312.774 199.364 312.312 200.461L312.209 200.716C310.859 204.22 307.662 206.667 303.941 207.064L303.785 207.078L293.928 209.165C293.444 209.267 292.969 208.982 292.824 208.52L292.801 208.431C292.699 207.948 292.983 207.472 293.446 207.327L293.534 207.304L303.444 205.207L303.561 205.19C306.582 204.934 309.201 203.014 310.358 200.224L310.435 200.032C310.96 198.668 311.759 197.426 312.78 196.381L312.987 196.174L315.639 193.606C317.228 192.066 317.838 189.781 317.239 187.661L317.181 187.469L316.671 185.87L310.774 191.447C310.659 191.556 310.518 191.634 310.366 191.675L310.273 191.694L299 193.519C298.482 193.603 297.993 193.251 297.909 192.733C297.83 192.245 298.138 191.784 298.606 191.661L298.696 191.642L309.679 189.864L316.463 183.45Z" fill="black"/>
<path d="M165.509 156.428C165.692 155.936 166.24 155.685 166.732 155.869C167.195 156.041 167.444 156.536 167.319 157.004L167.291 157.092L141.416 226.546C139.021 232.973 142.456 240.114 148.961 242.201C162.05 246.399 175.893 248.612 189.529 247.672C207.212 246.452 222.889 239.981 235.711 227.156L236.223 226.637L236.224 217.005C236.224 216.511 236.601 216.104 237.083 216.058L237.174 216.054C237.669 216.054 238.075 216.431 238.121 216.913L238.125 217.005V227.025C238.125 227.272 238.029 227.51 237.857 227.687C224.548 241.395 208.149 248.293 189.659 249.569C175.755 250.528 161.682 248.278 148.38 244.012C140.915 241.617 136.941 233.488 139.553 226.106L139.634 225.882L165.509 156.428Z" fill="black"/>
<path d="M143.635 240.654C143.77 240.147 144.291 239.845 144.799 239.981C145.306 240.116 145.608 240.638 145.472 241.145C143.194 249.672 143.236 258.395 146.676 266.683C150.78 276.579 158.727 283.339 169.166 287.529C172.941 289.044 176.816 290.123 180.612 290.837C182.012 291.1 183.326 291.299 184.531 291.442L185.234 291.52C185.747 291.574 186.183 291.61 186.535 291.632C192.374 292.006 197.141 291.291 205.52 288.995C223.118 284.17 241.455 276.897 261.137 265.914C261.776 265.557 262.562 266.027 262.551 266.759L262.383 277.042C262.223 286.05 262.024 295.256 261.722 307.792L260.65 351.053C260.314 364.947 260.102 374.763 259.933 384.576L259.803 392.599L275.624 401.098L275.77 400.181C277.549 389.024 279.338 378.54 281.354 367.306L283.06 357.939C284.847 348.217 287.436 334.255 287.565 333.553L288.348 329.264C290.325 318.375 291.86 309.434 293.352 299.984C293.434 299.465 293.921 299.111 294.44 299.193C294.958 299.275 295.312 299.762 295.231 300.281L294.885 302.457C293.381 311.859 291.804 320.938 289.754 332.154L283.673 365.163L283.632 365.387C281.313 378.227 279.307 389.98 277.293 402.719C277.191 403.366 276.48 403.718 275.903 403.408L258.394 394.001C258.107 393.847 257.921 393.558 257.896 393.237L257.893 393.149L258.061 382.862C258.257 371.81 258.513 360.463 258.944 343.026L259.929 303.215C260.215 291.082 260.4 282.083 260.554 272.77L260.624 268.372L260.238 268.585C241.409 278.918 223.785 285.891 206.842 290.603L206.023 290.829L205.086 291.083C197.09 293.229 192.274 293.905 186.414 293.53L185.989 293.5C184.525 293.387 182.575 293.141 180.261 292.706C176.349 291.971 172.356 290.858 168.457 289.294C157.581 284.929 149.242 277.834 144.919 267.411C141.301 258.694 141.257 249.554 143.635 240.654Z" fill="black"/>
<path d="M282.835 210.553C283.287 210.353 283.811 210.533 284.049 210.955L284.09 211.037L338.73 334.084C338.924 334.52 338.763 335.027 338.367 335.275L338.29 335.319L321.582 343.75C321.172 343.958 320.676 343.84 320.401 343.482L320.349 343.407L249.742 230.993L236.873 226.687C236.404 226.53 236.139 226.043 236.248 225.571L236.273 225.483C236.43 225.014 236.916 224.749 237.388 224.858L237.476 224.883L250.667 229.297C250.846 229.357 251.002 229.468 251.117 229.616L251.171 229.693L321.499 341.662L336.625 334.028L282.352 211.808C282.151 211.357 282.331 210.832 282.753 210.595L282.835 210.553Z" fill="black"/>
<path d="M309.336 162.571C309.558 162.246 309.954 162.093 310.332 162.179L310.419 162.203L326.544 167.5C327.106 167.684 327.358 168.327 327.092 168.84L327.048 168.916L315.52 186.92C315.237 187.362 314.649 187.491 314.207 187.208C313.79 186.942 313.652 186.405 313.873 185.974L313.919 185.895L324.784 168.923L310.505 164.232L292.565 190.581C292.287 190.99 291.746 191.113 291.322 190.88L291.244 190.832C290.835 190.554 290.712 190.013 290.945 189.589L290.993 189.511L309.336 162.571Z" fill="black"/>
<path d="M322.445 17.2443C331.413 17.2443 338.683 24.514 338.683 33.4818C338.683 38.8245 336.082 43.7323 331.799 46.7566C331.37 47.0595 330.776 46.9573 330.474 46.5283C330.171 46.0993 330.273 45.506 330.702 45.2031C334.486 42.5314 336.781 38.1999 336.781 33.4818C336.781 25.5643 330.363 19.146 322.445 19.146C314.528 19.146 308.11 25.5645 308.11 33.4818C308.11 35.922 308.719 38.2717 309.867 40.3639C310.119 40.8243 309.951 41.4023 309.49 41.6548C309.03 41.9073 308.452 41.7388 308.199 41.2784C306.899 38.9076 306.208 36.2438 306.208 33.4818C306.208 24.5143 313.478 17.2443 322.445 17.2443Z" fill="black"/>
<path fill-rule="evenodd" clip-rule="evenodd" d="M258.844 392.036L258.11 407.825L292.714 424.311L293.009 421.872C293.667 416.436 291.176 411.099 286.589 408.11L276.354 401.444L258.844 392.036Z" fill="black"/>
<path d="M257.894 391.992L257.16 407.78C257.142 408.163 257.355 408.518 257.701 408.683L292.305 425.169C292.892 425.449 293.58 425.07 293.658 424.425L293.953 421.986C294.654 416.191 291.999 410.5 287.108 407.314L276.873 400.647L276.804 400.606L259.294 391.199C258.678 390.868 257.927 391.293 257.894 391.992ZM259.723 393.588L275.868 402.262L286.07 408.907L286.282 409.049C290.431 411.864 292.669 416.767 292.065 421.758L291.928 422.883L259.089 407.237L259.723 393.588Z" fill="black"/>
<path fill-rule="evenodd" clip-rule="evenodd" d="M320.79 343.198L327.143 352.978L362.33 336.113C359.167 331.105 352.924 329.002 347.375 331.075L337.496 334.767L320.79 343.198Z" fill="black"/>
<path d="M337.163 333.876L337.068 333.918L320.361 342.35C319.856 342.605 319.684 343.242 319.992 343.716L326.345 353.496C326.606 353.897 327.123 354.042 327.554 353.836L362.741 336.971C363.254 336.725 363.438 336.087 363.134 335.606C359.73 330.216 353.013 327.953 347.042 330.184L337.163 333.876ZM360.91 335.739L327.485 351.76L322.164 343.569L337.878 335.639L347.708 331.966C352.464 330.189 357.771 331.732 360.847 335.658L360.91 335.739Z" fill="black"/>
<path d="M289.15 226.61C289.272 226.131 289.738 225.831 290.217 225.906L290.307 225.924L297.389 227.732C306.383 230.027 311.979 238.964 310.155 248.031L310.097 248.306L306.92 262.896C306.808 263.409 306.302 263.735 305.788 263.623C305.305 263.518 304.989 263.063 305.046 262.582L305.062 262.492L308.239 247.902C309.998 239.823 305.111 231.801 297.161 229.638L296.919 229.574L289.836 227.767C289.327 227.637 289.02 227.119 289.15 226.61Z" fill="black"/>
<path d="M165.21 204.456C165.732 204.396 166.203 204.771 166.263 205.293C166.734 209.405 168.128 213.533 171.106 217.407C173.757 220.856 177.133 223.301 180.951 224.916C183.486 225.989 185.721 226.526 187.781 226.797C188.302 226.865 188.668 227.343 188.6 227.864C188.531 228.384 188.054 228.751 187.533 228.682C185.317 228.391 182.923 227.815 180.21 226.668C176.106 224.931 172.463 222.293 169.598 218.566C166.382 214.382 164.88 209.936 164.373 205.509C164.314 204.987 164.688 204.516 165.21 204.456Z" fill="black"/>
<path d="M174.808 183.147C174.966 182.646 175.5 182.368 176.001 182.526C176.502 182.684 176.78 183.218 176.622 183.719C175.377 187.666 174.97 192.004 176.113 196.755C177.13 200.985 179.218 204.593 182.047 207.622C183.925 209.634 185.748 211.035 187.519 212.122C187.967 212.396 188.107 212.982 187.833 213.429C187.558 213.877 186.972 214.017 186.525 213.743C184.619 212.574 182.667 211.073 180.657 208.92C177.616 205.664 175.363 201.771 174.264 197.2C173.03 192.069 173.468 187.396 174.808 183.147Z" fill="black"/>
<path fill-rule="evenodd" clip-rule="evenodd" d="M123.166 312.098H243.415V292.086H123.166V312.098Z" fill="black"/>
<path d="M322.446 6.6543C337.262 6.6543 349.273 18.6655 349.273 33.4818C349.273 43.1167 344.151 51.8626 335.99 56.6448C335.536 56.9103 334.954 56.7582 334.688 56.3052C334.423 55.8521 334.575 55.2695 335.028 55.0041C342.613 50.5597 347.372 42.4347 347.372 33.4818C347.372 19.7158 336.212 8.55601 322.446 8.55601C308.68 8.55601 297.52 19.7157 297.52 33.4818C297.52 38.8549 299.223 43.9689 302.333 48.2085C302.644 48.632 302.552 49.227 302.129 49.5377C301.705 49.8483 301.11 49.7568 300.8 49.3334C297.452 44.7703 295.618 39.2629 295.618 33.4818C295.618 18.6654 307.629 6.6543 322.446 6.6543Z" fill="black"/>
<path d="M49.6868 78.5017H35.0702C15.7015 78.5017 0 94.2028 0 113.571C0 132.94 15.7016 148.641 35.0702 148.641H83.8061C84.3313 148.641 84.757 148.216 84.757 147.691V113.571C84.757 94.2028 69.0555 78.5017 49.6868 78.5017ZM50.2353 80.4079C68.3008 80.7008 82.8553 95.4362 82.8553 113.571V146.74H35.0702C16.7519 146.74 1.90172 131.89 1.90172 113.571C1.90172 95.2531 16.7517 80.4034 35.0702 80.4034H49.6868L50.2353 80.4079Z" fill="black"/>
<path d="M55.6213 103.265C56.1464 103.265 56.5721 103.69 56.5721 104.215C56.5721 104.71 56.195 105.116 55.7128 105.162L55.6213 105.166H29.1354C28.6103 105.166 28.1846 104.741 28.1846 104.215C28.1846 103.721 28.5617 103.315 29.0439 103.269L29.1354 103.265H55.6213Z" fill="black"/>
<path d="M55.6213 119.701C56.1464 119.701 56.5721 120.127 56.5721 120.652C56.5721 121.146 56.195 121.552 55.7128 121.598L55.6213 121.603H29.1354C28.6103 121.603 28.1846 121.177 28.1846 120.652C28.1846 120.158 28.5617 119.751 29.0439 119.705L29.1354 119.701H55.6213Z" fill="black"/>
<path fill-rule="evenodd" clip-rule="evenodd" d="M49.5902 198.125H98.3261C117.17 198.125 132.445 182.849 132.445 164.005C132.445 145.162 117.17 129.886 98.3261 129.886H83.7095C64.8661 129.886 49.5902 145.162 49.5902 164.005V198.125Z" fill="black"/>
<path fill-rule="evenodd" clip-rule="evenodd" d="M81.374 164.005C81.374 166.472 79.3747 168.471 76.9081 168.471C74.4416 168.471 72.4423 166.472 72.4423 164.005C72.4423 161.539 74.4416 159.539 76.9081 159.539C79.3747 159.539 81.374 161.539 81.374 164.005Z" fill="white"/>
<path fill-rule="evenodd" clip-rule="evenodd" d="M95.4833 164.005C95.4833 166.472 93.4846 168.471 91.0175 168.471C88.551 168.471 86.5522 166.472 86.5522 164.005C86.5522 161.539 88.551 159.539 91.0175 159.539C93.4846 159.539 95.4833 161.539 95.4833 164.005Z" fill="white"/>
<path fill-rule="evenodd" clip-rule="evenodd" d="M109.593 164.005C109.593 166.472 107.594 168.471 105.127 168.471C102.661 168.471 100.661 166.472 100.661 164.005C100.661 161.539 102.661 159.539 105.127 159.539C107.594 159.539 109.593 161.539 109.593 164.005Z" fill="white"/>
<path d="M417 79.3574H374.698C369.423 79.3574 365.146 83.6336 365.146 88.9091C365.146 94.1842 369.423 98.4608 374.698 98.4608H417C422.275 98.4608 426.552 94.1841 426.552 88.9091C426.552 83.6337 422.275 79.3574 417 79.3574ZM374.698 81.2591H417C421.225 81.2591 424.65 84.684 424.65 88.9091C424.65 93.1338 421.225 96.5591 417 96.5591H374.698C370.473 96.5591 367.048 93.1339 367.048 88.9091C367.048 84.6839 370.473 81.2591 374.698 81.2591Z" fill="black"/>
<path d="M417 182.282H374.698C369.423 182.282 365.146 186.559 365.146 191.835C365.146 197.11 369.423 201.386 374.698 201.386H417C422.275 201.386 426.552 197.11 426.552 191.835C426.552 186.559 422.275 182.282 417 182.282ZM374.698 184.184H417C421.225 184.184 424.65 187.609 424.65 191.835C424.65 196.059 421.225 199.485 417 199.485H374.698C370.473 199.485 367.048 196.059 367.048 191.835C367.048 187.609 370.473 184.184 374.698 184.184Z" fill="black"/>
<path fill-rule="evenodd" clip-rule="evenodd" d="M459.653 97.5099H445.927C441.178 97.5099 437.327 93.6589 437.327 88.9091C437.327 84.1586 441.178 80.3082 445.927 80.3082H459.653C464.404 80.3082 468.254 84.1586 468.254 88.9091C468.254 93.6589 464.404 97.5099 459.653 97.5099Z" fill="black"/>
<path d="M459.653 79.3574H445.927C440.652 79.3574 436.376 83.6337 436.376 88.9091C436.376 94.1841 440.652 98.4608 445.927 98.4608H459.653C464.929 98.4608 469.205 94.1843 469.205 88.9091C469.205 83.6335 464.929 79.3574 459.653 79.3574ZM445.927 81.2591H459.653C463.879 81.2591 467.303 84.6838 467.303 88.9091C467.303 93.134 463.878 96.5591 459.653 96.5591H445.927C441.703 96.5591 438.277 93.1338 438.277 88.9091C438.277 84.684 441.702 81.2591 445.927 81.2591Z" fill="black"/>
<path fill-rule="evenodd" clip-rule="evenodd" d="M434.943 166.126H374.698C369.949 166.126 366.098 162.276 366.098 157.526C366.098 152.775 369.949 148.925 374.698 148.925H434.943C439.693 148.925 443.544 152.775 443.544 157.526C443.544 162.276 439.693 166.126 434.943 166.126Z" fill="black"/>
<path d="M434.943 147.974H374.698C369.423 147.974 365.147 152.25 365.147 157.526C365.147 162.801 369.423 167.077 374.698 167.077H434.943C440.219 167.077 444.495 162.801 444.495 157.526C444.495 152.25 440.219 147.974 434.943 147.974ZM374.698 149.876H434.943C439.168 149.876 442.593 153.301 442.593 157.526C442.593 161.751 439.168 165.176 434.943 165.176H374.698C370.473 165.176 367.048 161.751 367.048 157.526C367.048 153.301 370.473 149.876 374.698 149.876Z" fill="black"/>
<path d="M483.448 113.666H429.517C424.241 113.666 419.965 117.942 419.965 123.217C419.965 128.493 424.241 132.769 429.517 132.769H483.448C488.724 132.769 493 128.493 493 123.217C493 117.942 488.724 113.666 483.448 113.666ZM429.517 115.567H483.448C487.673 115.567 491.098 118.992 491.098 123.217C491.098 127.442 487.673 130.867 483.448 130.867H429.517C425.292 130.867 421.867 127.443 421.867 123.217C421.867 118.992 425.292 115.567 429.517 115.567Z" fill="black"/>
<path fill-rule="evenodd" clip-rule="evenodd" d="M398.66 131.818H373.304C368.554 131.818 364.703 127.968 364.703 123.217C364.703 118.467 368.554 114.617 373.304 114.617H398.66C403.41 114.617 407.261 118.467 407.261 123.217C407.261 127.968 403.41 131.818 398.66 131.818Z" fill="black"/>
<path d="M398.66 113.666H373.304C368.029 113.666 363.753 117.942 363.753 123.217C363.753 128.493 368.029 132.769 373.304 132.769H398.66C403.936 132.769 408.212 128.493 408.212 123.217C408.212 117.942 403.936 113.666 398.66 113.666ZM373.304 115.567H398.66C402.885 115.567 406.31 118.992 406.31 123.217C406.31 127.443 402.885 130.867 398.66 130.867H373.304C369.079 130.867 365.654 127.442 365.654 123.217C365.654 118.992 369.079 115.567 373.304 115.567Z" fill="black"/>
<path d="M260.198 19.9455C260.531 19.0005 261.887 19.1543 262.034 20.1043L262.044 20.1956L263.103 35.6014L266.558 27.8898C266.802 27.3441 267.478 27.1627 267.96 27.4917L268.031 27.5449L271.143 30.1118H276.711L280.475 21.1583C280.833 20.3072 282.052 20.4224 282.271 21.2826L282.29 21.3742L284.585 35.4854L287.852 29.411C288.086 28.9757 288.611 28.7966 289.057 28.9844L289.14 29.0239C289.575 29.2581 289.754 29.7826 289.566 30.2291L289.527 30.3118L284.933 38.853C284.517 39.6264 283.382 39.4642 283.175 38.6425L283.157 38.5552L280.945 24.9492L278.22 31.4317C278.083 31.7574 277.778 31.9781 277.431 32.0101L277.343 32.0141H270.802C270.613 32.0141 270.429 31.9577 270.273 31.8531L270.198 31.7968L267.783 29.8056L263.284 39.8512C262.892 40.7264 261.618 40.5292 261.477 39.6181L261.467 39.5277L260.463 24.9251L258.195 31.3786C258.071 31.7301 257.755 31.9742 257.39 32.0096L257.298 32.0141H249.795C249.27 32.0141 248.845 31.5884 248.845 31.0632C248.845 30.569 249.222 30.1628 249.704 30.1167L249.795 30.1124L256.624 30.1118L260.198 19.9455Z" fill="black"/>
<path d="M381.555 19.6332C381.826 18.6788 383.173 18.7363 383.393 19.662L383.41 19.7543L385.302 32.5732L385.872 30.7761C385.988 30.4091 386.312 30.1514 386.69 30.1164L386.778 30.1124H391.766C392.292 30.1124 392.717 30.5381 392.717 31.0632C392.717 31.5575 392.34 31.9636 391.858 32.0097L391.766 32.0141L387.474 32.0134L385.87 37.0783C385.576 38.0089 384.259 37.934 384.041 37.0238L384.023 36.93L382.175 24.4066L380.209 31.3232C380.101 31.7028 379.771 31.9731 379.385 32.0098L379.294 32.0141L376.916 32.0134L375.207 37.0944C374.92 37.9494 373.733 37.9507 373.421 37.1407L373.391 37.0509L370.614 27.268L369.652 31.2849C369.556 31.684 369.217 31.9733 368.814 32.0101L368.727 32.0141H364.502C364.111 32.0141 363.764 31.7755 363.62 31.4185L363.591 31.334L361.509 24.3305L359.71 36.9256C359.59 37.7703 358.517 38.0289 358.017 37.3738L357.966 37.3001L354.336 31.5722C354.055 31.1286 354.187 30.5411 354.63 30.26C355.048 29.9955 355.593 30.0966 355.89 30.4792L355.943 30.5542L358.192 34.1047L360.242 19.7587C360.381 18.7801 361.716 18.6515 362.064 19.5338L362.094 19.6223L365.211 30.1117H367.977L369.612 23.293C369.833 22.373 371.096 22.3163 371.421 23.1641L371.452 23.255L374.383 33.5798L375.332 30.76C375.453 30.4007 375.774 30.1502 376.146 30.1163L376.233 30.1124L378.576 30.1117L381.555 19.6332Z" fill="black"/>
<path fill-rule="evenodd" clip-rule="evenodd" d="M329.714 143.116C329.714 149.355 324.656 154.413 318.416 154.413C312.177 154.413 307.118 149.355 307.118 143.116C307.118 136.876 312.177 131.818 318.416 131.818C324.656 131.818 329.714 136.876 329.714 143.116Z" fill="black"/>
<path fill-rule="evenodd" clip-rule="evenodd" d="M325.09 140.704C325.09 143.058 323.181 144.966 320.828 144.966C318.474 144.966 316.566 143.058 316.566 140.704C316.566 138.35 318.474 136.442 320.828 136.442C323.181 136.442 325.09 138.35 325.09 140.704Z" fill="white"/>
<path fill-rule="evenodd" clip-rule="evenodd" d="M404.821 256.054L386.013 274.862L367.206 256.054L386.013 237.246L404.821 256.054Z" fill="black"/>
<path d="M385.341 236.574L366.533 255.382C366.162 255.753 366.162 256.356 366.533 256.727L385.341 275.534C385.712 275.906 386.314 275.906 386.686 275.534L405.493 256.727C405.864 256.356 405.864 255.753 405.493 255.382L386.686 236.574C386.314 236.203 385.712 236.203 385.341 236.574ZM386.013 238.591L403.476 256.054L386.013 273.517L368.55 256.054L386.013 238.591Z" fill="black"/>
<path fill-rule="evenodd" clip-rule="evenodd" d="M423.628 256.054L404.82 274.862L386.013 256.054L404.82 237.246L423.628 256.054Z" fill="white"/>
<path d="M404.148 236.574L385.341 255.382C384.969 255.753 384.969 256.356 385.341 256.727L404.148 275.534C404.519 275.906 405.121 275.906 405.493 275.534L424.301 256.727C424.672 256.356 424.672 255.753 424.301 255.382L405.493 236.574C405.121 236.203 404.519 236.203 404.148 236.574ZM404.82 238.591L422.283 256.054L404.82 273.518L387.357 256.054L404.82 238.591Z" fill="black"/>
<path fill-rule="evenodd" clip-rule="evenodd" d="M442.436 256.054L423.628 274.862L404.82 256.054L423.628 237.246L442.436 256.054Z" fill="white"/>
<path d="M422.956 236.574L404.148 255.382C403.777 255.753 403.777 256.356 404.148 256.727L422.956 275.534C423.327 275.906 423.929 275.906 424.301 275.534L443.108 256.727C443.479 256.356 443.479 255.753 443.108 255.382L424.301 236.574C423.929 236.203 423.327 236.203 422.956 236.574ZM423.628 238.591L441.091 256.054L423.628 273.518L406.165 256.054L423.628 238.591Z" fill="black"/>
<path fill-rule="evenodd" clip-rule="evenodd" d="M333.93 168.635C333.93 172.518 330.782 175.666 326.899 175.666C323.015 175.666 319.867 172.518 319.867 168.635C319.867 164.752 323.015 161.604 326.899 161.604C330.782 161.604 333.93 164.752 333.93 168.635Z" fill="black"/>
<path fill-rule="evenodd" clip-rule="evenodd" d="M331.615 167.301C331.615 168.351 330.764 169.202 329.714 169.202C328.664 169.202 327.812 168.351 327.812 167.301C327.812 166.251 328.664 165.399 329.714 165.399C330.764 165.399 331.615 166.251 331.615 167.301Z" fill="white"/>
<path fill-rule="evenodd" clip-rule="evenodd" d="M300.771 155.304C300.771 157.787 298.758 159.8 296.275 159.8C293.792 159.8 291.779 157.787 291.779 155.304C291.779 152.821 293.792 150.807 296.275 150.807C298.758 150.807 300.771 152.821 300.771 155.304Z" fill="black"/>
<path fill-rule="evenodd" clip-rule="evenodd" d="M295.634 154.179C295.634 154.8 295.13 155.303 294.509 155.303C293.888 155.303 293.384 154.8 293.384 154.179C293.384 153.558 293.888 153.054 294.509 153.054C295.13 153.054 295.634 153.558 295.634 154.179Z" fill="white"/>
<path d="M32.689 203.483C33.0552 203.106 33.6572 203.098 34.0336 203.464C34.41 203.831 34.4182 204.433 34.052 204.809C18.7716 220.514 10.7476 242.777 13.7945 263.081C15.404 273.806 20.6052 283.704 28.0207 291.157L28.0796 291.215L28.0982 291.082C28.9219 285.431 30.5951 279.938 33.1829 274.745L33.5414 274.039C40.0723 261.41 51.1916 251.726 63.95 248.097C71.1125 246.061 79.2386 246.442 85.7573 249.234C93.0504 252.358 97.7679 258.171 98.6549 266.065C99.9687 277.75 94.8552 288.811 85.2838 296.677C76.1284 304.201 63.973 307.843 52.8482 306.159C44.3541 304.873 36.4846 301.049 29.9338 295.508L29.5604 295.188L29.5095 295.938C28.4083 313.62 35.4857 332.53 48.7528 348.18L49.3252 348.849C68.9669 371.576 100.531 382.327 132.262 378.224C156.947 375.031 180.371 362.387 197.345 343.361C197.695 342.969 198.296 342.935 198.688 343.284C199.08 343.634 199.114 344.235 198.764 344.627C181.49 363.989 157.651 376.857 132.506 380.11C100.166 384.292 67.9637 373.324 47.8864 350.092C33.5266 333.476 26.0177 313.103 27.7328 294.179L27.7899 293.588L27.5972 293.406C19.5582 285.717 13.8642 275.326 12.0144 264.005L11.9138 263.363C8.77489 242.446 17.0099 219.597 32.689 203.483ZM85.0086 250.982C78.9019 248.366 71.2233 248.006 64.4701 249.926C52.2387 253.405 41.5295 262.732 35.2306 274.913C32.4127 280.362 30.653 286.175 29.8713 292.169L29.7874 292.848L30.22 293.238C36.5431 298.866 44.2243 302.799 52.538 304.184L53.1328 304.278C63.7085 305.879 75.3263 302.398 84.0764 295.207C93.174 287.731 98.0028 277.286 96.7651 266.278C95.9582 259.096 91.699 253.848 85.0086 250.982Z" fill="black"/>
<path d="M410.432 322.591C420.101 322.591 428.811 328.008 433.176 336.449C435.035 340.045 436.018 344.039 436.018 348.177C436.018 350.392 435.737 352.571 435.186 354.677C435.053 355.185 434.533 355.489 434.025 355.356C433.517 355.223 433.213 354.703 433.346 354.195C433.856 352.246 434.117 350.229 434.117 348.177C434.117 344.345 433.207 340.65 431.487 337.323C427.445 329.507 419.383 324.493 410.432 324.493C397.48 324.493 386.955 334.886 386.746 347.785L386.744 348.325L386.747 348.45C386.772 348.974 386.368 349.42 385.843 349.445C385.319 349.471 384.873 349.066 384.847 348.542L384.844 348.448L384.841 348.311V348.177C384.841 334.047 396.299 322.591 410.432 322.591Z" fill="black"/>
<path d="M435.182 335.71C445.692 335.71 454.212 344.231 454.212 354.739C454.212 365.247 445.692 373.769 435.182 373.769C434.657 373.769 434.231 373.343 434.231 372.818C434.231 372.293 434.657 371.867 435.182 371.867C444.642 371.867 452.31 364.197 452.31 354.739C452.31 345.281 444.642 337.612 435.182 337.612C434.279 337.612 433.379 337.684 432.479 337.825C431.96 337.906 431.474 337.552 431.392 337.033C431.311 336.514 431.665 336.027 432.184 335.946C433.18 335.79 434.179 335.71 435.182 335.71Z" fill="black"/>
<path d="M385.733 347.547C386.257 347.512 386.711 347.908 386.746 348.432C386.781 348.956 386.385 349.409 385.861 349.444C379.993 349.841 375.41 354.726 375.41 360.638C375.41 366.842 380.433 371.867 386.633 371.867C387.158 371.867 387.584 372.292 387.584 372.817C387.584 373.343 387.158 373.768 386.633 373.768C379.383 373.768 373.508 367.892 373.508 360.638C373.508 353.724 378.869 348.011 385.733 347.547Z" fill="black"/>
<path d="M399.016 366.169C399.511 366.169 399.917 366.546 399.963 367.028L399.967 367.12V381.397C399.967 381.922 399.542 382.347 399.016 382.347C398.522 382.347 398.116 381.97 398.07 381.488L398.066 381.397V367.12C398.066 366.595 398.491 366.169 399.016 366.169Z" fill="black"/>
<path d="M410.947 366.169C411.441 366.169 411.847 366.546 411.893 367.028L411.898 367.12V390.394C411.898 390.919 411.472 391.344 410.947 391.344C410.452 391.344 410.046 390.967 410 390.485L409.996 390.394V367.12C409.996 366.595 410.422 366.169 410.947 366.169Z" fill="black"/>
<path d="M422.877 366.169C423.371 366.169 423.777 366.546 423.823 367.028L423.828 367.12V381.397C423.828 381.922 423.402 382.347 422.877 382.347C422.383 382.347 421.976 381.97 421.93 381.488L421.926 381.397V367.12C421.926 366.595 422.352 366.169 422.877 366.169Z" fill="black"/>
<path d="M125.262 16.4764C126.824 16.4764 128.348 16.7068 129.794 17.1587C130.295 17.3153 130.575 17.8486 130.418 18.3498C130.261 18.8511 129.728 19.1305 129.227 18.9739C127.965 18.5796 126.633 18.3782 125.262 18.3782C117.839 18.3782 111.822 24.3966 111.822 31.8246C111.822 39.248 117.841 45.271 125.262 45.271C125.787 45.271 126.213 45.6967 126.213 46.2218C126.213 46.747 125.787 47.1727 125.262 47.1727C116.791 47.1727 109.92 40.2981 109.92 31.8246C109.92 23.3464 116.788 16.4764 125.262 16.4764Z" fill="black"/>
<path d="M164.579 22.2024C164.741 21.7029 165.277 21.4291 165.777 21.591C171.139 23.3284 174.841 28.3406 174.841 34.065C174.841 41.3044 168.973 47.1729 161.733 47.1729C158.408 47.1729 155.276 45.9301 152.876 43.7299C152.489 43.375 152.463 42.7736 152.817 42.3865C153.172 41.9994 153.774 41.9732 154.161 42.3281C156.213 44.2098 158.889 45.2711 161.733 45.2711C167.922 45.2711 172.939 40.2541 172.939 34.065C172.939 29.1708 169.774 24.8851 165.191 23.4001C164.691 23.2382 164.418 22.702 164.579 22.2024Z" fill="black"/>
<path d="M147.64 0C158.191 0 166.751 8.56073 166.751 19.1123C166.751 20.3143 166.638 21.5096 166.418 22.6724C166.32 23.1883 165.823 23.5274 165.307 23.4297C164.791 23.3319 164.452 22.8344 164.55 22.3184C164.748 21.2721 164.849 20.1953 164.849 19.1123C164.849 9.61101 157.14 1.90172 147.64 1.90172C138.505 1.90172 130.975 9.04138 130.46 18.1202C130.43 18.6445 129.981 19.0454 129.457 19.0156C128.932 18.9859 128.531 18.5367 128.561 18.0124C129.134 7.92825 137.495 0 147.64 0Z" fill="black"/>
<path d="M127.74 45.269C128.266 45.269 128.691 45.6948 128.691 46.2199C128.691 46.7142 128.314 47.1203 127.832 47.1664L127.74 47.1708H125.264C124.739 47.1708 124.314 46.745 124.314 46.2199C124.314 45.7256 124.691 45.3195 125.173 45.2734L125.264 45.269H127.74Z" fill="black"/>
<path d="M135.364 35.0728C135.858 35.0728 136.264 35.4499 136.31 35.932L136.315 36.0236V59.8959C136.315 60.421 135.889 60.8467 135.364 60.8467C134.869 60.8467 134.463 60.4696 134.417 59.9874L134.413 59.8959V36.0236C134.413 35.4985 134.839 35.0728 135.364 35.0728Z" fill="black"/>
<path d="M145.732 26.6796C146.226 26.6796 146.633 27.0567 146.679 27.5389L146.683 27.6304V51.5027C146.683 52.0278 146.257 52.4535 145.732 52.4535C145.238 52.4535 144.832 52.0764 144.786 51.5942L144.781 51.5027V27.6304C144.781 27.1053 145.207 26.6796 145.732 26.6796Z" fill="black"/>
<path d="M308.816 170.579C308.977 170.112 309.466 169.85 309.937 169.963L310.025 169.989L317.308 172.493C317.804 172.664 318.068 173.205 317.898 173.701C317.737 174.169 317.248 174.43 316.777 174.317L316.689 174.291L309.406 171.787C308.91 171.617 308.646 171.076 308.816 170.579Z" fill="black"/>
<path d="M305.175 175.629C305.335 175.161 305.824 174.9 306.295 175.013L306.383 175.039L313.666 177.543C314.162 177.714 314.427 178.255 314.256 178.752C314.095 179.219 313.606 179.481 313.135 179.367L313.047 179.342L305.764 176.837C305.268 176.666 305.004 176.125 305.175 175.629Z" fill="black"/>
</svg>
