<svg width="42" height="38" viewBox="0 0 42 38" fill="none" xmlns="http://www.w3.org/2000/svg">
<path d="M7.44532 1.76317C7.44827 1.75871 7.45107 1.75416 7.45372 1.74953C7.98585 0.820592 8.95652 0.250161 10.003 0.25C10.003 0.25 10.003 0.25 10.003 0.25H31.9962C32.9703 0.251236 33.8822 0.747611 34.4356 1.58395L41.1518 11.7402L41.1516 11.7404L41.1583 11.7496C42.0085 12.9161 41.9366 14.5354 40.9805 15.6194L40.9802 15.6197C39.0203 17.8488 37.0265 20.1403 35.0986 22.356L35.089 22.3671L35.0778 22.3799C31.1974 26.8395 27.1874 31.448 23.1812 35.8659L23.1797 35.8676C22.6197 36.4963 21.8248 36.8553 20.9985 36.8553H20.9962C20.1671 36.8546 19.3705 36.4924 18.8118 35.859L1.01732 15.6176L1.01689 15.6171C0.0979484 14.5773 -0.00745593 13.0314 0.767307 11.8615L0.767396 11.8614L7.44532 1.76317ZM12.5579 15.1069C12.5229 15.0064 12.4282 14.939 12.3218 14.939H4.60872C4.51052 14.939 4.42141 14.9965 4.38094 15.0859C4.34047 15.1754 4.35612 15.2803 4.42096 15.354L17.1792 29.8666C17.2582 29.9564 17.3896 29.9778 17.4929 29.9175C17.5962 29.8573 17.6424 29.7324 17.6031 29.6195L12.5579 15.1069ZM24.1832 3.16266C24.1529 3.05484 24.0545 2.98035 23.9425 2.98035H18.0568C17.9448 2.98035 17.8464 3.05484 17.8161 3.16267L15.3615 11.8911C15.3403 11.9665 15.3556 12.0474 15.4029 12.1098C15.4502 12.1721 15.5239 12.2088 15.6022 12.2088H26.3973C26.4756 12.2088 26.5493 12.1721 26.5966 12.1098C26.6438 12.0474 26.6591 11.9665 26.638 11.8911L24.1832 3.16266ZM26.4939 15.2711C26.5205 15.1946 26.5084 15.1101 26.4615 15.0441C26.4146 14.9782 26.3387 14.939 26.2577 14.939H15.7416C15.6606 14.939 15.5847 14.9782 15.5378 15.0441C15.4909 15.1101 15.4788 15.1946 15.5054 15.2711L20.7635 30.3958C20.7985 30.4963 20.8932 30.5637 20.9996 30.5637C21.1061 30.5637 21.2008 30.4963 21.2358 30.3958L26.4939 15.2711ZM24.3508 29.7501C24.3116 29.8628 24.3576 29.9875 24.4605 30.0479C24.5634 30.1082 24.6947 30.0874 24.7739 29.9982C27.557 26.8629 30.3257 23.682 33.0293 20.575L32.8407 20.4109L33.0293 20.575C34.5225 18.8589 36.0545 17.0984 37.5819 15.3537C37.6465 15.2798 37.662 15.175 37.6215 15.0857C37.581 14.9964 37.4919 14.939 37.3938 14.939H29.6775C29.5711 14.939 29.4764 15.0064 29.4414 15.1069L24.3508 29.7501ZM37.7233 12.2088C37.8153 12.2088 37.8999 12.1582 37.9435 12.0772C37.9871 11.9961 37.9826 11.8977 37.9318 11.8209L32.1598 3.09245C32.1135 3.02245 32.0352 2.98035 31.9513 2.98035H27.298C27.2198 2.98035 27.146 3.017 27.0988 3.07938C27.0515 3.14177 27.0362 3.22268 27.0574 3.29803L29.512 12.0265C29.5423 12.1343 29.6406 12.2088 29.7526 12.2088H37.7233ZM10.0401 2.98035C9.95229 2.98035 9.87091 3.02643 9.82574 3.10173L9.82506 3.10285L9.82428 3.10415L9.82408 3.10403L9.81886 3.11365C9.79902 3.15026 9.77832 3.18504 9.75638 3.218L9.756 3.21859L4.06748 11.8209C4.01671 11.8977 4.01223 11.9961 4.05581 12.0772C4.09939 12.1582 4.18397 12.2088 4.27601 12.2088H12.2467C12.3587 12.2088 12.457 12.1343 12.4873 12.0265L14.9419 3.29803C14.9631 3.22268 14.9478 3.14177 14.9005 3.07938C14.8533 3.017 14.7795 2.98035 14.7013 2.98035H10.0401Z" fill="#512DC8" stroke="white" stroke-width="0.5" stroke-linejoin="round"/>
</svg>
