<svg width="67" height="66" viewBox="0 0 67 66" fill="none" xmlns="http://www.w3.org/2000/svg">
<path fill-rule="evenodd" clip-rule="evenodd" d="M25.6793 51.3587C39.8617 51.3587 51.3587 39.8617 51.3587 25.6793C51.3587 11.497 39.8617 0 25.6793 0C11.497 0 0 11.497 0 25.6793C0 39.8617 11.497 51.3587 25.6793 51.3587ZM25.6793 47.2499C37.5925 47.2499 47.25 37.5924 47.25 25.6792C47.25 13.7661 37.5925 4.10858 25.6793 4.10858C13.7662 4.10858 4.1087 13.7661 4.1087 25.6792C4.1087 37.5924 13.7662 47.2499 25.6793 47.2499Z" fill="#5131BD"/>
<line x1="43.5397" y1="42.7431" x2="64.768" y2="63.9714" stroke="#5131BD" stroke-width="5"/>
<path d="M18.4513 10.1035C21.7691 8.60264 29.738 6.96001 35.0711 12.3964" stroke="#D8DBFF" stroke-width="5"/>
</svg>
