<svg width="46" height="40" viewBox="0 0 46 40" fill="none" xmlns="http://www.w3.org/2000/svg">
<path d="M17 28C21.4183 28 25 24.4183 25 20C25 15.5817 21.4183 12 17 12C12.5817 12 9 15.5817 9 20C9 24.4183 12.5817 28 17 28Z" stroke="#512DC8" stroke-width="2" stroke-miterlimit="10" stroke-linecap="round" stroke-linejoin="round"/>
<path d="M10.079 16H5C3.93913 16 2.92172 16.4214 2.17157 17.1716C1.42143 17.9217 1 18.9391 1 20V32C1 33.0609 1.42143 34.0783 2.17157 34.8284C2.92172 35.5786 3.93913 36 5 36H41C42.0609 36 43.0783 35.5786 43.8284 34.8284C44.5786 34.0783 45 33.0609 45 32V20C45 18.9391 44.5786 17.9217 43.8284 17.1716C43.0783 16.4214 42.0609 16 41 16H23.921" stroke="#512DC8" stroke-width="2" stroke-miterlimit="10" stroke-linecap="round" stroke-linejoin="round"/>
<path d="M17 22C18.1046 22 19 21.1046 19 20C19 18.8954 18.1046 18 17 18C15.8954 18 15 18.8954 15 20C15 21.1046 15.8954 22 17 22Z" stroke="#512DC8" stroke-width="2" stroke-miterlimit="10" stroke-linecap="round" stroke-linejoin="round"/>
<path d="M32 23H38" stroke="#512DC8" stroke-width="2" stroke-miterlimit="10" stroke-linecap="round" stroke-linejoin="round"/>
<path d="M32 29H38" stroke="#512DC8" stroke-width="2" stroke-miterlimit="10" stroke-linecap="round" stroke-linejoin="round"/>
<path d="M9 36V39" stroke="#512DC8" stroke-width="2" stroke-miterlimit="10" stroke-linecap="round" stroke-linejoin="round"/>
<path d="M37 36V39" stroke="#512DC8" stroke-width="2" stroke-miterlimit="10" stroke-linecap="round" stroke-linejoin="round"/>
<path d="M17 6V1" stroke="#512DC8" stroke-width="2" stroke-miterlimit="10" stroke-linecap="round" stroke-linejoin="round"/>
<path d="M26.8989 10.1014L30.4349 6.56543" stroke="#512DC8" stroke-width="2" stroke-miterlimit="10" stroke-linecap="round" stroke-linejoin="round"/>
<path d="M7.10094 10.1014L3.56494 6.56543" stroke="#512DC8" stroke-width="2" stroke-miterlimit="10" stroke-linecap="round" stroke-linejoin="round"/>
</svg>
