<svg width="644" height="521" viewBox="0 0 644 521" fill="none" xmlns="http://www.w3.org/2000/svg">
<path d="M198.303 111.712C201.628 105.011 203.509 99.1737 202.503 98.6749C201.498 98.1762 197.988 103.204 194.663 109.906C191.338 116.608 189.457 122.444 190.462 122.943C191.467 123.442 194.978 118.414 198.303 111.712Z" fill="#E0E0E0"/>
<path d="M366.977 195.483C370.302 188.781 372.444 183.074 371.761 182.735C371.078 182.396 367.829 187.554 364.504 194.256C361.179 200.957 359.037 206.665 359.72 207.003C360.403 207.342 363.652 202.184 366.977 195.483Z" fill="#E0E0E0"/>
<path d="M276.337 161.604L270.07 156.429L252.82 177.319L259.087 182.494L276.337 161.604Z" fill="#E86189"/>
<path d="M262.914 184.393L270.826 186.254L277.027 159.881L269.115 158.021L262.914 184.393Z" fill="#E86189"/>
<path d="M202.805 98.0683L190.162 123.55L359.433 207.537L372.077 182.056L202.805 98.0683Z" fill="url(#paint0_linear)"/>
<path d="M359.733 206.93C356.42 205.341 188.035 121.738 190.462 122.942C199.808 108.678 202.503 98.6741 202.503 98.6741L371.775 182.662C371.775 182.662 365.83 193.094 359.733 206.93Z" fill="#F5F5F5"/>
<path d="M289.87 142.023L277.129 135.701L265.088 159.969L277.828 166.291L289.87 142.023Z" fill="#E86189"/>
<path d="M286.835 140.518L279.555 136.905L267.514 161.173L274.794 164.786L286.835 140.518Z" fill="#F55F44"/>
<path d="M285.856 218.79C286.479 218.79 286.985 218.285 286.985 217.661C286.985 217.037 286.479 216.532 285.856 216.532C285.232 216.532 284.726 217.037 284.726 217.661C284.726 218.285 285.232 218.79 285.856 218.79Z" fill="#DBDBDB"/>
<g opacity="0.5">
<path opacity="0.5" d="M197.503 186.039H196.345V192.601H197.503V186.039Z" fill="#5EB3E2"/>
<path opacity="0.5" d="M200.205 189.898V188.74H193.643V189.898H200.205Z" fill="#5EB3E2"/>
</g>
<g opacity="0.5">
<path opacity="0.5" d="M489.299 104.213H488.141V110.775H489.299V104.213Z" fill="#5EB3E2"/>
<path opacity="0.5" d="M492.001 108.072V106.915H485.44V108.072H492.001Z" fill="#5EB3E2"/>
</g>
<g opacity="0.5">
<path opacity="0.5" d="M204.449 22.7721H203.291V29.3337H204.449V22.7721Z" fill="#47E6B1"/>
<path opacity="0.5" d="M207.151 26.6312V25.4733H200.589V26.6312H207.151Z" fill="#47E6B1"/>
</g>
<g opacity="0.5">
<path opacity="0.5" d="M454.559 12.7381H453.401V19.2997H454.559V12.7381Z" fill="#5EB3E2"/>
<path opacity="0.5" d="M457.261 16.5972V15.4393H450.699V16.5972H457.261Z" fill="#5EB3E2"/>
</g>
<path opacity="0.5" d="M189.742 97.8275C189.423 97.6886 189.166 97.4371 189.02 97.121C188.874 96.8049 188.85 96.4463 188.951 96.1134C188.968 96.0624 188.978 96.0096 188.982 95.9561C188.992 95.8036 188.951 95.6521 188.868 95.5242C188.784 95.3962 188.662 95.2986 188.519 95.2457C188.375 95.1928 188.219 95.1875 188.072 95.2305C187.925 95.2736 187.796 95.3628 187.705 95.4848C187.673 95.5281 187.646 95.5749 187.626 95.6244C187.487 95.9435 187.235 96.2004 186.919 96.3461C186.603 96.4918 186.245 96.5162 185.912 96.4147C185.861 96.3983 185.808 96.3879 185.754 96.3839C185.602 96.3746 185.45 96.4147 185.322 96.4982C185.194 96.5817 185.097 96.7042 185.044 96.8476C184.991 96.991 184.986 97.1475 185.029 97.2941C185.072 97.4408 185.161 97.5696 185.283 97.6616C185.326 97.6932 185.373 97.7197 185.423 97.7403C185.742 97.8793 185.999 98.1307 186.144 98.4468C186.29 98.7629 186.315 99.1215 186.213 99.4544C186.197 99.5054 186.186 99.5582 186.182 99.6117C186.173 99.7642 186.213 99.9157 186.296 100.044C186.38 100.172 186.502 100.269 186.646 100.322C186.789 100.375 186.946 100.38 187.092 100.337C187.239 100.294 187.368 100.205 187.46 100.083C187.492 100.04 187.518 99.9929 187.539 99.9434C187.678 99.6243 187.929 99.3674 188.245 99.2217C188.561 99.076 188.92 99.0516 189.253 99.1531C189.304 99.1696 189.357 99.1799 189.41 99.184C189.563 99.1933 189.714 99.1532 189.842 99.0696C189.97 98.9861 190.068 98.8636 190.12 98.7202C190.173 98.5769 190.179 98.4203 190.136 98.2737C190.092 98.1271 190.003 97.9982 189.881 97.9062C189.838 97.8746 189.791 97.8482 189.742 97.8275Z" fill="#EF769A"/>
<path opacity="0.5" d="M256.13 21.7906C255.811 21.6516 255.554 21.4002 255.408 21.0841C255.262 20.768 255.238 20.4094 255.339 20.0765C255.356 20.0255 255.366 19.9727 255.37 19.9192C255.38 19.7667 255.339 19.6152 255.256 19.4872C255.172 19.3593 255.05 19.2616 254.907 19.2087C254.763 19.1559 254.607 19.1506 254.46 19.1936C254.313 19.2367 254.185 19.3258 254.093 19.4478C254.061 19.4911 254.034 19.538 254.014 19.5875C253.875 19.9066 253.623 20.1635 253.307 20.3092C252.991 20.4549 252.633 20.4793 252.3 20.3778C252.249 20.3613 252.196 20.351 252.142 20.3469C251.99 20.3376 251.838 20.3777 251.71 20.4613C251.582 20.5448 251.485 20.6673 251.432 20.8107C251.379 20.954 251.374 21.1106 251.417 21.2572C251.46 21.4038 251.549 21.5327 251.671 21.6247C251.714 21.6563 251.761 21.6827 251.811 21.7034C252.13 21.8424 252.387 22.0938 252.532 22.4099C252.678 22.726 252.703 23.0846 252.601 23.4175C252.585 23.4685 252.574 23.5213 252.57 23.5748C252.561 23.7273 252.601 23.8788 252.684 24.0067C252.768 24.1347 252.89 24.2324 253.034 24.2852C253.177 24.3381 253.334 24.3434 253.48 24.3004C253.627 24.2573 253.756 24.1682 253.848 24.0461C253.88 24.0028 253.906 23.956 253.927 23.9065C254.066 23.5874 254.317 23.3305 254.633 23.1848C254.949 23.0391 255.308 23.0147 255.641 23.1162C255.692 23.1326 255.745 23.143 255.798 23.1471C255.951 23.1563 256.102 23.1163 256.23 23.0327C256.358 22.9492 256.456 22.8267 256.508 22.6833C256.561 22.54 256.567 22.3834 256.524 22.2368C256.481 22.0901 256.391 21.9613 256.269 21.8693C256.226 21.8377 256.179 21.8113 256.13 21.7906Z" fill="#4D8AF0"/>
<path opacity="0.5" d="M337.184 219.024C336.865 218.885 336.608 218.633 336.463 218.317C336.317 218.001 336.293 217.642 336.394 217.309C336.411 217.258 336.421 217.206 336.425 217.152C336.434 217 336.394 216.848 336.311 216.72C336.227 216.592 336.105 216.495 335.961 216.442C335.818 216.389 335.661 216.384 335.515 216.427C335.368 216.47 335.239 216.559 335.147 216.681C335.116 216.724 335.089 216.771 335.069 216.82C334.93 217.14 334.678 217.396 334.362 217.542C334.046 217.688 333.687 217.712 333.354 217.611C333.303 217.594 333.251 217.584 333.197 217.58C333.045 217.571 332.893 217.611 332.765 217.694C332.637 217.778 332.54 217.9 332.487 218.044C332.434 218.187 332.429 218.344 332.472 218.49C332.515 218.637 332.604 218.766 332.726 218.858C332.769 218.889 332.816 218.916 332.865 218.936C333.185 219.075 333.441 219.327 333.587 219.643C333.733 219.959 333.757 220.318 333.656 220.65C333.639 220.701 333.629 220.754 333.625 220.808C333.616 220.96 333.656 221.112 333.739 221.24C333.823 221.368 333.945 221.465 334.089 221.518C334.232 221.571 334.389 221.576 334.535 221.533C334.682 221.49 334.811 221.401 334.903 221.279C334.934 221.236 334.961 221.189 334.981 221.139C335.12 220.82 335.372 220.563 335.688 220.418C336.004 220.272 336.363 220.248 336.695 220.349C336.746 220.366 336.799 220.376 336.853 220.38C337.005 220.389 337.157 220.349 337.285 220.266C337.413 220.182 337.51 220.06 337.563 219.916C337.616 219.773 337.621 219.616 337.578 219.47C337.535 219.323 337.446 219.194 337.324 219.102C337.281 219.071 337.234 219.044 337.184 219.024Z" fill="#4D8AF0"/>
<path opacity="0.5" d="M478.106 173.689C479.385 173.689 480.421 172.652 480.421 171.373C480.421 170.094 479.385 169.057 478.106 169.057C476.827 169.057 475.79 170.094 475.79 171.373C475.79 172.652 476.827 173.689 478.106 173.689Z" fill="#EF769A"/>
<path opacity="0.5" d="M427.157 188.356C428.436 188.356 429.473 187.319 429.473 186.04C429.473 184.761 428.436 183.724 427.157 183.724C425.878 183.724 424.841 184.761 424.841 186.04C424.841 187.319 425.878 188.356 427.157 188.356Z" fill="#4D8AF0"/>
<path opacity="0.5" d="M224.906 211.128C226.185 211.128 227.222 210.091 227.222 208.812C227.222 207.533 226.185 206.496 224.906 206.496C223.627 206.496 222.59 207.533 222.59 208.812C222.59 210.091 223.627 211.128 224.906 211.128Z" fill="#EF769A"/>
<path opacity="0.5" d="M343.786 4.63163C345.065 4.63163 346.102 3.59479 346.102 2.31579C346.102 1.03678 345.065 -6.10352e-05 343.786 -6.10352e-05C342.507 -6.10352e-05 341.47 1.03678 341.47 2.31579C341.47 3.59479 342.507 4.63163 343.786 4.63163Z" fill="#EF769A"/>
<path d="M264.082 137.985L254.819 151.881C254.819 151.881 257.907 166.162 326.224 165.776C394.542 165.39 399.945 151.881 399.945 151.881L387.208 133.354L348.225 106.722L264.082 137.985Z" fill="#6856AF"/>
<path opacity="0.15" d="M264.082 137.985L254.819 151.881C254.819 151.881 257.907 166.162 326.224 165.776C394.542 165.39 399.945 151.881 399.945 151.881L387.208 133.354L348.225 106.722L264.082 137.985Z" fill="#6856AF"/>
<path d="M461.122 86.4582L339.54 140.109L191.325 86.4582L327.188 24.7023L393.881 55.4529L396.27 56.5567L461.122 86.4582Z" fill="#6856AF"/>
<path opacity="0.15" d="M461.122 86.4582L339.54 140.109L191.325 86.4582L327.188 24.7023L393.881 55.4529L396.27 56.5567L461.122 86.4582Z" fill="#6856AF"/>
<path d="M398.787 99.3189L396.471 99.4579L393.881 55.4529L396.27 56.5568L398.787 99.3189Z" fill="#F5F5F5"/>
<path d="M265.626 86.2655L254.819 151.881C254.819 151.881 332.4 126.793 399.945 151.881L389.91 82.4057C389.91 82.4057 299.206 71.2125 265.626 86.2655Z" fill="#A873FA"/>
<path d="M398.594 112.705C404.776 112.705 409.787 109.249 409.787 104.985C409.787 100.722 404.776 97.2659 398.594 97.2659C392.412 97.2659 387.401 100.722 387.401 104.985C387.401 109.249 392.412 112.705 398.594 112.705Z" fill="#F5F5F5"/>
<path d="M344.9 287.435C350.892 283.453 355.265 279.496 354.667 278.597C354.07 277.698 348.728 280.198 342.737 284.181C336.745 288.163 332.372 292.12 332.969 293.019C333.567 293.918 338.908 291.418 344.9 287.435Z" fill="#E0E0E0"/>
<path d="M445.099 438.31C451.091 434.327 455.619 430.604 455.213 429.993C454.807 429.382 449.621 432.116 443.629 436.098C437.638 440.081 433.11 443.804 433.515 444.415C433.921 445.025 439.108 442.292 445.099 438.31Z" fill="#E0E0E0"/>
<path d="M385.9 366.51L383.169 359.186L358.758 368.29L361.489 375.614L385.9 366.51Z" fill="#E86189"/>
<path d="M363.764 379.036L369.458 384.39L387.304 365.407L381.609 360.054L363.764 379.036Z" fill="#E86189"/>
<path d="M355.21 278.237L332.427 293.38L433.02 444.722L455.803 429.579L355.21 278.237Z" fill="url(#paint1_linear)"/>
<path d="M433.562 444.361C431.567 441.444 331.528 290.849 332.97 293.019C347.613 285.633 354.668 278.597 354.668 278.597L455.26 429.939C455.26 429.939 445.293 435.77 433.562 444.361Z" fill="#F5F5F5"/>
<path d="M406.586 356.709L399.015 345.318L377.317 359.739L384.889 371.131L406.586 356.709Z" fill="#E86189"/>
<path d="M404.783 353.997L400.457 347.488L378.759 361.909L383.085 368.419L404.783 353.997Z" fill="#F55F44"/>
<path d="M366.33 418.715C366.85 419.014 367.514 418.836 367.814 418.317C368.114 417.798 367.936 417.133 367.416 416.834C366.897 416.534 366.233 416.712 365.933 417.231C365.633 417.75 365.811 418.415 366.33 418.715Z" fill="#DBDBDB"/>
<g opacity="0.5">
<path opacity="0.5" d="M308.493 348.953L307.529 348.397L304.373 353.861L305.338 354.418L308.493 348.953Z" fill="#5EB3E2"/>
<path opacity="0.5" d="M308.888 353.467L309.444 352.502L303.98 349.347L303.423 350.312L308.888 353.467Z" fill="#5EB3E2"/>
</g>
<g opacity="0.5">
<path opacity="0.5" d="M590.861 421.115L589.897 420.558L586.742 426.023L587.706 426.58L590.861 421.115Z" fill="#5EB3E2"/>
<path opacity="0.5" d="M591.256 425.628L591.813 424.664L586.348 421.509L585.791 422.473L591.256 425.628Z" fill="#5EB3E2"/>
</g>
<g opacity="0.5">
<path opacity="0.5" d="M392.786 216.319L391.822 215.762L388.667 221.227L389.631 221.783L392.786 216.319Z" fill="#47E6B1"/>
<path opacity="0.5" d="M393.181 220.832L393.737 219.867L388.273 216.712L387.716 217.677L393.181 220.832Z" fill="#47E6B1"/>
</g>
<g opacity="0.5">
<path opacity="0.5" d="M605.915 328.224L604.95 327.668L601.795 333.132L602.76 333.689L605.915 328.224Z" fill="#5EB3E2"/>
<path opacity="0.5" d="M606.309 332.738L606.866 331.773L601.401 328.618L600.845 329.583L606.309 332.738Z" fill="#5EB3E2"/>
</g>
<path opacity="0.5" d="M344.446 271.755C344.247 271.486 344.154 271.153 344.185 270.82C344.216 270.487 344.368 270.176 344.612 269.948C344.651 269.913 344.685 269.874 344.714 269.832C344.795 269.709 344.834 269.564 344.826 269.417C344.818 269.27 344.763 269.13 344.669 269.017C344.575 268.904 344.447 268.824 344.305 268.79C344.162 268.755 344.012 268.767 343.876 268.825C343.829 268.845 343.785 268.872 343.744 268.903C343.474 269.102 343.141 269.195 342.808 269.164C342.475 269.134 342.164 268.982 341.936 268.737C341.901 268.699 341.862 268.665 341.82 268.636C341.697 268.555 341.552 268.515 341.405 268.523C341.258 268.531 341.118 268.586 341.005 268.68C340.892 268.774 340.812 268.902 340.778 269.045C340.743 269.188 340.755 269.338 340.813 269.473C340.834 269.52 340.86 269.565 340.891 269.606C341.09 269.875 341.183 270.208 341.153 270.541C341.122 270.875 340.97 271.185 340.725 271.414C340.687 271.448 340.653 271.487 340.624 271.53C340.543 271.652 340.503 271.798 340.511 271.944C340.519 272.091 340.575 272.231 340.669 272.344C340.763 272.457 340.89 272.537 341.033 272.572C341.176 272.606 341.326 272.594 341.461 272.537C341.509 272.516 341.553 272.489 341.594 272.458C341.863 272.259 342.196 272.166 342.53 272.197C342.863 272.227 343.173 272.38 343.402 272.624C343.436 272.662 343.475 272.696 343.518 272.726C343.64 272.807 343.786 272.846 343.933 272.838C344.079 272.83 344.22 272.775 344.333 272.681C344.446 272.587 344.525 272.459 344.56 272.316C344.595 272.173 344.582 272.023 344.525 271.888C344.504 271.841 344.478 271.796 344.446 271.755Z" fill="#EF769A"/>
<path opacity="0.5" d="M436.3 240.35C436.101 240.081 436.008 239.748 436.038 239.415C436.069 239.082 436.221 238.771 436.466 238.543C436.504 238.508 436.538 238.469 436.567 238.427C436.648 238.304 436.688 238.159 436.68 238.012C436.672 237.865 436.616 237.725 436.522 237.612C436.429 237.499 436.301 237.419 436.158 237.385C436.015 237.35 435.865 237.362 435.73 237.42C435.682 237.441 435.638 237.467 435.597 237.498C435.328 237.697 434.995 237.79 434.661 237.759C434.328 237.729 434.018 237.577 433.789 237.332C433.755 237.294 433.716 237.26 433.673 237.231C433.551 237.15 433.405 237.11 433.258 237.118C433.112 237.126 432.971 237.181 432.858 237.275C432.745 237.369 432.666 237.497 432.631 237.64C432.596 237.783 432.609 237.933 432.666 238.068C432.687 238.115 432.713 238.16 432.745 238.201C432.944 238.47 433.037 238.803 433.006 239.136C432.975 239.47 432.823 239.78 432.579 240.009C432.54 240.043 432.506 240.082 432.477 240.125C432.396 240.247 432.357 240.393 432.365 240.539C432.373 240.686 432.428 240.826 432.522 240.939C432.616 241.052 432.744 241.132 432.886 241.167C433.029 241.201 433.179 241.189 433.315 241.132C433.362 241.111 433.406 241.085 433.447 241.053C433.717 240.854 434.05 240.761 434.383 240.792C434.716 240.823 435.027 240.975 435.255 241.219C435.29 241.258 435.329 241.292 435.371 241.321C435.494 241.402 435.639 241.441 435.786 241.433C435.933 241.425 436.073 241.37 436.186 241.276C436.299 241.182 436.379 241.054 436.413 240.911C436.448 240.769 436.436 240.618 436.378 240.483C436.357 240.436 436.331 240.391 436.3 240.35Z" fill="#4D8AF0"/>
<path opacity="0.5" d="M408.967 443.59C408.768 443.321 408.675 442.988 408.706 442.654C408.737 442.321 408.889 442.011 409.133 441.782C409.172 441.747 409.206 441.708 409.235 441.666C409.316 441.543 409.355 441.398 409.347 441.251C409.339 441.104 409.284 440.964 409.19 440.851C409.096 440.738 408.968 440.659 408.825 440.624C408.683 440.589 408.532 440.602 408.397 440.659C408.35 440.68 408.305 440.706 408.264 440.737C407.995 440.936 407.662 441.029 407.329 440.999C406.996 440.968 406.685 440.816 406.457 440.571C406.422 440.533 406.383 440.499 406.341 440.47C406.218 440.389 406.073 440.35 405.926 440.358C405.779 440.366 405.639 440.421 405.526 440.515C405.413 440.609 405.333 440.737 405.299 440.879C405.264 441.022 405.276 441.172 405.334 441.308C405.355 441.355 405.381 441.399 405.412 441.44C405.611 441.709 405.704 442.042 405.673 442.376C405.643 442.709 405.491 443.019 405.246 443.248C405.208 443.282 405.174 443.321 405.145 443.364C405.064 443.487 405.024 443.632 405.032 443.779C405.04 443.926 405.095 444.066 405.189 444.179C405.283 444.292 405.411 444.371 405.554 444.406C405.697 444.441 405.847 444.428 405.982 444.371C406.029 444.35 406.074 444.324 406.115 444.293C406.384 444.094 406.717 444.001 407.05 444.031C407.384 444.062 407.694 444.214 407.923 444.459C407.957 444.497 407.996 444.531 408.039 444.56C408.161 444.641 408.307 444.68 408.453 444.672C408.6 444.664 408.74 444.609 408.853 444.515C408.966 444.421 409.046 444.293 409.081 444.151C409.115 444.008 409.103 443.858 409.046 443.722C409.025 443.675 408.999 443.631 408.967 443.59Z" fill="#4D8AF0"/>
<path opacity="0.5" d="M548.132 473.594C549.197 474.209 550.56 473.844 551.175 472.779C551.79 471.714 551.425 470.352 550.359 469.737C549.294 469.122 547.932 469.487 547.317 470.552C546.702 471.617 547.067 472.979 548.132 473.594Z" fill="#EF769A"/>
<path opacity="0.5" d="M498.647 461.31C499.712 461.925 501.074 461.561 501.689 460.495C502.304 459.43 501.939 458.068 500.874 457.453C499.809 456.838 498.446 457.203 497.831 458.268C497.216 459.333 497.581 460.695 498.647 461.31Z" fill="#4D8AF0"/>
<path opacity="0.5" d="M319.253 383.026C320.319 383.641 321.681 383.276 322.296 382.211C322.911 381.146 322.546 379.784 321.481 379.169C320.415 378.554 319.053 378.919 318.438 379.984C317.823 381.049 318.188 382.411 319.253 383.026Z" fill="#EF769A"/>
<path opacity="0.5" d="M517.554 268.209C518.62 268.824 519.982 268.459 520.597 267.394C521.212 266.328 520.847 264.966 519.781 264.351C518.716 263.736 517.354 264.101 516.739 265.166C516.124 266.232 516.489 267.594 517.554 268.209Z" fill="#EF769A"/>
<path d="M387.051 340.947L372.654 348.065C372.654 348.065 368.359 361.444 425.442 393.973C482.526 426.501 493.522 417.849 493.522 417.849L491.823 396.294L472.161 355.368L387.051 340.947Z" fill="#6856AF"/>
<path opacity="0.15" d="M387.051 340.947L372.654 348.065C372.654 348.065 368.359 361.444 425.442 393.973C482.526 426.501 493.522 417.849 493.522 417.849L491.823 396.294L472.161 355.368L387.051 340.947Z" fill="#6856AF"/>
<path d="M575.932 392.778L448.875 378.998L351.233 263.048L494.081 276.943L534.839 334.623L536.298 336.691L575.932 392.778Z" fill="#6856AF"/>
<path opacity="0.15" d="M575.932 392.778L448.875 378.998L351.233 263.048L494.081 276.943L534.839 334.623L536.298 336.691L575.932 392.778Z" fill="#6856AF"/>
<path d="M517.832 373.516L515.836 372.518L534.839 334.623L536.298 336.691L517.832 373.516Z" fill="#F5F5F5"/>
<path d="M413.207 298.615L372.655 348.066C372.655 348.066 449.331 364.475 493.523 417.849L518.572 355.161C518.572 355.161 448.412 302.224 413.207 298.615Z" fill="#A873FA"/>
<path d="M511.235 384.571C516.384 387.544 522.22 387.075 524.27 383.524C526.32 379.974 523.808 374.685 518.659 371.713C513.511 368.74 507.675 369.209 505.625 372.76C503.575 376.311 506.087 381.599 511.235 384.571Z" fill="#F5F5F5"/>
<path d="M51.7572 375.123C51.3953 369.388 50.4045 364.782 49.5442 364.837C48.6839 364.891 48.2798 369.584 48.6418 375.32C49.0037 381.055 49.9945 385.661 50.8548 385.606C51.7151 385.552 52.1191 380.859 51.7572 375.123Z" fill="#E0E0E0"/>
<path d="M196.145 366.067C195.783 360.332 195.016 355.712 194.431 355.749C193.847 355.786 193.666 360.465 194.028 366.201C194.39 371.936 195.157 376.556 195.742 376.519C196.326 376.482 196.507 371.803 196.145 366.067Z" fill="#E0E0E0"/>
<path d="M122.833 378.342L116.676 377.307L113.224 397.83L119.381 398.865L122.833 378.342Z" fill="#E86189"/>
<path d="M122.657 398.659L128.635 396.858L122.631 376.932L116.653 378.733L122.657 398.659Z" fill="#E86189"/>
<path d="M49.5118 364.318L50.888 386.126L195.756 376.984L194.38 355.176L49.5118 364.318Z" fill="url(#paint2_linear)"/>
<path d="M195.723 376.464C192.908 376.68 48.7775 385.737 50.8545 385.606C51.5931 372.527 49.5439 364.836 49.5439 364.836L194.412 355.695C194.412 355.695 194.464 364.918 195.723 376.464Z" fill="#F5F5F5"/>
<path d="M124.315 360.118L113.411 360.806L114.721 381.576L125.625 380.888L124.315 360.118Z" fill="#E86189"/>
<path d="M121.718 360.282L115.487 360.675L116.798 381.445L123.029 381.051L121.718 360.282Z" fill="#F55F44"/>
<path d="M151.13 412.73C151.545 412.491 151.687 411.96 151.448 411.545C151.208 411.13 150.678 410.988 150.263 411.228C149.848 411.467 149.706 411.998 149.945 412.413C150.185 412.828 150.715 412.97 151.13 412.73Z" fill="#DBDBDB"/>
<g opacity="0.5">
<path opacity="0.5" d="M79.7723 424.877L79.002 425.322L81.5222 429.687L82.2926 429.242L79.7723 424.877Z" fill="#5EB3E2"/>
<path opacity="0.5" d="M83.0528 426.407L82.6081 425.637L78.2429 428.157L78.6877 428.927L83.0528 426.407Z" fill="#5EB3E2"/>
</g>
<g opacity="0.5">
<path opacity="0.5" d="M242.465 258.367L241.694 258.811L244.215 263.176L244.985 262.732L242.465 258.367Z" fill="#5EB3E2"/>
<path opacity="0.5" d="M245.745 259.897L245.3 259.126L240.935 261.647L241.38 262.417L245.745 259.897Z" fill="#5EB3E2"/>
</g>
<g opacity="0.5">
<path opacity="0.5" d="M21.686 313.595L20.9157 314.04L23.4359 318.405L24.2063 317.96L21.686 313.595Z" fill="#47E6B1"/>
<path opacity="0.5" d="M24.9665 315.125L24.5218 314.355L20.1566 316.875L20.6014 317.646L24.9665 315.125Z" fill="#47E6B1"/>
</g>
<g opacity="0.5">
<path opacity="0.5" d="M184.22 210.854L183.45 211.298L185.97 215.663L186.74 215.219L184.22 210.854Z" fill="#5EB3E2"/>
<path opacity="0.5" d="M187.5 212.384L187.056 211.613L182.69 214.134L183.135 214.904L187.5 212.384Z" fill="#5EB3E2"/>
</g>
<path opacity="0.5" d="M40.729 369.175C40.4634 369.205 40.1959 369.136 39.9776 368.982C39.7592 368.828 39.6052 368.599 39.5449 368.338C39.5363 368.298 39.5229 368.259 39.505 368.222C39.4526 368.117 39.3678 368.031 39.2631 367.978C39.1584 367.925 39.0393 367.907 38.9236 367.927C38.808 367.947 38.7018 368.004 38.6208 368.089C38.5398 368.174 38.4883 368.282 38.474 368.399C38.4695 368.44 38.47 368.481 38.4752 368.522C38.5053 368.788 38.4367 369.055 38.2824 369.273C38.1281 369.492 37.8989 369.646 37.6384 369.706C37.5982 369.715 37.5591 369.728 37.5219 369.746C37.4169 369.798 37.3316 369.883 37.2785 369.988C37.2255 370.093 37.2076 370.212 37.2274 370.327C37.2473 370.443 37.3039 370.549 37.3889 370.63C37.4739 370.711 37.5826 370.763 37.6991 370.777C37.7401 370.781 37.7814 370.781 37.8223 370.776C38.0879 370.746 38.3554 370.814 38.5737 370.969C38.7921 371.123 38.9461 371.352 39.0064 371.613C39.0151 371.653 39.0284 371.692 39.0463 371.729C39.0987 371.834 39.1835 371.919 39.2882 371.972C39.393 372.026 39.512 372.043 39.6277 372.024C39.7434 372.004 39.8496 371.947 39.9306 371.862C40.0115 371.777 40.063 371.668 40.0774 371.552C40.0818 371.511 40.0813 371.47 40.0761 371.429C40.046 371.163 40.1146 370.896 40.2689 370.677C40.4232 370.459 40.6524 370.305 40.9129 370.245C40.9531 370.236 40.9922 370.223 41.0294 370.205C41.1344 370.152 41.2198 370.067 41.2728 369.963C41.3259 369.858 41.3438 369.739 41.3239 369.623C41.304 369.508 41.2474 369.401 41.1624 369.32C41.0775 369.239 40.9687 369.188 40.8522 369.174C40.8112 369.169 40.7699 369.17 40.729 369.175Z" fill="#EF769A"/>
<path opacity="0.5" d="M55.6889 293.092C55.4232 293.122 55.1558 293.053 54.9374 292.899C54.7191 292.744 54.5651 292.515 54.5048 292.255C54.4961 292.215 54.4827 292.175 54.4649 292.138C54.4125 292.033 54.3276 291.948 54.2229 291.895C54.1182 291.842 53.9992 291.824 53.8835 291.844C53.7678 291.864 53.6616 291.92 53.5806 292.005C53.4996 292.09 53.4481 292.199 53.4338 292.316C53.4294 292.356 53.4298 292.398 53.4351 292.439C53.4652 292.704 53.3966 292.972 53.2423 293.19C53.088 293.408 52.8588 293.562 52.5983 293.623C52.558 293.631 52.5189 293.645 52.4818 293.663C52.3768 293.715 52.2914 293.8 52.2384 293.905C52.1853 294.009 52.1674 294.128 52.1873 294.244C52.2072 294.36 52.2638 294.466 52.3487 294.547C52.4337 294.628 52.5425 294.679 52.659 294.694C52.6999 294.698 52.7413 294.698 52.7821 294.692C53.0478 294.662 53.3152 294.731 53.5336 294.885C53.7519 295.04 53.9059 295.269 53.9662 295.529C53.9749 295.57 53.9883 295.609 54.0061 295.646C54.0585 295.751 54.1434 295.836 54.2481 295.889C54.3528 295.942 54.4718 295.96 54.5875 295.94C54.7032 295.92 54.8094 295.864 54.8904 295.779C54.9714 295.694 55.0229 295.585 55.0372 295.469C55.0416 295.428 55.0412 295.386 55.0359 295.345C55.0058 295.08 55.0744 294.812 55.2287 294.594C55.383 294.376 55.6122 294.222 55.8727 294.161C55.913 294.153 55.9521 294.139 55.9892 294.121C56.0942 294.069 56.1796 293.984 56.2327 293.879C56.2857 293.775 56.3036 293.656 56.2837 293.54C56.2638 293.424 56.2072 293.318 56.1223 293.237C56.0373 293.156 55.9285 293.105 55.812 293.09C55.7711 293.086 55.7297 293.086 55.6889 293.092Z" fill="#4D8AF0"/>
<path opacity="0.5" d="M185.366 393.17C185.1 393.2 184.833 393.132 184.615 392.978C184.396 392.823 184.242 392.594 184.182 392.334C184.173 392.293 184.16 392.254 184.142 392.217C184.09 392.112 184.005 392.027 183.9 391.974C183.795 391.921 183.676 391.903 183.561 391.923C183.445 391.942 183.339 391.999 183.258 392.084C183.177 392.169 183.125 392.278 183.111 392.394C183.107 392.435 183.107 392.477 183.112 392.517C183.142 392.783 183.074 393.05 182.919 393.269C182.765 393.487 182.536 393.641 182.275 393.701C182.235 393.71 182.196 393.724 182.159 393.741C182.054 393.794 181.969 393.879 181.916 393.983C181.863 394.088 181.845 394.207 181.864 394.323C181.884 394.438 181.941 394.545 182.026 394.626C182.111 394.707 182.22 394.758 182.336 394.772C182.377 394.777 182.418 394.776 182.459 394.771C182.725 394.741 182.992 394.81 183.211 394.964C183.429 395.118 183.583 395.348 183.643 395.608C183.652 395.648 183.666 395.687 183.683 395.724C183.736 395.829 183.821 395.915 183.925 395.968C184.03 396.021 184.149 396.039 184.265 396.019C184.38 395.999 184.487 395.942 184.568 395.858C184.649 395.773 184.7 395.664 184.714 395.547C184.719 395.506 184.718 395.465 184.713 395.424C184.683 395.158 184.752 394.891 184.906 394.673C185.06 394.454 185.289 394.3 185.55 394.24C185.59 394.231 185.629 394.218 185.666 394.2C185.771 394.148 185.857 394.063 185.91 393.958C185.963 393.853 185.981 393.734 185.961 393.619C185.941 393.503 185.884 393.397 185.799 393.316C185.715 393.235 185.606 393.183 185.489 393.169C185.448 393.165 185.407 393.165 185.366 393.17Z" fill="#4D8AF0"/>
<path opacity="0.5" d="M261.703 308.885C262.554 308.394 262.845 307.306 262.354 306.455C261.863 305.604 260.775 305.312 259.924 305.804C259.073 306.295 258.782 307.383 259.273 308.234C259.764 309.085 260.852 309.376 261.703 308.885Z" fill="#EF769A"/>
<path opacity="0.5" d="M233.442 338.212C234.293 337.72 234.585 336.632 234.094 335.781C233.602 334.931 232.514 334.639 231.663 335.13C230.813 335.622 230.521 336.71 231.012 337.56C231.504 338.411 232.592 338.703 233.442 338.212Z" fill="#4D8AF0"/>
<path opacity="0.5" d="M107.64 431.043C108.491 430.551 108.783 429.463 108.291 428.612C107.8 427.762 106.712 427.47 105.861 427.961C105.01 428.453 104.719 429.541 105.21 430.391C105.701 431.242 106.789 431.534 107.64 431.043Z" fill="#EF769A"/>
<path opacity="0.5" d="M107.413 248.009C108.264 247.517 108.555 246.429 108.064 245.578C107.573 244.728 106.485 244.436 105.634 244.927C104.783 245.419 104.491 246.507 104.983 247.357C105.474 248.208 106.562 248.5 107.413 248.009Z" fill="#EF769A"/>
<path d="M105.609 367.337L104.784 380.139C104.784 380.139 112.323 388.453 157.624 361.957C202.924 335.46 201.331 324.397 201.331 324.397L185.741 316.964L149.578 314.22L105.609 367.337Z" fill="#6856AF"/>
<path opacity="0.15" d="M105.609 367.337L104.784 380.139C104.784 380.139 112.323 388.453 157.624 361.957C202.924 335.46 201.331 324.397 201.331 324.397L185.741 316.964L149.578 314.22L105.609 367.337Z" fill="#6856AF"/>
<path d="M216.901 257.377L156.624 339.767L37.4161 361.003L104.081 267.736L160.259 262.577L162.273 262.394L216.901 257.377Z" fill="#6856AF"/>
<path opacity="0.15" d="M216.901 257.377L156.624 339.767L37.4161 361.003L104.081 267.736L160.259 262.577L162.273 262.394L216.901 257.377Z" fill="#6856AF"/>
<path d="M180.371 289.875L178.884 290.857L160.259 262.577L162.273 262.394L180.371 289.875Z" fill="#F5F5F5"/>
<path d="M86.7715 332.337L104.784 380.139C104.784 380.139 146.759 333.651 201.331 324.398L167.97 282.033C167.97 282.033 103.329 309.425 86.7715 332.337Z" fill="#A873FA"/>
<path d="M185.385 298.854C189.497 296.48 191.504 292.256 189.866 289.42C188.229 286.583 183.567 286.209 179.455 288.583C175.342 290.958 173.336 295.182 174.973 298.018C176.611 300.854 181.272 301.229 185.385 298.854Z" fill="#F5F5F5"/>
<defs>
<linearGradient id="paint0_linear" x1="274.798" y1="165.544" x2="287.441" y2="140.062" gradientUnits="userSpaceOnUse">
<stop stop-color="#808080" stop-opacity="0.25"/>
<stop offset="0.53514" stop-color="#808080" stop-opacity="0.12"/>
<stop offset="1" stop-color="#808080" stop-opacity="0.1"/>
</linearGradient>
<linearGradient id="paint1_linear" x1="382.724" y1="369.051" x2="405.506" y2="353.908" gradientUnits="userSpaceOnUse">
<stop stop-color="#808080" stop-opacity="0.25"/>
<stop offset="0.53514" stop-color="#808080" stop-opacity="0.12"/>
<stop offset="1" stop-color="#808080" stop-opacity="0.1"/>
</linearGradient>
<linearGradient id="paint2_linear" x1="123.322" y1="381.555" x2="121.946" y2="359.747" gradientUnits="userSpaceOnUse">
<stop stop-color="#808080" stop-opacity="0.25"/>
<stop offset="0.53514" stop-color="#808080" stop-opacity="0.12"/>
<stop offset="1" stop-color="#808080" stop-opacity="0.1"/>
</linearGradient>
</defs>
</svg>
