<svg width="100" height="39" viewBox="0 0 100 39" fill="none" xmlns="http://www.w3.org/2000/svg">
<path d="M3.96 3.776V5.99L5.274 5.972C5.982 5.972 6.624 6.068 7.2 6.26C7.776 6.44 8.268 6.698 8.676 7.034C9.084 7.37 9.396 7.772 9.612 8.24C9.84 8.708 9.954 9.224 9.954 9.788C9.954 10.448 9.834 11.042 9.594 11.57C9.366 12.098 9.036 12.554 8.604 12.938C8.184 13.31 7.674 13.598 7.074 13.802C6.474 14.006 5.802 14.108 5.058 14.108C4.662 14.108 4.248 14.072 3.816 14C3.396 13.928 2.976 13.826 2.556 13.694C2.148 13.55 1.752 13.388 1.368 13.208C0.996 13.016 0.648 12.806 0.324 12.578L1.458 10.328C1.95 10.82 2.472 11.192 3.024 11.444C3.588 11.696 4.158 11.822 4.734 11.822C5.418 11.822 5.952 11.66 6.336 11.336C6.72 11.012 6.912 10.562 6.912 9.986C6.912 9.446 6.72 9.032 6.336 8.744C5.952 8.444 5.418 8.294 4.734 8.294C4.566 8.294 4.332 8.3 4.032 8.312C3.732 8.312 3.414 8.318 3.078 8.33C2.742 8.33 2.418 8.336 2.106 8.348C1.794 8.36 1.536 8.372 1.332 8.384L1.35 1.4H9.414V3.776H3.96ZM16.8996 1.31C18.6756 1.31 20.0316 1.856 20.9676 2.948C21.9156 4.04 22.3896 5.618 22.3896 7.682C22.3896 9.758 21.9156 11.348 20.9676 12.452C20.0316 13.544 18.6756 14.09 16.8996 14.09C15.1116 14.09 13.7436 13.544 12.7956 12.452C11.8596 11.348 11.3916 9.758 11.3916 7.682C11.3916 5.618 11.8596 4.04 12.7956 2.948C13.7436 1.856 15.1116 1.31 16.8996 1.31ZM16.8996 3.488C16.0116 3.488 15.3576 3.818 14.9376 4.478C14.5176 5.138 14.3076 6.206 14.3076 7.682C14.3076 9.17 14.5176 10.25 14.9376 10.922C15.3576 11.582 16.0116 11.912 16.8996 11.912C17.7756 11.912 18.4236 11.582 18.8436 10.922C19.2636 10.25 19.4736 9.17 19.4736 7.682C19.4736 6.206 19.2636 5.138 18.8436 4.478C18.4236 3.818 17.7756 3.488 16.8996 3.488ZM27.2355 1.346C28.3155 1.346 29.1615 1.682 29.7735 2.354C30.3855 3.026 30.6915 3.95 30.6915 5.126C30.6915 6.314 30.3855 7.25 29.7735 7.934C29.1615 8.606 28.3155 8.942 27.2355 8.942C26.1675 8.942 25.3275 8.606 24.7155 7.934C24.1035 7.25 23.7975 6.314 23.7975 5.126C23.7975 3.95 24.1035 3.026 24.7155 2.354C25.3275 1.682 26.1675 1.346 27.2355 1.346ZM35.4435 1.4H38.0355L28.9635 14H26.3355L35.4435 1.4ZM27.2355 2.894C26.7075 2.894 26.2995 3.092 26.0115 3.488C25.7235 3.884 25.5795 4.43 25.5795 5.126C25.5795 5.846 25.7235 6.404 26.0115 6.8C26.2995 7.184 26.7075 7.376 27.2355 7.376C27.7755 7.376 28.1895 7.184 28.4775 6.8C28.7655 6.404 28.9095 5.846 28.9095 5.126C28.9095 4.43 28.7655 3.884 28.4775 3.488C28.1895 3.092 27.7755 2.894 27.2355 2.894ZM37.2435 6.458C38.3235 6.458 39.1695 6.8 39.7815 7.484C40.3935 8.156 40.6995 9.08 40.6995 10.256C40.6995 11.444 40.3935 12.374 39.7815 13.046C39.1695 13.718 38.3235 14.054 37.2435 14.054C36.1755 14.054 35.3355 13.718 34.7235 13.046C34.1115 12.374 33.8055 11.444 33.8055 10.256C33.8055 9.08 34.1115 8.156 34.7235 7.484C35.3355 6.8 36.1755 6.458 37.2435 6.458ZM37.2435 8.006C36.7155 8.006 36.3075 8.204 36.0195 8.6C35.7315 8.996 35.5875 9.548 35.5875 10.256C35.5875 10.964 35.7315 11.516 36.0195 11.912C36.3075 12.308 36.7155 12.506 37.2435 12.506C37.7835 12.506 38.1975 12.308 38.4855 11.912C38.7735 11.516 38.9175 10.964 38.9175 10.256C38.9175 9.548 38.7735 8.996 38.4855 8.6C38.1975 8.204 37.7835 8.006 37.2435 8.006ZM51.3564 4.226C52.1244 4.226 52.8264 4.346 53.4624 4.586C54.1104 4.814 54.6564 5.144 55.1004 5.576C55.5564 6.008 55.9104 6.53 56.1624 7.142C56.4144 7.742 56.5404 8.414 56.5404 9.158C56.5404 9.902 56.4144 10.58 56.1624 11.192C55.9104 11.792 55.5564 12.308 55.1004 12.74C54.6564 13.172 54.1104 13.508 53.4624 13.748C52.8264 13.988 52.1244 14.108 51.3564 14.108C50.5764 14.108 49.8684 13.988 49.2324 13.748C48.5964 13.508 48.0504 13.172 47.5944 12.74C47.1384 12.308 46.7844 11.792 46.5324 11.192C46.2804 10.58 46.1544 9.902 46.1544 9.158C46.1544 8.414 46.2804 7.742 46.5324 7.142C46.7844 6.53 47.1384 6.008 47.5944 5.576C48.0504 5.144 48.5964 4.814 49.2324 4.586C49.8684 4.346 50.5764 4.226 51.3564 4.226ZM51.3564 6.53C50.6364 6.53 50.0544 6.776 49.6104 7.268C49.1664 7.76 48.9444 8.402 48.9444 9.194C48.9444 9.986 49.1664 10.628 49.6104 11.12C50.0544 11.612 50.6364 11.858 51.3564 11.858C51.7164 11.858 52.0404 11.798 52.3284 11.678C52.6284 11.546 52.8804 11.366 53.0844 11.138C53.3004 10.898 53.4684 10.616 53.5884 10.292C53.7084 9.956 53.7684 9.59 53.7684 9.194C53.7684 8.798 53.7084 8.438 53.5884 8.114C53.4684 7.79 53.3004 7.514 53.0844 7.286C52.8804 7.046 52.6284 6.86 52.3284 6.728C52.0404 6.596 51.7164 6.53 51.3564 6.53ZM62.678 2.804C62.354 2.804 62.078 2.9 61.85 3.092C61.634 3.272 61.526 3.554 61.526 3.938V4.748H63.812V6.674H61.526V14H58.772V6.674H57.476V4.748H58.772V3.83C58.772 3.29 58.862 2.816 59.042 2.408C59.234 1.988 59.492 1.64 59.816 1.364C60.14 1.088 60.518 0.877999 60.95 0.733999C61.382 0.59 61.844 0.518 62.336 0.518C62.792 0.518 63.242 0.578 63.686 0.698C64.13 0.806 64.526 0.974 64.874 1.202L63.884 3.218C63.704 3.086 63.506 2.984 63.29 2.912C63.086 2.84 62.882 2.804 62.678 2.804ZM69.4455 2.804C69.1215 2.804 68.8455 2.9 68.6175 3.092C68.4015 3.272 68.2935 3.554 68.2935 3.938V4.748H70.5795V6.674H68.2935V14H65.5395V6.674H64.2435V4.748H65.5395V3.83C65.5395 3.29 65.6295 2.816 65.8095 2.408C66.0015 1.988 66.2595 1.64 66.5835 1.364C66.9075 1.088 67.2855 0.877999 67.7175 0.733999C68.1495 0.59 68.6115 0.518 69.1035 0.518C69.5595 0.518 70.0095 0.578 70.4535 0.698C70.8975 0.806 71.2935 0.974 71.6415 1.202L70.6515 3.218C70.4715 3.086 70.2735 2.984 70.0575 2.912C69.8535 2.84 69.6495 2.804 69.4455 2.804ZM80.4846 2.804C80.1606 2.804 79.8846 2.9 79.6566 3.092C79.4406 3.272 79.3326 3.554 79.3326 3.938V4.748H81.6186V6.674H79.3326V14H76.5786V6.674H75.2826V4.748H76.5786V3.83C76.5786 3.29 76.6686 2.816 76.8486 2.408C77.0406 1.988 77.2986 1.64 77.6226 1.364C77.9466 1.088 78.3246 0.877999 78.7566 0.733999C79.1886 0.59 79.6506 0.518 80.1426 0.518C80.5986 0.518 81.0486 0.578 81.4926 0.698C81.9366 0.806 82.3326 0.974 82.6806 1.202L81.6906 3.218C81.5106 3.086 81.3126 2.984 81.0966 2.912C80.8926 2.84 80.6886 2.804 80.4846 2.804ZM86.9521 4.226C87.7201 4.226 88.4221 4.346 89.0581 4.586C89.7061 4.814 90.2521 5.144 90.6961 5.576C91.1521 6.008 91.5061 6.53 91.7581 7.142C92.0101 7.742 92.1361 8.414 92.1361 9.158C92.1361 9.902 92.0101 10.58 91.7581 11.192C91.5061 11.792 91.1521 12.308 90.6961 12.74C90.2521 13.172 89.7061 13.508 89.0581 13.748C88.4221 13.988 87.7201 14.108 86.9521 14.108C86.1721 14.108 85.4641 13.988 84.8281 13.748C84.1921 13.508 83.6461 13.172 83.1901 12.74C82.7341 12.308 82.3801 11.792 82.1281 11.192C81.8761 10.58 81.7501 9.902 81.7501 9.158C81.7501 8.414 81.8761 7.742 82.1281 7.142C82.3801 6.53 82.7341 6.008 83.1901 5.576C83.6461 5.144 84.1921 4.814 84.8281 4.586C85.4641 4.346 86.1721 4.226 86.9521 4.226ZM86.9521 6.53C86.2321 6.53 85.6501 6.776 85.2061 7.268C84.7621 7.76 84.5401 8.402 84.5401 9.194C84.5401 9.986 84.7621 10.628 85.2061 11.12C85.6501 11.612 86.2321 11.858 86.9521 11.858C87.3121 11.858 87.6361 11.798 87.9241 11.678C88.2241 11.546 88.4761 11.366 88.6801 11.138C88.8961 10.898 89.0641 10.616 89.1841 10.292C89.3041 9.956 89.3641 9.59 89.3641 9.194C89.3641 8.798 89.3041 8.438 89.1841 8.114C89.0641 7.79 88.8961 7.514 88.6801 7.286C88.4761 7.046 88.2241 6.86 87.9241 6.728C87.6361 6.596 87.3121 6.53 86.9521 6.53ZM96.7407 6.062C97.4247 4.85 98.4927 4.232 99.9447 4.208V6.818C99.4527 6.77 99.0087 6.8 98.6127 6.908C98.2167 7.004 97.8807 7.166 97.6047 7.394C97.3287 7.622 97.1127 7.904 96.9567 8.24C96.8127 8.564 96.7407 8.93 96.7407 9.338V14H93.9687V4.316H96.7407V6.062ZM4.608 28.19C5.28 28.19 5.94 28.286 6.588 28.478C7.248 28.658 7.848 28.922 8.388 29.27L7.434 31.16C6.894 30.86 6.366 30.632 5.85 30.476C5.346 30.308 4.89 30.224 4.482 30.224C4.158 30.224 3.888 30.284 3.672 30.404C3.468 30.512 3.366 30.692 3.366 30.944C3.366 31.184 3.492 31.376 3.744 31.52C3.996 31.664 4.308 31.796 4.68 31.916C5.064 32.024 5.478 32.144 5.922 32.276C6.366 32.408 6.774 32.588 7.146 32.816C7.53 33.044 7.842 33.338 8.082 33.698C8.334 34.058 8.46 34.52 8.46 35.084C8.46 35.576 8.358 36.014 8.154 36.398C7.95 36.77 7.668 37.082 7.308 37.334C6.96 37.586 6.546 37.778 6.066 37.91C5.586 38.042 5.07 38.108 4.518 38.108C3.726 38.108 2.964 37.994 2.232 37.766C1.512 37.538 0.876 37.202 0.324 36.758L1.224 34.886C1.728 35.27 2.28 35.57 2.88 35.786C3.48 35.99 4.05 36.092 4.59 36.092C4.938 36.092 5.226 36.032 5.454 35.912C5.694 35.792 5.814 35.6 5.814 35.336C5.814 35.084 5.688 34.886 5.436 34.742C5.196 34.586 4.89 34.454 4.518 34.346C4.146 34.226 3.738 34.106 3.294 33.986C2.862 33.854 2.46 33.68 2.088 33.464C1.716 33.236 1.404 32.948 1.152 32.6C0.912 32.24 0.792 31.778 0.792 31.214C0.792 30.71 0.888 30.272 1.08 29.9C1.284 29.516 1.56 29.198 1.908 28.946C2.256 28.694 2.658 28.508 3.114 28.388C3.582 28.256 4.08 28.19 4.608 28.19ZM16.3084 37.46C15.9484 37.664 15.5524 37.826 15.1204 37.946C14.6884 38.066 14.2444 38.126 13.7884 38.126C13.3564 38.126 12.9544 38.066 12.5824 37.946C12.2104 37.814 11.8864 37.628 11.6104 37.388C11.3464 37.136 11.1364 36.824 10.9804 36.452C10.8244 36.08 10.7464 35.642 10.7464 35.138V30.656H9.39642V28.748H10.7464V26.084H13.5004V28.748H16.1284V30.674H13.5004V34.67C13.5004 35.078 13.5784 35.372 13.7344 35.552C13.9024 35.72 14.1364 35.798 14.4364 35.786C14.7844 35.786 15.2164 35.666 15.7324 35.426L16.3084 37.46ZM27.1765 38H24.4225V36.29C24.0865 36.902 23.6425 37.358 23.0905 37.658C22.5505 37.958 21.9145 38.108 21.1825 38.108C20.1025 38.108 19.2505 37.778 18.6265 37.118C18.0025 36.458 17.6905 35.552 17.6905 34.4V28.316H20.4625V33.608C20.4625 34.22 20.6245 34.7 20.9485 35.048C21.2725 35.396 21.7165 35.57 22.2805 35.57C22.9525 35.558 23.4745 35.324 23.8465 34.868C24.2305 34.4 24.4225 33.812 24.4225 33.104V28.316H27.1765V38ZM39.4193 38H36.6653V36.578C36.3173 37.082 35.8853 37.466 35.3693 37.73C34.8653 37.982 34.2773 38.108 33.6053 38.108C32.9213 38.108 32.2973 37.988 31.7333 37.748C31.1693 37.508 30.6833 37.172 30.2753 36.74C29.8793 36.296 29.5733 35.768 29.3573 35.156C29.1413 34.544 29.0333 33.866 29.0333 33.122C29.0333 32.39 29.1413 31.724 29.3573 31.124C29.5733 30.512 29.8793 29.99 30.2753 29.558C30.6713 29.126 31.1453 28.796 31.6973 28.568C32.2493 28.328 32.8613 28.208 33.5333 28.208C34.2173 28.208 34.8233 28.34 35.3513 28.604C35.8793 28.856 36.3173 29.234 36.6653 29.738V24.644H39.4193V38ZM34.2533 35.876C34.6133 35.876 34.9373 35.81 35.2253 35.678C35.5253 35.546 35.7773 35.366 35.9813 35.138C36.1973 34.898 36.3653 34.616 36.4853 34.292C36.6053 33.956 36.6653 33.59 36.6653 33.194C36.6653 32.798 36.6053 32.438 36.4853 32.114C36.3653 31.778 36.1973 31.496 35.9813 31.268C35.7773 31.028 35.5253 30.842 35.2253 30.71C34.9373 30.578 34.6133 30.512 34.2533 30.512C33.8933 30.512 33.5633 30.578 33.2633 30.71C32.9633 30.842 32.7053 31.028 32.4893 31.268C32.2733 31.508 32.1053 31.79 31.9853 32.114C31.8653 32.438 31.8053 32.798 31.8053 33.194C31.8173 33.986 32.0453 34.634 32.4893 35.138C32.9333 35.63 33.5213 35.876 34.2533 35.876ZM46.3416 28.226C47.1936 28.226 47.9316 28.364 48.5556 28.64C49.1796 28.904 49.6896 29.288 50.0856 29.792C50.4816 30.296 50.7636 30.908 50.9316 31.628C51.0996 32.336 51.1536 33.128 51.0936 34.004H44.1456C44.3136 34.616 44.6136 35.096 45.0456 35.444C45.4896 35.78 46.0236 35.948 46.6476 35.948C47.5956 35.948 48.4116 35.606 49.0956 34.922L50.5536 36.398C50.0616 36.938 49.4676 37.358 48.7716 37.658C48.0756 37.958 47.2896 38.108 46.4136 38.108C45.6336 38.108 44.9316 37.994 44.3076 37.766C43.6956 37.526 43.1676 37.19 42.7236 36.758C42.2796 36.326 41.9376 35.81 41.6976 35.21C41.4696 34.598 41.3556 33.926 41.3556 33.194C41.3556 32.45 41.4756 31.772 41.7156 31.16C41.9556 30.548 42.2976 30.026 42.7416 29.594C43.1856 29.162 43.7076 28.826 44.3076 28.586C44.9196 28.346 45.5976 28.226 46.3416 28.226ZM48.5016 32.366C48.4776 31.718 48.2736 31.208 47.8896 30.836C47.5176 30.452 47.0076 30.26 46.3596 30.26C45.7476 30.26 45.2436 30.452 44.8476 30.836C44.4516 31.208 44.1996 31.718 44.0916 32.366H48.5016ZM59.0438 28.208C59.5838 28.208 60.0698 28.298 60.5018 28.478C60.9458 28.646 61.3178 28.892 61.6178 29.216C61.9298 29.54 62.1698 29.93 62.3378 30.386C62.5058 30.842 62.5898 31.352 62.5898 31.916V38H59.8178V32.726C59.8178 32.114 59.6498 31.634 59.3138 31.286C58.9778 30.926 58.5098 30.746 57.9098 30.746C57.2138 30.758 56.6678 30.998 56.2718 31.466C55.8878 31.922 55.6958 32.51 55.6958 33.23V38H52.9238V28.316H55.6958V30.008C56.0438 29.396 56.4998 28.946 57.0638 28.658C57.6278 28.37 58.2878 28.22 59.0438 28.208ZM70.9764 37.46C70.6164 37.664 70.2204 37.826 69.7884 37.946C69.3564 38.066 68.9124 38.126 68.4564 38.126C68.0244 38.126 67.6224 38.066 67.2504 37.946C66.8784 37.814 66.5544 37.628 66.2784 37.388C66.0144 37.136 65.8044 36.824 65.6484 36.452C65.4924 36.08 65.4144 35.642 65.4144 35.138V30.656H64.0644V28.748H65.4144V26.084H68.1684V28.748H70.7964V30.674H68.1684V34.67C68.1684 35.078 68.2464 35.372 68.4024 35.552C68.5704 35.72 68.8044 35.798 69.1044 35.786C69.4524 35.786 69.8844 35.666 70.4004 35.426L70.9764 37.46ZM75.9225 28.19C76.5945 28.19 77.2545 28.286 77.9025 28.478C78.5625 28.658 79.1625 28.922 79.7025 29.27L78.7485 31.16C78.2085 30.86 77.6805 30.632 77.1645 30.476C76.6605 30.308 76.2045 30.224 75.7965 30.224C75.4725 30.224 75.2025 30.284 74.9865 30.404C74.7825 30.512 74.6805 30.692 74.6805 30.944C74.6805 31.184 74.8065 31.376 75.0585 31.52C75.3105 31.664 75.6225 31.796 75.9945 31.916C76.3785 32.024 76.7925 32.144 77.2365 32.276C77.6805 32.408 78.0885 32.588 78.4605 32.816C78.8445 33.044 79.1565 33.338 79.3965 33.698C79.6485 34.058 79.7745 34.52 79.7745 35.084C79.7745 35.576 79.6725 36.014 79.4685 36.398C79.2645 36.77 78.9825 37.082 78.6225 37.334C78.2745 37.586 77.8605 37.778 77.3805 37.91C76.9005 38.042 76.3845 38.108 75.8325 38.108C75.0405 38.108 74.2785 37.994 73.5465 37.766C72.8265 37.538 72.1905 37.202 71.6385 36.758L72.5385 34.886C73.0425 35.27 73.5945 35.57 74.1945 35.786C74.7945 35.99 75.3645 36.092 75.9045 36.092C76.2525 36.092 76.5405 36.032 76.7685 35.912C77.0085 35.792 77.1285 35.6 77.1285 35.336C77.1285 35.084 77.0025 34.886 76.7505 34.742C76.5105 34.586 76.2045 34.454 75.8325 34.346C75.4605 34.226 75.0525 34.106 74.6085 33.986C74.1765 33.854 73.7745 33.68 73.4025 33.464C73.0305 33.236 72.7185 32.948 72.4665 32.6C72.2265 32.24 72.1065 31.778 72.1065 31.214C72.1065 30.71 72.2025 30.272 72.3945 29.9C72.5985 29.516 72.8745 29.198 73.2225 28.946C73.5705 28.694 73.9725 28.508 74.4285 28.388C74.8965 28.256 75.3945 28.19 75.9225 28.19ZM83.4649 33.752H81.7729L81.3049 28.676V25.49H83.9329V28.676L83.4649 33.752ZM82.5829 35.3C82.9909 35.3 83.3269 35.432 83.5909 35.696C83.8549 35.96 83.9869 36.302 83.9869 36.722C83.9869 37.142 83.8549 37.49 83.5909 37.766C83.3269 38.03 82.9909 38.162 82.5829 38.162C82.1869 38.162 81.8569 38.03 81.5929 37.766C81.3409 37.49 81.2149 37.142 81.2149 36.722C81.2149 36.302 81.3409 35.96 81.5929 35.696C81.8569 35.432 82.1869 35.3 82.5829 35.3Z" fill="#AEACEF"/>
</svg>
