<svg width="122" height="171" viewBox="0 0 122 171" fill="none" xmlns="http://www.w3.org/2000/svg">
<path d="M14.3187 166.061L19.1631 166.061L21.467 147.39L14.317 147.391L14.3187 166.061Z" fill="#D4AF9F"/>
<path d="M22.6252 164.677H13.2824V170.554H28.5078C28.5078 169.783 28.3556 169.018 28.06 168.305C27.7644 167.592 27.3311 166.944 26.7848 166.398C26.2386 165.852 25.5901 165.419 24.8764 165.124C24.1627 164.829 23.3977 164.677 22.6252 164.677Z" fill="#2F2E41"/>
<path d="M63.814 166.061L68.6584 166.061L70.9624 147.39L63.8124 147.391L63.814 166.061Z" fill="#D4AF9F"/>
<path d="M72.1161 164.677H62.7733V170.554H77.9987C77.9987 169.783 77.8465 169.018 77.5509 168.305C77.2553 167.592 76.8219 166.944 76.2757 166.398C75.7295 165.852 75.081 165.419 74.3673 165.124C73.6536 164.829 72.8886 164.677 72.1161 164.677Z" fill="#2F2E41"/>
<path d="M47.6329 27.5623V25.4452C47.6329 21.8236 46.1931 18.3503 43.6302 15.7894C41.0673 13.2285 37.5913 11.7898 33.9668 11.7898H33.9668C30.3423 11.7898 26.8663 13.2285 24.3034 15.7894C21.7405 18.3503 20.3007 21.8236 20.3007 25.4452V27.5623C20.3007 30.1733 21.3387 32.6773 23.1863 34.5235C25.034 36.3697 27.54 37.4069 30.153 37.4069H37.7805C39.0744 37.4069 40.3555 37.1523 41.5509 36.6576C42.7462 36.1628 43.8323 35.4377 44.7472 34.5235C45.6621 33.6094 46.3878 32.5241 46.8829 31.3297C47.378 30.1353 47.6329 28.8552 47.6329 27.5623Z" fill="#2F2E41"/>
<path d="M33.9651 38.1351C28.217 38.1351 23.5572 33.479 23.5572 27.7354C23.5572 21.9918 28.217 17.3357 33.9651 17.3357C39.7132 17.3357 44.3729 21.9918 44.3729 27.7354C44.3729 33.479 39.7132 38.1351 33.9651 38.1351Z" fill="#D4AF9F"/>
<path d="M90.5782 63.4791C90.1559 63.0806 89.6512 62.7795 89.0997 62.5969C88.5483 62.4144 87.9635 62.3549 87.3866 62.4226C86.8097 62.4903 86.2546 62.6836 85.7605 62.9889C85.2664 63.2941 84.8453 63.7039 84.5269 64.1894L75.6049 62.503L73.2569 67.6707L85.89 69.8754C86.7416 70.3558 87.74 70.5075 88.6961 70.3015C89.6522 70.0956 90.4994 69.5464 91.0773 68.758C91.6552 67.9696 91.9236 66.9967 91.8316 66.0238C91.7396 65.0509 91.2936 64.1454 90.5782 63.4791V63.4791Z" fill="#D4AF9F"/>
<path d="M42.0793 44.6842L41.9626 44.8609L56.5931 54.4914L81.2804 62.3684C81.6076 62.4735 81.8883 62.6886 82.0746 62.9772C82.261 63.2658 82.3415 63.61 82.3024 63.9513L81.7639 68.5863C81.74 68.7915 81.6735 68.9894 81.5686 69.1673C81.4637 69.3453 81.3227 69.4993 81.1547 69.6197C80.9868 69.74 80.7955 69.8239 80.5931 69.8661C80.3908 69.9082 80.1819 69.9077 79.9798 69.8644L56.7454 64.888C55.621 64.6486 54.5578 64.1808 53.6217 63.5138L37.1852 51.8287C36.5893 51.4027 36.1139 50.83 35.8051 50.1661C35.4963 49.5023 35.3647 48.7698 35.4231 48.0401C35.4833 47.3094 35.733 46.6069 36.1474 46.0018C36.5617 45.3967 37.1267 44.9098 37.7865 44.589C38.4463 44.2682 39.1784 44.1246 39.9106 44.1723C40.6428 44.2199 41.3501 44.4572 41.9627 44.8609L42.0793 44.6842Z" fill="#DFDBDB"/>
<path d="M19.0781 160.763C19.4499 160.763 19.8138 160.655 20.1251 160.452C20.4365 160.249 20.6819 159.959 20.8315 159.619L43.0405 104.785C43.0923 104.666 43.1794 104.566 43.2899 104.498C43.4005 104.43 43.5292 104.398 43.6589 104.405C43.7885 104.412 43.9128 104.459 44.015 104.539C44.1172 104.619 44.1925 104.728 44.2306 104.852L62.3497 158.235C62.4262 158.483 62.5527 158.714 62.7215 158.911C62.8903 159.109 63.0978 159.27 63.3313 159.385C63.5647 159.5 63.8192 159.565 64.079 159.578C64.3388 159.591 64.5985 159.55 64.842 159.459L70.918 157.182C71.2478 157.06 71.5371 156.848 71.7538 156.572C71.9706 156.295 72.1062 155.963 72.1456 155.614C74.879 131.821 51.0426 71.7632 50.8014 71.1594L50.7347 70.9922L29.0058 75.795L28.9605 75.8442C20.2915 85.2941 13.1657 144.897 11.8253 156.749C11.7753 157.178 11.8728 157.61 12.1017 157.975C12.3305 158.341 12.6771 158.617 13.0843 158.759L18.4475 160.655C18.65 160.726 18.8633 160.763 19.0781 160.763Z" fill="#2F2E41"/>
<path d="M37.7999 77.7271C43.0645 77.7271 48.9338 76.6782 50.7405 72.3493L50.7821 72.2499L50.7259 72.1576C49.2999 69.8197 47.4151 65.8315 48.4281 65.0829C50.4237 63.6085 51.3921 61.1831 51.3061 57.8739C51.1194 50.6902 46.2208 44.3121 39.1164 42.003H39.1163C37.1333 41.3688 35.1152 40.8496 33.0723 40.448C31.583 40.1477 30.0455 40.1807 28.5704 40.5447C27.0954 40.9087 25.7193 41.5946 24.541 42.5531C23.348 43.5179 22.3835 44.7348 21.7171 46.1164C21.0507 47.4979 20.6987 49.0098 20.6866 50.5434C20.6121 58.2204 21.7949 68.9129 27.8532 76.2538C28.1371 76.5944 28.5322 76.824 28.9689 76.9021C31.8836 77.4289 34.8381 77.7049 37.7999 77.7271Z" fill="#DFDBDB"/>
<path d="M39.7575 77.4396C39.471 76.4127 38.7905 75.5402 37.8639 75.0119C36.9372 74.4835 35.8393 74.3419 34.8088 74.6178C34.5984 74.6766 34.3932 74.7525 34.1952 74.8449L27.4208 68.6846L22.7095 71.8561L32.3973 80.4224C32.8347 81.2105 33.5234 81.8298 34.3537 82.1817C35.184 82.5336 36.1083 82.598 36.9794 82.3645C37.4869 82.2257 37.9618 81.9878 38.3766 81.6645C38.7915 81.3412 39.1381 80.939 39.3965 80.481C39.6548 80.0231 39.8197 79.5185 39.8817 78.9964C39.9437 78.4744 39.9015 77.9453 39.7575 77.4396Z" fill="#D4AF9F"/>
<path d="M28.4942 77.5187C28.9338 77.519 29.3599 77.3671 29.7 77.0889L32.3716 74.9075C32.5943 74.7256 32.7729 74.4958 32.8941 74.2352C33.0153 73.9746 33.076 73.69 33.0715 73.4026C33.0671 73.1153 32.9977 72.8327 32.8684 72.5759C32.7392 72.3192 32.5535 72.095 32.3253 71.9201L21.1205 63.3332C20.9877 63.2309 20.9006 63.0804 20.8781 62.9144C20.8557 62.7483 20.8996 62.5801 21.0004 62.4462L27.9162 53.3104C28.7197 52.2525 29.1227 50.9447 29.0539 49.6184C28.9851 48.2921 28.4489 47.033 27.5402 46.0638C26.5832 45.031 25.2726 44.3955 23.8685 44.2832C22.4643 44.171 21.0693 44.5903 19.9602 45.458L19.9164 45.5041L12.6948 55.8367C11.9139 56.4485 11.2851 57.2324 10.8575 58.1271C10.4299 59.0219 10.2151 60.0034 10.2299 60.9948C10.2446 61.9863 10.4886 62.9609 10.9427 63.8426C11.3967 64.7242 12.0486 65.4891 12.8474 66.0774L27.3591 77.1451C27.6878 77.3878 28.0856 77.5187 28.4942 77.5187Z" fill="#DFDBDB"/>
<path d="M43.1832 24.8121V19.6522L33.9642 15.6296L25.1737 19.6522V24.8121C25.1737 25.0367 25.2629 25.2521 25.4219 25.4109C25.5808 25.5697 25.7964 25.6589 26.0212 25.6589H42.3357C42.5605 25.6589 42.7761 25.5697 42.935 25.4109C43.0939 25.2521 43.1832 25.0367 43.1832 24.8121Z" fill="#2F2E41"/>
<path d="M34.3904 12.4755C35.7459 8.14024 32.8991 3.17186 28.6905 1.45586C24.482 -0.260133 19.447 0.939402 15.8958 3.77449C12.3446 6.60957 10.1414 10.856 8.97395 15.2455C7.80652 19.6351 7.58493 24.2123 7.3694 28.7491C2.19865 29.6981 -1.31877 35.8263 0.472473 40.7651C2.26371 45.704 8.89361 48.1576 13.4723 45.5762C18.0511 42.9948 19.3772 36.0557 16.0727 31.97C14.509 30.0368 13.6356 27.6376 13.5906 25.1523C13.5457 22.667 14.3319 20.2378 15.8246 18.2494C17.3173 16.261 19.4313 14.8271 21.8317 14.1747C24.2321 13.5224 26.7817 13.6889 29.0767 14.6479C31.6251 15.7128 34.8227 12.946 34.3904 12.4755Z" fill="#2F2E41"/>
<path d="M92.4896 43.4635C98.6804 43.4229 104.794 42.085 110.435 39.5363C110.771 39.3867 111.056 39.1428 111.255 38.8343C111.455 38.5257 111.56 38.1659 111.559 37.7985V22.3783C111.558 21.8731 111.357 21.3888 110.999 21.0316C110.642 20.6744 110.157 20.4735 109.652 20.4729H75.3275C74.8219 20.4735 74.3372 20.6744 73.9797 21.0316C73.6223 21.3888 73.4212 21.8731 73.4206 22.3783V37.7986C73.4191 38.1659 73.5245 38.5258 73.724 38.8343C73.9235 39.1428 74.2085 39.3867 74.5443 39.5363C80.1854 42.085 86.2988 43.4229 92.4896 43.4635Z" fill="#D8DBFF"/>
<path d="M92.5637 31.049C92.8182 31.0492 93.0701 30.9986 93.3047 30.9001L120.523 19.4255C120.874 19.2775 121.173 19.0279 121.381 18.7088C121.588 18.3897 121.696 18.0157 121.689 17.6351C121.682 17.2545 121.561 16.8847 121.341 16.5735C121.122 16.2622 120.815 16.0236 120.458 15.8886L93.2395 5.57076C92.8011 5.40381 92.3164 5.40484 91.8787 5.57365L65.0244 15.8915C64.6703 16.0276 64.3648 16.2662 64.1471 16.5767C63.9294 16.8873 63.8093 17.2557 63.8023 17.6348C63.7953 18.0139 63.9016 18.3864 64.1077 18.7048C64.3138 19.0232 64.6103 19.2729 64.9592 19.422L91.8137 30.8964C92.0508 30.9973 92.306 31.0492 92.5637 31.049Z" fill="#D8DBFF"/>
<path d="M108.381 40.5848C106.976 40.5848 105.838 39.4473 105.838 38.0442C105.838 36.6411 106.976 35.5037 108.381 35.5037C109.785 35.5037 110.923 36.6411 110.923 38.0442C110.923 39.4473 109.785 40.5848 108.381 40.5848Z" fill="#AEACEF"/>
<path opacity="0.2" d="M64.7953 17.7168L91.65 29.1912C91.8593 29.2807 92.0846 29.3271 92.3123 29.3276C92.54 29.3282 92.7655 29.2829 92.9752 29.1944L120.194 17.7201C120.536 17.5795 120.821 17.329 121.004 17.0083C121.124 17.2163 121.199 17.4474 121.223 17.6862C121.246 17.9251 121.219 18.1663 121.142 18.3938C121.066 18.6213 120.941 18.8299 120.778 19.0058C120.614 19.1817 120.415 19.3208 120.194 19.4138L92.9752 30.8881C92.7655 30.9766 92.54 31.0218 92.3123 31.0213C92.0846 31.0207 91.8593 30.9744 91.65 30.8849L64.7953 19.4105C64.575 19.3166 64.3771 19.177 64.2147 19.0011C64.0523 18.8252 63.9292 18.6168 63.8533 18.3898C63.7774 18.1628 63.7506 17.9223 63.7746 17.6841C63.7986 17.446 63.8729 17.2156 63.9925 17.0083C64.1747 17.3264 64.4569 17.5755 64.7953 17.7168Z" fill="#5131BD"/>
<path d="M108.164 38.0347C108.052 38.0347 107.944 37.9901 107.865 37.9107C107.785 37.8312 107.741 37.7235 107.741 37.6112V23.4429L93.7647 18.3554C93.6523 18.3571 93.5439 18.3141 93.4632 18.2358C93.3826 18.1576 93.3363 18.0506 93.3347 17.9383C93.333 17.826 93.376 17.7176 93.4543 17.637C93.5326 17.5564 93.6397 17.5102 93.7521 17.5085L107.728 22.596C107.841 22.5935 107.952 22.6137 108.057 22.6556C108.161 22.6974 108.256 22.76 108.335 22.8396C108.416 22.9182 108.48 23.0121 108.523 23.1157C108.566 23.2193 108.589 23.3306 108.588 23.4429V37.6112C108.588 37.7235 108.544 37.8312 108.464 37.9106C108.385 37.99 108.277 38.0347 108.164 38.0347Z" fill="#AEACEF"/>
</svg>
