<svg width="64" height="71" viewBox="0 0 64 71" fill="none" xmlns="http://www.w3.org/2000/svg">
<path d="M29.5044 70.1063L2.26398 63.0491C20.1723 55.1694 39.0423 44.7627 37.8152 35.3111C36.1703 22.6228 -0.654417 19.6314 0.00885231 12.0967C0.486406 6.79054 19.0381 2.81089 33.756 3.23539C37.7123 3.35308 41.6522 3.79676 45.5357 4.56192C19.3034 7.75225 12.5314 10.5313 12.5181 12.7268C12.5181 17.7079 48.0097 16.3085 53.5679 30.8341C57.6337 41.4729 44.355 56.8011 29.5044 70.1063Z" fill="#5131BD"/>
<path d="M15.5693 66.7432L17.2607 65.6953" stroke="#D8DBFF" stroke-miterlimit="10"/>
<path d="M19.5224 64.2559C34.2005 54.7977 48.7062 42.9252 46.5041 33.2813C43.2408 19.1868 6.04471 18.1786 6.22379 12.249C6.30338 9.15814 16.4978 5.20504 60.2007 1.29175" stroke="#D8DBFF" stroke-miterlimit="10" stroke-dasharray="6.07 4.05"/>
<path d="M61.54 1.17246L63.5298 1" stroke="#D8DBFF" stroke-miterlimit="10"/>
</svg>
