<svg width="374" height="277" viewBox="0 0 374 277" fill="none" xmlns="http://www.w3.org/2000/svg">
<path opacity="0.5" d="M201.102 276.961C283.638 276.961 350.546 273.937 350.546 270.207C350.546 266.477 283.638 263.453 201.102 263.453C118.566 263.453 51.6582 266.477 51.6582 270.207C51.6582 273.937 118.566 276.961 201.102 276.961Z" fill="#DBE1E8"/>
<g opacity="0.5">
<g opacity="0.5">
<path opacity="0.5" fill-rule="evenodd" clip-rule="evenodd" d="M185.029 4.13284C198.933 4.08534 212.682 5.38877 226.011 9.59732C230.058 10.8753 234.092 12.2905 237.954 14.0357C242.109 15.9133 245.884 18.5261 249.539 21.266C254.343 24.8676 258.62 29.0216 262.285 33.7747C265.903 38.4666 268.513 43.6199 269.339 49.5863C269.863 53.3778 269.603 57.0688 268.282 60.6525C265.817 67.3356 262.485 73.4818 257.126 78.3571C252.897 82.2035 248.704 86.0883 244.491 89.9518C239.708 94.3381 235.146 98.9312 231.24 104.132C228.166 108.225 225.604 112.585 224.449 117.64C224.195 118.751 223.965 119.88 223.873 121.013C223.456 126.11 225.889 129.836 229.903 132.552C233.128 134.734 236.88 135.669 240.756 135.614C248.82 135.5 256.884 135.284 264.943 134.982C276.115 134.564 287.281 133.956 298.468 134.209C312.53 134.526 326.498 135.667 340.176 139.169C347.458 141.034 354.494 143.554 361 147.395C363.857 149.081 366.582 150.966 368.83 153.412C370.152 154.851 371.386 156.424 372.369 158.106C374.268 161.355 374.475 164.834 373.163 168.38C371.862 171.898 369.713 174.865 367.15 177.555C363.014 181.897 358.022 185.006 352.636 187.536C346.005 190.651 339.067 192.94 331.988 194.724C320.421 197.638 308.803 200.356 297.187 203.076C278.279 207.505 259.349 211.84 240.442 216.271C227.334 219.342 214.167 222.098 200.833 223.988C190.567 225.443 180.245 226.221 169.871 225.925C161.034 225.674 152.455 224.133 144.379 220.344C140.663 218.6 137.279 216.385 134.447 213.4C124.49 202.91 130.959 190.213 137.448 179.978C138.671 178.049 140.052 176.212 141.173 174.228C141.943 172.863 142.574 171.36 142.943 169.84C143.703 166.711 142.529 164.355 139.663 162.899C137.478 161.79 135.119 161.319 132.681 161.205C126.933 160.937 121.245 161.579 115.623 162.616C103.886 164.782 92.1749 167.084 80.4661 169.395C71.2948 171.205 62.0665 171.561 52.7769 170.711C51.8961 170.631 50.9946 170.501 50.1613 170.221C41.8572 167.428 34.3689 163.298 28.2686 156.876C22.8912 151.214 19.9117 144.377 18.3136 136.854C16.6714 129.125 16.7878 121.367 17.8182 113.564C19.229 102.879 22.3578 92.7689 27.4597 83.2663C30.4512 77.6946 33.9609 72.4955 38.5239 68.0868C45.9213 60.9389 53.1461 53.5881 60.87 46.8079C73.6249 35.6114 88.2778 27.3679 103.853 20.7373C119.403 14.1178 135.567 9.62107 152.233 6.86683C161.457 5.34232 170.728 4.34099 180.078 4.13807C181.728 4.1021 183.379 4.13284 185.029 4.13284Z" fill="#DBE1E8"/>
</g>
</g>
<path fill-rule="evenodd" clip-rule="evenodd" d="M262.259 237.088C262.918 237.333 263.448 237.93 264.037 238.364C263.993 238.601 263.949 238.838 263.906 239.075C262.918 239.331 261.914 239.854 260.945 239.796C257.005 239.56 253.866 241.102 251.156 243.804C250.974 243.985 250.693 244.07 250.448 244.181C250.374 244.215 250.272 244.187 250.137 244.187C248.886 243.32 249.434 242.288 250.019 241.348C252.002 238.157 258.757 235.791 262.259 237.088ZM263.54 229.821C263.868 229.964 264.236 230.144 264.437 230.418C264.685 230.756 264.97 231.259 264.883 231.598C264.801 231.917 264.26 232.321 263.911 232.33C263.019 232.353 262.122 232.165 261.226 232.084C258.892 231.873 256.528 231.343 254.231 231.549C251.003 231.84 248.097 233.315 245.908 235.769C244.104 237.792 242.56 240.049 240.895 242.196C240.382 242.857 240.306 243.997 238.93 243.905C238.135 242.832 238.479 241.657 238.998 240.65C242.271 234.294 246.985 229.655 254.281 228.303C257.521 227.702 260.582 228.537 263.54 229.821ZM302.031 237.327C305.227 237.524 307.308 239.196 307.433 241.686C306.426 242.535 305.445 241.902 304.681 241.414C301.586 239.44 298.663 239.78 295.726 241.694C295.32 241.959 294.736 241.975 293.926 242.186C294.47 238.822 297.642 237.058 302.031 237.327ZM225.265 231.515C225.351 231.545 225.447 231.552 225.525 231.594C226.463 232.097 227.866 232.428 227.47 233.826C227.082 235.193 225.899 234.528 224.933 234.341C220.29 233.441 216.034 233.934 212.887 238.031C212.388 238.681 212.078 239.486 211.546 240.098C211.194 240.501 210.599 240.687 209.998 241.037C209.254 239.03 210.154 237.665 210.963 236.406C213.718 232.119 220.425 229.877 225.265 231.515ZM309.556 230.437C311.9 232.195 314.173 234.086 315.42 236.832C315.598 237.224 315.332 237.814 315.265 238.361C313.792 238.563 313.122 237.635 312.372 236.886C311.013 235.531 309.771 234.043 308.302 232.82C303.075 228.467 296.904 228.966 292.465 234.106C291.099 235.687 289.993 237.489 288.763 239.185C288.26 239.879 288.049 240.954 286.799 240.715C286.234 237.721 289.882 232.501 294.629 229.488C299.19 226.594 304.847 226.904 309.556 230.437ZM266.358 220.637C267.512 221.057 268.746 221.619 268.628 223.619C267.686 223.494 266.838 223.394 265.994 223.266C262.778 222.775 259.578 222.006 256.345 221.83C247.851 221.371 241.568 225.308 237.045 232.332C235.864 234.167 234.904 236.145 233.714 237.973C233.168 238.812 232.313 239.447 231.598 240.174C231.395 240.071 231.191 239.966 230.987 239.862C231.046 239.109 230.907 238.268 231.195 237.617C234.483 230.179 238.974 223.778 246.741 220.48C253.267 217.708 259.848 218.265 266.358 220.637ZM307.479 217.817C309.55 218.308 311.612 219.363 313.352 220.612C317.746 223.767 320.863 228.064 323.236 232.88C323.725 233.871 323.827 235.052 324.102 236.128C322.57 236.917 321.815 236.273 321.225 235.418C320.394 234.216 319.635 232.963 318.877 231.713C317.012 228.639 314.784 225.866 311.996 223.581C309.444 221.49 306.547 220.246 303.177 220.372C301.26 220.445 299.315 220.391 297.432 220.696C292.5 221.493 288.986 224.56 286.234 228.454C284.185 231.354 282.532 234.533 280.687 237.578C280.152 238.46 279.564 239.31 279 240.174C278.707 240.055 278.413 239.935 278.119 239.816C278.245 238.866 278.175 237.835 278.529 236.979C281.078 230.807 284.524 225.198 290.016 221.225C295.241 217.446 301.21 216.334 307.479 217.817ZM220.994 223.051C223.372 223.468 225.645 224.537 227.938 225.389C228.51 225.602 229.074 226.041 229.452 226.529C229.738 226.897 229.951 227.634 229.772 227.977C229.584 228.336 228.834 228.67 228.425 228.578C227.188 228.299 225.984 227.846 224.791 227.393C219.871 225.526 214.873 225.074 209.79 226.574C204.587 228.108 200.763 231.265 198.75 236.492C198.452 237.265 198.123 238.029 197.748 238.765C197.64 238.977 197.317 239.075 196.965 239.312C195.527 238.452 195.912 237.342 196.189 236.272C197.456 231.38 200.618 227.998 204.829 225.655C209.871 222.85 215.367 222.063 220.994 223.051ZM313.487 208.333C322.087 213.086 327.996 220.263 331.496 229.438C331.851 230.368 331.751 231.474 331.862 232.499L330.95 232.896C330.261 232.116 329.441 231.418 328.912 230.542C327.775 228.658 326.765 226.695 325.744 224.743C322.67 218.867 318.058 214.442 312.454 211.131C304.759 206.583 296.963 207.343 289.564 211.816C281.635 216.61 276.642 223.867 273.619 232.558C273.227 233.685 272.918 234.845 272.457 235.941C272.202 236.549 271.713 237.058 271.345 237.588C269.926 236.819 270.402 235.854 270.589 235.004C272.04 228.407 275.093 222.597 279.394 217.456C284.157 211.764 289.866 207.523 297.297 205.947C303.011 204.734 308.439 205.543 313.487 208.333ZM233.812 217.981C234.695 218.444 235.567 218.987 236.304 219.652C236.776 220.077 236.989 220.792 237.31 221.363C235.924 222.371 234.937 221.699 233.989 221.227C228.545 218.521 222.845 216.711 216.794 216.018C212.566 215.533 208.378 215.675 204.346 217.049C197.389 219.418 193.464 224.459 192.162 231.66C191.983 232.652 191.821 233.65 191.59 234.631C191.361 235.598 191.209 236.864 189.881 236.714C188.466 236.553 188.727 235.229 188.825 234.289C189.33 229.458 190.695 224.93 193.809 221.095C197.648 216.367 202.716 213.774 208.645 213.134C217.482 212.181 225.908 213.84 233.812 217.981ZM179.867 198.938C181.223 199.438 182.556 200.097 183.751 200.903C184.582 201.463 185.158 202.402 185.867 203.193C184.608 204.224 183.868 203.417 183.113 203.038C174.817 198.864 166.269 198.57 157.68 201.774C148.164 205.324 143.134 212.668 141.372 222.444C140.741 225.946 140.36 229.493 139.83 233.014C139.687 233.959 139.666 235.006 138.273 235.864C138.109 234.794 137.84 233.959 137.875 233.137C138.141 226.996 138.936 220.931 141.118 215.148C144.801 205.387 152.18 199.979 162.096 197.853C168.075 196.572 174.062 196.8 179.867 198.938ZM178.562 232.266C178.812 232.373 178.926 232.806 179.257 233.337C178.607 234.175 178.005 235.023 177.309 235.784C177.174 235.932 176.589 235.859 176.363 235.685C175.355 234.917 175.943 234.042 176.392 233.301C176.859 232.528 177.512 231.82 178.562 232.266ZM182.43 212.684C183.215 213.227 184.204 213.765 183.732 215.586C181.927 215 180.225 214.647 178.703 213.918C173.722 211.531 168.894 212.129 164.22 214.589C157.335 218.21 153.091 223.887 151.422 231.519C151.133 232.835 151.397 234.461 149.738 235.576C149.493 234.856 149.186 234.315 149.139 233.753C148.855 230.284 149.61 226.979 151.22 223.945C155.004 216.812 160.676 211.911 168.621 209.932C173.628 208.685 178.234 209.779 182.43 212.684ZM132.124 230.352C130.893 230.905 130.072 231.411 129.181 231.638C128.061 231.921 126.887 232.042 125.728 232.114C124.058 232.217 122.848 232.87 122.137 234.479C121.935 234.937 121.333 235.215 120.914 235.576C120.529 235.044 119.897 234.551 119.808 233.972C119.585 232.533 120.286 231.359 121.34 230.402C123.741 228.22 128.733 228.009 132.124 230.352ZM180.119 222.562C180.904 222.609 181.652 223.257 182.418 223.631L182.324 224.594C181.325 224.801 180.335 225.102 179.327 225.194C177.344 225.376 175.329 225.291 173.368 225.587C169.205 226.215 166.527 228.677 165.256 232.701C165.003 233.501 164.692 234.282 164.33 235.289C162.632 234.194 162.777 232.953 163.025 231.699C163.887 227.338 168.033 223.263 172.804 222.548C175.193 222.191 177.685 222.414 180.119 222.562ZM125.664 217.953C127.971 218.466 130.204 219.357 132.427 220.193C133.196 220.482 133.833 221.129 134.424 221.895C132.458 222.602 130.596 222.479 128.73 222.11C127.204 221.809 125.693 221.42 124.158 221.167C116.361 219.885 109.34 224.185 106.758 231.78C106.503 232.53 106.187 233.259 105.844 234.139C104.149 233.474 104.218 232.399 104.264 231.402C104.401 228.406 105.559 225.766 107.638 223.709C112.651 218.753 118.6 216.379 125.664 217.953ZM133.579 209.009C134.589 209.753 135.482 210.701 136.264 211.686C136.624 212.14 136.582 212.911 136.723 213.537C136.475 213.659 136.228 213.781 135.981 213.903C135.189 213.329 134.398 212.754 133.606 212.18C129.528 209.229 124.999 207.253 119.965 207.084C108.206 206.691 98.4504 214.494 96.8002 225.945C96.5411 227.742 96.2412 229.541 95.8189 231.307C95.6255 232.117 95.0892 232.845 94.7316 233.564C93.1652 233.153 92.9794 232.182 93.0522 231.142C93.7041 221.798 96.8876 213.774 105.057 208.362C113.66 202.663 125.27 202.898 133.579 209.009ZM340.771 190.072C351.908 191.514 361.188 200.573 362.91 211.736C363.919 218.274 362.08 224.271 358.917 229.916C358.546 230.576 357.883 231.069 357.17 231.84C356.15 230.331 356.554 229.073 356.876 227.918C357.391 226.068 358.113 224.278 358.695 222.445C362.909 209.153 355.367 195.948 341.814 192.966C337.777 192.078 333.859 192.745 330.046 194.255C329.013 194.663 327.916 194.905 326.758 195.251C326.383 193.263 327.609 192.751 328.589 192.215C332.4 190.133 336.528 189.523 340.771 190.072ZM334.652 201.672C348.146 202.421 354.642 214.649 349.185 225.179C348.291 226.904 347.597 228.871 345.479 229.828C344.212 228.817 344.677 227.806 344.993 226.901C345.47 225.533 346.079 224.208 346.65 222.873C350.541 213.783 344.538 204.881 334.058 204.231C332.784 204.152 331.502 204.181 330.225 204.132C330.082 204.126 329.946 203.938 329.563 203.654C329.93 203.221 330.214 202.555 330.658 202.425C331.956 202.045 333.333 201.598 334.652 201.672ZM331.74 212.043C334.744 212.366 337.117 213.743 338.432 216.568C339.683 219.258 338.862 221.754 337.425 224.074C337.085 224.623 336.221 224.849 335.587 225.23C334.659 223.728 335.15 222.611 335.483 221.481C336.742 217.222 335.376 215.076 331.014 214.427C330.566 214.36 330.114 214.278 329.687 214.133C329.455 214.054 329.274 213.827 328.988 213.603C329.378 212.097 330.557 211.916 331.74 212.043ZM217.848 175.061C223.121 176.23 227.827 178.583 231.869 182.152C233.013 183.161 233.936 184.46 234.79 185.738C235.254 186.431 235.794 187.356 234.437 188.604C233.634 187.832 232.852 187.131 232.128 186.376C226.564 180.574 219.843 177.284 211.736 177.2C203.125 177.111 196.201 181.857 193.105 189.94C190.565 196.574 190.134 203.437 191.175 210.43C191.449 212.27 192.067 214.143 191.028 216.321C190.415 215.868 189.785 215.628 189.555 215.182C189.186 214.469 188.973 213.632 188.888 212.827C188.099 205.313 188.231 197.818 190.574 190.585C193.266 182.279 198.667 176.585 207.507 174.786C210.944 174.087 214.426 174.302 217.848 175.061ZM258.583 204.661C262.625 205.115 266.445 206.053 269.832 208.36C270.947 209.118 271.999 210.062 272.832 211.121C273.375 211.809 273.471 212.858 273.809 213.87C271.945 214.558 271.049 213.538 270.18 212.682C267.773 210.306 264.895 208.896 261.685 207.982C255.354 206.179 249.862 207.356 245.291 212.315C244.209 213.488 243.006 214.546 241.767 215.746C240.931 214.355 241.46 213.461 242.048 212.667C246.179 207.098 251.359 203.85 258.583 204.661ZM279.379 206.394C279.874 207.106 279.894 208.146 280.131 209.025C278.326 209.768 277.54 208.806 276.76 207.923C275.31 206.281 273.925 204.582 272.461 202.954C264.527 194.137 248.798 195.532 242.264 203.501C240.13 206.105 238.206 208.88 236.184 211.576C235.566 212.4 235.363 213.665 233.286 213.734C233.533 212.633 233.562 211.73 233.927 210.99C238.51 201.704 245.636 195.807 256.187 194.414C266.752 193.019 273.788 198.332 279.379 206.394ZM228.438 190.046C228.942 190.459 229.199 191.169 229.55 191.711C228.548 192.916 227.598 192.561 226.69 192.106C225.387 191.454 224.12 190.736 222.832 190.054C214.264 185.515 204.51 189.125 201.02 198.141C199.558 201.921 198.998 205.845 199.241 209.885C199.304 210.935 199.615 212.04 198.301 213.16C197.894 212.327 197.437 211.688 197.259 210.98C195.35 203.394 199.444 192.613 205.856 188.27C212.933 183.478 221.956 184.727 228.438 190.046ZM286.516 203.289C286.714 203.976 286.765 204.734 286.732 205.452C286.713 205.857 286.382 206.248 286.211 206.603C284.697 206.732 284.191 205.653 283.713 204.707C282.972 203.238 282.303 201.721 281.733 200.176C277.801 189.517 265.125 182.18 251.641 186.977C241.991 190.41 235.282 197.053 230.987 206.28C230.253 207.855 229.673 209.502 228.963 211.089C228.757 211.55 228.345 211.918 227.607 212.872C227.43 211.658 227.16 210.984 227.282 210.392C227.556 209.05 227.906 207.699 228.433 206.44C232.793 196.031 240.105 188.506 250.647 184.553C266.129 178.749 281.808 186.974 286.516 203.289ZM223.196 196.212C223.931 196.399 224.581 196.929 225.239 197.284C224.908 198.713 223.982 198.798 223.079 198.81C221.537 198.83 219.993 198.753 218.451 198.762C212.464 198.798 208.093 202.676 207.263 208.622C207.134 209.548 206.845 210.452 206.547 211.723C204.554 210.405 204.776 208.931 204.929 207.642C205.543 202.464 208.416 198.935 213.082 196.84C216.366 195.365 219.772 195.34 223.196 196.212ZM223.515 204.765C221.394 207.11 218.16 207.099 216.155 209.136C215.12 207.205 215.236 206.671 216.63 205.477C218.561 203.822 221.243 203.433 223.515 204.765ZM312.261 174.86C319.724 178.889 323.126 185.986 324.417 194.07C324.942 197.362 324.518 200.814 324.462 204.192C324.45 204.908 324.293 205.692 323.959 206.311C323.657 206.869 323.021 207.243 322.533 207.699C322.141 207.139 321.457 206.602 321.411 206.015C321.268 204.195 321.265 202.347 321.395 200.524C321.728 195.838 320.769 191.439 318.895 187.171C315.671 179.829 309.817 175.961 302.321 174.303C296.227 172.954 290.187 173.402 284.432 175.802C281.958 176.833 279.762 178.549 277.447 179.966C276.776 180.377 276.128 180.827 275.418 181.294C274.485 180.035 275.152 179.12 275.834 178.505C277.447 177.05 279.037 175.413 280.938 174.466C291.404 169.251 301.988 169.313 312.261 174.86ZM310.233 187.584C313.598 191.335 315.01 195.815 314.9 200.808C314.875 201.933 314.431 203.048 314.098 204.538C312.142 203.393 312.252 201.995 312.072 200.78C311.882 199.505 311.967 198.184 311.734 196.92C310.368 189.535 303.73 183.747 296.17 183.294C291.338 183.005 286.755 183.861 282.52 186.357C281.864 186.745 281.128 186.994 279.844 187.568C280.154 186.375 280.139 185.684 280.472 185.311C281.07 184.64 281.818 184.052 282.603 183.615C291.147 178.858 303.155 179.693 310.233 187.584ZM143.045 197.067C141.838 197.067 140.684 197.077 139.529 197.065C136.803 197.037 135.899 198.06 136.294 200.75C136.398 201.464 136.525 202.175 136.605 202.891C136.623 203.049 136.489 203.223 136.424 203.388C134.39 203.008 133.4 201.42 133.583 198.828C133.772 196.138 135.9 194.039 138.568 193.912C140.922 193.8 142.652 194.903 143.045 197.067ZM137.021 169.575C141.408 171.149 145.071 173.775 147.781 177.636C148.448 178.584 149.193 179.577 148.543 180.936C147.035 180.799 146.134 179.731 145.083 178.89C142.953 177.186 140.91 175.322 138.601 173.904C132.158 169.946 126.022 171.561 122.074 178.07C118.879 183.338 118.149 188.997 119.499 194.975C119.882 196.668 120.294 198.358 120.589 200.068C120.681 200.599 120.429 201.191 120.334 201.754C120.135 201.82 119.937 201.886 119.738 201.951C119.124 201.133 118.3 200.402 117.928 199.484C114.258 190.444 115.129 181.888 121.167 174.16C124.749 169.575 130.233 167.139 137.021 169.575ZM292.625 189.617C296.518 189.828 299.666 191.57 301.311 195.238C302.202 197.226 303.046 199.48 300.967 201.951C300.336 201.137 299.788 200.595 299.447 199.943C299.116 199.308 298.999 198.559 298.783 197.862C297.453 193.551 293.904 191.473 289.5 192.424C288.883 192.558 288.269 192.721 287.645 192.803C287.401 192.834 287.133 192.679 286.454 192.495C287.972 189.809 290.286 189.49 292.625 189.617ZM296.225 200.766C294.299 201.036 291.137 199.747 290.349 198.371C289.912 197.607 290.408 196.89 291.442 196.792C293.504 196.596 295.859 198.553 296.225 200.766ZM135.501 181.579C138.096 181.786 140.448 182.788 142.541 184.297C143.25 184.808 143.653 185.753 144.195 186.499C144.061 186.695 143.928 186.891 143.795 187.087C142.873 186.89 141.927 186.771 141.036 186.479C139.484 185.972 137.992 185.264 136.428 184.808C132.323 183.61 128.579 185.913 128.053 190.229C127.769 192.556 128.182 194.972 128.315 197.346C128.379 198.483 128.525 199.616 128.637 200.785C127.091 200.941 126.753 199.998 126.402 199.19C124.888 195.701 124.506 192.055 125.461 188.382C126.59 184.043 130.876 181.21 135.501 181.579ZM183.286 166.263C188.022 168.017 191.727 171.215 194.744 175.222C195.471 176.188 196.327 177.226 195.718 178.926C193.824 178.58 192.735 177.502 191.607 176.458C189.804 174.79 188.082 173.003 186.12 171.546C179.046 166.294 169.557 166.509 163.186 171.997C160.471 174.336 158.284 177.12 156.706 180.372C154.853 184.193 153.8 188.218 153.476 192.453C153.389 193.593 153.128 194.719 152.937 195.916C151.08 195.691 150.755 194.546 150.811 193.336C150.914 191.065 150.981 188.762 151.414 186.542C152.715 179.875 155.916 174.203 161.077 169.812C167.716 164.166 175.254 163.29 183.286 166.263ZM179.123 177.307C182.284 178.206 184.677 180.361 186.811 182.776C187.256 183.279 187.449 184.006 187.878 184.87C186.111 185.472 185.146 184.675 184.175 184.073C182.783 183.209 181.479 182.2 180.082 181.345C176.348 179.058 172.609 179.309 169.183 182.037C167.218 183.601 165.743 185.558 164.789 187.878C164.339 188.97 164.04 190.124 163.671 191.249C163.379 192.136 163.491 193.601 162.083 193.286C160.866 193.013 161.171 191.667 161.221 190.702C161.576 183.84 167.243 177.546 174.032 176.722C175.688 176.521 177.495 176.843 179.123 177.307ZM182.418 188.379C178.344 189.436 174.74 190.37 171.084 191.318C170.349 190.6 170.623 189.837 171.143 189.1C173.034 186.417 179.201 185.763 182.418 188.379ZM363.971 164.754C364.539 168.01 364.445 171.306 363.695 174.558C362.515 179.672 360.635 184.501 357.797 188.927L357.723 189.044C357.026 190.139 356.307 191.329 354.544 190.963C354.039 189.589 354.802 188.5 355.299 187.365C356.91 183.688 358.678 180.071 360.102 176.324C361.829 171.776 362.105 167.049 360.792 162.319C358.078 152.536 347.642 145.972 337.664 147.889C335.191 148.363 332.826 149.403 330.412 150.187C329.759 150.399 329.111 150.625 328.134 150.954C328.017 148.945 329.14 148.274 330.16 147.863C332.342 146.982 334.574 146.069 336.873 145.665C349.267 143.487 361.802 152.338 363.971 164.754ZM347.255 161.406C352.5 164.802 354.718 170.551 353.269 176.627C352.577 179.532 351.046 182.009 349.339 184.387C348.911 184.985 348.189 185.373 347.602 185.857C347.397 185.741 347.193 185.625 346.988 185.509C347.185 184.604 347.278 183.66 347.602 182.802C348.052 181.612 348.635 180.466 349.23 179.337C352.942 172.306 350.575 163.65 340.323 161.118C337.935 160.528 335.479 160.216 332.982 160.758C332.168 160.935 331.272 160.73 329.85 160.68C331.168 158.794 332.57 158.554 333.884 158.411C338.665 157.89 343.186 158.771 347.255 161.406ZM338.106 171.814C340.296 173.809 340.801 176.484 339.452 179.477C339.011 180.455 338.469 181.436 337.76 182.232C337.363 182.677 336.528 182.746 335.891 182.983C335.725 182.343 335.337 181.662 335.446 181.069C335.622 180.114 336.132 179.219 336.49 178.294C337.722 175.11 336.326 172.909 332.878 172.704C331.347 172.613 329.807 172.688 328.328 172.688C327.738 171.387 328.544 170.89 329.377 170.458C331.924 169.138 335.849 169.76 338.106 171.814ZM238.871 161.371C245.021 162.422 249.405 168.395 249.368 175.389C249.36 176.809 249.616 178.356 248.143 180.11C247.638 179.168 247.195 178.609 247.031 177.976C246.755 176.909 246.66 175.794 246.48 174.7C246.344 173.882 246.253 173.049 246.041 172.25C244.106 164.978 239.129 162.611 232.289 164.134C228.99 164.868 226.364 166.87 224 169.246C223.315 169.934 222.604 170.596 221.916 171.259C220.883 170.445 221.188 169.746 221.599 169.153C225.923 162.901 232.69 160.316 238.871 161.371ZM236.782 172.73C239.255 173.583 241.086 176.036 241.045 179.247C239.834 178.308 238.902 177.784 238.23 177.023C236.664 175.248 234.87 174.379 232.513 174.957C232.282 175.015 232.004 174.871 231.765 174.824C231.266 173.926 231.768 173.396 232.4 173.01C233.798 172.155 235.269 172.208 236.782 172.73ZM259.229 172.373C259.532 173.703 259.676 175.086 259.724 176.451C259.754 177.28 259.461 178.122 259.313 178.96C257.661 178.836 257.376 177.81 257.126 176.859C256.753 175.448 256.487 174.007 256.194 172.575C254.102 162.342 244.642 154.343 234.789 154.933C225.111 155.512 217.871 160.009 214.024 169.316C213.686 170.132 213.645 171.748 212.284 171.272C210.871 170.779 211.602 169.366 211.902 168.39C213.238 164.037 215.882 160.525 219.511 157.939C236.631 145.745 255.432 155.677 259.229 172.373ZM303.337 133.503C312.875 134.769 320.455 139.329 324.375 148.486C328.205 157.433 326.355 165.835 320.931 173.623C320.622 174.066 320.198 174.437 319.785 174.792C319.599 174.952 319.31 174.99 318.705 175.224C318.305 173.214 319.194 171.781 319.91 170.348C321.47 167.222 322.752 164.028 323.149 160.515C324.276 150.546 319.389 141.927 310.221 137.985C302.011 134.453 294.234 135.218 287.002 140.614C286.418 141.05 285.813 141.458 285.199 141.851C285.071 141.932 284.862 141.884 284.454 141.913C284.488 141.412 284.345 140.803 284.585 140.502C285.488 139.374 286.389 138.18 287.519 137.31C292.204 133.703 297.706 132.755 303.337 133.503ZM265.528 162.015C271.552 162.387 274.577 168.41 274.034 173.021C273.995 173.348 273.726 173.649 273.505 174.074C271.848 173.899 271.524 172.804 271.136 171.809C270.708 170.712 270.428 169.553 269.939 168.486C268.504 165.355 265.948 164.186 262.545 164.986C261.781 165.165 260.996 165.256 260.222 165.387C259.636 163.911 260.381 163.106 261.3 162.793C262.646 162.333 264.133 161.93 265.528 162.015ZM273.651 153.331C279.958 156.799 283.634 164.626 280.987 169.476C279.454 167.919 279.052 166.143 278.537 164.432C277.741 161.786 276.619 159.357 274.511 157.469C271.137 154.446 267.308 153.396 263.004 154.897C260.976 155.605 259.071 156.675 257.116 157.591C256.304 157.971 255.483 158.591 254.841 157.362C257.715 151.981 267.42 149.905 273.651 153.331ZM313.554 154.394C314.721 158.696 313.664 162.693 311.841 166.569C311.654 166.967 311.321 167.31 311.005 167.628C310.827 167.807 310.544 167.882 310.239 168.039C309.022 167.467 309.27 166.457 309.514 165.499C309.895 163.999 310.38 162.525 310.74 161.021C311.298 158.685 311.437 156.354 310.601 154.022C308.406 147.9 302.563 145.118 296.049 147.125C294.724 147.533 293.392 147.918 291.953 148.346C291.699 146.629 292.741 146.245 293.557 145.796C299.991 142.255 310.816 144.31 313.554 154.394ZM293.91 163.262C293.971 165.451 293.914 165.637 292.682 167.464C291.225 166.832 290.99 165.675 290.79 164.484C290.427 162.315 290.188 160.114 289.653 157.988C287.2 148.251 279.082 141.565 269.13 141.184C265.061 141.028 261.206 142.149 257.59 144.05C254.083 145.893 251.043 148.35 248.241 151.144C247.491 151.892 246.692 153.584 245.459 152.344C244.421 151.301 245.701 150.114 246.456 149.3C251.498 143.865 257.493 140.167 264.888 138.818C279.45 136.162 293.475 147.742 293.91 163.262ZM206.967 163.001C207.654 163.194 208.23 163.789 208.858 164.199C208.823 164.437 208.788 164.675 208.754 164.912C207.666 165.163 206.589 165.514 205.487 165.636C204.503 165.743 203.493 165.561 202.494 165.573L202.111 165.577C200.151 165.601 198.212 165.673 196.524 167.021C196.159 167.312 195.408 167.102 194.836 167.124C194.854 166.524 194.635 165.708 194.936 165.368C195.701 164.502 196.593 163.576 197.623 163.162C200.677 161.935 203.85 162.121 206.967 163.001ZM303.472 154.556C305.24 156.6 305.723 161.823 304.307 164.147C304.106 164.48 303.628 164.64 303.283 164.878C302.064 164.071 302.284 162.912 302.219 161.864C302.141 160.596 302.211 159.309 302.026 158.059C301.715 155.966 300.963 155.29 298.906 154.885C298.173 154.741 297.446 154.558 296.225 154.281C298.918 152.119 301.643 152.443 303.472 154.556ZM217.446 141.509C219.984 143.25 221.913 145.544 223.438 148.192C224.243 149.591 224.23 149.743 223.792 151.519C222.531 151.784 221.784 150.958 221.072 150.14C220.292 149.244 219.586 148.284 218.826 147.371C213.656 141.169 206.765 139.245 199.15 140.128C187.348 141.495 180.155 148.955 175.38 159.284C174.751 160.645 174.615 162.311 172.5 163.728C172.467 162.32 172.221 161.408 172.469 160.661C173.215 158.413 173.9 156.087 175.058 154.048C180.037 145.288 187.083 139.088 197.298 137.443C204.445 136.293 211.304 137.294 217.446 141.509ZM206.102 151.866C207.529 152.456 208.976 153.017 210.344 153.726C211.164 154.15 211.849 154.833 212.594 155.399C212.522 155.612 212.449 155.824 212.377 156.036C211.722 156.078 211.032 156.273 210.418 156.133C208.56 155.709 206.672 155.308 204.901 154.626C198.527 152.17 191.074 153.742 186.49 160.129C186.251 160.462 185.843 160.674 185.268 161.142C184.208 159.346 184.868 158.144 185.652 157.034C187.439 154.507 189.913 152.809 192.779 151.749C197.211 150.111 201.68 150.039 206.102 151.866Z" fill="#A873FA"/>
<path fill-rule="evenodd" clip-rule="evenodd" d="M313.607 240.743C314.176 240.681 314.699 240.654 315.21 240.562C324.406 238.92 333.616 237.371 342.921 236.458C344.781 236.276 346.626 235.936 348.485 235.743C336.92 235.529 325.364 235.316 313.607 235.098V240.743ZM300.062 233.558C319.951 233.937 339.601 234.313 359.254 234.687C345.861 226.656 332.469 218.626 318.987 210.541C316.934 213.025 314.934 215.446 312.859 217.956C313.548 218.252 314.022 218.465 314.503 218.66C318.952 220.459 323.403 222.255 327.853 224.053C328.24 224.209 328.668 224.315 328.992 224.558C328.995 224.559 328.997 224.561 329 224.563C329.413 224.881 329.277 225.534 328.801 225.746C328.737 225.775 328.672 225.801 328.607 225.826C328.475 225.874 328.299 225.804 328.144 225.785C321.929 225.015 315.713 224.258 309.502 223.461C308.965 223.392 308.408 223.377 308.408 223.377C308.408 223.377 307.231 225.01 306.751 225.626C306.751 225.626 304.283 228.514 300.985 232.346C300.625 232.765 300.536 232.82 300.062 233.558ZM312.122 235.125C307.827 234.815 303.492 235.122 298.947 234.73C298.403 234.684 298.082 234.106 298.324 233.616C298.425 233.411 298.526 233.234 298.654 233.078C301.458 229.637 304.303 226.228 307.097 222.778C307.698 222.034 308.397 221.785 309.289 221.902C309.95 221.988 310.61 222.083 311.305 222.179C311.305 220.976 311.342 219.893 311.293 218.815C311.26 218.086 311.494 217.53 311.962 216.978C313.888 214.707 315.773 212.403 317.679 210.115C318.7 208.889 318.711 208.882 320.116 209.723C328.134 214.524 336.149 219.331 344.165 224.137C349.314 227.224 354.466 230.309 359.609 233.407C360.251 233.793 361.132 234.054 360.837 235.124C360.539 236.202 359.656 235.886 358.905 235.961C355.893 236.263 352.883 236.588 349.875 236.928C345.622 237.407 341.358 237.815 337.122 238.42C330.614 239.351 324.126 240.424 317.629 241.438C316.443 241.623 315.262 241.851 314.07 241.99C312.772 242.141 312.131 241.526 312.124 240.202C312.116 238.544 312.122 236.885 312.122 235.125Z" fill="#005E8B"/>
<path fill-rule="evenodd" clip-rule="evenodd" d="M313.61 235.096C325.367 235.313 336.923 235.527 348.487 235.741C346.629 235.934 344.784 236.274 342.923 236.456C333.619 237.369 324.409 238.918 315.213 240.56C314.702 240.652 314.179 240.679 313.61 240.741V235.096ZM318.99 210.539C332.472 218.624 345.864 226.654 359.257 234.685C339.604 234.31 319.954 233.935 300.064 233.556C300.539 232.818 300.627 232.763 300.988 232.344C304.286 228.512 306.754 225.624 306.754 225.624C307.214 225.033 308.314 223.509 308.405 223.383L308.411 223.375C308.411 223.375 308.968 223.39 309.505 223.458C315.716 224.255 321.932 225.013 328.147 225.783C328.302 225.802 328.478 225.872 328.609 225.823C328.675 225.799 328.74 225.773 328.804 225.744C329.28 225.532 329.416 224.879 329.003 224.561L328.995 224.555C328.67 224.313 328.242 224.207 327.856 224.051C323.406 222.253 318.955 220.457 314.505 218.658C314.024 218.463 313.551 218.25 312.862 217.954C314.937 215.443 316.937 213.023 318.99 210.539Z" fill="white"/>
<path fill-rule="evenodd" clip-rule="evenodd" d="M355.688 141.668C355.747 142.846 355.726 144.035 355.647 145.214C355.199 151.827 354.7 158.437 354.265 165.05C354.07 168.019 354.004 170.995 353.84 173.966C353.774 175.162 353.646 176.359 353.469 177.544C353.244 179.048 352.796 179.403 351.315 179.473C342.87 179.876 334.426 180.306 325.98 180.676C323.061 180.804 320.134 180.748 317.213 180.843C312.97 180.981 308.73 181.189 304.488 181.354C304.177 181.366 303.865 181.367 303.554 181.345C302.086 181.243 301.634 180.843 301.714 179.48C301.837 177.396 302.006 175.315 302.196 173.236C302.939 165.071 304.177 156.972 305.397 148.87C305.543 148.169 305.758 147.877 305.787 144.688C305.793 143.947 306.277 143.281 307.016 143.227C307.02 143.227 307.025 143.226 307.029 143.226C312.182 142.871 317.331 142.433 322.49 142.212C329.946 141.892 337.41 141.733 344.871 141.504C347.532 141.422 350.193 141.354 352.852 141.237C353.357 141.215 353.874 141.027 354.348 140.833C355.041 140.548 355.65 140.92 355.688 141.668Z" fill="white"/>
<path fill-rule="evenodd" clip-rule="evenodd" d="M308.118 144.564C315.032 151.417 322.526 157.47 329.919 163.649C337.408 156.611 344.789 149.674 352.399 142.521C337.463 143.046 322.805 143.028 308.118 144.564ZM354.494 142.746C354.035 143.06 353.853 143.153 353.709 143.288C346.838 149.707 339.969 156.128 333.107 162.557C332.538 163.09 332.062 163.724 331.476 164.235C330.138 165.403 330.049 165.392 328.719 164.307C327.06 162.952 325.383 161.618 323.763 160.217C318.546 155.708 313.353 151.174 308.15 146.648C307.851 146.388 307.553 146.127 307.145 145.77C305.471 157.213 303.574 168.462 302.994 180.052C303.696 180.052 304.206 180.068 304.713 180.049C308.417 179.909 312.121 179.757 315.825 179.617C324.226 179.299 332.628 178.997 341.028 178.665C344.315 178.536 347.6 178.346 350.886 178.18C352.056 178.121 352.103 178.094 352.263 176.95C352.401 175.968 352.528 174.982 352.593 173.993C353.063 166.803 353.525 159.612 353.97 152.421C354.163 149.304 354.309 146.184 354.494 142.746ZM305.787 144.688C305.793 143.947 306.277 143.281 307.016 143.227C307.02 143.227 307.025 143.226 307.029 143.226C312.182 142.871 317.331 142.433 322.49 142.212C329.946 141.892 337.41 141.733 344.871 141.504C347.532 141.422 350.193 141.354 352.852 141.237C353.357 141.215 353.874 141.027 354.348 140.833C355.041 140.548 355.65 140.92 355.688 141.668C355.747 142.846 355.726 144.035 355.647 145.214C355.199 151.827 354.7 158.437 354.265 165.05C354.07 168.019 354.004 170.995 353.84 173.966C353.774 175.162 353.646 176.359 353.469 177.544C353.244 179.048 352.796 179.403 351.315 179.473C342.87 179.876 334.426 180.306 325.98 180.676C323.061 180.804 320.134 180.748 317.213 180.843C312.97 180.981 308.73 181.189 304.488 181.354C304.177 181.366 303.865 181.367 303.554 181.345C302.086 181.243 301.634 180.843 301.714 179.48C301.837 177.396 302.006 175.315 302.196 173.236C302.939 165.071 304.177 156.972 305.397 148.87C305.543 148.169 305.758 147.877 305.787 144.688Z" fill="#1D242F"/>
<path fill-rule="evenodd" clip-rule="evenodd" d="M200.347 121.905C211.315 122.004 221.697 124.336 231.421 129.435C237.06 132.392 241.993 136.313 246.702 140.561C250.889 144.337 255.056 148.15 259.443 151.683C265.653 156.683 272.647 160.243 280.448 162.116C282.56 162.623 284.707 162.981 286.866 163.219C287.959 163.34 289.056 163.431 290.154 163.494C291.14 163.552 292.294 163.419 293.226 163.786C293.571 163.921 293.648 164.254 293.418 164.549C293.212 164.814 292.81 164.843 292.503 164.835C291.251 164.801 289.997 164.771 288.748 164.685C276.58 163.844 266.083 158.963 256.808 151.277C253.151 148.247 249.659 145.014 246.155 141.805C241.205 137.271 235.97 133.149 229.947 130.112C222.781 126.499 215.191 124.371 207.2 123.658C193.372 122.425 180.158 124.679 167.595 130.623C166.56 131.113 165.577 131.713 164.579 132.278C164.194 132.496 163.737 132.732 163.515 132.244C163.406 132.005 163.646 131.427 163.902 131.239C164.614 130.719 165.391 130.272 166.186 129.886C173.704 126.228 181.573 123.698 189.9 122.756C193.37 122.363 196.864 122.182 200.347 121.905Z" fill="#1D242F"/>
<path fill-rule="evenodd" clip-rule="evenodd" d="M115.389 55.0022C118.781 67.0077 122.086 78.7049 125.433 90.5494C125.595 91.1234 125.309 91.73 124.761 91.9654C124.496 92.0798 124.225 92.193 123.951 92.2988C118.451 94.4209 112.924 96.4743 107.454 98.6717C102.323 100.733 97.2584 102.958 92.1508 105.079C91.1424 105.498 90.0776 105.784 89.0303 106.104C88.2828 106.332 87.6997 106.115 87.3543 105.374C86.891 104.381 86.3406 103.421 85.965 102.396C82.9457 94.166 79.9565 85.9244 76.9676 77.6829C76.7969 77.2122 76.4882 76.5437 76.3457 75.9973C76.6118 75.9973 76.9889 76.1252 77.1142 76.1709C82.7704 78.2396 88.6728 79.3725 94.5103 80.7494C96.4396 81.2043 98.3729 81.6455 100.314 82.0478C101.712 82.3381 101.982 82.1984 102.685 80.9184C103.213 79.9582 103.702 78.9753 104.181 77.9893C107.602 70.9456 111.016 63.8979 114.434 56.8527C114.681 56.344 114.952 55.8469 115.389 55.0022ZM114.143 54.4165C109.85 63.2995 105.629 72.0313 101.277 81.0356C93.0716 78.9529 84.885 77.6407 77.003 74.7549C83.5937 69.1364 108.117 55.6695 114.143 54.4165Z" fill="white"/>
<path fill-rule="evenodd" clip-rule="evenodd" d="M101.277 81.0371C105.63 72.0328 109.85 63.3009 114.144 54.4179C108.117 55.671 83.5944 69.1379 77.0036 74.7564C84.8857 77.6421 93.0723 78.9543 101.277 81.0371ZM115.389 55.0036C114.953 55.8483 114.682 56.3455 114.435 56.8542C111.016 63.8993 107.603 70.947 104.181 77.9907C103.702 78.9767 103.214 79.9596 102.686 80.9198C101.982 82.1998 101.713 82.3395 100.314 82.0492C98.3735 81.6469 96.4402 81.2058 94.511 80.7508C88.6735 79.3739 82.771 78.241 77.1149 76.1724C76.9896 76.1267 76.6125 75.9988 76.3464 75.9988C76.4889 76.5451 76.7976 77.2136 76.9683 77.6843C79.9572 85.9259 82.9463 94.1674 85.9657 102.397C86.3413 103.422 86.8917 104.382 87.3549 105.375C87.7004 106.116 88.2835 106.334 89.031 106.105C90.0783 105.786 91.143 105.499 92.1515 105.08C97.259 102.96 102.324 100.735 107.455 98.6732C112.924 96.4758 118.452 94.4223 123.951 92.3002C124.226 92.1945 124.497 92.0812 124.762 91.9669C125.309 91.7315 125.596 91.1248 125.434 90.5509C122.087 78.7063 118.782 67.0092 115.389 55.0036ZM75.0316 75.943C74.791 75.1975 75.054 74.3828 75.6805 73.912C75.7187 73.8833 75.7572 73.8554 75.796 73.8278C86.2315 66.4651 97.3039 60.2146 108.92 54.9226C110.342 54.2748 111.813 53.7276 113.287 53.2069C115.542 52.4105 116.028 52.6574 116.684 54.9117C117.749 58.5673 118.791 62.2301 119.817 65.8967C121.588 72.2259 123.326 78.5643 125.107 84.8904C125.545 86.4455 126.106 87.9658 126.595 89.5071C126.768 90.0523 126.928 90.6061 127.037 91.1668C127.185 91.9286 126.903 92.4914 126.153 92.7865C125.474 93.0538 124.808 93.3581 124.121 93.6004C115.259 96.7206 106.612 100.367 98.0077 104.127C95.6686 105.149 93.2528 105.998 90.8582 106.888C90.1794 107.14 89.4575 107.297 88.7425 107.426C87.6998 107.614 86.885 107.217 86.4002 106.27C85.83 105.156 85.207 104.056 84.7776 102.886C81.7212 94.5629 78.7053 86.2242 75.6851 77.8872C75.4572 77.2584 75.2506 76.6213 75.0316 75.943Z" fill="#1D242F"/>
<path fill-rule="evenodd" clip-rule="evenodd" d="M44.0009 121.373C40.0929 121.231 36.3002 120.498 32.5052 119.782C29.0059 119.123 25.5199 118.449 21.9022 118.64C16.8625 118.906 12.1331 121.142 8.60368 124.749C5.09002 128.34 2.5969 132.546 1.4798 137.542C1.34358 138.151 1.30967 138.787 1.1266 139.38C1.11079 139.431 1.08119 139.477 1.04182 139.521C0.765921 139.83 0.231659 139.756 0.0485908 139.385C0.0227255 139.332 0.00634416 139.279 0.00433242 139.225C-0.017222 138.658 0.0422682 138.073 0.169008 137.518C1.73041 130.667 5.37971 125.139 11.0126 121C14.8978 118.145 19.4082 117.048 24.1835 117.374C27.0364 117.568 29.8782 118.044 32.7006 118.535C36.8152 119.25 40.9094 120.12 45.118 119.908C53.7303 119.475 61.2421 116.569 66.8394 109.759C69.054 107.065 70.9465 104.105 72.9778 101.261C73.3413 100.751 73.6543 100.206 74.0141 99.6932C74.3207 99.2563 74.5481 98.4755 75.2711 98.9422C75.8956 99.3457 75.3916 99.9087 75.1197 100.299C72.734 103.724 70.4576 107.236 67.8855 110.516C63.503 116.105 57.5095 119.132 50.6629 120.536C48.477 120.984 46.2236 121.104 44.0009 121.373Z" fill="#1D242F"/>
<path fill-rule="evenodd" clip-rule="evenodd" d="M159.094 25.0563C155.472 21.5918 151.862 18.1137 148.21 14.6811C147.933 14.4208 147.36 14.3245 146.954 14.3759C143.072 14.8645 139.197 15.4008 135.321 15.9253C133.719 16.1419 132.122 16.396 130.515 16.5558C130.478 16.5595 130.441 16.5592 130.403 16.5558C129.777 16.4995 129.504 15.6649 129.979 15.2536C130.005 15.2306 130.033 15.2099 130.063 15.1921C131.042 14.5975 132.073 14.0877 133.095 13.5666C136.065 12.0532 139.04 10.5499 142.23 8.93243C139.435 6.40223 136.747 3.97003 134.063 1.54013C122.259 9.50779 111.184 18.1439 99.967 26.8847C119.855 26.2696 139.474 25.663 159.094 25.0563ZM98.4291 28.6002C97.5213 28.613 97.0979 27.4655 97.8153 26.9094C97.8207 26.9051 97.8262 26.901 97.8316 26.8967C99.239 25.8144 100.635 24.7174 102.036 23.6271C112.258 15.6726 122.558 7.8231 133.237 0.484543C133.447 0.340272 133.659 0.199163 133.954 0C134.508 0.416718 135.075 0.781994 135.571 1.22688C138.136 3.52889 140.659 5.87975 143.253 8.14814C144.01 8.80971 144.1 9.51009 143.916 10.3803C143.712 11.3416 143.572 12.4834 143.363 13.5485C145.261 13.427 145.805 13.2916 146.957 13.0108C147.652 12.8412 148.232 12.8671 148.812 13.4287C152.942 17.4226 157.104 21.3837 161.251 25.3603L161.254 25.3632C161.513 25.6072 161.394 26.0469 161.044 26.1173C160.479 26.2317 159.679 26.2837 159.115 26.3021C150.974 26.5682 142.831 26.8074 134.689 27.0522C127.957 27.2545 121.223 27.4307 114.492 27.6646C110.371 27.8078 106.253 28.0239 102.136 28.2386C101.043 28.2955 99.9578 28.4843 98.8663 28.5791C98.7205 28.5918 98.5746 28.5978 98.4291 28.6002Z" fill="#005E8B"/>
<path fill-rule="evenodd" clip-rule="evenodd" d="M159.092 25.0572C155.47 21.5926 151.86 18.1146 148.208 14.682C147.931 14.4216 147.358 14.3254 146.951 14.3768C143.07 14.8654 139.195 15.4016 135.319 15.9261C133.717 16.1428 132.12 16.3969 130.513 16.5567C130.476 16.5604 130.439 16.5601 130.401 16.5567C129.775 16.5003 129.502 15.6658 129.977 15.2545C130.003 15.2315 130.031 15.2108 130.061 15.193C131.039 14.5984 132.071 14.0885 133.093 13.5675C136.062 12.0541 139.038 10.5508 142.228 8.93331C139.433 6.40311 136.745 3.97091 134.061 1.54102C122.256 9.50867 111.182 18.1448 99.9648 26.8855C119.853 26.2705 139.471 25.6638 159.092 25.0572Z" fill="white"/>
<path fill-rule="evenodd" clip-rule="evenodd" d="M64.9609 205.422C65.0581 204.769 65.2109 204.123 65.303 203.47C65.8409 199.645 66.4368 195.827 66.8727 191.99C67.0396 190.521 67.6896 189.657 68.9426 188.963C72.3648 187.067 75.7714 185.136 79.1125 183.101C83.7443 180.281 88.3369 177.394 92.8925 174.451C94.648 173.317 96.1917 171.88 97.3958 170.141C100.24 166.032 99.868 160.951 93.7598 158.777C91.5134 157.977 89.1729 157.817 86.8099 157.927C81.7727 158.162 77.0748 159.725 72.4893 161.669C66.2659 164.307 60.5096 167.801 54.8962 171.525C50.68 174.322 46.5391 177.233 42.387 180.125C39.6309 182.045 38.0215 184.688 37.5376 188.028C36.9251 192.255 38.9206 195.717 42.9509 197.156C43.9663 197.518 45.0804 197.706 46.1601 197.764C48.1035 197.868 50.0116 197.528 51.8527 196.878C53.3293 196.357 54.8088 195.84 56.2667 195.27C56.9816 194.991 57.4492 195.077 57.8822 195.702C58.2739 196.268 58.8286 197.129 59.2331 197.686C61.118 200.282 63.0479 202.846 64.9609 205.422ZM56.8013 196.458C55.3099 196.999 53.9462 197.515 52.5685 197.99C49.9184 198.903 47.2082 199.355 44.4075 198.892C39.913 198.149 36.5932 194.94 36.2489 190.619C35.928 186.591 36.9482 182.849 40.3179 180.291C49.3436 173.441 58.634 166.977 68.8288 161.938C73.1486 159.803 77.6408 158.119 82.3857 157.187C85.8487 156.507 89.3242 156.342 92.7943 157.151C94.7049 157.596 96.4567 158.38 97.9161 159.726C99.7671 161.432 100.584 163.528 100.317 166.054C100.071 168.384 99.1297 170.431 97.4918 172.03C95.7839 173.698 93.9581 175.291 91.994 176.641C84.8925 181.519 77.3298 185.646 69.8475 189.897C68.7942 190.495 68.2511 191.151 68.1021 192.373C67.5847 196.62 66.9678 200.855 66.3638 205.091C66.2582 205.832 66.4017 206.832 65.4566 207.069C64.6084 207.282 64.2204 206.411 63.7975 205.854C61.745 203.156 59.7273 200.429 57.6999 197.711C57.4218 197.338 57.1572 196.956 56.8013 196.458Z" fill="#BF335D"/>
<path fill-rule="evenodd" clip-rule="evenodd" d="M64.9624 205.422C65.0596 204.769 65.2124 204.124 65.3044 203.47C65.8424 199.645 66.4383 195.827 66.8742 191.991C67.0411 190.522 67.6911 189.658 68.9441 188.963C72.3662 187.067 75.7729 185.136 79.114 183.102C83.7458 180.282 88.3384 177.394 92.894 174.451C94.6494 173.318 96.1932 171.88 97.3973 170.141C100.241 166.032 99.8694 160.952 93.7613 158.778C91.5149 157.978 89.1744 157.817 86.8113 157.928C81.7742 158.162 77.0763 159.725 72.4908 161.669C66.2674 164.307 60.5111 167.802 54.8977 171.526C50.6815 174.322 46.5406 177.234 42.3884 180.126C39.6324 182.045 38.0229 184.689 37.539 188.028C36.9266 192.255 38.9221 195.717 42.9524 197.156C43.9678 197.519 45.0819 197.707 46.1616 197.764C48.105 197.868 50.0131 197.529 51.8542 196.878C53.3308 196.357 54.8103 195.841 56.2682 195.271C56.9831 194.991 57.4507 195.078 57.8837 195.702C58.2754 196.268 58.8301 197.129 59.2346 197.686C61.1195 200.283 63.0494 202.846 64.9624 205.422Z" fill="white"/>
<path fill-rule="evenodd" clip-rule="evenodd" d="M107.563 167.916C107.565 167.917 107.567 167.919 107.569 167.921C109.3 169.346 111.015 170.791 112.722 172.245C112.909 172.405 113.066 172.649 113.135 172.884C113.182 173.047 113.109 173.317 112.988 173.437C112.872 173.552 112.627 173.555 112.436 173.567C112.347 173.573 112.239 173.499 112.161 173.434C110.325 171.891 108.491 170.345 106.66 168.795C106.543 168.696 106.371 168.548 106.38 168.437C106.381 168.434 106.381 168.431 106.382 168.428C106.435 167.868 107.124 167.563 107.563 167.916ZM109.245 161.111C110.694 161.12 112.143 161.141 113.592 161.155C113.851 161.158 114.112 161.124 114.368 161.149C114.778 161.19 115.302 161.218 115.223 161.782C115.195 161.981 114.948 162.149 114.753 162.296C114.644 162.379 114.509 162.423 114.371 162.423C113.176 162.423 112.106 162.427 111.036 162.421C110 162.416 108.964 162.428 107.932 162.365C107.878 162.362 107.826 162.345 107.774 162.319C107.422 162.143 107.36 161.664 107.613 161.362C107.687 161.274 107.767 161.205 107.859 161.177C108.289 161.048 108.78 161.107 109.245 161.111ZM110.665 150.922C110.874 150.865 111.225 150.907 111.341 151.047C111.463 151.196 111.436 151.528 111.372 151.751C111.32 151.932 111.129 152.083 110.979 152.226C109.472 153.669 107.961 155.111 106.447 156.546C106.336 156.651 106.214 156.744 106.109 156.82C105.932 156.949 105.703 157.006 105.497 156.934C105.189 156.827 105.031 156.515 105.169 156.201C105.289 155.928 105.51 155.682 105.73 155.47C107.158 154.094 108.596 152.729 110.037 151.367C110.224 151.19 110.432 150.986 110.665 150.922Z" fill="#BF335D"/>
<path fill-rule="evenodd" clip-rule="evenodd" d="M348.208 74.8252C347.219 76.5535 346.247 78.2787 345.247 79.987C344.905 80.5701 344.547 81.161 344.098 81.6596C343.435 82.3953 342.762 82.3479 342.112 81.5823C341.845 81.267 341.62 80.9038 341.435 80.5328C340.504 78.6661 339.531 76.8168 338.704 74.905C338.316 74.0087 337.818 73.5172 336.868 73.2419C329.374 71.0704 322.248 67.9996 315.401 64.2756C312.782 62.8513 310.267 61.249 308.069 59.2221C306.924 58.1659 305.801 57.0373 304.901 55.7751C301.809 51.4401 302.797 46.5662 307.331 43.7885C311.493 41.2379 316.077 40.4562 320.878 41.0615C330.043 42.2165 338.574 45.3833 346.799 49.4519C348.855 50.4687 350.832 51.6427 352.854 52.7279C354.804 53.7743 356.429 55.2377 358.098 56.6637C362.078 60.0661 362.219 67.7746 357.537 71.5224C355.124 73.4537 352.317 74.2935 349.327 74.6895C348.967 74.7372 348.607 74.7772 348.208 74.8252Z" fill="white"/>
<path fill-rule="evenodd" clip-rule="evenodd" d="M343.125 80.7854C343.465 80.3307 343.739 80.0313 343.937 79.6881C344.85 78.1057 345.79 76.5357 346.625 74.9119C347.127 73.9334 347.731 73.4586 348.906 73.3905C351.712 73.2275 354.316 72.3705 356.596 70.6327C360.781 67.4432 360.729 60.4524 357.206 57.6262C355.542 56.2907 353.901 54.8813 352.076 53.7978C343.902 48.9455 335.208 45.3235 325.924 43.2025C322.248 42.3628 318.538 41.7731 314.751 42.4315C311.992 42.9111 309.379 43.7722 307.124 45.4876C304.571 47.4295 303.729 50.1873 304.958 53.1374C305.469 54.362 306.283 55.5092 307.156 56.5232C309.044 58.7191 311.349 60.4785 313.873 61.8609C317.484 63.8396 321.123 65.8042 324.894 67.4469C328.855 69.1733 332.967 70.5634 337.051 71.9941C338.434 72.4783 339.378 73.1709 339.927 74.5777C340.552 76.1768 341.39 77.6936 342.163 79.2326C342.414 79.7315 342.75 80.1867 343.125 80.7854ZM348.208 74.8252C347.219 76.5535 346.247 78.2787 345.247 79.987C344.905 80.5701 344.547 81.161 344.098 81.6596C343.435 82.3953 342.762 82.3479 342.112 81.5823C341.845 81.267 341.62 80.9038 341.435 80.5328C340.504 78.6661 339.531 76.8168 338.704 74.905C338.316 74.0087 337.818 73.5172 336.868 73.2419C329.374 71.0704 322.248 67.9996 315.401 64.2756C312.782 62.8513 310.267 61.249 308.069 59.2221C306.924 58.1659 305.801 57.0373 304.901 55.7751C301.809 51.4401 302.797 46.5662 307.331 43.7885C311.493 41.2379 316.077 40.4562 320.878 41.0615C330.043 42.2165 338.574 45.3833 346.799 49.4519C348.855 50.4687 350.832 51.6427 352.854 52.7279C354.804 53.7743 356.429 55.2377 358.098 56.6637C362.078 60.0661 362.219 67.7746 357.537 71.5224C355.124 73.4537 352.317 74.2935 349.327 74.6895C348.967 74.7372 348.607 74.7772 348.208 74.8252Z" fill="#BF335D"/>
<path fill-rule="evenodd" clip-rule="evenodd" d="M291.138 34.0949C291.302 34.1908 291.457 34.2848 291.595 34.3986C294.284 36.6153 296.97 38.8362 299.646 41.0693C300.002 41.3664 300.339 41.7082 300.599 42.0878C300.708 42.2464 300.68 42.6982 300.562 42.7698C300.351 42.8988 300.023 42.8761 299.75 42.8485C299.622 42.8356 299.509 42.664 299.389 42.5643L295.37 39.2218C294.031 38.1073 292.692 36.9916 291.356 35.8727C290.961 35.5419 290.595 35.1683 290.267 34.7717C290.169 34.6524 290.176 34.3489 290.261 34.202C290.285 34.1598 290.322 34.125 290.367 34.0943C290.595 33.9385 290.9 33.9552 291.138 34.0949ZM298.858 27.6389L298.903 27.7085C300.27 29.803 301.627 31.9041 302.979 34.0084C303.598 34.9729 304.225 35.9345 304.788 36.9317C304.932 37.1884 304.988 37.7008 304.835 37.8778C304.483 38.283 304.077 38.0319 303.796 37.67C303.541 37.3415 303.312 36.9918 303.087 36.6409C301.349 33.9181 299.611 31.1945 297.882 28.4657C297.846 28.4085 297.811 28.3508 297.777 28.2919C297.372 27.5889 298.412 26.9607 298.858 27.6389ZM308.282 23.6066C308.44 23.787 308.478 24.0819 308.544 24.3328C309.357 27.4545 310.177 30.5747 310.957 33.7049C311.028 33.9912 310.942 34.497 310.745 34.6341C310.293 34.9473 309.976 34.576 309.808 34.1613C309.594 33.6317 309.384 33.0942 309.246 32.5416C308.575 29.8657 307.929 27.1832 307.274 24.5035C307.25 24.4081 307.225 24.313 307.195 24.2052C307.109 23.8925 307.168 23.5454 307.388 23.3065C307.441 23.2493 307.497 23.2082 307.559 23.1973C307.776 23.1594 308.101 23.4014 308.282 23.6066Z" fill="#BF335D"/>
<path fill-rule="evenodd" clip-rule="evenodd" d="M231.016 106.034C230.989 105.705 231.27 106.562 231.315 107.109C231.758 112.352 232.412 121.584 232.927 126.819C233.447 132.109 234.656 142.897 235.31 148.172C236.114 154.658 236.307 151.89 237.195 158.364C238.099 164.948 239.07 171.522 240.017 178.1C240.862 183.965 241.691 189.832 242.569 195.692C243.793 203.862 245.059 212.025 246.296 220.193C246.515 221.64 246.818 224.014 246.986 225.467C247.175 227.1 249.408 227.297 247.775 227.454C247.504 227.48 247.233 227.507 246.986 227.531L248.157 243.303C249.081 243.303 249.783 243.318 250.484 243.301C254.485 243.705 257.186 243.853 260.679 244.614C263.095 245.14 265.753 245.792 267.771 247.238C270.389 249.114 271.766 251.633 271.811 254.863C271.852 257.714 271.337 260.488 270.638 263.231C270.327 264.448 270.051 264.62 268.743 264.596C261.623 264.463 254.487 264.52 247.413 263.581C241.627 262.813 236.785 261.108 231.016 260.209C230.811 260.177 230.624 260.033 230.397 259.925C230.397 258.242 230.302 256.584 230.412 254.94C230.989 246.32 231.277 237.109 231.894 228.491C231.945 227.771 228.544 226.242 227.572 226.075C227.186 225.773 227.109 224.983 227.034 224.395C226.536 220.495 226.109 216.585 225.599 212.687C224.551 204.669 223.534 196.647 222.379 188.645C220.757 177.409 219.486 170.306 217.98 159.055C216.948 151.354 217.79 141.531 216.221 133.941C215.919 132.477 215.66 131.004 215.363 129.539C215.279 129.12 215.13 128.714 215.01 128.303C214.894 128.306 212.943 126.816 212.827 126.819C212.193 129.653 211.018 133.986 210.333 136.808C208.399 144.77 206.364 152.707 204.483 160.681C200.976 175.556 199.36 187.555 195.19 202.26C191.02 216.966 190.106 220.343 188.105 227.454C187.447 229.791 186.915 232.161 186.429 234.54C186.082 236.245 186.873 235.596 185.302 235.243C183.521 234.844 180.941 234.38 179.121 233.947C177.834 238.407 176.579 242.753 175.285 247.238C175.682 247.374 176.012 247.836 176.476 247.973C180.126 249.049 183.591 250.524 186.726 252.699C187.455 253.205 188.165 253.748 188.83 254.335C192.154 257.269 193.068 260.832 191.568 265.007C191.319 265.7 190.975 266.359 190.686 267.039C190.551 267.357 190.376 267.657 190.177 267.939C187.967 271.061 188.484 269.834 186.429 269.777C184.601 269.727 181.723 269.554 179.928 269.205C176.943 268.625 175.912 267.918 173.044 266.896C170.482 265.983 169.465 266.452 168.161 265.384C164.876 262.697 162.064 259.556 159.323 256.346C158.928 255.884 158.623 255.348 158.274 254.847C157.359 253.532 157.189 252.227 157.767 250.635C159.903 244.753 161.899 238.82 163.942 232.905C164.122 232.383 164.263 231.848 164.455 231.207C162.891 230.695 163.398 229.568 163.635 228.491C167.95 208.907 171.533 190.697 177.408 171.52C183.284 152.343 185.415 140.052 189.389 125.987C191.149 119.757 192.086 113.404 193.613 107.109C193.743 106.574 193.735 107.05 193.971 106.556L231.016 106.034Z" fill="white"/>
<path fill-rule="evenodd" clip-rule="evenodd" d="M231.511 106.344C231.675 106.866 231.764 107.421 231.81 107.969C232.249 113.215 232.609 118.469 233.121 123.708C233.639 129.001 234.261 134.285 234.912 139.563C235.713 146.052 236.558 152.536 237.443 159.014C238.342 165.602 239.883 172.18 240.825 178.762C241.665 184.63 242.49 190.501 243.364 196.365C244.582 204.539 245.842 212.708 247.072 220.88C247.29 222.328 247.879 224.703 248.046 226.157C248.171 227.239 248.285 227.677 247.735 227.73L248.276 243.313C249.196 243.313 249.894 243.327 250.591 243.31C254.571 243.715 257.26 243.863 260.735 244.624C263.139 245.15 265.784 245.803 267.791 247.25C270.396 249.127 271.766 251.648 271.812 254.88C271.851 257.732 271.339 260.508 270.643 263.252C270.335 264.47 270.06 264.643 268.758 264.618C261.674 264.486 254.574 264.542 247.536 263.603C241.778 262.835 236.049 261.851 230.309 260.952C230.106 260.92 229.92 260.776 229.694 260.668C229.694 258.984 229.6 257.325 229.709 255.68C230.283 247.055 230.331 238.432 230.944 229.81C230.969 229.451 230.908 228.085 230.908 228.091C230.908 228.098 228.184 228.175 227.697 228.091C227.312 227.79 225.434 218.41 224.926 214.509C223.883 206.487 222.872 198.46 221.722 190.453C220.108 179.211 218.533 168.003 217.034 156.746C216.008 149.04 215.76 141.479 214.199 133.885C213.898 132.42 213.642 130.946 213.346 129.48C213.262 129.061 213.113 128.655 212.994 128.243C212.878 128.246 212.894 128.245 212.778 128.249C212.148 131.084 211.56 133.93 210.878 136.753C208.955 144.72 206.354 152.662 204.483 160.641C200.993 175.525 199.049 190.362 194.9 205.076C192.895 212.188 191.219 219.229 189.228 226.344C188.573 228.683 188.044 231.054 187.561 233.435C187.214 235.141 186.725 235.6 185.162 235.248C183.39 234.848 181.627 234.409 179.816 233.977C178.535 238.439 177.287 242.787 175.999 247.275C176.395 247.411 176.846 247.583 177.308 247.72C180.939 248.797 184.387 250.272 187.506 252.449C188.231 252.955 188.938 253.498 189.599 254.086C192.906 257.022 193.816 260.587 192.324 264.764C192.076 265.458 191.734 266.117 191.446 266.798C191.312 267.115 191.138 267.416 190.939 267.698C188.74 270.822 188.83 270.348 186.786 270.291C184.967 270.24 182.103 270.067 180.317 269.718C177.347 269.138 175.394 268.696 172.541 267.673C169.992 266.76 169.405 266.475 168.107 265.407C164.839 262.718 162.041 259.575 159.313 256.363C158.92 255.901 158.616 255.364 158.27 254.863C157.359 253.547 157.19 252.241 157.765 250.649C159.891 244.763 161.876 238.827 163.909 232.908C164.089 232.386 164.228 231.85 164.42 231.209C162.863 230.697 163.399 229.583 163.604 228.492C167.345 208.592 171.147 190.303 176.316 170.713C180.317 155.55 183.282 141.252 188.404 125.085C190.342 118.968 190.865 115.67 192.384 109.371C192.514 108.835 192.659 108.292 192.893 107.799C192.979 107.617 193.371 107.447 193.575 107.493C193.765 107.535 193.97 107.851 194.023 108.08C194.082 108.332 194.001 108.629 193.935 108.895C191.835 117.389 189.976 125.953 187.573 134.36C182.749 151.237 178.723 167.714 174.394 184.87C170.533 200.17 166.91 218.016 165.588 226.067C165.399 227.219 165.083 228.329 164.835 229.437C171.825 230.899 178.736 232.344 185.819 233.825C185.924 233.558 186.132 233.18 186.221 232.777C188.321 223.301 190.969 214.144 193.565 204.809C197.543 190.507 199.444 176.115 202.825 161.66C204.667 153.787 207.278 145.96 209.158 138.096C210.124 134.057 210.941 129.982 211.823 125.922C212.175 124.305 212.169 124.28 213.812 124.015C215.123 123.803 216.443 123.642 217.762 123.494C219.11 123.342 219.448 123.687 219.262 125.085C219.064 126.567 218.778 128.037 218.568 129.517C218.076 132.973 217.489 135.016 217.034 138.476C216.971 138.955 216.979 143.291 217.034 143.78C218.167 153.914 218.568 157.923 219.205 162.355C219.842 166.788 221.099 176.146 222.09 183.055C223.215 190.898 224.25 198.754 225.277 206.611C226.11 212.984 226.991 217.897 227.697 221.996C228.199 224.905 228.861 226.154 228.965 226.64C234.712 226.669 240.825 226.881 246.718 226.64C246.524 225.035 246.091 223.51 245.864 221.996C244.066 209.997 242.215 198.006 240.455 186.001C238.968 175.859 236.946 165.711 235.592 155.55C234.29 145.774 233.065 135.987 231.935 126.189C231.402 121.568 231.174 116.912 230.805 112.273C230.677 110.671 230.534 109.07 230.405 107.468C230.379 107.139 230.321 106.79 230.402 106.483C230.459 106.269 230.713 105.989 230.908 105.963C231.098 105.938 231.454 106.16 231.511 106.344ZM159.124 251.368C158.663 252.786 158.632 252.939 159.461 254.094C162.417 258.212 165.848 261.89 169.866 264.989C170.548 265.515 171.421 265.838 172.237 266.129C175.979 267.463 175.76 267.573 180.12 268.259C181.779 268.614 185.926 269.073 187.63 269.09C187.881 269.034 188.854 268.511 189.577 267.374C189.211 267.294 188.849 267.364 188.652 267.343C186.342 267.09 184.034 266.828 181.722 266.598C178.079 266.237 174.389 264.829 171.729 262.96C167.798 259.885 163.96 256.713 160.634 252.966C160.164 252.436 159.661 251.935 159.124 251.368ZM189.226 255.769C185.275 256.68 183.298 259.479 182.656 265.286C184.005 265.433 185.26 265.573 186.515 265.707C187.763 265.839 189.013 265.966 190.168 266.085C192.455 262.135 191.935 257.892 189.226 255.769ZM163.705 238.075C162.294 242.035 160.942 245.829 159.561 249.704C160.355 250.589 161.127 251.448 161.898 252.307C165.168 255.949 168.909 259.064 172.794 262.013C175.047 263.402 178.189 264.902 181.142 265.058C181.555 262.765 181.932 261.161 182.765 259.197C183.644 257.122 185.625 255.404 188.105 254.543C186.971 253.779 185.362 252.744 184.165 252.145C183.975 252.217 183.743 252.445 182.742 253.319C181.943 254.017 181.308 254.348 180.416 255.044C179.69 255.61 179.325 256.136 178.542 255.797C178.053 255.517 178.359 254.871 179.446 253.981C180.497 253.119 181.41 252.38 182.685 251.375C181.717 250.811 181.137 250.546 180.391 250.229C179.693 249.932 178.926 249.785 178.926 249.785C178.473 250.095 178.296 250.252 177.961 250.559C177.103 251.343 176.209 252.086 175.332 252.849L175.29 252.886C174.672 253.423 173.792 252.608 174.292 251.96C175.087 250.931 176.16 250.195 177.268 249.115C176.046 248.6 175.132 248.448 175.063 248.496C174.691 248.753 174.125 249.063 173.487 249.736C172.852 250.351 172.204 250.961 171.509 251.504C171.463 251.54 171.409 251.565 171.348 251.581C170.925 251.696 170.492 251.341 170.513 250.903C170.516 250.838 170.528 250.777 170.552 250.721C170.696 250.383 170.996 250.088 171.283 249.839C172.035 249.187 172.832 248.586 173.58 247.931C173.941 247.615 174.378 247.274 174.532 246.853C175.135 245.204 175.64 243.519 176.233 241.687C172 240.466 167.891 239.282 163.705 238.075ZM231.109 255.589C231.045 256.959 230.986 258.205 230.925 259.521C243.66 262.216 256.311 263.434 269.234 263.178C269.538 261.818 269.823 260.545 270.157 259.056C256.942 259.327 244.095 257.728 231.109 255.589ZM264.643 247.024C261.679 248.765 258.679 253.436 258.021 257.416C262.083 257.831 266.128 257.771 270.14 257.675C271.322 251.841 268.702 248.905 264.643 247.024ZM232.249 239.712C231.897 244.545 231.555 249.259 231.204 254.084C239.66 255.829 247.998 256.635 256.426 257.343C257.557 253.07 259.594 249.456 263.066 246.196C261.235 245.822 260.081 245.623 258.399 245.348C257.998 245.247 257.227 245.223 257.227 245.223C256.963 245.351 256.894 245.623 256.697 245.931C256.099 246.862 255.511 247.801 254.87 248.703C254.517 249.2 254.409 250.082 253.501 249.882C252.982 249.769 253.05 249.061 253.689 248.012C254.283 247.038 254.907 246.081 255.534 245.089C253.834 244.807 252.922 244.688 252.705 244.852C252.416 245.072 252.16 245.59 251.801 246.102C251.197 246.962 250.678 247.882 250.054 248.727C249.679 249.236 249.471 250.373 248.554 249.76C247.795 249.252 248.586 248.57 248.893 248.045C249.524 246.966 250.22 245.925 250.912 244.833C249.633 244.784 248.29 244.484 248.075 244.717C247.804 245.01 247.322 245.742 246.991 246.3C246.455 247.203 245.818 248.045 245.218 248.908C245.03 249.178 244.857 249.488 244.599 249.671C244.421 249.798 244.038 249.843 243.878 249.734C243.708 249.617 243.591 249.255 243.633 249.034C243.691 248.724 243.89 248.427 244.075 248.156C244.826 247.061 245.603 245.984 246.351 244.887C246.593 244.531 246.947 244.137 246.955 243.754C246.984 242.336 246.89 240.915 246.84 239.419C241.901 238.972 237.134 239.104 232.249 239.712ZM166.805 243.349C168.649 243.349 170.074 244.83 170.091 246.766C170.111 248.876 168.361 250.756 166.316 250.82C164.472 250.879 162.864 249.23 162.899 247.318C162.937 245.264 164.821 243.35 166.805 243.349ZM237.956 241.912C239.924 241.944 241.406 243.482 241.446 245.531C241.49 247.847 239.488 249.96 237.25 249.96C235.239 249.959 233.664 248.314 233.678 246.23C233.694 243.87 235.67 241.876 237.956 241.912ZM166.819 244.796C165.509 244.78 164.311 245.956 164.265 247.302C164.227 248.412 165.059 249.339 166.144 249.396C167.486 249.466 168.766 248.188 168.757 246.786C168.749 245.628 167.953 244.811 166.819 244.796ZM237.804 243.264C236.368 243.31 235.059 244.704 235.033 246.215C235.011 247.524 235.992 248.572 237.243 248.576C238.74 248.58 240.106 247.118 240.081 245.538C240.06 244.203 239.078 243.222 237.804 243.264ZM178.261 234.034C173.611 234.3 169.221 234.552 164.745 234.808C164.552 235.455 164.371 236.059 164.161 236.762C168.359 237.974 172.377 239.133 176.647 240.366C177.205 238.174 177.714 236.18 178.261 234.034ZM246.058 229.113C245.577 229.269 245.256 229.336 244.968 229.473C241.174 231.274 237.401 233.121 233.586 234.876C232.901 235.191 232.144 235.655 232.144 235.655C232.012 236.695 232.006 236.777 231.894 238.043C236.713 237.946 241.43 237.85 246.267 237.753C246.32 234.91 246.326 232.066 246.058 229.113Z" fill="#1D242F"/>
<path fill-rule="evenodd" clip-rule="evenodd" d="M216.942 12.5771L217.535 12.5802C220.965 12.6164 223.113 13.0771 223.113 15.3408C223.113 17.7087 227.938 14.0678 227.938 16.0705C227.938 18.0733 222.486 20.6943 221.27 20.6943C220.459 20.6943 219.457 20.4479 218.262 19.9551C218.17 20.0019 218.078 20.0478 217.985 20.0929C222.824 26.6737 224.55 33.1662 223.163 39.5703C222.868 40.9363 218.381 41.7866 209.702 42.121L209.168 42.1407L209.882 48.8626C210.154 49.4807 210.308 50.1844 210.308 50.931C210.308 53.3912 208.636 55.3855 206.572 55.3855C204.796 55.3855 203.31 53.9086 202.93 51.9289L202.702 51.929L202.68 51.124C202.44 42.5686 202.017 37.906 201.411 37.1362C194.46 37.1362 194.46 33.6469 194.841 31.7468C194.927 31.3164 195.199 30.9437 195.576 30.6247C195.171 30.802 194.719 31.0134 194.219 31.2588C190.161 27.6651 188.653 24.8383 189.694 22.7785C191.254 19.6887 193.681 19.0254 194.219 19.0254C194.756 19.0254 194.455 11.8828 202.112 11.0122C209.691 10.1503 213.272 12.5294 216.942 12.5771Z" fill="white"/>
<path fill-rule="evenodd" clip-rule="evenodd" d="M221.897 9.91904C221.903 9.97651 221.899 10.0303 221.882 10.0791C221.366 11.4776 220.18 12.3512 218.652 12.7892C217.655 13.0752 216.602 13.1206 215.576 12.9631C213.301 12.6139 211.036 12.2098 208.766 11.8325C206.441 11.4459 204.122 11.2221 201.759 11.6172C198.877 12.0995 196.879 13.6011 195.858 16.3598C195.714 16.7512 195.31 17.6404 195.162 18.1439C194.697 19.7208 195.212 19.057 193.801 19.6878C193.332 19.8973 192.392 20.3999 191.985 20.7201C189.751 22.4781 189.347 24.9137 191.058 27.1801C191.994 28.4208 193.175 29.4769 194.254 30.6087C194.422 30.7847 194.671 30.8966 194.811 31.0842C194.91 30.9403 195.022 30.801 195.148 30.6669C196.307 29.436 197.738 28.7396 199.425 28.633C199.667 28.6177 199.854 28.6149 200.006 28.6385C200.013 28.6266 200.021 28.6154 200.028 28.6055C201.281 26.8357 201.176 24.7711 201.314 22.7568L201.314 22.7507C201.353 22.2722 201.983 22.1162 202.285 22.4903C202.365 22.5901 202.416 22.6806 202.422 22.7743C202.552 24.8642 202.51 26.9406 201.347 28.8035C201.212 29.0193 201.037 29.2383 200.827 29.3699C200.803 29.3847 200.775 29.3979 200.744 29.409C200.785 29.5985 200.657 29.7939 200.454 29.8231C200.2 29.8599 199.957 29.8926 199.715 29.8903C198.563 29.8794 197.575 30.3102 196.675 30.9752C195.769 31.6451 195.294 32.5108 195.484 33.681C195.685 34.9159 196.27 35.8709 197.51 36.2132C198.302 36.4319 199.148 36.4796 199.974 36.5526C200.535 36.6021 201.104 36.5618 201.817 36.5618C201.93 37.2045 202.087 37.7976 202.132 38.3994C202.374 41.6265 203.006 47.8196 203.207 51.0496C203.239 51.5709 203.592 52.3995 202.818 52.5147C201.919 52.6489 202.023 51.7485 201.978 51.1645C201.751 48.1981 201.144 42.2651 200.93 39.2978C200.9 38.8857 200.85 38.475 200.792 37.8905C199.882 37.833 199.104 37.8238 198.337 37.7281C195.699 37.4002 194.182 35.6603 194.215 33.0887C194.22 32.693 194.274 32.3199 194.382 31.9698C194.324 31.9846 194.268 31.9892 194.219 31.9804C193.932 31.9292 193.624 31.7519 193.415 31.539C192.285 30.3848 191.064 29.2927 190.093 28.0127C187.874 25.0867 188.469 21.6806 191.458 19.5363C191.921 19.2035 192.409 18.8564 192.948 18.6848C193.917 18.3764 193.817 18.277 194.03 17.4694C194.321 16.3658 194.901 15.3487 195.448 14.348C196.188 12.9953 197.313 11.913 198.702 11.2408C199.807 10.7056 201.045 10.5203 202.239 10.303C203.05 10.1556 203.874 10.1015 204.697 10.1136C205.173 10.1205 205.649 10.1501 206.122 10.1967C207.467 10.3289 208.793 10.5984 210.112 10.8861C211.359 11.1577 212.654 11.2896 213.92 11.4824C215.096 11.6618 216.303 11.7713 217.488 11.7256C218.797 11.675 219.889 11.062 220.604 9.89949C220.686 9.76614 220.754 9.58537 220.877 9.52416C220.941 9.49168 221.008 9.46409 221.077 9.43909C221.438 9.30775 221.857 9.53709 221.897 9.91904ZM223.869 14.3582C223.981 14.4199 224.013 14.7332 223.982 14.9166C223.95 15.1091 223.83 15.3097 223.695 15.4583C222.234 17.0671 220.714 18.6638 218.935 19.9242C219.254 20.2149 219.579 20.5241 219.707 20.7094C223.44 26.0998 225.367 31.9422 224.075 38.5651C224.015 38.8715 223.904 39.1681 223.844 39.4744C223.641 40.5142 223.04 41.0769 221.982 41.3002C218.507 42.0322 215.022 42.6461 211.459 42.6889C210.943 42.6949 210.427 42.6898 209.71 42.6898C209.987 43.8801 210.238 44.9139 210.464 45.9537C210.547 46.333 211.424 51.9033 211.088 51.9735C210.558 52.0844 209.967 52.1266 209.941 51.4421C209.913 50.6828 209.309 46.1431 209.136 45.393C209.055 45.0426 208.066 44.5472 207.41 43.887C206.937 43.4117 206.547 42.8349 206.214 42.25C206.064 41.9854 205.798 41.3244 205.915 41.047C205.98 40.8944 206.714 41.0421 206.982 41.0913C209.732 41.5945 212.489 41.552 215.239 41.1712C217.302 40.8855 219.35 40.4846 221.406 40.1478C222.171 40.0225 222.549 39.6 222.718 38.8355C223.394 35.7751 223.293 32.963 222.545 29.7137C221.798 26.4644 219.845 23.2586 217.839 20.7094L217.798 20.6584C215.561 21.956 212.944 22.5972 210.377 22.7609C210.332 22.7638 210.288 22.7664 210.243 22.7684C209.782 22.7899 209.332 22.7718 208.871 22.7296C208.293 22.6764 206.845 22.5549 206.878 21.7068C206.899 21.1535 207.425 21.2791 207.851 21.286C209.306 21.3099 210.776 21.4159 212.215 21.2587C214.156 21.0462 215.916 20.38 217.507 19.365C217.574 19.2799 217.667 19.2212 217.769 19.1928C218.357 18.7995 218.922 18.3575 219.464 17.873C220.473 16.9705 221.414 15.992 222.386 15.047C222.646 14.7936 222.871 14.4823 223.175 14.3027C223.345 14.2021 223.677 14.2527 223.869 14.3582ZM228.706 15.4864C229.394 16.0368 228.685 16.6346 228.291 17.0291L228.078 17.2424C226.263 19.0511 224.366 20.7511 221.691 21.2176C221.053 21.3288 220.473 21.3596 220.121 20.7695C219.992 20.5531 220.053 20.2591 220.266 20.1246C220.293 20.1074 220.317 20.0979 220.342 20.0973C223.366 20.0209 225.381 18.1345 227.369 16.1963C227.754 15.8212 228.108 15.0082 228.706 15.4864Z" fill="#1D242F"/>
<path fill-rule="evenodd" clip-rule="evenodd" d="M252.884 71.6434C252.895 71.6684 252.903 71.6948 252.909 71.7224L252.884 71.6434ZM248.281 72.8868C246.608 70.7524 245.451 67.227 246.958 67.7478C248.025 68.1167 251.741 72.3736 251.723 72.3427C250.427 70.1493 249.454 68.0126 248.712 65.5265C248.493 64.7913 248.544 64.1176 248.973 63.7378C249.31 63.4402 249.899 63.3819 249.899 63.3819C249.551 61.8059 249.59 60.6791 251.497 61.3957C251.195 60.4827 251.149 59.6625 252.054 59.2736C252.94 58.8932 253.682 59.2314 254.332 59.8423C256.209 61.606 257.642 63.7447 258.994 65.9186C259.548 66.8087 260.178 67.6228 260.283 68.6966C260.373 69.6282 260.169 70.5612 259.951 71.4616C258.32 78.1901 256.722 84.9292 254.926 91.6141C254.159 94.4686 253.049 97.2488 251.892 99.9771C249.902 104.669 244.502 106.67 239.855 104.596C237.242 103.43 235.11 101.593 232.975 99.7558C232.596 99.4299 232.207 99.1166 231.592 98.6061C231.592 99.497 231.566 100.104 231.597 100.708C231.677 102.273 230.736 103.197 230.736 105.039C230.736 106.881 227.591 106.827 225.765 107.441C217.442 110.239 207.276 110.261 198.458 109.836C193.137 109.58 188.12 107.787 183.765 104.596C183.435 104.354 183.07 104.129 182.624 103.868C182.395 104.266 182.226 105.057 182.056 105.413C179.232 111.346 176.773 117.419 174.89 123.724C174.563 124.819 174.738 125.552 175.453 126.395C176.731 127.902 177.928 129.485 179.068 131.099C179.539 131.765 179.89 132.566 180.095 133.358C180.432 134.659 179.429 135.506 178.165 135.036C177.688 134.858 177.257 134.532 176.84 134.227C176.467 133.956 176.141 133.621 175.597 133.14C175.881 134.431 176.145 135.471 176.328 136.526C176.443 137.187 176.524 137.878 176.464 138.541C176.33 140.05 174.942 140.041 174.085 139.649C173.758 139.5 173.52 139.202 173.233 138.972C171.966 140.219 171.376 140.687 169.445 139.392C168.767 140.006 167.931 140.249 167.186 139.493C166.61 138.908 166.744 139.163 165.762 137.284C165.77 137.283 165.588 137.516 165.552 137.541C165.024 137.919 164.61 138.615 163.808 138.283C162.994 137.947 162.9 137.146 162.886 136.437C162.863 135.297 162.892 134.137 163.074 133.014C163.581 129.88 164.093 126.743 164.763 123.641C165.511 120.186 166.456 116.773 167.279 113.332C169.038 105.975 171.74 98.5915 174.89 91.6141C174.614 91.2472 174.318 90.9485 174.085 90.5616C173.289 89.2433 172.451 88.0342 173.336 86.5898C174.124 85.3016 174.838 83.9678 175.615 82.6724C179.047 76.9535 182.488 71.2397 185.93 65.5265C187.63 62.7047 189.595 60.0851 191.856 57.6818C194.582 54.7864 196.636 53.3256 200.321 52.0689C201.721 51.5916 201.298 50.3575 202.214 51.6325C202.747 52.3743 210.695 52.3894 210.819 52.0689C211.107 51.3254 210.849 51.2715 211.591 51.176C212.81 51.0195 213.908 51.6911 214.917 52.271C218.42 54.2847 221.63 56.6837 224.384 59.6456C229.085 64.7015 233.203 70.2049 236.753 76.1228C237.527 77.4133 238.076 78.8368 238.79 80.1662C239.409 81.3191 239.579 82.3981 238.53 83.4157C239.882 85.0871 241.703 87.3562 243.138 89.1317C243.349 88.6588 243.455 87.7998 243.585 87.4464C244.407 85.1974 244.769 82.8111 245.592 80.5624C245.631 80.456 245.666 80.3445 245.705 80.2353L248.281 72.8868Z" fill="white"/>
<path fill-rule="evenodd" clip-rule="evenodd" d="M265.869 27.8957C270.93 29.1539 273.875 32.6468 275.214 37.503C277.215 44.7611 274.159 53.1056 268.039 57.5177C264.942 59.7501 261.512 60.7279 257.697 60.2488C257.391 60.2103 257.085 60.1735 256.639 60.1186C256.46 60.5468 256.276 60.9684 256.099 61.3915C257.238 62.7548 258.216 64.2487 259.156 65.7595C259.71 66.6515 260.342 67.4673 260.446 68.5434C260.537 69.4771 260.332 70.4124 260.114 71.3144C258.48 78.0574 256.88 84.8111 255.081 91.5104C254.312 94.371 253.2 97.1575 252.042 99.8914C250.048 104.593 244.639 106.599 239.984 104.52C237.367 103.352 235.232 101.511 233.092 99.6693C232.714 99.343 232.324 99.029 231.708 98.5171C231.708 99.4102 231.682 100.018 231.713 100.624C231.792 102.192 232.702 105.934 231.331 106.502C229.549 107.241 226.88 107.945 224.487 108.54C215.914 110.67 207.35 110.198 198.518 109.772C193.188 109.515 188.226 108.13 183.864 104.932C183.533 104.69 183.155 104.512 182.707 104.25C182.479 104.65 182.258 104.982 182.088 105.339C179.26 111.285 176.796 117.371 174.91 123.689C174.583 124.787 174.758 125.521 175.474 126.366C176.755 127.877 177.953 129.463 179.096 131.08C179.567 131.748 179.919 132.551 180.124 133.344C180.461 134.648 179.457 135.497 178.19 135.026C177.712 134.848 177.282 134.52 176.863 134.215C176.49 133.943 176.163 133.608 175.619 133.126C175.903 134.42 176.168 135.462 176.351 136.519C176.466 137.181 176.547 137.873 176.487 138.538C176.352 140.051 174.963 140.042 174.103 139.649C173.776 139.5 173.538 139.201 173.251 138.97C171.981 140.22 171.391 140.689 169.456 139.391C168.777 140.007 167.94 140.25 167.193 139.493C166.616 138.906 166.75 139.162 165.767 137.279C165.775 137.277 165.592 137.511 165.556 137.536C165.027 137.914 164.613 138.613 163.809 138.28C162.994 137.943 162.9 137.14 162.886 136.43C162.863 135.287 162.892 134.125 163.074 132.999C163.583 129.859 164.095 126.715 164.767 123.607C165.515 120.143 166.462 116.723 167.286 113.275C169.048 105.902 171.269 98.6817 174.424 91.6891C174.147 91.3217 173.841 90.9778 173.607 90.5903C172.81 89.2694 172.467 87.923 173.353 86.4752C174.143 85.1842 174.858 83.8476 175.636 82.5494C179.074 76.8181 182.521 71.0921 185.969 65.3666C187.671 62.5387 189.64 59.9137 191.905 57.5049C194.635 54.6033 197.352 52.3219 201.043 51.0625C202.446 50.5842 202.531 50.7456 203.449 52.0234C203.983 52.7669 204.636 53.4962 205.392 53.9929C206.828 54.9363 208.645 54.9957 209.697 53.2457C209.875 52.9507 210.282 52.1975 210.406 51.8766C210.695 51.1317 210.899 51.0774 211.643 50.9818C212.864 50.8249 213.994 51.5014 215.004 52.0825C218.513 54.1005 221.729 56.5047 224.487 59.473C229.196 64.5401 233.321 70.0547 236.877 75.9854C237.653 77.2789 238.203 78.7055 238.918 80.0378C239.538 81.1932 239.708 82.2745 238.658 83.2943C240.012 84.9693 241.319 86.5875 242.758 88.3665C242.969 87.8931 243.144 87.5556 243.273 87.2017C243.907 85.4668 244.533 83.7287 245.164 81.9925C245.136 81.9661 245.109 81.9384 245.082 81.9098C244.401 81.1974 244.661 80.5039 244.957 79.749C245.922 77.2971 246.883 74.8442 247.844 72.3908C246.769 71.2544 245.884 69.9802 245.597 68.3971C245.408 67.3555 246.257 66.6968 247.273 67.0771C248.149 67.4052 248.746 68.0438 249.264 68.7583L249.538 68.0586C249.115 67.1907 248.743 66.2952 248.462 65.3516C248.242 64.6148 248.303 63.7245 248.733 63.3442C249.07 63.046 249.654 63.15 249.654 63.15C249.305 61.5706 249.478 60.4345 251.388 61.1524C251.086 60.2374 251.297 59.49 252.204 59.1004C252.513 58.9674 252.805 58.922 253.081 58.9452L253.172 58.7102C252.314 57.9593 251.558 57.3928 250.915 56.718C247.987 53.6436 246.69 49.9092 246.804 45.7249C246.984 39.1462 249.681 33.8131 255.135 30.0372C258.368 27.7997 261.996 26.9328 265.869 27.8957ZM176.111 91.0447C175.871 91.5664 175.721 91.895 175.569 92.2228C171.148 101.759 168.851 111.942 166.482 122.1C165.718 125.376 165.634 128.731 165.912 132.068C166.045 133.661 166.492 135.238 166.906 136.794C167.015 137.203 167.267 137.574 167.577 138.043C167.78 138.35 168.26 138.177 168.22 137.811C168.013 136.052 167.775 134.297 167.573 132.538C167.472 131.657 167.404 130.771 167.364 129.886C167.353 129.62 167.388 129.358 167.61 129.185C167.876 128.978 168.271 129.126 168.373 129.447C168.481 129.789 168.592 130.139 168.639 130.498C168.893 132.411 169.04 134.339 169.348 136.242C169.494 137.141 169.848 137.936 170.522 138.548C171.042 139.02 171.879 138.64 171.911 137.939C171.943 137.253 171.834 136.594 171.735 135.944C171.428 133.938 171.047 131.943 170.712 129.942C170.644 129.532 170.554 129.094 170.636 128.703C170.663 128.576 170.746 128.46 170.849 128.349C171.064 128.116 171.442 128.116 171.654 128.352C171.721 128.427 171.772 128.505 171.788 128.59C171.952 129.459 171.996 130.351 172.139 131.226L172.201 131.61C172.52 133.592 172.819 135.586 173.862 137.362C174.051 137.684 174.211 138.064 174.543 138.321C174.838 138.549 175.265 138.316 175.247 137.945C175.225 137.504 175.205 137.092 175.112 136.697C174.625 134.616 174.068 132.551 173.573 130.472C173.475 130.062 173.439 129.639 173.402 129.232C173.372 128.903 173.651 128.617 173.978 128.661C174.374 128.715 174.574 129.029 174.777 129.353C175.331 130.235 175.861 131.139 176.476 131.978C177.071 132.79 177.75 133.548 178.75 133.879C178.773 133.853 178.794 133.826 178.815 133.799C178.986 133.572 179.009 133.266 178.868 133.019C178.472 132.328 178.064 131.694 177.584 131.043C176.409 129.449 175.151 127.913 173.888 126.385C173.336 125.717 173.161 125.053 173.439 124.219C174.131 122.141 174.739 120.035 175.455 117.965C177.591 111.791 180.404 105.906 183.182 100.006C183.822 98.6481 184.4 97.2612 185.07 95.743C182.035 94.1509 179.105 92.6149 176.111 91.0447ZM164.537 129.985C164.479 129.979 164.316 132.465 164.308 132.523C163.978 134.918 163.806 136.854 164.105 136.854C165.668 136.586 164.785 134.417 164.813 133.18C164.748 133.172 164.602 129.993 164.537 129.985ZM212.278 52.3399C212.085 52.7085 211.938 53.1316 211.847 53.3171C209.795 57.4765 204.703 56.8543 202.373 53.1569C202.186 52.8604 201.957 52.5904 201.772 52.3399C198.698 52.9756 195.34 55.7822 193.115 58.0674C190.809 60.4362 188.832 63.0567 187.13 65.8857C183.255 72.3256 179.383 78.7673 175.518 85.2132C175.039 86.0138 174.61 86.8449 174.061 87.836C177.846 88.0284 180.431 89.7968 182.758 91.0447C185.132 92.3179 186.387 92.8818 188.559 95.0107C188.636 94.8177 188.717 94.6413 188.777 94.458C190.422 89.4553 192.063 84.4517 193.707 79.4486C193.777 79.2346 193.857 79.0241 193.941 78.8149C194.111 78.3895 194.286 77.9011 194.9 78.1422C195.45 78.3576 195.249 78.8078 195.115 79.2082C194.932 79.752 194.75 80.2961 194.576 80.8428C192.912 86.0578 191.245 91.2717 189.592 96.4902C189.243 97.5904 188.698 98.0247 187.389 98.0532C186.777 98.0664 186.162 97.9966 185.514 97.9627C184.771 99.59 184.06 101.148 183.278 102.861C184.192 103.533 184.961 104.152 185.782 104.694C189.292 107.01 193.192 108.085 197.298 108.434C197.102 108.257 196.891 107.927 196.942 107.733C197.257 106.538 197.387 105.282 198.206 104.248C198.616 103.732 198.968 103.109 199.137 102.479C199.377 101.575 198.835 101.031 197.919 101.223C197.213 101.37 196.56 101.754 195.858 101.934C195.582 102.005 195.071 101.899 194.965 101.709C194.829 101.464 194.904 101.006 195.052 100.726C195.18 100.485 195.516 100.283 195.799 100.209C196.755 99.9597 197.72 99.7127 198.697 99.5866C199.492 99.484 200.117 99.8356 200.368 100.677C200.561 101.32 200.776 101.957 201.002 102.659C200.793 103.134 200.608 103.61 200.379 104.064C199.985 104.843 199.583 105.62 199.148 106.378C198.79 107.003 198.406 107.617 197.979 108.196C197.902 108.3 197.712 108.406 197.556 108.455C197.825 108.476 198.095 108.494 198.366 108.509C203.078 108.768 209.343 109.041 214.043 108.509C220.506 107.776 228.723 106.457 230.104 104.395C230.556 103.719 230.623 101.595 230.471 100.225C230.194 97.7372 230.028 95.2348 229.678 92.758C229.174 89.1962 228.356 85.7021 227.426 82.2182C227.379 82.0425 227.332 81.867 227.285 81.6916L227.217 81.7139C226.046 82.0885 224.941 82.0001 223.983 81.1716C223.507 80.7605 223.148 80.3236 223.243 79.5638C223.351 78.6916 222.897 78.2532 222.045 78.4756C220.723 78.8206 219.217 78.5985 218.12 79.7539C217.794 80.0969 217.184 80.1863 216.689 80.3477C215.901 80.6048 215.108 80.8501 214.306 81.055C212.712 81.4617 211.273 81.0739 210.105 79.961C208.895 78.8088 208.358 77.3403 208.786 75.6857C209.3 73.7001 210.413 72.0974 212.148 70.942C212.616 70.6303 213.092 70.2601 213.41 69.8082C214.081 68.853 213.883 67.8907 212.929 67.2739C212.743 67.1541 212.357 67.2518 212.102 67.3489C211.336 67.6399 210.589 67.9806 209.835 68.3015C209.213 68.5652 208.601 68.8516 207.969 69.086C206.706 69.5548 205.463 70.167 204.155 70.3913C203.152 70.5637 202.043 70.3144 201.021 70.0791C200.681 70.0009 200.365 69.4212 200.211 69.0067C199.792 67.8778 199.92 66.7545 200.457 65.6724C201.267 64.0379 202.484 62.6949 203.969 61.7412C206.494 60.1181 209.091 58.5697 212.038 57.7691C212.232 57.7166 212.425 57.6132 212.583 57.4882C213.531 56.7413 214.657 56.5462 215.808 56.4259C216.223 56.3822 216.641 56.3664 217.056 56.3182C217.446 56.2728 217.833 56.2012 218.222 56.1412C217.839 56.4196 217.496 56.82 217.069 56.9573C213.129 58.2227 209.453 60.0564 205.853 62.0583C205.543 62.2307 205.296 62.5217 205.03 62.7693C204.764 63.0178 204.55 63.4372 204.246 63.5125C202.598 63.9195 202.337 65.417 201.719 66.6195C201.375 67.2894 201.224 68.0133 201.891 68.6315C202.674 69.3557 203.625 69.5525 204.463 69.1242C205.993 68.3434 207.479 67.4687 209.048 66.7804C210.04 66.3455 211.136 66.103 212.209 65.9077C213.796 65.619 215.019 66.2171 215.659 67.4474C216.139 68.373 216.003 69.1101 215.292 69.8605C214.871 70.304 214.52 70.8133 214.141 71.2957C213.949 71.5404 213.814 71.9256 213.568 72.0167C212.114 72.553 211.802 74.0063 211.069 75.0936C210.35 76.1599 210.314 77.4406 211.043 78.4968C211.728 79.4896 212.894 79.5873 214.03 79.3891C214.593 79.2909 215.155 79.1432 215.691 78.9441C217.399 78.309 219.077 77.5908 220.8 77.0036C221.677 76.7049 222.62 76.5368 223.544 76.467C224.036 76.43 224.441 76.5923 224.22 77.4472C223.842 78.914 225.183 80.3244 226.698 80.4034L226.912 80.3393C226.013 77.1452 224.978 74.0155 223.466 71.0424C223.277 70.6712 223.023 70.2995 222.969 69.9048C222.963 69.8614 222.963 69.8169 222.968 69.7718C223.022 69.2587 223.614 68.9407 224.05 69.2182C224.098 69.249 224.138 69.2854 224.164 69.3294C224.569 69.9927 224.862 70.7255 225.177 71.4411C226.396 74.215 227.324 77.0841 228.16 79.9839C228.518 79.8772 228.872 79.7596 229.213 79.6143C230.988 78.8591 232.73 78.0243 234.487 77.226C234.957 77.0123 235.535 76.6391 235.91 77.1668C236.366 77.8094 235.725 78.2765 235.286 78.5554C233.256 79.8456 231.115 80.8881 228.694 81.2526C228.639 81.2609 228.584 81.2711 228.529 81.2828C228.746 82.0608 228.959 82.84 229.171 83.6195C229.301 84.0935 229.498 84.5494 229.625 84.9047C232.304 82.3949 233.656 81.5896 237.702 80.3007C237.036 79.0229 236.445 77.551 235.57 76.2738C232.887 72.3586 230.18 68.4544 227.324 64.6648C223.997 60.2512 219.978 56.5351 215.259 53.6165C214.531 53.1666 213.499 52.6351 212.278 52.3399ZM202.243 83.7885C203.033 84.6221 204.19 85.2998 203.484 86.7652C203.428 86.8818 203.449 87.1064 203.528 87.2055C204.592 88.5313 204.066 89.9305 203.563 91.2097C203.181 92.1818 203.65 92.9411 203.791 93.7796C203.819 93.9451 204.48 94.2151 204.648 94.1114C205.651 93.4906 206.613 92.798 207.552 92.0807C208.033 91.7125 208.42 91.2232 208.881 90.8248C209.273 90.4861 209.72 90.2121 210.126 89.8877C212.003 88.3856 214.088 87.4132 216.533 87.3334C218.293 87.2756 219.529 88.3227 219.925 90.0831C220.644 93.2809 219.365 95.7526 217.188 97.9255C217.151 97.9622 217.113 98.0036 217.066 98.0234C214.68 99.0527 214.176 101.556 212.882 103.434C212.702 103.695 212.935 104.297 213.072 104.71C213.297 105.383 213.458 106.045 212.954 106.632C212.777 106.839 212.402 107.029 212.162 106.984C211.956 106.945 211.7 106.58 211.661 106.329C211.183 103.246 211.577 100.418 214.101 98.2231C214.966 97.4701 215.799 96.6778 216.606 95.8632C217.378 95.0835 218.098 94.2691 218.096 93.0471C218.095 92.6489 218.309 92.2459 218.446 91.8526C218.932 90.4528 218.163 89.1808 216.689 89.073C215.35 88.9754 214.1 89.3721 212.954 90.0475C211.696 90.7883 210.457 91.5634 209.225 92.3487C208.972 92.5102 208.724 92.7483 208.586 93.0103C207.85 94.4067 206.513 95.0384 205.193 95.6491C204.03 96.1872 203.787 95.9143 202.926 94.8965C202.007 93.8095 201.812 92.5895 202.099 91.3847C202.686 88.9186 202.564 86.4784 202.271 84.0186L202.243 83.7885ZM189.012 102.437C189.949 102.666 190.847 102.751 191.767 102.37C192.137 102.217 192.683 102.021 192.811 102.582C192.873 102.853 192.537 103.349 192.248 103.533C191.827 103.801 191.285 103.878 190.657 104.081C190.05 103.835 189.351 103.627 188.733 103.277C188.313 103.039 187.654 102.358 187.7 102.292C188.142 101.658 188.575 102.33 189.012 102.437ZM255.57 62.718L254.827 64.6088C255.227 65.2336 255.63 65.8573 256.029 66.4829C256.169 66.7029 256.325 66.9135 256.457 67.1387C256.712 67.5722 257.213 68.0947 256.563 68.4768C255.956 68.8347 255.649 68.1835 255.372 67.7684C254.996 67.2046 254.623 66.6385 254.252 66.0705L253.779 67.2759C254.033 67.607 254.287 67.9387 254.539 68.272C254.789 68.6043 255.063 68.9491 255.191 69.3331C255.217 69.4098 255.213 69.496 255.195 69.5874C255.124 69.9364 254.748 70.1418 254.409 70.0321C254.332 70.0071 254.261 69.9746 254.2 69.9289C253.96 69.7523 253.833 69.4299 253.643 69.1812L253.239 68.6508C252.967 69.3435 252.695 70.0363 252.423 70.729C252.579 71.0109 252.73 71.2955 252.86 71.5893C252.87 71.6146 252.879 71.6407 252.885 71.6683C252.971 72.0811 252.557 72.425 252.144 72.3394C252.018 72.3132 251.916 72.2724 251.873 72.1975L251.857 72.17C250.655 75.2303 249.452 78.2903 248.246 81.3491C247.857 82.3348 247.08 82.769 246.279 82.6129L246.795 81.1519C245.925 83.6111 245.062 86.073 244.164 88.522C243.704 89.7107 243.704 89.7107 244.226 90.904C244.447 91.2435 244.674 91.7152 244.165 91.9973C243.585 92.3196 243.294 91.8353 243.093 91.4188C241.588 88.3077 238.959 86.0673 236.893 83.3917C236.867 83.3583 236.893 83.3917 236.736 83.1957C234.867 84.3744 232.694 85.6786 230.744 86.9716C230.611 87.0601 230.23 87.3203 230.23 87.3203C230.205 87.4815 230.284 87.8383 230.304 88.0034C230.599 90.4596 230.935 92.9117 231.331 95.3532C231.392 95.73 231.53 96.202 231.53 96.202C231.616 96.3365 231.921 96.6671 232.03 96.7866C234.221 99.1939 236.668 101.319 239.535 102.885C244.295 105.485 249.127 103.736 251.192 98.6711C252.609 95.192 253.883 91.6638 254.747 87.9905C256.05 82.4558 257.451 76.9445 258.799 71.4207C258.959 70.7629 259.121 70.0901 259.145 69.4193C259.165 68.8666 259.126 68.2277 258.868 67.7626C257.89 65.9987 256.826 64.2895 255.57 62.718ZM188.413 74.6983C188.307 75.3056 188.373 75.9896 188.111 76.5121C187.757 77.2162 188.049 77.5974 188.499 77.9927C188.811 78.2673 189.175 78.4822 189.494 78.7496C190.482 79.5767 190.694 81.1216 190.279 82.3072C189.369 84.9058 187.341 86.1844 184.918 86.8635C183.813 87.1729 182.552 86.9747 181.367 86.9117C181.094 86.8971 180.802 86.5248 180.592 86.2594C180.443 86.0718 180.417 85.7865 180.337 85.5452C180.616 85.4679 180.891 85.3507 181.175 85.3246C181.482 85.2962 181.798 85.3525 182.111 85.3717C184.362 85.5013 186.309 84.7567 188.034 83.3427C189.621 82.042 189.475 80.1012 187.693 79.109C187.238 78.8556 186.733 78.6821 186.309 78.3883C185.552 77.8637 185.395 77.2007 185.987 76.5265C186.632 75.7905 187.432 75.1881 188.171 74.536C188.41 74.3257 188.464 74.4019 188.413 74.6983ZM177.268 83.9186C177.837 84.3136 178.352 84.7867 179.002 85.3236C178.628 85.6292 178.469 85.847 178.261 85.9131C177.694 86.0929 176.456 85.5704 176.279 84.9952C176.182 84.6807 176.373 84.2334 176.547 83.9065C176.602 83.8034 177.094 83.7982 177.268 83.9186ZM202.146 83.7189L202.242 83.7877L202.177 83.8004C201.802 83.8799 201.366 84.0867 201.089 83.9567C200.021 83.4572 198.98 83.5431 197.9 83.822C197.657 83.8846 197.384 83.8685 197.13 83.8398C196.993 83.824 196.867 83.7054 196.736 83.633C196.833 83.4727 196.892 83.2535 197.033 83.1613C198.441 82.2432 200.371 82.4646 202.146 83.7189ZM193.652 68.4573C193.842 68.7109 194.032 68.9646 194.194 69.1794C193.796 70.3159 193.629 71.4195 193.057 72.2443C192.531 73.0041 191.578 73.4732 190.799 74.0518C190.487 74.2842 190.097 74.4229 189.813 74.6812C189.273 75.1718 188.984 74.5674 188.583 74.4603C188.625 74.3074 188.618 74.0995 188.718 74.0107C189.373 73.425 190.039 72.849 190.726 72.3C191.801 71.4414 192.692 70.4661 193.091 69.1016C193.164 68.8534 193.459 68.6704 193.652 68.4573ZM246.514 68.3026C246.491 68.5804 246.764 69.1613 246.922 69.3911C247.019 69.533 247.083 69.6307 247.142 69.7188C247.484 70.2367 247.888 70.7084 248.333 71.1392L248.744 70.0901C248.615 69.958 248.494 69.8139 248.37 69.6798C247.989 69.2673 247.505 68.6198 247.132 68.1998C246.792 67.9611 246.531 68.1015 246.514 68.3026ZM189.961 66.9251C190.098 67.0483 190.228 67.1655 190.357 67.283C190.26 67.3899 190.176 67.5711 190.063 67.5924C189.06 67.782 188.053 67.9469 187.045 68.1054C186.976 68.1164 186.889 68.0198 186.81 67.9733C186.895 67.8547 186.959 67.6576 187.067 67.6292C188.003 67.383 188.947 67.1672 189.961 66.9251ZM249.535 64.701C249.306 65.124 249.756 65.9466 250.118 66.5752L250.634 65.2544C250.557 65.1542 250.479 65.0541 250.402 64.954C250.271 64.786 250.092 64.655 249.768 64.5924C249.677 64.5749 249.579 64.6191 249.535 64.701ZM250.414 62.1486C250.457 62.8749 250.876 63.437 251.185 63.8465L251.637 62.6891L251.762 62.3701C251.753 62.361 251.744 62.3518 251.735 62.3425C251.254 61.8493 250.377 61.5364 250.414 62.1486ZM259.89 31.5985C258.3 32.1906 256.884 33.0708 255.684 34.2606C252.11 37.8044 250.452 42.1274 250.658 47.1319C250.754 49.4625 251.438 51.6497 252.829 53.5707C255.013 56.5867 258.558 57.7857 262.117 56.7131C264.006 56.1437 265.643 55.144 267.032 53.7537C270.25 50.5337 271.842 46.6197 271.963 42.5948C271.988 39.4705 271.45 37.0055 269.959 34.8082C267.667 31.4308 263.71 30.1751 259.89 31.5985Z" fill="#1D242F"/>
<path fill-rule="evenodd" clip-rule="evenodd" d="M249.094 64.7903C250.195 68.7157 251.498 71.1864 253.003 72.2023C254.508 73.2181 256.573 73.4604 259.199 72.929L259.727 67.6835L253.704 59.7859C253.139 59.6651 252.774 59.6651 252.61 59.7859C252.257 60.0457 252.236 60.8754 251.984 61.0193C251.557 61.2635 251.048 61.4718 250.455 61.6443L249.094 64.7903Z" fill="white"/>
<path fill-rule="evenodd" clip-rule="evenodd" d="M252.039 72.0478C252.083 72.1223 252.184 72.1629 252.31 72.1893C252.72 72.2746 253.131 71.9316 253.046 71.5204C253.04 71.4929 253.032 71.4666 253.021 71.4414C252.728 70.7777 252.331 70.1612 251.994 69.5156C251.418 68.4095 250.867 67.6754 250.35 66.5421C249.983 65.9053 249.474 65.02 249.713 64.5756C249.757 64.494 249.854 64.4499 249.945 64.4676C250.268 64.5301 250.446 64.6603 250.575 64.8281C251.658 66.2268 252.729 67.6338 253.8 69.0414C253.989 69.2894 254.116 69.6106 254.354 69.7867C254.416 69.8323 254.487 69.8646 254.563 69.8892C254.9 69.9986 255.274 69.7939 255.345 69.4463C255.363 69.3552 255.367 69.269 255.341 69.1926C255.214 68.8101 254.941 68.4665 254.692 68.1352C253.628 66.7228 252.524 65.3392 251.489 63.9053C251.188 63.4881 250.637 62.8694 250.587 62.0319C250.551 61.4214 251.423 61.7335 251.902 62.2251C252.434 62.7712 252.502 62.9653 252.888 63.5749C253.751 64.9369 254.627 66.2915 255.521 67.6333C255.797 68.0467 256.102 68.6961 256.707 68.3393C257.352 67.9582 256.854 67.4377 256.601 67.0054C256.469 66.7812 256.314 66.5713 256.174 66.3517C255.224 64.8602 254.256 63.3799 253.337 61.869C253.105 61.487 252.817 61.0767 252.875 60.5937C252.912 60.2841 253.262 60.1218 253.518 60.3002C253.763 60.4714 253.995 60.6621 254.203 60.8765C256.15 62.8783 257.657 65.2009 259 67.6275C259.256 68.0911 259.295 68.7276 259.275 69.2788C259.251 69.9474 259.09 70.6179 258.931 71.2733C258.531 72.9131 258.127 74.5521 257.722 76.1904C258.144 76.2497 258.564 76.3075 258.985 76.3639C259.404 74.6316 259.82 72.8994 260.239 71.1674C260.457 70.2683 260.661 69.3361 260.57 68.4058C260.465 67.3332 259.838 66.5197 259.286 65.631C257.938 63.4592 256.51 61.3229 254.639 59.5615C253.991 58.951 253.251 58.6134 252.368 58.9934C251.466 59.3819 251.256 60.1269 251.557 61.0389C249.657 60.3231 249.484 61.4555 249.831 63.03C249.831 63.03 249.25 62.9264 248.915 63.2233C248.487 63.6027 248.426 64.49 248.645 65.2244C249.385 67.7077 250.747 69.8569 252.039 72.0478Z" fill="#1D242F"/>
<path fill-rule="evenodd" clip-rule="evenodd" d="M269.502 40.5318C269.502 44.2457 269.088 49.3369 261.742 54.5212C267.863 48.3393 266.413 41.7137 266.413 38.2044C266.413 34.6951 269.502 36.818 269.502 40.5318Z" fill="white"/>
<path fill-rule="evenodd" clip-rule="evenodd" d="M215.035 38.0296C215.842 38.4038 216.609 38.4087 217.449 38.148C217.506 38.1302 217.571 38.1365 217.64 38.1578C218.058 38.2865 218.188 38.8314 217.893 39.1542C217.838 39.2143 217.778 39.2651 217.71 39.3008C217.61 39.3533 217.505 39.3959 217.394 39.4324C216.67 39.6712 215.88 39.62 215.173 39.337C214.984 39.2614 214.796 39.1772 214.616 39.0789C214.556 39.0458 214.511 38.9858 214.474 38.9108C214.308 38.5739 214.484 38.1483 214.843 38.0354C214.917 38.0118 214.983 38.0055 215.035 38.0296ZM215.554 28.5206C217.469 30.6165 217.221 34.4578 215.052 36.2871C213.448 37.6404 211.274 37.5045 209.874 35.937C208.966 34.9205 208.581 33.6991 208.584 32.3443C208.586 30.7579 209.09 29.3681 210.266 28.2815C211.876 26.7937 214.082 26.9095 215.554 28.5206ZM217.879 27.1789C218.027 27.5005 218.049 27.8824 218.109 28.2414C218.459 30.3491 218.812 32.4563 219.149 34.566C219.417 36.2383 218.911 36.9108 217.243 37.0499C217.186 37.0545 217.127 37.045 217.068 37.0255C216.664 36.8942 216.512 36.3766 216.773 36.0418C216.798 36.0101 216.825 35.9814 216.856 35.9564C217.096 35.7616 217.417 35.6656 217.82 35.4972C217.918 35.4563 217.975 35.3512 217.958 35.2465C217.588 32.9009 217.229 30.6477 216.88 28.3931C216.825 28.0356 216.755 27.6603 216.812 27.3128C216.844 27.1168 217.106 26.8432 217.291 26.8202C217.477 26.7969 217.795 26.9961 217.879 27.1789ZM210.074 30.7783C209.66 31.8713 209.692 33.1028 210.192 34.1595C211.164 36.2164 213.225 36.5207 214.581 34.9861C215.206 34.2791 215.491 33.4445 215.605 32.2397C215.639 31.8747 215.589 31.5075 215.47 31.1612C215.304 30.6806 215.083 30.0518 214.714 29.5268C213.479 27.7679 211.019 28.2803 210.074 30.7783ZM226 28.3371C226.203 28.767 226.327 29.2337 226.419 29.641C226.553 30.2396 226.598 30.8569 226.526 31.4662C226.381 32.7155 226.031 33.6739 225.339 34.5102C223.7 36.4935 221.086 36.2702 219.986 33.9564C218.976 31.832 219.119 29.6778 220.572 27.7695C222.174 25.6643 224.874 25.9514 226 28.3371ZM221.711 28.3629C221.201 28.9142 220.912 29.5504 220.761 30.3362C220.598 31.1857 220.654 32.0691 220.925 32.8902C220.99 33.0854 221.069 33.2834 221.168 33.4708C221.882 34.8244 223.194 34.9531 224.24 33.8579C225.435 32.6077 225.677 30.0295 224.731 28.6066C223.949 27.4275 222.68 27.3154 221.711 28.3629ZM214.342 31.5342C214.518 31.7549 214.712 32.0076 214.791 32.2924C214.997 33.0367 214.551 33.7098 213.977 33.6793C213.31 33.644 213.163 33.1108 213.082 32.5944C213.004 32.1038 213.201 31.6334 213.617 31.3934C213.858 31.2537 214.168 31.3161 214.342 31.5342ZM221.916 30.5344C222.224 30.654 222.549 31.0644 222.618 31.396C222.73 31.9383 222.489 32.5312 221.859 32.5215C221.666 32.5183 221.477 32.3171 221.325 32.1343C221.176 31.9562 221.099 31.4507 221.122 31.2202C221.196 30.4822 221.523 30.3821 221.916 30.5344Z" fill="#1D242F"/>
</svg>
