<svg width="27" height="32" viewBox="0 0 27 32" fill="none" xmlns="http://www.w3.org/2000/svg">
<path d="M26.3893 24.9377C25.9054 26.0557 25.3326 27.0848 24.6689 28.031C23.7642 29.3208 23.0235 30.2136 22.4527 30.7094C21.5677 31.5232 20.6196 31.94 19.6043 31.9637C18.8755 31.9637 17.9965 31.7563 16.9733 31.3355C15.9468 30.9168 15.0034 30.7094 14.1408 30.7094C13.2361 30.7094 12.2659 30.9168 11.2281 31.3355C10.1887 31.7563 9.35142 31.9755 8.71123 31.9973C7.73764 32.0387 6.76721 31.6101 5.79856 30.7094C5.18028 30.1701 4.40699 29.2457 3.48057 27.9361C2.48664 26.5376 1.66949 24.916 1.0293 23.0671C0.343693 21.0702 0 19.1364 0 17.2643C0 15.1198 0.463397 13.2701 1.39157 11.7202C2.12103 10.4752 3.09146 9.49306 4.30605 8.77212C5.5206 8.05115 6.83298 7.68373 8.24627 7.66026C9.01959 7.66026 10.0337 7.89945 11.2939 8.36956C12.5505 8.84126 13.3574 9.08045 13.7112 9.08045C13.9757 9.08045 14.872 8.80074 16.3916 8.24314C17.8286 7.72603 19.0414 7.51187 20.0349 7.59624C22.7272 7.81352 24.7499 8.87481 26.095 10.7869C23.6872 12.2458 22.4961 14.2892 22.5198 16.9105C22.5415 18.9523 23.2823 20.6514 24.738 22.0006C25.3977 22.6267 26.1345 23.1106 26.9542 23.4543C26.7765 23.9699 26.5888 24.4637 26.3893 24.9377V24.9377ZM20.2147 0.64019C20.2147 2.24054 19.63 3.7348 18.4646 5.11788C17.0583 6.76209 15.3572 7.71217 13.5125 7.56225C13.4878 7.36106 13.4754 7.15854 13.4753 6.95584C13.4753 5.4195 14.1442 3.77529 15.3319 2.43095C15.9249 1.75027 16.679 1.18431 17.5935 0.732832C18.5061 0.288087 19.3693 0.0421295 20.1811 0C20.2048 0.213936 20.2147 0.427898 20.2147 0.640163V0.64019Z" fill="black"/>
</svg>
