<svg width="88" height="88" viewBox="0 0 88 88" fill="none" xmlns="http://www.w3.org/2000/svg">
<path d="M88 44.0007C88 68.288 68.288 88 43.9993 88C19.712 88 0 68.288 0 44.0007C0 19.712 19.712 0 43.9993 0C68.288 0 88 19.712 88 44.0007Z" fill="#A81612"/>
<path d="M70.6745 44.0008C70.6745 58.724 58.7244 70.6743 43.9996 70.6743C29.2764 70.6743 17.3262 58.724 17.3262 44.0008C17.3262 29.2761 29.2764 17.3274 43.9996 17.3274C58.7244 17.3274 70.6731 29.2761 70.6731 44.0008H70.6745Z" fill="white"/>
<path d="M68.6964 44.0007C68.6964 57.6331 57.6325 68.6985 43.9986 68.6985C30.3662 68.6985 19.3008 57.6331 19.3008 44.0007C19.3008 30.3669 30.3662 19.303 43.9986 19.303C57.6325 19.303 68.6964 30.3669 68.6964 44.0007Z" fill="#451400"/>
<path d="M16.7348 32.8361C16.4432 33.4608 16.0303 34.0212 15.5202 34.4848C15.01 34.9484 14.4127 35.3059 13.7631 35.5365C13.1392 35.7559 12.4796 35.8478 11.786 35.8137C11.0828 35.7772 10.3933 35.6051 9.75551 35.3068L9.73032 35.295C9.09366 35.0085 8.51958 34.5996 8.04074 34.0915C7.58438 33.607 7.22603 33.0388 6.98548 32.4182C6.74585 31.7913 6.6374 31.1219 6.66683 30.4514C6.69202 29.7548 6.87132 29.0583 7.2048 28.3572C7.38838 27.9659 7.60926 27.5931 7.86435 27.2441C8.08436 26.9454 8.33469 26.6703 8.61132 26.4231C8.86494 26.1989 9.14227 26.0031 9.43836 25.8391C9.72885 25.6776 10.0312 25.5427 10.3409 25.4315L11.2273 27.3909C10.7681 27.5749 10.3363 27.8207 9.94376 28.1216C9.58361 28.4032 9.2946 28.7737 9.07525 29.2331C8.90117 29.587 8.80573 29.9744 8.7955 30.3686C8.78527 30.7628 8.86046 31.1547 9.01595 31.5171C9.17009 31.8728 9.38945 32.1959 9.6755 32.4849C9.96155 32.7754 10.3039 33.011 10.6996 33.1933L10.7263 33.2052C11.122 33.3875 11.5281 33.4957 11.9416 33.5283C12.3566 33.5594 12.7509 33.5224 13.1244 33.4142C13.5086 33.3028 13.8647 33.1109 14.169 32.8513C14.4734 32.5917 14.719 32.2702 14.8895 31.9083C15.137 31.3896 15.2497 30.905 15.2275 30.4559C15.1971 29.9674 15.1024 29.485 14.9459 29.0212L16.8592 28.3513C17.003 28.7025 17.1171 29.0494 17.2001 29.3947C17.3734 30.1169 17.3709 30.8702 17.1927 31.5912C17.0833 32.0208 16.9298 32.438 16.7348 32.8361ZM12.2692 19.5683L13.8284 17.9499L17.2076 21.3276L20.446 17.9795L17.0682 14.5514L18.4718 13.2457L25.6689 20.3346L24.5262 21.7959L21.7813 19.2615L18.4911 22.454L21.1825 25.0388L19.6219 26.6572L12.2692 19.5683ZM24.455 9.14023L26.1447 8.22577L30.957 17.234L29.2674 18.1485L24.455 9.14023ZM37.2664 9.96727C37.837 9.85907 38.3038 9.6323 38.5587 9.28845C38.6825 9.12786 38.7689 8.94174 38.8118 8.74356C38.8546 8.54539 38.8527 8.34013 38.8063 8.14277L38.8004 8.11613C38.6966 7.63148 38.452 7.29503 38.0697 7.10532C37.6843 6.9171 37.1552 6.87709 36.5831 6.98528L34.8253 7.31872L35.4641 10.3096L37.2664 9.96727ZM32.1368 5.80848L36.3608 5.00664C36.9818 4.88807 37.5524 4.8644 38.0756 4.93554C38.5973 5.0052 39.1131 5.15782 39.5162 5.39051C39.9208 5.62468 40.2572 5.93148 40.5285 6.3109C40.7982 6.6918 40.9879 7.13349 41.0946 7.63592L41.1006 7.66405C41.2221 8.2317 41.2191 8.75046 41.0946 9.22029C40.9736 9.68147 40.7462 10.1079 40.4306 10.4653C40.1135 10.8269 39.6629 11.1277 39.1872 11.3693C38.7114 11.6094 38.1823 11.7843 37.6013 11.8955L35.553 12.3297L36.1266 15.4244L34.1717 15.7505L32.1353 5.80848H32.1368ZM51.2767 6.72589C50.856 6.61069 50.4159 6.58398 49.9843 6.64737C49.585 6.70505 49.2031 6.84916 48.8653 7.06973C48.5304 7.29156 48.242 7.5765 48.0161 7.90861C47.7819 8.2495 47.6159 8.63486 47.5211 9.06764L47.5151 9.09726C47.4188 9.52856 47.404 9.95689 47.4692 10.3823C47.5946 11.2242 48.0426 11.9843 48.7186 12.5017C49.0595 12.7699 49.4552 12.9626 49.9013 13.0797C50.3578 13.1997 50.792 13.2279 51.2026 13.1627C51.5997 13.1026 51.9789 12.957 52.3142 12.7359C52.6462 12.518 52.9292 12.2393 53.1634 11.8985C53.4027 11.5481 53.5714 11.1544 53.6599 10.7394L53.6659 10.7098C53.7607 10.277 53.7755 9.85019 53.7103 9.42482C53.6478 9.0089 53.5059 8.60886 53.2924 8.24653C53.0785 7.88439 52.799 7.56527 52.4683 7.30542C52.1162 7.03198 51.7108 6.83508 51.2782 6.72738L51.2767 6.72589ZM51.7599 4.68654C52.5469 4.89404 53.242 5.22008 53.8407 5.66768C54.441 6.11379 54.9301 6.63401 55.308 7.22686C55.6897 7.82456 55.9489 8.49206 56.0708 9.19066C56.1927 9.88927 56.1747 10.6051 56.0179 11.2967L56.012 11.3263C55.868 12.0064 55.5845 12.6491 55.1794 13.2139C54.7743 13.7787 54.2564 14.2534 53.6585 14.6078C53.0543 14.9633 52.3841 15.1922 51.6887 15.2806C50.9625 15.3799 50.2066 15.3265 49.4196 15.1205C48.669 14.9312 47.9623 14.598 47.3387 14.1394C46.7586 13.7136 46.2613 13.1851 45.8715 12.5802C45.4898 11.9825 45.2306 11.315 45.1087 10.6164C44.9868 9.91781 45.0048 9.20197 45.1615 8.51036L45.1675 8.48073C45.3115 7.80073 45.5949 7.158 46.0001 6.59318C46.4052 6.02836 46.9231 5.55372 47.5211 5.19932C48.1248 4.84395 48.7944 4.61505 49.4893 4.52647C50.2492 4.42869 51.0211 4.4831 51.7599 4.68654ZM63.1232 10.8195L60.0849 9.0187L61.066 7.53958L68.4677 11.9384L67.4865 13.4709L64.9284 11.8303L60.4924 19.0111L58.7421 17.9988L63.1232 10.8195ZM72.7169 15.7341L74.0907 17.3007L67.6821 22.7148L71.251 26.7506L69.6355 27.9571L65.0128 22.5163L72.7169 15.7341ZM80.406 26.3786L83.1553 33.3667L81.4894 33.967L79.4145 28.876L76.7229 29.9282L78.3014 34.0085L76.5288 34.6088L74.9504 30.5285L73.1511 31.2325L75.3594 36.4999L73.5868 37.1002L70.8123 29.9357L80.406 26.3786Z" fill="white"/>
<path d="M8.97631 45.5622C9.54571 45.5622 10.0073 45.1006 10.0073 44.5312C10.0073 43.9618 9.54571 43.5002 8.97631 43.5002C8.4069 43.5002 7.94531 43.9618 7.94531 44.5312C7.94531 45.1006 8.4069 45.5622 8.97631 45.5622Z" fill="white"/>
<path d="M79.4529 45.5622C80.0223 45.5622 80.4839 45.1006 80.4839 44.5312C80.4839 43.9618 80.0223 43.5002 79.4529 43.5002C78.8835 43.5002 78.4219 43.9618 78.4219 44.5312C78.4219 45.1006 78.8835 45.5622 79.4529 45.5622Z" fill="white"/>
<path d="M13.3392 52.7097L13.8105 53.9695L12.0883 56.2075L14.8569 56.7618L15.3282 58.0216L10.0178 60.0106L9.58204 58.8501L13.0502 57.5518L10.2208 56.9055L10.209 56.8759L11.9015 54.5549L8.45712 55.8444L8.02734 54.7002L13.3392 52.7097ZM16.7288 60.5649L19.1342 64.1012L18.2153 64.7266L16.5079 62.213L15.5564 62.8607L17.0608 65.072L16.1418 65.6945L14.639 63.4861L13.6534 64.1546L15.386 66.7008L14.4671 67.3233L12.0394 63.7544L16.7288 60.5649ZM20.2799 69.3167L20.7541 65.979L21.8332 66.9616L21.4759 69.1226L23.5998 68.5698L24.6492 69.5242L21.3811 70.2979L20.892 73.7734L19.813 72.7908L20.1806 70.498L17.9248 71.073L16.877 70.1185L20.2799 69.3167ZM26.9553 71.2524L28.015 71.9119L25.0182 76.7273L23.9585 76.0677L26.9553 71.2524ZM31.3646 79.7745C30.9883 79.6468 30.6419 79.4441 30.3464 79.1786C30.0677 78.9284 29.841 78.6257 29.6794 78.2879C29.5202 77.9504 29.4295 77.5847 29.4126 77.2119C29.3919 76.8266 29.4497 76.4427 29.583 76.0618L29.589 76.0469C29.839 75.3167 30.3644 74.713 31.0533 74.3647C31.3931 74.1969 31.7629 74.0987 32.1412 74.0758C32.5339 74.0506 32.9356 74.1098 33.3491 74.2536C33.5981 74.3425 33.8204 74.4419 34.0116 74.556C34.3599 74.7496 34.6603 75.0191 34.8905 75.3444C34.9972 75.4956 35.0906 75.6557 35.1706 75.8187L34.1183 76.4219C33.9887 76.1784 33.8261 75.954 33.6351 75.755C33.4458 75.5657 33.2149 75.4231 32.9608 75.3385C32.7513 75.2632 32.5283 75.233 32.3064 75.2498C32.0844 75.2667 31.8685 75.3302 31.6728 75.4363C31.4816 75.5401 31.3127 75.6809 31.166 75.8558C31.0162 76.0353 30.9007 76.2407 30.8251 76.4619L30.8191 76.4768C30.7391 76.7065 30.7006 76.9362 30.7065 77.1674C30.711 77.3972 30.7554 77.6121 30.8369 77.8136C30.9218 78.0208 31.0502 78.2074 31.2133 78.3608C31.3764 78.5142 31.5705 78.6308 31.7825 78.7029C32.0878 78.8096 32.3665 78.8437 32.617 78.8066C32.8689 78.7681 33.1327 78.6881 33.4098 78.568L33.893 79.5877C33.7103 79.6843 33.5205 79.767 33.3254 79.8352C32.929 79.9715 32.5062 80.0131 32.0908 79.9567C31.8432 79.9212 31.5999 79.8606 31.3646 79.7759V79.7745ZM40.9093 79.3446L40.3787 77.4298L39.4124 79.1668L40.9093 79.3446ZM40.0022 75.8765L41.1435 76.0114L42.879 81.9709L41.5852 81.8168L41.2206 80.4918L38.8388 80.2072L38.1734 81.4077L36.9106 81.258L40.0022 75.875V75.8765ZM46.0493 76.2263L47.1935 76.1122L50.1829 79.3254L49.8375 75.8498L51.0632 75.7283L51.6234 81.3722L50.5682 81.4759L47.478 78.1604L47.8337 81.7471L46.6095 81.8702L46.0493 76.2263ZM60.4642 78.5665C60.0884 78.7399 59.6829 78.8395 59.2696 78.86C58.8932 78.8779 58.5172 78.8194 58.164 78.6881C57.8158 78.5558 57.4981 78.3541 57.2303 78.0952C56.9431 77.8166 56.7134 77.4843 56.5544 77.1171L56.5485 77.1022C56.3872 76.7478 56.2986 76.3647 56.288 75.9755C56.2774 75.5863 56.345 75.1989 56.4868 74.8363C56.6286 74.4736 56.8417 74.1432 57.1135 73.8644C57.3853 73.5856 57.7102 73.3642 58.0691 73.2132C58.3018 73.1094 58.5197 73.0323 58.7242 72.979C58.9273 72.9256 59.1244 72.893 59.3141 72.8797C59.5023 72.8664 59.6891 72.8723 59.8714 72.8975C60.0537 72.9227 60.2374 72.9627 60.4212 73.0161L60.0892 74.2017C59.9599 74.1637 59.8282 74.134 59.695 74.1128C59.439 74.0701 59.1772 74.0781 58.9243 74.1365C58.7909 74.1662 58.6486 74.2151 58.5004 74.2803C58.2989 74.3684 58.12 74.5012 57.9773 74.6686C57.69 75.005 57.5435 75.4393 57.5682 75.881C57.5786 76.1092 57.6334 76.3345 57.7327 76.5568L57.7386 76.5716C57.8438 76.8088 57.9802 77.0103 58.1462 77.1749C58.3107 77.3409 58.4975 77.4668 58.7035 77.5513C58.911 77.6373 59.1273 77.6787 59.3526 77.6743C59.5903 77.6691 59.8244 77.6152 60.0403 77.5157C60.4642 77.326 60.7755 77.0622 60.9741 76.7258L60.645 75.9847L59.4979 76.4975L59.0592 75.5134L61.3075 74.51L62.3109 76.7599C62.1311 77.1272 61.8979 77.4658 61.6188 77.7647C61.3224 78.0878 60.9385 78.3576 60.4657 78.568L60.4642 78.5665ZM66.3615 71.3576C66.6046 71.1679 66.7469 70.9663 66.7869 70.7499C66.8067 70.6422 66.8024 70.5314 66.7742 70.4255C66.746 70.3196 66.6946 70.2214 66.6238 70.1378L66.6135 70.123C66.4475 69.911 66.2548 69.8043 66.0354 69.8029C65.8161 69.8029 65.5849 69.8962 65.3418 70.0845L64.3636 70.8462L65.3626 72.1327L66.3601 71.3561L66.3615 71.3576ZM62.6874 70.7233L64.7342 69.1329C65.3018 68.6912 65.8546 68.5045 66.3941 68.5727C66.8476 68.629 67.2404 68.8721 67.5724 69.2989L67.5828 69.3108C67.8644 69.6739 68.0052 70.037 68.0052 70.4031C68.0052 70.7692 67.9044 71.116 67.7014 71.445L70.0386 72.195L68.887 73.0902L66.8136 72.4025L66.8002 72.4128L66.0384 73.0042L67.1529 74.4374L66.1674 75.2021L62.6874 70.7233ZM68.5002 65.7508L69.3153 64.8067L73.6105 68.5119L72.7953 69.456L68.5002 65.7508ZM71.2688 62.173L71.9001 61.0969L75.8129 63.3913L77.2431 60.9517L78.2213 61.5253L76.1612 65.0408L71.2688 62.173ZM74.3145 56.2253L74.7058 55.0396L79.0143 56.4624L79.899 53.7768L80.9766 54.1326L79.7019 58.0008L74.3145 56.2253Z" fill="white"/>
<path fill-rule="evenodd" clip-rule="evenodd" d="M38.8237 54.2969C38.8341 54.0464 38.5213 53.415 38.3005 53.1956C38.1271 53.0208 37.924 52.6725 37.7803 52.3849C37.5491 51.924 37.2156 51.5817 37.0274 51.1104C36.8125 50.2507 36.4034 49.2874 35.9839 48.3299C35.9484 47.7964 35.7024 47.2332 35.6372 46.7085C35.5937 46.3431 35.5738 45.9752 35.5779 45.6073C35.5779 45.2382 35.6372 44.8336 35.6372 44.4497V42.8861C35.6372 42.3956 35.8684 41.9836 35.8684 41.4959C35.8684 41.161 36.4434 40.6926 36.5635 40.4525C37.9581 40.1783 39.049 39.7352 40.5029 39.584C42.4207 39.6388 42.5334 39.833 43.5146 39.9308C44.4157 40.1057 44.8217 40.6526 45.5421 41.0898C45.8933 41.2647 45.3894 41.8175 45.3094 42.1317C45.2723 42.4119 45.0648 42.6683 44.9537 42.9128C44.5772 43.7354 44.0244 44.4157 43.8035 45.3183C43.4478 46.0815 43.2804 46.2757 42.935 47.2302C42.8061 47.4881 42.6608 47.9297 42.526 48.198C42.3792 48.4914 42.4519 49.6401 42.5289 49.9528C42.6327 50.3619 42.6001 50.7665 42.7616 51.1682C42.8061 51.2823 42.8387 51.4008 42.8772 51.5164C42.9484 51.8129 43.0254 52.0989 43.1084 52.3775C43.4138 53.4165 43.7813 54.3428 44.1519 55.1654C44.4097 55.7671 44.7595 55.9776 44.0185 55.7923C43.6954 55.7123 43.7339 55.6174 43.5724 55.4544C43.3886 55.2721 43.1573 55.158 42.935 54.992C42.7068 54.82 42.5838 54.5829 42.4133 54.4125C42.0754 54.0746 41.9969 53.7055 41.6026 53.3113C41.3818 52.1745 40.4925 51.011 39.9234 49.8357C39.6922 49.3748 39.3854 48.9909 39.169 48.5611C39.006 48.2351 38.7896 48.0231 38.7066 47.6926C38.5865 47.2124 38.6473 46.5024 38.6473 45.9556C38.5436 45.0441 38.465 44.4157 38.7644 43.5812C38.8237 42.403 39.7174 42.6445 40.5014 42.7112C41.0157 42.7112 41.2573 42.6831 41.6026 42.9439C42.3956 43.5383 42.0087 43.4538 42.0087 44.3341C42.0087 44.7491 41.9272 45.1434 41.7182 45.4917C41.4811 45.8874 41.3047 46.3765 41.0809 46.8256C41.0469 46.8923 41.0231 46.1838 41.0231 46.0134C41.0231 45.5747 40.6541 45.3108 40.328 45.3761C39.8152 45.4798 39.7841 45.7214 39.5751 46.2446C39.4476 46.5632 39.6848 47.1398 39.7485 47.4614C39.9175 48.2766 40.5488 48.8946 41.3121 48.5626C41.5433 48.3314 41.776 47.9994 41.776 47.6926C41.776 47.2895 42.0265 46.8656 42.1821 46.4773C42.3674 46.0149 42.5778 45.4872 42.8194 45.087C43.0832 44.346 43.559 43.6198 43.1084 42.7112C42.8091 42.0146 42.4934 41.4678 41.776 41.2632C41.5019 41.2084 40.5459 41.2188 40.2702 41.2632C39.3557 41.2899 38.6162 41.5848 37.721 41.7849C37.432 41.8575 37.4483 42.2444 37.3742 42.5378C37.2704 42.9498 37.2452 43.3975 37.143 43.8125C37.0125 44.3297 37.22 45.0085 37.0259 45.4917C36.8791 45.8592 36.8925 46.7322 37.0852 47.1146C37.3149 47.574 37.3964 48.1283 37.7225 48.5626C38.2871 49.317 38.4206 50.1603 38.9971 50.8791C39.3928 51.3756 39.4817 51.7936 39.7485 52.3271L39.8641 52.5584C40.1694 53.169 40.8349 53.9204 41.1388 54.5295C41.3507 54.9519 41.8042 55.447 42.1243 55.6856C42.4815 55.9553 42.7676 56.3184 43.0506 56.6712C44.8929 57.8613 46.1809 58.0347 46.8152 57.4819C47.1235 57.1751 46.4684 56.6919 46.3528 56.6134C45.8162 56.1065 45.4176 55.3344 45.136 54.4703C44.9804 53.8508 44.6647 53.2401 44.3831 52.674C44.0778 51.7699 43.7858 50.8569 43.7457 49.8935C43.7457 49.3763 43.7057 48.9969 43.805 48.5033C43.9236 47.3473 45.0115 46.3113 45.1982 45.4413C45.4754 45.0708 45.6621 44.7743 45.7733 44.3341C46.6077 43.6183 47.2687 42.3481 47.6407 41.2024C47.7193 40.8853 47.2198 40.5074 47.1057 40.2791C46.9871 40.042 46.5425 39.7159 46.295 39.4684C46.0504 39.2239 45.9971 38.9393 45.7733 38.7155C45.545 38.4858 45.1182 38.1745 44.847 38.3094C44.5135 38.4754 44.4468 38.8311 44.0348 38.8311H43.0506C42.5023 38.8311 41.9094 38.6488 41.3714 38.5406C40.989 38.465 40.2035 38.2472 39.8641 38.0782C39.5603 37.9255 39.086 38.0604 38.7066 38.136C36.7769 38.5599 34.7672 37.8247 34.6516 40.1635C34.4767 41.1447 34.204 42.0117 34.1417 42.9988C34.0602 44.3075 34.1625 45.7377 34.1299 47.0553C34.1299 47.5829 34.2336 48.0364 34.4203 48.5048C34.6723 49.1376 35.0873 49.7053 35.3467 50.3574C36.3841 51.8869 37.306 53.0504 38.1849 54.0064C38.5021 54.2435 38.2412 53.7159 38.8222 54.2969H38.8237Z" fill="white"/>
<path fill-rule="evenodd" clip-rule="evenodd" d="M41.4625 35.5913L38.7058 33.3252L38.4004 33.3859C37.4148 33.6349 35.5311 33.466 34.7249 33.9995C33.385 34.7628 32.5031 36.116 31.5383 37.0616C31.2271 37.2172 31.3649 37.9568 31.233 38.2873C31.0047 38.8579 31.0448 39.5248 30.8032 40.1251C30.5483 40.7653 30.5587 41.7361 30.5587 42.452C30.5587 43.5176 30.6209 44.5773 30.6209 45.6385C30.6209 46.3884 30.8062 47.7905 30.9885 48.5168C30.9722 50.5265 35.5178 55.1996 38.0937 59.6637C38.4612 60.4003 38.7132 60.4106 39.3801 60.5218C39.5224 60.5455 39.6662 60.5633 39.81 60.5826C40.7392 60.716 41.2476 61.2569 42.1961 61.2569C42.6926 61.2569 43.204 61.5089 43.6679 61.6245C44.1421 61.7431 44.8832 61.6852 45.3826 61.6852C46.2008 61.6852 47.0663 61.6245 47.8933 61.6245C48.338 61.6245 48.8019 61.7194 49.1798 61.6245C49.5741 61.5252 50.1343 61.6245 50.5285 61.6245C50.9391 61.6245 51.48 61.4407 51.9365 61.4407C52.2329 61.4407 52.7606 60.6937 53.0392 60.5826C53.7062 60.3158 54.0382 59.5703 54.3879 58.9908C54.6399 58.5669 54.88 58.1208 55 57.6421C55.1186 57.1678 55.0045 56.7247 54.5095 56.6016C54.0708 56.492 54.0056 56.2756 53.5906 56.1718C53.1667 56.0681 52.9266 56.0429 52.6109 55.8058C52.0581 55.3908 51.3867 54.9609 50.8338 54.5193C50.264 54.0674 49.6479 53.6769 48.996 53.3543C48.5736 53.1439 48.5396 52.9023 48.1394 52.9868C47.7511 53.0698 47.5421 52.059 47.7096 51.272C47.8341 50.694 47.5732 50.5932 47.4043 50.1693C47.0041 49.1941 46.5254 49.7054 47.5258 48.8221C48.1779 48.333 48.7159 46.9843 49.119 46.3114C49.78 45.3243 50.6856 44.1935 50.7123 43.1871C51.0384 42.6402 51.4119 41.3967 51.2637 40.798C51.2162 40.0836 50.4396 38.7378 49.7934 37.5521C48.747 36.9208 48.6211 35.0755 47.588 34.6116C47.3198 34.5583 46.9033 34.6294 46.7299 34.6724C46.4631 34.7391 46.0881 35.6521 45.811 35.6521C46.7743 36.6673 47.4739 37.7611 48.2001 38.7763C48.7485 39.8879 49.3814 40.5697 49.3028 41.8399C49.1443 43.5236 47.96 45.1598 47.5258 45.8816C47.4665 46.0046 46.8529 46.8005 46.7922 46.9235C46.5476 47.4126 46.4809 47.3592 46.3015 47.7194C46.1311 48.0588 45.8495 48.4412 45.6894 48.7613C45.5264 49.0874 45.6746 50.1678 45.7487 50.5368C45.8584 51.0778 46.2867 50.9711 46.4246 51.518C46.5342 51.9552 46.4246 52.5955 46.4246 53.049C46.4246 53.4403 46.4839 54.1724 46.4839 54.58C46.4839 54.9832 47.0811 54.6838 47.4028 54.7638C47.9541 54.9017 48.0845 55.5671 48.7515 55.8058C49.3399 56.0147 50.5122 57.0804 51.0191 57.4583C51.5097 57.8288 51.0562 57.2449 50.8946 57.8881C49.1754 59.1301 46.9315 59.262 44.8313 59.1123C40.6592 58.7611 40.3731 59.1612 38.7665 57.2745C36.7272 54.4244 34.6137 51.6988 32.5802 48.456C32.5202 46.2499 32.5613 44.0422 32.7032 41.8399C32.7032 40.6542 33.01 40.4437 33.01 39.2669C33.302 37.607 34.7397 36.5769 36.0113 36.1427C37.8091 35.6506 39.6232 35.5913 41.4625 35.5913Z" fill="white"/>
<path fill-rule="evenodd" clip-rule="evenodd" d="M37.6283 32.5427C36.9466 32.2226 36.127 32.3338 35.423 32.4479C35.2051 32.4049 36.0351 32.0121 36.1744 31.8387C36.4501 31.4934 36.9303 31.3897 37.3467 31.1822C37.9603 31.2548 38.8911 31.5586 39.5047 31.7913C40.0708 31.9336 40.8326 32.1678 41.4284 32.1678C43.5508 30.2114 46.0363 28.2313 48.4655 26.3964C48.8464 26.2482 52.1218 25.7755 53.0155 25.7873C53.6262 26.0926 54.3109 25.8199 54.6577 26.3964C55.2683 27.2694 56.7001 28.5129 56.4866 29.2124C56.4748 30.0869 56.211 30.9806 55.9709 31.8862C55.9575 31.9129 54.6399 31.9795 54.5629 31.9795H53.6736C53.3045 31.9795 53.1875 31.9173 53.1104 31.8387C53.6854 31.4326 54.0293 31.1155 54.5629 30.4782C54.7318 30.3107 54.5243 29.8438 54.4695 29.6808C54.2146 28.9546 53.7344 28.4062 53.5313 27.6637C52.485 27.7229 51.1007 27.6859 50.0602 27.9453C49.6838 28.095 49.3236 28.2343 48.9813 28.5085C48.381 29.1487 48.2002 29.1739 47.2457 30.1492C47.3465 31.0725 46.8011 31.9469 46.9167 32.9177C47.4132 33.9774 47.1953 33.6958 48.8879 33.8559C49.1991 33.8915 49.6749 33.8233 49.8424 33.9092C49.9076 33.9418 49.9268 33.9982 49.872 34.0901C49.8053 34.2072 49.8349 34.7422 49.3562 34.9823C48.9175 35.2016 47.8786 35.3528 47.385 35.4506L47.1523 35.498C46.8307 35.5618 46.6721 35.6211 46.3535 35.6848C45.3871 35.7974 45.0863 36.4659 44.4979 36.8438C44.1081 37.0958 43.2974 37.0454 42.6482 36.9994C42.2821 36.9994 42.1873 36.9327 41.9442 36.8112C41.7664 36.7223 41.71 36.3429 41.6626 36.1546C41.6181 35.9768 41.1854 35.6299 41.0535 35.498C40.849 35.2935 40.6326 35.2654 40.3969 35.0282C40.1212 34.7391 39.8228 34.4725 39.5047 34.2309C39.2912 34.0708 39.2023 33.8811 38.9889 33.6677C38.5295 33.1563 38.3071 32.771 37.6283 32.5412V32.5427Z" fill="white"/>
</svg>
