<svg width="31" height="29" viewBox="0 0 31 29" fill="none" xmlns="http://www.w3.org/2000/svg">
<path fill-rule="evenodd" clip-rule="evenodd" d="M15.5 27C22.4036 27 28 21.4036 28 14.5C28 7.59644 22.4036 2 15.5 2C8.59644 2 3 7.59644 3 14.5C3 21.4036 8.59644 27 15.5 27Z" stroke="#1D242F" stroke-width="2" stroke-linecap="round" stroke-linejoin="round"/>
<path d="M15.5 22L15.5 12" stroke="#1D242F" stroke-width="2" stroke-linecap="round" stroke-linejoin="round"/>
<path d="M15.5 16L12.5 14.5" stroke="#1D242F" stroke-width="2" stroke-linecap="round" stroke-linejoin="round"/>
<path d="M15.5 14.5L18.5 13" stroke="#1D242F" stroke-width="2" stroke-linecap="round" stroke-linejoin="round"/>
<path d="M15.7803 17.8267C16.2392 18.133 16.7566 18.341 17.2998 18.4377C17.843 18.5345 18.4003 18.5177 18.9368 18.3886C19.4732 18.2595 19.9771 18.0208 20.4169 17.6875C20.8566 17.3542 21.2226 16.9336 21.4919 16.452C21.7612 15.9704 21.9279 15.4383 21.9816 14.8892C22.0353 14.34 21.9748 13.7857 21.8039 13.2611C21.633 12.7365 21.3554 12.2529 20.9885 11.8407C20.6217 11.4286 20.1736 11.0968 19.6723 10.8662C19.5588 10.8139 19.4691 10.721 19.4208 10.6058C19.0966 9.83367 18.5516 9.17446 17.8542 8.71088C17.1568 8.2473 16.338 8 15.5006 8C14.6631 8 13.8443 8.2473 13.1469 8.71088C12.4495 9.17446 11.9045 9.83367 11.5803 10.6058C11.532 10.721 11.4423 10.8139 11.3288 10.8662C10.8275 11.0967 10.3793 11.4285 10.0123 11.8407C9.64541 12.2528 9.36774 12.7364 9.19679 13.2611C9.02583 13.7858 8.96529 14.3401 9.01897 14.8893C9.07265 15.4385 9.23938 15.9707 9.50869 16.4523C9.778 16.9339 10.1441 17.3546 10.5838 17.6879C11.0236 18.0212 11.5276 18.2599 12.0641 18.389C12.6006 18.5181 13.158 18.5348 13.7013 18.438C14.2445 18.3412 14.7619 18.1331 15.2208 17.8267C15.3035 17.7711 15.4009 17.7415 15.5006 17.7415C15.6002 17.7415 15.6976 17.7711 15.7803 17.8267Z" stroke="#1D242F" stroke-width="2" stroke-linecap="round" stroke-linejoin="round"/>
</svg>
