<svg width="300" height="230" viewBox="0 0 300 230" fill="none" xmlns="http://www.w3.org/2000/svg">
<path opacity="0.5" d="M163.187 229.496C238.658 229.496 299.84 225.797 299.84 221.235C299.84 216.673 238.658 212.975 163.187 212.975C87.715 212.975 26.5332 216.673 26.5332 221.235C26.5332 225.797 87.715 229.496 163.187 229.496Z" fill="#DBE1E8"/>
<g opacity="0.5">
<g opacity="0.5">
<path opacity="0.5" fill-rule="evenodd" clip-rule="evenodd" d="M137.943 0.0100445C149.361 -0.0289633 160.652 1.04146 171.599 4.49767C174.923 5.54715 178.236 6.70936 181.407 8.14261C184.819 9.68457 187.92 11.8303 190.921 14.0804C194.866 17.0381 198.379 20.4496 201.389 24.353C204.36 28.2061 206.503 32.4382 207.181 37.338C207.612 40.4517 207.398 43.4829 206.313 46.426C204.289 51.9143 201.553 56.9618 197.151 60.9656C193.679 64.1244 190.235 67.3147 186.775 70.4875C182.847 74.0897 179.101 77.8617 175.893 82.1331C173.368 85.4944 171.265 89.0748 170.316 93.2262C170.108 94.1386 169.919 95.0656 169.843 95.9958C169.5 100.182 171.499 103.242 174.795 105.472C177.443 107.264 180.525 108.032 183.708 107.987C190.33 107.893 196.953 107.716 203.571 107.468C212.746 107.125 221.916 106.625 231.103 106.833C242.651 107.093 254.122 108.031 265.355 110.907C271.335 112.438 277.114 114.508 282.457 117.662C284.803 119.047 287.04 120.595 288.887 122.603C289.972 123.785 290.986 125.077 291.793 126.458C293.353 129.126 293.523 131.983 292.445 134.896C291.376 137.785 289.612 140.222 287.507 142.43C284.11 145.996 280.011 148.549 275.588 150.627C270.142 153.185 264.444 155.065 258.631 156.53C249.131 158.923 239.59 161.155 230.051 163.389C214.523 167.026 198.977 170.586 183.45 174.225C172.686 176.747 161.872 179.011 150.922 180.563C142.491 181.757 134.014 182.396 125.495 182.154C118.238 181.947 111.192 180.682 104.56 177.57C101.509 176.138 98.7295 174.319 96.4032 171.868C88.2266 163.253 93.5389 152.825 98.8679 144.42C99.8726 142.836 101.006 141.328 101.927 139.698C102.56 138.577 103.078 137.343 103.381 136.094C104.004 133.525 103.041 131.59 100.687 130.394C98.8928 129.483 96.9555 129.097 94.953 129.003C90.2329 128.783 85.5616 129.311 80.9442 130.162C71.306 131.94 61.6881 133.831 52.0725 135.729C44.5406 137.216 36.962 137.508 29.3331 136.81C28.6098 136.744 27.8694 136.637 27.1851 136.407C20.3654 134.114 14.2158 130.722 9.20604 125.448C4.78993 120.798 2.34305 115.183 1.03062 109.005C-0.317984 102.658 -0.222394 96.2866 0.623855 89.8784C1.78242 81.1037 4.35188 72.801 8.54179 64.9972C10.9984 60.4215 13.8808 56.1518 17.628 52.5313C23.7031 46.6612 29.6363 40.6244 35.9794 35.0563C46.4542 25.8614 58.4877 19.0915 71.2784 13.6462C84.0485 8.21002 97.3229 4.51717 111.01 2.25529C118.585 1.00331 126.198 0.18099 133.878 0.0143463C135.232 -0.0151964 136.588 0.0100445 137.943 0.0100445Z" fill="#DBE1E8"/>
</g>
</g>
<path fill-rule="evenodd" clip-rule="evenodd" d="M173.055 196.988C173.596 197.189 174.031 197.68 174.516 198.036C174.48 198.231 174.443 198.425 174.407 198.619C173.596 198.83 172.772 199.26 171.976 199.212C168.74 199.018 166.163 200.285 163.937 202.503C163.787 202.652 163.556 202.722 163.356 202.813C163.295 202.841 163.211 202.817 163.1 202.817C162.073 202.106 162.523 201.259 163.003 200.486C164.632 197.866 170.179 195.922 173.055 196.988ZM174.107 191.02C174.376 191.138 174.679 191.286 174.844 191.51C175.048 191.788 175.282 192.201 175.211 192.48C175.143 192.742 174.698 193.073 174.412 193.08C173.679 193.099 172.943 192.945 172.207 192.878C170.29 192.705 168.348 192.27 166.462 192.439C163.811 192.678 161.425 193.889 159.627 195.905C158.146 197.566 156.878 199.419 155.51 201.183C155.089 201.726 155.027 202.662 153.896 202.587C153.244 201.705 153.526 200.74 153.952 199.913C156.64 194.693 160.512 190.883 166.503 189.773C169.164 189.28 171.678 189.965 174.107 191.02ZM205.717 197.185C208.342 197.346 210.051 198.719 210.154 200.764C209.327 201.461 208.521 200.941 207.893 200.541C205.352 198.92 202.952 199.198 200.54 200.77C200.206 200.988 199.726 201.001 199.061 201.175C199.508 198.412 202.113 196.963 205.717 197.185ZM142.675 192.411C142.745 192.436 142.824 192.442 142.888 192.476C143.659 192.889 144.811 193.161 144.485 194.309C144.166 195.432 143.195 194.886 142.402 194.732C138.589 193.993 135.093 194.397 132.509 197.763C132.1 198.296 131.845 198.957 131.408 199.46C131.119 199.791 130.63 199.943 130.136 200.231C129.525 198.583 130.265 197.462 130.929 196.428C133.191 192.908 138.7 191.066 142.675 192.411ZM211.897 191.526C213.822 192.97 215.688 194.522 216.713 196.778C216.859 197.1 216.64 197.584 216.586 198.033C215.376 198.199 214.826 197.437 214.21 196.822C213.094 195.709 212.074 194.487 210.868 193.483C206.574 189.908 201.507 190.318 197.861 194.539C196.74 195.838 195.832 197.317 194.821 198.71C194.408 199.28 194.235 200.163 193.208 199.967C192.744 197.508 195.74 193.221 199.639 190.747C203.384 188.37 208.03 188.624 211.897 191.526ZM176.421 183.478C177.369 183.823 178.382 184.284 178.285 185.927C177.512 185.824 176.816 185.742 176.123 185.637C173.482 185.233 170.853 184.602 168.198 184.458C161.223 184.08 156.063 187.313 152.349 193.082C151.379 194.589 150.59 196.214 149.613 197.715C149.165 198.404 148.462 198.925 147.876 199.523C147.708 199.437 147.541 199.352 147.374 199.266C147.422 198.648 147.308 197.957 147.544 197.422C150.245 191.314 153.933 186.057 160.311 183.348C165.671 181.072 171.075 181.53 176.421 183.478ZM210.192 181.162C211.892 181.565 213.585 182.432 215.015 183.458C218.623 186.048 221.183 189.577 223.132 193.532C223.533 194.346 223.617 195.316 223.843 196.2C222.585 196.847 221.965 196.319 221.48 195.617C220.797 194.63 220.175 193.6 219.552 192.573C218.02 190.049 216.19 187.772 213.901 185.896C211.806 184.178 209.426 183.156 206.659 183.26C205.084 183.32 203.487 183.275 201.941 183.526C197.891 184.181 195.005 186.699 192.745 189.898C191.062 192.279 189.704 194.89 188.189 197.39C187.749 198.115 187.266 198.812 186.804 199.523C186.563 199.424 186.322 199.326 186.08 199.228C186.184 198.448 186.126 197.601 186.417 196.898C188.51 191.83 191.34 187.223 195.85 183.961C200.141 180.857 205.043 179.944 210.192 181.162ZM139.167 185.46C141.12 185.803 142.987 186.68 144.87 187.38C145.34 187.555 145.803 187.916 146.113 188.317C146.347 188.619 146.523 189.224 146.376 189.506C146.222 189.8 145.605 190.075 145.27 189.999C144.254 189.77 143.265 189.398 142.285 189.026C138.245 187.493 134.14 187.122 129.966 188.353C125.693 189.613 122.553 192.206 120.9 196.498C120.655 197.133 120.385 197.761 120.077 198.365C119.987 198.539 119.723 198.62 119.433 198.815C118.253 198.108 118.569 197.196 118.796 196.318C119.837 192.3 122.434 189.523 125.892 187.598C130.032 185.295 134.546 184.649 139.167 185.46ZM215.125 173.373C222.188 177.276 227.041 183.171 229.915 190.705C230.207 191.469 230.124 192.378 230.215 193.219L229.466 193.545C228.901 192.905 228.227 192.331 227.793 191.612C226.859 190.065 226.03 188.453 225.192 186.85C222.667 182.024 218.879 178.39 214.277 175.671C207.957 171.936 201.555 172.56 195.479 176.234C188.968 180.171 184.867 186.13 182.385 193.268C182.063 194.193 181.809 195.146 181.43 196.046C181.221 196.545 180.819 196.963 180.517 197.398C179.352 196.767 179.742 195.975 179.896 195.277C181.088 189.858 183.595 185.088 187.127 180.866C191.039 176.191 195.727 172.708 201.829 171.414C206.522 170.418 210.98 171.082 215.125 173.373ZM149.693 181.296C150.419 181.676 151.135 182.123 151.74 182.669C152.127 183.018 152.302 183.605 152.566 184.074C151.428 184.902 150.618 184.35 149.839 183.962C145.368 181.74 140.687 180.254 135.718 179.684C132.246 179.286 128.806 179.403 125.495 180.531C119.782 182.477 116.558 186.616 115.489 192.53C115.342 193.345 115.209 194.165 115.019 194.97C114.831 195.764 114.706 196.804 113.616 196.68C112.454 196.549 112.668 195.461 112.749 194.69C113.164 190.722 114.285 187.003 116.842 183.854C119.994 179.971 124.157 177.842 129.025 177.316C136.283 176.533 143.202 177.896 149.693 181.296ZM105.392 165.658C106.505 166.068 107.601 166.609 108.582 167.272C109.264 167.732 109.737 168.503 110.319 169.152C109.286 169.999 108.678 169.336 108.058 169.025C101.245 165.597 94.2248 165.356 87.1717 167.987C79.3561 170.903 75.226 176.933 73.7789 184.961C73.2601 187.838 72.9471 190.75 72.5121 193.642C72.3949 194.419 72.3776 195.278 71.2337 195.982C71.0988 195.104 70.8782 194.418 70.907 193.743C71.1256 188.7 71.7784 183.719 73.5703 178.97C76.5943 170.954 82.6548 166.513 90.7979 164.767C95.7078 163.715 100.625 163.902 105.392 165.658ZM104.32 193.028C104.525 193.116 104.619 193.472 104.891 193.908C104.357 194.596 103.863 195.292 103.291 195.917C103.181 196.039 102.7 195.978 102.514 195.836C101.686 195.205 102.169 194.487 102.538 193.878C102.922 193.243 103.458 192.661 104.32 193.028ZM107.497 176.946C108.141 177.392 108.954 177.834 108.566 179.33C107.084 178.849 105.686 178.559 104.437 177.96C100.346 176 96.381 176.491 92.5418 178.511C86.8884 181.484 83.4025 186.147 82.032 192.414C81.795 193.495 82.0114 194.831 80.6488 195.746C80.4482 195.155 80.1954 194.711 80.1574 194.249C79.9241 191.4 80.5437 188.686 81.8658 186.195C84.974 180.337 89.6313 176.312 96.1568 174.687C100.268 173.663 104.051 174.561 107.497 176.946ZM66.1841 191.456C65.1732 191.91 64.4988 192.326 63.7669 192.512C62.8468 192.745 61.8829 192.844 60.9316 192.903C59.5597 192.988 58.5658 193.524 57.9823 194.845C57.8164 195.221 57.3221 195.45 56.9778 195.746C56.6619 195.309 56.1429 194.904 56.0695 194.429C55.8862 193.247 56.4624 192.283 57.3274 191.498C59.2998 189.705 63.3987 189.532 66.1841 191.456ZM105.599 185.058C106.244 185.097 106.858 185.63 107.487 185.937L107.409 186.727C106.59 186.897 105.777 187.145 104.949 187.22C103.32 187.37 101.666 187.3 100.055 187.543C96.6364 188.059 94.4366 190.08 93.3931 193.385C93.1854 194.042 92.9302 194.684 92.6327 195.51C91.238 194.612 91.357 193.592 91.5605 192.562C92.2687 188.981 95.6737 185.634 99.5921 185.048C101.553 184.754 103.6 184.937 105.599 185.058ZM60.8785 181.273C62.7733 181.695 64.607 182.426 66.4324 183.113C67.0639 183.351 67.587 183.882 68.0723 184.511C66.4582 185.091 64.9287 184.991 63.3968 184.688C62.1435 184.44 60.9022 184.121 59.6422 183.913C53.2385 182.86 47.4724 186.391 45.3527 192.629C45.143 193.245 44.8831 193.843 44.6016 194.566C43.2096 194.02 43.2665 193.137 43.3043 192.318C43.4164 189.858 44.3675 187.69 46.075 186.001C50.1917 181.93 55.0772 179.981 60.8785 181.273ZM67.3786 173.929C68.2084 174.539 68.9417 175.318 69.5835 176.127C69.8792 176.5 69.8449 177.133 69.9604 177.647C69.7571 177.747 69.5542 177.847 69.3512 177.948C68.7013 177.476 68.0517 177.004 67.4009 176.533C64.0519 174.109 60.3326 172.486 56.1984 172.348C46.5414 172.025 38.53 178.433 37.1747 187.837C36.9619 189.313 36.7157 190.79 36.3688 192.24C36.21 192.906 35.7696 193.504 35.4759 194.094C34.1895 193.757 34.0369 192.959 34.0967 192.105C34.6321 184.431 37.2465 177.842 43.9555 173.397C51.0204 168.717 60.5554 168.91 67.3786 173.929ZM237.532 158.377C246.678 159.561 254.299 167.001 255.714 176.168C256.542 181.537 255.032 186.462 252.434 191.098C252.13 191.64 251.585 192.045 250.999 192.678C250.162 191.439 250.493 190.405 250.758 189.457C251.181 187.938 251.774 186.468 252.252 184.963C255.713 174.047 249.518 163.202 238.389 160.754C235.074 160.024 231.856 160.572 228.724 161.812C227.876 162.147 226.975 162.346 226.024 162.63C225.716 160.998 226.723 160.577 227.528 160.137C230.658 158.427 234.048 157.926 237.532 158.377ZM232.507 167.903C243.589 168.519 248.923 178.56 244.442 187.208C243.708 188.624 243.138 190.24 241.399 191.026C240.358 190.195 240.74 189.365 240.999 188.622C241.391 187.498 241.891 186.411 242.36 185.314C245.555 177.849 240.625 170.539 232.019 170.005C230.972 169.94 229.92 169.963 228.871 169.923C228.754 169.919 228.642 169.764 228.327 169.531C228.629 169.175 228.863 168.629 229.227 168.522C230.293 168.21 231.424 167.843 232.507 167.903ZM230.116 176.42C232.583 176.685 234.532 177.816 235.611 180.136C236.638 182.346 235.964 184.395 234.784 186.3C234.505 186.751 233.795 186.937 233.275 187.25C232.512 186.016 232.915 185.099 233.19 184.171C234.223 180.673 233.101 178.911 229.519 178.378C229.151 178.323 228.78 178.255 228.429 178.136C228.239 178.071 228.09 177.885 227.855 177.702C228.176 176.464 229.144 176.316 230.116 176.42ZM136.584 146.049C140.913 147.009 144.778 148.942 148.098 151.873C149.037 152.701 149.795 153.768 150.497 154.817C150.878 155.387 151.321 156.146 150.207 157.171C149.547 156.537 148.905 155.962 148.31 155.342C143.741 150.576 138.222 147.875 131.564 147.806C124.492 147.733 118.806 151.631 116.264 158.268C114.177 163.717 113.824 169.352 114.679 175.095C114.904 176.607 115.411 178.144 114.558 179.933C114.054 179.561 113.537 179.364 113.348 178.998C113.045 178.413 112.87 177.725 112.8 177.064C112.152 170.893 112.261 164.738 114.185 158.798C116.396 151.977 120.832 147.301 128.091 145.824C130.913 145.25 133.773 145.426 136.584 146.049ZM170.036 170.358C173.356 170.731 176.493 171.501 179.275 173.395C180.19 174.018 181.054 174.793 181.738 175.663C182.184 176.228 182.263 177.09 182.54 177.921C181.01 178.485 180.274 177.648 179.56 176.945C177.584 174.994 175.22 173.836 172.584 173.085C167.385 171.604 162.874 172.571 159.12 176.643C158.232 177.606 157.244 178.476 156.226 179.461C155.54 178.319 155.974 177.585 156.457 176.933C159.85 172.359 164.103 169.692 170.036 170.358ZM187.115 171.781C187.521 172.366 187.537 173.22 187.733 173.942C186.25 174.552 185.604 173.761 184.964 173.037C183.773 171.688 182.636 170.293 181.433 168.956C174.918 161.715 162.001 162.861 156.635 169.405C154.882 171.543 153.302 173.823 151.641 176.037C151.134 176.713 150.967 177.752 149.262 177.809C149.464 176.905 149.489 176.163 149.788 175.556C153.552 167.929 159.404 163.087 168.069 161.943C176.745 160.797 182.523 165.16 187.115 171.781ZM145.28 158.356C145.694 158.694 145.905 159.277 146.194 159.723C145.37 160.712 144.591 160.421 143.844 160.047C142.775 159.512 141.734 158.922 140.676 158.362C133.64 154.634 125.629 157.599 122.764 165.003C121.563 168.107 121.103 171.33 121.303 174.648C121.354 175.51 121.61 176.418 120.531 177.337C120.197 176.653 119.821 176.129 119.675 175.547C118.107 169.317 121.469 160.463 126.735 156.897C132.547 152.962 139.957 153.988 145.28 158.356ZM192.976 169.231C193.139 169.796 193.181 170.418 193.153 171.007C193.138 171.34 192.866 171.661 192.726 171.953C191.482 172.058 191.067 171.172 190.674 170.395C190.065 169.189 189.516 167.944 189.048 166.675C185.819 157.921 175.409 151.895 164.335 155.835C156.41 158.654 150.901 164.11 147.373 171.687C146.771 172.981 146.294 174.334 145.711 175.637C145.542 176.016 145.204 176.318 144.597 177.101C144.452 176.104 144.23 175.551 144.331 175.064C144.556 173.963 144.844 172.853 145.276 171.819C148.856 163.27 154.862 157.09 163.519 153.845C176.233 149.078 189.11 155.832 192.976 169.231ZM140.975 163.419C141.579 163.573 142.113 164.008 142.653 164.299C142.381 165.473 141.621 165.543 140.88 165.553C139.613 165.569 138.345 165.506 137.078 165.513C132.162 165.543 128.572 168.728 127.891 173.61C127.785 174.371 127.548 175.113 127.302 176.157C125.666 175.075 125.848 173.864 125.974 172.806C126.478 168.553 128.838 165.656 132.669 163.935C135.366 162.724 138.163 162.703 140.975 163.419ZM141.237 170.443C139.495 172.369 136.84 172.36 135.193 174.033C134.343 172.447 134.438 172.009 135.583 171.028C137.169 169.669 139.372 169.349 141.237 170.443ZM214.119 145.884C220.247 149.193 223.041 155.021 224.101 161.66C224.533 164.364 224.185 167.199 224.138 169.973C224.129 170.56 224 171.205 223.725 171.712C223.478 172.171 222.955 172.478 222.554 172.853C222.232 172.393 221.671 171.952 221.633 171.47C221.516 169.975 221.513 168.458 221.62 166.96C221.893 163.112 221.106 159.5 219.567 155.994C216.919 149.965 212.112 146.788 205.956 145.426C200.951 144.319 195.991 144.687 191.264 146.658C189.232 147.505 187.429 148.914 185.528 150.077C184.977 150.415 184.445 150.785 183.862 151.168C183.095 150.134 183.643 149.382 184.203 148.877C185.528 147.683 186.834 146.338 188.395 145.56C196.99 141.278 205.682 141.329 214.119 145.884ZM212.453 156.334C215.217 159.414 216.377 163.093 216.286 167.194C216.265 168.118 215.901 169.033 215.627 170.257C214.021 169.317 214.111 168.169 213.963 167.171C213.807 166.123 213.877 165.038 213.685 164.001C212.564 157.936 207.113 153.183 200.904 152.811C196.936 152.573 193.172 153.276 189.695 155.326C189.156 155.644 188.551 155.849 187.496 156.321C187.751 155.341 187.739 154.773 188.012 154.467C188.503 153.916 189.118 153.433 189.763 153.074C196.779 149.168 206.641 149.853 212.453 156.334ZM75.1528 164.121C74.1617 164.121 73.2134 164.129 72.2654 164.119C70.0264 164.097 69.2843 164.937 69.6083 167.146C69.6941 167.732 69.7979 168.316 69.864 168.905C69.8786 169.034 69.7686 169.176 69.7154 169.313C68.0447 169 67.2319 167.696 67.3818 165.567C67.537 163.359 69.2852 161.635 71.4761 161.53C73.4088 161.438 74.8297 162.344 75.1528 164.121ZM70.2054 141.544C73.8079 142.837 76.8161 144.993 79.0422 148.164C79.5893 148.943 80.2013 149.758 79.6674 150.874C78.4294 150.761 77.6897 149.884 76.8259 149.193C75.0771 147.794 73.3988 146.264 71.5029 145.099C66.2115 141.849 61.1726 143.174 57.9308 148.52C55.3062 152.846 54.7069 157.494 55.8159 162.403C56.1301 163.794 56.469 165.181 56.7113 166.586C56.7865 167.022 56.5795 167.508 56.5014 167.971C56.3384 168.025 56.1753 168.079 56.0122 168.132C55.5075 167.461 54.8314 166.86 54.5254 166.106C51.5119 158.682 52.2266 151.656 57.1853 145.309C60.1273 141.544 64.631 139.544 70.2054 141.544ZM197.992 158.003C201.19 158.176 203.775 159.607 205.126 162.62C205.858 164.252 206.551 166.103 204.843 168.132C204.326 167.464 203.875 167.019 203.596 166.483C203.323 165.961 203.227 165.347 203.05 164.774C201.958 161.234 199.043 159.527 195.427 160.309C194.92 160.418 194.416 160.552 193.903 160.619C193.702 160.645 193.483 160.518 192.925 160.366C194.171 158.161 196.072 157.899 197.992 158.003ZM200.949 167.159C199.367 167.381 196.771 166.323 196.124 165.192C195.765 164.565 196.172 163.976 197.021 163.895C198.714 163.735 200.649 165.342 200.949 167.159ZM68.957 151.402C71.0885 151.572 73.0194 152.395 74.739 153.634C75.3207 154.053 75.6515 154.83 76.0968 155.442C75.9872 155.604 75.8777 155.765 75.7685 155.926C75.0117 155.764 74.2347 155.666 73.5027 155.426C72.228 155.009 71.0028 154.428 69.7183 154.053C66.3476 153.07 63.2726 154.961 62.8405 158.506C62.6077 160.416 62.9463 162.401 63.0555 164.351C63.1082 165.284 63.2281 166.215 63.32 167.174C62.0507 167.303 61.773 166.528 61.4847 165.865C60.2413 163 59.9274 160.006 60.7122 156.989C61.6392 153.425 65.159 151.099 68.957 151.402ZM108.2 138.824C112.09 140.264 115.132 142.891 117.61 146.181C118.207 146.975 118.909 147.827 118.41 149.223C116.854 148.939 115.96 148.054 115.033 147.197C113.553 145.827 112.138 144.359 110.527 143.162C104.718 138.849 96.9255 139.026 91.6929 143.533C89.4633 145.454 87.6675 147.74 86.3717 150.411C84.8493 153.549 83.9848 156.854 83.7185 160.333C83.647 161.268 83.4332 162.193 83.2764 163.176C81.7515 162.991 81.4843 162.051 81.5299 161.057C81.6148 159.192 81.6698 157.301 82.0253 155.478C83.0937 150.003 85.7223 145.344 89.9612 141.739C95.4134 137.102 101.604 136.382 108.2 138.824ZM104.781 147.894C107.377 148.632 109.342 150.402 111.095 152.385C111.46 152.798 111.619 153.395 111.971 154.105C110.519 154.599 109.727 153.944 108.93 153.45C107.786 152.741 106.716 151.912 105.569 151.21C102.502 149.332 99.4312 149.538 96.6178 151.778C95.0045 153.063 93.7933 154.67 93.0091 156.575C92.6403 157.472 92.3947 158.419 92.091 159.343C91.8515 160.072 91.9434 161.275 90.7871 161.016C89.7882 160.792 90.0383 159.686 90.0795 158.894C90.3709 153.259 95.0251 148.09 100.6 147.413C101.96 147.248 103.444 147.513 104.781 147.894ZM107.487 156.987C104.141 157.854 101.182 158.621 98.1792 159.4C97.5756 158.81 97.8008 158.183 98.2276 157.578C99.7808 155.375 104.845 154.838 107.487 156.987ZM256.584 137.585C257.051 140.258 256.974 142.966 256.358 145.636C255.389 149.836 253.845 153.802 251.515 157.436L251.453 157.532C250.881 158.432 250.291 159.409 248.843 159.108C248.428 157.98 249.055 157.086 249.463 156.154C250.786 153.134 252.238 150.164 253.407 147.086C254.826 143.351 255.052 139.469 253.974 135.585C251.745 127.551 243.175 122.161 234.98 123.734C232.949 124.124 231.007 124.978 229.025 125.622C228.489 125.796 227.956 125.981 227.154 126.251C227.058 124.602 227.981 124.051 228.818 123.713C230.61 122.99 232.443 122.24 234.331 121.908C244.51 120.12 254.803 127.388 256.584 137.585ZM242.857 134.835C247.164 137.624 248.986 142.346 247.796 147.335C247.227 149.721 245.97 151.755 244.569 153.708C244.217 154.199 243.624 154.518 243.142 154.916C242.974 154.82 242.806 154.725 242.637 154.63C242.799 153.886 242.876 153.111 243.142 152.407C243.511 151.429 243.99 150.488 244.479 149.561C247.527 143.787 245.583 136.678 237.164 134.599C235.203 134.114 233.186 133.858 231.136 134.303C230.467 134.449 229.731 134.28 228.563 134.239C229.646 132.69 230.797 132.493 231.876 132.375C235.802 131.948 239.515 132.672 242.857 134.835ZM235.343 143.383C237.142 145.021 237.556 147.218 236.448 149.676C236.087 150.479 235.642 151.285 235.059 151.939C234.734 152.304 234.048 152.36 233.524 152.555C233.388 152.029 233.069 151.47 233.159 150.983C233.303 150.199 233.722 149.464 234.016 148.704C235.028 146.089 233.882 144.282 231.05 144.113C229.793 144.038 228.528 144.101 227.314 144.101C226.829 143.032 227.491 142.624 228.174 142.269C230.266 141.185 233.49 141.696 235.343 143.383ZM153.848 134.807C158.898 135.67 162.499 140.574 162.468 146.319C162.463 147.485 162.672 148.755 161.463 150.195C161.048 149.422 160.684 148.963 160.549 148.443C160.322 147.567 160.245 146.651 160.097 145.753C159.985 145.081 159.911 144.397 159.736 143.741C158.147 137.768 154.06 135.825 148.443 137.076C145.734 137.678 143.577 139.323 141.635 141.274C141.073 141.839 140.489 142.383 139.924 142.927C139.076 142.259 139.326 141.685 139.664 141.197C143.215 136.063 148.772 133.94 153.848 134.807ZM152.133 144.135C154.164 144.835 155.667 146.85 155.634 149.487C154.639 148.715 153.874 148.285 153.322 147.661C152.036 146.203 150.563 145.489 148.627 145.964C148.437 146.011 148.208 145.893 148.012 145.854C147.603 145.117 148.015 144.682 148.534 144.364C149.682 143.662 150.89 143.706 152.133 144.135ZM170.567 143.842C170.816 144.934 170.934 146.07 170.974 147.19C170.998 147.872 170.757 148.563 170.636 149.251C169.279 149.15 169.046 148.307 168.84 147.526C168.534 146.367 168.315 145.184 168.075 144.008C166.357 135.604 158.588 129.035 150.496 129.52C142.548 129.995 136.602 133.688 133.443 141.331C133.166 142.001 133.132 143.328 132.014 142.938C130.854 142.533 131.454 141.373 131.7 140.571C132.797 136.996 134.969 134.112 137.949 131.988C152.009 121.974 167.449 130.13 170.567 143.842ZM206.79 111.92C214.622 112.96 220.848 116.705 224.067 124.225C227.212 131.572 225.693 138.472 221.239 144.868C220.985 145.232 220.637 145.536 220.298 145.828C220.145 145.959 219.907 145.991 219.41 146.183C219.082 144.533 219.813 143.355 220.4 142.179C221.681 139.612 222.734 136.988 223.06 134.103C223.985 125.916 219.972 118.838 212.444 115.601C205.701 112.701 199.314 113.329 193.375 117.76C192.896 118.118 192.399 118.453 191.895 118.776C191.789 118.842 191.618 118.803 191.282 118.827C191.311 118.416 191.193 117.915 191.39 117.668C192.131 116.742 192.871 115.762 193.8 115.047C197.647 112.084 202.165 111.306 206.79 111.92ZM175.74 135.336C180.687 135.641 183.171 140.587 182.725 144.374C182.693 144.643 182.472 144.89 182.291 145.239C180.93 145.095 180.664 144.196 180.346 143.378C179.994 142.478 179.764 141.526 179.362 140.65C178.184 138.078 176.085 137.118 173.29 137.775C172.663 137.922 172.018 137.997 171.382 138.105C170.901 136.893 171.513 136.232 172.268 135.974C173.373 135.596 174.594 135.265 175.74 135.336ZM182.411 128.204C187.59 131.052 190.609 137.479 188.435 141.463C187.176 140.184 186.846 138.725 186.424 137.32C185.77 135.148 184.848 133.152 183.117 131.602C180.346 129.119 177.202 128.257 173.667 129.49C172.001 130.071 170.437 130.95 168.831 131.702C168.165 132.015 167.491 132.523 166.963 131.514C169.323 127.095 177.294 125.39 182.411 128.204ZM215.18 129.077C216.139 132.61 215.271 135.892 213.774 139.075C213.62 139.402 213.347 139.684 213.087 139.945C212.941 140.092 212.709 140.153 212.458 140.283C211.458 139.812 211.662 138.984 211.863 138.196C212.176 136.965 212.574 135.754 212.87 134.519C213.328 132.601 213.442 130.686 212.756 128.772C210.953 123.744 206.154 121.459 200.805 123.107C199.717 123.443 198.623 123.758 197.441 124.11C197.232 122.7 198.088 122.384 198.758 122.016C204.042 119.108 212.932 120.796 215.18 129.077ZM199.048 136.359C199.098 138.157 199.051 138.31 198.039 139.811C196.843 139.291 196.65 138.341 196.486 137.363C196.188 135.582 195.992 133.774 195.552 132.028C193.537 124.032 186.871 118.541 178.698 118.228C175.356 118.1 172.19 119.021 169.221 120.582C166.341 122.096 163.844 124.113 161.543 126.408C160.927 127.022 160.271 128.412 159.259 127.393C158.406 126.536 159.457 125.562 160.077 124.893C164.218 120.43 169.141 117.393 175.214 116.285C187.173 114.104 198.691 123.614 199.048 136.359ZM127.648 136.145C128.211 136.304 128.685 136.792 129.2 137.129C129.172 137.325 129.143 137.52 129.115 137.715C128.221 137.921 127.337 138.209 126.432 138.309C125.624 138.397 124.794 138.248 123.974 138.257L123.659 138.261C122.05 138.281 120.458 138.34 119.071 139.447C118.772 139.685 118.155 139.513 117.685 139.531C117.7 139.038 117.52 138.368 117.767 138.089C118.396 137.378 119.128 136.617 119.974 136.277C122.482 135.269 125.088 135.423 127.648 136.145ZM206.901 129.21C208.353 130.888 208.75 135.178 207.587 137.087C207.421 137.359 207.029 137.491 206.745 137.686C205.744 137.024 205.925 136.072 205.872 135.212C205.808 134.17 205.865 133.113 205.713 132.086C205.458 130.368 204.84 129.812 203.151 129.48C202.549 129.361 201.952 129.211 200.949 128.984C203.161 127.208 205.399 127.474 206.901 129.21ZM136.253 118.495C138.338 119.925 139.922 121.809 141.174 123.984C141.835 125.132 141.824 125.257 141.465 126.716C140.429 126.934 139.816 126.255 139.231 125.583C138.591 124.848 138.011 124.059 137.386 123.309C133.141 118.216 127.482 116.636 121.228 117.361C111.536 118.484 105.629 124.61 101.707 133.093C101.191 134.21 101.079 135.578 99.3419 136.742C99.3147 135.586 99.1128 134.837 99.3163 134.223C99.929 132.378 100.492 130.467 101.443 128.792C105.532 121.598 111.318 116.507 119.707 115.156C125.576 114.212 131.209 115.034 136.253 118.495ZM126.937 127C128.109 127.485 129.297 127.946 130.421 128.528C131.094 128.876 131.656 129.437 132.269 129.902C132.209 130.077 132.149 130.251 132.09 130.426C131.552 130.46 130.985 130.619 130.482 130.505C128.956 130.157 127.405 129.827 125.951 129.267C120.717 127.251 114.596 128.541 110.831 133.786C110.635 134.06 110.3 134.234 109.828 134.618C108.957 133.143 109.499 132.156 110.143 131.245C111.611 129.17 113.642 127.775 115.996 126.905C119.635 125.56 123.305 125.5 126.937 127Z" fill="#A873FA"/>
<path fill-rule="evenodd" clip-rule="evenodd" d="M70.3667 206.595L70.9258 208.573L71.2627 211.603L70.9258 213.698L72.4967 215.332V217.117L74.6717 218.775V220.955L77.1466 221.908L78.0398 223.881L80.0128 223.433L81.9552 224.611L83.4118 223.881L84.7298 225.051L87.3406 223.881L88.0981 225.051L90.5251 223.881L91.4891 224.611L93.9785 223.433L95.2318 223.881L96.4706 221.453L95.7959 216.47L91.6998 214.184L88.0981 213.698L87.0877 203.757L93.9785 197.021L105.58 186.92L111.286 194.464L119.488 209.422L121.897 219.165L123.046 221.486L125.292 220.955L127.358 221.486L128.528 220.679L130.397 221.486H132.769L133.682 221.908L135.509 220.955L137.297 221.486L139.267 220.955L142.054 221.453L143.439 219.888L145.025 220.679L147.366 220.213H149.209L149.657 219.888L151.457 220.213L152.995 218.775V215.575L151.457 211.603L145.025 208.573L132.37 206.595L129.337 206.293L127.358 199.251L120.315 177.762L118.56 171.217L122.519 164.094L125.89 155.743L126.579 149.283L121.214 131.705L114.843 116.604L107.896 99.9791L104.324 92.6075C87.7112 92.3028 79.0286 92.1504 78.2758 92.1504C77.523 92.1504 75.5552 93.6767 72.3725 96.7292L68.8951 103.339L68.4238 112.343L70.3667 123.088L76.232 139.329L82.9802 155.037L89.4515 166.378L93.1842 171.626L90.1468 178.338L86.2755 188.896L79.3732 198.445L70.3667 206.595Z" fill="white"/>
<path fill-rule="evenodd" clip-rule="evenodd" d="M78.309 91.6663C78.7229 91.7094 78.9597 92.2042 78.69 92.5215C78.6883 92.523 78.687 92.5247 78.6856 92.5265C78.4897 92.7497 78.194 92.8849 77.7708 93.175C81.8193 95.775 86.2278 96.2349 90.8082 96.5121C90.8715 95.6418 90.8898 94.8856 91.001 94.1433C91.0378 93.897 91.2876 93.5235 91.4849 93.4921C91.9697 93.4151 92.0275 93.8403 92.0305 94.2181C92.0367 94.9718 92.0325 95.7252 92.0325 96.4614C93.9137 97.0708 101.042 95.9755 104.693 94.577C104.537 94.2242 104.343 93.8866 104.244 93.5233C104.195 93.346 104.284 92.9708 104.377 92.9473C104.597 92.8918 104.92 92.9153 105.084 93.0497C105.316 93.2386 105.471 93.5426 105.608 93.8223C106.418 95.4747 107.283 97.1049 108.001 98.797C111.129 106.16 114.245 113.529 117.303 120.922C120.326 128.231 123.28 135.571 125.638 143.13C126.483 145.84 126.953 148.622 126.945 151.492C126.937 154.63 125.992 157.517 124.825 160.35C123.299 164.052 121.624 167.688 119.404 171.037C119.053 171.566 119.097 171.979 119.271 172.533C120.917 177.809 122.523 183.097 124.162 188.375C124.562 189.661 125.032 190.926 125.49 192.194C127.015 196.42 128.55 200.644 130.082 204.867C130.204 205.205 130.335 205.539 130.497 205.967C132.205 206.168 133.935 206.392 135.669 206.571C138.975 206.914 142.284 207.234 145.487 208.192C147.305 208.736 149.021 209.492 150.599 210.563C151.764 211.353 152.567 212.401 152.973 213.738C153.507 215.495 154.176 217.238 153.375 219.113C153.117 219.718 152.815 220.228 152.222 220.539C151.252 221.049 150.407 220.866 149.722 220.084C149.18 220.484 148.726 221.035 148.174 221.164C147.649 221.286 147.232 220.708 146.502 220.551C145.254 221.493 144.793 221.757 143.205 220.679C142.629 221.289 142.21 222.307 141.18 222.161C140.366 222.046 139.592 221.645 138.726 221.345C138.296 221.583 137.731 222.13 137.147 222.15C136.569 222.17 135.972 221.658 135.331 221.355C134.858 221.694 134.314 222.254 133.651 222.516C132.854 222.83 132.201 222.291 131.696 221.694C130.067 222.765 129.988 222.753 128.353 221.256C126.753 222.627 126.463 222.637 125.094 221.371C125.011 221.399 124.909 221.405 124.847 221.458C123.613 222.503 122.599 222.38 121.794 221.021C121.517 220.554 121.339 220.034 121.241 219.499C120.856 217.422 120.476 215.342 120.185 213.25C120.014 212.022 119.594 210.938 118.995 209.858C116.288 204.986 113.593 200.106 110.989 195.178C109.539 192.435 107.4 190.276 105.43 187.896C104.141 189.038 102.954 190.126 101.726 191.166C99.9073 192.705 98.1863 194.413 96.1866 195.67C94.359 196.819 93.2103 198.466 91.8938 200.029C90.909 201.197 89.9203 202.365 88.8931 203.495C88.1308 204.335 87.7343 205.445 87.82 206.576C87.9795 208.676 88.184 210.776 88.3756 212.956C89.6237 213.269 90.7928 213.543 91.9502 213.86L92.3824 213.978C93.1031 214.177 93.8237 214.387 94.5096 214.674C95.7485 215.191 96.5102 216.122 96.751 217.494C97.026 219.059 97.1941 220.609 96.7298 222.163C96.64 222.464 96.5599 222.771 96.4356 223.057C95.7908 224.545 95.0046 224.772 93.5466 223.861C92.638 224.484 91.8757 225.848 90.5219 224.652C88.6755 226.069 88.2228 226.069 86.816 224.694C84.9461 225.932 84.5068 225.911 83.3487 224.594C82.6931 224.76 82.044 225.114 81.4729 225.016C80.926 224.922 80.46 224.357 79.9175 223.97C77.8627 224.871 76.9336 224.044 76.4612 222.047C75.6915 221.926 74.6232 222.141 74.2805 221.186C74.0078 220.424 74.0773 219.539 73.9875 218.638C73.3833 218.294 72.5662 217.984 71.9557 217.441C71.2518 216.814 71.6514 215.939 71.8633 215.186C69.8678 213.896 69.7785 213.549 70.8127 211.217C69.6861 209.981 69.9504 209.752 70.6619 208.234C69.56 207.468 69.6678 207.184 69.7429 206.683C69.8238 206.144 70.3687 205.643 70.7848 205.194C71.148 204.803 71.6046 204.495 72.0358 204.172C76.6068 200.74 80.4575 196.643 83.6479 191.888C85.2836 189.45 86.6447 186.957 87.5624 184.127C88.7798 180.373 90.3958 176.745 91.9311 173.101C92.1895 172.489 92.5403 171.722 92.5403 171.722C92.5403 171.722 91.9492 170.614 91.6203 170.154C85.25 161.247 80.5905 151.432 76.4775 141.329C73.8486 134.872 71.394 128.358 69.5963 121.611C68.504 117.511 67.7059 113.36 67.8535 109.099C67.9203 107.175 68.1272 105.233 68.5117 103.348C69.5231 98.3913 72.7093 95.0176 76.8236 92.3846C77.2392 92.1188 77.6645 91.8428 78.1241 91.6824C78.1807 91.663 78.243 91.6594 78.309 91.6663ZM74.3166 203.757C73.1667 204.683 72.1604 205.494 71.0919 206.355C70.855 206.546 70.8733 206.915 71.129 207.08C72.1293 207.723 72.0381 207.86 71.3772 208.931C71.308 209.043 71.2518 209.163 71.1982 209.29C71.0736 209.586 71.1878 209.93 71.4612 210.097C71.5903 210.175 71.7132 210.248 71.84 210.313C72.4168 210.611 72.4769 211.017 72.1179 211.521C71.9876 211.703 71.8299 211.867 71.7053 212.053C70.9801 213.136 71.1037 213.514 72.3439 214.038C73.2668 214.427 73.3259 214.548 73.0142 215.417C72.5103 216.822 72.5493 216.899 74.0229 217.375C74.1505 217.416 74.2845 217.438 74.4133 217.476C75.0734 217.672 75.3696 218.105 75.2596 218.795C75.2242 219.017 75.1701 219.236 75.1404 219.459C74.9703 220.738 75.0818 220.871 76.338 220.91C76.607 220.918 76.9134 220.842 77.1356 220.947C77.369 221.057 77.5942 221.31 77.6899 221.552C77.7807 221.782 77.6563 222.087 77.7006 222.347C77.8472 223.202 78.3886 223.448 79.1654 223.034C79.3227 222.95 79.4574 222.824 79.6132 222.736C80.3539 222.315 80.5352 222.38 80.9908 223.109C81.1221 223.319 81.2781 223.513 81.448 223.72C81.6294 223.941 81.9625 223.96 82.1677 223.761C82.4394 223.497 82.6619 223.281 82.8948 223.076C83.3398 222.685 83.7127 222.795 83.9846 223.292C84.2348 223.75 84.3154 224.506 84.9471 224.43C85.3971 224.376 85.7922 223.852 86.2088 223.535C86.2795 223.481 86.3297 223.401 86.3982 223.344C86.9611 222.876 87.3508 222.935 87.6902 223.554C87.7753 223.71 87.7882 223.905 87.8737 224.06C88.2268 224.698 88.6068 224.781 89.1623 224.31C89.3982 224.111 89.5829 223.846 89.7727 223.597C90.6628 222.428 90.8838 222.449 91.5271 223.765L91.5279 223.767C91.632 223.979 91.9252 224.002 92.0696 223.815C92.3072 223.508 92.5623 223.133 92.8118 222.867C93.4754 222.158 93.6601 222.161 94.297 222.85C94.3914 222.953 94.4947 223.046 94.6117 223.149C94.7815 223.299 95.0488 223.267 95.1732 223.077C95.7589 222.186 95.8939 221.079 95.8971 220.027C95.8971 220.027 95.4404 220.171 95.274 220.194C93.2754 220.472 91.2831 220.805 89.278 221.025C86.5492 221.323 83.8148 221.32 81.0909 220.902C79.4854 220.657 78.1953 219.967 77.5386 218.384C76.6792 216.314 75.6559 214.292 75.0175 212.156C74.458 210.284 74.2748 208.288 74.0446 206.333C73.9559 205.58 74.1962 204.789 74.3166 203.757ZM152.173 215.356C142.06 215.429 132.03 215.991 121.896 216.911C122.16 218.238 122.11 219.613 123.035 220.724C123.274 221.012 123.716 221.01 123.946 220.715C124.089 220.531 124.22 220.363 124.35 220.193C125.029 219.309 125.365 219.328 125.884 220.272C125.978 220.444 126.078 220.612 126.206 220.824C126.387 221.126 126.808 221.171 127.047 220.913C127.334 220.604 127.571 220.349 127.813 220.098C128.554 219.328 128.787 219.369 129.289 220.268C129.377 220.426 129.479 220.576 129.592 220.73C129.89 221.136 130.493 221.147 130.811 220.756C130.994 220.531 131.163 220.329 131.342 220.136C131.834 219.608 132.268 219.707 132.535 220.389C132.6 220.555 132.596 220.748 132.666 220.911C132.948 221.573 133.387 221.674 133.899 221.155C134.212 220.838 134.431 220.432 134.719 220.088C135.266 219.438 135.565 219.453 136.094 220.104C136.275 220.326 136.462 220.542 136.671 220.783C136.897 221.044 137.305 221.039 137.525 220.772C137.78 220.462 138.003 220.192 138.232 219.93C138.592 219.519 138.974 219.432 139.349 219.918C139.485 220.096 139.587 220.306 139.745 220.46C140.675 221.369 141.415 221.286 142.14 220.202C142.29 219.978 142.411 219.733 142.573 219.518C143.126 218.781 143.475 218.792 143.984 219.548C144.722 220.642 144.936 220.653 145.699 219.636C145.779 219.529 145.836 219.401 145.924 219.302C146.402 218.766 146.757 218.804 147.178 219.425C147.246 219.525 147.314 219.625 147.381 219.725C147.589 220.033 148.029 220.101 148.299 219.847C148.609 219.555 148.744 219.129 148.997 218.815C149.609 218.053 149.999 218.077 150.457 218.962C150.646 219.328 150.785 219.829 151.262 219.694C151.642 219.586 152.092 219.263 152.25 218.917C152.786 217.741 152.931 216.524 152.173 215.356ZM91.0005 215.061C89.304 216.246 88.3526 217.861 88.0974 220.138C90.7498 219.764 93.2163 219.417 95.7952 219.054C95.7814 217.779 95.7458 216.661 94.7363 216.096C93.7792 215.561 92.678 215.277 91.627 214.922C91.4507 214.863 91.1659 214.945 91.0005 215.061ZM80.1084 202.696C78.6242 203.845 77.2558 204.936 75.8512 205.978C75.2395 206.432 75.0568 206.936 75.1518 207.7C75.6129 211.408 76.8674 214.839 78.6092 218.119C79.2846 219.391 80.3517 219.81 81.7753 219.816C82.1499 216.368 84.5041 214.602 87.3399 213.227C87.0902 210.659 86.8444 208.129 86.5992 205.609C84.1935 205.135 82.028 204.324 80.1084 202.696ZM130.907 207.672C129.415 208.155 127.906 208.582 126.4 209.02C125.162 209.38 123.918 209.72 122.519 210.114C123.066 212.07 123.556 213.825 124.046 215.574C129.994 215.199 135.799 214.833 141.685 214.462C141.766 212.322 141.608 210.336 141.031 208.34C140.785 208.289 140.573 208.229 140.357 208.204C138.04 207.939 135.719 207.704 133.407 207.406C132.536 207.293 131.732 207.404 130.907 207.672ZM146.436 209.612C146.58 211.282 146.71 212.776 146.852 214.416C148.558 214.239 150.232 214.486 151.981 214.148C150.989 211.393 148.678 210.664 146.436 209.612ZM122.986 188.895C119.039 190.03 114.777 190.757 110.943 192.332C113.274 196.809 115.549 201.182 117.862 205.624C121.287 204.841 124.583 204.087 128.031 203.297C126.412 198.74 124.84 194.303 123.252 189.871C123.139 189.553 122.986 188.895 122.986 188.895ZM86.591 189.446C85.0668 191.654 83.5183 193.897 81.9546 196.162C83.6756 198.915 85.9793 200.488 88.991 201.612C90.4791 199.747 92.0688 198.034 93.4272 196.331C91.1209 194.008 88.9131 191.785 86.591 189.446ZM95.3977 177.761C93.0966 182.055 90.9377 186.082 88.8038 190.063C90.534 192.272 92.5121 193.947 94.6522 195.634C96.9978 193.7 99.3065 191.796 101.658 189.857C99.5775 185.836 97.557 181.933 95.3977 177.761ZM75.4705 94.7619C72.4996 96.8233 70.252 100.269 69.6198 103.215C68.9824 106.184 68.7463 109.169 68.9864 112.196C69.2363 115.346 69.8611 118.423 70.673 121.47C72.5882 128.654 75.2853 135.558 78.0867 142.428C82.6918 153.721 88.2829 164.468 95.7898 174.12C99.9842 179.513 104.377 184.751 108.695 190.047C109.332 190.827 109.966 191.452 109.966 191.452C110.371 191.427 110.914 191.198 111.836 190.806C111.955 190.756 112.049 190.649 112.155 190.568C109.468 187.01 106.744 183.497 104.123 179.909C100.332 174.717 96.5303 169.519 93.4939 163.831C88.3264 154.149 83.5562 144.278 79.5338 134.056C77.3443 128.492 75.2371 122.899 73.6965 117.112C72.4561 112.454 71.6459 107.729 71.2585 102.912C71.1547 101.62 71.4182 100.626 72.0551 99.6591C73.116 98.0487 74.2578 96.4913 75.4705 94.7619ZM85.5234 97.1242C82.2423 101.531 78.4443 104.677 72.4841 103.324C72.4841 103.686 72.4586 104.041 72.488 104.392C72.9249 109.612 73.9979 114.709 75.5558 119.699C78.8715 130.32 83.126 140.568 87.9864 150.566C90.8559 156.468 93.6462 162.416 97.183 167.964C101.078 174.075 105.367 179.907 109.764 185.66C110.719 186.91 111.759 188.096 112.706 189.352C112.965 189.696 113.258 190.107 113.556 190.214C113.556 190.214 114.199 190.12 114.656 189.959C115.836 189.541 117.084 189.319 118.3 189.002C119.768 188.618 121.234 188.222 122.863 187.788C122.412 186.156 122.029 184.729 121.624 183.308C118.644 172.86 114.516 162.854 110.003 152.994C107.253 146.986 104.324 141.05 101.826 134.938C98.5638 126.953 95.6474 118.826 92.5851 110.759C92.3734 110.202 92.1756 109.64 91.9462 108.997C91.8436 108.709 92.0073 108.393 92.3017 108.312C93.6272 107.951 94.9081 107.805 96.175 107.612C96.311 107.591 96.5953 107.841 96.6203 107.996C96.6462 108.156 96.482 108.429 96.3248 108.518C96.059 108.669 95.7381 108.737 95.4323 108.8C94.7333 108.946 94.0297 109.067 93.237 109.215C93.3777 109.671 93.4786 110.053 93.6128 110.423C94.0883 111.733 94.5756 113.038 95.057 114.345C98.1158 122.654 101.088 130.996 104.755 139.068C109.383 149.256 114.351 159.295 118.277 169.794C118.329 169.933 118.396 170.295 118.519 170.435C118.658 170.272 118.845 169.92 118.913 169.808C121.534 165.485 123.666 160.934 125.186 156.11C126.012 153.489 126.032 150.8 125.648 148.095C125.119 144.372 123.876 140.851 122.581 137.353C118.304 125.799 113.51 114.455 108.598 103.161C108.514 102.967 108.382 102.794 108.287 102.635C103.481 103.492 99.9058 102.112 98.1512 97.3792C96.1278 97.5309 94.1748 97.6775 92.1465 97.8297C92.1885 98.5455 92.2293 99.1666 92.2605 99.7881C92.3329 101.225 92.414 102.662 92.4619 104.1C92.4748 104.48 92.5631 105.024 92.0154 105.078C91.4391 105.135 91.4723 104.604 91.4456 104.207C91.3877 103.355 91.3427 102.502 91.2905 101.649C91.2114 100.355 91.1306 99.0606 91.0458 97.6876C89.119 97.4911 87.3006 97.3057 85.5234 97.1242ZM92.9893 173.267C91.7207 176.39 90.4912 179.327 89.3383 182.293C88.7056 183.922 88.2075 185.603 87.6376 187.256C87.5283 187.573 87.3758 188.159 87.3758 188.159C87.4148 188.452 87.7624 188.81 88.0871 189.075C88.0871 189.075 88.1803 188.938 88.1976 188.906C90.3533 184.975 92.5097 181.044 94.6488 177.104C94.7645 176.891 94.8458 176.543 94.7524 176.351C94.2576 175.338 93.8307 174.273 92.9893 173.267ZM77.4538 94.5495C75.7409 95.8698 72.875 99.8688 72.3718 101.751C73.6335 102.624 74.7213 102.796 76.3937 102.505C79.8543 101.901 82.2011 99.7455 84.1785 97.0497C81.9236 96.2114 79.721 95.3926 77.4538 94.5495ZM105.471 95.5869C104.323 95.8933 103.337 96.1609 102.35 96.4186C101.376 96.6725 100.4 96.9166 99.4326 97.1631C100.244 100.683 104.367 102.743 107.895 101.38C107.091 99.4589 106.289 97.5421 105.471 95.5869ZM95.2104 95.1022C95.2574 95.7212 94.8148 96.1238 94.0621 96.1464C93.237 96.171 92.649 95.7164 92.6185 95.0299C92.5933 94.4665 93.1042 94.0456 93.8395 94.0238C94.5206 94.0035 95.1653 94.5106 95.2104 95.1022Z" fill="#1D242F"/>
<path fill-rule="evenodd" clip-rule="evenodd" d="M90.1538 13.7012C95.5607 13.7012 99.2756 15.8767 101.298 20.2277L101.073 22.9077V23.7903L103.238 29.6863L102.66 35.6756L101.674 36.9666C101.631 37.0886 101.586 37.2109 101.54 37.3332C101.117 38.4564 100.491 39.3968 99.6618 40.1544L100.603 41.8796L101.073 43.4861L101.851 45.0059L102.66 46.9434C103.226 47.4241 103.113 48.3164 102.323 49.6203C101.844 49.8513 101.04 49.4015 99.909 48.2709L98.1602 46.6812L98.9525 45.6164L96.9107 43.7637L96.3907 41.9328C94.6232 42.4612 92.4524 42.6263 89.8785 42.4282L89.663 42.4109L90.0389 46.0326C90.6142 46.6921 90.9688 47.5945 90.9688 48.5896C90.9688 50.61 89.5073 52.2479 87.7043 52.2479C85.9265 52.2479 84.4807 50.6554 84.4407 48.6739L84.0424 48.6466L83.9486 47.5483C83.6866 44.5447 83.4301 42.1406 83.1791 40.3362L82.6428 40.2852L76.9766 38.827H76.3495L75.6015 41.3165V42.7446L74.6608 44.5973L74.9887 45.6164L73.8987 46.9434L71.7862 46.6812L71.4272 45.2426L71.7862 42.2366L71.9898 39.6269L72.4371 38.827L71.7862 36.1403L72.4371 34.4083C69.6836 29.4468 69.4666 25.6133 71.7862 22.9077C75.2655 18.8493 77.7488 19.852 77.7488 19.852L77.9585 19.5319C79.6748 16.9418 82.3678 13.7012 90.1538 13.7012Z" fill="white"/>
<path fill-rule="evenodd" clip-rule="evenodd" d="M102.284 48.8098C102.932 49.8466 103.901 50.1767 104.974 50.323C105.453 50.3885 105.502 51.0964 105.039 51.2408C104.963 51.2644 104.882 51.2801 104.799 51.2917C103.794 51.4321 101.919 50.3725 101.61 49.4525C101.542 49.2506 101.623 48.9449 101.737 48.7513C101.782 48.6758 102.216 48.7018 102.284 48.8098ZM97.1569 15.2757C98.4242 15.9619 99.4923 16.8581 100.343 17.9645C101.521 19.4956 101.822 21.1843 101.411 22.9894C101.394 23.0614 101.294 23.3279 101.219 23.5209C102.713 25.5267 103.588 27.7528 103.684 30.2319C103.752 31.9967 103.71 33.7456 103.228 35.477C102.628 37.6299 101.406 39.1599 99.7767 40.2658C99.8296 40.2865 99.9249 40.3342 100.115 40.4567C100.943 40.9782 101.349 42.366 101.171 43.0958C101.846 43.776 102.789 45.0507 102.529 46.1046C103.386 46.2261 104.734 46.4614 105.82 46.6153C106.302 46.6834 106.364 47.3109 105.897 47.439C105.682 47.498 105.431 47.4772 105.185 47.4645C104.647 47.4366 103.771 47.3992 102.985 47.3577C103.625 48.1929 104.702 48.5308 105.419 48.8809C105.663 48.9993 105.947 49.0644 106.157 49.2178C106.435 49.4217 106.298 49.8737 105.944 49.8858C105.591 49.8982 105.174 49.865 104.885 49.703C104.1 49.2623 103.357 48.7556 102.619 48.2489C102.257 48.0012 101.943 47.6959 101.528 47.35C101.605 46.2914 101.394 44.9046 100.631 43.8114C100.344 44.1853 99.9455 44.4995 99.9455 44.4995C99.4822 44.8353 99.4433 44.5105 99.333 44.2724C99.2859 44.1703 99.6117 43.4758 100.18 43.0021C100.18 43.0021 100.615 42.3063 98.9006 40.9035C98.8883 40.877 98.8734 40.8502 98.8579 40.8233C98.2098 41.1752 97.5121 41.4748 96.7757 41.7321C97.06 42.4415 97.298 43.1618 97.7064 43.7874C98.1949 44.5356 99.018 45.3512 100.001 45.714C100.111 46.1408 99.6595 46.3145 99.0198 46.462C99.5004 47.5014 100.166 47.938 100.854 48.3102C101.233 48.5155 101.188 49.049 100.769 49.1724C100.596 49.2237 100.109 49.0071 99.9599 48.9114C98.8068 48.1723 97.9778 48.0021 97.8608 46.5598C97.8463 46.3843 97.8291 45.8943 98.1228 45.553C98.1228 45.553 96.9062 44.85 96.7186 44.6479C96.039 43.8885 96.0496 43.5338 95.9399 42.5061C95.9216 42.3344 95.9085 42.1612 95.9378 42.0022C95.6259 42.095 95.3081 42.1813 94.9851 42.2618C93.6696 42.5897 92.2226 42.4766 90.7255 42.5724C90.7509 42.8487 90.7698 43.2216 90.8216 43.5902C91.036 45.1165 91.2613 46.6416 91.482 48.1673C91.4915 48.2352 91.498 48.3033 91.5011 48.3717C91.5182 48.754 91.5213 49.1881 90.9723 49.1801C90.7628 49.1769 90.4314 48.7499 90.3788 48.4803C90.1646 47.3819 89.957 45.8536 89.8402 44.7427C89.627 43.8293 89.7415 43.7529 89.3857 43.4113C89.2622 43.2928 88.9263 42.9311 88.832 42.792C88.1569 41.7937 87.9573 41.6846 87.4386 40.6472C87.4262 40.5959 87.4223 40.5427 87.4244 40.4883C87.4402 40.0982 87.8301 39.82 88.2497 39.8943C88.3786 39.917 88.4926 39.9543 88.5739 40.0237C90.7667 41.8961 93.2905 41.7948 95.8345 40.9524C99.4972 39.7395 101.974 37.5435 102.417 33.7929C102.761 30.8765 102.651 28.0237 101.059 25.3962C100.523 24.5107 99.9328 23.7643 99.0469 22.9439C98.9263 22.8009 98.7907 22.4744 98.6071 22.2931C98.5751 22.2615 98.3341 22.0678 98.3236 22.0404C98.2901 21.9525 98.2585 21.9355 98.2527 21.9231C97.4033 22.8362 96.2914 23.4051 94.9145 23.5918C94.5801 23.6372 94.2333 23.5036 93.9574 23.6174C93.9574 23.6174 93.4772 24.0919 93.2408 24.3253C92.6333 24.9247 91.7662 25.2569 90.874 25.2746C90.5912 25.2803 90.291 25.1004 90.0657 25.1834C90.0657 25.1834 89.6895 25.6121 89.5044 25.8407C88.4835 27.1012 87.1219 27.7507 85.3592 27.5029C84.5612 28.1839 84.0937 29.3038 82.9111 29.5444C82.8197 29.6356 82.7056 29.7133 82.6023 29.7435C81.9849 29.923 80.1432 30.2887 79.5559 30.52C79.0548 30.7173 78.5866 31.0632 78.2111 31.4339C77.0243 32.6066 77.3012 33.9694 78.9352 34.5166C79.9733 34.8644 81.1267 34.9538 82.2392 35.0799C83.5286 35.2258 83.7513 35.3264 83.8756 36.4255C84.2767 39.9742 84.6496 43.5256 85.0186 47.0772C85.0673 47.5454 85.0683 48.0249 85.0124 48.4912C84.994 48.6452 84.7348 48.8756 84.5698 48.8874C84.393 48.8999 84.0972 48.732 84.0325 48.5792C83.9183 48.3095 83.9362 47.992 83.9048 47.6942C83.6588 45.3547 83.4136 43.0152 83.167 40.6759C81.1689 40.4281 78.4896 40.2474 76.7496 39.2114C76.7496 39.2114 76.3992 40.8966 75.9554 41.6217C76.1597 42.0217 76.2021 42.7819 75.8884 43.1217C75.4267 43.818 75.1052 44.1342 75.1052 44.1342C75.1779 44.5323 75.6921 46.1219 74.5262 47.2524C74.0319 47.4352 74.0296 48.2486 74.019 48.9666C74.0117 49.4567 73.7935 49.9711 73.5459 50.4177C73.5015 50.498 73.3848 50.5444 73.2441 50.5803C72.9557 50.6535 72.6687 50.4661 72.6459 50.194C72.6407 50.1325 72.6405 50.0713 72.6487 50.0112C72.7227 49.4664 72.8704 48.9298 72.9392 48.385C72.956 48.2507 73.0413 47.7535 72.9167 47.5409C72.4131 48.1332 71.7192 49.0171 71.2485 49.5319C71.0408 49.7589 70.7943 49.9939 70.5093 50.1122C70.4617 50.132 70.4092 50.1414 70.3531 50.1443C69.9939 50.1619 69.7019 49.8385 69.8004 49.5227C69.8146 49.4772 69.8351 49.4361 69.8651 49.4017C70.3185 48.8781 71.3695 47.9324 71.7127 47.2344C71.0827 47.6304 69.8726 48.0247 69.2068 48.1181C68.6816 48.1919 68.4713 48.1424 68.3376 47.8064C68.2333 47.5445 68.402 47.2557 68.7012 47.1997C69.7065 47.0124 70.7615 46.9032 71.5317 46.0761C71.143 45.4147 70.9296 44.8534 70.911 44.2958C70.8955 43.8395 71.0662 43.3971 71.337 43.0132C71.3858 42.9436 71.4207 42.8825 71.4197 42.8489C71.4197 42.8489 71.2128 42.302 71.1756 42.1533C70.9283 41.172 71.203 40.3013 71.7234 39.442C71.8007 39.3143 72.0446 39.0512 72.0839 38.8948C72.0839 38.8948 71.967 38.5802 71.9261 38.3927C71.6776 37.2528 71.3737 36.3476 71.8682 34.8196C71.8682 34.8196 71.4663 34.0985 71.2376 33.6948C69.2868 30.2507 69.2423 26.7793 71.1414 23.3278C71.9543 21.8507 73.1176 20.5895 74.8453 19.9267C75.6109 19.6332 76.4556 19.5114 77.3957 19.2795C79.143 16.0497 82.3379 14.4081 86.1631 13.6455C90.0429 12.8721 93.7302 13.4202 97.1569 15.2757ZM80.2159 17.4385C79.4829 18.0631 78.9224 18.9071 78.468 19.7346C78.1711 20.2754 77.9311 20.5607 77.2403 20.4913C75.6965 20.3358 74.5166 21.0229 73.5175 21.9885C71.4608 23.9764 70.708 26.3903 70.8422 29.0759C70.9782 31.7934 72.4967 33.9402 74.2631 35.9859C74.4928 36.2518 74.7253 36.5166 74.9369 36.7945C74.9759 36.8457 74.9211 36.9569 74.9004 37.1095C73.8209 37.5859 73.3465 36.2363 72.6816 35.9515C72.3844 36.8177 72.7889 37.9753 73.4865 39.2794C73.5444 39.3879 73.6261 39.4929 73.6936 39.6022C73.9036 39.9417 73.4831 40.3176 73.1107 40.1267L72.529 39.5706C71.7663 41.1017 72.2554 42.2432 72.6984 43.2274C72.574 43.4171 72.1876 43.3225 72.0169 43.2376C72.0169 43.2376 71.8201 44.0842 72.0991 44.7064C72.3477 45.2604 72.4827 45.7913 72.4408 45.9574C72.6389 46.2165 73.5457 46.4039 73.8004 46.6186C74.0966 46.4664 74.3736 45.9353 74.2303 45.6113C74.1902 45.5209 72.5443 44.4407 72.979 44.2569C73.5622 44.1021 74.3575 44.5955 74.3575 44.5955C74.5396 43.3777 74.6617 43.0212 75.1239 42.1106C73.886 42.2303 73.541 42.2156 73.7107 41.7609C73.922 41.4585 74.3332 41.4601 74.5531 41.3185C74.7786 41.1734 75.2664 40.5739 75.4011 40.357C76.0094 39.3773 76.026 38.2001 75.6905 37.0227C75.5749 36.6171 76.0767 36.2547 76.4556 36.4918C76.6159 36.5923 76.7145 36.7662 76.7354 36.98C76.9082 38.7402 78.4023 38.9467 79.7989 39.2817C80.5247 39.4559 82.2528 39.433 82.98 39.6022C83.0078 39.6086 83.0329 39.6152 83.0556 39.6221L82.7551 36.7851C82.7377 36.6216 82.6642 36.4633 82.6023 36.2537C81.4872 36.1085 80.4982 36.0351 79.538 35.8421C77.9827 35.5298 76.6312 34.862 76.3707 33.2831C76.1276 31.8096 77.0346 30.9287 78.317 29.9553C79.5327 29.0327 81.0032 29.0154 81.7623 28.788C81.7709 28.7439 81.8104 28.71 81.8973 28.6886C82.724 28.4843 83.6204 28.1108 83.8632 27.6301C84.2755 26.8142 84.8092 26.0502 85.2316 25.2378C85.556 24.6135 85.8285 23.9664 86.1176 23.3083C86.2176 23.0804 86.5626 23.0364 86.7129 23.2398C86.9927 23.6181 86.7843 24.177 85.9177 26.502C86.3143 26.4789 86.6711 26.5278 86.9687 26.4278C88.0382 26.0686 88.8051 25.3654 89.1815 24.3948C89.5242 23.5112 89.7222 22.5806 89.9837 21.6705C90.0458 21.4546 90.1072 21.2382 90.1748 21.0008C90.2477 20.7434 90.601 20.6438 90.8088 20.8297C91.2807 21.251 91.0205 21.7991 90.9689 22.2493C90.8975 22.8742 90.6827 23.4857 90.5288 24.1092C91.8954 24.2475 92.8076 23.7746 93.2277 22.5739C93.5543 21.64 93.6974 20.6514 93.9099 19.685C93.9994 19.2769 93.9349 18.6704 94.5726 18.7395C95.2262 18.8104 95.0127 19.4105 94.9573 19.8042C94.8322 20.6904 94.6466 21.5693 94.4596 22.5943C95.5341 22.5056 96.4309 22.281 97.1064 21.5645C97.5038 21.1432 97.8341 20.6684 98.2366 20.2515C98.342 20.1423 98.4776 20.0577 98.6179 19.9787C98.827 19.8607 99.115 19.9378 99.1898 20.1522C99.3084 20.4927 99.1014 20.7663 98.9242 21.0472C98.8988 21.0875 98.8731 21.1274 98.847 21.1668C99.2472 21.45 99.8833 22.0238 100.344 22.4881C101.011 20.0835 99.6965 18.3239 97.7347 16.8734C92.6616 13.1224 84.7792 13.5495 80.2159 17.4385Z" fill="#1D242F"/>
<path fill-rule="evenodd" clip-rule="evenodd" d="M101.449 50.6287C103.869 50.9184 106.285 51.2517 108.695 51.6147C110.791 51.9304 112.317 53.0911 113.286 54.9721C115.073 58.4448 116.872 61.9119 118.614 65.4068C120.471 69.132 122.367 72.8429 124.064 76.642C125.552 79.9751 126.695 83.4377 126.993 87.1361C127.271 90.5982 126.89 93.9282 125.218 97.0063C123.611 99.9633 121.319 102.133 117.874 102.718C115.815 103.069 113.755 102.866 111.797 102.155C109.626 101.368 107.431 100.591 105.376 99.5521C100.752 97.2135 96.2034 94.7237 91.633 92.2776C90.3581 91.5956 90.3815 91.5762 89.3644 92.565C86.0974 95.7409 82.7052 98.7667 78.7616 101.091C76.5079 102.42 74.2089 103.669 71.6088 104.209C69.6086 104.624 67.6986 104.402 65.8846 103.421C64.0275 102.416 62.5933 100.976 61.4657 99.2044C59.635 96.3284 58.6413 93.149 58.0997 89.8122C57.1105 83.7161 57.0815 77.5742 57.3831 71.4313C57.5431 68.1722 57.9539 64.9287 58.8366 61.7679C58.8595 61.6852 58.8781 61.6011 58.8972 61.5174C59.8105 57.508 62.1607 54.9799 66.2112 53.9154C69.9048 52.9448 73.6311 52.2119 77.401 51.6636C77.79 51.6071 78.9499 51.4826 78.9377 51.3812C78.8851 50.9414 78.8038 50.964 78.8677 50.4838C78.9098 50.165 79.4968 49.8199 79.8609 49.6822C81.1784 49.184 84.0943 48.3523 83.8735 48.3523C85.0922 49.1041 86.5598 49.1356 87.7878 48.9479C89.1675 48.7368 90.3742 48.7368 91.8196 47.3396C93.2488 47.1701 94.6354 47.4783 95.9977 47.8676C96.4916 48.0087 96.7319 48.4225 96.7708 48.9479C96.8019 49.365 96.8978 49.75 96.7685 50.269C98.3384 50.3935 99.9742 50.4521 101.449 50.6287Z" fill="white"/>
<path fill-rule="evenodd" clip-rule="evenodd" d="M95.9978 47.8676C96.4915 48.0087 96.7318 48.4225 96.7709 48.9479C96.8018 49.365 96.8979 49.75 96.7683 50.269C98.3382 50.3935 99.9741 50.4521 101.45 50.6287C103.869 50.9184 106.285 51.2517 108.695 51.6147C110.791 51.9304 112.318 53.0911 113.286 54.9721C115.073 58.4448 116.872 61.9119 118.614 65.4068C120.471 69.132 122.367 72.8429 124.064 76.642C125.552 79.9751 126.695 83.4377 126.993 87.1361C127.271 90.5982 126.89 93.9282 125.218 97.0063C123.611 99.9633 121.318 102.133 117.874 102.718C115.814 103.069 113.755 102.866 111.797 102.155C109.626 101.368 107.431 100.591 105.377 99.5521C100.752 97.2135 96.2033 94.7237 91.6328 92.2776C90.3582 91.5956 90.3813 91.5762 89.3643 92.565C86.0972 95.7409 82.7053 98.7667 78.7615 101.091C76.5077 102.42 74.2087 103.669 71.6086 104.209C69.6084 104.624 67.6985 104.402 65.8844 103.421C64.0273 102.416 62.5931 100.976 61.4656 99.2044C59.635 96.3284 58.6411 93.149 58.0998 89.8122C57.1103 83.7161 57.0815 77.5742 57.3832 71.4313C57.5432 68.1722 57.9537 64.9287 58.8364 61.7679C58.8595 61.6852 58.8779 61.6011 58.897 61.5174C59.8104 57.508 62.1605 54.9799 66.2111 53.9154C69.9048 52.9448 73.6312 52.2119 77.4008 51.6636C77.7899 51.6071 78.9498 51.4826 78.9375 51.3812C78.8849 50.9414 78.8036 50.964 78.8675 50.4838C78.9099 50.165 79.4967 49.8199 79.8608 49.6822C81.1783 49.184 82.5168 48.7292 83.8734 48.3523C84.6228 48.1441 84.8598 48.3322 85.0922 49.1041C85.3269 49.884 85.4709 50.6908 85.6874 51.4769C86.4507 54.2491 87.2321 57.0164 87.997 59.7882C88.1549 60.3608 88.4377 60.9275 88.6071 60.9105C89.4434 60.8266 91.5226 60.5919 91.471 60.3667C91.5558 60.2816 91.4717 59.3256 91.4269 58.8723C91.2921 57.5056 91.0404 56.1486 90.9445 54.7799C90.8038 52.7685 90.7374 50.7509 90.682 48.7347C90.6558 47.7825 90.9398 47.444 91.8195 47.3396C93.2489 47.1701 94.6352 47.4783 95.9978 47.8676ZM78.3347 52.3587C77.9541 52.3587 77.6193 52.4244 77.4195 52.4586C75.0172 52.8701 71.9076 53.4905 69.5304 54.0182C67.6158 54.4436 67.0976 54.6589 65.231 55.2736C63.2897 55.9132 61.5728 57.2102 60.8178 59.1068C60.4221 60.1011 60.0639 61.1185 59.7946 62.1532C58.9257 65.4903 58.3121 68.8503 58.1153 72.289C57.7706 78.3158 57.9994 84.3072 59.0139 90.2565C59.5606 93.4624 60.6189 96.5055 62.5418 99.1609C65.0161 102.577 68.938 104.507 73.9295 102.396C76.5468 101.289 78.5998 99.9978 80.9052 98.3404C87.8592 93.3411 93.5053 87.3131 98.1794 80.1873C98.8373 79.1838 98.7895 78.7372 97.865 77.9826C96.404 76.79 94.9055 75.6438 93.4115 74.4928C93.3036 74.4098 93.186 74.3392 93.0618 74.2718C92.7058 74.0792 92.258 74.1388 91.9785 74.4325C91.9232 74.4907 91.8746 74.5516 91.8362 74.6185C91.2631 75.6154 90.3203 76.0042 89.257 76.2464C88.3401 76.4556 87.426 76.6775 86.5242 76.945C83.5539 77.8261 80.5795 78.6975 77.6339 79.657C76.6658 79.9723 75.7793 80.5343 74.8391 80.9453L74.833 80.9481C74.468 81.1043 74.1762 80.6146 74.4854 80.3648C75.296 79.7104 76.265 79.3396 77.095 78.8386C77.053 78.6282 76.7943 78.0249 76.7259 77.8285C75.4424 74.1421 74.2719 70.8501 72.9433 67.1803C72.3158 65.447 71.5556 63.7617 70.8576 62.0539C70.8404 62.0123 70.822 61.9705 70.8043 61.9284C70.6248 61.507 71.1269 61.2972 71.4488 61.6224C71.9027 62.0806 72.6374 62.9671 72.7574 63.1356C73.6385 61.0459 74.0888 59.6957 74.9937 57.9114C75.916 56.093 76.7825 54.5604 78.3347 52.3587ZM99.6164 51.3155L99.2441 51.9848C99.4637 52.1817 99.906 52.4085 100.164 52.5598C101.54 53.3671 102.748 54.363 103.847 55.5353C104.775 56.5248 105.907 57.6032 106.916 58.4926C106.939 58.4413 106.932 58.1305 106.964 58.0598C107.15 57.6503 107.758 57.775 107.769 58.2248C107.78 58.6173 107.887 59.229 107.795 60.3116C107.705 61.3775 107.745 62.4559 107.749 63.5287C107.752 64.6023 107.768 65.6763 107.806 66.749C107.843 67.8066 107.915 68.8628 107.974 69.9731C108.555 69.9731 108.833 69.8459 109.253 69.8386C109.724 69.8301 110.02 69.737 110.489 69.7566C111.793 69.9388 112.54 70.5672 111.746 71.9335C111.71 71.9945 111.649 72.1256 111.649 72.1256C112.494 72.6619 112.849 73.5675 112.255 74.5278C112.197 74.6215 112.108 74.8218 112.097 74.8087L112.096 74.8032L112.106 74.8771C112.283 76.2677 111.425 76.7454 110.375 77.0717C109.859 77.2322 109.342 77.3908 108.7 77.5886C108.962 78.9043 109.161 80.1273 109.473 81.3201C109.55 81.6139 109.963 81.8868 110.284 82.0343C110.982 82.3557 111.731 82.5651 112.435 82.8733C112.699 82.9882 112.898 83.2507 113.126 83.4462C113.035 83.6213 112.84 83.7144 112.647 83.6747C112.409 83.6256 112.171 83.5766 111.943 83.4979C110.81 83.107 109.697 82.6587 108.555 82.2971C106.598 81.6774 104.632 81.0864 102.656 80.5329C102.28 80.4275 101.604 80.0673 101.42 80.2807C98.4862 83.6972 96.7815 87.095 93.2096 89.927C92.9115 90.1631 92.3801 90.6573 91.9316 91.0213C92.3393 91.3195 92.5931 91.5462 92.8823 91.7102L94.2763 92.5009C98.7697 95.0468 103.284 97.5576 108.041 99.5818C109.964 100.4 111.95 101.132 113.973 101.631C117.142 102.412 119.939 101.442 122.417 99.1307C123.725 97.9105 124.297 96.6064 124.988 94.9617C126.263 91.9321 126.094 88.8774 125.595 85.7093C124.916 81.3993 123.488 77.7698 121.61 73.8521C120.368 71.2602 119.049 68.7047 117.752 66.1392C116.001 62.6752 114.223 59.2247 112.484 55.7541C111.556 53.9017 109.764 52.6437 107.713 52.3899C105.168 52.0748 102.927 51.613 100.382 51.2918C100.131 51.2599 99.8631 51.2635 99.6164 51.3155ZM103.313 77.3113C103.057 77.3118 102.719 77.5205 102.399 77.6741C101.324 78.373 101.469 78.373 100.474 79.0324C103.146 79.7697 105.777 80.5657 108.631 81.3532C108.344 79.9659 108.114 78.8565 107.863 77.6392C106.224 77.6392 105.414 77.7618 103.313 77.3113ZM101.485 68.5993C99.1564 68.6113 95.8074 71.1846 94.3027 74.088C96.0204 75.4722 97.9077 77.0074 99.6317 78.3966C101.504 76.9526 103.472 76.2547 105.701 75.7785C107.328 75.4311 108.915 74.888 110.505 74.3867C110.821 74.287 111.113 74.1102 111.416 73.9289C111.708 73.754 111.778 73.3567 111.559 73.0951C111.15 72.6047 110.38 72.6678 109.644 72.9379C108.197 73.469 106.754 74.0085 105.309 74.5424C104.961 74.6708 104.603 74.8908 104.252 74.4479C104.377 73.935 104.846 73.9069 105.222 73.759C106.895 73.102 108.573 72.4589 110.237 71.7801C110.484 71.6794 110.766 71.5892 110.97 71.3939C111.204 71.1697 111.105 70.7823 110.794 70.6923C110.295 70.5483 109.801 70.632 109.328 70.7313C106.944 71.2321 104.571 71.787 102.188 72.293C101.311 72.4792 100.421 72.6203 99.5304 72.7049C99.2983 72.7267 98.9592 72.5125 98.822 72.305C98.7377 72.1779 98.879 71.7969 99.0306 71.6345C99.5853 71.0402 100.202 70.5039 100.765 69.9166C101.058 69.611 101.317 69.2716 101.62 68.8902C101.712 68.7746 101.633 68.5986 101.485 68.5993ZM79.1416 52.9632C78.7077 53.4919 78.4023 53.8377 78.1259 54.2054C75.9601 57.0885 74.5059 60.6723 73.3496 64.0607C73.4575 64.4719 74.5542 66.5736 74.8516 67.5036C76.43 70.9305 77.5441 73.3066 79.0874 76.7498C79.2589 77.1327 79.4592 77.503 79.6758 77.9384C82.0728 77.2837 83.4808 76.9405 85.7079 76.3452C85.9872 76.2708 86.4976 76.1483 86.5313 76.0583C86.5313 76.0583 86.6065 75.5015 86.6486 75.1486C87.0309 71.955 87.267 68.9436 87.6362 65.7486C87.7491 64.772 87.7833 63.6064 87.7878 62.6197C87.7776 62.2073 87.7793 61.7963 87.7793 61.7963C87.6169 61.7223 87.4105 61.5302 86.9715 61.2787C86.1132 60.9339 85.2724 60.4584 84.5481 59.8825C82.6487 58.3725 81.1743 56.4835 79.9951 54.3609C79.7583 53.9343 79.4873 53.5269 79.1416 52.9632ZM111.195 75.078C109.427 75.5937 107.215 76.2046 105.519 76.699C105.544 76.808 105.668 76.9058 106.108 76.9091C107.597 76.9004 109.06 76.6905 110.473 76.1802C110.897 76.0273 111.695 75.9406 111.195 75.078ZM91.6472 61.3345C90.5783 61.5448 89.6254 61.7325 88.5949 61.9353C88.5949 62.9435 88.6759 63.9697 88.5793 64.9786C88.3019 67.8799 87.9497 70.7736 87.6336 73.6711C87.5618 74.3311 87.5175 74.9941 87.4527 75.7468C89.0982 75.5294 90.5269 75.3604 91.3922 73.9081C91.6847 73.4175 92.1423 73.1577 92.7946 73.2005C93.1391 73.223 93.7629 73.435 93.7629 73.435C93.9622 73.0223 94.6942 72.0451 94.8674 71.8496C94.8674 71.8496 94.5999 71.2869 94.4526 70.9201C93.3592 68.198 92.4216 65.8944 91.9851 62.999C91.9653 62.8679 91.9427 62.7353 91.9147 62.6055C91.7928 62.0412 91.7427 61.7006 91.6472 61.3345ZM84.3854 72.8469C84.987 72.849 85.6923 73.4602 85.7342 74.0153C85.7839 74.6754 85.2457 75.2164 84.5251 75.2306C83.8695 75.2433 83.3766 74.7754 83.3591 74.1233C83.3422 73.4822 83.8545 72.845 84.3854 72.8469ZM84.4334 73.615C84.4087 73.6188 84.384 73.6299 84.3618 73.6414C84.1749 73.7393 84.1191 73.7747 84.0998 74.0751C84.0863 74.2843 84.473 74.4076 84.5708 74.414C84.5975 74.4159 84.6328 74.4102 84.6724 74.3977C84.9759 74.3032 85.0178 73.8924 84.7565 73.7112C84.6509 73.6381 84.5338 73.5998 84.4334 73.615ZM98.8225 52.6418C98.4457 53.1677 98.2232 53.4754 98.0036 53.7852C96.8383 55.4294 95.6877 57.0845 94.5021 58.7138C94.0497 59.3353 93.4591 59.8607 93.0441 60.5033C92.8123 60.8621 92.6127 60.959 92.6869 61.0483C93.0564 63.3115 93.6267 66.0251 94.4425 68.3573C94.7274 69.1717 95.1148 69.9436 95.5708 70.6755C95.5972 70.7178 95.6243 70.7627 95.6523 70.8104C96.1969 70.3148 96.576 70.0868 97.1072 69.7223C98.0444 68.7945 99.1576 68.1743 100.413 67.8179C100.817 67.7033 101.257 67.6341 101.673 67.6598C102.404 67.7054 102.792 68.2509 102.487 68.9063C102.224 69.4711 101.77 69.9549 101.36 70.4396C101.043 70.8154 100.565 71.384 100.085 71.8536C100.467 71.9352 100.73 71.7773 100.868 71.7451C102.701 71.3176 104.53 70.8754 106.359 70.4316C106.619 70.3682 106.86 70.4037 106.94 70.2331L106.94 69.8969C106.94 69.7294 106.94 69.539 106.939 69.4262C106.919 66.5476 106.925 63.6686 106.869 60.7907C106.861 60.3591 106.688 59.8281 106.4 59.522C104.848 57.8646 103.277 56.219 101.625 54.6622C100.83 53.9123 99.8433 53.3659 98.8225 52.6418ZM85.3044 65.2995C86.0597 65.2895 86.694 65.8473 86.6766 66.5062C86.6603 67.123 86.1247 67.5775 85.4682 67.5312C84.8381 67.4868 84.3406 66.9871 84.3241 66.3819C84.3072 65.7596 84.7167 65.3073 85.3044 65.2995ZM85.3819 65.9307C85.1944 65.9607 85.0963 66.0969 85.0806 66.1377C84.9938 66.3639 85.003 66.6563 85.4677 66.8C85.509 66.8127 85.5544 66.8078 85.5964 66.7985C85.873 66.739 86.0696 66.574 86.0345 66.3942C86.0074 66.2564 85.7611 65.8697 85.3819 65.9307ZM80.6914 50.2271C79.4114 50.7301 79.5686 50.8272 79.8867 51.8692C80.7659 54.7473 82.4989 57.0443 84.7135 59.0111C84.9515 59.2224 85.2484 59.3668 85.5178 59.5421C85.9447 59.7277 86.0588 59.7359 86.1125 59.6683C85.156 58.203 83.6743 56.4596 82.8356 54.9293C82.0108 53.4243 81.3989 51.8021 80.6914 50.2271ZM83.5513 49.2875C82.9367 49.4723 82.2118 49.6729 81.6958 49.8282C82.5337 52.859 85.3123 57.2898 86.9552 59.1999C85.8253 55.6957 84.8846 52.9999 83.5513 49.2875ZM95.0125 48.5265C94.3991 51.6986 93.5204 55.895 92.9018 59.0929C92.9925 59.1316 93.3446 58.6878 93.4733 58.3846C93.6724 58.0884 93.9047 57.7313 94.0593 57.4132C94.9425 55.5965 95.5764 53.6954 95.867 51.6908C95.9709 50.974 96.0458 50.2494 96.0741 49.5259C96.0967 48.9493 95.8234 48.5477 95.0125 48.5265ZM93.2395 48.2658C93.038 48.2658 92.8639 48.4092 92.8248 48.6073C92.5655 49.9213 92.3457 51.1994 92.0325 52.4539C91.6597 53.9469 91.6946 55.4315 91.9213 56.9259C91.9592 57.1745 92.1675 58.1466 92.2269 58.6972C92.4001 58.0865 92.6553 56.8826 92.7291 56.513C92.9968 55.1704 93.2812 53.801 93.5348 52.444C93.666 51.7423 93.79 51.039 93.9012 50.3337C93.9556 49.9887 94.0072 49.6429 94.0551 49.2969C94.0966 48.9972 94.1986 48.6685 94.2108 48.4029L93.2395 48.2658Z" fill="#1D242F"/>
<path fill-rule="evenodd" clip-rule="evenodd" d="M92.7515 33.9534C93.6245 33.9741 94.4963 33.964 95.3672 33.9871C96.0175 34.0046 96.6672 34.0404 97.3163 34.1214C97.4104 34.1332 97.5046 34.1459 97.5983 34.1606C98.4194 34.2873 98.2304 34.5179 98.1643 35.1714C98.034 36.462 96.1315 38.2616 94.8301 38.3133C92.9799 38.3869 91.7871 36.4787 92.2334 34.5278L92.2528 34.4406C92.3341 34.0668 92.3465 33.9439 92.7515 33.9534ZM93.1133 36.3366C93.5867 37.3543 95.1022 37.7195 95.9264 36.9807C95.8884 35.9482 93.7479 35.503 93.1133 36.3366ZM98.5787 30.9567C98.5643 31.9316 97.6747 33.1485 96.7488 33.3605C96.6554 33.3817 96.5525 33.361 96.4456 33.3232C96.1616 33.2231 96.0351 32.8955 96.181 32.6321C96.2058 32.5875 96.2341 32.5462 96.2678 32.5101C96.6115 32.1419 97.0871 31.9954 97.366 31.5901C97.464 31.4476 97.5584 31.1311 97.527 30.8995C97.5024 30.7173 97.198 30.5486 97.0155 30.5727C96.8166 30.5986 96.6219 30.6307 96.4793 30.7346C96.1055 31.0062 95.8352 31.4171 95.4784 31.7185C95.3502 31.8266 95.0802 31.9109 94.924 31.7959C94.7557 31.6725 94.654 31.2507 94.7354 31.1658C95.3457 30.5295 95.8912 29.9666 96.6429 29.5578C97.5265 29.077 98.5952 29.8403 98.5787 30.9567ZM91.7042 29.5448C92.3643 29.595 92.8339 30.2687 92.8269 31.1542C92.8202 31.9891 92.4847 32.3968 91.8234 32.3731C91.0317 32.3443 90.4708 31.7794 90.4668 31.0059C90.4629 30.1475 91.0174 29.4926 91.7042 29.5448ZM98.2875 27.0244C98.9255 27.0207 99.5599 27.691 99.5493 28.3869C99.5401 28.9897 99.2331 29.3593 98.5821 29.3839C97.9152 29.409 97.237 28.7883 97.1911 28.1303C97.1533 27.5831 97.7037 27.0279 98.2875 27.0244Z" fill="#1D242F"/>
<path fill-rule="evenodd" clip-rule="evenodd" d="M235.543 90.9356L241.917 111.124L247.58 129.214L254.351 151.666L257.958 164.391L259.01 168.669L258.556 169.892L248.218 174.178L248.393 187.886V198.127V204.464L257.572 219.676L258.213 221.625L256.348 227.136L252.715 226.952L244.368 221.382L239.404 214.377V210.407L239.046 202.23L236.638 175.483L233.78 174.952L229.315 149.036L223.76 117.779L222.15 109.264L221.34 109.736V116.727L222.15 175.244L216.309 176.163L215.666 191.114L214.642 204.877L214.87 211.169L214.353 220.821L211.497 221.265L197.694 221.833L182.681 220.047L181.124 213.98L182.319 211.97L187.752 209.457L197.491 207.136L205.61 205.127L205.25 192.755L205.052 173.188L199.13 168.868L200.552 151.666L202.799 124.79L205.61 90.9356C212.89 90.791 218.404 90.7188 222.15 90.7188C225.897 90.7188 230.361 90.791 235.543 90.9356Z" fill="white"/>
<path fill-rule="evenodd" clip-rule="evenodd" d="M200.353 207.154C200.894 207.97 201.392 208.721 201.989 209.622C200.846 209.765 199.943 209.877 198.961 210C198.542 209.27 198.143 208.575 197.687 207.782C198.702 207.543 199.509 207.353 200.353 207.154ZM193.074 208.95C194.373 208.623 195.432 208.357 196.544 208.077C196.961 208.823 197.314 209.455 197.725 210.191C196.432 210.405 195.346 210.585 194.25 210.768C193.863 210.17 193.53 209.654 193.074 208.95ZM187.218 210.387C188.922 209.978 190.435 209.614 191.98 209.242C192.344 209.836 192.66 210.353 193.058 211.001C191.404 211.293 189.924 211.554 188.441 211.816C188.05 211.36 187.707 210.959 187.218 210.387ZM201.484 206.901C202.674 206.576 203.651 206.268 204.648 206.051C205.567 205.85 206.269 206.355 206.419 207.222C206.609 208.324 206.094 209.157 205.127 209.282C204.512 209.36 203.894 209.409 203.231 209.476C202.668 208.646 202.124 207.844 201.484 206.901ZM252.256 212.695C250.341 212.475 249.2 213.228 248.582 214.817C247.303 213.748 246.9 212.457 247.32 210.942C247.685 209.626 248.68 209.207 249.916 209.788C251.082 210.336 251.672 211.349 252.256 212.695ZM251.47 218.637C250.992 218.065 250.489 217.552 250.092 216.968C249.437 216.004 249.612 214.629 250.397 214.049C251.105 213.525 252.837 213.617 253.389 214.342C254.235 215.455 254.895 216.708 255.675 217.87C253.922 216.82 252.724 217.678 251.47 218.637ZM206.112 218.039C207.348 215.174 211.155 213.245 214.365 213.711C214.33 214.305 214.316 214.916 214.254 215.522C214.126 216.776 213.93 217.086 212.659 217.276C210.55 217.591 208.422 217.777 206.112 218.039ZM256.311 225.403C255.868 226.806 255.813 226.61 254.59 226.508C252.333 226.318 250.335 225.473 248.554 224.123C245.049 221.466 242.201 218.246 240.127 214.344C239.66 213.465 239.755 212.69 239.938 211.56C240.263 212.05 240.461 212.319 240.628 212.605C241.347 213.841 242.018 215.107 242.78 216.316C244.792 219.508 247.434 222.088 250.648 224.063C252.363 225.118 254.318 225.573 256.311 225.403ZM246.027 211.491C245.422 210.639 245.031 209.998 244.55 209.433C243.778 208.528 243.54 207.442 243.481 206.329C243.428 205.319 243.677 204.332 244.709 203.842C245.669 203.387 246.496 203.909 247.146 204.498C248.339 205.577 249.235 206.904 250.018 208.517C247.742 208.141 246.583 209.196 246.027 211.491ZM256.653 224.326C254.318 224.326 252.794 224.118 251.775 223.692C251.557 223.601 251.123 222.87 251.11 222.612C251.024 221.013 251.682 219.76 253.008 218.857C254.223 218.031 255.234 218.734 256.225 219.324C257.36 219.999 257.764 221.093 257.409 222.28C257.045 223.496 256.929 223.661 256.653 224.326ZM185.685 210.53C187.075 210.768 189.171 214.984 188.752 217.469C187.027 217.32 185.357 216.932 183.703 216.402C181.819 215.799 181.372 213.363 182.912 212.125C183.666 211.518 184.445 210.894 185.685 210.53ZM249.87 222.256C249.721 222.234 249.646 222.076 249.583 222.03C245.404 219.032 242.504 214.495 240.425 209.921C240.425 209.921 240.598 209.233 240.962 208.798C241.603 208.177 241.939 208.023 242.173 208.177C242.792 208.585 243.606 209.793 243.997 210.564C244.096 210.76 244.265 210.921 244.398 211.101C246.501 213.937 248.604 216.774 250.679 219.574C250.424 220.398 250.142 221.379 249.87 222.256ZM182.729 217.394C193.142 219.862 203.49 219.556 213.932 218.256C213.932 218.536 213.967 218.888 213.926 219.23C213.762 220.599 213.704 220.707 212.281 220.812C209.603 221.007 206.921 221.214 204.238 221.265C199.04 221.364 193.851 221.113 188.689 220.462C186.877 220.233 185.076 219.929 183.223 219.652C183.043 218.827 182.886 218.109 182.729 217.394ZM221.559 170.771C221.559 171.721 221.521 172.604 221.568 173.484C221.653 175.085 221.675 175.084 220.08 175.314C219.992 175.327 219.903 175.341 219.813 175.347C216.071 175.605 212.391 175.342 208.808 174.13C205.897 173.146 203.181 171.816 200.828 169.819C200.498 169.539 200.049 169.183 200.008 168.823C199.896 167.834 199.932 166.821 200.127 165.602C203.305 167.937 206.672 169.304 210.302 170.077C213.958 170.856 217.647 171.038 221.559 170.771ZM258.516 169.203C257.52 169.808 256.682 170.414 255.765 170.859C249.628 173.834 243.09 174.801 236.335 174.634C235.63 174.616 234.926 174.563 234.189 174.525C234.022 173.677 233.863 172.938 233.733 172.193C233.6 171.426 233.495 170.653 233.361 169.771C241.982 170.512 249.813 168.42 257.372 164.402C257.738 165.938 258.106 167.481 258.516 169.203ZM214.429 212.387C208.872 212.999 207.539 213.775 204.636 218.064C199.829 218.214 194.967 218.241 190.204 217.638C190.138 215.968 189.729 214.433 188.96 212.775C189.876 212.613 190.956 212.452 191.837 212.318C196.13 211.665 200.426 211.021 204.722 210.381C205.03 210.335 205.358 210.302 205.66 210.356C207.891 210.758 210.117 210.594 212.345 210.342C213.033 210.264 213.721 210.183 214.429 210.101V212.387ZM239.27 197.344C238.638 190.74 238.001 184.088 237.351 177.305C240.914 178.137 244.325 177.626 247.764 177.346V198.47C247.461 198.502 247.461 198.502 247.343 198.486C244.689 198.117 242.037 197.738 239.27 197.344ZM215.909 178.311C215.516 186.215 215.052 193.973 214.312 201.759C211.48 201.466 208.833 201.192 206.097 200.908C205.941 192.984 205.786 185.165 205.632 177.335C207.438 177.685 209.044 178.123 210.676 178.277C212.351 178.434 214.052 178.311 215.909 178.311ZM253.87 164.981C248.999 167.135 243.925 168.555 238.583 168.846C237.156 168.924 235.716 168.809 234.285 168.736C233.754 168.709 233.25 168.749 233.161 168.587C233.161 168.587 233.022 168.055 232.923 167.483C232.338 164.136 231.777 160.786 231.208 157.437C229.531 147.564 227.897 137.684 226.164 127.822C224.95 120.91 223.605 114.021 222.312 107.123C222.148 106.245 221.922 105.377 221.784 104.495C221.74 104.219 221.58 103.569 221.58 103.569C221.58 103.569 221.151 103.426 220.827 103.35C220.088 103.177 219.351 102.958 218.6 102.887C217.663 102.798 217.356 103.2 217.578 104.089C217.665 104.433 217.814 104.763 217.948 105.095C218.184 105.674 218.433 106.249 218.672 106.828C219.351 108.473 220.269 110.067 220.639 111.779C221.001 113.456 220.824 115.252 220.85 116.995C220.952 123.704 221.009 130.414 221.142 137.122C221.28 144.052 221.534 150.98 221.645 157.911C221.703 161.532 221.563 165.156 221.508 168.779C221.505 168.998 221.461 169.216 221.438 169.414C216.921 171.239 205.349 168.438 200.123 164.222C200.293 161.718 200.441 159.132 200.65 156.551C201.037 151.782 201.461 147.016 201.865 142.249C202.175 138.595 202.504 134.943 202.779 131.287C203.038 127.854 203.166 124.409 203.477 120.982C204.005 115.149 204.638 109.326 205.213 103.497C205.546 100.116 206.027 95.063 206.344 91.6799C206.36 91.5022 206.411 91.298 206.346 91.1501C206.268 90.9724 206.092 90.7324 205.94 90.7185C205.774 90.7049 205.514 90.8781 205.427 91.0403C205.308 91.264 205.296 91.5517 205.268 91.8153C204.474 99.465 203.445 108.778 202.741 116.436C202.296 121.288 202.129 126.165 201.741 131.023C201.126 138.735 200.391 146.437 199.783 154.15C199.411 158.874 199.199 163.611 198.87 168.339C198.811 169.196 199.046 169.809 199.732 170.291C201.012 171.19 202.256 172.145 203.573 172.986C203.856 173.167 204.449 173.606 204.449 173.606C204.449 173.606 204.481 174.089 204.483 174.462C204.492 176.475 204.553 178.487 204.594 180.499C204.753 188.235 204.912 195.971 205.07 203.707C205.077 204.014 205.071 204.322 205.071 204.732C204.362 204.961 203.701 205.219 203.018 205.388C198.02 206.632 193.02 207.867 188.014 209.075C187.407 209.221 186.792 209.331 186.182 209.422C185.577 209.512 185.256 209.573 184.527 209.837C183.724 210.127 183.038 210.678 182.358 211.196C180.955 212.262 180.551 213.777 181.171 215.583C181.579 216.77 181.841 217.998 182.011 219.241C182.143 220.211 182.596 220.625 183.479 220.773C191.287 222.075 199.139 222.631 207.052 222.182C208.931 222.076 210.813 222.004 212.687 221.844C214.372 221.701 214.728 221.436 214.898 219.736C215.189 216.812 215.399 213.877 215.533 210.942C215.619 209.045 215.617 207.142 215.453 205.25C215.189 202.202 215.68 199.203 215.866 196.185C216.25 189.981 216.646 183.778 217.04 177.575C217.059 177.269 217.104 176.964 217.152 176.521C217.887 176.489 218.595 176.503 219.289 176.418C220.173 176.309 221.053 176.146 221.923 175.955C222.534 175.82 222.73 175.402 222.727 174.758C222.698 168.273 222.761 161.787 222.676 155.304C222.593 149.043 222.366 142.785 222.202 136.526C222.189 136.034 222.165 135.543 222.157 135.051C222.033 127.717 221.91 120.383 221.79 113.048C221.78 112.469 221.788 111.889 222.002 111.262C222.11 111.723 222.24 112.18 222.323 112.645C224.361 124.042 226.431 135.434 228.416 146.84C230.01 156.001 231.5 165.179 233.036 174.35C233.241 175.574 233.24 175.572 234.45 175.623C234.98 175.646 235.508 175.68 236.097 175.713C236.254 177.219 236.415 178.636 236.549 180.056C237.073 185.621 237.614 191.185 238.099 196.754C238.44 200.672 238.735 204.596 238.975 208.522C239.042 209.627 238.877 210.752 238.756 211.862C238.625 213.058 238.814 214.157 239.397 215.223C241.648 219.345 244.719 222.732 248.555 225.427C250.348 226.686 252.36 227.397 254.558 227.578C256.282 227.719 256.804 227.407 257.374 225.789C257.715 224.82 258.081 223.857 258.361 222.871C258.77 221.428 258.53 220.161 257.65 218.839C255.47 215.564 253.452 212.179 251.411 208.813C250.625 207.517 249.935 206.161 249.241 204.812C249.059 204.46 248.963 204.071 248.96 203.676C248.894 195.624 248.835 187.572 248.808 179.521C248.803 177.87 248.93 176.219 249.001 174.458C249.442 174.329 249.897 174.184 250.359 174.064C253.242 173.315 255.95 172.189 258.439 170.526C259.422 169.87 259.663 169.118 259.36 168.021C257.137 159.965 255.136 151.841 252.69 143.853C248.083 128.809 243.222 113.842 238.469 98.8423C237.713 96.4569 236.97 94.0675 236.222 91.6799C236.169 91.5091 236.161 91.3049 236.059 91.1729C236.047 91.1577 236.035 91.1427 236.022 91.1282C235.761 90.8282 235.25 90.8845 235.107 91.2549C235.089 91.3009 235.081 91.346 235.084 91.3902C235.126 91.9174 235.287 92.4416 235.45 92.9512C237.468 99.2981 239.52 105.635 241.516 111.988C245.577 124.909 249.639 137.828 253.634 150.769C254.872 154.779 255.894 158.856 257.087 163.161C255.957 163.807 254.96 164.499 253.87 164.981Z" fill="#1D242F"/>
<path fill-rule="evenodd" clip-rule="evenodd" d="M227.983 10.542L222.916 13.7391L219.566 17.3139L210.523 13.4718L206.281 13.2059L205.842 14.6954L207.927 17.3139L214.791 21.5382C210.878 24.7203 209.293 28.5431 210.034 33.0064C210.712 37.0872 214.592 39.7309 221.674 40.9375L221.89 40.9736L221.145 48.2419C221.058 48.5762 221.011 48.9307 221.011 49.2978C221.011 51.3182 222.437 52.956 224.197 52.956C225.956 52.956 227.383 51.3182 227.383 49.2978C227.383 48.9865 227.349 48.6844 227.285 48.3959L227.293 48.396L227.389 47.5181C228.149 40.6252 228.776 36.8659 229.268 36.2402C234.976 36.2402 234.197 32.6297 233.884 31.0693C233.846 30.8813 233.793 30.7215 233.726 30.5837L240.687 33.3632L244.405 34.6153L244.896 33.3632L238.31 27.0916L236.624 25.2536L238.31 22.9055L240.184 17.3139L239.236 15.1992L237.109 14.6954H235.386L230.916 10.542H227.983Z" fill="white"/>
<path fill-rule="evenodd" clip-rule="evenodd" d="M226.403 10.8616C224.128 12.0235 222.244 13.7224 220.395 15.4545C219.992 15.8314 219.603 16.2227 219.179 16.6353C217.833 16.0287 216.552 15.4432 215.264 14.8725C213.263 13.9858 211.235 13.1701 209.057 12.8326C208.342 12.7217 207.604 12.6591 206.883 12.703C205.711 12.7743 205.219 13.5364 205.566 14.6627C205.891 15.7156 206.514 16.6188 207.367 17.2777C208.889 18.4543 210.479 19.5449 212.063 20.6381C212.624 21.025 213.252 21.3146 213.739 21.5876L213.747 21.6381C212.945 22.6594 210.617 26.0908 210.049 27.1887C208.661 29.8743 208.871 32.4762 210.323 35.0372C211.38 36.902 212.87 38.3667 214.67 39.5111C216.496 40.6725 218.487 41.4403 220.603 41.8857C220.847 41.9369 221.089 42.0011 221.437 42.0846C221.212 43.3478 220.996 44.5602 220.782 45.7729C220.692 46.2789 220.603 46.7851 220.519 47.2923C220.451 47.7098 220.278 48.2713 220.829 48.3818C221.341 48.5057 221.448 47.7988 221.559 47.1805C221.786 45.9197 221.688 46.0237 221.94 45.0162C222.33 43.4571 222.292 43.4542 222.963 43.0334C223.118 42.965 223.582 42.6173 223.909 42.3992C224.061 42.298 224.2 42.179 224.315 42.0374C224.412 41.9185 224.441 41.842 224.429 41.6303C224.394 41.0259 223.755 41.0993 223.308 41.0386C222.756 40.964 222.196 40.9534 221.644 40.8798C217.645 40.3471 214.279 38.6435 211.864 35.3513C210.014 32.8293 209.635 30.1363 211.22 27.2822C211.618 26.5647 213.206 24.2266 214.015 23.0717L214.01 23.0656C214.291 23.4227 214.866 23.7172 215.323 23.7333C216.379 23.7701 217.024 24.2867 217.659 25.0601C218.742 26.3809 220.276 26.9447 221.913 27.2513C222.208 27.3065 222.504 27.3738 222.802 27.3873C224.367 27.4583 225.635 27.9367 226.091 29.6386C226.154 29.8739 226.348 30.0823 226.507 30.2822C227.288 31.257 228.08 31.3358 229.031 30.5109C229.351 30.2324 229.476 29.8792 229.856 29.469L229.968 29.5177C229.986 29.5421 230.007 29.563 230.029 29.5794C230.332 29.8004 230.721 29.904 231.06 30.081C231.662 30.3949 232.321 30.6482 232.839 31.0667C234.54 32.4434 234.196 34.58 232.154 35.3758C231.608 35.5882 230.994 35.6497 230.404 35.7236C230.026 35.7709 229.634 35.7248 229.25 35.703C227.983 35.6304 227.89 35.7188 227.832 37.0034C227.781 38.138 227.74 39.2735 227.647 40.4051C227.451 42.7942 227.231 45.1815 227.005 47.568C226.984 47.7934 226.927 48.0225 226.98 48.2493C227.077 48.6669 227.687 48.679 227.831 48.275C227.936 47.9829 228.025 47.7127 228.049 47.437C228.314 44.3845 228.544 41.329 228.784 38.2745C228.829 38.2772 228.877 38.2758 228.927 38.2697C229.935 38.1477 231.002 38.041 231.907 37.6285C234.056 36.65 235.649 35.0788 236.275 32.7002C236.306 32.5825 236.306 32.5824 236.355 32.2839C237.874 32.8907 239.488 33.5511 241.002 34.1277C241.8 34.4316 242.622 34.6762 243.442 34.9195C243.767 35.0158 244.113 35.076 244.452 35.0854C245.684 35.1192 246.13 34.4231 245.526 33.3745C245.25 32.8964 244.915 32.425 244.514 32.0505C242.606 30.2676 240.668 28.5164 238.734 26.7618C238.419 26.4767 238.068 26.2322 237.637 25.8921C237.864 25.3419 238.104 24.8052 238.308 24.2551C238.978 22.4493 239.682 20.6537 240.272 18.822C240.488 18.1496 240.513 17.3806 240.467 16.666C240.369 15.1182 239.389 14.0658 237.888 14.2655C235.972 14.5199 234.879 13.7689 233.747 12.3077C231.784 9.77361 229.298 9.38371 226.403 10.8616ZM207.453 13.7391C207.895 13.7436 208.325 13.7566 208.74 13.8439C209.952 14.0995 211.196 14.3445 212.326 14.8284C216.34 16.547 220.352 18.2787 224.286 20.1692C228.148 22.0247 231.913 24.0797 235.721 26.0472C235.872 26.1255 236.033 26.1895 236.176 26.2818C239.037 28.1343 241.604 30.3311 243.858 32.8895C244.027 33.0821 244.177 33.2922 244.354 33.5421C244.492 33.7378 244.337 34.0073 244.098 33.9823C243.965 33.9683 243.854 33.9511 243.749 33.9166C242.57 33.5293 241.375 33.1763 240.226 32.7099C231.363 29.1121 222.733 25.0075 214.238 20.6195C212.569 19.7571 210.994 18.6974 209.438 17.6365C208.668 17.1118 208.001 16.4149 207.365 15.7255C207.106 15.446 206.866 15.1375 206.719 14.75C206.533 14.257 206.925 13.7337 207.453 13.7391ZM232.603 12.5565C233.099 13.0856 233.566 13.6523 233.98 14.2478C234.546 15.063 235.247 15.4776 236.265 15.3278C236.771 15.2532 237.291 15.24 237.803 15.252C238.752 15.2742 239.253 15.6877 239.413 16.5796C239.472 16.9126 239.488 17.2683 239.443 17.603C239.16 19.699 238.249 21.5728 237.471 23.5459C232.258 20.8234 227.192 18.1784 221.941 15.4363C223.815 13.8331 225.466 12.3429 227.558 11.488C229.457 10.7115 231.178 11.0384 232.603 12.5565Z" fill="#1D242F"/>
<path fill-rule="evenodd" clip-rule="evenodd" d="M227.602 48.0692C225.402 47.8508 223.101 47.96 220.698 48.3967L210.692 48.8654L204.726 52.6843L200.517 60.3612L197.037 71.0756L183.535 61.8668L181.741 63.3977L177.435 58.3935L174.517 56.7719L173.949 57.9545L176.184 61.1123L172.412 58.6608L167.293 57.1192L166.386 57.9545L170.93 61.8668L170.403 64.1291L169.51 64.2416V66.5324L171.523 68.8275L176.975 71.0756L179.984 73.7429L188.308 82.2545L195.5 86.8166L198.818 86.2921L203.8 80.9011L200.517 90.23L206.831 93.6136L210.019 93.9412L210.692 92.8525L223.462 94.4751L231.457 95.5344L238.389 93.9412L234.463 101.68V102.673H235.469L237.94 100.44L239.481 107.631L240.456 108.886L241.681 107.991L243.111 109.56L243.6 108.886L243.111 104.053L246.45 106.372L246.914 105.943L246.45 104.792L243.6 102.198L255.77 91.8969L261.21 82.9746L265.941 72.8721L266.457 67.8137V66.5324L264.448 62.5769L252.949 55.0598L238.881 50.3401C233.562 49.0445 229.802 48.2875 227.602 48.0692ZM238.607 63.537L245.205 66.0502L253.712 70.4402C251.238 74.7075 249.242 77.8973 247.723 80.0098C246.204 82.1223 243.709 85.1776 240.24 89.1755L238.607 89.7348V63.537Z" fill="white"/>
<path fill-rule="evenodd" clip-rule="evenodd" d="M228.407 47.3414C227.824 47.1603 227.19 47.4924 227.041 48.0853C227.001 48.2439 226.971 48.4133 226.947 48.5874C226.661 50.6333 226.374 52.6788 226.085 54.724C226.029 55.1177 225.964 55.5099 225.893 55.9675C223.852 56.4852 221.961 56.3295 220.023 55.3481C220.275 54.1723 220.525 53.0435 220.759 51.9115C220.996 50.7683 221.25 49.6271 221.434 48.4749C221.594 47.4742 221.39 47.3254 220.399 47.4004C219.867 47.4408 219.328 47.3562 218.792 47.3464C215.85 47.2924 212.966 47.6314 210.194 48.677C206.914 49.9141 204.429 52.1173 202.618 55.0786C200.754 58.1261 199.54 61.4621 198.481 64.8563C197.951 66.5572 197.461 68.2709 196.924 70.0769C195.173 68.8357 193.585 67.6663 191.952 66.5626C189.646 65.0025 187.311 63.4834 184.978 61.9615C183.38 60.9182 183.372 60.9295 181.82 62.1209C181.146 61.294 180.526 60.4093 179.779 59.6504C178.935 58.7922 178.005 58.0089 177.052 57.2695C176.641 56.9498 176.095 56.7737 175.584 56.6192C174.947 56.4265 174.225 56.1704 173.713 56.8284C173.255 57.4162 173.571 58.0219 173.877 58.5885C173.917 58.6644 174.17 59.1288 174.402 59.2429C173.893 58.9945 173.085 58.5849 172.682 58.382C171.117 57.5937 169.553 56.8001 167.768 56.6259C167.264 56.5768 166.745 56.3787 166.303 56.9427C165.879 57.4829 165.938 58.2625 166.415 58.756C166.816 59.171 167.282 59.5356 167.743 59.8841C168.636 60.559 169.772 61.2045 170.731 61.8775C170.356 62.274 170.006 63.1179 170.174 63.6587C169.928 63.7335 169.517 64.1112 169.372 64.4471C168.831 65.7029 169.184 67.3673 170.422 68.3394C171.397 69.1045 172.493 69.8738 173.659 70.2039C176.6 71.0358 178.752 72.7699 180.722 75.0534C183.509 78.2828 186.543 81.3147 189.973 83.8804C191.363 84.9206 192.894 85.8204 194.466 86.5588C196.899 87.7015 199.102 87.0629 201.014 85.2584C201.29 84.9976 201.644 84.7992 203.174 82.3202C202.868 83.1496 201.415 86.2363 201.102 87.0628C200.816 87.8189 200.508 88.567 200.224 89.3237C200.054 89.7759 200.063 90.1822 200.495 90.5278C203.132 92.6369 206.028 94.1871 209.397 94.7525C210.297 94.9036 210.854 94.4852 211.192 93.6439C212.723 93.913 214.205 94.2675 215.707 94.4173C218.474 94.6932 218.845 94.6453 221.616 94.8772C222.027 94.9116 223.99 94.7525 224.562 95.168C225.518 95.9308 226.088 95.7174 226.525 95.7973C229.298 96.3059 232.07 96.1116 234.841 95.7594C235.548 95.6696 236.258 95.6022 237.16 95.5031C236.909 95.9375 236.739 96.2235 236.577 96.5137C235.834 97.8454 235.062 99.1623 234.37 100.52C234.152 100.948 234.022 101.464 233.999 101.951C233.948 103.034 235.098 103.745 236.015 103.168C236.314 102.98 236.568 102.715 236.831 102.472C237.09 102.232 237.334 101.976 237.766 101.547C238.016 102.672 238.233 103.602 238.426 104.538C238.659 105.674 238.867 106.816 239.09 107.955C239.118 108.1 239.151 108.245 239.196 108.387C239.689 109.966 241.022 110.178 241.733 108.935C242.001 109.244 242.389 110.01 242.708 110.273C243.325 110.78 243.959 110.558 244.127 109.776C244.272 109.106 244.254 108.386 244.225 107.693C244.204 107.208 243.94 105.852 243.766 105.207L243.752 105.153L243.756 105.164C243.976 105.668 244.523 106.121 244.751 106.259L244.776 106.273C245.129 106.469 245.464 106.713 245.838 106.85C246.388 107.052 246.993 107.235 247.465 106.701C247.965 106.135 247.652 105.546 247.284 105.112C246.564 104.263 245.749 103.494 244.844 102.557C245.254 102.195 245.726 101.755 246.223 101.344C247.33 100.428 248.451 99.5274 249.565 98.6192C254.257 94.7951 258.085 90.2355 260.911 84.8878C262.693 81.5151 264.303 78.0481 265.898 74.5805C266.781 72.6596 267.358 70.6261 267.489 68.4841C267.6 66.6581 267.161 65.0214 266.063 63.5495C264.944 62.0492 263.528 60.8769 261.994 59.8478C255.417 55.4344 248.401 51.9775 240.64 50.1894C237.274 49.414 233.892 48.7145 230.523 47.9533C229.851 47.8016 229.194 47.5857 228.407 47.3414ZM239.257 94.8901C239.247 94.899 239.485 95.5316 239.496 95.5553C240.614 97.9857 241.249 99.6703 242.955 102.675C243.158 103.034 243.386 103.154 243.782 103.269C243.856 103.291 244.136 103.179 244.193 103.23C244.887 103.855 246.008 104.666 246.465 105.5C246.481 105.799 246.183 105.816 246.079 105.762C245.386 105.405 244.003 104.292 243.354 103.623C243.198 103.462 242.961 103.412 242.757 103.511C242.6 103.587 242.517 103.762 242.54 103.935C242.684 105.019 243.267 107.219 243.218 108.223L243.204 108.371C243.182 108.62 242.841 108.672 242.746 108.441C242.579 108.035 242.417 107.582 242.364 107.307C241.97 105.269 242.004 104.538 241.578 103.166C241.485 102.866 241.442 102.531 241.274 102.282C241.153 102.103 240.809 101.903 240.659 101.96C240.478 102.028 240.283 102.368 240.297 102.576C240.326 103.017 240.472 103.454 240.598 103.884C240.89 104.874 240.809 105.333 241.004 106.874C241.066 107.367 241.108 107.353 241.185 108.047C241.247 108.613 240.457 108.483 240.387 108.246C240.214 107.658 240.056 107.146 239.952 106.624C239.568 104.686 239.228 102.739 238.853 100.799C238.836 100.714 238.816 100.631 238.792 100.548C238.622 99.9534 237.88 99.7639 237.432 100.189C237.195 100.413 237.008 100.68 236.779 100.886C236.329 101.29 236.166 101.651 235.83 102.046C235.667 102.238 235.422 102.342 235.171 102.325L235.163 102.324C235.045 102.316 234.965 102.199 235.005 102.087C235.888 99.5662 237.266 96.7186 239.257 94.8901ZM228.441 48.5616C233.007 49.6255 237.421 50.6122 241.813 51.6871C248.879 53.4165 255.225 56.731 261.251 60.7145C262.715 61.6826 264.078 62.7844 265.14 64.2132C266.061 65.4532 266.453 66.8262 266.359 68.3802C266.243 70.2953 265.725 72.1057 264.97 73.8358C263.821 76.4682 262.566 79.0546 261.355 81.6603C257.6 89.7415 251.677 95.9596 244.597 101.182C244.497 101.256 244.361 101.283 244.141 101.373C243.9 100.946 243.632 100.544 243.435 100.109C242.286 97.5742 241.162 95.028 240.013 92.4933C239.621 91.6288 239.252 90.731 239.252 90.731C239.252 90.731 239.836 90.0878 240.457 89.4068C245.83 83.5161 250.757 77.2952 254.572 70.2548C254.806 69.8231 255.035 69.3815 255.19 68.9187C255.238 68.7733 255.084 68.4548 254.938 68.378C254.792 68.3013 254.468 68.3571 254.347 68.4793C254.075 68.7536 253.881 69.1047 253.662 69.4151C251.721 68.4238 249.892 67.3703 247.968 66.5354C245.212 65.3395 242.388 64.3029 239.592 63.2C239.384 63.1176 239.176 63.0225 238.959 62.9754C238.289 62.83 238.036 63.0022 237.963 63.6672C237.929 63.9777 237.953 64.2952 237.952 64.6094C237.949 66.8104 237.937 69.0115 237.944 71.2124C237.959 76.197 237.923 81.1833 238.044 86.1653C238.06 86.8134 238.221 88.3496 238.22 88.3466C238.206 88.2325 237.286 89.0748 237.018 89.3533C236.137 90.2685 235.671 91.4112 236.426 92.5482C236.729 93.0048 236.955 93.5132 237.264 94.0886C233.527 94.8772 229.981 94.8781 226.349 94.3486C226.264 79.0683 226.612 63.9147 228.441 48.5616ZM219.756 56.5887C221.763 57.4749 223.751 57.4827 225.854 57.2788C225.762 57.8737 225.727 58.429 225.634 58.9778C225.201 61.5442 224.614 64.0949 224.359 66.679C223.508 75.2864 223.729 83.902 224.411 92.5124C224.445 92.9446 224.414 93.382 224.414 93.8964C220.09 93.7934 215.914 93.5817 211.809 92.5174C211.845 92.2597 211.841 92.1252 211.883 92.0066C213.926 86.1872 215.271 80.1902 216.413 74.1419C217.453 68.6286 218.488 63.114 219.534 57.6016C219.596 57.2768 219.657 56.9495 219.756 56.5887ZM202.945 56.8452C206.027 50.5098 212.534 47.7479 220.199 48.7205C220.09 49.3893 220.012 49.9638 219.901 50.532C218.546 57.4457 217.185 64.358 215.829 71.2715C214.611 77.482 213.45 83.7076 211.43 89.7239C210.979 91.0673 210.343 92.3483 209.79 93.6624C206.479 93.1194 203.803 91.6967 201.35 89.7463C201.586 89.1699 201.786 88.7194 201.957 88.2583C203.203 84.899 204.631 81.5934 205.644 78.1647C207.359 72.356 208.814 66.4703 210.364 60.6133C210.465 60.2314 210.487 59.8133 210.456 59.419C210.444 59.2597 210.213 59.0585 210.038 58.9917C209.924 58.9484 209.681 59.0733 209.585 59.1942C209.453 59.3608 209.389 59.5895 209.325 59.8006C208.182 63.5801 207.051 67.3632 205.902 71.1408C204.79 74.7933 203.648 78.4352 201.842 81.8232C201.484 82.4959 201.116 83.1672 200.704 83.8071C199.568 85.5699 197.412 86.3552 195.42 85.7155C193.016 84.9434 190.993 83.4915 189.199 81.7945C186.135 78.8964 183.2 75.8615 180.221 72.8729C179.879 72.5301 179.606 72.1185 179.334 71.7792C180.861 68.6857 182.342 65.6863 183.814 62.7027C183.982 62.7501 184.08 62.7537 184.148 62.7999C188.046 65.4488 191.939 68.1044 195.838 70.7511C196.652 71.3039 197.189 72.0263 197.424 72.9928C197.54 73.4693 197.702 73.9505 197.942 74.3743C197.959 74.4041 197.979 74.4317 198.004 74.4577C198.298 74.7699 198.857 74.6219 198.938 74.2002C198.947 74.151 198.948 74.1039 198.937 74.0596C198.758 73.3366 198.518 72.6202 198.22 71.9368C198.05 71.5461 197.904 71.1786 197.714 70.8595C197.714 70.8595 198.039 70.2039 198.12 69.9612C198.657 68.3429 199.052 66.6741 199.646 65.0786C200.679 62.3077 201.655 59.4974 202.945 56.8452ZM208.293 90.574C208.206 90.7158 208.158 90.8752 208.161 91.0382C208.167 91.4741 208.381 91.8037 208.884 91.8557C209.332 91.9019 209.843 91.4194 209.812 90.8952C209.811 90.8918 209.811 90.8886 209.811 90.8854C209.758 90.1672 208.679 89.9489 208.293 90.574ZM239.071 64.4129C242.078 64.9293 251.497 69.1908 252.919 70.6722C249.449 77.3667 244.602 83.052 239.439 88.5928C238.674 80.5182 239.23 72.4732 239.071 64.4129ZM210.716 85.2875C209.971 85.5521 209.713 86.7411 210.664 86.896C210.918 86.9376 211.185 86.7749 211.364 86.4858C211.61 86.0874 211.411 85.0409 210.716 85.2875ZM211.837 79.6099C211.765 79.6322 211.698 79.6664 211.632 79.7096C211.108 80.0558 211.088 80.7724 211.613 81.1193C211.671 81.1576 211.731 81.1879 211.794 81.2083C212.248 81.3539 212.636 80.9447 212.645 80.4313C212.654 79.9252 212.265 79.476 211.837 79.6099ZM213.121 74.4078C212.979 74.4364 212.851 74.5189 212.718 74.6329C212.284 75.0071 212.303 75.6653 212.803 75.9646C212.877 76.009 212.95 76.0371 213.025 76.0429C213.599 76.0875 213.785 75.604 213.822 75.1636C213.858 74.7362 213.606 74.3098 213.121 74.4078ZM174.651 57.4327C175.761 57.5229 176.79 58.2387 177.535 59.0067C178.595 60.0998 179.622 61.2367 180.55 62.4422C181.855 64.1366 181.811 64.1713 180.865 66.1532C180.574 66.7613 180.294 67.3749 179.981 67.971C179.464 68.9548 178.924 69.9265 178.433 70.8313C177.007 70.2976 175.686 69.8674 174.422 69.3107C173.361 68.8438 172.297 68.3246 171.358 67.6553C170.343 66.9317 170.12 66.0881 170.52 64.9822C170.591 64.7856 170.793 64.667 170.999 64.6985C171.775 64.8166 172.614 64.8853 173.282 65.0788C173.995 65.2853 174.737 65.6199 175.383 66.0983C175.566 66.2037 175.709 66.9288 175.216 66.8522C174.083 66.8063 172.97 66.5613 171.858 66.5161C171.577 66.5045 171.355 66.7564 171.413 67.0314C171.485 67.3802 171.786 67.516 172.112 67.5462C173.223 67.6499 174.344 67.7439 175.455 67.6954C176.231 67.6609 176.507 67.2087 176.469 66.4014C176.456 66.1102 175.952 65.4002 175.952 65.4002C177.046 65.2443 177.018 64.0471 176.278 63.4604C175.583 62.9093 174.798 62.6075 173.97 62.3208C171.674 61.5252 170.123 60.1454 168.176 58.7917C167.963 58.6434 167.772 58.462 167.529 58.2299C167.359 58.0677 167.486 57.7837 167.72 57.7984C168.88 57.8708 169.765 58.2192 170.598 58.6541C172.466 59.6301 174.303 60.6701 176.121 61.7384C176.216 61.7945 176.309 61.8449 176.4 61.8877C177.084 62.2106 177.712 61.337 177.212 60.7695C176.42 59.8713 175.637 58.9828 174.854 58.0946C174.714 57.936 174.627 57.7323 174.634 57.521C174.635 57.486 174.64 57.4553 174.651 57.4327ZM214.295 68.2797C214.151 68.3173 214.02 68.4021 213.88 68.5158C213.491 68.8313 213.491 69.4324 213.886 69.7411C213.975 69.8113 214.063 69.8632 214.158 69.891C214.583 70.015 215.013 69.4875 215.005 68.9569C214.998 68.4948 214.729 68.1663 214.295 68.2797ZM171.126 63.5271C171.101 63.2291 171.375 62.4234 171.87 62.5512C172.787 62.7882 174.794 63.2223 175.444 63.8788C175.661 64.0979 175.908 64.5626 175.154 64.6846C173.857 64.319 172.87 63.6417 171.126 63.5271ZM214.641 62.9944C214.422 63.3287 214.541 63.756 214.949 63.9466C215.017 63.9781 215.088 64.0001 215.16 64.0058C215.711 64.0485 215.864 63.6424 215.935 63.2878C216.009 62.9221 215.785 62.6551 215.32 62.5964C215.08 62.5663 214.816 62.7277 214.641 62.9944ZM216.176 57.934C216.084 57.9842 216.002 58.0544 215.933 58.1367C215.639 58.4889 215.59 59.0653 216.1 59.2547C216.16 59.2772 216.218 59.2893 216.276 59.2885C216.748 59.2811 216.956 58.858 216.877 58.4387C216.836 58.2186 216.654 57.9016 216.41 57.8741C216.329 57.865 216.248 57.8947 216.176 57.934ZM216.65 53.5403L216.64 53.55C216.334 53.8465 216.35 54.3849 216.681 54.6497C216.762 54.715 216.841 54.7631 216.926 54.787C217.322 54.9001 217.685 54.4407 217.585 53.9105C217.565 53.8051 217.512 53.7077 217.444 53.6135C217.249 53.3437 216.886 53.3123 216.65 53.5403Z" fill="#1D242F"/>
<path fill-rule="evenodd" clip-rule="evenodd" d="M215.387 36.7608C215.262 37.2765 215.414 37.6952 215.806 38.0228C216.292 38.4294 216.931 38.4231 217.58 38.0051C218.129 37.6518 218.33 37.3433 218.242 36.8269C218.206 36.6183 217.954 36.5104 217.763 36.6253C217.483 36.7938 217.205 36.9178 216.909 37.1139C216.77 37.2064 216.577 37.1918 216.462 37.0738C216.256 36.8618 216.083 36.7341 215.919 36.598C215.734 36.4438 215.442 36.5354 215.387 36.7608ZM209.036 28.3379C208.554 29.8292 208.62 31.304 209.37 32.7062C209.839 33.582 210.567 34.221 211.623 34.1348C211.966 34.1066 212.46 34.138 212.46 34.138C212.46 34.138 213.032 34.6803 213.275 35.0141C213.497 35.3192 213.714 35.7268 214.307 35.6547C214.487 35.6329 214.581 35.4323 214.489 35.2811C213.916 34.3445 213.377 33.4643 212.735 32.4163C212.648 32.2733 212.767 32.0949 212.936 32.1141C213.914 32.224 214.871 32.3085 215.539 32.4547C215.539 32.4547 215.624 32.8195 215.765 33.0725C216.001 33.4959 216.125 33.9836 216.389 34.3863C217.18 35.5926 218.486 35.8739 219.667 35.0544C221.277 33.9386 221.772 32.2541 221.95 30.4504C222 29.946 221.684 29.6258 221.189 29.4937C219.881 29.1456 218.585 28.7433 217.26 28.4768C216.294 28.2823 215.82 28.6543 215.618 29.6027C215.499 30.1562 215.499 30.7391 215.432 31.352C215.187 31.2727 214.578 31.2501 214.578 31.2501C214.664 30.5029 214.739 29.8523 214.822 29.133C214.858 28.8213 214.71 28.4996 214.419 28.3642C214.393 28.3518 214.365 28.3416 214.338 28.3338C213.121 27.999 211.906 27.6434 210.669 27.3941C209.683 27.195 209.329 27.4288 209.036 28.3379ZM216.623 29.3442C218.236 29.4172 219.583 29.8829 221.062 30.4082C220.919 31.8822 220.54 33.1295 219.495 34.085C218.629 34.8772 217.659 34.7917 217.096 33.844C216.263 32.4445 216.226 30.9525 216.623 29.3442ZM210.152 28.1503C211.427 28.4627 212.625 28.7562 213.923 29.0745C213.804 29.8183 213.689 30.5866 213.596 31.1692C212.616 31.2088 212.172 31.2469 211.836 31.604C211.538 31.9211 211.678 32.7173 211.935 33.2062C211.094 33.2842 210.317 32.7049 210.041 32.0502C209.511 30.7952 209.451 29.5313 210.152 28.1503ZM217.243 30.8565C217.228 31.1348 217.227 31.4081 217.301 31.6584C217.33 31.7591 217.453 31.8308 217.639 31.9078C218.026 32.0687 218.447 31.7565 218.413 31.3261C218.387 30.9899 218.352 30.7182 218.243 30.4833C218.201 30.3926 218.074 30.3439 217.916 30.3105C217.578 30.2389 217.263 30.5002 217.243 30.8565ZM212.013 29.6262C211.384 30.0512 211.483 30.4007 211.951 30.9743C212.203 31.0257 212.272 31.0085 212.316 30.9745C212.813 30.5952 212.899 30.1486 212.496 29.6797C212.422 29.593 212.112 29.5588 212.013 29.6262Z" fill="#1D242F"/>
</svg>
