<svg width="16" height="16" viewBox="0 0 16 16" fill="none" xmlns="http://www.w3.org/2000/svg">
<path d="M15.8345 14.9978L12.5859 11.7504C13.7771 10.3453 14.3788 8.53418 14.265 6.69585C14.1512 4.85752 13.3308 3.13435 11.9754 1.88671C10.6199 0.63907 8.83444 -0.0364176 6.99227 0.00151535C5.1501 0.0394483 3.39397 0.787863 2.09109 2.09024C0.7882 3.39262 0.0394638 5.1481 0.00151607 6.98955C-0.0364316 8.83101 0.639258 10.6158 1.88738 11.9707C3.13551 13.3256 4.85944 14.1457 6.69848 14.2594C8.53753 14.3732 10.3493 13.7718 11.755 12.581L15.0036 15.8283C15.1139 15.9383 15.2633 16 15.4191 16C15.534 15.9984 15.6461 15.9632 15.7413 15.8988C15.8365 15.8343 15.9107 15.7434 15.9548 15.6373C15.999 15.5312 16.0111 15.4145 15.9897 15.3015C15.9683 15.1886 15.9144 15.0844 15.8345 15.0017V14.9978ZM7.15526 12.9573C5.61406 12.9573 4.13601 12.3453 3.04621 11.256C1.95642 10.1666 1.34418 8.68909 1.34418 7.14849C1.34418 5.60788 1.95642 4.13038 3.04621 3.04101C4.13601 1.95163 5.61406 1.33963 7.15526 1.33963C7.92473 1.32955 8.68851 1.47233 9.40233 1.75971C10.1162 2.04708 10.7657 2.47329 11.3134 3.01365C11.8611 3.55401 12.296 4.19772 12.5928 4.90744C12.8896 5.61715 13.0425 6.37873 13.0425 7.14797C13.0425 7.91721 12.8896 8.67879 12.5928 9.3885C12.296 10.0982 11.8611 10.7419 11.3134 11.2823C10.7657 11.8226 10.1162 12.2489 9.40233 12.5363C8.68851 12.8236 7.92473 12.9664 7.15526 12.9563V12.9573Z" fill="black"/>
</svg>
