<svg width="181" height="52" viewBox="0 0 181 52" fill="none" xmlns="http://www.w3.org/2000/svg">
<path d="M38.9145 9.81734C38.8849 9.55121 38.6484 9.43293 38.471 9.43293C38.2935 9.43293 34.4198 9.13722 34.4198 9.13722C34.4198 9.13722 31.7289 6.44633 31.4037 6.18019C31.108 5.88449 30.5461 5.9732 30.3096 6.03234C30.28 6.03234 29.7182 6.20976 28.8015 6.50547C27.8848 3.87371 26.3176 1.47852 23.5084 1.47852H23.2423C22.4734 0.473125 21.468 0 20.6401 0C14.1346 0 11.0002 8.13183 10.0243 12.2717C7.48129 13.0701 5.6775 13.6023 5.47051 13.6911C4.05113 14.1346 4.02156 14.1642 3.84414 15.4948C3.69629 16.5002 0 45.0947 0 45.0947L28.7719 50.4765L44.385 47.1055C44.4146 47.0464 38.9441 10.0835 38.9145 9.81734ZM27.2047 6.91945C26.495 7.12644 25.6375 7.39258 24.7799 7.68828V7.15601C24.7799 5.55922 24.5729 4.25812 24.1885 3.22316C25.667 3.40058 26.5837 5.02695 27.2047 6.91945ZM22.3847 3.54844C22.7691 4.55383 23.0353 5.9732 23.0353 7.92484V8.22054C21.4385 8.72324 19.753 9.22593 18.0083 9.78777C18.9841 6.06191 20.8471 4.22855 22.3847 3.54844ZM20.4922 1.71508C20.7879 1.71508 21.0836 1.83336 21.3202 2.01078C19.2207 2.9866 17.0029 5.44094 16.0862 10.4087C14.6964 10.8523 13.3658 11.2367 12.0943 11.6507C13.1588 7.8657 15.8201 1.71508 20.4922 1.71508Z" fill="#95BF47"/>
<path d="M38.4717 9.37376C38.2943 9.37376 34.4205 9.07806 34.4205 9.07806C34.4205 9.07806 31.7296 6.38716 31.4044 6.12103C31.2861 6.00274 31.1382 5.9436 31.02 5.9436L28.8613 50.4765L44.4744 47.1055C44.4744 47.1055 39.0039 10.0834 38.9744 9.81731C38.8561 9.55118 38.6491 9.4329 38.4717 9.37376Z" fill="#5E8E3E"/>
<path d="M23.5094 18.0082L21.6169 23.7152C21.6169 23.7152 19.9018 22.7985 17.8615 22.7985C14.8157 22.7985 14.6679 24.7206 14.6679 25.1937C14.6679 27.7959 21.4691 28.8013 21.4691 34.9224C21.4691 39.7423 18.4233 42.8472 14.313 42.8472C9.34523 42.8472 6.86133 39.7719 6.86133 39.7719L8.19199 35.3955C8.19199 35.3955 10.7942 37.6428 12.9824 37.6428C14.4313 37.6428 15.0227 36.5192 15.0227 35.6912C15.0227 32.2906 9.46351 32.1428 9.46351 26.5244C9.46351 21.8227 12.8345 17.2689 19.6653 17.2689C22.2083 17.2393 23.5094 18.0082 23.5094 18.0082Z" fill="white"/>
<path d="M62.6006 28.7424C61.0334 27.9144 60.235 27.1752 60.235 26.1993C60.235 24.9574 61.3586 24.159 63.1033 24.159C65.1436 24.159 66.9474 24.987 66.9474 24.987L68.3668 20.6401C68.3668 20.6401 67.0657 19.6347 63.2216 19.6347C57.8693 19.6347 54.1435 22.71 54.1435 27.0273C54.1435 29.4816 55.8881 31.3446 58.1946 32.6752C60.0871 33.7102 60.7377 34.479 60.7377 35.6027C60.7377 36.7559 59.7914 37.7022 58.0468 37.7022C55.4741 37.7022 53.0198 36.3715 53.0198 36.3715L51.5117 40.7184C51.5117 40.7184 53.7591 42.2264 57.5441 42.2264C63.0441 42.2264 67.0361 39.506 67.0361 34.6269C66.977 31.9656 64.9958 30.1322 62.6006 28.7424ZM84.5417 19.5756C81.8213 19.5756 79.6922 20.8767 78.0659 22.8283L78.0067 22.7988L80.3723 10.4975H74.2513L68.2781 41.842H74.3991L76.4395 31.1376C77.2379 27.0865 79.3374 24.573 81.289 24.573C82.6788 24.573 83.2111 25.5192 83.2111 26.8499C83.2111 27.6779 83.1519 28.7424 82.945 29.5704L80.6385 41.842H86.7595L89.1547 29.1859C89.4208 27.8553 89.5983 26.2585 89.5983 25.1644C89.5687 21.6455 87.7649 19.5756 84.5417 19.5756ZM103.437 19.5756C96.0446 19.5756 91.1655 26.2289 91.1655 33.6511C91.1655 38.3823 94.093 42.2264 99.593 42.2264C106.838 42.2264 111.717 35.7505 111.717 28.151C111.746 23.745 109.203 19.5756 103.437 19.5756ZM100.421 37.5543C98.3215 37.5543 97.464 35.7801 97.464 33.5328C97.464 30.0139 99.2678 24.3068 102.609 24.3068C104.768 24.3068 105.507 26.1993 105.507 28.0031C105.507 31.7586 103.644 37.5543 100.421 37.5543ZM127.419 19.5756C123.279 19.5756 120.943 23.2423 120.943 23.2423H120.884L121.238 19.96H115.798C115.531 22.1778 115.029 25.5784 114.556 28.0918L110.327 50.5357H116.448L118.163 41.4576H118.311C118.311 41.4576 119.583 42.256 121.889 42.256C129.104 42.256 133.806 34.8634 133.806 27.4117C133.776 23.2719 131.913 19.5756 127.419 19.5756ZM121.564 37.6135C119.967 37.6135 119.021 36.6968 119.021 36.6968L120.026 30.9897C120.736 27.1456 122.747 24.6321 124.876 24.6321C126.768 24.6321 127.33 26.3768 127.33 28.0031C127.36 31.9655 124.994 37.6135 121.564 37.6135ZM142.529 10.7932C140.577 10.7932 139.01 12.3604 139.01 14.3416C139.01 16.1454 140.163 17.417 141.908 17.417H141.967C143.889 17.417 145.516 16.1159 145.545 13.8685C145.575 12.0647 144.362 10.7932 142.529 10.7932ZM133.954 41.8125H140.075L144.215 20.0487H138.064L133.954 41.8125ZM159.828 20.0191H155.57L155.777 19.0138C156.131 16.9143 157.373 15.0809 159.443 15.0809C160.537 15.0809 161.395 15.4062 161.395 15.4062L162.578 10.5862C162.578 10.5862 161.543 10.054 159.236 10.054C157.078 10.054 154.889 10.6749 153.234 12.0943C151.134 13.8685 150.158 16.4411 149.685 19.0433L149.508 20.0487H146.639L145.723 24.6913H148.591L145.338 41.842H151.459L154.712 24.6913H158.941L159.828 20.0191ZM174.583 20.0487C174.583 20.0487 170.739 29.7182 169.054 35.0113H168.995C168.876 33.2962 167.486 20.0487 167.486 20.0487H161.04L164.736 39.9791C164.796 40.4227 164.766 40.6888 164.589 40.9845C163.879 42.3743 162.666 43.705 161.247 44.6808C160.094 45.5088 158.793 46.0706 157.758 46.4254L159.473 51.6298C160.715 51.3637 163.317 50.3287 165.476 48.2884C168.255 45.6862 170.857 41.635 173.519 36.135L181 20.0191H174.583V20.0487Z" fill="black"/>
</svg>
