<svg width="181" height="54" viewBox="0 0 181 54" fill="none" xmlns="http://www.w3.org/2000/svg">
<path d="M27.1974 0.0898438C12.2223 0.0898438 0.0820312 12.1412 0.0820312 27.0069C0.0820312 41.8733 12.2223 53.9237 27.1974 53.9237C42.1741 53.9237 54.3131 41.8733 54.3131 27.0069C54.3131 12.1421 42.1741 0.0911295 27.1971 0.0911295L27.1974 0.0898438ZM39.6323 38.912C39.1466 39.7027 38.104 39.9534 37.3075 39.4681C30.9411 35.6077 22.9266 34.7334 13.488 36.8741C12.5785 37.0798 11.6719 36.5141 11.4646 35.6109C11.2564 34.7077 11.824 33.8077 12.7358 33.602C23.0648 31.2594 31.9248 32.2681 39.0722 36.6041C39.8687 37.0895 40.1212 38.1213 39.6323 38.912ZM42.9512 31.5828C42.3392 32.5702 41.0376 32.882 40.0435 32.2745C32.755 27.8272 21.6447 26.5392 13.0237 29.137C11.9056 29.4723 10.7248 28.8468 10.3854 27.7388C10.0487 26.6289 10.6791 25.4589 11.7952 25.1214C21.6427 22.1553 33.885 23.5921 42.255 28.698C43.2491 29.3055 43.5632 30.5976 42.9512 31.5831V31.5828ZM43.2361 23.9508C34.497 18.798 20.0785 18.3242 11.7347 20.8381C10.3948 21.2415 8.97791 20.4906 8.57187 19.1605C8.16584 17.8298 8.92157 16.4242 10.2624 16.0198C19.8405 13.1334 35.763 13.6911 45.8245 19.6205C47.0323 20.3305 47.4273 21.8756 46.7117 23.0704C45.9994 24.2667 44.4387 24.6611 43.2374 23.9508H43.2361ZM73.854 24.9382C69.1719 23.8299 68.3398 23.0521 68.3398 21.4176C68.3398 19.8735 69.8033 18.8343 71.9824 18.8343C74.0936 18.8343 76.1853 19.6234 78.3806 21.2479C78.4453 21.2971 78.5295 21.3167 78.6105 21.3038C78.6946 21.2916 78.7659 21.2469 78.8145 21.1797L81.1004 17.9809C81.1943 17.8491 81.1684 17.6675 81.0421 17.5669C78.4291 15.4863 75.4891 14.4747 72.0504 14.4747C66.996 14.4747 63.4634 17.4862 63.4634 21.795C63.4634 26.4155 66.5103 28.0516 71.7752 29.3145C76.2533 30.3388 77.0109 31.1971 77.0109 32.7309C77.0109 34.4313 75.4826 35.4888 73.0218 35.4888C70.289 35.4888 68.0581 34.5727 65.5649 32.432C65.5033 32.3773 65.4192 32.3548 65.3414 32.3581C65.2573 32.3645 65.1828 32.4031 65.131 32.4641L62.5665 35.492C62.4597 35.6206 62.4726 35.807 62.5957 35.9163C65.4969 38.4877 69.0651 39.8441 72.9182 39.8441C78.3644 39.8441 81.884 36.8902 81.884 32.3163C81.8937 28.4569 79.5657 26.3194 73.8637 24.9424L73.854 24.9382ZM94.2076 20.3546C91.8471 20.3546 89.9108 21.2778 88.3113 23.1694V21.0402C88.3113 20.8721 88.1753 20.7352 88.0069 20.7352H83.8138C83.6454 20.7352 83.5095 20.8721 83.5095 21.0402V44.6977C83.5095 44.8649 83.6454 45.0031 83.8138 45.0031H88.0069C88.1753 45.0031 88.3113 44.8649 88.3113 44.6977V37.2309C89.9108 39.0084 91.8471 39.8795 94.2076 39.8795C98.5949 39.8795 103.037 36.527 103.037 30.118C103.044 23.7078 98.6014 20.3543 94.2108 20.3543L94.2076 20.3546ZM98.1611 30.118C98.1611 33.3802 96.1374 35.6591 93.2362 35.6591C90.3706 35.6591 88.2077 33.2773 88.2077 30.118C88.2077 26.9584 90.3706 24.5772 93.2362 24.5772C96.0888 24.5769 98.1611 26.9066 98.1611 30.1177V30.118ZM114.419 20.3546C108.769 20.3546 104.342 24.6733 104.342 30.1878C104.342 35.6431 108.739 39.9148 114.351 39.9148C120.02 39.9148 124.459 35.6109 124.459 30.118C124.459 24.6438 120.049 20.3553 114.419 20.3553V20.3546ZM114.419 35.6913C111.414 35.6913 109.147 33.2934 109.147 30.1164C109.147 26.925 111.336 24.6091 114.351 24.6091C117.375 24.6091 119.654 27.006 119.654 30.1862C119.654 33.377 117.453 35.6913 114.419 35.6913ZM136.524 20.7352H131.91V16.0533C131.91 15.8855 131.774 15.7486 131.606 15.7486H127.412C127.244 15.7486 127.105 15.8855 127.105 16.0533V20.7352H125.091C124.923 20.7352 124.787 20.8721 124.787 21.0402V24.6168C124.787 24.7846 124.923 24.9218 125.091 24.9218H127.105V34.1773C127.105 37.9156 128.98 39.812 132.681 39.812C134.183 39.812 135.43 39.5034 136.605 38.8413C136.702 38.7898 136.76 38.687 136.76 38.5777V35.1706C136.76 35.0677 136.705 34.9681 136.615 34.9134C136.524 34.8556 136.411 34.8523 136.317 34.9006C135.511 35.3023 134.73 35.4888 133.856 35.4888C132.512 35.4888 131.91 34.8813 131.91 33.5248V24.9234H136.524C136.692 24.9234 136.828 24.7865 136.828 24.6184V21.0422C136.835 20.8741 136.699 20.7371 136.527 20.7371L136.524 20.7352ZM152.597 20.7535V20.1785C152.597 18.4868 153.251 17.7324 154.715 17.7324C155.589 17.7324 156.292 17.9047 157.078 18.1651C157.175 18.1953 157.276 18.1802 157.354 18.1226C157.435 18.0651 157.48 17.9728 157.48 17.8751V14.3683C157.48 14.2343 157.396 14.1157 157.263 14.0762C156.434 13.8309 155.372 13.5792 153.779 13.5792C149.91 13.5792 147.86 15.7437 147.86 19.8365V20.7172H145.846C145.678 20.7172 145.538 20.8541 145.538 21.0219V24.6168C145.538 24.7846 145.678 24.9218 145.846 24.9218H147.86V39.1948C147.86 39.3652 147.999 39.5002 148.168 39.5002H152.357C152.529 39.5002 152.665 39.3652 152.665 39.1948V24.9228H156.58L162.576 39.1948C161.896 40.6927 161.226 40.9916 160.313 40.9916C159.575 40.9916 158.794 40.7731 158.001 40.3391C157.927 40.3006 157.836 40.2941 157.758 40.3166C157.677 40.3456 157.609 40.4034 157.577 40.4806L156.156 43.5759C156.088 43.7238 156.146 43.8941 156.288 43.9713C157.771 44.7684 159.109 45.1091 160.763 45.1091C163.859 45.1091 165.571 43.6756 167.077 39.8248L174.349 21.1701C174.388 21.0762 174.375 20.9702 174.317 20.8869C174.262 20.8043 174.168 20.7545 174.068 20.7545H169.703C169.57 20.7545 169.454 20.8371 169.412 20.9589L164.94 33.6341L160.044 20.9506C159.999 20.8326 159.886 20.7545 159.759 20.7545H152.597V20.7535ZM143.278 20.7352H139.085C138.917 20.7352 138.778 20.8721 138.778 21.0402V39.1948C138.778 39.3652 138.917 39.5002 139.085 39.5002H143.278C143.447 39.5002 143.586 39.3652 143.586 39.1948V21.0415C143.586 20.8734 143.45 20.7365 143.278 20.7365V20.7352ZM141.206 12.4684C139.545 12.4684 138.198 13.803 138.198 15.4516C138.198 17.1011 139.545 18.4373 141.206 18.4373C142.867 18.4373 144.211 17.1011 144.211 15.4516C144.211 13.8033 142.864 12.4684 141.206 12.4684ZM177.931 26.5727C176.273 26.5727 174.981 25.25 174.981 23.6438C174.981 22.0376 176.289 20.6998 177.947 20.6998C179.605 20.6998 180.897 22.0222 180.897 23.6271C180.897 25.2333 179.588 26.5727 177.931 26.5727ZM177.947 20.9911C176.435 20.9911 175.292 22.1836 175.292 23.6438C175.292 25.1034 176.428 26.2798 177.931 26.2798C179.443 26.2798 180.586 25.0883 180.586 23.6271C180.586 22.1675 179.449 20.9911 177.947 20.9911ZM178.601 23.9283L179.436 25.088H178.73L177.979 24.0241H177.335V25.088H176.746V22.0138H178.125C178.847 22.0138 179.32 22.3793 179.32 22.9945C179.323 23.4985 179.028 23.8065 178.604 23.9283H178.601ZM178.102 22.5413H177.335V23.5136H178.102C178.484 23.5136 178.714 23.3275 178.714 23.027C178.714 22.7107 178.484 22.5413 178.102 22.5413Z" fill="#1ED760"/>
</svg>
