<svg width="15" height="15" viewBox="0 0 15 15" fill="none" xmlns="http://www.w3.org/2000/svg">
<g clip-path="url(#clip0)">
<path d="M14.9995 7.06128V7.93965C14.9939 8.04567 14.9816 8.15124 14.9628 8.25574C14.7924 9.88003 14.0981 11.4049 12.9846 12.6004C11.8712 13.7959 10.3989 14.5972 8.78984 14.8835C8.50683 14.9334 8.22046 14.96 7.93745 15H7.05844C6.8054 14.9667 6.55234 14.9434 6.30263 14.9035C4.41659 14.5932 2.7194 13.5774 1.55561 12.0622C0.391808 10.547 -0.151353 8.64601 0.0364133 6.74519C0.170484 5.18594 0.813955 3.71403 1.86767 2.55625C2.53095 1.78658 3.34694 1.16294 4.26396 0.724798C5.18098 0.286659 6.17905 0.0435764 7.19497 0.0109449C8.64873 -0.0694974 10.0925 0.294956 11.3336 1.05568C12.2691 1.60141 13.0731 2.34592 13.6887 3.23653C14.3043 4.12713 14.7166 5.14208 14.8962 6.20951C14.9362 6.49233 14.9595 6.77846 14.9995 7.06128ZM7.49797 1.16548C6.24677 1.16548 5.02365 1.53624 3.98332 2.23088C2.94298 2.92551 2.13217 3.91282 1.65336 5.06795C1.17454 6.22309 1.04923 7.49417 1.29333 8.72046C1.53743 9.94674 2.13996 11.0732 3.02469 11.9573C3.90942 12.8414 5.03662 13.4434 6.26377 13.6874C7.49093 13.9313 8.76293 13.8061 9.91889 13.3276C11.0748 12.8491 12.0628 12.0389 12.758 10.9993C13.4531 9.95969 13.8241 8.73747 13.8241 7.48716C13.8241 5.81054 13.1576 4.2026 11.9713 3.01706C10.7849 1.83151 9.17577 1.16548 7.49797 1.16548Z" fill="#CAA8FF"/>
<path d="M8.08162 5.61569V7.13954C8.07904 7.17775 8.08697 7.21595 8.10458 7.24997C8.12219 7.28399 8.14878 7.31254 8.18148 7.33252C8.83407 7.81829 9.48556 8.30739 10.1359 8.79982C10.2663 8.88066 10.3596 9.00959 10.3955 9.15867C10.4314 9.30775 10.4071 9.46497 10.3279 9.59627C10.2486 9.72756 10.1207 9.82235 9.97201 9.86011C9.82329 9.89786 9.66567 9.87554 9.5333 9.79797C9.45965 9.7519 9.38851 9.70191 9.3202 9.64825C8.61434 9.11922 7.91514 8.5902 7.20928 8.06783C7.11555 8.00463 7.03947 7.91863 6.98821 7.81792C6.93695 7.71722 6.9122 7.60514 6.91627 7.49223V4.1251C6.9077 4.02703 6.92414 3.9284 6.96407 3.83841C7.004 3.74842 7.06612 3.67002 7.14461 3.61053C7.2231 3.55105 7.31538 3.51241 7.41286 3.49825C7.51035 3.48408 7.60985 3.49485 7.70204 3.52953C7.81916 3.57546 7.91883 3.65706 7.98696 3.76275C8.05508 3.86845 8.08822 3.99289 8.08162 4.11845V5.61569Z" fill="#CAA8FF"/>
</g>
<defs>
<clipPath id="clip0">
<rect width="15" height="15" fill="white"/>
</clipPath>
</defs>
</svg>
