<svg width="47" height="78" viewBox="0 0 47 78" fill="none" xmlns="http://www.w3.org/2000/svg">
<path d="M18.2728 77.2234C17.6033 78.088 16.3563 78.2494 15.5227 77.5417C8.903 71.9216 4.08211 64.4568 1.69028 56.0784C-0.883057 47.0642 -0.510162 37.4637 2.75461 28.6762C6.01937 19.8888 12.0054 12.3737 19.8401 7.22639C27.1222 2.44211 35.6476 -0.0642214 44.331 0.00122761C45.4245 0.00946956 46.2636 0.945939 46.2062 2.03795C46.1488 3.12997 45.2165 3.96354 44.123 3.96017C36.2827 3.93598 28.5914 6.21505 22.0145 10.536C14.8849 15.2201 9.43763 22.0588 6.46669 30.0554C3.49575 38.052 3.15642 46.7884 5.49815 54.9913C7.65835 62.5584 11.9959 69.3065 17.9501 74.4073C18.7805 75.1187 18.9423 76.3588 18.2728 77.2234Z" fill="#A873FA"/>
</svg>
