<svg width="419" height="362" viewBox="0 0 419 362" fill="none" xmlns="http://www.w3.org/2000/svg">
<path opacity="0.5" d="M210.651 351.906C311.815 351.906 393.825 348.2 393.825 343.628C393.825 339.057 311.815 335.35 210.651 335.35C109.486 335.35 27.4761 339.057 27.4761 343.628C27.4761 348.2 109.486 351.906 210.651 351.906Z" fill="#C9C9C9"/>
<g opacity="0.5">
<g opacity="0.5">
<path opacity="0.5" fill-rule="evenodd" clip-rule="evenodd" d="M217.825 306.669C204.903 307.067 192.008 306.668 179.143 305.409C166.71 304.192 154.397 302.354 142.482 298.646C118.964 291.327 96.3255 282.004 75.1314 269.769C48.5942 254.45 28.874 233.05 15.4308 206.301C9.7448 194.987 5.04169 183.335 2.06702 171.075C0.131812 163.098 -0.561167 155.046 0.489545 146.899C0.721207 145.103 1.07452 143.289 1.6591 141.573C4.19614 134.126 7.85376 127.253 13.1402 121.208C17.3575 116.385 22.4352 112.703 28.5195 110.403C38.7664 106.529 49.3671 103.786 58.5156 97.7437C69.8751 90.2409 78.6614 80.082 88.9657 71.436C99.7663 62.374 110.85 53.7157 122.632 45.8419C144.952 30.926 168.746 18.7481 194.855 11.0088C207.971 7.12099 221.25 3.91764 234.856 2.08507C243.169 0.965417 251.535 0.462403 259.928 0.162366C283.748 -0.689601 307.117 1.76 329.88 8.72632C344.902 13.3232 359.143 19.5107 371.969 28.4294C383.38 36.3652 393.108 45.8342 400.226 57.5988C403.506 63.0188 405.992 68.7418 407.03 74.9864C408.919 86.3589 405.763 96.3102 397.963 104.983C393.078 110.414 387.147 114.54 380.593 117.906C373.618 121.489 366.171 123.935 358.702 126.336C349.716 129.225 340.757 132.187 332.152 136.036C327.316 138.199 322.584 140.562 318.424 143.798C316.685 145.15 315.041 146.707 313.702 148.421C311.455 151.296 311.501 154.316 313.792 157.145C315.027 158.671 316.502 160.15 318.179 161.191C322.459 163.847 326.819 166.413 331.317 168.71C340.135 173.211 349.125 177.401 357.936 181.915C365.604 185.842 372.999 190.218 379.478 195.855C386.202 201.706 391.751 208.414 395.38 216.456C398.615 223.626 399.841 231.06 398.224 238.81C397.235 243.547 395.127 247.825 392.35 251.822C388.135 257.889 382.75 262.888 376.862 267.427C369.069 273.434 360.371 277.957 351.288 281.868C332.51 289.955 312.954 295.637 292.792 299.501C281.272 301.708 269.691 303.537 258.021 304.796C247.722 305.907 237.382 306.512 227.018 306.662C223.954 306.707 220.889 306.669 217.825 306.669Z" fill="#F1ECE8"/>
</g>
</g>
<path fill-rule="evenodd" clip-rule="evenodd" d="M301.196 265.193C300.556 263.849 300.557 263.862 299.177 263.92C298.801 263.935 298.42 263.852 298.042 263.806C297.065 263.686 296.181 263.254 295.116 263.313C294.04 263.372 292.866 263.029 291.868 262.572C291.245 262.288 290.753 262.228 290.103 262.255C287.8 262.348 285.613 263.629 283.23 262.918C283.019 262.855 282.74 263.034 282.49 263.082C281.039 263.358 279.526 263.407 278.224 264.233C276.512 263.741 275.078 264.873 273.478 265.051C271.852 265.232 270.464 265.923 269.265 267.057C268.917 267.386 268.371 267.667 267.906 267.683C266.069 267.743 264.787 268.845 263.46 269.878C262.867 270.34 262.213 270.776 261.766 271.36C261.165 272.145 260.757 273.075 260.231 273.92C259.444 275.185 260.175 276.817 261.669 277.069C262.779 277.257 263.901 277.384 264.999 277.624C266.221 277.891 267.404 278.556 268.654 277.654C268.821 277.534 269.236 277.758 269.536 277.817C269.841 277.877 270.293 278.088 270.427 277.963C271.593 276.871 272.826 277.561 274.053 277.717C274.783 277.81 275.976 278.06 276.179 277.742C276.663 276.98 277.085 277.404 277.601 277.383C278.856 277.329 280.159 277.317 281.343 276.961C282.427 276.635 283.608 276.178 284.652 276.231C285.016 276.25 285.46 276.235 285.741 276.047C286.698 275.406 287.675 275.123 288.807 275.489C289.029 275.561 289.415 275.586 289.53 275.457C290.451 274.425 291.803 274.772 292.918 274.373C293.88 274.03 295.1 274.244 295.933 273.751C296.912 273.172 297.839 272.954 298.918 272.898C299.453 272.87 300.235 272.69 300.447 272.318C300.944 271.447 301.756 271.671 302.422 271.499C303.736 271.159 305.096 271.004 306.414 270.676C306.964 270.54 307.454 270.158 307.971 269.888C306.723 269.233 306.536 267.602 305.112 267.579C304.992 267.577 304.807 267.32 304.769 267.155C304.329 265.248 302.827 265.288 301.196 265.193ZM325.97 225.527C326.747 225.206 327.403 224.979 328.016 224.668C328.389 224.479 328.916 224.215 328.998 223.89C329.427 222.199 330.348 220.822 331.424 219.495C331.956 218.84 331.733 217.851 331.129 217.643C329.592 217.112 328.151 215.566 326.285 216.864C326.089 217 325.682 216.9 325.395 216.824C324.717 216.645 323.968 216.541 323.405 216.169C322.737 215.727 321.92 216.797 321.411 215.85C320.447 216.272 319.615 215.474 318.704 215.545C316.599 215.71 314.526 216.255 312.384 216.043C312.038 216.009 311.58 216.122 311.324 216.343C309.84 217.619 308.004 217.645 306.219 217.945C304.803 218.184 303.39 218.55 302.04 219.038C300.927 219.441 300.326 220.969 298.807 220.571C298.271 222.125 296.189 221.491 295.538 222.882C293.315 223.217 292.498 224.862 292.084 226.581C291.618 227.066 291.094 226.387 290.713 227.192C290.285 228.098 288.779 228.464 289.354 229.922C289.362 229.941 289.257 229.996 289.218 230.044C288.057 231.474 287.917 233.258 287.551 234.956C287.478 235.295 287.568 235.733 287.732 236.047C288.496 237.514 289.305 238.957 290.116 240.399C290.2 240.55 290.383 240.707 290.545 240.742C292.803 241.226 294.71 242.958 297.201 242.612C297.815 242.527 298.442 242.516 299.051 242.404C300.096 242.211 301.076 241.839 302.185 242.405C302.922 242.782 303.799 243.007 304.575 242.043C305.032 241.476 305.907 241.193 306.644 240.913C308.352 240.261 310.13 239.779 311.805 239.055C313.026 238.528 314.148 237.756 315.276 237.034C316.051 236.539 316.785 235.972 317.493 235.384C318.608 234.458 319.712 233.516 320.769 232.525C321.447 231.889 321.906 230.865 322.685 230.529C323.879 230.013 324.269 229.203 324.264 228.124C326.735 227.519 326.682 227.138 325.97 225.527ZM353.307 224.888C353.871 226.277 354.386 227.878 355.166 229.336C355.631 230.207 356.395 230.872 355.951 232.004C355.851 232.26 355.948 232.675 356.097 232.935C357.069 234.635 356.674 236.491 356.792 238.296C356.971 241.007 355.722 243.358 355.026 245.848C354.978 246.019 354.852 246.223 354.704 246.302C353.763 246.804 353.777 247.671 353.789 248.169C353.071 248.925 352.519 249.452 352.031 250.032C350.938 251.332 349.882 252.662 348.801 253.971C348.693 254.102 348.508 254.267 348.366 254.261C346.78 254.191 346.683 255.284 346.683 256.502C345.528 256.777 344.781 258.063 343.39 257.695C342.864 258.424 342.333 259.151 341.814 259.886C341.708 260.035 341.648 260.216 341.538 260.44C340.512 260.727 339.357 260.489 338.472 261.56C337.809 262.362 336.253 262.055 335.614 263.221C335.513 263.406 335.192 263.481 334.962 263.581C333.526 264.204 332.156 264.853 330.95 265.959C330.14 266.702 328.86 267.121 327.737 267.262C327.087 267.344 326.846 267.339 326.51 267.951C326.031 268.825 325.706 268.809 324.629 268.595C321.224 270.159 318.118 271.585 314.79 273.113C314.455 275.217 314.12 277.444 313.74 279.664C313.54 280.834 313.233 281.985 313.035 283.155C312.913 283.871 312.089 283.867 311.826 284.64C311.51 285.567 311.307 286.858 310.077 287.312C309.979 287.348 309.898 287.504 309.861 287.621C309.11 289.943 307.237 291.394 305.651 293.069C305.49 293.24 305.355 293.579 305.196 293.588C303.343 293.68 302.419 295.134 301.208 296.193C300.775 296.573 300.063 296.636 299.631 297.017C298.448 298.058 297.156 298.938 295.778 299.665C294.501 300.339 293.108 300.789 291.807 301.42C290.506 302.05 289.268 302.807 287.976 303.456C287.569 303.66 287.076 303.701 286.619 303.802C286.377 303.855 286.044 303.786 285.895 303.926C284.394 305.33 282.307 305.469 280.592 306.407C280.078 306.688 279.536 307.231 278.856 306.606C278.744 306.503 278.368 306.601 278.159 306.701C276.006 307.722 273.853 308.434 271.367 308.493C269.332 308.541 267.329 309.516 265.29 309.994C264.012 310.293 262.692 310.409 261.398 310.649C260.723 310.774 260.067 310.994 259.4 311.16C258.055 311.493 256.805 312.102 255.286 311.575C254.464 311.291 253.38 311.583 252.459 311.803C251.135 312.119 249.811 312.134 248.469 312.185C247.089 312.238 245.638 312.253 244.356 312.689C242.203 313.422 239.988 312.765 237.85 313.268C237.632 313.32 237.348 313.01 237.076 312.936C236.771 312.851 236.445 312.825 236.126 312.815C236.023 312.812 235.881 313.023 235.815 312.996C233.06 311.861 230.062 311.899 227.219 311.199C227.136 311.178 227.089 311.011 226.96 310.81C227.536 310.022 228.451 310.04 229.293 309.91C230.328 309.752 231.399 309.837 232.346 309.185C232.642 308.981 233.19 309.167 233.619 309.127C234.802 309.016 236.053 309.087 237.147 308.71C239.074 308.046 240.961 307.586 242.999 307.989C243.819 308.152 245.197 307.711 245.932 307.151C246.901 307.962 247.857 307.931 249.097 307.559C251.315 306.892 253.639 306.279 255.925 306.255C257.236 306.241 258.508 306.292 259.763 305.924C260.441 305.725 261.063 305.3 261.747 305.164C262.671 304.981 263.476 304.638 264.616 304.949C265.78 305.267 267.444 304.716 268.537 304.005C269.321 303.495 269.958 304.122 270.407 303.766C271.273 303.08 272.304 303.13 273.237 302.799C273.842 302.584 274.36 302.475 275.014 302.48C275.808 302.485 276.638 302.156 277.393 301.833C278.902 301.189 280.35 300.403 281.865 299.773C282.602 299.466 283.456 299.448 284.214 299.179C285.519 298.716 286.839 298.256 288.06 297.617C289.468 296.88 290.741 295.888 292.139 295.131C292.999 294.666 293.99 294.447 294.913 294.094C296.671 293.422 298.494 292.884 299.649 291.183C299.884 290.837 300.54 290.807 300.942 290.54C301.93 289.884 302.99 288.131 303.446 287.021C303.645 286.534 304.327 286.245 305.073 285.634C305.121 285.546 304.217 284.731 305.461 284.586C306.474 284.468 307.593 282.926 307.737 281.903C307.806 281.417 307.852 280.828 308.144 280.492C309.456 278.984 309.141 277.049 309.615 275.327C309.654 275.185 309.49 274.987 309.382 274.722C308.24 275.082 307.034 275.271 306.022 275.819C303.638 277.11 301 277.365 298.45 278C297.411 278.259 296.289 278.551 295.455 279.167C294.42 279.931 292.974 279.339 292.13 280.413C290.308 279.96 288.669 280.841 286.95 281.135C285.161 281.44 283.346 281.548 281.608 282.219C280.589 282.613 279.378 282.843 278.314 282.698C277.129 282.536 276.074 282.931 274.979 282.946C272.729 282.977 270.438 283.33 268.219 282.597C268.041 282.538 267.836 282.515 267.65 282.533C263.838 282.921 263.838 282.923 260.337 281.537C258.296 281.875 257.542 279.45 255.675 279.346C255.441 279.333 255.222 278.78 255.022 278.46C254.778 278.068 254.558 277.661 254.332 277.258C254.242 277.098 254.055 276.889 254.099 276.776C254.754 275.125 254.223 273.145 255.511 271.673C255.635 271.53 255.789 271.37 255.824 271.198C256.048 270.086 256.651 269.29 257.545 268.569C258.986 267.406 260.293 266.078 261.661 264.823C262.335 264.205 263.521 264.306 263.882 263.247C265.516 263.817 266.176 261.54 267.747 261.925C268.692 260.482 270.47 260.839 271.771 260.101C272.721 259.563 274.016 259.665 275.13 259.379C276.088 259.133 277.007 258.74 278.221 258.315C278.355 258.376 278.803 258.58 279.25 258.784C279.241 258.679 279.231 258.575 279.222 258.471C280.084 258.218 280.936 257.81 281.811 257.751C282.949 257.675 284.064 257.565 285.195 257.401C286.352 257.233 287.578 257.608 288.778 257.665C290.189 257.734 291.61 257.641 293.016 257.755C294.766 257.896 296.511 257.966 298.215 258.655C298.914 258.937 299.863 258.869 300.654 259.203C300.999 259.348 301.364 259.453 301.696 259.623C303.871 260.739 306.268 261.334 308.381 262.651C309.149 263.13 309.231 263.56 309.265 264.252C311.387 264.05 311.27 266.716 313.83 267.004C315.073 266.809 317.099 266.304 318.939 265.196C319.046 265.132 319.177 265.101 319.301 265.073C320.338 264.837 321.5 264.819 322.379 264.311C323.246 263.811 323.959 263.123 325.04 263.016C325.433 262.977 325.832 262.641 326.158 262.358C326.823 261.782 327.432 261.394 328.434 261.301C329.448 261.208 330.418 260.402 331.359 259.828C332.145 259.348 332.864 258.755 333.604 258.201C333.697 258.132 333.764 257.893 333.799 257.902C335.222 258.275 335.684 256.695 336.833 256.393C337.435 256.236 337.836 255.314 338.435 254.612C339.381 255.281 340.056 254.431 340.801 253.76C341.313 253.297 341.872 252.884 342.359 252.397C342.695 252.06 342.93 251.626 343.233 251.254C343.459 250.978 343.676 250.643 343.976 250.487C345.554 249.67 347.109 248.914 347.382 246.818C347.448 246.309 348.099 245.811 348.579 245.431C350.632 243.801 351.692 241.784 351.312 239.102C351.245 238.632 351.252 237.998 351.512 237.663C352.509 236.381 351.728 234.989 351.723 233.712C351.719 232.654 350.75 231.602 350.217 230.543C350.046 230.203 349.785 229.853 349.773 229.501C349.742 228.602 349.093 228.213 348.552 227.679C348.134 227.266 347.934 226.639 347.532 226.205C346.427 225.016 345.349 223.772 344.082 222.779C343.651 222.441 342.943 222.364 342.58 221.794C342.515 221.692 342.375 221.55 342.291 221.562C340.442 221.837 339.532 220.099 338.05 219.6C337.934 219.561 337.803 219.569 337.494 219.534C336.573 220.997 335.625 222.543 334.635 224.061C334.063 224.938 333.388 225.749 332.825 226.632C332.318 227.428 332.019 228.381 331.417 229.084C330.346 230.337 329.118 231.455 327.949 232.624C327.723 232.85 327.301 233.011 327.251 233.259C326.96 234.699 325.608 234.971 324.685 235.712C324.447 235.904 324.11 236.124 324.063 236.376C323.795 237.834 322.464 238.306 321.535 239.107C320.597 239.915 319.655 240.754 318.34 241.078C317.594 241.262 316.942 241.886 316.285 242.363C315.287 243.086 314.423 244.021 313.064 244.098C312.774 244.115 312.505 244.381 312.215 244.507C310.735 245.151 309.422 246.309 307.633 246.02C305.667 247.384 302.991 246.739 301.091 248.327C300.874 248.509 300.447 248.611 300.184 248.531C299.574 248.345 299.027 247.905 298.412 247.792C297.772 247.675 297.061 247.938 296.419 247.824C295.495 247.658 294.611 247.098 293.698 247.069C291.951 247.014 290.511 246.54 289.105 245.427C287.794 244.389 286.404 243.489 285.156 242.322C283.981 241.224 284.063 239.782 283.402 238.582C283.073 237.982 282.843 237.315 282.646 236.655C282.413 235.877 281.906 235.206 282.596 234.238C283.038 233.62 282.783 232.513 282.868 231.628C282.939 230.888 283.13 230.23 283.482 229.513C284.452 227.539 285.267 225.503 286.781 223.844C286.955 223.654 286.886 223.261 286.993 222.986C287.108 222.694 287.374 222.173 287.444 222.193C288.489 222.503 288.732 221.728 289.121 221.078C289.267 220.834 289.589 220.549 289.841 220.538C290.862 220.493 291.36 219.761 292.012 219.153C292.817 218.403 293.446 217.318 294.782 217.332C294.937 217.333 295.163 217.175 295.239 217.03C295.866 215.839 297.077 215.819 298.156 215.474C299.055 215.187 300.009 214.855 300.726 214.278C301.483 213.668 302.035 212.861 303.176 213.245C303.276 213.279 303.465 213.239 303.528 213.163C304.715 211.72 306.482 212.083 308.008 211.769C310.088 211.341 312.201 211.063 314.307 210.778C314.983 210.686 315.684 210.799 316.372 210.775C316.896 210.757 317.401 211.098 317.969 210.562C318.243 210.304 319.03 210.593 319.585 210.631C320.709 210.708 321.668 211.341 323.007 210.794C324.021 210.381 325.49 211.08 326.755 211.287C327.995 211.491 329.231 211.728 330.475 211.896C331.72 212.065 333.016 212.021 334.01 212.982C334.836 212.84 335.203 212.341 335.382 211.576C335.8 209.788 336.294 208.019 336.714 206.233C336.965 205.166 336.893 204.016 337.646 203.086C337.777 202.926 337.799 202.531 337.693 202.349C337.04 201.234 338.061 200.404 338.291 199.5C338.459 198.839 338.715 198.408 338.456 197.657C338.208 196.939 338.235 196.032 338.42 195.277C338.877 193.411 338.895 191.588 338.473 189.72C338.323 189.055 338.422 188.335 338.4 187.64C338.345 185.922 337.998 184.263 337.538 182.604C337.023 180.747 337.989 179.132 339.776 178.592C340.002 178.524 340.376 178.502 340.509 178.633C341.754 179.867 343.507 180.62 343.186 183.046C342.957 184.782 343.613 186.637 343.878 188.439C343.906 188.626 344.066 188.897 343.993 188.982C343.08 190.048 343.595 191.3 343.713 192.384C343.951 194.581 343.275 196.781 343.862 198.959C343.953 199.298 343.871 199.714 343.774 200.068C343.338 201.641 342.83 203.194 342.424 204.773C342.131 205.913 341.871 207.074 341.751 208.242C341.581 209.891 341.269 211.418 340.199 212.788C339.349 213.876 339.941 215.449 341.318 215.861C342.687 216.271 343.977 216.722 344.903 217.88C344.975 217.97 345.12 218.024 345.24 218.049C346.163 218.247 346.869 218.692 347.475 219.469C348.07 220.232 348.9 220.813 349.639 221.459C349.961 221.741 350.284 222.053 350.664 222.233C351.316 222.543 351.832 222.837 352.049 223.656C352.174 224.125 352.836 224.451 353.307 224.888Z" fill="black"/>
<path fill-rule="evenodd" clip-rule="evenodd" d="M66.5228 155.035C67.2724 154.731 68.1855 154.746 69.0235 154.763C70.8785 154.801 72.7329 154.908 74.5839 155.039C75.0065 155.069 75.4048 155.36 75.8315 155.443C76.314 155.537 76.8536 155.669 77.3025 155.545C78.7557 155.144 80.1285 155.274 81.5175 155.813C82.0985 156.038 82.7428 156.121 83.3669 156.209C84.165 156.322 85.0202 156.231 85.7656 156.481C87.9183 157.205 90.2837 157.584 91.7485 159.56C91.6764 159.794 91.6704 159.994 91.5985 160.021C89.5053 160.825 87.4885 161.962 85.0922 161.419C84.6896 161.328 84.2279 161.524 83.791 161.55C83.4428 161.57 83.0759 161.593 82.745 161.508C81.8054 161.266 80.8936 160.879 79.9429 160.74C79.5918 160.689 79.1629 161.17 78.6218 161.498C77.4863 160.962 76.2755 160.183 74.6756 160.837C73.9238 161.144 72.8972 160.839 72.0097 160.711C71.7995 160.68 71.6319 160.353 71.6191 160.307L71.6182 160.303L66.0193 159.615C65.6874 159 65.2414 158.173 64.7413 157.245C64.8236 156.077 65.6213 155.4 66.5228 155.035ZM70.3481 134.246C70.7355 134.184 71.2724 134.294 71.5659 134.537C72.8202 135.577 74.3294 135.79 75.8246 136.209C76.7071 136.456 77.5703 136.767 78.4944 136.875C78.6777 136.896 78.96 136.959 79.0123 137.082C79.616 138.492 80.9354 138.586 82.1685 138.946C82.8452 139.144 83.4127 139.707 84.038 140.092C84.6073 140.441 85.1386 141.274 85.7965 139.878C86.6806 141.67 87.9869 142.252 89.5096 142.699C90.7291 143.057 91.8673 143.683 92.8266 144.707C93.9284 145.882 94.5096 146.368 95.022 148.002C93.2562 148.634 91.585 149.405 89.6102 148.487C88.4354 147.941 87.1371 147.661 85.655 147.184C85.6209 147.037 85.5104 146.561 85.3991 146.083C83.9294 146.158 82.8503 145.337 81.7408 144.672C80.6069 143.993 79.5646 143.206 78.1629 143.092C77.6267 143.049 77.0583 142.744 76.6096 142.415C75.5432 141.634 74.4432 141.184 73.0742 141.084C72.2497 141.024 71.4998 140.212 70.6742 139.827C69.8312 139.435 68.937 139.154 67.9827 138.792C67.9019 138.513 67.8903 138.007 67.6383 137.692C66.7643 136.601 67.4329 135.607 68.043 134.943C68.5141 134.43 69.545 134.376 70.3481 134.246ZM74.5743 117.732C75.7096 117.081 76.7743 117.249 77.9129 117.836C79.3365 118.569 80.8664 119.067 82.1679 120.075C82.5859 120.4 83.3598 120.265 83.9713 120.34C83.932 120.411 83.893 120.483 83.854 120.555C84.5294 120.914 85.2027 121.277 85.8813 121.63C86.3807 121.89 87.1938 122.023 87.3359 122.408C87.8625 123.837 89.4019 123.882 90.2827 124.796C90.6076 125.133 91.1746 125.301 91.6613 125.404C93.105 125.711 93.7983 126.114 94.5072 127.142C94.6846 127.4 94.9106 127.693 95.1822 127.804C96.8729 128.499 96.9045 130.186 97.6647 131.661C96.2848 131.881 95.0848 131.925 93.8462 131.708C93.1094 131.578 92.3361 131.655 91.2242 131.632C91.0134 131.375 90.7966 130.429 89.7837 130.551C88.3629 128.442 85.8512 127.887 83.8552 126.69C81.7439 125.425 80.1184 123.531 77.8487 122.515C76.9956 122.132 76.0969 121.887 75.3035 121.068C74.2095 119.937 74.0771 119.009 74.5743 117.732Z" fill="#009DE9"/>
<path fill-rule="evenodd" clip-rule="evenodd" d="M252.663 239.414C253.848 239.686 254.464 240.488 254.796 241.598C253.837 243.051 253.653 244.709 253.64 246.418C253.628 248.089 253.16 248.76 251.22 249.645C251.001 248.869 250.67 248.235 250.678 247.605C250.691 246.472 250.814 245.322 251.063 244.218C251.344 242.972 251.634 241.769 251.434 240.465C251.287 239.502 251.747 239.204 252.663 239.414ZM263.14 237.62C263.407 238.148 263.699 238.724 264.11 239.537C264.03 240.392 264.027 241.781 263.729 243.104C263.548 243.903 263.043 244.742 262.441 245.303C261.764 245.934 260.162 244.677 260.447 243.54C260.946 241.554 260.355 239.075 263.14 237.62ZM279.856 235.698C280.649 237.611 279.764 242.175 276.813 242.6C275.793 240.537 277.356 238.506 276.981 236.544C277.403 236.091 277.75 235.626 278.187 235.271C278.876 234.712 279.513 234.872 279.856 235.698ZM230.989 232.955C230.797 234.923 231.372 236.964 230.417 238.867C229.951 239.798 229.606 240.79 229.13 241.941C227.294 240.952 227.567 239.352 227.576 237.976C227.585 236.677 227.965 235.383 228.142 234.082C228.206 233.609 228.152 233.12 228.152 232.411C228.3 232.301 228.615 231.975 228.999 231.8C230.07 231.313 231.1 231.831 230.989 232.955ZM246.632 223.294C248.773 223.344 249.306 223.837 249.144 225.761C248.978 227.745 248.931 229.799 247.236 231.418C246.998 231.242 246.654 231.119 246.552 230.889C245.927 229.475 245.975 226.621 246.632 223.294ZM209.563 219.317C210.5 220.9 210.61 222.586 210.132 224.342C209.67 226.04 210.481 227.95 209.245 229.514C207.782 229.038 206.555 227.087 207.122 225.628C207.472 224.727 207.308 224.075 207.068 223.289C206.382 221.04 207.038 219.979 209.563 219.317ZM289.883 220.71C291.302 221.185 291.199 222.396 291.039 223.534C290.867 224.751 290.533 225.944 290.236 227.301C289.72 227.521 289.034 227.814 288.397 228.086C286.757 226.731 287.618 225.154 287.709 223.69C287.798 222.263 288.333 221.129 289.883 220.71ZM263.54 215.805L263.665 215.908C264.779 216.838 265.662 217.7 264.721 219.325C264.414 219.855 264.309 220.73 264.523 221.29C265.231 223.142 263.648 223.972 262.978 225.651C262.387 224.038 261.327 223.045 261.699 221.51C261.815 221.033 261.778 220.476 261.659 219.993C261.198 218.118 262.054 216.885 263.54 215.805ZM301.443 218.195C301.985 218.31 302.918 219.524 302.698 220.158C302.079 221.948 302.179 224.108 300.089 225.395C298.933 224.125 298.688 222.817 299.306 221.327C299.519 220.811 299.688 220.273 299.825 219.731C300.059 218.803 300.814 218.061 301.443 218.195ZM277.207 213.945C277.853 215.21 278.224 216.323 277.671 217.673C277.302 218.577 277.212 219.632 277.171 220.626C277.115 222.02 276.075 222.638 275.284 223.762C274.183 221.635 273.594 219.81 274.703 217.788C274.935 217.364 274.973 216.804 274.998 216.302C275.064 214.952 275.75 214.202 277.207 213.945ZM232.758 212.878C232.948 213.256 232.977 213.713 233.11 214.265C232.47 214.917 232.069 215.741 232.398 216.85C232.827 218.296 231.764 219.208 230.948 220.134C230.746 220.364 230.156 220.253 229.323 220.346C229.827 218.16 228.974 216.202 230.069 214.392C230.205 214.169 230.09 213.792 230.086 213.485C230.075 212.671 230.296 211.941 231.178 211.762C232.009 211.594 232.442 212.248 232.758 212.878ZM214.839 206.398C215.316 207.159 215.766 207.877 216.189 208.553C216.007 209.603 215.874 210.598 215.648 211.57C215.538 212.041 215.333 212.536 215.03 212.906C214.29 213.81 213.77 213.689 213.245 212.6C213.032 212.158 212.762 211.743 212.471 211.232C213.096 209.618 213.197 207.783 214.839 206.398ZM256.899 206.847C256.839 208.521 256.826 210.256 255.941 211.761C255.696 212.175 255.141 212.586 254.691 212.633C254.398 212.664 253.911 212.091 253.726 211.69C252.973 210.057 253.746 208.496 254.133 206.946C254.294 206.303 254.8 205.746 255.101 205.233C256.422 205.155 256.933 205.911 256.899 206.847ZM243.573 198.328C245.172 199.536 245.454 200.419 245.026 201.973C244.439 204.11 243.852 206.253 243.433 208.427C243.206 209.605 242.637 210.478 241.947 211.328C241.737 211.242 241.554 211.226 241.517 211.144C240.81 209.575 240.771 206.121 241.207 204.592C241.578 203.29 241.795 201.919 241.873 200.566C241.941 199.386 242.832 199.012 243.573 198.328ZM271.963 198.837C272.122 199.443 272.532 200.122 272.405 200.678C271.927 202.765 271.336 204.833 270.652 206.863C270.422 207.545 269.788 208.091 269.17 208.928C268.76 208.449 268.258 208.134 268.213 207.764C268.06 206.489 267.685 205.226 268.456 203.923C268.985 203.029 269.053 201.875 269.417 200.87C269.775 199.879 270.17 198.851 271.963 198.837ZM224.323 199.436C225.047 199.682 225.677 199.895 226.554 200.193C226.304 201.428 226.088 202.59 225.828 203.741C225.661 204.481 225.374 205.195 225.24 205.939C225.074 206.859 224.528 207.227 223.674 207.278C222.415 206.601 222.661 205.322 222.5 204.683C223.17 202.755 223.712 201.194 224.323 199.436ZM202.359 199.709C203.599 199.774 203.984 200.809 203.945 201.549C203.857 203.212 203.412 204.856 203.113 206.507C202.918 206.555 202.723 206.603 202.529 206.65C202.095 206.069 201.512 205.544 201.263 204.892C200.916 203.981 200.717 202.982 200.638 202.006C200.54 200.783 201.751 200.439 202.359 199.709ZM284.672 198.601L284.691 198.645C284.842 198.993 284.951 199.358 284.96 199.383C284.831 201.056 284.786 202.39 284.61 203.706C284.458 204.84 283.775 205.656 282.708 206.106C281.937 206.432 281.332 206.113 281.136 205.294C280.813 203.946 281.457 202.748 281.739 201.495C281.904 200.762 282.099 200.036 282.287 199.308C282.35 199.065 282.362 198.755 282.52 198.601C282.859 198.27 283.24 197.902 283.673 197.764C284.327 197.555 284.483 198.15 284.672 198.601ZM298.621 194.16C298.379 197.776 298.511 201.54 295.841 204.83C294.021 202.452 294.403 200.226 295.4 197.894C295.861 196.814 295.783 195.545 296.588 194.537C297.119 193.873 297.633 193.669 298.621 194.16ZM257.282 192.656C259.063 193.826 259.174 194.18 258.514 195.937C258.313 196.47 258.03 197.064 258.099 197.589C258.329 199.321 257.486 200.254 255.858 200.887C254.856 199.202 254.234 197.669 255.595 195.937C255.889 195.562 255.638 194.759 255.638 193.822C256.011 193.557 256.666 193.092 257.282 192.656ZM237.46 187.386C237.693 187.474 237.924 187.57 238.371 187.747C237.49 190.148 237.445 192.773 235.894 195.127C235.642 194.865 235.323 194.672 235.211 194.395L235.121 194.169C234.66 193 234.288 191.816 234.76 190.517C234.928 190.055 234.952 189.527 234.973 189.026C235.053 187.093 235.637 186.699 237.46 187.386ZM214.056 188.538C213.936 190.652 213.305 192.468 211.863 194.255C209.979 191.579 211.405 189.044 211.604 186.551C213.718 185.786 214.182 186.299 214.056 188.538ZM267.991 180.368C268.324 180.496 268.763 181.006 268.733 181.307C268.501 183.639 268.496 186.01 267.531 188.229C266.939 189.589 265.844 190.423 264.59 191.677C264.59 189.721 264.19 188.075 264.688 186.774C265.355 185.037 265.463 183.192 266.157 181.5C266.297 181.157 266.52 180.77 266.817 180.59C267.147 180.39 267.668 180.242 267.991 180.368ZM247.33 181.485C247.799 181.672 248.412 181.918 249.079 182.185C248.876 184.005 248.777 185.758 248.442 187.464C248.314 188.108 247.642 188.646 247.153 189.323C246.507 189.017 246.007 188.78 245.307 188.448C245.424 187.814 245.398 187.086 245.696 186.533C246.248 185.508 246.413 184.552 245.855 183.694C246.372 182.92 246.81 182.263 247.33 181.485ZM285.246 180.88C285.099 182.591 284.821 184.314 284.364 185.966C284.133 186.803 283.38 187.495 282.816 188.319C281.494 186.441 281.494 184.498 282.669 178.405C284.534 178.114 285.419 178.874 285.246 180.88ZM225.886 180.962C227.221 181.013 227.704 181.708 227.741 182.824C227.81 184.915 227.538 186.849 225.491 188.02C223.362 185.838 223.482 183.813 225.886 180.962ZM258.434 177.402C259.978 178.904 259.138 180.525 258.656 182.164C258.163 182.383 257.661 182.607 256.963 182.918C256.369 181.652 255.569 180.471 255.899 179.138C256.174 178.025 257.097 177.283 258.434 177.402ZM297.639 169.804C297.76 171.98 296.677 173.837 296.153 175.841C295.951 176.615 295.573 177.285 295.857 178.207C296.166 179.214 295.491 180.193 293.848 181.855C293.077 180.292 292.693 178.999 293.123 177.246C293.575 175.404 294.067 173.487 294.053 171.498C294.046 170.489 294.68 169.476 295.037 168.429C295.317 168.407 295.687 168.372 296.057 168.349C297.309 168.273 297.571 168.579 297.639 169.804ZM200.306 169.519C201.638 173.617 199.879 176.966 198.223 180.574C197.122 179.622 197.236 178.444 196.982 177.493C196.776 176.717 197.075 175.784 197.239 174.938C197.438 173.913 197.852 172.984 197.87 171.855C197.886 170.825 198.914 169.945 200.306 169.519ZM241.616 166.755C244.088 167.142 244.089 168.65 243.397 170.39C242.861 171.734 242.22 172.986 242.377 174.549C242.438 175.157 241.724 175.848 241.35 176.494C240.9 177.271 240.437 178.04 239.833 179.062C238.645 176.37 238.357 174.091 239.742 171.748C240.148 171.063 240.484 170.179 240.43 169.415C240.349 168.275 240.757 167.506 241.616 166.755ZM251.021 165.407C251.315 165.627 251.538 165.942 251.787 166.207C251.099 168.105 250.537 169.977 249.731 171.737C249.346 172.578 248.496 173.206 247.734 174.07C247.283 173.029 246.964 172.294 246.638 171.541C247.153 169.836 248.096 168.244 248.288 166.356C248.401 165.239 250.113 164.73 251.021 165.407ZM214.97 164.241C215.297 164.579 215.834 164.871 215.919 165.263C216.512 167.995 216.891 170.751 216.086 173.516C216.056 173.616 215.904 173.679 215.721 173.835C212.818 170.609 212.474 166.657 214.97 164.241ZM262.377 159.868C262.567 159.907 262.809 159.992 263.055 160.002C264.198 160.049 264.594 160.412 264.721 161.398C265.077 164.167 264.359 166.77 263.418 169.304C263.017 170.385 262.312 171.387 261.005 172.026C260.885 171.514 260.702 171.117 260.714 170.726C260.765 169.094 259.896 167.367 261.241 165.85C261.453 165.611 261.507 165.093 261.424 164.756C260.993 162.995 261.631 161.454 262.377 159.868ZM231.971 160.905C233.065 161.835 233.252 162.208 232.596 163.458C231.919 164.749 231.349 166.055 231.232 167.545C231.139 168.738 230.32 169.562 229.576 170.435C227.94 169.392 228.353 167.719 228.44 166.445C228.564 164.614 229.298 162.824 229.788 160.953C230.441 160.737 231.098 160.163 231.971 160.905ZM276.186 162.915C276.893 165.016 275.625 168.646 273.851 169.676C272.698 167.803 273.207 165.86 273.685 163.957C274.029 162.586 275.18 162.843 276.186 162.915ZM290.72 154.455C291.104 154.641 291.599 155.218 291.555 155.565C291.306 157.491 291.414 159.503 290.341 161.264C289.928 161.943 289.615 162.683 289.179 163.55C287.983 161.188 287.991 158.887 288.486 156.58C288.623 155.94 289.109 155.327 289.568 154.822C289.815 154.551 290.447 154.322 290.72 154.455ZM245.048 150.302C245.505 151.592 245.869 152.621 246.283 153.789C245.672 155.383 245.058 157.148 244.317 158.859C243.881 159.863 243.193 160.7 241.583 160.404C241.535 159.77 241.33 159.031 241.459 158.354C241.713 157.02 242.149 155.719 242.515 154.406C242.616 154.044 242.898 153.648 242.824 153.334C242.365 151.418 244.047 151.302 245.048 150.302ZM220.509 146.959C221.445 147.097 221.88 147.665 221.862 148.7C221.837 150.074 221.924 151.462 221.746 152.814C221.578 154.078 221.126 155.305 220.8 156.547C220.592 156.554 220.384 156.56 220.176 156.567C219.032 154.859 218.197 153.064 218.642 150.862C218.813 150.018 218.892 149.155 219.043 148.307C219.188 147.5 219.477 146.806 220.509 146.959ZM237.48 146.392C238.264 148.882 238.024 151.081 235.701 154.372C233.934 152.572 234.661 150.409 234.787 148.4C234.846 147.455 236.308 146.489 237.48 146.392ZM278.122 146.238C278.992 146.502 278.993 146.98 278.738 147.838C278.355 149.128 278.534 150.568 277.758 151.778C277.458 152.246 277.18 152.727 276.719 153.487C276.327 152.994 276.064 152.793 275.978 152.534C275.365 150.679 275.549 148.846 276.239 147.052C276.525 146.31 277.29 145.985 278.122 146.238ZM257.325 143.799C257.73 144.114 258.164 144.451 258.576 144.772C257.967 147.241 258.084 149.878 256.336 152.231C255.726 150.782 255.206 149.546 254.773 148.519C254.94 147.467 255.046 146.569 255.24 145.691C255.313 145.355 255.519 144.981 255.781 144.769C256.253 144.386 256.813 144.111 257.325 143.799ZM233.554 135.413C233.515 137.308 233.747 139.364 232.348 141.053C231.985 141.49 231.966 142.213 231.708 143.076C229.202 140.088 231.044 137.115 231.109 134.165C233.043 133.149 233.598 133.324 233.554 135.413ZM247.945 132.984C248.933 133.07 249.711 133.847 249.463 134.779C248.942 136.748 248.685 138.861 247.082 140.644C245.018 138.163 246.349 135.591 246.373 133.079C246.955 133.039 247.456 132.942 247.945 132.984ZM270.494 129.881C271.211 130.605 271.356 131.491 271.09 132.488C270.518 134.628 270.478 136.96 268.697 138.821C267.795 136.874 267.143 135.038 267.864 132.929C268.182 131.999 268.267 130.989 268.485 129.871C269.018 129.746 269.759 129.138 270.494 129.881ZM261.772 124.718C261.823 124.721 261.871 124.79 262.049 124.927C262.136 127.706 261.088 130.157 259.369 132.519C258.282 131.242 258.223 129.836 258.352 128.4C258.397 127.901 258.611 127.419 258.684 126.92C258.958 125.074 259.251 124.783 261.029 124.705C261.276 124.694 261.525 124.703 261.772 124.718Z" fill="#A1483A"/>
<path fill-rule="evenodd" clip-rule="evenodd" d="M287.825 128.98C316.727 106.5 334.682 88.9783 341.691 76.4145C344.408 71.4631 348.094 64.9002 352.749 56.7256C366.053 65.0573 376.304 70.2513 383.5 72.3076C390.696 74.3639 402.129 77.3209 417.799 81.1788C412.028 97.2452 403.243 113.179 391.444 128.98C379.646 144.781 369.426 155.937 360.786 162.448C346.299 167.989 332.898 167.989 320.582 162.448C308.267 156.907 297.348 145.751 287.825 128.98Z" fill="white"/>
<path fill-rule="evenodd" clip-rule="evenodd" d="M186.487 43.5776L348.479 302.193L351.127 306.816L356.385 321.701L350.26 327.535L334.663 318.098L330.405 312.131L182.591 77.2149L168.72 55.2546C166.777 49.1348 168.06 44.5682 172.57 41.555C177.08 38.5418 181.719 39.216 186.487 43.5776Z" fill="white"/>
<path fill-rule="evenodd" clip-rule="evenodd" d="M80.427 232.842C92.3532 238.258 101.24 241.446 107.087 242.407C112.934 243.367 120.007 243.367 128.305 242.407L135.56 186.904L107.626 186.319L92.2919 184.403L88.5891 183.599L86.5285 201.076L84.1154 216.84L79.1909 231.311L80.427 232.842Z" fill="white"/>
<path fill-rule="evenodd" clip-rule="evenodd" d="M196.538 59.9689C194.811 61.1494 193.313 62.1609 191.828 63.1908C188.211 65.7008 184.613 68.2369 180.979 70.7223C180.605 70.9779 180.162 71.3158 180.162 71.3158L181.044 72.6595C186.579 69.0378 192.06 65.4508 197.639 61.7997C197.291 61.2215 196.981 60.706 196.538 59.9689ZM184.377 78.3681C190.021 74.6133 195.514 70.9594 201.109 67.2374C200.232 65.8509 199.497 64.6888 198.598 63.2665C192.949 66.9582 187.423 70.5693 181.773 74.2613C182.683 75.6976 183.522 77.0197 184.377 78.3681ZM191.251 51.4559C185.644 55.5008 180.278 59.3725 174.854 63.2853C176.281 65.5334 177.54 67.7454 179.096 69.8677C184.68 66.0044 190.063 62.2796 195.614 58.4388C194.139 56.0781 192.748 53.8508 191.251 51.4559ZM355.741 321.31C355.741 321.31 355.506 320.478 355.415 320.227C354.068 316.49 352.608 312.79 351.396 309.01C351.321 308.776 351.232 308.544 351.136 308.32C350.526 306.903 349.534 305.68 348.296 304.756C347.923 304.478 347.583 304.27 347.221 304.086C344.667 302.582 341.609 304.491 341.424 307.458C341.379 308.2 341.577 308.972 341.75 309.71C341.924 310.454 342.27 311.161 342.412 311.908C342.48 312.26 342.36 312.878 342.126 313.003C341.769 313.193 341.199 313.174 340.795 313.031C340.356 312.875 340.009 312.468 339.611 312.186C339.043 311.782 338.498 311.329 337.886 311.007C336.076 310.056 334.909 310.699 334.783 312.764C334.725 313.729 334.869 314.709 334.963 315.678C335.011 316.179 335.165 316.826 335.165 316.826L338.731 319.254C341.613 320.967 345.465 323.798 346.61 324.637C347.369 325.192 348.003 325.569 348.92 326.072C350.194 323.129 352.205 321.225 355.741 321.31ZM173.792 61.9C179.502 57.7775 184.861 53.9082 190.289 49.9892C188.366 46.765 186.568 43.8936 183.302 42.116C179.211 39.89 174.551 40.837 171.384 43.5537C168.406 46.108 167.414 49.884 169.027 53.3942C170.327 56.2235 172.063 58.8532 173.792 61.9ZM336.23 308.949C287.826 232.426 239.167 155.615 190.763 79.0919C189.506 80.2379 188.25 81.3842 186.993 82.5305C188.282 84.5755 189.57 86.6209 190.859 88.6659L194.725 94.8014C196.014 96.8468 197.302 98.8919 198.591 100.937L202.457 107.073C203.745 109.118 205.034 111.163 206.323 113.208L210.189 119.344C211.477 121.389 212.766 123.434 214.055 125.479C215.343 127.525 216.632 129.57 217.92 131.615C219.209 133.66 220.498 135.705 221.786 137.75C223.075 139.795 224.363 141.841 225.652 143.886L229.519 150.021C230.807 152.066 232.096 154.111 233.384 156.157C234.673 158.202 235.962 160.247 237.25 162.292C238.538 164.337 239.827 166.383 241.116 168.428C242.405 170.473 243.694 172.518 244.982 174.563L248.848 180.699C250.137 182.744 251.425 184.789 252.714 186.835L256.58 192.97C257.869 195.015 259.157 197.061 260.446 199.106L264.312 205.241C265.6 207.286 266.889 209.331 268.177 211.376L272.044 217.512C273.332 219.557 274.621 221.602 275.91 223.647C277.198 225.693 278.487 227.738 279.775 229.783L283.641 235.919C284.917 237.944 286.183 239.972 287.462 241.996L291.333 248.127C292.623 250.171 293.914 252.214 295.204 254.258C296.495 256.302 297.785 258.346 299.076 260.389L302.947 266.52C304.237 268.563 305.528 270.607 306.818 272.651C308.108 274.694 309.399 276.738 310.689 278.781C311.98 280.825 313.27 282.869 314.56 284.912C315.851 286.956 317.141 288.999 318.432 291.043C319.722 293.086 321.013 295.13 322.303 297.174C323.593 299.217 324.884 301.261 326.174 303.304L330.045 309.436C330.536 310.212 331.026 310.988 331.516 311.765C331.762 312.153 332.007 312.542 332.252 312.93C332.375 313.124 332.497 313.318 332.62 313.512C332.705 313.648 332.977 313.939 332.988 314.095C332.22 310.46 334.206 309.176 336.23 308.949ZM193.857 75.9226C242.46 153.069 290.867 229.904 339.443 307.007C340.107 303.475 342.432 301.412 347.954 302.554C299.215 225.058 249.64 147.321 201.017 70.01C198.515 72.0764 196.258 73.9403 193.857 75.9226ZM362.191 334.097C362.463 335.205 361.217 336.081 360.272 335.438C360.072 335.302 359.882 335.16 359.687 335.037C351.925 330.15 344.207 325.193 336.401 320.38C334.497 319.206 333.08 317.78 331.896 315.899C290.839 250.666 249.746 185.455 208.657 120.241C196.29 100.612 183.93 80.9782 171.53 61.3695C170.038 59.0101 168.387 56.7705 167.369 54.128C165.427 49.0933 167.302 43.5987 172.034 40.9638C177.883 37.7066 182.49 38.9215 187.171 42.6815C188.074 43.4072 188.843 44.3764 189.462 45.3658C231.406 112.432 273.328 179.512 315.252 246.59C326.734 264.959 338.169 283.358 349.746 301.668C351.802 304.921 352.974 308.461 354.269 311.989C356.676 318.547 359.024 325.129 361.37 331.71C361.648 332.491 361.986 333.264 362.191 334.097Z" fill="black"/>
<path fill-rule="evenodd" clip-rule="evenodd" d="M88.5932 182.117C88.6739 182.121 88.7493 182.134 88.8192 182.162C93.5018 184.049 98.4652 184.721 103.414 185.01C112.091 185.518 120.791 185.649 129.483 185.883C131.233 185.93 132.99 185.667 134.745 185.661C136.025 185.657 136.882 186.709 136.634 187.963C133.994 201.306 132.827 214.854 130.979 228.307C130.397 232.535 130.115 236.804 129.68 241.053C129.475 243.047 129.232 243.271 127.14 243.767C126.428 243.936 125.698 244.041 124.966 244.064C113.314 244.424 101.925 242.844 90.9507 238.915C87.1504 237.555 83.6104 235.465 79.9701 233.67C79.695 233.535 79.4393 233.36 79.1816 233.166C78.5952 232.724 78.399 231.937 78.6818 231.259C82.8444 221.307 84.5708 211.018 85.8212 200.629C86.4983 195.001 86.97 189.348 87.5394 183.707C87.5649 183.456 87.6016 183.206 87.6425 182.942C87.7155 182.473 88.1177 182.098 88.5932 182.117ZM89.3279 184.403L89.118 186.528C87.6019 201.931 86.1425 217.253 80.4274 231.873C80.9968 232.224 81.5152 232.565 82.0537 232.871C87.4482 235.94 93.1479 238.196 99.21 239.613C107.587 241.572 116.038 242.685 124.65 242.347C125.731 242.304 126.802 242.008 127.811 241.84C129.759 223.481 131.864 205.432 134.825 187.557C119.501 187.5 104.338 188.114 89.3279 184.403ZM107.323 197.968C111.662 197.941 113.72 200.959 112.326 205.028C112.147 205.552 111.938 206.066 111.68 206.749C112.526 206.944 113.148 207.055 113.75 207.231C116.273 207.969 117.481 210.085 116.729 212.615C116.434 213.609 115.94 214.559 115.435 215.474C114.963 216.329 114.202 217.332 113.625 218.191C113.718 218.342 114.161 218.502 114.309 218.6C116.11 219.786 116.707 221.796 115.685 223.688C114.087 226.648 112.105 229.404 110.257 232.228C109.945 232.706 109.452 233.118 108.852 232.606C108.269 232.108 108.638 231.589 108.954 231.118C110.323 229.082 111.732 227.071 113.059 225.007C113.585 224.19 114.021 223.291 114.341 222.375C114.631 221.547 114.557 220.706 113.616 220.203C112.776 219.753 112.093 219.823 111.324 220.482C110.38 221.29 109.371 222.009 108.381 222.759C107.749 223.237 107.091 223.7 106.354 224.003C105.686 224.278 104.754 224.59 104.067 224.226C102.93 223.624 103.286 222.368 103.958 221.545C105.362 219.824 107.613 218.817 109.763 218.423C111.062 218.185 111.965 217.571 112.611 216.514C113.411 215.205 114.287 213.919 114.895 212.522C115.578 210.953 115.106 209.783 113.841 209.117C112.382 208.349 110.875 208.644 110.134 209.085C110.134 209.085 109.767 209.548 109.657 209.664C108.352 211.037 107.031 212.396 105.661 213.704C104.515 214.797 103.219 215.93 101.584 216.147C100.451 216.297 99.3827 215.503 99.5786 214.307C99.7982 212.964 100.813 211.685 101.794 210.795C103.474 209.269 105.602 208.245 107.759 207.582C108.133 207.467 108.784 207.297 108.784 207.297C110.238 206.221 111.318 203.804 111.013 202.144C110.818 201.082 110.132 200.436 109.16 200.032C107.727 199.436 106.241 199.469 104.799 199.838C100.865 200.843 97.5668 202.906 95.0003 206.048C94.5278 206.626 94.3316 207.42 93.9064 208.046C93.8951 208.063 93.8839 208.078 93.8715 208.094C93.4246 208.675 92.4338 208.492 92.3027 207.772C92.295 207.729 92.2911 207.685 92.2926 207.641C92.3066 207.116 92.5227 206.52 92.84 206.091C96.438 201.232 101.028 198.008 107.323 197.968ZM107.157 209.889C104.601 210.567 102.752 211.842 101.992 213.405C101.799 213.8 102.251 214.195 102.632 213.971C104.392 212.936 105.764 211.526 107.157 209.889Z" fill="#BD8CE9"/>
<path fill-rule="evenodd" clip-rule="evenodd" d="M353.909 56.0832C357.398 58.9148 361.168 61.3015 365.172 63.3494C377.636 69.7248 390.683 74.4053 404.428 77.1388C408.61 77.9702 412.76 78.9661 416.917 79.9173C419.089 80.4142 419.242 80.681 418.505 82.7697C415.818 90.3758 412.292 97.595 408.359 104.626C397.381 124.248 383.425 141.596 367.826 157.69C367.29 158.243 366.698 158.748 366.209 159.339C362.69 163.589 357.842 165.29 352.669 166.135C349.58 166.639 346.405 166.629 343.289 166.848C338.222 166.473 333.18 166.269 328.184 165.676C324.007 165.18 320.045 163.865 316.47 161.462C310.165 157.223 304.483 152.272 299.196 146.841C295.472 143.017 292.183 138.849 289.24 134.403C288.777 133.703 288.33 132.992 287.911 132.265C286.805 130.347 286.505 128.835 289.03 126.931C301.114 117.82 312.619 108.05 323.247 97.2324C334.995 85.2749 344.551 71.867 351.504 56.6121C352.243 54.9896 352.515 54.9518 353.909 56.0832ZM338.69 157.579C335.211 160.282 331.254 161.964 326.91 162.728C326.429 162.813 325.95 162.91 325.47 163.002C325.01 163.06 323.768 162.96 323.768 163.105C324.77 163.303 327.468 163.907 328.479 164.021C335.36 164.801 342.266 165.159 349.185 164.849C352.313 164.709 355.397 164.117 358.681 162.536C357.774 162.335 357.305 162.176 356.826 162.133C351.655 161.656 346.879 159.961 342.451 157.32C341.021 156.468 339.963 156.59 338.69 157.579ZM352.879 57.9194C352.52 58.6361 352.172 59.3179 351.834 60.005C345.709 72.4413 338.178 83.8903 328.629 94.022C319.153 104.075 309.127 113.498 298.228 121.989C295.086 124.436 291.964 126.909 288.522 129.615C289.237 130.897 289.816 132.077 290.522 133.176C294.708 139.695 299.828 145.422 305.552 150.615C309.649 154.332 313.889 157.872 318.647 160.746C319.644 161.349 320.631 161.662 321.805 161.584C327.197 161.229 332.315 160.05 336.785 156.815C337.465 156.322 338.165 155.857 338.865 155.394C339.88 154.724 340.928 154.602 342.03 155.21C342.642 155.548 343.301 155.802 343.901 156.157C348.32 158.771 353.153 160.046 358.208 160.62C360.735 160.908 362.772 160.46 364.761 158.438C375.927 147.085 386.201 134.997 395.383 122C403.395 110.66 410.318 98.6878 415.533 85.7811C416.046 84.5123 416.476 83.2101 416.976 81.8397C416.402 81.6468 416.02 81.4805 415.622 81.3905C411.803 80.5313 407.98 79.6871 404.16 78.8337C395.765 76.9575 387.397 74.9896 379.42 71.666C370.376 67.8978 361.347 64.1042 353.492 58.068C353.353 57.9609 353.121 57.974 352.879 57.9194ZM346.562 140.94C347.142 141.15 347.673 141.504 348.213 141.816C351.94 143.971 355.668 146.127 359.385 148.301C359.389 148.303 359.392 148.305 359.396 148.307C360.014 148.675 360.187 149.519 359.811 150.139C359.151 151.23 358.414 152.243 357.674 153.091C356.702 154.204 355.094 154.462 353.835 153.703C350.062 151.427 346.269 149.137 342.47 146.858C341.642 146.362 341.476 145.693 341.963 144.914C342.704 143.729 343.495 142.573 344.307 141.436C344.891 140.618 345.743 140.643 346.562 140.94ZM345.723 142.401C344.996 143.473 344.356 144.416 343.607 145.521C347.738 147.988 351.659 150.329 355.597 152.681C355.969 152.325 356.245 152.112 356.456 151.847C356.976 151.197 357.466 150.523 358.086 149.704C353.872 147.214 349.878 144.856 345.723 142.401ZM330.319 103.083C330.559 103.097 330.788 103.368 331.013 103.533C336.571 107.598 342.602 110.867 348.762 113.921C351.395 115.227 351.449 115.491 349.422 117.595C343.404 123.839 337.367 130.065 331.33 136.291C330.705 136.936 330.124 137.694 328.581 137.566C327.963 137.358 326.852 137.108 325.854 136.626C320.153 133.879 315.378 129.926 311.149 125.29C310.825 124.934 310.636 124.461 310.353 124.064C309.755 123.229 309.919 122.511 310.64 121.848C310.897 121.612 311.141 121.36 311.384 121.109C316.746 115.594 322.106 110.077 327.467 104.561C327.906 104.109 328.28 103.546 328.806 103.245C329.212 103.012 329.812 103.052 330.319 103.083ZM327.972 120.949C322.894 122.009 317.865 123.059 312.766 124.123C315.173 127.953 324.114 134.551 327.972 135.317V120.949ZM347.522 117.194C347.522 117.194 345.999 117.451 345.778 117.474C340.291 118.47 335.559 119.443 330.167 120.421C329.483 124.739 329.434 133.274 330.113 135.071C335.673 129.282 342.022 122.921 347.522 117.194ZM352.585 120.673C352.97 120.69 353.36 120.953 353.719 121.16C360.043 124.814 366.364 128.472 372.68 132.141C373.034 132.347 373.388 132.602 373.641 132.917C373.774 133.083 373.775 133.468 373.677 133.68C373.649 133.74 373.605 133.793 373.551 133.842C373.28 134.085 372.879 134.117 372.549 133.967C372.247 133.832 371.961 133.701 371.69 133.545C365.303 129.863 358.92 126.173 352.537 122.482C352.296 122.343 351.993 122.236 351.85 122.025C351.677 121.77 351.474 121.272 351.586 121.141C351.811 120.879 352.247 120.658 352.585 120.673ZM349.424 126.951C352.601 128.705 355.77 130.474 358.922 132.271C359.006 132.319 359.095 132.364 359.186 132.41C360.135 132.891 359.51 134.387 358.524 133.992C358.444 133.96 358.366 133.924 358.291 133.883C355.043 132.116 351.819 130.301 348.605 128.471C347.98 128.115 346.946 127.761 347.471 126.797C348.024 125.781 348.807 126.61 349.424 126.951ZM328.35 106.314C323.131 111.715 317.676 117.336 312.766 122.417C312.826 122.524 314.332 121.996 314.608 121.962C319.46 120.943 323.198 120.158 328.151 119.117C328.31 114.744 328.488 110.704 328.35 106.314ZM330.277 105.515V118.618C335.888 117.611 341.551 116.596 347.522 115.526C341.648 112.116 336.087 108.888 330.277 105.515ZM373.847 105.157C377.362 106.696 380.898 108.187 384.423 109.702C385.448 110.143 386.476 110.581 387.482 111.062C388.976 111.778 389.174 112.262 388.587 113.873C388.135 115.112 387.559 116.308 387.137 117.556C386.771 118.639 386.138 118.746 385.199 118.342C382.956 117.376 380.688 116.47 378.46 115.474C375.404 114.108 372.374 112.682 369.338 111.271C369.303 111.254 369.269 111.235 369.233 111.208C368.799 110.898 368.694 110.297 368.959 109.835C369.795 108.371 370.599 106.936 371.458 105.534C372.066 104.543 372.924 104.753 373.847 105.157ZM372.803 106.586C372.133 107.767 371.542 108.812 370.884 109.973C375.854 112.309 380.522 114.738 385.592 116.583C386.123 115.301 386.592 114.164 387.166 112.777C382.271 110.667 377.624 108.664 372.803 106.586ZM353.463 71.8307C358.667 73.9895 363.866 76.1591 369.062 78.3363C371.159 79.2143 371.409 79.8063 370.212 81.7985C367.492 86.3237 364.739 90.8313 361.9 95.2833C360.07 98.1532 358.05 100.902 356.147 103.726C355.676 104.424 355.158 104.88 354.225 104.814C352.263 104.11 350.183 103.626 348.363 102.656C344.255 100.466 340.249 98.082 336.258 95.6816C334.708 94.7488 334.652 94.0833 335.74 92.6267C337.529 90.2313 339.435 87.9208 341.183 85.4966C344.191 81.3252 347.132 77.1056 350.067 72.8822C351.263 71.1618 351.521 71.0251 353.463 71.8307ZM352.383 89.9824C347.779 91.7047 343.297 93.3818 338.59 95.1424C343.595 98.2091 348.234 101.469 354.037 102.752C353.467 98.3523 352.926 94.1756 352.383 89.9824ZM367.495 82.4054C363.063 84.6182 358.632 86.8311 354.069 89.1093C354.545 92.9997 355.049 97.6505 355.514 101.463C355.709 101.485 356.06 100.69 356.06 100.69C360.18 94.8296 364.268 88.9485 367.495 82.4054ZM372.819 91.269C376.831 92.7181 380.821 94.2259 384.817 95.7182C385.34 95.9136 385.881 96.0895 386.358 96.3636C386.426 96.4021 386.487 96.4524 386.544 96.5114C386.906 96.8834 386.852 97.5152 386.377 97.7348C386.318 97.7621 386.261 97.7768 386.204 97.7749C385.661 97.7568 385.102 97.6195 384.588 97.4312C380.451 95.9167 376.318 94.3919 372.197 92.8353C371.47 92.5609 370.231 92.3915 370.667 91.3094C371.126 90.1695 372.13 91.0198 372.819 91.269ZM375.855 85.3565C382.739 87.4465 389.619 89.5476 396.5 91.6492C396.7 91.7101 396.955 91.7471 397.073 91.8886C397.089 91.9082 397.105 91.9279 397.12 91.9479C397.523 92.4571 397.373 93.2091 396.817 93.5441L396.811 93.548C395.731 93.2303 394.925 92.9995 394.122 92.7562C387.706 90.8096 381.29 88.8615 374.875 86.9122C374.608 86.8313 374.278 86.8105 374.096 86.637C374.035 86.5796 373.98 86.5167 373.928 86.4504C373.579 86.0018 373.751 85.2952 374.293 85.1268C374.335 85.1137 374.377 85.1052 374.42 85.1009C374.887 85.0581 375.389 85.215 375.855 85.3565ZM351.237 74.7236C346.598 81.0273 342.207 86.9934 337.515 93.3692C343.014 91.9601 347.719 89.9985 352.474 87.84C352.062 83.4764 351.666 79.2798 351.237 74.7236ZM353.334 73.6813C352.912 75.3833 353.847 86.053 354.069 86.9881C358.549 84.7339 363.39 82.4931 368.345 79.9989C363.02 77.7577 358.187 75.7237 353.334 73.6813Z" fill="#009DE9"/>
<path fill-rule="evenodd" clip-rule="evenodd" d="M130.688 151.836H145.139L165.091 185.291L175.722 202.697L176.853 175.53L180.951 150.9L184.096 144.78H232.357L235.628 169.095L236.715 204.486L237.534 240.373L237.84 296.726L238.831 320.448L233.816 333.943L224.599 324.865L222.108 313.963L218.231 285.657L214.837 249.814L212.216 220.984L210.186 202.697L208.658 207.357L203.764 225.881L197.096 241.979L189.657 250.757L181.735 253.359L172.732 250.757L162.378 239.362L154.348 223.422L147.041 204.486L138.301 179.12L132.962 162.752L130.688 151.836Z" fill="white"/>
<path fill-rule="evenodd" clip-rule="evenodd" d="M136.047 156.404C136.047 157.824 136.056 159.347 136.044 160.87C136.031 162.573 135.765 164.187 134.21 165.266C134.713 166.597 135.172 167.813 135.652 169.086C140.426 166.206 145.015 163.438 149.71 160.606C148.824 159.114 148.017 157.754 147.216 156.404H136.047ZM222.627 308.58C223.255 313.35 223.6 317.751 224.211 322.172C224.524 322.627 224.745 322.966 225.001 323.271C226.841 325.473 228.7 327.66 230.569 329.837C230.861 330.177 231.236 330.444 231.604 330.772C233.336 328.114 234.881 325.53 236.655 323.113C237.084 322.528 237.475 322.019 237.763 321.468C237.763 321.468 237.805 320.576 237.728 319.655C237.6 317.352 237.564 315.044 237.477 312.739C237.444 311.849 237.377 310.96 237.314 309.893C232.41 309.455 227.689 309.033 222.627 308.58ZM150.542 162.027C145.764 164.899 140.891 167.874 136.257 170.66C136.257 170.66 136.5 171.246 136.586 171.496C141.198 184.919 145.686 198.386 150.487 211.741C153.73 220.763 157.644 229.523 162.617 237.761C165.496 242.531 168.899 246.835 173.594 250.025C178.12 253.101 182.668 253.336 187.406 250.625C189.503 249.426 191.259 247.845 192.81 246.014C195.923 242.342 198.17 238.168 199.969 233.734C203.795 224.3 206.575 214.541 208.319 204.54C210.648 191.184 212.961 177.808 213.503 164.215C213.561 162.748 213.725 161.285 213.771 159.818C213.799 158.948 214.137 158.355 214.925 158.001C216.072 157.485 217.197 156.916 218.372 156.475C218.453 156.445 218.549 156.453 218.653 156.482C219.136 156.62 219.38 157.189 219.15 157.634C219.099 157.733 219.037 157.814 218.956 157.861C217.874 158.487 216.727 159 215.532 159.59C215.278 162.969 215.002 166.307 214.781 169.649C214.133 179.431 212.897 189.139 211.238 198.798C211.111 199.538 211.12 200.321 211.189 201.073C212.067 210.686 212.988 220.295 213.857 229.908C214.517 237.223 215.079 244.548 215.754 251.861C216.622 261.264 217.497 270.667 218.485 280.058C219.246 287.291 219.664 294.588 221.067 301.726C221.549 304.176 221.543 303.952 221.842 305.387C221.907 305.7 222.093 306.919 222.093 306.919C222.093 306.919 223.002 307.145 223.49 307.186C227.884 307.557 232.77 308.034 237.421 308.441C237.495 306.725 237.421 305.434 237.401 304.016C237.173 287.645 236.888 271.275 236.629 254.905C236.541 249.378 236.5 243.85 236.408 238.323C236.133 221.743 235.914 205.162 235.535 188.584C235.248 176.059 234.337 163.574 232.481 151.17C232.149 148.959 232.015 146.719 231.787 144.492C231.723 143.866 231.556 143.111 232.451 143.025C233.342 142.938 233.363 143.773 233.436 144.358C233.776 147.064 234.077 149.775 234.372 152.486C235.031 158.535 235.918 164.571 236.274 170.638C236.856 180.552 237.231 190.483 237.438 200.411C237.827 219.159 238.03 237.91 238.317 256.659C238.567 273.028 238.798 289.399 239.091 305.768C239.221 313.035 239.482 320.299 239.692 327.564C239.704 327.977 239.787 328.388 239.836 328.788C245.616 330.853 251.355 332.862 257.063 334.957C260.213 336.114 263.319 337.396 266.428 338.664C267.521 339.109 268.696 339.582 268.363 341.264C268.067 342.762 266.512 344.038 264.987 344.154C263.867 344.239 262.738 344.234 261.613 344.256C256.711 344.352 251.809 344.477 246.906 344.51C245.16 344.522 243.401 344.386 241.673 344.141C241.068 344.056 240.469 343.513 239.992 343.051C239.456 342.533 239.06 341.87 238.562 341.215C238.627 341.137 238.072 341.715 237.766 342.152C236.501 343.954 234.7 344.267 232.759 344.132C231.008 344.01 229.104 343.944 227.398 343.516C226.913 343.394 226.438 343.218 226.021 342.936C225.03 342.266 224.813 340.817 224.708 339.729C224.58 338.407 224.476 337.082 224.307 335.764C223.18 326.997 222.146 318.216 220.91 309.464C220.147 304.068 218.977 298.729 218.295 293.325C217.235 284.93 216.37 276.508 215.545 268.085C214.666 259.106 213.919 250.113 213.133 241.124C212.377 232.484 211.652 223.841 210.897 215.201C210.648 212.349 210.345 209.502 209.732 206.599C209.563 207.291 209.378 207.979 209.227 208.675C207.182 218.052 204.591 227.262 200.794 236.101C198.987 240.306 196.673 244.208 193.626 247.648C190.867 250.764 187.576 253.034 183.441 253.938C179.719 254.752 176.377 253.778 173.24 251.799C169.324 249.327 166.085 246.121 163.6 242.266C161.14 238.451 158.802 234.53 156.758 230.481C151.069 219.216 146.836 207.354 142.786 195.429C140.358 188.279 138.042 181.091 135.604 173.945C134.301 170.127 132.842 166.363 131.455 162.574C131.377 162.363 131.293 162.154 131.198 161.949C130.152 159.685 129.854 159.531 127.252 160.151C121.738 161.467 116.242 162.86 110.737 164.217C109.923 164.418 109.11 164.665 108.281 164.761C106.875 164.923 106.043 164.413 105.837 163.066C105.637 161.766 105.669 160.421 105.7 159.098C105.726 158.005 106.519 157.321 107.358 156.806C109.323 155.598 111.28 154.354 113.344 153.335C116.48 151.786 119.705 150.419 122.889 148.968C124.977 148.016 126.581 148.804 128.576 149.477C128.718 148.514 128.843 147.67 129.007 146.555C132.037 145.569 135.195 144.49 138.388 143.527C139.875 143.078 141.189 143.583 142.054 144.897C143.934 147.756 145.79 150.631 147.604 153.531C148.494 154.953 149.21 156.484 150.108 157.901C156.256 167.602 161.691 177.705 167.175 187.785C169.28 191.654 171.653 195.377 173.912 199.163L174.958 200.851C175.016 199.988 175.15 198.375 175.173 197.511C175.323 191.776 175.285 186.029 175.637 180.306C176.308 169.396 177.72 158.587 181.156 148.14C181.373 147.477 181.429 146.329 182.483 146.639C183.563 146.957 182.984 147.927 182.759 148.607C179.524 158.378 178.247 168.5 177.385 178.689C177.137 181.613 177.121 184.559 177.026 187.495C176.877 192.109 176.786 196.725 176.593 201.337C176.577 203.482 176.383 202.706 177.617 205.028C177.854 205.281 178.114 205.575 178.193 205.893C178.208 205.952 178.217 206.011 178.22 206.072C178.257 206.617 177.735 207.074 177.206 206.936C177.13 206.916 177.061 206.886 177.003 206.842C176.573 206.514 176.236 206.028 175.949 205.555C172.459 199.816 168.888 194.123 165.531 188.306C160.949 180.37 156.537 172.335 152.041 164.349C151.635 163.628 151.145 162.956 150.542 162.027Z" fill="black"/>
<path fill-rule="evenodd" clip-rule="evenodd" d="M176.935 7.85223C186.886 9.02191 193.738 14.607 198.271 23.2281L198.607 23.8767C199.666 25.942 200.309 27.4272 199.965 30.5255C199.916 30.9692 199.793 31.3866 199.819 31.5416C199.869 31.8444 200.748 32.7582 200.936 33.0111L201.103 33.2323C201.788 34.13 202.678 35.1494 202.915 35.104L203.087 35.0725C203.631 34.976 204.438 34.8629 205.432 34.7706C209.019 34.437 212.481 34.8864 215.543 36.9212L215.846 37.1259C216.599 37.6246 217.957 38.4079 218.025 38.7455C218.05 38.8661 218.034 38.998 217.984 39.1126C223.633 43.8812 225.913 49.59 224.822 56.2388C223.811 62.4104 218.02 66.4086 207.45 68.2334L207.128 68.288L207.801 75.5584C208.048 76.2091 208.185 76.9239 208.185 77.674C208.185 80.6895 205.977 83.134 203.253 83.134C200.53 83.134 198.322 80.6895 198.322 77.674C198.322 76.8559 198.484 76.0799 198.775 75.3833L198.728 74.0111C198.422 65.5221 197.939 60.8526 197.279 60.0028C188.76 60.0028 188.76 55.669 189.226 53.3091C189.693 50.9491 191.748 51.533 194.04 49.6229L194.252 49.3334C194.174 49.1474 194.11 48.9233 194.061 48.6611C193.5 45.6717 194.505 43.034 195.982 40.4799C196.951 38.802 197.703 38.3418 198.087 38.0069C197.271 37.3816 196.773 36.3891 196.073 35.4511C195.47 36.1867 194.712 37.8028 194.266 38.3133C192.129 40.7631 191.254 41.9934 188.998 44.3304C186.816 46.5912 183.274 48.9928 180.35 50.2077C179.067 50.7403 177.687 51.0691 176.322 51.3565C175.663 51.4953 174.916 51.4232 174.248 51.2743C172.161 50.8098 171.454 49.003 172.211 46.9857C172.558 46.0596 173.168 45.175 173.946 44.5261L174.189 44.321C174.684 43.9027 174.981 43.6346 175.576 43.17C174.7 43.17 173.141 42.9722 172.434 42.7888C168.773 41.8395 167.694 39.1108 170.455 36.497C171.815 35.209 173.483 34.4625 174.25 33.8494C174.034 34.0205 173.099 34.0521 172.841 34.0778C172.441 34.1167 172.044 34.2091 171.644 34.2527C170.095 34.4226 168.573 34.3055 167.037 34.1399L166.46 34.076C165.203 33.9362 163.877 33.8357 162.731 33.2637C160.486 32.1441 159.932 29.9399 161.596 28.0578C162.491 27.0446 162.97 26.8201 164.139 26.0739C164.715 25.7064 166.491 24.9627 167.407 24.5836L167.207 24.4421C166.54 23.9768 166.21 23.8134 165.869 23.4801C164.286 21.9385 164.471 20.1777 166.416 19.0861C167.281 18.6006 168.816 18.1772 170.092 18.0156C169.302 17.5881 168.959 17.3014 168.172 16.5573C166.07 14.3601 166.203 11.8239 168.594 9.94506C171.047 8.01665 173.971 7.50372 176.935 7.85223Z" fill="white"/>
<path fill-rule="evenodd" clip-rule="evenodd" d="M176.935 7.85223C186.987 9.03373 193.876 14.7202 198.408 23.4903C199.583 25.7662 200.33 27.2375 199.965 30.5255C199.916 30.9692 199.793 31.3866 199.819 31.5416C199.869 31.8444 200.748 32.7582 200.936 33.0111C201.635 33.9527 202.658 35.1531 202.915 35.104C203.455 35.0014 204.327 34.8731 205.432 34.7706C209.086 34.4308 212.609 34.9034 215.713 37.0359C216.425 37.5249 217.953 38.3868 218.025 38.7455L218.028 38.7614C218.667 39.2788 219.53 40.026 220.029 40.507C222.03 42.4335 223.53 44.7161 224.805 47.183C226.877 51.1914 226.564 55.0747 224.397 58.897C222.82 61.6802 220.596 63.8663 217.909 65.5748C215.183 67.3079 212.213 68.4538 209.054 69.1182C208.69 69.1949 208.33 69.2908 207.81 69.4155C208.145 71.3011 208.467 73.1103 208.787 74.9202C208.921 75.6754 209.054 76.431 209.179 77.188C209.281 77.8112 209.539 78.6492 208.717 78.8141C207.952 78.999 207.793 77.944 207.627 77.0211C207.288 75.1397 207.434 75.2947 207.058 73.7909C206.476 71.4642 206.533 71.4596 205.532 70.8315C205.3 70.7294 204.608 70.2105 204.12 69.885C203.893 69.7339 203.686 69.5564 203.513 69.3447C203.369 69.1675 203.326 69.0533 203.344 68.7374C203.395 67.8352 204.349 67.9448 205.017 67.8543C205.84 67.7429 206.676 67.7271 207.5 67.6175C213.469 66.8221 218.492 64.2795 222.096 59.3659C224.858 55.6016 225.424 51.5824 223.058 47.3225C221.646 44.7785 219.779 41.8562 217.485 40.0417C217.304 39.8986 217.141 39.7762 217.009 39.6601C215.609 40.1541 214.343 40.3651 212.825 40.6506C211.049 40.984 208.409 41.101 206.624 40.84C205.012 40.6043 203.954 40.3601 202.403 39.8623C202.2 40.442 202.028 40.9011 201.875 41.367C200.815 44.6062 198.986 47.3216 196.326 49.4622C195.872 49.8276 195.478 50.0203 195.148 50.0359C195.104 50.1239 195.05 50.1978 194.985 50.246C194.533 50.5817 193.953 50.7395 193.447 51.0083C192.548 51.4849 191.565 51.8696 190.792 52.5057C188.252 54.5971 188.766 57.8428 191.814 59.0514C192.628 59.3741 193.545 59.4674 194.426 59.5798C194.99 59.6517 195.575 59.5819 196.148 59.5484C198.039 59.4382 198.178 59.5724 198.264 61.5239C198.34 63.2475 198.402 64.9729 198.54 66.6915C198.833 70.3209 199.162 73.9474 199.498 77.5728C199.53 77.9156 199.615 78.2632 199.536 78.6078C199.392 79.2422 198.481 79.2608 198.265 78.6469C198.109 78.203 197.977 77.7926 197.941 77.3738C197.527 72.5369 197.173 67.6951 196.798 62.8551C196.759 62.3538 196.712 61.8536 196.65 61.1269C195.915 61.1269 195.238 61.1319 194.561 61.1262C193.038 61.1132 191.594 60.7958 190.29 59.9909C187.73 58.4117 186.977 55.2153 188.635 52.7062C189.969 50.6877 192.08 49.9098 194.176 49.1259C194.131 48.9872 194.093 48.8323 194.061 48.6611C193.5 45.6717 194.505 43.034 195.982 40.4799C196.951 38.802 197.703 38.3417 198.087 38.0069C197.271 37.3816 196.773 36.3891 196.073 35.4511C195.47 36.1867 194.712 37.8028 194.266 38.3133C192.129 40.7631 191.254 41.9934 188.998 44.3304C186.816 46.5912 183.274 48.9928 180.35 50.2077C179.067 50.7403 177.687 51.0691 176.322 51.3565C175.663 51.4953 174.916 51.4232 174.248 51.2743C172.161 50.8098 171.454 49.003 172.211 46.9857C172.558 46.0596 173.168 45.175 173.946 44.5261C174.599 43.9805 174.889 43.7061 175.576 43.17C174.7 43.17 173.141 42.9722 172.434 42.7888C168.773 41.8395 167.694 39.1108 170.455 36.497C171.815 35.209 173.483 34.4624 174.25 33.8494C174.034 34.0205 173.099 34.0521 172.841 34.0777C172.441 34.1167 172.044 34.2091 171.644 34.2527C169.901 34.4438 168.193 34.2717 166.46 34.076C165.203 33.9362 163.877 33.8357 162.731 33.2637C160.486 32.1441 159.932 29.9399 161.596 28.0578C162.491 27.0446 162.97 26.8201 164.139 26.0739C164.715 25.7064 166.491 24.9627 167.407 24.5836C166.603 24.0064 166.243 23.8451 165.869 23.4801C164.286 21.9385 164.471 20.1777 166.416 19.0861C167.281 18.6006 168.816 18.1772 170.092 18.0156C169.302 17.5881 168.959 17.3014 168.172 16.5573C166.07 14.3601 166.203 11.8239 168.594 9.94506C171.047 8.01665 173.971 7.50372 176.935 7.85223ZM194.202 35.8456C193.868 35.8456 192.916 36.5261 192.822 36.5767C192.317 36.8455 191.81 37.1139 191.332 37.4251C187.623 39.8394 183.702 41.7404 179.349 42.7382C178.393 43.0368 176.926 43.4145 176.828 43.476C176.259 43.8343 175.45 44.6245 174.621 45.5316C173.762 46.4714 172.791 47.8183 173.571 49.1481C174.337 50.4515 175.391 50.3454 177.008 50.0025C180.356 48.9577 180.983 48.5842 182.745 47.5C186.981 44.8939 190.468 41.2163 193.413 37.2607C193.518 37.1199 194.711 35.8769 194.202 35.8456ZM198.225 39.7639C196.371 41.6681 195.461 44.0037 195.309 46.6344C195.284 47.0612 195.255 47.5218 195.494 48.2779C196.151 47.8802 196.402 47.715 196.647 47.499C198.607 45.7659 199.903 43.6007 200.629 41.106C200.838 40.3879 201.298 38.8427 200.717 38.464C200.06 37.9342 198.788 39.186 198.225 39.7639ZM177.68 33.353C176.022 33.9516 174.656 35.0323 173.14 35.9601C172.457 36.3786 171.994 36.9621 171.231 37.598C169.631 39.5742 170.524 40.6907 172.445 41.3269C173.278 41.6031 174.189 41.7215 175.071 41.7601C178.392 41.9052 181.596 41.1917 184.512 39.7028C188.025 37.9093 191.379 35.8034 194.773 33.7833C195.341 33.445 196.857 32.7339 197.385 32.2231C197.102 31.9821 196.256 31.8936 195.888 31.8163C195.517 31.7379 194.885 31.6417 194.51 31.576C188.705 30.5554 183.162 31.374 177.68 33.353ZM204.323 36.2338C203.664 36.4014 202.183 36.8363 202.032 37.3816C201.776 38.308 202.98 38.6179 203.714 38.9432C207.619 39.8057 211.735 40.0281 215.895 38.542C215.321 38.1703 214.197 37.6374 214.001 37.5084C210.497 35.5248 208.207 35.2462 204.323 36.2338ZM199.034 32.9718C198.375 33.4215 198.003 33.9376 197.207 34.4814C197.795 35.3752 197.915 35.8628 198.479 36.5978C199.003 37.2815 199.023 37.6402 200.74 36.7067C200.996 36.465 201.437 35.9563 201.437 35.9563C200.73 35.0734 200.397 34.0567 199.034 32.9718ZM169.294 25.5178C168.443 25.5926 166.63 26.348 164.772 27.4515C164.127 27.834 163.509 28.348 163.049 28.9354C162.053 30.2072 162.3 31.3856 163.766 32.0538C164.735 32.4957 166.316 32.9865 167.376 33.0979C173.671 33.8606 177.734 31.5756 183.43 29.9792C179.93 29.6602 175.413 26.1726 175.413 26.1726C174.257 26.4667 171.52 25.9924 169.294 25.5178ZM179.228 20.5701C177.915 20.8961 176.483 21.5306 176.234 23.1056C175.993 24.6328 176.958 25.5824 178.136 26.2264C179.635 27.045 181.709 28.1952 183.352 28.5697C186.885 29.3753 190.698 29.6581 194.277 30.2515C195.215 30.4071 196.037 30.6165 196.937 30.821C196.937 30.821 198.05 30.8533 198.009 30.5775C197.535 29.4895 196.961 28.6122 196.548 27.9493C193.796 24.9841 192.025 24.1076 188.113 21.7238C185.254 20.6667 182.251 19.8193 179.228 20.5701ZM174.893 9.36502C173.074 9.47218 171.362 9.93838 169.901 11.0661C168.01 12.5252 167.906 14.3756 169.735 15.8701C170.602 16.5784 171.654 17.2628 172.721 17.4862C176.018 18.1772 179.344 18.9091 182.692 19.1342C188.326 19.513 191.691 21.7709 196.645 25.9049C197.524 27.0731 198.294 28.2247 198.502 28.6171C198.606 28.9189 198.993 29.4023 199.031 29.3121C199.199 28.9137 198.943 27.755 198.788 27.2677C198.58 25.9049 197.373 24.0531 196.796 23.0185C194.358 18.648 191.055 15.0663 186.731 12.5058C183.095 10.3522 179.183 9.11172 174.893 9.36502ZM169.16 19.5597C168.332 19.8207 166.932 20.3242 166.636 21.2338C166.208 22.5442 168.4 23.5416 169.269 23.868C170.931 24.4926 173.156 24.9413 174.918 24.7624C174.833 24.7712 174.528 23.986 174.609 23.3561C174.663 22.9349 174.81 22.528 174.991 22.1454C175.419 21.2464 176.093 20.4946 176.851 19.8485C175.171 19.5116 173.846 19.2038 172.317 19.142C171.255 19.0988 170.174 19.2396 169.16 19.5597Z" fill="black"/>
<path fill-rule="evenodd" clip-rule="evenodd" d="M130.596 67.2812L104.649 134.9L108.328 138.102L111.774 139.57L110.705 143.201L216.432 203.605L247.361 136.908L239.414 131.672C239.414 101.538 231.126 84.2095 214.551 79.6865C210.45 78.5675 200.199 78.3245 197.033 78.3245C191.259 78.3245 182.828 82.1673 171.74 89.8529L130.596 67.2812Z" fill="white"/>
<path fill-rule="evenodd" clip-rule="evenodd" d="M129.536 66.891C129.82 66.228 130.345 66.0912 130.966 66.3435C131.442 66.5366 131.887 66.8058 132.337 67.0557C145.018 74.0884 157.698 81.1222 170.376 88.1591C170.709 88.3438 171.066 88.5129 171.372 88.731C171.934 88.316 172.502 87.9088 173.078 87.5099C179.279 83.2144 185.937 79.9138 193.4 78.388C194.914 78.0787 196.47 77.9777 198.006 77.7764C198.899 77.6596 199.379 78.009 199.761 78.8631C201.947 83.7437 205.591 88.3734 209.006 92.792C208.867 91.964 208.851 89.2995 208.83 87.8202C208.799 85.5851 208.816 82.5343 208.83 80.2998C208.843 78.3729 209.07 78.2181 210.929 78.1164C216.816 77.7947 221.699 80.4997 225.854 84.628C231.262 90.0005 234.925 96.3893 236.966 103.684C239.348 112.195 240.325 120.862 239.816 129.685C239.79 130.131 239.813 130.599 239.675 131.011C239.665 131.039 239.652 131.067 239.634 131.096L240.824 131.744C242.806 132.821 244.791 133.894 246.767 134.982C248.734 136.067 248.758 136.102 247.858 138.079C244.758 144.899 241.646 151.716 238.527 158.529C231.836 173.144 225.138 187.756 218.444 202.369C218.39 202.486 218.348 202.607 218.293 202.723C217.41 204.608 217.259 204.679 215.423 203.644C204.42 197.441 193.424 191.224 182.426 185.011C158.859 171.698 135.292 158.386 111.726 145.071C111.329 144.846 110.936 144.613 110.528 144.371C110.033 144.075 109.805 143.483 109.978 142.937C110.297 141.928 110.605 140.953 110.935 139.913C108.892 138.89 106.998 137.95 105.111 136.996C103.355 136.108 103.307 136.006 103.992 134.199C112.362 112.118 120.736 90.0399 129.111 67.9611C129.247 67.6025 129.384 67.2436 129.536 66.891ZM138.131 77.6241C129.126 99.5619 120.217 121.264 111.27 143.06C146.465 162.938 181.51 182.731 216.665 202.586C226.753 180.541 236.742 158.714 246.798 136.741C241.057 133.618 235.32 130.497 229.582 127.375L230.062 127.636C229.896 129.022 229.517 130.384 229.117 131.734C228.865 132.585 228.273 133.276 227.656 133.541C227.793 133.7 227.924 133.862 228.049 134.026C230.249 136.922 232.298 139.931 234.406 142.896C234.801 143.452 235.333 144.315 235.761 144.919C235.833 144.85 235.887 144.787 235.932 144.729C236.115 144.488 236.3 144.249 236.509 144.029C236.883 143.638 237.273 143.267 237.814 143.786C238.082 144.043 237.952 144.954 237.718 145.431C236.967 146.967 236.13 148.467 235.218 149.915C235.141 150.036 235.012 150.126 234.857 150.199C234.328 150.45 233.668 150.092 233.677 149.511C233.678 149.434 233.691 149.363 233.721 149.301C233.847 149.035 234.091 148.441 234.101 148.223C234.101 148.223 233.167 147.161 232.46 146.565C232.61 147.571 232.785 148.575 232.905 149.585C233.118 151.383 232.62 152.963 231.362 154.302C229.584 156.192 227.215 156.277 225.331 154.466C223.084 152.306 222.578 149.591 223.158 146.703C223.735 143.831 224.946 141.241 227.771 139.439C226.28 137.61 224.906 135.749 222.913 134.464C221.635 133.64 220.959 133.814 220.227 135.145C218.836 137.672 219.091 140.284 219.938 142.902C220.042 143.225 220.205 143.532 220.362 143.836C220.653 144.399 220.998 145.068 220.196 145.361C219.9 145.47 219.197 144.998 218.939 144.618C216.577 141.131 217.488 134.484 220.655 131.719C220.901 131.505 221.152 131.32 221.407 131.168C221.373 131.149 221.34 131.127 221.308 131.104C221.254 131.064 220.958 130.718 220.939 130.72C219.145 130.888 218.159 130.381 218.352 128.277C218.426 127.463 218.629 126.661 218.838 125.485C217.889 126.304 217.217 126.945 216.48 127.502C215.716 128.082 214.91 128.739 213.854 128.152C213.119 127.745 212.935 126.669 213.433 125.346C214.259 123.152 215.098 122.369 216.677 120.676C216.728 120.621 216.804 120.552 216.896 120.474C205.89 114.486 194.882 108.498 183.863 102.503L186.282 103.82C185.865 104.307 185.495 104.761 185.068 105.156C179.779 110.046 174.415 114.858 169.204 119.827C166.948 121.978 164.929 124.37 162.818 126.671C166.203 129.727 169.72 132.608 173.337 135.356C173.389 135.248 173.442 135.141 173.485 135.04C173.629 134.695 173.776 134.352 173.961 134.028C177.423 127.955 180.888 121.883 184.363 115.818C184.68 115.264 185.04 114.729 185.429 114.223L185.44 114.209C185.936 113.575 186.943 114.19 186.617 114.924C186.497 115.197 186.367 115.474 186.216 115.74C182.487 122.303 178.745 128.86 175.009 135.419C174.945 135.53 174.904 135.654 174.838 135.763C174.742 135.925 174.648 136.106 174.539 136.262C179.126 139.691 183.866 142.916 188.694 146.025C188.81 145.777 188.974 145.536 189.117 145.3C192.403 139.886 195.695 134.476 198.988 129.065C199.22 128.684 199.416 128.258 199.732 127.96C199.912 127.79 200.374 127.709 200.574 127.822C200.774 127.935 200.933 128.367 200.88 128.611C200.789 129.034 200.554 129.44 200.324 129.82C197.075 135.182 193.825 140.543 190.553 145.891C190.364 146.199 190.124 146.475 189.847 146.783L189.857 146.771C190.752 147.342 191.649 147.91 192.549 148.474C193.914 149.33 195.338 150.093 196.69 150.967C197.227 151.314 198.237 151.658 198.237 151.658C198.619 151.406 199.115 151.163 199.639 150.766C201.422 149.417 203.284 148.159 205.187 146.977C204.953 145.782 204.718 144.588 204.478 143.394C204.125 141.632 204.191 140 205.705 138.694C206.443 138.057 207.168 137.887 207.926 138.522C208.662 139.139 209.403 139.778 210.008 140.516C212.956 144.107 215.895 147.706 218.83 151.306L217.808 150.053C218.311 150.123 218.813 150.221 219.313 150.351C220.308 150.612 221.431 151.2 221.457 152.445C221.47 153.052 221.226 153.478 220.854 153.791C222.412 155.704 223.97 157.616 225.527 159.528C226.175 160.324 226.982 161.387 227.716 162.332C228.096 161.894 228.342 161.373 228.613 160.927C228.838 160.556 229.37 160.445 229.684 160.747C229.954 161.007 229.939 161.39 229.749 161.809C228.647 164.243 227.519 166.666 226.341 169.064C226.314 169.119 226.273 169.166 226.22 169.208C225.805 169.54 225.181 169.301 225.012 168.8C224.967 168.668 224.94 168.536 224.947 168.405C224.971 167.959 225.266 167.527 225.465 167.034C224.483 165.833 223.507 164.64 222.521 163.434C222.403 163.993 222.063 164.511 221.43 164.895C222.974 166.233 222.569 167.378 220.632 168.09C220.391 168.178 220.145 168.258 219.895 168.329C219.843 168.918 219.296 169.078 218.796 169.288C216.858 170.098 214.865 170.59 212.813 170.773L212.704 170.941C212.606 171.091 212.356 171.476 212.356 171.476C212.356 171.476 212.547 172.057 212.617 172.281C213.54 175.212 214.742 178.53 215.705 181.449C215.733 181.534 215.978 181.161 215.985 181.148C215.999 181.12 216.013 181.093 216.027 181.065C216.107 180.905 216.179 180.742 216.259 180.582C216.568 179.963 216.882 179.318 217.316 178.772C217.39 178.674 217.507 178.607 217.645 178.556C218.151 178.367 218.744 178.701 218.757 179.236C218.758 179.301 218.748 179.36 218.722 179.411C217.551 181.661 216.336 183.889 215.052 186.077C214.88 186.37 214.143 186.637 213.862 186.507C213.191 186.194 213.486 185.59 213.8 185.127C214.277 184.423 214.726 183.408 214.726 183.408C214.726 183.408 214.3 182.107 213.984 181.368C212.518 177.942 211.351 174.42 210.361 170.848C210.277 170.846 210.192 170.843 210.108 170.84C205.15 170.65 200.44 169.344 195.803 167.726C194.367 167.225 192.95 166.686 191.55 166.112C189.202 169.222 186.849 172.328 184.48 175.422C183.608 176.561 183.387 176.583 182.065 175.785C179.366 174.155 176.692 172.486 174.008 170.832C168.914 167.694 163.817 164.559 158.728 161.413C157.042 160.371 156.99 160.184 158.072 158.594C159.671 156.245 161.281 153.904 162.884 151.558L162.658 151.888C160.659 150.856 158.67 149.803 156.693 148.733C154.989 147.81 153.393 146.778 151.906 145.638C151.696 145.577 151.497 145.448 151.312 145.257C151.235 145.177 151.17 145.096 151.117 145.014C147.178 141.807 144.056 137.807 141.791 133.067C140.975 131.358 140.411 129.468 140.098 127.601C140.086 127.531 140.074 127.461 140.064 127.391C139.006 128.215 138.202 129.285 137.595 130.498C137.383 130.921 137.521 131.605 137.688 132.106C138.389 134.199 138.704 136.335 138.502 138.525C138.433 139.276 138.24 140.038 137.967 140.743C137.678 141.488 137.127 142.038 136.213 142.006C135.303 141.974 134.79 141.4 134.542 140.635C134.308 139.915 134.144 139.153 134.091 138.399C133.947 136.333 134.237 134.3 135.027 132.387C135.465 131.324 135.366 130.488 134.745 129.535C131.89 125.153 127.662 125.065 124.907 129.495C122.428 133.483 121.677 137.79 123.181 142.348C123.327 142.792 123.509 143.972 122.573 143.699C122.027 143.539 121.524 142.45 121.41 141.944C120.223 136.667 121.086 131.743 124.497 127.469C127.511 123.691 131.934 123.765 135.095 127.457C135.511 127.942 135.881 128.466 136.372 129.101C137.456 127.572 138.659 126.418 139.893 125.666C139.752 122.263 140.815 119.148 143.098 116.284C144.765 114.193 146.484 112.153 148.261 110.167C148.179 109.658 148.1 109.139 148.012 108.607C146.396 108.788 144.936 108.984 143.469 109.1C142.708 109.16 141.907 109.199 141.175 109.032C140.057 108.776 139.775 108 140.582 107.211C141.77 106.052 143.121 105.054 144.425 104.016C144.819 103.703 145.291 103.486 145.873 103.137C145.413 100.624 144.956 98.1244 144.5 95.624C144.351 94.808 144.144 93.9944 144.092 93.172C144.072 92.8666 144.348 92.3902 144.619 92.2635C144.881 92.1414 145.421 92.2554 145.642 92.4669C146.147 92.9497 146.568 93.531 146.956 94.1154C148.193 95.9797 149.4 97.8637 150.751 99.9423C151.387 99.4795 151.948 99.1016 152.475 98.6815C153.329 97.9999 154.115 97.2233 155.022 96.624C155.434 96.3524 156.142 96.2197 156.576 96.3837C156.872 96.4952 157.096 97.244 157.058 97.6835C156.976 98.6297 156.747 99.5707 156.503 100.494C156.354 101.061 156.197 101.626 156.037 102.195L156.269 101.976C159.548 98.9155 162.782 95.8051 166.185 92.8857C156.847 87.806 147.498 82.72 138.131 77.6241ZM178.012 160.189C179.647 164.83 181.414 169.377 183.424 173.916C184.703 172.692 187.813 168.678 190.087 165.497C186.536 163.969 183.093 162.218 179.737 160.292C179.018 160.257 178.424 160.224 178.012 160.189ZM176.244 160.124C172.104 159.535 162.373 159.856 160.467 160.68C167.534 165.035 174.513 169.336 181.492 173.638C179.753 169.159 178.015 164.683 176.244 160.124ZM210.879 146.22C209.774 146.308 208.831 146.655 207.965 147.154C206.013 148.28 204.064 149.425 202.214 150.705C198.946 152.965 198.979 153.01 198.232 156.952C198.148 157.391 198.028 157.825 197.959 158.266C197.644 160.258 197.341 162.253 196.997 164.488C200.342 165.152 203.421 165.829 206.524 166.363C210.089 166.975 213.668 167.538 217.315 167.271C218.141 167.21 219.666 167.109 220.632 166.64C220.895 166.512 220.724 166.057 220.439 165.994C219.678 165.827 218.515 165.773 217.938 165.712C214.599 165.359 211.256 165.044 207.914 164.714C207.464 164.67 206.985 164.693 206.575 164.54C206.439 164.489 206.321 164.391 206.21 164.277C205.973 164.032 205.978 163.646 206.22 163.406C206.329 163.298 206.444 163.201 206.573 163.13C206.769 163.025 207.079 163.109 207.335 163.133C210.743 163.456 214.153 163.763 217.557 164.12C218.424 164.211 219.556 164.205 220.367 163.843C220.931 163.591 221.074 162.806 220.536 162.504C220.234 162.335 219.496 162.132 219.192 162.069C217.367 161.697 215.52 161.384 213.667 161.189C211.677 160.979 209.67 160.934 207.671 160.808C207.153 160.776 206.474 160.737 206.625 160.049C206.7 159.708 207.53 159.397 207.832 159.333C208.169 159.262 208.566 159.373 208.907 159.397C209.368 159.431 209.829 159.478 210.289 159.519C211.189 159.598 212.089 159.678 212.988 159.757C214.788 159.915 216.588 160.071 218.388 160.215C219.65 160.316 221.153 160.503 222.441 160.033C223.031 159.817 223.17 159.021 222.662 158.656C221.973 158.161 220.984 158.096 220.203 158.034C216.472 157.739 212.734 157.525 208.998 157.297C208.608 157.273 208.217 157.275 207.823 157.28C207.157 157.29 206.69 156.567 207.037 156.004C207.298 155.579 207.818 155.43 208.381 155.315C211.353 154.707 214.329 154.117 217.294 153.477C217.924 153.341 218.55 153.303 219.37 153.011C219.706 152.891 219.785 152.653 219.752 152.438C219.445 152.061 219.137 151.684 218.83 151.307L219.359 151.956L219.323 151.941C217.744 151.297 216.269 151.388 214.892 151.513C212.391 151.741 209.903 152.13 207.416 152.495C207.128 152.537 206.844 152.618 206.576 152.599C205.958 152.553 205.704 151.783 206.165 151.373C206.951 150.674 207.775 149.947 208.583 149.202C209.426 148.425 210.517 147.885 211.25 146.843C211.445 146.566 211.219 146.193 210.879 146.22ZM192.364 149.944L192.341 150.016C192.224 150.353 192.036 150.687 191.855 150.989C190.082 153.956 188.276 156.904 186.482 159.859C186.307 160.148 186.138 160.44 185.94 160.78C187.883 161.498 189.846 162.17 191.833 162.789C192.565 163.016 193.298 163.239 194.205 163.519C195.278 159.999 196.314 156.602 197.342 153.227C197.116 153.023 196.992 152.873 196.835 152.774C195.348 151.825 193.856 150.884 192.364 149.944ZM183.669 144.424L183.655 144.454C183.571 144.634 183.469 144.827 183.341 145.002C180.641 148.672 177.931 152.336 175.205 155.988C175.137 156.079 175.07 156.162 175.003 156.238C175.881 156.639 176.761 157.033 177.645 157.42C177.729 157.424 177.809 157.439 177.882 157.47C178.681 157.801 179.467 158.164 180.25 158.536C181.278 158.966 182.311 159.386 183.35 159.793L183.27 159.916C184.387 158.189 185.525 156.502 186.588 154.769C187.659 153.023 188.648 151.228 189.691 149.464C189.861 149.177 190.035 148.856 190.261 148.619C188.057 147.231 185.855 145.839 183.669 144.424ZM164.037 152.596L163.377 153.56C162.224 155.246 161.066 156.938 159.897 158.648C165.214 158.518 170.219 158.394 175.229 158.272C175.22 158.192 175.203 158.097 175.179 157.987C174.596 157.722 174.015 157.454 173.435 157.184C170.276 155.712 167.143 154.18 164.037 152.596ZM216.103 155.27L216.072 155.276C215.185 155.466 214.323 155.655 213.698 155.835C214.243 155.93 216.116 155.973 216.682 156.05C216.493 155.793 216.3 155.533 216.103 155.27ZM175.724 139.059L175.657 139.152C175.503 139.358 175.335 139.554 175.166 139.747C171.908 143.47 168.654 147.197 165.373 150.9C165.228 151.065 165.061 151.212 164.895 151.343C167.493 152.659 170.104 153.948 172.737 155.187C172.787 155.007 172.867 154.815 172.976 154.611C173.188 154.218 173.452 153.85 173.72 153.49C176.092 150.295 178.467 147.101 180.855 143.917C181.076 143.622 181.31 143.311 181.582 143.061C180.97 142.66 180.359 142.255 179.751 141.847C178.394 140.937 177.051 140.008 175.724 139.059ZM228.268 141.055C227.64 141.657 227.062 142.044 226.712 142.577C225.283 144.753 224.843 147.129 225.609 149.637C225.802 150.269 226.186 150.902 226.646 151.383C227.409 152.179 228.352 152.993 229.533 152.623C230.801 152.226 230.895 150.928 230.87 149.864C230.799 146.813 229.902 143.972 228.268 141.055ZM211.199 148.991L211.124 149.052C210.46 149.59 209.726 150.176 209.099 150.744C210.085 150.403 211.391 150.213 211.971 150.146L212.119 150.129C211.809 149.742 211.501 149.362 211.199 148.991ZM168.178 133.312L168.135 133.364C167.901 133.659 167.608 134.046 167.239 134.339C165.476 135.742 163.663 137.082 161.886 138.468C159.297 140.487 156.725 142.528 154.141 144.553C153.98 144.68 153.816 144.806 153.651 144.928L153.615 144.954C154.673 145.731 155.786 146.458 156.951 147.136C158.841 148.235 160.785 149.245 162.734 150.242L162.746 150.212C162.968 149.694 163.337 149.221 163.712 148.79C166.923 145.111 170.149 141.445 173.372 137.777C173.449 137.69 173.525 137.603 173.604 137.518C171.764 136.156 169.954 134.754 168.178 133.312ZM206.174 143.461C206.326 144.351 206.48 145.239 206.637 146.125C207.14 145.871 207.668 145.657 208.202 145.457C207.246 144.387 206.516 143.654 206.174 143.461ZM161.72 127.753L161.67 127.786C161.465 127.917 161.241 128.026 161.021 128.114C155.762 130.236 150.495 132.339 145.228 134.444C144.959 134.552 144.687 134.659 144.412 134.752C146.318 138.023 148.698 140.868 151.53 143.299C151.726 143.102 151.942 142.921 152.16 142.751C156.524 139.344 160.89 135.939 165.266 132.547C165.614 132.277 165.995 132.018 166.399 131.845C164.812 130.515 163.252 129.152 161.72 127.753ZM136.458 133.517C135.524 135.785 135.33 137.741 135.876 139.271C136.038 139.727 136.721 139.681 136.824 139.207C137.225 137.364 137.003 135.565 136.458 133.517ZM130.77 68.0388C122.274 90.4513 113.821 112.749 105.297 135.233C105.891 135.566 106.423 135.882 106.972 136.165C107.479 136.426 108.006 136.65 108.656 136.952C108.917 136.374 109.183 135.885 109.365 135.367C113.046 124.846 117.629 114.687 122.006 104.445C124.624 98.3197 127.201 92.1766 129.901 86.0869C131.042 83.5129 132.266 80.9698 133.71 78.5492C134.209 77.7128 134.78 77.2758 136.377 77.6241C136.707 77.6959 137.222 76.2704 137.794 75.7961C138.464 76.129 139.212 76.4717 139.934 76.8637C149.486 82.0589 159.037 87.2555 168.59 92.4514L167.439 91.8252C168.282 91.1231 169.137 90.4341 170.007 89.7619C169.852 89.672 169.698 89.5789 169.542 89.4928C157.312 82.7109 145.083 75.9263 132.852 69.1445C132.237 68.8035 131.61 68.484 130.77 68.0388ZM188.538 120.024C188.887 119.381 189.167 118.098 190.219 118.723C191.065 119.225 190.212 120.097 189.876 120.731C187.304 125.585 184.71 130.428 182.121 135.273C181.88 135.723 181.656 136.189 181.353 136.597C181.316 136.647 181.272 136.693 181.223 136.736C180.833 137.078 180.187 136.955 180.01 136.47C179.985 136.405 179.972 136.341 179.974 136.276C179.983 135.925 180.224 135.567 180.403 135.232C183.105 130.158 185.798 125.079 188.538 120.024ZM194.517 122.554C194.701 122.39 195.167 122.326 195.367 122.446C195.557 122.56 195.689 122.997 195.631 123.243C195.531 123.665 195.286 124.062 195.061 124.446C192.892 128.143 190.724 131.841 188.527 135.522C188.324 135.863 188.07 136.175 187.778 136.524C187.424 136.947 186.73 136.895 186.485 136.403C186.455 136.342 186.435 136.282 186.429 136.221C186.4 135.957 186.663 135.652 186.823 135.379C189.128 131.465 191.435 127.552 193.748 123.642C193.974 123.259 194.193 122.844 194.517 122.554ZM228.259 124.192C228.083 124.8 227.258 128.699 226.352 130.079C226.12 130.43 226.616 132.822 227.422 132.466C227.484 132.439 227.53 132.382 227.56 132.322C228.953 129.483 229.029 127.753 228.967 125.713C228.952 125.236 228.731 124.294 228.259 124.192ZM147.643 113.172L147.372 113.492C146.074 115.035 144.825 116.622 143.613 118.242C141.912 120.515 141.311 123.042 141.445 125.823C141.552 128.031 142.072 130.116 143.017 132.107C143.071 132.22 143.125 132.333 143.18 132.445L143.176 132.447C143.512 132.259 143.88 132.127 144.239 131.983C149.202 129.987 154.143 127.933 159.147 126.042C159.319 125.977 159.467 125.9 159.596 125.814C159.16 125.417 158.786 124.981 158.774 124.341C158.895 124.145 158.942 124.017 159.031 123.933L159.788 123.221L158.748 122.368C155.25 119.501 151.777 116.654 148.309 113.801C148.075 113.608 147.848 113.398 147.643 113.172ZM225.234 130.601C225.032 130.719 224.805 130.861 224.565 131C224.721 131.077 224.878 131.166 225.035 131.268C225.148 131.342 225.261 131.418 225.373 131.496C225.331 131.227 225.295 130.856 225.234 130.601ZM225.776 121.804L225.787 122.211C225.474 124.609 224.144 126.51 222.793 128.393C222.511 128.787 221.98 129.65 222.029 130.044C222.071 130.373 222.353 130.596 222.696 130.691C222.961 130.651 223.228 130.646 223.498 130.678C223.62 130.639 223.731 130.58 223.823 130.5C225.622 128.957 227.215 124.102 226.961 123.034C226.847 122.464 226.32 122.206 225.776 121.804ZM230.067 124.924L230.071 124.947C230.113 125.278 230.138 125.607 230.147 125.935C233.706 127.871 237.265 129.807 240.824 131.744L238.272 130.355C238.262 130.052 238.28 129.744 238.297 129.443C238.386 127.949 238.429 126.46 238.429 124.977C238.312 124.999 238.187 125.011 238.054 125.013C235.393 125.051 232.73 124.976 230.067 124.924ZM221.521 123.363C220.818 124.737 219.65 126.999 219.648 128.567C219.647 129.593 220.324 129.614 220.61 129.268C222.42 127.073 225.087 122.265 224.253 121.684C222.965 120.654 221.973 122.479 221.521 123.363ZM220.155 120.206C218.165 120.613 215.858 123.596 214.612 125.938C214.359 126.414 214.848 126.897 215.372 126.614C217.572 125.423 219.547 123.308 220.432 121.056C220.73 120.299 220.613 120.306 220.155 120.206ZM237.599 113.913L237.58 113.924C237.277 114.082 236.886 114.15 236.54 114.204C234.061 114.583 231.576 114.932 229.093 115.291C229.082 115.201 229.071 115.111 229.06 115.021C228.027 115.021 226.992 115.067 225.963 115.006C225.894 115.002 225.826 114.995 225.76 114.986C225.702 116.087 225.642 117.189 225.591 118.291C225.561 118.925 225.586 119.563 225.586 119.93C226.866 120.877 228.081 121.61 229.072 122.551C229.12 122.548 229.169 122.546 229.218 122.547C230.244 122.561 231.269 122.701 232.294 122.781C232.808 122.82 233.322 122.844 234.137 122.893C235.189 122.842 236.539 122.785 237.888 122.706C238.062 122.696 238.232 122.693 238.394 122.704C238.304 119.752 238.038 116.821 237.599 113.913ZM155.716 104.883L155.228 105.345C154.887 105.664 154.545 105.983 154.201 106.3C152.492 107.874 150.876 109.525 149.333 111.238C149.637 111.457 149.921 111.709 150.211 111.947C154.01 115.07 157.806 118.197 161.713 121.413L166.468 116.947L166.127 116.564C162.941 112.986 159.578 109.209 156.215 105.432C156.051 105.248 155.88 105.068 155.716 104.883ZM198.005 79.2076C195.775 79.5777 193.573 79.9437 191.431 80.2998C191.226 82.9058 191.058 85.2561 190.853 87.6031C190.446 92.2881 188.739 96.5353 186.317 100.528C186.077 100.923 185.708 101.25 185.357 101.572C196.538 107.654 207.719 113.736 218.9 119.818L218.288 119.484C218.634 119.268 218.951 119.093 219.142 119.028C220.999 118.399 222.029 119.028 222.029 120.43C222.401 120.087 222.963 119.979 223.912 120.255C223.993 119.251 224.13 118.252 224.146 117.251C224.215 112.845 224.335 108.436 224.245 104.033C224.216 102.606 223.774 101.121 223.225 99.7814C220.748 93.7421 218.148 87.752 215.641 81.7249C215.496 81.3773 215.372 81.0884 215.13 80.7263C214.782 80.0917 214.213 79.824 213.633 79.824C213.124 79.8353 212.889 79.8219 212.147 79.8219C211.914 81.8336 211.688 84.5446 211.446 86.5489C211.155 88.9607 210.861 91.3725 210.547 93.7815C210.464 94.4113 210.381 95.239 209.601 95.2502C209.069 95.2583 208.353 94.8741 208.018 94.4398C204.96 90.4755 201.914 86.4968 199.597 82.037C199.129 81.1355 198.601 80.2639 198.005 79.2076ZM163.768 97.1474L163.318 97.5705C161.401 99.3845 159.519 101.236 157.619 103.067C158.063 103.511 158.479 103.987 158.898 104.456C161.937 107.857 164.969 111.264 168.007 114.667C168.137 114.813 168.27 114.956 168.419 115.114L174.22 109.664C172.311 107.468 170.46 105.362 168.655 103.218C167.085 101.352 165.585 99.4274 164.068 97.517C163.975 97.399 163.868 97.2749 163.768 97.1474ZM234.47 101.002L234.456 101.009C234.32 101.075 234.172 101.127 234.019 101.166C231.281 101.854 228.527 102.48 225.779 103.129C225.74 103.121 225.702 103.113 225.663 103.104C226.015 105.317 226.091 107.571 226.006 109.864C225.971 110.814 225.927 111.763 225.88 112.713C225.943 112.708 226.008 112.704 226.073 112.702C228.391 112.618 230.712 112.56 233.025 112.4C234.112 112.325 235.186 112.043 236.264 111.848C236.58 111.791 236.952 111.568 237.192 111.669L237.228 111.684C236.614 108.308 235.765 104.962 234.686 101.648C234.616 101.432 234.544 101.216 234.47 101.002ZM146.178 95.9253L146.162 95.9276C146.534 98.267 147.056 101.191 147.451 103.633C147.499 103.928 147.345 104.217 147.075 104.35C145.365 105.192 143.81 106.058 142.4 107.713C144.223 107.477 145.667 107.314 147.102 107.098C148.763 106.848 149.27 107.11 149.606 108.687C150.968 107.21 152.364 105.764 153.797 104.35C154.31 102.453 154.843 100.444 155.361 98.5713C154.364 99.1044 153.713 99.671 153.075 100.188C150.711 102.106 150.23 102.032 148.611 99.526C147.945 98.495 147.257 97.477 146.578 96.4534C146.578 96.4534 146.244 95.8801 146.162 95.9276L146.178 95.9253ZM173.164 89.2993L173.153 89.3075C170.56 91.1636 168.087 93.1965 165.703 95.3564C165.981 95.6391 166.215 95.9951 166.474 96.3026C169.698 100.135 172.921 103.968 176.136 107.807L176.164 107.84C178.672 105.483 181.18 103.125 183.688 100.767C183.66 100.739 183.632 100.711 183.604 100.682C180.255 97.1386 176.942 93.5632 173.64 89.9775C173.458 89.78 173.295 89.5469 173.164 89.2993ZM229.113 90.7838L229.09 90.806C229 90.8886 228.891 90.9579 228.762 91.0102C226.638 91.8729 224.487 92.6731 222.239 93.5291C222.673 94.502 223.121 95.4681 223.588 96.4252C224.274 97.832 224.789 99.2592 225.164 100.706C225.264 100.678 225.366 100.654 225.468 100.632C228.104 100.059 230.739 99.4855 233.378 98.932C233.474 98.9121 233.57 98.8939 233.666 98.8796C232.473 95.9911 230.945 93.296 229.113 90.7838ZM189.724 80.8836C188.253 81.4058 187.094 81.777 185.966 82.2235C182.17 83.7268 178.636 85.6281 175.302 87.8288L175.225 87.7465C178.65 91.4223 182.062 95.1099 185.464 98.8064L185.441 98.8433C188.895 93.4489 189.692 87.4339 189.724 80.8836ZM216.927 81.0236C217.222 81.7763 217.772 82.9977 218.09 83.7409C219.156 86.2316 220.171 88.7467 221.236 91.2375L221.215 91.2449C223.344 90.5073 225.468 89.7582 227.603 89.0386C227.647 89.0237 227.691 89.0099 227.735 88.9971C226.948 88.032 226.115 87.0954 225.236 86.1868C223.066 83.9418 221.019 82.3889 218.051 81.3667C217.694 81.2182 217.205 81.1492 216.927 81.0236Z" fill="black"/>
<path fill-rule="evenodd" clip-rule="evenodd" d="M211.457 56.279C211.705 56.5379 211.791 56.9462 211.967 57.2797C212.718 58.7082 213.053 58.8603 214.653 58.4767C215.157 58.3563 215.782 58.1593 215.891 58.8272C215.945 59.1513 215.483 59.6698 215.127 59.9217C214.981 60.0256 214.824 60.0922 214.661 60.1387C214.058 60.3106 213.406 60.2549 212.827 60.0119C211.399 59.4127 210.087 57.9427 210.249 56.6647C210.275 56.4512 210.468 56.1247 210.632 56.0926C210.893 56.0412 211.288 56.1025 211.457 56.279ZM224.341 51.1015C224.996 51.3558 224.732 51.9226 224.499 52.3893C223.807 53.7769 222.262 54.4571 220.798 53.9812C220.322 53.8266 219.736 53.4711 219.155 53.1897C219.357 53.81 219.243 54.2373 219.133 54.6794C218.694 56.4343 216.638 57.1903 215.189 56.1081C214.951 55.9295 214.728 55.4808 214.814 55.1757C214.923 54.7868 215.154 54.7467 215.435 54.7713C215.791 54.8023 216.055 54.8893 216.304 54.9425C216.848 55.0591 217.474 55.0182 217.515 54.4053C217.547 53.9439 217.59 53.301 217.217 53.0502C216.804 52.7719 215.784 52.891 215.25 52.7476C215.238 52.7441 215.225 52.7402 215.212 52.736C214.655 52.5531 214.481 51.7859 214.935 51.4153C214.966 51.3903 214.998 51.3689 215.033 51.3512C215.849 50.9345 217.683 51.2054 218.572 52.0956C219.085 51.3019 219.553 51.1688 220.313 51.7775C221.783 52.9547 221.901 52.879 223.266 51.5221C223.527 51.2635 224.071 50.9965 224.341 51.1015ZM212.198 51.7323C212.504 51.9652 212.504 52.4915 212.368 52.7208C211.674 53.885 210.668 54.6142 209.234 54.5705C208.054 54.5634 207.154 54.0048 206.451 53.1079C206.127 52.6961 205.813 52.1533 206.401 51.7933C206.643 51.645 207.167 51.8828 207.528 52.0304C207.746 52.1198 207.879 52.3985 208.082 52.5492C208.937 53.1833 209.689 53.1833 210.526 52.5373C210.827 52.3044 211.049 51.95 211.373 51.7718C211.602 51.6457 212.083 51.6446 212.198 51.7323Z" fill="black"/>
</svg>
