<svg width="30" height="30" viewBox="0 0 30 30" fill="none" xmlns="http://www.w3.org/2000/svg">
<circle cx="15" cy="15" r="15" fill="#313134"/>
<path d="M13.3906 15.7966C13.7361 16.2585 14.177 16.6407 14.6832 16.9173C15.1894 17.1938 15.7492 17.3583 16.3245 17.3995C16.8999 17.4407 17.4774 17.3577 18.0179 17.1561C18.5583 16.9545 19.0491 16.639 19.4569 16.231L21.8706 13.8174C22.6033 13.0587 23.0088 12.0425 22.9997 10.9878C22.9905 9.93304 22.5674 8.92408 21.8216 8.17823C21.0757 7.43239 20.0668 7.00932 19.012 7.00015C17.9573 6.99099 16.9411 7.39646 16.1824 8.12923L14.7986 9.50501" stroke="white" stroke-linecap="round" stroke-linejoin="round"/>
<path d="M16.6092 14.1879C16.2637 13.726 15.8228 13.3438 15.3166 13.0672C14.8104 12.7907 14.2506 12.6262 13.6753 12.585C13.0999 12.5438 12.5224 12.6268 11.9819 12.8284C11.4415 13.03 10.9507 13.3455 10.5429 13.7535L8.12923 16.1671C7.39646 16.9258 6.99099 17.942 7.00015 18.9967C7.00932 20.0515 7.43239 21.0604 8.17823 21.8063C8.92408 22.5521 9.93304 22.9752 10.9878 22.9843C12.0425 22.9935 13.0587 22.588 13.8174 21.8553L15.1932 20.4795" stroke="white" stroke-linecap="round" stroke-linejoin="round"/>
</svg>
