<svg width="30" height="30" viewBox="0 0 30 30" fill="none" xmlns="http://www.w3.org/2000/svg">
<mask id="mask0" mask-type="alpha" maskUnits="userSpaceOnUse" x="0" y="0" width="30" height="30">
<circle cx="15" cy="15" r="15" fill="#181616"/>
</mask>
<g mask="url(#mask0)">
<circle cx="15" cy="15" r="15" fill="#181616"/>
<circle cx="15.3337" cy="16.6667" r="12.6667" fill="white"/>
<path fill-rule="evenodd" clip-rule="evenodd" d="M15.0003 1.01367C7.08361 1.01367 0.666992 7.43297 0.666992 15.353C0.666992 21.6858 4.77457 27.0601 10.4686 28.9616C11.1833 29.0951 11.4504 28.6473 11.4504 28.2701C11.4504 27.9244 11.4347 26.8009 11.4347 25.5987C7.44489 26.463 6.60453 23.9094 6.60453 23.9094C5.95265 22.2516 5.01019 21.8116 5.01019 21.8116C3.70644 20.9237 5.10443 20.9394 5.10443 20.9394C6.5417 21.0416 7.30352 22.4166 7.30352 22.4166C8.5837 24.6087 10.6571 23.9723 11.4739 23.6108C11.5996 22.6837 11.9766 22.0551 12.385 21.6937C9.20416 21.3323 5.85055 20.0987 5.85055 14.6065C5.85055 13.043 6.40818 11.7623 7.32708 10.7565C7.17786 10.3951 6.69092 8.93368 7.46845 6.96154C7.46845 6.96154 8.6701 6.57654 11.4111 8.43083C12.5578 8.11654 13.783 7.95154 15.0003 7.95154C16.2177 7.9594 17.4429 8.11654 18.5896 8.43083C21.3227 6.57654 22.5243 6.96154 22.5243 6.96154C23.3019 8.93368 22.8149 10.3951 22.6657 10.7565C23.5846 11.7623 24.1422 13.043 24.1422 14.6065C24.1422 20.1144 20.7886 21.3244 17.6 21.678C18.1105 22.1258 18.5738 22.998 18.5738 24.3337C18.5738 26.2509 18.5581 27.7987 18.5581 28.2701C18.5581 28.6551 18.8173 29.0951 19.5399 28.9616C25.2339 27.0601 29.3337 21.6937 29.3337 15.353C29.3337 7.43297 22.917 1.01367 15.0003 1.01367Z" fill="#181616"/>
<path d="M6.09384 21.5989C6.06243 21.6696 5.95247 21.6931 5.85037 21.646C5.74827 21.5989 5.68544 21.5046 5.72471 21.4339C5.75613 21.3633 5.86608 21.3397 5.96818 21.3868C6.07028 21.4339 6.13311 21.5282 6.09384 21.5989Z" fill="#181616"/>
<path d="M6.67457 22.2514C6.60389 22.3142 6.47037 22.2828 6.38398 22.1886C6.28973 22.0865 6.27402 21.9529 6.34471 21.8901C6.41539 21.8273 6.54106 21.8587 6.6353 21.9529C6.72955 22.055 6.74526 22.1886 6.67457 22.2514Z" fill="#181616"/>
<path d="M7.24032 23.0764C7.15393 23.1393 7.01256 23.0843 6.91831 22.9508C6.83192 22.8251 6.83192 22.668 6.91831 22.6052C7.0047 22.5424 7.14607 22.5974 7.24032 22.723C7.33457 22.8565 7.33457 23.0136 7.24032 23.0764Z" fill="#181616"/>
<path d="M8.01783 23.8696C7.9393 23.956 7.77436 23.9324 7.6487 23.8146C7.52304 23.6968 7.49162 23.5319 7.57016 23.4455C7.6487 23.3591 7.82149 23.3826 7.9393 23.5004C8.06496 23.6261 8.09637 23.791 8.01783 23.8696Z" fill="#181616"/>
<path d="M9.08596 24.3334C9.05454 24.4434 8.88961 24.4983 8.72468 24.4512C8.55975 24.4041 8.45765 24.2706 8.48906 24.1606C8.52048 24.0507 8.68541 23.9957 8.85034 24.0428C9.00742 24.0899 9.11737 24.2235 9.08596 24.3334Z" fill="#181616"/>
<path d="M10.2562 24.4201C10.2641 24.5379 10.1227 24.64 9.9499 24.64C9.77711 24.6478 9.6436 24.5457 9.63574 24.4279C9.63574 24.3101 9.76926 24.208 9.94204 24.208C10.1148 24.208 10.2562 24.3023 10.2562 24.4201Z" fill="#181616"/>
<path d="M11.3478 24.2392C11.3714 24.3571 11.2536 24.4749 11.0808 24.5063C10.9159 24.5377 10.7588 24.467 10.7431 24.3492C10.7195 24.2314 10.8452 24.1136 11.0101 24.0822C11.175 24.0508 11.3243 24.1214 11.3478 24.2392Z" fill="#181616"/>
</g>
</svg>
