<svg width="48" height="48" viewBox="0 0 48 48" fill="none" xmlns="http://www.w3.org/2000/svg">
<circle cx="24" cy="24" r="24" fill="#C4C4C4"/>
<circle cx="24" cy="24" r="24" fill="url(#paint0_linear)"/>
<circle cx="24" cy="24" r="24" fill="url(#paint1_linear)"/>
<path d="M39.9146 17.5182C39.8378 15.7935 39.5625 14.6134 39.1721 13.5825C38.7625 12.5192 38.2185 11.6115 37.3288 10.7167C36.4392 9.82194 35.5496 9.25785 34.4999 8.84937C33.4823 8.44738 32.3174 8.17506 30.6149 8.09726C28.9061 8.01945 28.362 8 24.0226 8C19.6768 8 19.1328 8.01945 17.4303 8.09726C15.7279 8.17506 14.563 8.45386 13.5454 8.84937C12.4893 9.26434 11.5933 9.81546 10.71 10.7167C9.8268 11.6179 9.26998 12.5192 8.86676 13.5825C8.47634 14.6134 8.20113 15.7935 8.12432 17.5182C8.04752 19.2493 8.02832 19.8005 8.02832 24.1965C8.02832 28.5989 8.04752 29.1501 8.12432 30.8748C8.20113 32.5994 8.47634 33.7795 8.86676 34.8104C9.27638 35.8737 9.8204 36.7815 10.71 37.6762C11.5933 38.5775 12.4893 39.1351 13.539 39.5436C14.5566 39.9456 15.7215 40.2179 17.4239 40.2957C19.1328 40.3735 19.6768 40.3929 24.0162 40.3929C28.362 40.3929 28.9061 40.3735 30.6085 40.2957C32.311 40.2179 33.4759 39.9391 34.4935 39.5436C35.5432 39.1286 36.4392 38.5775 37.3224 37.6762C38.2057 36.775 38.7625 35.8737 39.1657 34.8104C39.5625 33.7795 39.8314 32.5994 39.9082 30.8748C39.985 29.1436 40.0042 28.5925 40.0042 24.1965C40.0042 19.8005 39.9914 19.2429 39.9146 17.5182ZM37.0408 30.7451C36.9704 32.3271 36.708 33.1895 36.4904 33.7535C36.2024 34.5057 35.8504 35.0503 35.2871 35.6209C34.7239 36.1914 34.1927 36.5351 33.4439 36.8398C32.8806 37.0603 32.0294 37.3261 30.4741 37.3974C28.7909 37.4752 28.2852 37.4947 24.0098 37.4947C19.7344 37.4947 19.2288 37.4752 17.5455 37.3974C15.9839 37.3261 15.1326 37.0603 14.5758 36.8398C13.8334 36.5481 13.2958 36.1914 12.7325 35.6209C12.1693 35.0503 11.8301 34.5121 11.5293 33.7535C11.3117 33.183 11.0493 32.3206 10.9789 30.7451C10.902 29.0398 10.8828 28.5276 10.8828 24.1965C10.8828 19.8653 10.902 19.3531 10.9789 17.6479C11.0493 16.0658 11.3117 15.2035 11.5293 14.6394C11.8173 13.8873 12.1693 13.3426 12.7325 12.7721C13.2958 12.2015 13.827 11.8578 14.5758 11.5531C15.139 11.3327 15.9903 11.0668 17.5455 10.9955C19.2288 10.9177 19.7344 10.8982 24.0098 10.8982C28.2852 10.8982 28.7909 10.9177 30.4741 10.9955C32.0358 11.0668 32.887 11.3327 33.4439 11.5531C34.1863 11.8449 34.7239 12.2015 35.2871 12.7721C35.8504 13.3426 36.1896 13.8808 36.4904 14.6394C36.708 15.21 36.9704 16.0723 37.0408 17.6479C37.1176 19.3531 37.1368 19.8653 37.1368 24.1965C37.1368 28.5276 37.1112 29.0398 37.0408 30.7451Z" fill="white"/>
<path d="M24.0168 15.8723C19.4726 15.8723 15.7988 19.6005 15.7988 24.1975C15.7988 28.8009 19.479 32.5226 24.0168 32.5226C28.5546 32.5226 32.2348 28.788 32.2348 24.1975C32.2348 19.594 28.561 15.8723 24.0168 15.8723ZM24.0168 29.5984C21.0727 29.5984 18.6854 27.18 18.6854 24.1975C18.6854 21.2149 21.0727 18.7965 24.0168 18.7965C26.9609 18.7965 29.3482 21.2149 29.3482 24.1975C29.3482 27.18 26.9609 29.5984 24.0168 29.5984Z" fill="white"/>
<path d="M32.5422 17.4911C33.6026 17.4911 34.4622 16.6202 34.4622 15.546C34.4622 14.4717 33.6026 13.6008 32.5422 13.6008C31.4817 13.6008 30.6221 14.4717 30.6221 15.546C30.6221 16.6202 31.4817 17.4911 32.5422 17.4911Z" fill="white"/>
<path d="M8 24.1967C8 28.5992 8.0192 29.1503 8.096 30.875C8.17281 32.5997 8.44802 33.7797 8.83844 34.8106C9.24806 35.874 9.79208 36.7817 10.6817 37.6764C11.565 38.5712 12.461 39.1353 13.5106 39.5438C14.5283 39.9458 15.6931 40.2181 17.3956 40.2959C19.1045 40.3737 19.6485 40.3931 23.9879 40.3931C28.3337 40.3931 28.8777 40.3737 30.5802 40.2959C32.2827 40.2181 33.4475 39.9393 34.4652 39.5438C35.5148 39.1288 36.4109 38.5777 37.2941 37.6764C38.1774 36.7817 38.7342 35.874 39.1374 34.8106C39.5342 33.7797 39.803 32.5997 39.8798 30.875C39.9566 29.1438 39.9758 28.5927 39.9758 24.1967C39.9758 19.7942 39.9566 19.2431 39.8798 17.5184C39.803 15.7937 39.5278 14.6137 39.1374 13.5828C38.7278 12.5194 38.1838 11.6117 37.2941 10.7169C36.4173 9.8157 35.5212 9.2581 34.4716 8.84962C33.454 8.44762 32.2891 8.17531 30.5866 8.0975C28.8777 8.0197 28.3337 8.00024 23.9943 8.00024C19.6485 8.00024 19.1045 8.0197 17.402 8.0975C15.6995 8.17531 14.5347 8.45411 13.517 8.84962C12.4674 9.26458 11.5714 9.8157 10.6881 10.7169C9.80488 11.6182 9.24806 12.5194 8.84484 13.5828C8.44802 14.6137 8.17281 15.7937 8.096 17.5184C8.0192 19.2431 8 19.7942 8 24.1967ZM10.8865 24.1967C10.8865 19.872 10.9057 19.3533 10.9825 17.6481C11.0529 16.0661 11.3154 15.2037 11.533 14.6396C11.821 13.8875 12.173 13.3429 12.7362 12.7723C13.2994 12.2017 13.8307 11.8581 14.5795 11.5533C15.1427 11.3329 15.994 11.0671 17.5492 10.9957C19.2325 10.9179 19.7381 10.8985 24.0135 10.8985C28.2889 10.8985 28.7945 10.9179 30.4778 10.9957C32.0395 11.0671 32.8907 11.3329 33.4476 11.5533C34.19 11.8451 34.7276 12.2017 35.2908 12.7723C35.8541 13.3429 36.1933 13.881 36.4941 14.6396C36.7117 15.2102 36.9741 16.0725 37.0445 17.6481C37.1213 19.3533 37.1405 19.8655 37.1405 24.1967C37.1405 28.5279 37.1213 29.0401 37.0445 30.7453C36.9741 32.3273 36.7117 33.1897 36.4941 33.7538C36.2061 34.5059 35.8541 35.0505 35.2908 35.6211C34.7276 36.1917 34.1964 36.5353 33.4476 36.84C32.8843 37.0605 32.0331 37.3263 30.4778 37.3976C28.7945 37.4754 28.2889 37.4949 24.0135 37.4949C19.7381 37.4949 19.2325 37.4754 17.5492 37.3976C15.9876 37.3263 15.1363 37.0605 14.5795 36.84C13.8371 36.5483 13.2994 36.1917 12.7362 35.6211C12.173 35.0505 11.8338 34.5124 11.533 33.7538C11.3154 33.1832 11.0529 32.3209 10.9825 30.7453C10.8993 29.0401 10.8865 28.5214 10.8865 24.1967Z" fill="white"/>
<defs>
<linearGradient id="paint0_linear" x1="40.5865" y1="3.67041" x2="5.86581" y2="46.2356" gradientUnits="userSpaceOnUse">
<stop stop-color="#AE3DAE"/>
<stop offset="0.0468721" stop-color="#B23BA6"/>
<stop offset="0.1216" stop-color="#BD368E"/>
<stop offset="0.2148" stop-color="#CE2E69"/>
<stop offset="0.3216" stop-color="#E62335"/>
<stop offset="0.418" stop-color="#FF1800"/>
</linearGradient>
<linearGradient id="paint1_linear" x1="34.8971" y1="-1.97606" x2="13.6577" y2="48.6817" gradientUnits="userSpaceOnUse">
<stop offset="0.2341" stop-color="#9E35A5" stop-opacity="0"/>
<stop offset="0.4512" stop-color="#D42F7F" stop-opacity="0.5"/>
<stop offset="0.7524" stop-color="#F7772E"/>
<stop offset="0.9624" stop-color="#FEF780"/>
</linearGradient>
</defs>
</svg>
