<svg width="48" height="48" viewBox="0 0 48 48" fill="none" xmlns="http://www.w3.org/2000/svg">
<circle cx="24" cy="24" r="24" fill="#010101"/>
<path fill-rule="evenodd" clip-rule="evenodd" d="M32.1901 18.4871C34.5716 20.2108 37.4892 21.225 40.64 21.225V15.0855C40.0437 15.0858 39.4489 15.0227 38.8655 14.8975V19.7302C35.7149 19.7302 32.7977 18.716 30.4156 16.9923V29.521C30.4156 35.7886 25.3977 40.869 19.208 40.869C16.8986 40.869 14.752 40.1621 12.9688 38.9497C15.004 41.0566 17.8422 42.3638 20.9821 42.3638C27.1723 42.3638 32.1904 37.2834 32.1904 31.0156V18.4871H32.1901ZM34.3792 12.2932C33.1622 10.947 32.3631 9.20707 32.1901 7.28351V6.4939H30.5085C30.9318 8.93857 32.3755 11.0272 34.3792 12.2932ZM16.8836 34.1403C16.2037 33.2376 15.8362 32.1332 15.8378 30.9977C15.8378 28.1311 18.1331 25.8071 20.9647 25.8071C21.4924 25.8067 22.0169 25.8887 22.5199 26.0502V19.7736C21.9322 19.6921 21.3391 19.6575 20.746 19.6702V24.5556C20.2428 24.3941 19.7181 24.3121 19.1902 24.3125C16.3585 24.3125 14.0635 26.6366 14.0635 29.5034C14.0635 31.5303 15.2107 33.2855 16.8836 34.1403Z" fill="#EE1D52"/>
<path fill-rule="evenodd" clip-rule="evenodd" d="M30.4157 16.9923C32.7977 18.716 35.7149 19.7302 38.8656 19.7302V14.8975C37.1069 14.5183 35.55 13.5876 34.3793 12.2932C32.3756 11.0272 30.9318 8.93857 30.5086 6.4939H26.0915V31.0154C26.0815 33.874 23.7901 36.1887 20.9646 36.1887C19.2995 36.1887 17.8202 35.3852 16.8835 34.1403C15.2105 33.2855 14.0633 31.5303 14.0633 29.5034C14.0633 26.6366 16.3584 24.3125 19.19 24.3125C19.7325 24.3125 20.2554 24.398 20.7459 24.5556V19.6702C14.665 19.7974 9.77441 24.8283 9.77441 31.0156C9.77441 34.1042 10.9923 36.9042 12.9688 38.9499C14.752 40.1623 16.8987 40.8693 19.2081 40.8693C25.3978 40.8693 30.4157 35.7886 30.4157 29.5212V16.9923Z" fill="white"/>
<path fill-rule="evenodd" clip-rule="evenodd" d="M38.8655 14.8982V13.5914C37.2795 13.5938 35.7248 13.1441 34.3792 12.2937C35.5703 13.6141 37.1387 14.5246 38.8655 14.8982ZM30.5085 6.49458C30.4681 6.26097 30.4371 6.02579 30.4156 5.78961V5H24.3166V29.5217C24.3068 32.3801 22.0157 34.6947 19.1899 34.6947C18.3602 34.6947 17.5771 34.4955 16.8834 34.141C17.8201 35.3858 19.2994 36.1893 20.9645 36.1893C23.7898 36.1893 26.0814 33.8747 26.0914 31.016V6.49458H30.5085ZM20.746 19.6709V18.2797C20.2364 18.2091 19.7226 18.1738 19.2082 18.1741C13.0179 18.1741 8 23.2548 8 29.5217C8 33.4508 9.97212 36.9135 12.9689 38.9503C10.9925 36.9046 9.77454 34.1046 9.77454 31.016C9.77454 24.829 14.6649 19.7981 20.746 19.6709Z" fill="#69C9D0"/>
</svg>
