<svg width="48" height="48" viewBox="0 0 48 48" fill="none" xmlns="http://www.w3.org/2000/svg">
<circle cx="24" cy="24" r="24" fill="#55ACEE"/>
<path d="M42.4466 12.5083C41.1209 13.1017 39.7028 13.5077 38.2127 13.6847C39.7336 12.7581 40.9051 11.2903 41.46 9.55175C40.0316 10.4054 38.4594 11.03 36.774 11.3632C35.4278 9.9057 33.5062 9 31.3892 9C27.3095 9 24.0108 12.3521 24.0108 16.4746C24.0108 17.0576 24.0725 17.6302 24.2061 18.1819C18.0711 17.8696 12.635 14.8923 8.99715 10.3742C8.36001 11.4777 8.00034 12.7581 8.00034 14.1323C8.00034 16.7245 9.30543 19.0148 11.2785 20.3577C10.0659 20.3161 8.93549 19.9829 7.93868 19.4208C7.93868 19.452 7.93868 19.4832 7.93868 19.5145C7.93868 23.1373 10.4872 26.1563 13.8578 26.8434C13.2413 27.0099 12.5836 27.1036 11.9156 27.1036C11.4429 27.1036 10.9805 27.0516 10.5283 26.9683C11.4635 29.9352 14.197 32.1006 17.4237 32.163C14.8958 34.1722 11.7204 35.359 8.25725 35.359C7.66122 35.359 7.07547 35.3278 6.5 35.2549C9.76787 37.3786 13.642 38.6175 17.8142 38.6175C31.3892 38.6175 38.8088 27.2285 38.8088 17.3491C38.8088 17.0264 38.7985 16.7037 38.7882 16.3809C40.2063 15.3191 41.46 14.0074 42.4466 12.5083Z" fill="white"/>
</svg>
