<svg width="220" height="209" viewBox="0 0 220 209" fill="none" xmlns="http://www.w3.org/2000/svg">
<g clip-path="url(#clip0)">
<path d="M207.579 23.603L207.666 23.7508C199.817 33.5531 199.299 48.7738 199.267 48.9042L197.613 46.9918C197.642 46.8528 199.678 33.4691 207.579 23.603Z" fill="#444053"/>
<path d="M211.315 47.5741C211.315 47.5741 207.072 38.67 210.849 32.875" stroke="#444053" stroke-miterlimit="10"/>
<path d="M218.5 25.127C218.5 25.127 212.667 30.7018 213.411 33.8021" stroke="#444053" stroke-miterlimit="10"/>
<path d="M214.984 23.157C214.984 23.157 209.517 24.1363 208.752 22.3428" stroke="#444053" stroke-miterlimit="10"/>
<path d="M207.877 16.5532C207.877 16.5532 210.64 20.2128 211.352 19.3928" stroke="#444053" stroke-miterlimit="10"/>
<path d="M202.835 19.6221C202.835 19.6221 202.817 27.8076 200.604 28.3871" stroke="#444053" stroke-miterlimit="10"/>
<path d="M184.624 30.2267C184.624 30.2267 193.469 30.983 197.549 26.4165" stroke="#444053" stroke-miterlimit="10"/>
<path d="M200.549 9.94971C200.549 9.94971 198.409 18.254 192.507 20.488" stroke="#444053" stroke-miterlimit="10"/>
<path d="M179.318 21.4821C179.318 21.4821 185.58 23.6582 190.964 18.1123" stroke="#444053" stroke-miterlimit="10"/>
<path d="M179.556 10.7379C179.556 10.7379 184.751 10.7727 185.971 9.07764" stroke="#444053" stroke-miterlimit="10"/>
<path d="M143.664 206.909V209.175H76.6885V207.332C80.7729 205.818 84.3164 203.126 86.8706 199.596C89.4248 196.066 90.8748 191.857 91.037 187.503C91.1992 183.148 90.0662 178.843 87.7817 175.132C85.4971 171.422 82.1636 168.474 78.2031 166.66H143.209C139.346 168.441 136.08 171.303 133.806 174.9C131.533 178.497 130.349 182.676 130.397 186.932C130.445 191.188 131.723 195.339 134.077 198.883C136.432 202.428 139.761 205.216 143.664 206.909Z" fill="#D2D4DE"/>
<path opacity="0.1" d="M143.209 166.66C140.222 168.033 137.579 170.056 135.474 172.583C133.37 175.11 131.857 178.076 131.046 181.263H90.3726C89.5616 178.076 88.0484 175.11 85.9438 172.583C83.8392 170.056 81.1964 168.033 78.209 166.66H143.209Z" fill="black"/>
<path d="M0 155.119V167.836C0 174.862 5.1377 180.556 11.4773 180.556H208.523C214.862 180.556 220 174.862 220 167.836V155.119H0Z" fill="#D2D4DE"/>
<path opacity="0.1" d="M143.664 206.909V209.175H76.6885V207.332C78.5259 206.65 80.2636 205.724 81.8551 204.58H139.557C140.839 205.501 142.216 206.282 143.664 206.909Z" fill="black"/>
<path d="M163.042 205.287H57.3079C55.7884 205.287 54.5566 206.519 54.5566 208.039V209.248C54.5566 210.768 55.7884 212 57.3079 212H163.042C164.561 212 165.793 210.768 165.793 209.248V208.039C165.793 206.519 164.561 205.287 163.042 205.287Z" fill="#D2D4DE"/>
<path d="M220 15.7392C220 12.6938 218.791 9.77306 216.638 7.6196C214.486 5.46615 211.567 4.25635 208.523 4.25635H11.4773C8.43332 4.25635 5.51402 5.46615 3.36162 7.6196C1.20921 9.77306 0 12.6938 0 15.7392V157.59H220V15.7392Z" fill="#30374E"/>
<path d="M214 20.862V142.752C214 144.251 213.404 145.689 212.345 146.749C211.285 147.809 209.848 148.405 208.349 148.405H11.6542C10.9126 148.405 10.1782 148.26 9.49283 147.976C8.80751 147.693 8.18473 147.277 7.66005 146.752C7.13537 146.228 6.71906 145.605 6.4349 144.92C6.15074 144.234 6.00429 143.5 6.00391 142.758V20.862C6.00277 20.1196 6.14779 19.3843 6.43069 18.698C6.71359 18.0117 7.12883 17.3878 7.65271 16.8621C8.17658 16.3363 8.79882 15.919 9.48391 15.6338C10.169 15.3487 10.9035 15.2013 11.6455 15.2002H11.6542H208.349C209.092 15.2006 209.827 15.3472 210.512 15.6318C211.198 15.9164 211.821 16.3334 212.346 16.8588C212.87 17.3843 213.287 18.008 213.57 18.6944C213.854 19.3808 214 20.1163 214 20.8591V20.862Z" fill="#DFE3EF"/>
<path d="M110.001 12.384C111.464 12.384 112.65 11.197 112.65 9.73278C112.65 8.26854 111.464 7.08154 110.001 7.08154C108.537 7.08154 107.351 8.26854 107.351 9.73278C107.351 11.197 108.537 12.384 110.001 12.384Z" fill="white"/>
<path d="M110 174.903C113.609 174.903 116.534 171.977 116.534 168.366C116.534 164.756 113.609 161.83 110 161.83C106.392 161.83 103.467 164.756 103.467 168.366C103.467 171.977 106.392 174.903 110 174.903Z" fill="white"/>
<path d="M213.997 20.8619H6.00392C6.0024 20.12 6.14697 19.3849 6.42937 18.6988C6.71178 18.0127 7.12649 17.389 7.64982 16.8633C8.17316 16.3375 8.79487 15.9201 9.47946 15.6347C10.1641 15.3494 10.8981 15.2017 11.6397 15.2002C11.6446 15.2002 11.6494 15.2002 11.6542 15.2002H208.346C209.088 15.1998 209.822 15.3456 210.508 15.6292C211.193 15.9128 211.816 16.3286 212.34 16.853C212.865 17.3774 213.281 18.0001 213.566 18.6855C213.85 19.3708 213.996 20.1055 213.997 20.8475L213.997 20.8619Z" fill="white"/>
<path d="M11.6535 19.4481C12.4341 19.4481 13.0668 18.815 13.0668 18.0341C13.0668 17.2532 12.4341 16.6201 11.6535 16.6201C10.873 16.6201 10.2402 17.2532 10.2402 18.0341C10.2402 18.815 10.873 19.4481 11.6535 19.4481Z" fill="#DFE3EF"/>
<path d="M15.8908 19.4481C16.6714 19.4481 17.3041 18.815 17.3041 18.0341C17.3041 17.2532 16.6714 16.6201 15.8908 16.6201C15.1103 16.6201 14.4775 17.2532 14.4775 18.0341C14.4775 18.815 15.1103 19.4481 15.8908 19.4481Z" fill="#DFE3EF"/>
<path d="M20.1281 19.4481C20.9087 19.4481 21.5414 18.815 21.5414 18.0341C21.5414 17.2532 20.9087 16.6201 20.1281 16.6201C19.3476 16.6201 18.7148 17.2532 18.7148 18.0341C18.7148 18.815 19.3476 19.4481 20.1281 19.4481Z" fill="#DFE3EF"/>
<path d="M193.451 36.5176H25.5869V134.662H193.451V36.5176Z" fill="white"/>
<path d="M62.7935 45.7925H41.3623V68.0223H62.7935V45.7925Z" fill="#DFE3EF"/>
<path d="M90.3062 45.7925H68.875V68.0223H90.3062V45.7925Z" fill="#DFE3EF"/>
<path d="M117.82 45.7925H96.3887V68.0223H117.82V45.7925Z" fill="#DFE3EF"/>
<path opacity="0.2" d="M145.333 45.7925H123.901V68.0223H145.333V45.7925Z" fill="#5131BD"/>
<path d="M172.845 45.7925H151.414V68.0223H172.845V45.7925Z" fill="#DFE3EF"/>
<path d="M52.0776 48.0986C51.3697 48.0986 50.6776 48.3087 50.0889 48.7022C49.5003 49.0957 49.0415 49.6551 48.7705 50.3095C48.4996 50.9639 48.4287 51.6839 48.5668 52.3787C48.7049 53.0734 49.0459 53.7115 49.5465 54.2124C50.0471 54.7132 50.6849 55.0543 51.3793 55.1925C52.0737 55.3307 52.7934 55.2598 53.4475 54.9887C54.1016 54.7176 54.6606 54.2586 55.054 53.6697C55.4473 53.0807 55.6572 52.3883 55.6572 51.68V51.6771C55.6572 50.728 55.2804 49.8178 54.6096 49.1467C53.9389 48.4756 53.0291 48.0986 52.0805 48.0986H52.0776ZM54.5393 52.642C54.4003 52.5956 54.1339 52.5811 54.0325 52.4623C53.9833 52.4015 54.0151 52.1726 54.0151 52.1726C54.1988 52.1843 54.3823 52.1483 54.548 52.0682C54.6146 52.0277 54.5857 52.0219 54.548 51.9639C54.3598 51.6481 54.4438 51.2482 54.4351 50.9034C54.4468 50.7572 54.4214 50.6104 54.3611 50.4766C54.3008 50.3429 54.2077 50.2265 54.0904 50.1385C53.924 50.0533 53.7385 50.0124 53.5518 50.0197C53.4039 50.0159 53.2566 50.0394 53.1173 50.0892C52.3875 50.379 52.8277 51.3497 52.5671 51.9031C52.5236 51.9987 52.4628 52.0306 52.5671 52.0856C52.7248 52.1528 52.8939 52.1892 53.0652 52.1928V52.4333C53.0449 52.5174 52.8625 52.5753 52.793 52.5956C52.6942 52.6214 52.5974 52.6543 52.5034 52.6941C52.4901 52.699 52.4786 52.7079 52.4705 52.7196C52.4624 52.7313 52.458 52.7451 52.458 52.7593C52.458 52.7735 52.4624 52.7874 52.4705 52.799C52.4786 52.8107 52.4901 52.8196 52.5034 52.8245C52.5712 52.8354 52.638 52.8519 52.7032 52.8738C52.9975 52.9507 53.2688 53.0978 53.4938 53.3026C53.6992 53.5074 53.8219 53.7808 53.8385 54.0704C53.8422 54.1093 53.8353 54.1485 53.8185 54.1837C53.8017 54.2189 53.7755 54.2489 53.7429 54.2704L53.6444 54.3312C53.6373 54.3361 53.629 54.3389 53.6204 54.3392C53.6117 54.3396 53.6032 54.3376 53.5957 54.3334C53.5881 54.3292 53.5819 54.3229 53.5778 54.3154C53.5736 54.3078 53.5716 54.2993 53.572 54.2906C53.577 54.0442 53.5032 53.8026 53.3616 53.601C53.2199 53.3993 53.0177 53.2481 52.7843 53.1693C52.5497 53.0882 52.3006 53.0824 52.0689 53.0012C51.9965 52.9781 51.8575 52.9462 51.8286 52.868C51.8054 52.785 51.7947 52.6991 51.7967 52.613V52.4159C51.7967 52.3522 51.9068 52.2827 51.9299 52.2421C52.0071 52.0728 52.0475 51.8892 52.0487 51.7032C52.1993 51.7437 52.2167 51.4685 52.2427 51.3815C52.2688 51.2946 52.3296 51.0222 52.1993 50.9759C52.239 50.8971 52.2636 50.8116 52.2717 50.7238C52.3157 50.4991 52.3088 50.2674 52.2514 50.0458C52.1771 49.8354 52.0388 49.6535 51.856 49.5257C51.6732 49.3979 51.455 49.3305 51.232 49.333C51.0047 49.314 50.7772 49.3666 50.5814 49.4835C50.3856 49.6005 50.2313 49.7758 50.1401 49.9849C50.0689 50.2046 50.052 50.4382 50.0909 50.6658C50.0977 50.7735 50.1252 50.8787 50.172 50.9759C50.0619 51.0251 50.0938 51.2656 50.1141 51.3439C50.1343 51.4221 50.1662 51.7466 50.3226 51.7032C50.3332 51.8438 50.3555 51.9834 50.3892 52.1204C50.4168 52.2107 50.4655 52.2931 50.5311 52.3609C50.5601 52.3957 50.5775 52.3986 50.5746 52.442C50.58 52.5799 50.5693 52.718 50.5427 52.8535C50.5079 52.9839 50.2212 53.0389 50.1054 53.0621C49.8593 53.093 49.6192 53.1603 49.3929 53.262C49.1231 52.8064 48.9744 52.2892 48.9612 51.7598C48.948 51.2304 49.0707 50.7064 49.3175 50.2379C49.5643 49.7694 49.9271 49.372 50.3711 49.0837C50.8151 48.7955 51.3256 48.6259 51.8538 48.5911C52.382 48.5564 52.9103 48.6578 53.3882 48.8855C53.8661 49.1132 54.2777 49.4597 54.5836 49.8918C54.8896 50.324 55.0797 50.8274 55.1358 51.354C55.192 51.8806 55.1122 52.4128 54.9042 52.8998C54.8046 52.7765 54.6705 52.6857 54.5191 52.6391L54.5393 52.642Z" fill="white"/>
<path opacity="0.5" d="M52.4054 64.5217V60.5608L54.23 62.3862L54.6847 61.9139L52.0782 59.3062L49.4717 61.9139L49.9293 62.3688L51.7538 60.5608V64.5217H52.4054Z" fill="#5131BD"/>
<path opacity="0.5" d="M79.9181 64.5217V60.5608L81.7427 62.3862L82.1974 61.9139L79.5909 59.3062L76.9844 61.9139L77.4391 62.3688L79.2665 60.5608V64.5217H79.9181Z" fill="#5131BD"/>
<path d="M79.6922 50.9848C79.6849 50.9752 79.6755 50.9674 79.6647 50.962C79.6539 50.9567 79.642 50.9539 79.6299 50.9539C79.6178 50.9539 79.6059 50.9567 79.5951 50.962C79.5843 50.9674 79.5749 50.9752 79.5676 50.9848L78.0819 52.958C78.0727 52.9686 78.0667 52.9816 78.0644 52.9955C78.0622 53.0093 78.0639 53.0235 78.0693 53.0365C78.0747 53.0495 78.0837 53.0606 78.0951 53.0688C78.1066 53.0769 78.12 53.0817 78.1341 53.0826L80.7406 53.3086C80.7544 53.31 80.7683 53.3075 80.7808 53.3014C80.7933 53.2954 80.8039 53.286 80.8114 53.2743C80.8188 53.2626 80.823 53.2491 80.8232 53.2352C80.8235 53.2213 80.82 53.2076 80.813 53.1956L79.6951 50.9935L79.6922 50.9848ZM81.3864 52.0337C81.3791 52.0241 81.3697 52.0163 81.3589 52.0109C81.3481 52.0056 81.3362 52.0028 81.3241 52.0028C81.3121 52.0028 81.3002 52.0056 81.2894 52.0109C81.2786 52.0163 81.2691 52.0241 81.2619 52.0337L80.8622 52.4393C80.8523 52.4517 80.8469 52.467 80.8469 52.4828C80.8469 52.4986 80.8523 52.5139 80.8622 52.5263L81.2734 53.326C81.2794 53.3364 81.2877 53.3453 81.2978 53.3519C81.3079 53.3584 81.3194 53.3625 81.3314 53.3637L82.0583 53.4245C82.0721 53.4259 82.086 53.4234 82.0985 53.4173C82.111 53.4113 82.1216 53.4019 82.1291 53.3902C82.1366 53.3785 82.1407 53.365 82.141 53.3511C82.1413 53.3372 82.1377 53.3235 82.1307 53.3115L81.3951 52.0424L81.3864 52.0337ZM81.5631 51.3933C81.6611 51.3921 81.7549 51.3533 81.8251 51.2849C81.8954 51.2164 81.9366 51.1236 81.9404 51.0256C81.9442 50.9276 81.9101 50.8319 81.8454 50.7582C81.7806 50.6846 81.6901 50.6387 81.5924 50.6299C81.4948 50.6212 81.3975 50.6503 81.3207 50.7113C81.2439 50.7723 81.1935 50.8605 81.1798 50.9576C81.1662 51.0547 81.1903 51.1534 81.2473 51.2332C81.3043 51.313 81.3898 51.3679 81.486 51.3864C81.5114 51.3913 81.5372 51.3936 81.5631 51.3933Z" fill="white"/>
<path d="M82.8083 49.8574L81.7454 49.7647L81.6469 48.681C81.6359 48.565 81.5795 48.4582 81.4899 48.3838C81.4003 48.3094 81.285 48.2735 81.1691 48.284L76.3702 48.7186C76.313 48.7237 76.2574 48.7401 76.2065 48.7667C76.1556 48.7933 76.1104 48.8296 76.0736 48.8737C76.0367 48.9178 76.0089 48.9687 75.9917 49.0235C75.9745 49.0783 75.9683 49.136 75.9734 49.1932L75.9735 49.1938L76.405 53.9863C76.4159 54.1019 76.4723 54.2083 76.5617 54.2822C76.6511 54.3561 76.7662 54.3915 76.8817 54.3805L76.8828 54.3804L77.1348 54.3601L77.1116 54.6296C77.1013 54.7444 77.137 54.8586 77.2108 54.9471C77.2847 55.0356 77.3906 55.0911 77.5054 55.1014L77.5113 55.1019L82.313 55.522C82.4289 55.5317 82.544 55.495 82.6329 55.4201C82.7219 55.3452 82.7777 55.2381 82.788 55.1222L83.2108 50.3297C83.2159 50.2728 83.2098 50.2155 83.1928 50.161C83.1758 50.1066 83.1482 50.056 83.1116 50.0122C83.0751 49.9684 83.0302 49.9322 82.9797 49.9057C82.9291 49.8792 82.8739 49.863 82.8171 49.8579L82.8112 49.8574H82.8083ZM76.8684 52.6274C76.8398 52.6291 76.8116 52.6199 76.7896 52.6016C76.7675 52.5833 76.7532 52.5573 76.7496 52.5289L76.46 49.2953C76.4568 49.267 76.465 49.2386 76.4828 49.2164C76.5005 49.1942 76.5264 49.18 76.5546 49.1768L76.5585 49.1765L81.0677 48.7708C81.0963 48.7691 81.1245 48.7783 81.1465 48.7966C81.1685 48.8149 81.1828 48.8409 81.1864 48.8693L81.2646 49.7241L78.0065 49.4343C77.9493 49.4292 77.8917 49.4353 77.8368 49.4524C77.782 49.4695 77.7311 49.4973 77.687 49.5341C77.6429 49.5709 77.6065 49.616 77.5798 49.6669C77.5532 49.7178 77.5368 49.7735 77.5316 49.8307L77.5316 49.8313L77.2912 52.5839L76.8684 52.6245V52.6274ZM82.7214 50.434L82.4318 53.6676C82.4288 53.6963 82.4147 53.7227 82.3925 53.7412C82.3703 53.7596 82.3418 53.7686 82.313 53.7661L82.0234 53.7401L77.8125 53.375C77.7834 53.3728 77.7563 53.3591 77.7373 53.3369C77.7183 53.3148 77.7089 53.286 77.7111 53.2569L77.7111 53.2562L77.7719 52.5463L77.9949 50.0254C77.9956 50.0114 77.9991 49.9976 78.0052 49.9849C78.0112 49.9721 78.0197 49.9607 78.0301 49.9513C78.0406 49.9419 78.0528 49.9346 78.066 49.9299C78.0793 49.9251 78.0933 49.9231 78.1074 49.9238L78.1108 49.924L81.311 50.2138L81.7888 50.2572L82.6229 50.3297C82.6493 50.3318 82.674 50.3436 82.6922 50.3629C82.7104 50.3822 82.7208 50.4075 82.7214 50.434L82.7214 50.434Z" fill="white"/>
<path d="M90.3065 89.8721H41.3623V126.381H90.3065V89.8721Z" fill="#DFE3EF"/>
<path d="M71.4496 101.086C68.8609 100.191 66.0962 99.9288 63.3857 100.32C60.6751 100.711 58.0973 101.745 55.8668 103.335C53.6363 104.924 51.8178 107.024 50.5627 109.46C49.3076 111.895 48.6523 114.595 48.6514 117.335C48.6514 117.658 48.523 117.969 48.2943 118.197C48.0656 118.426 47.7555 118.555 47.4322 118.555C47.1088 118.555 46.7987 118.426 46.57 118.197C46.3413 117.969 46.2129 117.658 46.2129 117.335C46.2142 114.213 46.9591 111.137 48.386 108.361C49.8128 105.585 51.8804 103.19 54.4174 101.373C56.9544 99.5562 59.8878 98.3706 62.9742 97.9144C66.0606 97.4583 69.2113 97.7448 72.1649 98.7501" fill="#5131BD"/>
<path d="M72.1655 98.7505C76.0397 100.077 79.4029 102.581 81.7856 105.913C84.1683 109.245 85.4514 113.238 85.4558 117.335C85.4558 117.659 85.3273 117.969 85.0986 118.198C84.87 118.427 84.5599 118.555 84.2365 118.555C83.9131 118.555 83.603 118.427 83.3744 118.198C83.1457 117.969 83.0172 117.659 83.0172 117.335C83.013 113.761 81.8972 110.276 79.8246 107.364C77.752 104.453 74.8253 102.259 71.4502 101.086" fill="white"/>
<path d="M163.269 49.96H163.254C162.974 49.961 162.7 50.0318 162.455 50.166C162.21 50.3001 162.003 50.4934 161.852 50.7282C161.701 50.4934 161.493 50.3001 161.248 50.166C161.004 50.0318 160.729 49.961 160.45 49.96H160.434C159.994 49.9636 159.574 50.1409 159.264 50.4534C158.954 50.7659 158.78 51.1882 158.78 51.6283C158.817 52.3377 159.062 53.0204 159.487 53.5899C160.169 54.4505 160.965 55.2151 161.852 55.8629C162.737 55.2128 163.532 54.4486 164.217 53.5899C164.641 53.0204 164.887 52.3377 164.923 51.6283C164.923 51.1882 164.75 50.7659 164.44 50.4534C164.13 50.1409 163.709 49.9636 163.269 49.96Z" fill="white"/>
<path d="M178.059 74.6113H103.806V129.858H178.059V74.6113Z" fill="#DFE3EF"/>
<path d="M114.489 116.185H111.448V126.381H114.489V116.185Z" fill="white"/>
<path d="M120.281 103.563H117.24V126.381H120.281V103.563Z" fill="white"/>
<path d="M126.073 92.1904H123.032V126.381H126.073V92.1904Z" fill="#DFE3EF"/>
<path d="M131.865 84.0771H128.824V126.381H131.865V84.0771Z" fill="white"/>
<path d="M126.073 84.0771H123.032V126.381H126.073V84.0771Z" fill="#5131BD"/>
<path d="M137.658 103.128H134.617V126.381H137.658V103.128Z" fill="#5131BD"/>
<path d="M143.45 97.1162H140.409V126.381H143.45V97.1162Z" fill="white"/>
<path d="M149.242 87.9888H146.201V126.381H149.242V87.9888Z" fill="white"/>
<path opacity="0.2" d="M155.034 109.286H151.993V126.381H155.034V109.286Z" fill="#5131BD"/>
<path opacity="0.2" d="M160.827 101.39H157.786V126.381H160.827V101.39Z" fill="#5131BD"/>
<path opacity="0.2" d="M166.619 92.1904H163.578V126.381H166.619V92.1904Z" fill="#5131BD"/>
<path opacity="0.2" d="M172.411 92.1904H169.37V126.381H172.411V92.1904Z" fill="#5131BD"/>
<path d="M124.026 45.7104L123.918 67.9399L145.349 68.0446L145.457 45.8151L124.026 45.7104Z" fill="#DFE3EF"/>
<path opacity="0.5" d="M134.974 64.7951L134.998 60.8313L136.813 62.664L137.271 62.1935L134.679 59.5737L132.062 62.1787L132.514 62.6372L134.348 60.8376L134.33 64.7985L134.974 64.7951Z" fill="#5131BD"/>
<path opacity="0.5" d="M161.974 64.7946L161.998 60.8308L163.813 62.6635L164.271 62.1931L161.679 59.5732L159.062 62.1782L159.514 62.6367L161.348 60.8371L161.33 64.798L161.974 64.7946Z" fill="#5131BD"/>
<path d="M134.684 55.8832C134.016 55.88 133.364 55.6775 132.812 55.3015C132.26 54.9255 131.832 54.3931 131.584 53.7725C131.336 53.1519 131.278 52.4714 131.419 51.818C131.56 51.1645 131.892 50.568 132.374 50.1046C132.425 50.055 132.494 50.0278 132.565 50.029C132.637 50.0303 132.705 50.0599 132.754 50.1113L132.755 50.1116C132.804 50.1637 132.831 50.2333 132.829 50.3051C132.828 50.377 132.798 50.4453 132.746 50.4951C132.29 50.9338 131.998 51.5149 131.917 52.1424C131.836 52.7699 131.972 53.4062 132.302 53.9461C132.631 54.486 133.135 54.8971 133.73 55.1115C134.325 55.3259 134.976 55.3307 135.574 55.1251C136.172 54.9196 136.682 54.516 137.019 53.981C137.357 53.4461 137.502 52.8118 137.431 52.1832C137.359 51.5546 137.075 50.9692 136.626 50.5238C136.177 50.0785 135.589 49.7999 134.96 49.734L134.956 50.7847C134.949 50.8517 134.917 50.9136 134.867 50.9586C134.817 51.0035 134.752 51.0282 134.684 51.028C134.617 51.0277 134.552 51.0025 134.502 50.9572C134.452 50.9119 134.421 50.8497 134.414 50.7826L134.42 49.4486C134.421 49.3769 134.45 49.3083 134.501 49.2578C134.551 49.2072 134.62 49.1788 134.692 49.1787C135.567 49.2053 136.398 49.573 137.006 50.2034C137.615 50.8338 137.953 51.677 137.949 52.5534C137.945 53.4298 137.599 54.2699 136.985 54.8948C136.371 55.5197 135.537 55.8799 134.662 55.8986L134.684 55.8832Z" fill="white"/>
<path d="M133.374 50.9425L135.037 52.1526C135.096 52.1893 135.147 52.2378 135.187 52.2951C135.226 52.3524 135.254 52.4172 135.267 52.4855C135.281 52.5538 135.28 52.6242 135.265 52.6922C135.25 52.7602 135.221 52.8244 135.18 52.8808C135.14 52.9372 135.088 52.9845 135.028 53.0199C134.968 53.0553 134.901 53.078 134.832 53.0866C134.763 53.0951 134.693 53.0893 134.626 53.0696C134.56 53.0499 134.498 53.0166 134.444 52.9719C134.4 52.9396 134.361 52.9001 134.329 52.8549L133.136 51.1768C133.124 51.1588 133.115 51.1384 133.11 51.1169C133.105 51.0954 133.104 51.0731 133.108 51.0513C133.112 51.0296 133.12 51.0088 133.131 50.9901C133.143 50.9714 133.158 50.9553 133.176 50.9425L133.177 50.9419C133.206 50.9217 133.24 50.911 133.276 50.9111C133.311 50.9112 133.345 50.9222 133.374 50.9425Z" fill="white"/>
<path opacity="0.5" d="M107.343 64.7913V60.8333L109.165 62.6616L109.622 62.1893L107.016 59.5815L104.409 62.1893L104.864 62.6442L106.691 60.8391V64.8L107.343 64.7913Z" fill="#5131BD"/>
<path d="M103.469 51.3815H107.022V47.8291H106.767C106.333 47.8287 105.904 47.9139 105.503 48.0797C105.101 48.2454 104.737 48.4887 104.43 48.7954C104.123 49.1021 103.879 49.4664 103.713 49.8673C103.546 50.2683 103.46 50.6981 103.46 51.1323V51.1352C103.46 51.2134 103.463 51.3032 103.469 51.3815Z" fill="white"/>
<path d="M104.697 53.7173C105.04 54.1455 105.484 54.4816 105.989 54.6953C106.495 54.909 107.045 54.9936 107.591 54.9415C108.137 54.8894 108.662 54.7023 109.118 54.3969C109.573 54.0915 109.946 53.6774 110.202 53.192C110.458 52.7066 110.59 52.1652 110.584 51.6164C110.579 51.0675 110.438 50.5286 110.173 50.0482C109.907 49.5677 109.527 49.1607 109.066 48.864C108.604 48.5672 108.076 48.3899 107.529 48.3481V51.8918H103.979C104.027 52.5591 104.278 53.1958 104.697 53.7173Z" fill="white"/>
<path opacity="0.1" d="M5.53777 0.0172691C5.53777 0.0172691 3.48153 -0.229019 2.89941 1.13861C3.14579 1.09878 3.39791 1.11362 3.63792 1.18207C3.78861 1.25051 3.95336 1.28228 4.11868 1.27479C4.42828 0.700982 4.93104 0.255453 5.53777 0.0172691Z" fill="white"/>
<path opacity="0.1" d="M15.4105 4.47952C15.4105 4.47952 13.7858 3.19302 12.5752 4.05648C12.806 4.15049 13.0128 4.29504 13.1805 4.47952C13.2743 4.61696 13.3993 4.73017 13.5454 4.80984C14.1083 4.48211 14.7693 4.36505 15.4105 4.47952Z" fill="white"/>
<path opacity="0.1" d="M23.2616 26.8195C23.2616 26.8195 24.032 24.8927 22.862 23.9771C22.8374 24.2263 22.7572 24.467 22.6274 24.6811C22.522 24.8089 22.4486 24.9598 22.4131 25.1216C22.8886 25.5687 23.1895 26.1706 23.2616 26.8195Z" fill="white"/>
<path d="M29.3866 71.8701C29.2894 71.973 29.1859 72.0698 29.0767 72.1599L29.0391 72.1888L30.0933 73.9476C30.1917 73.7506 30.2786 73.5826 30.3452 73.4695L29.3866 71.8701Z" fill="white"/>
<path d="M27.5215 72.6318L29.2881 75.5815L29.5285 75.086L28.037 72.6H27.953C27.8435 72.5936 27.7336 72.6004 27.6257 72.6202L27.5215 72.6318Z" fill="white"/>
<path d="M29.0221 76.1354L28.8078 76.2658L26.5459 72.499C26.7423 72.6039 26.9605 72.6614 27.183 72.6671L29.1379 75.9268L29.0221 76.1354Z" fill="white"/>
<path d="M65.735 116.621C66.7617 116.621 67.594 115.788 67.594 114.761C67.594 113.734 66.7617 112.901 65.735 112.901C64.7083 112.901 63.876 113.734 63.876 114.761C63.876 115.788 64.7083 116.621 65.735 116.621Z" fill="#5131BD"/>
<path d="M69.3034 103.449L65.3535 115.934L65.736 116.055L69.6858 103.57L69.3034 103.449Z" fill="#5131BD"/>
</g>
<defs>
<clipPath id="clip0">
<rect width="220" height="212" fill="white"/>
</clipPath>
</defs>
</svg>
