<svg width="703" height="219" viewBox="0 0 703 219" fill="none" xmlns="http://www.w3.org/2000/svg">
<path d="M687.231 141.708C683.332 139.189 681.448 133.403 683.345 129.245C685.288 124.98 690.505 123.532 694.503 126.111C698.303 128.569 700.043 134.403 698.244 138.621C696.406 143.223 691.525 144.467 687.231 141.708Z" fill="#F5F4F8"/>
<path d="M697.851 107.278C695.814 111.763 691.706 112.937 687.607 110.296C683.607 107.716 682.129 102.72 684.021 98.283C685.959 93.7375 690.356 92.4681 694.653 95.2294C698.752 97.8701 699.979 102.576 697.851 107.278Z" fill="#F5F4F8"/>
<path d="M694.065 62.6567C697.817 64.9492 699.598 70.4053 697.798 74.6284C696.004 79.1285 691.222 80.7111 687.272 78.2979C683.566 75.8971 681.982 70.5617 683.828 66.2302C685.53 61.9467 690.312 60.3642 694.065 62.6567Z" fill="#F5F4F8"/>
<path d="M687.419 235.971C683.471 233.559 682.099 228.9 683.99 224.463C685.744 220.351 690.332 218.925 693.984 221.156C697.636 223.387 699.172 228.828 697.564 232.892C695.955 236.957 691.169 238.262 687.419 235.971Z" fill="#F5F4F8"/>
<path d="M693.545 157.995C697.392 160.345 699.211 165.41 697.505 169.412C695.798 173.414 691.259 174.73 687.412 172.38C683.762 170.15 682.285 165.158 683.992 161.156C685.599 157.094 689.797 155.705 693.545 157.995Z" fill="#F5F4F8"/>
<path d="M693.986 190.054C697.836 192.406 699.255 196.956 697.501 201.069C695.563 205.616 691.751 206.97 687.802 204.558C684.051 202.266 682.481 197.487 684.189 193.482C685.797 189.417 690.235 187.762 693.986 190.054Z" fill="#F5F4F8"/>
<path d="M657.513 130.109C659.221 126.104 663.323 124.654 667.021 126.777C670.522 128.779 672.151 134.004 670.345 137.949C668.684 141.846 664.773 143.14 661.173 141.077C657.422 138.785 655.806 134.114 657.513 130.109Z" fill="#F5F4F8"/>
<path d="M661.312 109.645C657.319 107.342 655.855 102.902 657.608 98.7902C659.268 94.8953 663.27 93.3852 666.769 95.3867C670.17 97.328 671.996 102.671 670.532 106.687C669.109 110.317 664.91 111.707 661.312 109.645Z" fill="#F5F4F8"/>
<path d="M685.442 35.3947C687.103 31.4986 690.816 30.0839 694.218 32.0258C697.718 34.028 699.439 39.0357 697.871 42.7154C696.209 46.6116 692.299 47.9057 688.647 45.6747C685.094 43.504 683.781 39.2909 685.442 35.3947Z" fill="#F5F4F8"/>
<path d="M657.957 67.2087C659.619 63.3126 663.187 61.9458 666.641 64.0562C670.142 66.0583 671.508 70.44 669.847 74.3361C668.14 78.3405 664.854 79.3346 661.005 76.983C657.499 74.7041 656.296 71.1049 657.957 67.2087Z" fill="#F5F4F8"/>
<path d="M694.572 1.55793C698.123 3.72785 699.233 7.54223 697.474 11.3768C695.761 15.1031 692.286 16.253 688.977 14.0954C685.524 11.9858 684.205 7.49757 685.918 3.77123C687.486 0.0928127 690.967 -0.780462 694.572 1.55793Z" fill="#F5F4F8"/>
<path d="M666.305 33.1643C669.461 35.092 671.069 39.4821 669.732 42.6178C668.349 45.8616 664.488 47.0464 661.431 45.1789C658.276 43.2512 656.963 39.0419 658.392 35.69C659.874 32.5063 663.347 31.357 666.305 33.1643Z" fill="#F5F4F8"/>
<path d="M659.062 4.17002C660.638 0.765144 663.734 -0.0733035 666.946 2.0259C670.159 4.1251 670.921 7.59334 669.252 11.2148C667.768 14.4031 664.238 15.3855 661.322 13.4672C658.405 11.549 657.538 7.74352 659.062 4.17002Z" fill="#F5F4F8"/>
<path d="M669.076 168.548C667.553 172.118 664.703 172.969 661.348 170.919C658.19 168.99 656.936 165.223 658.221 161.916C659.513 158.886 663.857 157.449 666.574 159.245C669.389 161.101 670.46 165.301 669.076 168.548Z" fill="#F5F4F8"/>
<path d="M631.979 130.609C633.461 127.424 636.647 126.369 639.463 128.226C642.278 130.082 643.486 133.958 642.096 136.927C640.712 140.173 637.717 141.071 634.658 139.202C631.599 137.334 630.549 133.964 631.979 130.609Z" fill="#F5F4F8"/>
<path d="M641.286 105.446C640.172 107.766 637.756 108.473 634.894 106.724C631.933 104.915 631.138 102.111 632.424 98.8036C633.571 95.8212 636.613 94.8147 639.231 96.5509C641.797 98.1186 642.855 101.766 641.286 105.446Z" fill="#F5F4F8"/>
<path d="M659.196 194.734C660.343 191.751 663.286 190.684 665.951 192.313C668.912 194.122 669.753 196.818 668.467 200.126C667.182 203.433 664.707 203.694 662.055 202.62C659.402 201.545 658.141 197.5 659.196 194.734Z" fill="#F5F4F8"/>
<path d="M529.986 191.561C532.75 193.249 533.748 196.451 532.358 199.421C530.921 202.499 528.65 203.158 525.886 201.47C523.123 199.781 522.091 197.241 523.331 194.042C524.478 191.06 527.276 190.041 529.986 191.561Z" fill="#F5F4F8"/>
<path d="M638.228 160.788C640.894 162.417 641.775 164.729 640.482 167.761C639.282 170.576 637.115 171.572 634.403 170.052C631.737 168.423 630.948 165.894 632.195 162.971C633.342 159.987 635.417 159.207 638.228 160.788Z" fill="#F5F4F8"/>
<path d="M421.463 191.88C423.886 193.496 424.866 195.87 423.764 198.746C422.715 201.791 420.298 202.498 417.835 201.266C415.32 199.866 414.287 197.324 415.435 194.34C416.636 191.524 418.553 190.238 421.463 191.88Z" fill="#F5F4F8"/>
<path d="M641.176 74.5503C639.236 74.7279 637.072 75.7226 635.257 75.0229C632.51 73.8893 631.762 70.9796 633.006 68.0606C634.251 65.1415 636.665 64.4357 639.083 66.0496C641.791 67.5678 642.243 70.2968 641.176 74.5503Z" fill="#F5F4F8"/>
<path d="M610.969 160.651C614.027 162.52 614.723 165.263 613.57 167.967C612.509 170.455 610.397 171.619 607.733 169.991C605.168 168.424 603.946 166.041 605.139 162.952C606.43 159.923 608.608 159.481 610.969 160.651Z" fill="#F5F4F8"/>
<path d="M639.19 34.7336C641.665 36.5182 642.354 38.9863 641.009 41.8488C639.711 44.603 637.676 44.9973 635.208 43.4896C632.642 41.9215 631.86 39.6699 633.06 36.8554C634.306 33.9326 636.334 33.2614 639.19 34.7336Z" fill="#F5F4F8"/>
<path d="M606.546 138.735C606.151 136.444 604.973 133.948 605.462 131.924C606.123 128.912 608.589 128.096 611.252 129.449C614.014 130.863 614.915 134.01 613.654 136.382C612.77 138.165 610.152 138.752 608.226 139.762C607.633 139.399 607.139 139.097 606.546 138.735Z" fill="#F5F4F8"/>
<path d="M641.256 10.7393C639.271 11.0248 637.017 12.2349 635.348 11.4879C632.747 10.3072 632.045 7.2914 633.243 4.48241C634.441 1.67341 636.905 1.13634 638.987 2.95291C640.426 4.2401 641.121 6.97963 642.138 8.96289C641.763 9.55093 641.533 10.0911 641.256 10.7393Z" fill="#F5F4F8"/>
<path d="M579.729 169.834C579.335 167.543 578.354 165.168 578.698 163.191C579.313 160.288 582.017 159.207 584.059 161.138C585.502 162.429 586.799 165.818 586.303 167.565C585.9 169.095 583.19 169.899 581.508 170.921C580.961 170.45 580.368 170.088 579.729 169.834Z" fill="#F5F4F8"/>
<path d="M613.336 105.456C611.494 105.694 609.475 106.64 607.759 106.001C605.359 105.216 604.473 102.631 605.625 99.9277C606.725 97.0563 608.936 95.9535 611.164 97.7236C612.551 98.8434 613.147 101.525 614.067 103.449C613.843 104.266 613.612 104.807 613.336 105.456Z" fill="#F5F4F8"/>
<path d="M389.01 200.205C388.668 198.083 387.635 195.539 388.183 193.96C389.048 191.346 391.653 190.204 393.749 192.305C394.948 193.584 395.85 196.731 395.4 198.37C394.898 199.84 392.326 200.318 390.69 201.232C390.196 200.93 389.603 200.568 389.01 200.205Z" fill="#F5F4F8"/>
<path d="M583.859 128.779C586.752 131.639 587.588 134.063 585.978 136.086C584.935 137.362 582.567 138.239 581.091 137.61C578.731 136.715 577.645 134.001 579.248 131.701C580.192 130.365 582.322 129.753 583.859 128.779Z" fill="#F5F4F8"/>
<path d="M497.901 200.098C497.758 198.097 496.869 195.503 497.621 194.322C498.42 193.033 501.132 192.229 502.51 192.798C504.97 193.754 505.528 196.829 504.116 198.973C503.172 200.311 501.034 200.645 499.391 201.282C498.943 200.871 498.35 200.509 497.901 200.098Z" fill="#F5F4F8"/>
<path d="M449.433 192.703C449.623 194.599 450.612 197.256 449.858 198.437C449.012 199.836 446.721 199.942 445.03 200.688C444.344 198.49 442.972 196.147 443.37 194.336C443.635 193.13 446.21 192.65 447.802 191.844C448.344 192.038 448.839 192.34 449.433 192.703Z" fill="#F5F4F8"/>
<path d="M560.13 164.557C557.515 166.906 556.704 171.718 552.891 168.436C551.899 167.558 551.284 164.052 551.988 162.985C554.564 158.98 556.893 163.124 560.13 164.557Z" fill="#F5F4F8"/>
<path d="M424.395 99.3655C423.014 102.897 422.82 107.154 418.539 105.496C417.457 105.109 416.107 101.549 416.517 100.295C418.057 95.22 421.327 99.5422 424.395 99.3655Z" fill="#F5F4F8"/>
<path d="M469.753 35.1284C472.658 35.2758 474.627 34.717 475.857 35.6028C476.89 36.3689 476.947 38.8421 477.47 40.5155C475.788 40.9792 473.884 42.255 472.608 41.4767C471.483 40.9255 471.132 38.2726 469.753 35.1284Z" fill="#F5F4F8"/>
<path d="M614.19 5.55039C612.997 8.63999 612.646 12.3802 608.91 10.6431C607.778 10.0882 606.379 6.36957 606.84 5.28767C608.501 1.39283 611.283 3.91056 614.19 5.55039Z" fill="#F5F4F8"/>
<path d="M558.999 136.132C556.292 136.379 554.227 137.155 553.533 136.459C552.439 135.248 552.192 132.925 551.57 131.188C553.255 130.723 555.019 129.492 556.434 129.949C557.312 130.214 557.717 133.04 558.999 136.132Z" fill="#F5F4F8"/>
<path d="M586.376 195.01C585.083 198.043 584.481 201.498 581.083 199.832C580.148 199.397 578.945 195.795 579.552 194.663C581.221 191.041 583.669 193.766 586.376 195.01Z" fill="#F5F4F8"/>
<path d="M613.189 195.023C612.285 198.018 611.684 201.471 608.15 200.13C607.071 199.744 605.572 195.963 606.086 195.049C607.853 191.49 610.531 193.672 613.189 195.023Z" fill="#F5F4F8"/>
<path d="M632.282 198.774C633.672 195.805 634.372 192.414 637.819 194.247C638.805 194.85 639.862 198.496 639.349 199.409C637.471 202.354 634.946 200.402 632.282 198.774Z" fill="#F5F4F8"/>
<path d="M260.764 196.117C258.798 197.232 256.885 198.515 254.919 199.629C254.342 197.778 252.773 195.049 253.332 194.029C255.155 190.92 257.684 193.146 259.944 194.254C260.154 194.927 260.41 195.492 260.764 196.117Z" fill="#F5F4F8"/>
<path d="M553.553 192.177C555.928 193.901 559.344 194.351 557.729 198.14C557.222 199.33 554.324 200.289 553.384 199.578C550.219 197.371 552.353 194.992 553.553 192.177Z" fill="#F5F4F8"/>
<path d="M584.57 107.674C581.929 104.834 578.121 104.143 579.63 100.022C580.091 98.9408 582.643 97.9106 583.629 98.5129C587.376 100.802 584.382 103.743 584.57 107.674Z" fill="#F5F4F8"/>
<path d="M529.623 107.023C527.038 104.625 523.609 103.622 525.323 99.8943C525.738 98.9203 528.398 98.2261 529.286 98.7687C533.089 101.229 530.079 103.619 529.623 107.023Z" fill="#F5F4F8"/>
<path d="M450.547 69.2479C449.21 72.3858 448.056 75.0909 444.991 72.9454C444.05 72.2344 443.44 68.9975 444 67.9758C446.253 64.4422 448.272 67.5847 450.547 69.2479Z" fill="#F5F4F8"/>
<path d="M447.475 137.778C445.336 135.788 442.003 134.845 443.718 131.114C444.18 130.031 447.184 129.409 448.079 130.229C451.259 132.991 448.682 135.239 447.475 137.778Z" fill="#F5F4F8"/>
<path d="M450.734 100.75C449.135 103.043 448.692 106.997 445.09 104.66C444.203 104.118 443.35 100.872 443.863 99.9588C445.923 96.5842 448.171 99.1835 450.734 100.75Z" fill="#F5F4F8"/>
<path d="M607.998 66.1932C610.466 67.7005 613.499 68.4627 612.319 72.1066C612.002 73.1409 609.158 74.268 608.27 73.7253C605.06 71.6274 606.897 69.0672 607.998 66.1932Z" fill="#F5F4F8"/>
<path d="M391.547 96.9377C393.424 98.3566 396.78 98.6373 395.608 102.548C395.246 103.688 392.921 103.901 391.43 104.487C390.939 102.146 390.494 99.6969 389.905 97.2956C390.535 97.2724 391.067 97.1891 391.547 96.9377Z" fill="#F5F4F8"/>
<path d="M369.78 38.312C368.103 39.3311 366.479 40.5185 364.644 41.0327C364.355 41.1284 363.272 38.4232 362.556 36.8961C364.634 36.3942 366.613 35.8322 368.645 35.4384C369.058 36.5085 369.419 37.4102 369.78 38.312Z" fill="#F5F4F8"/>
<path d="M505.08 100.863C503.709 102.618 503.312 106.469 499.902 104.25C498.915 103.647 498.574 101.528 497.956 100.058C500.136 99.6161 502.414 99.2341 504.594 98.7918C504.857 99.6347 504.968 100.249 505.08 100.863Z" fill="#F5F4F8"/>
<path d="M611.866 35.3501C612.555 37.8151 612.929 39.2699 613.303 40.7248C611.902 41.0955 610.178 42.223 609.291 41.6809C608.206 41.0183 607.912 38.7943 607.196 37.2668C608.492 36.5594 609.794 36.1285 611.866 35.3501Z" fill="#F5F4F8"/>
<path d="M554.417 2.7497C556.737 4.03065 559.342 4.9383 558.007 8.3599C557.545 9.44415 555.085 10.5377 554.439 10.0064C551.611 7.86892 553.064 5.33952 554.417 2.7497Z" fill="#F5F4F8"/>
<path d="M446.684 159.897C447.565 162.211 448.493 164.416 449.375 166.73C448.063 166.885 446.429 167.798 445.441 167.194C442.325 165.155 444.317 162.821 444.997 160.641C445.623 160.341 446.104 160.089 446.684 159.897Z" fill="#F5F4F8"/>
<path d="M529.834 161.418C530.287 164.157 531.117 166.305 530.642 166.835C529.737 167.786 527.896 168.302 526.762 167.746C525.924 167.371 524.982 164.608 525.352 163.74C525.815 162.655 527.662 162.416 529.834 161.418Z" fill="#F5F4F8"/>
<path d="M477.436 164.649C475.757 165.67 473.979 166.63 472.347 167.542C471.926 166.194 470.769 164.532 471.039 163.606C472.213 159.686 474.66 162.408 476.66 162.675C476.969 163.41 477.179 164.084 477.436 164.649Z" fill="#F5F4F8"/>
<path d="M392.643 74.2728C391.815 72.1307 390.987 69.9885 390.16 67.8464C391.469 67.6918 392.825 67.4291 394.134 67.2745C394.475 69.3919 394.717 71.4491 395.012 73.6746C394.235 73.7457 393.465 74.0935 392.643 74.2728Z" fill="#F5F4F8"/>
<path d="M420.434 137.621C419.227 135.796 418.066 133.863 416.859 132.038C418.061 131.547 419.309 130.949 420.412 130.399C421.185 132.367 421.814 134.384 422.587 136.352C421.918 136.759 421.149 137.106 420.434 137.621Z" fill="#F5F4F8"/>
<path d="M369.064 71.054C367.178 71.6779 365.392 72.3621 363.553 72.8776C363.515 71.215 363.009 68.311 363.444 68.167C365.039 67.6391 366.897 67.9549 368.749 67.9936C368.821 68.9936 368.893 69.9936 369.064 71.054Z" fill="#F5F4F8"/>
<path d="M559.111 102.199C557.473 102.834 555.934 103.529 554.297 104.164C553.778 102.757 553.358 101.41 552.886 99.895C554.628 99.5969 556.47 99.359 558.212 99.0609C558.626 100.131 558.941 101.141 559.111 102.199Z" fill="#F5F4F8"/>
<path d="M450.324 37.5571C449.045 39.0977 449.135 42.978 445.774 40.9249C444.885 40.3814 444.642 38.3205 444.076 37.0183C446.014 36.5631 447.906 36.2162 449.844 35.761C449.857 36.3153 450.068 36.9904 450.324 37.5571Z" fill="#F5F4F8"/>
<path d="M586.591 70.6805C584.954 71.595 583.172 72.5575 581.535 73.472C581.212 72.1809 580.376 69.7552 580.567 69.5987C582.158 68.7927 583.907 68.4935 585.649 67.9169C586.011 68.8221 586.229 69.7754 586.591 70.6805Z" fill="#F5F4F8"/>
<path d="M532.949 6.79043C531.315 7.70297 529.583 8.55513 527.95 9.46767C527.483 8.22726 527.016 6.98687 526.549 5.74647C528.387 5.23142 530.178 4.82464 532.015 4.30959C532.377 5.21283 532.686 5.94751 532.949 6.79043Z" fill="#F5F4F8"/>
<path d="M229.608 200.418C228.787 198.553 227.92 196.796 227.099 194.932C228.158 194.488 229.165 193.876 230.224 193.433C230.854 195.454 231.484 197.475 232.161 199.387C231.246 199.783 230.476 200.13 229.608 200.418Z" fill="#F5F4F8"/>
<path d="M395.657 166.557C393.435 166.829 391.803 167.461 391.208 166.826C390.363 165.903 389.689 163.999 389.952 162.802C390.175 161.989 392.338 161.273 393.124 161.753C394.152 162.245 394.584 164.137 395.657 166.557Z" fill="#F5F4F8"/>
<path d="M476.576 194.568C475.769 197.631 475.412 199.054 475.055 200.476C474.619 200.621 474.282 200.825 473.847 200.969C472.871 198.869 471.949 196.938 470.973 194.838C472.485 194.804 474.042 194.661 476.576 194.568Z" fill="#F5F4F8"/>
<path d="M505.373 38.8055C503.537 39.3203 501.654 39.9434 499.817 40.4582C499.502 39.4471 498.871 37.4249 499.016 37.377C500.8 36.6936 502.637 36.1788 504.474 35.6639C504.888 36.7354 505.058 37.7944 505.373 38.8055Z" fill="#F5F4F8"/>
<path d="M583.209 11.4724C582.341 9.71379 581.42 7.78665 580.552 6.02808C581.659 5.4759 582.719 5.03194 583.826 4.47977C584.312 6.55077 584.798 8.62181 585.185 10.6325C584.513 11.0408 583.887 11.3409 583.209 11.4724Z" fill="#F5F4F8"/>
<path d="M283.585 191.593C284.309 193.4 285.131 195.268 285.564 197.171C285.571 197.448 283.93 198.084 283.113 198.54C282.482 196.516 281.851 194.492 281.22 192.469C281.991 192.12 282.86 191.833 283.585 191.593Z" fill="#F5F4F8"/>
<path d="M531.898 71.128C530.353 71.5463 528.71 71.9045 527.119 72.4309C526.851 71.3133 526.529 70.0275 526.261 68.91C527.956 68.7201 529.652 68.5302 531.348 68.3403C531.61 69.1816 531.728 70.0707 531.898 71.128Z" fill="#F5F4F8"/>
<path d="M419.79 168.759C419.021 167.06 418.106 165.41 417.627 163.616C417.574 163.447 419.307 162.595 420.268 162.091C420.8 164.054 421.332 166.016 421.963 168.039C421.285 168.171 420.561 168.411 419.79 168.759Z" fill="#F5F4F8"/>
<path d="M500.623 3.20627C501.677 4.80025 502.685 6.50194 503.74 8.09592C502.927 8.54981 501.497 9.57761 501.248 9.28989C500.201 7.97133 499.435 6.28191 498.577 4.80794C499.292 4.29404 499.909 3.72017 500.623 3.20627Z" fill="#F5F4F8"/>
<path d="M310.807 200.787C309.767 197.964 308.944 196.095 308.22 194.285C309.143 194.166 310.35 193.674 311.042 194.096C313.851 195.402 312.92 197.294 310.807 200.787Z" fill="#F5F4F8"/>
<path d="M368.531 101.684C367.085 102.163 365.639 102.641 364.048 103.168C363.681 101.99 363.412 100.873 363.045 99.6949C364.642 99.4449 366.193 99.3029 367.79 99.0528C368.052 99.894 368.268 100.843 368.531 101.684Z" fill="#F5F4F8"/>
<path d="M528.331 129.26C528.811 131.056 529.291 132.853 529.771 134.649C528.703 134.816 527.635 134.984 526.567 135.151C526.377 133.258 526.14 131.474 526.049 129.642C526.728 129.511 527.506 129.44 528.331 129.26Z" fill="#F5F4F8"/>
<path d="M477.002 133.136C475.511 134.002 473.974 134.976 472.583 135.902C472.214 134.72 471.747 133.478 471.379 132.297C473.027 131.938 474.623 131.41 476.271 131.05C476.482 131.725 476.791 132.461 477.002 133.136Z" fill="#F5F4F8"/>
<path d="M416.304 69.4958C417.799 68.9082 419.392 68.381 420.887 67.7935C421.11 69.0211 421.234 70.1884 421.457 71.416C419.904 71.5582 418.449 71.7607 416.895 71.903C416.731 71.1207 416.468 70.2781 416.304 69.4958Z" fill="#F5F4F8"/>
<path d="M477.975 70.3705C476.381 70.8979 474.834 71.3171 473.24 71.8445C473.023 70.8933 472.445 69.0388 472.491 68.9305C473.986 68.3428 475.534 67.9236 477.128 67.3961C477.344 68.3474 477.66 69.3589 477.975 70.3705Z" fill="#F5F4F8"/>
<path d="M477.445 102.403C476.043 102.774 474.595 103.253 473.095 103.564C472.971 102.397 472.748 101.17 472.624 100.003C474.032 99.909 475.44 99.8147 476.894 99.6123C477.11 100.563 477.228 101.453 477.445 102.403Z" fill="#F5F4F8"/>
<path d="M395.2 133.126C394.003 133.894 392.858 134.83 391.602 135.152C391.215 135.188 390.44 133.216 389.737 132.242C391.184 131.763 392.677 131.176 394.123 130.697C394.53 131.491 394.793 132.333 395.2 133.126Z" fill="#F5F4F8"/>
<path d="M531.557 38.836C530.257 39.266 529.108 39.924 527.848 39.9703C527.461 40.0057 526.977 37.9422 526.564 36.8742C528.015 36.6724 529.419 36.5784 530.968 36.4366C531.177 37.1085 531.393 38.0562 531.557 38.836Z" fill="#F5F4F8"/>
<path d="M583.376 42.9754C582.473 41.6086 581.615 40.1341 580.711 38.7674C581.38 38.361 582.665 37.3806 582.718 37.5484C583.667 38.8074 584.381 40.3296 585.186 41.6363C584.616 42.1027 584.045 42.569 583.376 42.9754Z" fill="#F5F4F8"/>
<path d="M501.322 66.9332C501.794 68.4484 502.365 70.024 502.838 71.5392C502.114 71.7787 500.766 72.3178 500.713 72.1494C500.096 70.682 499.67 69.0586 499.197 67.5433C499.973 67.4722 500.697 67.2328 501.322 66.9332Z" fill="#F5F4F8"/>
<path d="M392.54 34.7548C393.302 36.1742 394.018 37.7019 394.78 39.1214C393.964 39.577 393.096 39.8643 392.28 40.32C391.854 38.6966 391.283 37.1211 390.856 35.4977C391.435 35.3062 392.06 35.0065 392.54 34.7548Z" fill="#F5F4F8"/>
<path d="M504.062 165.053C502.907 165.715 501.705 166.486 500.648 167.209C500.239 166.412 499.83 165.615 499.468 164.709C500.623 164.047 501.878 163.445 503.08 162.675C503.443 163.58 503.752 164.317 504.062 165.053Z" fill="#F5F4F8"/>
<path d="M368.474 133.445C367.125 133.984 365.776 134.523 364.427 135.063C364.066 134.16 363.849 133.21 363.488 132.307C364.89 131.936 366.291 131.565 367.693 131.195C368.048 131.82 368.212 132.602 368.474 133.445Z" fill="#F5F4F8"/>
<path d="M555.829 34.9706C556.204 36.4299 556.678 37.9495 557.053 39.4088C556.229 39.5885 555.259 39.8162 554.435 39.9959C554.205 38.4886 554.12 36.9333 553.89 35.426C554.616 35.1859 555.249 35.1627 555.829 34.9706Z" fill="#F5F4F8"/>
</svg>
